<?xml version="1.0" standalone="no"?>
<!DOCTYPE svg PUBLIC "-//W3C//DTD SVG 1.1//EN" "http://www.w3.org/Graphics/SVG/1.1/DTD/svg11.dtd" >
<svg xmlns="http://www.w3.org/2000/svg" xmlns:xlink="http://www.w3.org/1999/xlink" version="1.1">
<metadata>
Created by FontForge 20201107 at Sat Sep  7 07:40:00 2024
 By 
Copyright (c) 2008, 2013 by Nick Shinn. Published by Shinn Type Foundry. All rights reserved. Customized and extended for Riot Games by Monotype Imaging, Inc.
</metadata>
<defs>
<font id="BeaufortforLOL-HeavyItalic" horiz-adv-x="1036" >
  <font-face 
    font-family="Beaufort for LOL Heavy"
    font-weight="900"
    font-style="italic"
    font-stretch="normal"
    units-per-em="2048"
    panose-1="2 2 9 3 5 0 0 9 0 4"
    ascent="1520"
    descent="-528"
    x-height="967"
    cap-height="1364"
    bbox="-342 -512 2423 2060"
    underline-thickness="102"
    underline-position="-255"
    slope="-12"
    unicode-range="U+000D-FEFF"
  />
<missing-glyph horiz-adv-x="1048" 
d="M0 0v1470h1049v-1470h-1049zM102 102h844v1264h-844v-1264zM461 479l-4 39q0 70 8 111q7 41 43.5 91t77.5 89q43 39 68.5 77t25.5 85q0 70 -47 122t-109 52q-69 0 -112.5 -49t-55.5 -146l-102 17q13 137 84 208.5t192 71.5q110 0 182 -74.5t72 -193.5q0 -79 -30 -131
t-101 -117t-84 -94q-14 -35 -14 -158h-94zM455 240v137h114v-137h-114z" />
    <glyph glyph-name="fi" unicode="fi" horiz-adv-x="1384" 
d="M84 -14l158 770h-168l37 194h168q43 217 155 342t291 125q103 0 162 -42t59 -105q0 -54 -38 -96.5t-107 -51.5q14 20 14 43q0 27 -18.5 46.5t-48.5 19.5q-32 0 -54.5 -22t-44.5 -84t-43 -175h256l-37 -194h-254l-157 -770q-75 -373 -394 -373q-162 0 -241 131
q54 -8 74 -8q101 0 153.5 63.5t77.5 186.5zM819 0l168 764q2 6 2 18q0 36 -34.5 61.5t-73.5 30.5l-17 3l498 118l-166 -772q-12 -53 -12 -100q0 -56 16 -87t41 -36h-422zM1225 1059q-72 0 -116 45t-44 117q0 83 57.5 139.5t141.5 56.5q72 0 114.5 -45.5t42.5 -118.5
q0 -83 -56.5 -138.5t-139.5 -55.5z" />
    <glyph glyph-name="fl" unicode="fl" horiz-adv-x="1382" 
d="M84 -14l158 770h-168l37 194h168q43 217 155 342t291 125q103 0 162 -42t59 -105q0 -54 -38 -96.5t-107 -51.5q14 20 14 43q0 27 -18.5 46.5t-48.5 19.5q-32 0 -54.5 -22t-44.5 -84t-43 -175h256l-37 -194h-254l-157 -770q-75 -373 -394 -373q-162 0 -241 131
q54 -8 74 -8q101 0 153.5 63.5t77.5 186.5zM819 0l258 1194q4 16 4 25q0 36 -28.5 57.5t-73.5 28.5l-12 2l487 118l-260 -1202q-12 -55 -12 -102q0 -54 16 -85t41 -36h-420z" />
    <glyph glyph-name=".notdef" horiz-adv-x="1048" 
d="M0 0v1470h1049v-1470h-1049zM102 102h844v1264h-844v-1264zM461 479l-4 39q0 70 8 111q7 41 43.5 91t77.5 89q43 39 68.5 77t25.5 85q0 70 -47 122t-109 52q-69 0 -112.5 -49t-55.5 -146l-102 17q13 137 84 208.5t192 71.5q110 0 182 -74.5t72 -193.5q0 -79 -30 -131
t-101 -117t-84 -94q-14 -35 -14 -158h-94zM455 240v137h114v-137h-114z" />
    <glyph glyph-name=".null" horiz-adv-x="0" 
 />
    <glyph glyph-name="nonmarkingreturn" horiz-adv-x="682" 
 />
    <glyph glyph-name="CR" unicode="&#xd;" horiz-adv-x="436" 
 />
    <glyph glyph-name="space" unicode=" " horiz-adv-x="436" 
 />
    <glyph glyph-name="exclam" unicode="!" horiz-adv-x="622" 
d="M256 748l43 348q8 65 8 118q0 129 -53 150h537q-7 -2 -16.5 -7.5t-26 -23t-33 -45t-38 -77.5t-40.5 -115l-102 -348q-20 -67 -49 -128.5t-56.5 -102.5t-52.5 -72t-40 -45l-15 -15q-3 4 -8 11t-17 32t-21.5 53t-17.5 73.5t-8 94.5q0 43 6 99zM250 -25q-64 0 -102.5 39.5
t-38.5 104.5q0 73 51.5 124.5t124.5 51.5q64 0 102.5 -41.5t38.5 -106.5q0 -73 -51 -122.5t-125 -49.5z" />
    <glyph glyph-name="quotedbl" unicode="&#x22;" horiz-adv-x="1153" 
d="M807 618h-8q-7 14 -17.5 38t-27.5 95.5t-17 139.5q0 56 11 110l75 363h277l-76 -363q-19 -92 -73.5 -187.5t-98.5 -145.5zM346 618h-8q-7 14 -17.5 38t-27.5 95.5t-17 139.5q0 56 11 110l75 363h277l-76 -363q-19 -92 -73.5 -187.5t-99.5 -145.5z" />
    <glyph glyph-name="numbersign" unicode="#" horiz-adv-x="1193" 
d="M127 0l96 412h-192v133h225l66 280h-203v136h233l92 403h156l-94 -403h301l90 403h162l-94 -403h182v-136h-215l-64 -280h203v-133h-237l-99 -412h-153l96 412h-301l-98 -412h-152zM410 545h301l65 280h-301z" />
    <glyph glyph-name="dollar" unicode="$" horiz-adv-x="1093" 
d="M-14 117l100 450q4 -88 38.5 -157.5t87 -110t112.5 -61.5t122 -21q91 0 153.5 41t62.5 111q0 34 -27.5 65.5t-71.5 59t-97.5 57t-107 66.5t-97.5 80.5t-71.5 105.5t-27.5 135q0 93 37 168.5t99.5 124.5t135 79t154.5 42l35 166h221l-33 -164q160 -19 254 -82l-84 -379
q-18 125 -108 190.5t-201 65.5q-87 0 -146 -39t-59 -106q0 -35 28.5 -69t74 -64t100.5 -62t110 -70.5t100.5 -81.5t74 -103t28.5 -128q0 -94 -38 -169.5t-104 -124.5t-143 -79t-166 -43l-34 -174h-222l33 170q-199 17 -323 111z" />
    <glyph glyph-name="percent" unicode="%" horiz-adv-x="1667" 
d="M1227 -25q-131 0 -201 88.5t-70 221.5q0 85 28.5 170t79.5 156t130.5 115t173.5 44q131 0 198.5 -88.5t67.5 -222.5q0 -68 -17 -136t-51.5 -130.5t-82.5 -111t-114.5 -77.5t-141.5 -29zM285 0l1013 1364h209l-1009 -1364h-213zM416 602q-131 0 -200 89t-69 222
q0 85 28 170t78.5 156t130 115.5t173.5 44.5q131 0 199.5 -89t68.5 -223q0 -85 -28 -170t-78.5 -156t-129.5 -115t-173 -44zM1264 158q34 0 63 34t45 83.5t24.5 98t8.5 83.5q0 58 -19.5 93.5t-58.5 35.5q-34 0 -62.5 -34t-44 -84t-24 -97.5t-8.5 -83.5q0 -129 76 -129z
M453 786q34 0 63 34t45.5 83.5t25.5 98t9 83.5q0 58 -19.5 93.5t-58.5 35.5q-34 0 -63 -34t-45 -83.5t-24.5 -98t-8.5 -83.5q0 -129 76 -129z" />
    <glyph glyph-name="ampersand" unicode="&#x26;" horiz-adv-x="1564" 
d="M1104 778h495q-35 -14 -80 -63t-79 -101q-119 -189 -262 -321q115 -72 204 -72q42 0 80.5 21t87.5 65q-137 -327 -346 -327q-132 0 -289 118q-221 -123 -454 -123q-110 0 -191.5 25.5t-128 70.5t-68.5 101t-22 123q0 123 72 224.5t254 203.5q-92 180 -92 283q0 80 29 147
t76.5 111.5t108 76.5t122.5 46t122 14q102 0 187 -32.5t140.5 -103t55.5 -167.5q0 -67 -27.5 -127.5t-79 -111t-109.5 -90t-132 -77.5q99 -135 219 -252q60 58 109 127t49 127q0 59 -51 84zM662 860q182 102 182 207q0 54 -36.5 86.5t-86.5 32.5q-49 0 -91 -39t-42 -109
q0 -28 10.5 -56.5t36.5 -73.5t27 -48zM729 260q-117 117 -237 285q-123 -85 -123 -183q0 -72 47 -109.5t129 -37.5q86 0 184 45z" />
    <glyph glyph-name="quotesingle" unicode="'" horiz-adv-x="534" 
d="M268 618h-8q-7 14 -17 38t-27 95.5t-17 139.5q0 51 12 110l74 363h276l-74 -363q-12 -58 -39 -118.5t-57 -106t-58 -82.5t-47 -56z" />
    <glyph glyph-name="parenleft" unicode="(" horiz-adv-x="722" 
d="M545 -420q-237 66 -370.5 273.5t-133.5 476.5q0 191 71 375t192 330t284.5 255t345.5 160q-110 -54 -207.5 -168.5t-166 -256.5t-118.5 -302t-74 -312t-24 -280q0 -191 50.5 -336t150.5 -215z" />
    <glyph glyph-name="parenright" unicode=")" horiz-adv-x="722" 
d="M-178 -420q111 54 208.5 168.5t165.5 256t117.5 302t73 312t23.5 280.5q0 192 -50 337.5t-149 213.5q159 -45 275 -157.5t173.5 -264t57.5 -326.5q0 -153 -46 -303t-129 -278.5t-194 -236.5t-246 -186t-280 -118z" />
    <glyph glyph-name="asterisk" unicode="*" horiz-adv-x="856" 
d="M227 623l-184 251q66 13 107.5 23.5t106 39.5t126.5 73q-26 16 -51.5 28.5t-55 22.5t-47 16t-52 12.5t-44 8.5t-49.5 7.5t-43 6.5l180 272q52 -106 89 -157q51 -72 128 -137q19 83 19 170q0 74 -21 206l301 -88q-42 -45 -60.5 -66t-51.5 -64t-56 -87.5t-43 -97.5
q62 8 113.5 21.5t98.5 35.5t67.5 33t64.5 37v-326q-132 61 -194 78q-75 22 -150 25q27 -69 64 -127t66 -90.5t79 -81.5l-293 -109q19 112 19 186q0 88 -23 189q-76 -70 -121.5 -142.5t-89.5 -168.5z" />
    <glyph glyph-name="plus" unicode="+" horiz-adv-x="1423" 
d="M514 0l100 477h-456l47 219h457l100 471h221l-100 -471h454l-47 -219h-454l-101 -477h-221z" />
    <glyph glyph-name="comma" unicode="," horiz-adv-x="534" 
d="M-154 -360q118 39 209.5 137.5t98.5 212.5q0 3 1 10t1 10q-11 0 -27 4q-49 9 -77.5 49.5t-28.5 94.5q0 86 59 143t145 57q83 0 141 -60t58 -177q0 -60 -21.5 -126t-66.5 -130t-106 -115.5t-148 -83t-184 -31.5q-9 0 -54 5z" />
    <glyph glyph-name="hyphen" unicode="-" horiz-adv-x="655" 
d="M61 416l48 227h524l-49 -227h-523z" />
    <glyph glyph-name="period" unicode="." horiz-adv-x="534" 
d="M184 -31q-78 0 -125 49t-47 127q0 91 62 152t153 61q79 0 125.5 -49.5t46.5 -128.5q0 -90 -62.5 -150.5t-152.5 -60.5z" />
    <glyph glyph-name="slash" unicode="/" horiz-adv-x="952" 
d="M-92 -31l942 1432h270l-932 -1432h-280z" />
    <glyph glyph-name="zero" unicode="0" horiz-adv-x="1093" 
d="M465 -31q-100 0 -177 41.5t-122.5 113t-68.5 160t-23 189.5q0 103 26 223t81 244t131 224.5t187 164.5t238 64q99 0 176.5 -41t123.5 -111.5t69.5 -159t23.5 -190.5q0 -85 -19 -184t-54.5 -202.5t-93 -199t-128.5 -171t-167 -120.5t-203 -45zM526 215q53 0 100 54
t77.5 135.5t53 177t32.5 178t10 139.5t-11.5 110t-41.5 93.5t-74 40.5q-52 0 -98.5 -54t-77.5 -135.5t-53.5 -177t-33 -178t-10.5 -139.5t11.5 -110t41.5 -93.5t74 -40.5z" />
    <glyph glyph-name="one" unicode="1" horiz-adv-x="1093" 
d="M336 0l203 973q-136 -130 -168 -158l-127 150q208 164 436 399h264l-221 -1067q-16 -78 -16 -127q0 -70 21.5 -112t51.5 -58h-444z" />
    <glyph glyph-name="two" unicode="2" horiz-adv-x="1093" 
d="M-70 0l422 393q104 98 168 162t138.5 149.5t110.5 156.5t36 130q0 82 -51.5 126t-122.5 44q-80 0 -130 -42t-50 -105q0 -41 27 -74.5t77 -44.5l-233 -227q-81 34 -124.5 108.5t-43.5 167.5q0 64 21 127t65.5 122t107 103.5t152.5 71.5t196 27q189 0 310.5 -97t121.5 -266
q0 -49 -14 -100t-31.5 -91.5t-56.5 -94.5t-65.5 -87t-84.5 -91t-86.5 -84.5t-98.5 -90.5t-95 -88l-57 -53h268q30 0 57 4.5t47.5 11.5t40 18.5t31.5 20.5t25 22.5t19 20.5t14.5 18.5t9.5 12.5l-82 -381h-1039z" />
    <glyph glyph-name="three" unicode="3" horiz-adv-x="1093" 
d="M-18 264l290 185q8 -113 63.5 -174.5t160.5 -61.5q87 0 144.5 54t57.5 134q0 57 -30 98t-86 65t-123 36t-154 16l449 492h-269q-102 0 -160.5 -29.5t-99.5 -77.5l129 363h916l-531 -561q127 -37 212 -127.5t85 -220.5q0 -217 -166.5 -351.5t-431.5 -134.5
q-180 0 -300.5 81.5t-155.5 213.5z" />
    <glyph glyph-name="four" unicode="4" horiz-adv-x="1093" 
d="M-16 276l20 99l694 989h416l-176 -850h129l-53 -238h-127l-13 -59q-12 -64 -12 -104q0 -80 37 -113h-381l64 276h-598zM362 514h273l135 596z" />
    <glyph glyph-name="five" unicode="5" horiz-adv-x="1093" 
d="M-25 264l291 185q19 -236 223 -236q81 0 137 54.5t56 138.5q0 93 -95 151.5t-259 58.5h-168l217 748h534q196 0 256 43l-104 -295h-483l-74 -244q226 -6 370 -119.5t144 -295.5q0 -92 -32 -171t-87.5 -135.5t-129 -97.5t-157.5 -60.5t-172 -19.5q-190 0 -312.5 83
t-154.5 212z" />
    <glyph glyph-name="six" unicode="6" horiz-adv-x="1093" 
d="M461 834l12 -11q112 86 254 86q155 0 248.5 -100.5t93.5 -269.5q0 -78 -23.5 -157t-72.5 -154t-117.5 -133t-167.5 -93t-213 -35q-193 0 -305.5 117.5t-112.5 314.5q0 194 80 388t231.5 357t348.5 253l469 -35q-236 -89 -408 -213.5t-317 -314.5zM539 207q89 0 149 75
t60 197q0 96 -47.5 149.5t-116.5 53.5q-82 0 -146.5 -74.5t-64.5 -201.5q0 -95 48.5 -147t117.5 -52z" />
    <glyph glyph-name="seven" unicode="7" horiz-adv-x="1093" 
d="M479 0h-416q129 223 354.5 567t385.5 555h-367q-179 0 -293 -145l125 387h1008l-397 -578q-333 -485 -400 -786z" />
    <glyph glyph-name="eight" unicode="8" horiz-adv-x="1093" 
d="M381 702q-170 94 -170 277q0 99 45.5 180t119.5 131.5t164.5 77.5t184.5 27q106 0 193.5 -32t144.5 -102.5t57 -168.5q0 -130 -79 -226.5t-199 -126.5q104 -46 158.5 -126.5t54.5 -176.5q0 -128 -76.5 -236t-210 -170.5t-293.5 -62.5q-119 0 -216 35.5t-160.5 114
t-63.5 188.5q0 150 97 257.5t249 139.5zM655 838q65 0 115.5 51.5t50.5 138.5q0 67 -40.5 105t-98.5 38q-66 0 -115 -48.5t-49 -135.5q0 -71 40 -110t97 -39zM354 356q0 -75 48 -117t116 -42q77 0 137 58.5t60 158.5q0 79 -48 122.5t-116 43.5q-77 0 -137 -61t-60 -163z" />
    <glyph glyph-name="nine" unicode="9" horiz-adv-x="1093" 
d="M467 -18l-469 34q241 91 410 208.5t311 303.5l-12 11q-112 -86 -254 -86q-155 0 -247.5 101.5t-92.5 270.5q0 98 38 196.5t109 183t187 137.5t258 53q194 0 306.5 -118t112.5 -314q0 -193 -79 -383.5t-230 -349t-348 -248.5zM596 682q82 0 146.5 73.5t64.5 200.5
q0 95 -48.5 147t-117.5 52q-89 0 -149 -75t-60 -197q0 -96 47.5 -148.5t116.5 -52.5z" />
    <glyph glyph-name="colon" unicode=":" horiz-adv-x="534" 
d="M315 571q-77 0 -124.5 49t-47.5 128q0 91 62 153t153 62q78 0 125 -51t47 -130q0 -90 -62.5 -150.5t-152.5 -60.5zM190 -31q-78 0 -125 49t-47 127q0 91 62 152t153 61q79 0 126 -49.5t47 -128.5q0 -90 -63 -150.5t-153 -60.5z" />
    <glyph glyph-name="semicolon" unicode=";" horiz-adv-x="534" 
d="M326 571q-77 0 -124.5 49t-47.5 128q0 91 62 153t153 62q78 0 125 -51t47 -130q0 -90 -62.5 -150.5t-152.5 -60.5zM-180 -360q118 39 209 137.5t98 212.5q0 3 1 10t1 10q-7 0 -31 6q-48 10 -75 49t-27 93q0 85 59.5 142.5t145.5 57.5q82 0 140 -60t58 -177
q0 -60 -21.5 -126t-66.5 -130t-106 -115.5t-148 -83t-184 -31.5q-8 0 -53 5z" />
    <glyph glyph-name="less" unicode="&#x3c;" horiz-adv-x="1423" 
d="M231 510l35 160l1114 553l-53 -248l-801 -389l-2 -13l641 -366l-53 -250z" />
    <glyph glyph-name="equal" unicode="=" horiz-adv-x="1423" 
d="M205 698l47 220h1132l-47 -220h-1132zM111 252l47 219h1132l-47 -219h-1132z" />
    <glyph glyph-name="greater" unicode="&#x3e;" horiz-adv-x="1423" 
d="M115 -43l53 250l801 387l2 12l-641 369l53 248l881 -553l-35 -160z" />
    <glyph glyph-name="question" unicode="?" horiz-adv-x="944" 
d="M207 938l78 379q76 35 184.5 57.5t212.5 22.5q115 0 199.5 -28t135 -90t50.5 -153q0 -72 -30 -135t-77.5 -109t-105.5 -88t-115.5 -78.5t-105 -72t-77.5 -78t-30 -88.5q0 -27 14.5 -37t43.5 -14q-60 -57 -152 -57q-80 0 -139.5 39.5t-59.5 115.5q0 70 34.5 131t85.5 102
t111.5 81.5t111.5 72.5t85.5 72.5t34.5 83.5q0 41 -32.5 64.5t-88.5 23.5q-87 0 -193 -62.5t-175 -154.5zM324 -25q-64 0 -103 39.5t-39 104.5q0 73 51 124.5t125 51.5q64 0 103 -41.5t39 -106.5q0 -73 -51 -122.5t-125 -49.5z" />
    <glyph glyph-name="at" unicode="@" horiz-adv-x="1947" 
d="M1726 -35l105 -74q-132 -132 -348 -206t-432 -74q-226 0 -404.5 58.5t-293 163t-174.5 247t-60 313.5q0 192 78.5 363t211.5 292t315 191.5t384 71.5q338 1 550 -186t212 -480q0 -125 -41.5 -243.5t-115 -211.5t-185 -149.5t-242.5 -56.5q-128 0 -186 55q-32 32 -49 76
q-108 -131 -283 -131q-129 0 -196.5 93.5t-67.5 239.5q0 87 23 178t69.5 176t109.5 152t150 107.5t184 40.5q50 0 123 -15q14 -3 35.5 -8.5t37 -8.5t30.5 -3q73 0 168 55l-138 -674q-14 -80 -14 -98q0 -40 17 -71t55 -31q155 0 265 150t110 376q0 246 -176.5 403t-458.5 156
q-228 -1 -420 -103t-305 -283.5t-113 -403.5q0 -206 100.5 -363t279.5 -241t408 -84q197 0 378.5 62.5t303.5 178.5zM881 190q38 0 72 44t59 114q22 60 45.5 172.5t23.5 155.5q0 119 -71 119q-36 0 -74 -39t-68.5 -101t-50.5 -148t-20 -173q0 -64 21.5 -104t62.5 -40z" />
    <glyph glyph-name="A" unicode="A" horiz-adv-x="1480" 
d="M113 231l731 1133h319l125 -1153q5 -49 16 -88t22.5 -60.5t25.5 -36.5t23 -19.5t16 -6.5h-535q6 1 13.5 4t19 13.5t21 26t16 44.5t6.5 66q0 18 -2 30l-12 97h-478l-39 -72q-57 -108 -57 -143q0 -33 16 -48.5t33 -17.5h-495q15 4 35.5 16.5t72 68.5t107.5 146zM580 498
h315l-39 448z" />
    <glyph glyph-name="B" unicode="B" horiz-adv-x="1290" 
d="M92 166l215 1032q6 27 6 51q0 91 -84 115h615q83 0 161 -21t143 -61t104.5 -105t39.5 -145q0 -119 -77.5 -216t-206.5 -122q103 -27 163 -115t60 -196q0 -73 -32 -138.5t-98 -121.5t-182.5 -89.5t-269.5 -33.5h-682q11 2 23.5 8.5t33 23t39 51.5t29.5 83zM463 209h178
q107 0 163 56t56 132q0 87 -50.5 147t-141.5 60h-123zM590 809h153q85 0 134 56t49 128q0 67 -36.5 115.5t-109.5 48.5h-118z" />
    <glyph glyph-name="C" unicode="C" horiz-adv-x="1142" 
d="M1063 387l-64 -289q-66 -63 -174 -96t-231 -33q-229 0 -370.5 151t-141.5 390q0 170 68 331t182 282t274.5 194.5t335.5 73.5q99 0 180.5 -22.5t124.5 -51.5l-84 -389q-34 114 -101.5 171.5t-150.5 57.5q-93 0 -177.5 -61t-140.5 -155.5t-89 -205.5t-33 -213
q0 -144 63.5 -228.5t192.5 -84.5q90 0 179.5 44t156.5 134z" />
    <glyph glyph-name="D" unicode="D" horiz-adv-x="1398" 
d="M94 184l211 1012q6 34 6 61q0 29 -8 51t-21 33t-22 16t-18 7h583q123 0 226 -38t181.5 -112t122.5 -192.5t44 -269.5q0 -110 -30.5 -217t-94.5 -204t-154.5 -170.5t-220 -117t-281.5 -43.5h-649q12 2 24.5 9t32.5 24.5t38.5 56.5t29.5 94zM461 217h153q88 0 165 53.5
t127 138.5t78 186.5t28 201.5q0 159 -63.5 254.5t-190.5 95.5h-103q-17 -82 -94 -449.5t-100 -480.5z" />
    <glyph glyph-name="E" unicode="E" horiz-adv-x="1171" 
d="M119 170l223 1032q6 27 6 53q0 50 -23 77t-55 32h969l-80 -397q-11 170 -227 170h-246l-70 -328h199q43 0 78.5 6.5t55 15t34 20.5t19.5 19t8 13l-78 -375q-2 31 -29.5 50.5t-60.5 25.5t-72 6h-199l-73 -363h258q92 0 147 14.5t95.5 49.5t84.5 106l-84 -397h-1030
q14 2 29.5 8.5t41 23.5t47 52.5t32.5 85.5z" />
    <glyph glyph-name="F" unicode="F" horiz-adv-x="1150" 
d="M119 170l223 1032q6 30 6 53q0 30 -9.5 52.5t-25 33.5t-26.5 16t-21 7h971l-80 -397q-11 170 -227 170h-244l-68 -328h201q53 0 93 9t60 23.5t28 23.5t12 18l-78 -375q-2 31 -30 50.5t-61 25.5t-71 6h-201l-88 -424q-8 -40 -8 -55q0 -31 9.5 -54t24 -34.5t26 -16.5
t20.5 -6h-586q14 2 29.5 8.5t41 23.5t47 52.5t32.5 85.5z" />
    <glyph glyph-name="G" unicode="G" horiz-adv-x="1282" 
d="M756 195l49 268q4 28 4 43q0 51 -24 79t-56 33h563q-100 -22 -125 -143l-84 -407q-68 -45 -194 -74t-248 -29q-267 0 -413 142t-146 395q0 168 71.5 329.5t192.5 286t295.5 201t366.5 76.5q89 0 175.5 -20.5t135.5 -57.5l-84 -389q-33 130 -106.5 179.5t-182.5 49.5
q-99 0 -189 -59.5t-151.5 -153t-98 -208.5t-36.5 -226q0 -144 63.5 -233t178.5 -89q8 0 43 7z" />
    <glyph glyph-name="H" unicode="H" horiz-adv-x="1497" 
d="M94 147l225 1055q7 40 7 60q0 84 -70 102h563q-12 -2 -26.5 -9t-37.5 -22.5t-42.5 -47.5t-28.5 -75l-88 -401h451l86 393q6 34 6 60q0 84 -72 102h563q-12 -2 -26.5 -9t-36.5 -22.5t-41.5 -47.5t-28.5 -75l-225 -1054q-8 -40 -8 -54q0 -28 8.5 -49t21 -31.5t22.5 -15.5
t19 -6h-559q11 1 26 7t36.5 20.5t40.5 45.5t28 74l92 443h-450l-90 -434q-6 -30 -6 -54q0 -29 8 -50t21 -31.5t23 -15t19 -5.5h-557q10 1 24 7t34.5 20.5t39.5 45.5t29 74z" />
    <glyph glyph-name="I" unicode="I" horiz-adv-x="686" 
d="M96 147l223 1055q9 45 9 53q0 49 -21 76.5t-51 32.5h563q-12 -2 -26.5 -9t-37.5 -22.5t-42.5 -47.5t-28.5 -75l-225 -1054q-6 -27 -6 -52q0 -48 20 -75t47 -29h-551q11 1 25.5 7t35 20.5t39 45.5t27.5 74z" />
    <glyph glyph-name="J" unicode="J" horiz-adv-x="714" 
d="M156 283l180 850q18 85 18 122q0 93 -71 109h567q-25 -7 -42 -16.5t-37 -29.5t-36 -57.5t-28 -91.5l-199 -931q-44 -208 -141 -312t-263 -104q-95 0 -169.5 36.5t-106.5 98.5q30 -10 76 -10q86 0 151 83.5t101 252.5z" />
    <glyph glyph-name="K" unicode="K" horiz-adv-x="1421" 
d="M94 147l225 1055q7 35 7 55q0 29 -9 51t-23 33t-25 16t-21 7h563q-12 -2 -25.5 -8.5t-34.5 -22t-39.5 -48t-27.5 -75.5l-100 -462l409 421q103 106 103 158q0 30 -33 37h500q-85 -34 -215 -162l-443 -436l244 -549q38 -87 99.5 -147t107.5 -70h-479l-310 678l-108 -522
q-6 -30 -6 -52q0 -29 9 -51t22 -32.5t23.5 -15t18.5 -5.5h-559q10 1 24 7t34.5 20.5t39.5 45.5t29 74z" />
    <glyph glyph-name="L" unicode="L" horiz-adv-x="1112" 
d="M86 147l225 1055q6 30 6 55q0 29 -8.5 51t-22.5 33t-25 16t-21 7h563q-11 -2 -25 -9t-35 -22.5t-39.5 -47.5t-27.5 -75l-211 -983h237q136 0 210 45t132 152l-92 -424h-985q10 1 23 7t32 20.5t36.5 45.5t27.5 74z" />
    <glyph glyph-name="M" unicode="M" horiz-adv-x="1875" 
d="M158 266l186 860q10 44 10 91q0 120 -102 147h524l193 -748l485 748h535q-10 -2 -22 -7t-33.5 -21.5t-40.5 -41t-39 -70.5t-33 -104l-189 -866q-12 -54 -12 -111q0 -41 9 -70.5t23.5 -44t25 -20.5t20.5 -8h-563q9 2 19 6.5t29 21.5t36 42.5t36 73.5t33 110l146 655
l-623 -942l-244 944l-139 -647q-12 -62 -12 -106q0 -46 11 -79t29 -48.5t30 -22t24 -8.5h-541q11 2 25 7t38 23t45.5 45t44 77t36.5 114z" />
    <glyph glyph-name="N" unicode="N" horiz-adv-x="1417" 
d="M102 139l215 1000q7 35 7 37q0 37 -42.5 105.5t-86.5 82.5h444l395 -752l123 596q6 24 6 47q0 30 -10 52.5t-26 33.5t-26.5 16t-21.5 7h473q-11 -2 -23 -8.5t-31.5 -21.5t-36 -45.5t-25.5 -71.5l-262 -1217h-269l-9 38q-9 38 -19.5 76t-31.5 93.5t-44 99.5l-277 522
l-143 -684q-4 -16 -4 -41q0 -29 10 -50.5t25.5 -32t27.5 -15.5t21 -6h-492q13 1 28.5 7t37 19.5t40 43t27.5 69.5z" />
    <glyph glyph-name="O" unicode="O" horiz-adv-x="1415" 
d="M608 -31q-246 0 -386 150.5t-140 400.5q0 169 62.5 329t169 280.5t258 194t319.5 73.5t289.5 -72t181 -193.5t59.5 -279.5q0 -163 -61.5 -322.5t-167.5 -283.5t-259.5 -200.5t-324.5 -76.5zM651 209q82 0 155 63t121.5 161t76.5 215.5t28 228.5q0 129 -45 204.5
t-137 75.5q-105 0 -193.5 -108t-135 -261t-46.5 -303q0 -127 43.5 -201.5t132.5 -74.5z" />
    <glyph glyph-name="P" unicode="P" horiz-adv-x="1271" 
d="M94 147l228 1055q8 36 8 55q0 29 -9 51t-23 33t-25 16t-21 7h596q114 0 203.5 -30.5t144 -83.5t83 -119t28.5 -142q0 -90 -38.5 -177t-108 -158t-178.5 -114.5t-239 -43.5q-117 0 -208 26l-78 -366q-6 -30 -6 -52q0 -29 9 -51t22 -32.5t23.5 -15t18.5 -5.5h-557
q10 1 24 7t34.5 20.5t39.5 45.5t29 74zM674 1157l-96 -428q50 -16 104 -16q123 0 192.5 82t69.5 186q0 75 -39.5 125.5t-109.5 50.5h-121z" />
    <glyph glyph-name="Q" unicode="Q" horiz-adv-x="1415" 
d="M639 -31h-31q-246 0 -386 150.5t-140 400.5q0 169 62.5 329t169 280.5t258 194t319.5 73.5t289.5 -72t181 -193.5t59.5 -279.5q0 -227 -113 -437t-302 -329q57 -73 181 -113.5t240 -40.5q-167 -110 -378 -110q-247 0 -410 147zM651 209q82 0 155 63t121.5 161t76.5 215.5
t28 228.5q0 129 -45 204.5t-137 75.5q-105 0 -193.5 -108t-135 -261t-46.5 -303q0 -127 43.5 -201.5t132.5 -74.5z" />
    <glyph glyph-name="R" unicode="R" horiz-adv-x="1312" 
d="M94 147l225 1055q9 40 9 55q0 29 -9 51t-23 33t-25 16t-21 7h600q223 0 345 -99t122 -261q0 -99 -47.5 -192t-134 -158t-193.5 -81q32 -32 51 -90l111 -303q15 -43 35.5 -77t37.5 -52t35.5 -30.5t26.5 -16t14 -4.5h-473l-137 446q-36 123 -76 123h-18l-94 -413
q-9 -45 -9 -54q0 -29 9 -50t22.5 -31.5t24.5 -15t20 -5.5h-555q11 1 25.5 7t35 20.5t39 45.5t27.5 74zM586 743h112q117 0 186.5 72t69.5 172q0 74 -42.5 122t-104.5 48h-135z" />
    <glyph glyph-name="S" unicode="S" horiz-adv-x="1087" 
d="M14 94l95 436q52 -153 158 -234t229 -81q70 0 113.5 37.5t43.5 97.5q0 39 -25.5 74.5t-65.5 66t-89 62.5t-98 71t-89 84t-65.5 109t-25.5 139q0 187 146.5 314t379.5 127q212 0 383 -105l-76 -364q-60 107 -149 168t-177 61q-67 0 -107 -32t-40 -93q0 -40 26.5 -77.5
t68.5 -70.5t93 -67.5t101.5 -75t92.5 -86t68.5 -108t26.5 -133.5q0 -193 -153.5 -320t-409.5 -127q-137 0 -265.5 40.5t-189.5 86.5z" />
    <glyph glyph-name="T" unicode="T" horiz-adv-x="1271" 
d="M387 147l211 996h-145q-125 0 -198 -37t-120 -143l94 401h1201l-89 -401q-6 100 -57 140t-186 40h-140l-210 -987q-7 -35 -7 -54q0 -28 8.5 -49t21 -31.5t23 -15.5t19.5 -6h-557q11 1 26 7t36.5 20.5t40.5 45.5t28 74z" />
    <glyph glyph-name="U" unicode="U" horiz-adv-x="1382" 
d="M154 530l155 705q4 14 4 39q0 75 -75 90h561q-13 -3 -26 -8t-35 -18t-40 -40t-26 -63l-164 -750q-33 -150 5.5 -211t158.5 -61q98 0 166 58t92 171l162 781q4 18 4 47q0 33 -15 55.5t-27.5 29t-25.5 9.5h481q-11 -2 -25 -8.5t-34.5 -20.5t-37 -41.5t-23.5 -64.5
l-154 -744q-31 -151 -85 -252t-136.5 -158.5t-182.5 -81.5t-239 -24q-276 0 -387.5 142.5t-50.5 418.5z" />
    <glyph glyph-name="V" unicode="V" horiz-adv-x="1423" 
d="M418 0l-125 1153q-20 179 -94 211h534q-86 -19 -86 -139q0 -13 4 -45l72 -652l395 627q56 86 56 139t-58 70h526q-8 -2 -18 -6.5t-32 -20t-46 -38.5t-59 -66t-70 -98l-731 -1135h-268z" />
    <glyph glyph-name="W" unicode="W" horiz-adv-x="2021" 
d="M381 0l-105 1153q-16 179 -90 211h533q-11 -2 -22.5 -8t-27.5 -20t-26 -44t-10 -71q0 -13 4 -41l55 -656l307 537l-8 92q-16 179 -80 211h504q-11 -2 -21.5 -8t-27.5 -20.5t-27 -45t-10 -73.5q0 -23 2 -37l53 -654l349 637q43 79 43 127q0 58 -56 74h510
q-12 -2 -28.5 -11t-43.5 -29.5t-61.5 -64.5t-68.5 -104l-662 -1155h-270l-56 674l-389 -674h-270z" />
    <glyph glyph-name="X" unicode="X" horiz-adv-x="1325" 
d="M88 172l438 504l-219 541q-22 55 -50 90.5t-42.5 44t-26.5 12.5h531q-53 -21 -53 -74q0 -26 18 -73l100 -248l215 248q58 66 58 104q0 6 -1.5 11t-3 8.5t-5 7t-6 5.5t-7 4t-6 3t-6.5 2l-4 2h495q-73 -21 -180 -147l-440 -510l217 -535q19 -50 40 -86t38.5 -53t28 -24
t18.5 -9h-526q9 1 18 7t19 24t10 45q0 32 -25 96l-96 240l-205 -240q-70 -83 -70 -127q0 -35 29 -45h-489q45 6 188 172z" />
    <glyph glyph-name="Y" unicode="Y" horiz-adv-x="1263" 
d="M377 147l82 377l-176 693q-32 117 -121 147h516q-41 -16 -41 -82q0 -20 10 -65l94 -381l269 374q49 68 49 109q0 15 -8.5 25.5t-13 13t-15.5 6.5h461q-14 -3 -32 -12t-56.5 -44.5t-77.5 -90.5l-500 -693l-82 -368q-6 -30 -6 -54q0 -28 8.5 -49t21 -31.5t23 -15.5t19.5 -6
h-555q11 1 25.5 7t36 20.5t40.5 45.5t29 74z" />
    <glyph glyph-name="Z" unicode="Z" horiz-adv-x="1226" 
d="M528 227h289q131 0 208 40t134 126l-98 -393h-1116q19 29 224 313.5t400 554.5l195 269h-309q-60 0 -109 -12t-77 -27t-49.5 -36t-29 -33t-12.5 -23l90 358h1084z" />
    <glyph glyph-name="bracketleft" unicode="[" horiz-adv-x="708" 
d="M-68 -371l369 1770h559l-37 -174h-305l-295 -1418h307l-36 -178h-562z" />
    <glyph glyph-name="backslash" unicode="\" horiz-adv-x="940" 
d="M549 -31l-342 1432h270l346 -1432h-274z" />
    <glyph glyph-name="bracketright" unicode="]" horiz-adv-x="708" 
d="M-123 -371l37 178h305l295 1418h-305l37 174h559l-367 -1770h-561z" />
    <glyph glyph-name="asciicircum" unicode="^" horiz-adv-x="1423" 
d="M92 319l658 1074h225l205 -1074h-256l-133 768h-9l-438 -768h-252z" />
    <glyph glyph-name="underscore" unicode="_" horiz-adv-x="1159" 
d="M-121 -287l27 127h1179l-28 -127h-1178z" />
    <glyph glyph-name="grave" unicode="`" 
d="M350 1364h398l14 -338z" />
    <glyph glyph-name="a" unicode="a" horiz-adv-x="1120" 
d="M586 -31l14 127q-64 -63 -147 -95t-160 -32q-120 0 -185 96t-65 244q0 134 49 257t131 212t196 142t238 53q73 0 134 -10q15 -2 41.5 -7.5t42.5 -7.5t32 -2q89 0 187 49l-144 -665q-20 -92 -20 -133q0 -48 27.5 -76.5t76.5 -34.5l15 -2zM465 203q37 0 80 45t69 110
q20 47 51 178.5t31 178.5q0 37 -15.5 56.5t-43.5 19.5q-63 0 -122.5 -66t-95.5 -171.5t-36 -215.5q0 -135 82 -135z" />
    <glyph glyph-name="b" unicode="b" horiz-adv-x="1110" 
d="M29 -23l262 1217q2 10 2 29q0 67 -109 82l-14 2l498 118l-119 -548q50 53 125.5 84.5t136.5 31.5q119 0 187.5 -85.5t68.5 -231.5q0 -63 -11 -128.5t-35 -134t-58.5 -131t-85.5 -118t-112.5 -96.5t-143 -64.5t-172.5 -23.5q-52 0 -150 20q-102 20 -123 20q-73 0 -147 -43
zM418 250q0 -39 20.5 -52.5t63.5 -13.5q59 0 110 74t78 172.5t27 185.5q0 140 -70 140q-76 0 -139 -99q-23 -36 -56.5 -194.5t-33.5 -212.5z" />
    <glyph glyph-name="c" unicode="c" horiz-adv-x="897" 
d="M842 303q-56 -158 -186 -247t-273 -89q-160 0 -251 96.5t-91 255.5q0 139 50.5 263.5t136 214t203.5 142t249 52.5q101 0 163 -50.5t62 -133.5q0 -102 -83 -191t-193 -90q28 32 28 109q0 57 -21.5 99t-64.5 42q-73 0 -132.5 -105t-59.5 -245q0 -111 50 -176.5t146 -65.5
q64 0 135 31.5t132 87.5z" />
    <glyph glyph-name="d" unicode="d" horiz-adv-x="1105" 
d="M569 -31l31 121q-62 -58 -135 -88.5t-143 -30.5q-121 0 -200 86.5t-79 247.5q0 129 45.5 256t118.5 221t169.5 152.5t192.5 58.5q64 0 104 -14t70 -47l64 270q2 6 2 17q0 68 -121 86l-14 2l508 118l-258 -1181q-9 -41 -9 -68q0 -25 9 -42t27.5 -26.5t35 -13.5t43.5 -8
l14 -2zM459 197q71 0 145 116q22 34 49 158t27 180q0 65 -21 95t-71 30q-49 0 -98 -74t-78 -176t-29 -188q0 -141 76 -141z" />
    <glyph glyph-name="e" unicode="e" horiz-adv-x="958" 
d="M877 303q-49 -157 -180 -246.5t-281 -89.5q-173 0 -273 102.5t-100 274.5q0 122 48 239t131 207.5t204.5 145.5t257.5 55q53 0 101.5 -13.5t90.5 -41t67.5 -76t25.5 -112.5q0 -50 -18.5 -100t-64 -102t-113 -93t-173.5 -69.5t-238 -35.5q2 -17 15 -47q47 -115 182 -115
q76 0 162.5 32.5t155.5 84.5zM360 516q43 2 95 14t105.5 34.5t89.5 62.5t36 90q0 38 -21 60t-57 22q-68 0 -146.5 -80.5t-101.5 -202.5z" />
    <glyph glyph-name="f" unicode="f" horiz-adv-x="788" 
d="M82 -14l160 770h-158l37 194h158q43 217 155 342t291 125q103 0 162 -42t59 -105q0 -54 -38 -96.5t-107 -51.5q14 20 14 43q0 27 -18.5 46.5t-48.5 19.5q-32 0 -54.5 -22t-44.5 -84t-43 -175h256l-37 -194h-254l-159 -770q-78 -373 -392 -373q-164 0 -243 131
q54 -8 76 -8q101 0 152.5 63.5t76.5 186.5z" />
    <glyph glyph-name="g" unicode="g" horiz-adv-x="1118" 
d="M1141 776h-187q15 -12 28 -56t13 -81q0 -68 -30.5 -126.5t-81 -99t-116.5 -69t-136.5 -42t-141.5 -13.5q-33 0 -47 2q-77 -30 -77 -49q0 -10 13 -18t42.5 -15t59 -12t81.5 -14t92 -17q71 -15 124.5 -34t97.5 -48t67 -71t23 -95q0 -75 -49.5 -135.5t-131 -97t-180 -55.5
t-203.5 -19q-227 0 -354 62.5t-127 166.5q0 47 73.5 101.5t199.5 78.5q-69 27 -112.5 68t-43.5 84q0 97 219 176q-65 40 -103 102t-38 138q0 80 29 147.5t79 114t117 79t142.5 47.5t156.5 15q83 0 197 -24q73 -17 157 -17q123 0 191 43zM543 469q63 0 106 58t43 141
q0 64 -31 103.5t-86 39.5q-62 0 -102.5 -56t-40.5 -141q0 -65 29 -105t82 -40zM365 -29q-69 -18 -107.5 -44t-38.5 -56q0 -35 53.5 -59.5t169.5 -24.5q70 0 125.5 20.5t55.5 51.5q0 18 -7 32t-26 25t-36 18t-53 14.5t-61 11.5t-75 11z" />
    <glyph glyph-name="h" unicode="h" horiz-adv-x="1101" 
d="M27 0l258 1194q4 20 4 29q0 64 -103 82l-12 2l488 118l-121 -538q58 48 140 77t163 29q91 0 149 -42.5t58 -141.5q0 -46 -15 -115l-98 -471q-6 -27 -6 -82t13.5 -94.5t41.5 -46.5h-422l140 639q6 24 6 45q0 44 -20.5 69t-55.5 25q-42 0 -89.5 -39t-58.5 -94
q-88 -426 -137 -645h-323z" />
    <glyph glyph-name="i" unicode="i" horiz-adv-x="585" 
d="M27 0l168 764q2 6 2 18q0 36 -35 61.5t-74 30.5l-16 3l497 118l-166 -772q-12 -52 -12 -100q0 -55 16.5 -86.5t41.5 -36.5h-422zM426 1059q-72 0 -116 45t-44 117q0 83 57.5 139.5t141.5 56.5q73 0 115.5 -45.5t42.5 -118.5q0 -83 -56.5 -138.5t-140.5 -55.5z" />
    <glyph glyph-name="j" unicode="j" horiz-adv-x="591" 
d="M426 1059q-72 0 -116 45t-44 117q0 83 57.5 139.5t141.5 56.5q73 0 115.5 -45.5t42.5 -118.5q0 -83 -56.5 -138.5t-140.5 -55.5zM31 0l162 764q2 6 2 16q0 36 -36 61.5t-77 32.5l-10 3l497 118l-211 -995q-38 -181 -144.5 -275t-242.5 -94q-107 0 -194.5 37t-118.5 86
q50 -12 90 -12q109 0 181.5 60t101.5 198z" />
    <glyph glyph-name="k" unicode="k" horiz-adv-x="1167" 
d="M27 0l258 1198q2 6 2 19q0 36 -34.5 58.5t-76.5 29.5l-12 2l498 118l-195 -872l231 244q64 67 64 108q0 30 -37 45h543q-21 -3 -50.5 -13.5t-90.5 -49t-117 -96.5l-258 -269l163 -338q65 -133 199 -133q-52 -35 -125 -55.5t-147 -20.5q-167 0 -224 125l-167 377l-97 -477
h-327z" />
    <glyph glyph-name="l" unicode="l" horiz-adv-x="585" 
d="M27 0l258 1194q4 16 4 25q0 36 -29 57.5t-74 28.5l-12 2l488 118l-261 -1202q-12 -55 -12 -102q0 -54 16 -85t41 -36h-419z" />
    <glyph glyph-name="m" unicode="m" horiz-adv-x="1660" 
d="M31 0l166 758q2 10 2 26q0 40 -31 62.5t-76 27.5l-16 3l461 118l-19 -116q58 49 144.5 81.5t171.5 32.5q186 0 217 -112q51 47 147 79.5t180 32.5q44 0 80.5 -8.5t69 -28.5t51 -57.5t18.5 -89.5q0 -50 -14 -115l-96 -471q-6 -24 -6 -78q0 -118 55 -145h-424l139 639
q6 27 6 49q0 42 -18.5 66t-54.5 24q-42 0 -87.5 -41t-62.5 -114l-137 -623h-328l140 639q6 24 6 47q0 42 -20 67t-56 25q-38 0 -86 -41.5t-64 -113.5l-135 -623h-323z" />
    <glyph glyph-name="n" unicode="n" horiz-adv-x="1101" 
d="M31 0l166 758q2 8 2 24q0 39 -31.5 63t-75.5 29l-16 3l461 118l-19 -118q149 116 316 116q219 0 219 -186q0 -50 -13 -113l-98 -471q-6 -24 -6 -80q0 -128 55 -143h-422l140 639q6 24 6 47q0 42 -20 67t-56 25q-39 0 -86 -39.5t-64 -117.5l-135 -621h-323z" />
    <glyph glyph-name="o" unicode="o" horiz-adv-x="1071" 
d="M442 -25q-101 0 -180 34t-125.5 92.5t-70 129.5t-23.5 150q0 115 42.5 224t116.5 194t185 136.5t238 51.5q102 0 181.5 -33t126.5 -90t71 -127.5t24 -150.5q0 -82 -24 -166.5t-73 -164.5t-117.5 -142t-165 -100t-206.5 -38zM467 186q51 0 96 46.5t72.5 114.5t43 138
t15.5 123q0 66 -23 116t-73 50t-95 -47t-73 -115.5t-44.5 -139.5t-16.5 -124q0 -66 23 -114t75 -48z" />
    <glyph glyph-name="p" unicode="p" horiz-adv-x="1114" 
d="M-49 -371l233 1086q9 52 9 59q0 45 -27.5 67t-87.5 31l-12 2l456 119l-10 -125q58 55 139.5 91t163.5 36q124 0 191 -99t67 -249q0 -90 -23 -182.5t-72 -180t-117 -156t-166 -110t-212 -41.5q-71 0 -118 35l-89 -383h-325zM496 184q50 0 94.5 44.5t72.5 111t44 138.5
t16 132q0 140 -80 140q-29 0 -71.5 -33.5t-75.5 -85.5q-22 -33 -49 -166t-27 -191q0 -90 76 -90z" />
    <glyph glyph-name="q" unicode="q" horiz-adv-x="1116" 
d="M467 -371l100 459q-136 -119 -262 -119q-119 0 -187.5 86t-68.5 232q0 73 15.5 150.5t46.5 156.5t82.5 148t118 123.5t158.5 86t198 31.5q26 0 51.5 -3t56.5 -8.5t41 -6.5q96 -15 127 -15q72 0 146 43l-250 -1153q-15 -73 -15 -110q0 -87 45 -101h-403zM471 215
q35 0 72.5 27.5t68.5 74.5q18 27 52 181t34 215q0 40 -20.5 52.5t-65.5 12.5q-59 0 -109 -71.5t-76 -168t-26 -184.5q0 -66 15 -102.5t55 -36.5z" />
    <glyph glyph-name="r" unicode="r" horiz-adv-x="897" 
d="M31 0l168 758q2 6 2 20q0 42 -35 65.5t-84 30.5l-14 3l489 118l-27 -137q49 62 117.5 97.5t134.5 35.5q69 0 112.5 -42t43.5 -126q0 -95 -82 -166t-215 -75q13 12 22 39t9 55q0 76 -47 76q-54 0 -95.5 -65t-72.5 -210l-103 -477h-323z" />
    <glyph glyph-name="s" unicode="s" horiz-adv-x="860" 
d="M-10 49l90 365q19 -101 82 -168.5t160 -67.5q42 0 82 17.5t40 54.5q0 22 -18 44t-47 42t-63.5 42.5t-69.5 50t-64 59t-47 76t-18 95.5q0 83 39 149t102.5 105t138.5 59.5t154 20.5q50 0 99 -9t97.5 -28.5t78.5 -58.5t30 -92q0 -106 -170 -182l4 24q0 64 -44.5 100.5
t-108.5 36.5q-44 0 -81.5 -17.5t-37.5 -55.5q0 -26 26.5 -53.5t66.5 -51.5t87 -58t87 -69t66.5 -87t26.5 -111q0 -66 -28.5 -120t-74 -89t-105 -59t-119 -34t-119.5 -10q-212 0 -342 80z" />
    <glyph glyph-name="t" unicode="t" horiz-adv-x="778" 
d="M92 268l113 488h-166l594 501l-64 -307h265l-39 -194h-267l-73 -330q-25 -119 -25 -160q0 -58 28 -80t91 -22q82 0 190 55q-29 -72 -75.5 -123t-102.5 -78t-111 -39t-116 -12q-119 0 -186.5 54.5t-67.5 158.5q0 38 12 88z" />
    <glyph glyph-name="u" unicode="u" horiz-adv-x="1138" 
d="M92 270l78 387q16 85 16 123q0 50 -20 68t-70 26l-12 3l485 118l-145 -669q-6 -30 -6 -56q0 -84 71 -84q44 0 88.5 44.5t61.5 113.5l74 313q20 84 20 131q0 24 -6.5 39.5t-21.5 24.5t-29 13t-39 9l-10 3l483 118l-172 -788q-6 -21 -6 -39q0 -33 24.5 -51.5t77.5 -26.5
l15 -2l-461 -119l24 119q-57 -54 -141 -85.5t-172 -31.5q-221 0 -221 187q0 44 14 112z" />
    <glyph glyph-name="v" unicode="v" horiz-adv-x="1073" 
d="M264 -8l-94 758q-8 60 -37 91.5t-90 35.5l-25 2l455 114l68 -585l196 305q60 91 60 151q0 65 -74 86h444l-667 -958h-236z" />
    <glyph glyph-name="w" unicode="w" horiz-adv-x="1607" 
d="M236 -8l-68 778q-10 99 -125 107l-25 2l455 114l43 -553l285 510h233l62 -522l174 281q57 93 57 153q0 69 -67 88h436l-645 -958h-238l-43 489l-297 -489h-237z" />
    <glyph glyph-name="x" unicode="x" horiz-adv-x="1144" 
d="M-66 0l474 461l-134 297q-28 62 -66 86.5t-104 29.5l-28 3l456 116q10 -17 60 -139t67 -149l107 104q55 55 55 98q0 17 -13.5 29t-27.5 16h426l-458 -444q24 -40 61.5 -126t63.5 -152l26 -66q21 -48 59.5 -68.5t104.5 -25.5l27 -2l-455 -117l-139 313l-129 -127
q-56 -56 -56 -92q0 -18 13 -30.5t26 -14.5h-416z" />
    <glyph glyph-name="y" unicode="y" horiz-adv-x="1073" 
d="M340 0l-170 770q-23 99 -135 107l-25 2l453 112l137 -678q110 179 152 293q43 118 43 195q0 57 -27 98t-80 51h430q-70 -231 -182 -444q-84 -157 -204.5 -333.5t-250.5 -315.5q-102 -108 -211.5 -173t-203.5 -65q-93 0 -141 43.5t-48 114.5q0 53 23 114q52 -45 131 -45
t160 40t149 114z" />
    <glyph glyph-name="z" unicode="z" horiz-adv-x="940" 
d="M-45 0l532 786h-225q-61 0 -109 -27t-69 -77l68 285h817l-533 -787h160q55 0 95.5 6.5t65.5 15t46.5 29t32.5 35.5t30 47l-78 -313h-833z" />
    <glyph glyph-name="braceleft" unicode="{" horiz-adv-x="790" 
d="M160 -109l57 277q23 112 23 168q0 55 -15 91t-46 55.5t-67.5 28t-91.5 11.5q60 3 101 12t81 31t68 60.5t52.5 99.5t42.5 149l57 279q13 64 41.5 111.5t75.5 78t97.5 49.5t128 27.5t144.5 11.5t168 3q-157 -6 -240.5 -77.5t-113.5 -213.5l-55 -262q-73 -341 -389 -359
q37 -3 62 -7.5t64.5 -20t64.5 -39t43.5 -68.5t18.5 -106q0 -38 -14 -117l-53 -264q-12 -70 -12 -93q0 -92 58 -138t187 -58q-78 0 -131 1.5t-115 6t-102.5 13.5t-81.5 24.5t-64 37.5t-37.5 54.5t-14.5 73.5q0 36 8 69z" />
    <glyph glyph-name="bar" unicode="|" horiz-adv-x="557" 
d="M-14 -451l434 2048h260l-436 -2048h-258z" />
    <glyph glyph-name="braceright" unicode="}" horiz-adv-x="790" 
d="M111 -100l55 264q14 67 37.5 121t49.5 89.5t60.5 63t63.5 42t65.5 24.5t59.5 13t53 5q-254 11 -254 242q0 65 12 117l56 262q12 53 12 92q0 93 -59 141.5t-187 57.5q91 0 152 -2t129.5 -9t112 -21.5t81 -37.5t55 -59t17.5 -84q0 -35 -8 -68l-58 -279q-22 -107 -22 -165
q0 -55 14.5 -91t45.5 -56t67 -28.5t92 -11.5q-75 -4 -123.5 -18.5t-93 -51.5t-74.5 -106t-53 -178l-57 -277q-10 -48 -29 -87t-48 -67.5t-61.5 -49.5t-79.5 -34.5t-90.5 -22t-105.5 -12.5t-114.5 -5.5t-127.5 -1.5q158 9 241.5 78.5t113.5 210.5z" />
    <glyph glyph-name="asciitilde" unicode="~" horiz-adv-x="1423" 
d="M324 399h-242q25 104 66.5 186t88.5 131.5t102.5 81.5t105 44.5t100.5 13.5q66 1 129 -23t110.5 -59t89.5 -69.5t81 -59t69 -24.5q51 0 86.5 47t63.5 163h239q-95 -464 -424 -464q-70 0 -136.5 25t-115.5 60.5t-92.5 71.5t-86 61t-77.5 25q-52 0 -89.5 -45.5
t-67.5 -165.5z" />
    <glyph glyph-name="uni00A0" unicode="&#xa0;" horiz-adv-x="436" 
 />
    <glyph glyph-name="exclamdown" unicode="&#xa1;" horiz-adv-x="622" 
d="M27 -98l102 348q20 67 49 128.5t57 102t53 72t40 45.5l16 14q3 -4 7.5 -11t16.5 -31.5t21.5 -52.5t17 -73t7.5 -94q0 -44 -6 -100l-43 -348q-9 -74 -9 -119q0 -133 52 -150h-535q7 2 16.5 7t26 23t33 45t38 78t40.5 116zM375 717q-64 0 -103 40t-39 105q0 73 51.5 123.5
t125.5 50.5q64 0 102.5 -40t38.5 -105q0 -73 -51 -123.5t-125 -50.5z" />
    <glyph glyph-name="cent" unicode="&#xa2;" horiz-adv-x="1093" 
d="M379 -35l43 201q-126 26 -195 118t-69 228q0 232 131 412t338 237l45 213h221l-39 -198q75 -14 120.5 -62t45.5 -117q0 -102 -82.5 -190.5t-192.5 -89.5q29 33 29 108q0 57 -22 99.5t-64 42.5q-48 0 -92.5 -47.5t-73 -129.5t-28.5 -174q0 -110 51 -175.5t147 -65.5
q64 0 134.5 31.5t131.5 87.5q-41 -120 -124.5 -200t-188.5 -114l-45 -215h-221z" />
    <glyph glyph-name="sterling" unicode="&#xa3;" horiz-adv-x="1093" 
d="M-27 -39l-22 254q56 1 93 14.5t73 53.5t65 115t58 196h-117l45 213h119q27 113 58.5 199t79 162t108.5 124.5t145.5 76.5t189.5 28q206 0 306 -78l-142 -281q-3 63 -52.5 100.5t-123.5 37.5q-41 0 -74 -18t-56 -47t-42.5 -79.5t-32.5 -100.5t-28 -124h245l-45 -213h-245
q-61 -259 -127 -330q43 0 71 -4q15 -1 43 -4.5t52.5 -5.5t48.5 -2q97 0 158.5 22t136.5 84l12 -284q-84 -101 -266 -101q-73 0 -222.5 31t-224.5 31q-76 0 -157.5 -20t-129.5 -50z" />
    <glyph glyph-name="currency" unicode="&#xa4;" horiz-adv-x="1193" 
d="M211 408l143 141q-30 61 -30 133t30 133l-143 146l147 145l152 -152q61 23 123 23q66 0 127 -23l149 152l148 -145l-144 -146q29 -59 29 -133t-29 -133l144 -141l-148 -148l-149 148q-61 -23 -127 -23t-127 23l-148 -148zM633 532q67 0 105 44t38 104t-37.5 102.5
t-105.5 42.5q-67 0 -103 -42.5t-36 -102.5t36.5 -104t102.5 -44z" />
    <glyph glyph-name="yen" unicode="&#xa5;" horiz-adv-x="1148" 
d="M-16 430l34 174h332l-28 139h-275l35 172h207l-39 193q-45 221 -150 256h574q-8 -2 -18 -9.5t-24 -24t-23 -51.5t-9 -83q0 -18 8 -72l45 -272l131 227q105 180 105 236q0 39 -29 49h445q-8 -2 -19 -7t-34.5 -22.5t-49.5 -43.5t-63 -74.5t-76 -110.5l-121 -191h199
l-35 -172h-270l-88 -139h329l-37 -174h-350l-37 -180q-14 -66 -14 -115q0 -39 8.5 -67t21 -41.5t23 -19.5t19.5 -7h-574q11 2 23 6.5t33 21.5t39 42t37.5 72t31.5 108l37 180h-354z" />
    <glyph glyph-name="brokenbar" unicode="&#xa6;" horiz-adv-x="509" 
d="M193 666l153 716h260l-153 -716h-260zM-23 -358l152 716h260l-153 -716h-259z" />
    <glyph glyph-name="section" unicode="&#xa7;" horiz-adv-x="1259" 
d="M-20 -123l247 207q42 -83 124 -132.5t169 -49.5q62 0 112 29.5t50 86.5q0 45 -37 76t-110 64q-12 5 -67 29.5t-80 36.5t-65 35.5t-69 47.5q-32 27 -53 50t-40.5 62t-19.5 81q0 95 55 162.5t191 128.5q-53 34 -82 87.5t-29 116.5q0 114 76 206t202 142t275 50
q141 0 259.5 -41.5t158.5 -118.5l-241 -207q-32 67 -95 103t-131 36q-55 0 -103 -29.5t-48 -80.5q0 -56 96 -105q28 -14 102 -46t134.5 -63.5t105.5 -68.5q113 -94 113 -199q0 -186 -219 -301q83 -68 83 -200q0 -174 -153.5 -291t-388.5 -117q-161 0 -300 55.5t-222 157.5z
M737 389q44 8 78.5 44t34.5 79q0 30 -18 55t-57.5 47.5t-72 37t-92.5 36.5q-45 -10 -87 -47.5t-42 -79.5q0 -27 17.5 -49.5t52.5 -42.5t70.5 -35t88.5 -35q18 -7 27 -10z" />
    <glyph glyph-name="dieresis" unicode="&#xa8;" 
d="M836 1098q-59 0 -95 37t-36 96q0 69 47.5 115.5t115.5 46.5q59 0 94 -38t35 -98q0 -67 -46.5 -113t-114.5 -46zM406 1098q-60 0 -96 37t-36 96q0 68 48 115t116 47q59 0 94 -38t35 -98q0 -67 -46.5 -113t-114.5 -46z" />
    <glyph glyph-name="copyright" unicode="&#xa9;" horiz-adv-x="1499" 
d="M784 -23q-106 0 -206.5 28t-189.5 86t-156.5 140t-106.5 198t-39 253t39 253t106.5 198t156.5 140t189.5 85.5t206.5 27.5q105 0 205 -27.5t188.5 -85t155 -139.5t105.5 -198.5t39 -253.5t-39 -253.5t-105.5 -198.5t-155 -140t-188.5 -85.5t-205 -27.5zM784 82
q88 0 171 23.5t156.5 72.5t129 119t87.5 169t32 216t-32 216t-87.5 169t-129 119t-156.5 72.5t-171 23.5t-171.5 -23.5t-157.5 -73t-129.5 -119t-88 -168t-32.5 -214.5t32.5 -215.5t88 -169.5t129.5 -119.5t157.5 -73.5t171.5 -24zM1053 537v-205q-38 -48 -109 -81.5
t-143 -33.5q-97 0 -174 37t-123.5 100t-71 141.5t-24.5 166.5q0 206 114 344.5t291 138.5q112 0 227 -70v-325q-31 108 -89 164.5t-126 56.5q-83 0 -137.5 -77.5t-54.5 -197.5q0 -125 56 -206.5t145 -81.5q136 0 219 129z" />
    <glyph glyph-name="ordfeminine" unicode="&#xaa;" horiz-adv-x="782" 
d="M455 659l10 91q-47 -45 -106 -68t-115 -23q-87 0 -134 69.5t-47 176.5q0 196 130 335.5t313 139.5q61 0 96 -6q70 -12 82 -12q65 0 137 35l-104 -479q-15 -68 -15 -95q0 -66 76 -80l10 -2zM369 827q26 0 56.5 32.5t49.5 78.5q14 36 35.5 130.5t21.5 127.5q0 53 -40 53
q-57 0 -120 -91.5t-63 -229.5q0 -101 60 -101z" />
    <glyph glyph-name="guillemotleft" unicode="&#xab;" horiz-adv-x="1017" 
d="M676 145l-191 371l332 373h275l-349 -373l177 -371h-244zM246 145l-209 371l319 373h273l-332 -373l195 -371h-246z" />
    <glyph glyph-name="logicalnot" unicode="&#xac;" horiz-adv-x="1443" 
d="M205 631l47 217h1132l-120 -561h-220l74 344h-913z" />
    <glyph glyph-name="uni00AD" unicode="&#xad;" horiz-adv-x="675" 
d="M92 416l47 227h523l-48 -227h-522z" />
    <glyph glyph-name="registered" unicode="&#xae;" horiz-adv-x="1488" 
d="M782 -23q-106 0 -206.5 28t-189.5 86t-156.5 140t-106.5 198t-39 253t39 253t106.5 198t156.5 140t189.5 85.5t206.5 27.5q105 0 205 -27.5t188.5 -85t155 -139.5t105.5 -198.5t39 -253.5t-39 -253.5t-105.5 -198.5t-155 -140t-188.5 -85.5t-205 -27.5zM782 82
q88 0 170.5 23.5t156 72.5t128.5 119t87 169t32 216t-32 216t-87 169t-128.5 119t-156 72.5t-170.5 23.5t-171.5 -23.5t-158 -73t-130.5 -119t-88.5 -168t-32.5 -214.5q0 -144 50 -261.5t132.5 -190t185 -111.5t213.5 -39zM530 408v563q0 137 -67 170h348q139 0 212 -81
t73 -192q0 -91 -46 -163.5t-124 -83.5q37 -25 59 -89l66 -182q13 -38 32 -63.5t31.5 -33.5t22.5 -9h-254l-90 260q-23 71 -64 71h-10v-167q0 -62 12 -101.5t22 -49.5t21 -13h-299q9 2 20 12t23 50t12 102zM719 717h65q51 0 85 38t34 103q0 59 -32.5 98t-86.5 39h-65v-278z
" />
    <glyph glyph-name="macron" unicode="&#xaf;" 
d="M274 1157l31 143h690l-30 -143h-691z" />
    <glyph glyph-name="degree" unicode="&#xb0;" horiz-adv-x="729" 
d="M109 1100q0 120 81.5 207.5t227.5 87.5t227.5 -87.5t81.5 -207.5t-81.5 -207.5t-227.5 -87.5t-227.5 87.5t-81.5 207.5zM418 952q67 0 105 44t38 104t-37.5 102.5t-105.5 42.5q-67 0 -104.5 -42.5t-37.5 -102.5t37.5 -104t104.5 -44z" />
    <glyph glyph-name="plusminus" unicode="&#xb1;" horiz-adv-x="1443" 
d="M229 700l47 215h433l73 353h222l-74 -353h430l-47 -215h-430l-74 -352h-221l74 352h-433zM82 0l45 217h1083l-45 -217h-1083z" />
    <glyph glyph-name="twosuperior" unicode="&#xb2;" horiz-adv-x="696" 
d="M113 604l243 227q17 16 53 49.5t57 53.5t51.5 50.5t49 53t37 49t27 49.5t8.5 44q0 41 -29.5 68.5t-72.5 27.5q-52 0 -80.5 -29t-28.5 -67q0 -26 14 -45t39 -23l-141 -135q-60 23 -87.5 70t-27.5 104q0 62 39 120.5t118.5 99t180.5 40.5q142 0 220.5 -57t78.5 -166
q0 -37 -16 -77.5t-48.5 -81.5t-63 -75.5t-77.5 -74.5t-74 -62t-69 -55l-16 -12h139q47 0 86 16.5t53.5 30t20.5 22.5q0 -2 -18.5 -89t-24.5 -126h-641z" />
    <glyph glyph-name="threesuperior" unicode="&#xb3;" horiz-adv-x="718" 
d="M150 760l221 117q0 -48 32.5 -98t85.5 -50q39 0 66 22.5t27 55.5q0 50 -62.5 94t-165.5 51l62 123q60 -12 94 -12q54 0 95.5 35.5t41.5 97.5q0 42 -28 64t-72 22q-38 0 -68.5 -30t-5.5 -70l-205 -74q-29 52 -22 100q7 70 63.5 118.5t131.5 68.5t159 20q75 0 137 -19
t104 -64t42 -109q0 -86 -65.5 -149.5t-158.5 -74.5h5q75 -28 114 -75.5t39 -96.5t-23.5 -90t-61.5 -68t-86.5 -45.5t-97 -27t-95.5 -8.5q-128 0 -209.5 48.5t-93.5 123.5z" />
    <glyph glyph-name="acute" unicode="&#xb4;" 
d="M520 1026l150 338h397z" />
    <glyph glyph-name="mu" unicode="&#xb5;" horiz-adv-x="1140" 
d="M-2 -180l235 1138h326l-135 -632q-6 -30 -6 -56q0 -42 19.5 -64t54.5 -22q45 0 90.5 43t58.5 105l137 626h326l-156 -698q-6 -34 -6 -53q0 -33 24 -57t64 -27l-274 -166q-51 18 -83 59t-42 90q-110 -137 -195 -137q-49 0 -78 21l-79 -361h-402q30 6 65 51t56 140z" />
    <glyph glyph-name="paragraph" unicode="&#xb6;" horiz-adv-x="1519" 
d="M498 -369l125 627h-37q-129 0 -230 37.5t-163.5 102t-94.5 146.5t-32 175t30.5 185.5t94 177t151 149t211 103t264.5 38.5h641q-7 -12 -18 -35t-38 -107.5t-46 -182.5l-281 -1416h-196l311 1571h-182l-314 -1571h-196z" />
    <glyph glyph-name="periodcentered" unicode="&#xb7;" horiz-adv-x="534" 
d="M244 279q-78 0 -125 49t-47 127q0 91 61 152t152 61q79 0 126.5 -50t47.5 -129q0 -90 -62.5 -150t-152.5 -60z" />
    <glyph glyph-name="cedilla" unicode="&#xb8;" 
d="M403 -150l142 168h160l-84 -92q78 -10 112.5 -50t24.5 -93q-15 -65 -85 -113.5t-173 -48.5q-113 0 -187 53q27 -6 62 -6q74 0 122 27t56 63q8 37 -30.5 64t-119.5 28z" />
    <glyph glyph-name="onesuperior" unicode="&#xb9;" horiz-adv-x="550" 
d="M317 604l109 500l-242 -217l54 250q172 152 278 258h203l-129 -619q-10 -52 -10 -76q0 -85 22 -96h-285z" />
    <glyph glyph-name="ordmasculine" unicode="&#xba;" horiz-adv-x="796" 
d="M369 659q-73 0 -130 24.5t-90 66t-50 92.5t-17 108q0 112 51 211.5t148.5 163.5t218.5 64q144 0 217.5 -85t73.5 -206q0 -75 -28 -151t-79.5 -141t-134 -106t-180.5 -41zM385 811q48 0 87.5 56.5t58 124.5t18.5 122q0 48 -16 84.5t-52 36.5q-46 0 -86.5 -58t-60 -127.5
t-19.5 -121.5q0 -48 16.5 -82.5t53.5 -34.5z" />
    <glyph glyph-name="guillemotright" unicode="&#xbb;" horiz-adv-x="1017" 
d="M430 145l330 371l-193 373h246l209 -373l-320 -371h-272zM-33 145l348 371l-176 373h244l188 -373l-329 -371h-275z" />
    <glyph glyph-name="onequarter" unicode="&#xbc;" horiz-adv-x="1536" 
d="M762 162l14 63l422 570h313l-102 -496h98l-30 -137h-99l-6 -33q-21 -94 12 -127h-266l37 160h-393zM352 0l795 1395h199l-789 -1395h-205zM332 604l108 500l-241 -217l53 250q172 152 278 258h203l-129 -619q-10 -52 -10 -76q0 -85 22 -96h-284zM1012 299h174l76 342z
" />
    <glyph glyph-name="onehalf" unicode="&#xbd;" horiz-adv-x="1638" 
d="M815 0l244 227q17 16 53 49.5t56.5 53t51.5 50.5t49 53t36.5 48.5t27 49.5t8.5 44q0 45 -31.5 70t-74.5 25t-74 -25t-31 -70q0 -26 14 -44.5t40 -22.5l-142 -135q-114 44 -114 174q0 62 39 120.5t118.5 99t180.5 40.5q142 0 220.5 -57t78.5 -166q0 -37 -16 -77.5
t-48.5 -81.5t-63 -75.5t-77.5 -74.5t-74 -62t-69 -55l-17 -13h139q40 0 72 9t50.5 23.5t27 23.5t12.5 16q-1 -6 -9.5 -45.5t-19.5 -90.5t-16 -81h-641zM352 0l795 1395h199l-789 -1395h-205zM332 604l108 500l-241 -217l53 250q172 152 278 258h203l-129 -619
q-10 -52 -10 -76q0 -85 22 -96h-284z" />
    <glyph glyph-name="threequarters" unicode="&#xbe;" horiz-adv-x="1900" 
d="M999 162l15 63l422 570h313l-102 -496h98l-31 -137h-98l-6 -33q-21 -94 12 -127h-266l37 160h-394zM182 760l221 117q0 -48 33 -98t86 -50q39 0 65.5 22.5t26.5 55.5q0 50 -62 94t-165 51l62 123q60 -12 94 -12q54 0 95.5 35.5t41.5 97.5q0 42 -28 64t-72 22
q-38 0 -68.5 -30t-5.5 -70l-205 -74q-29 52 -22 100q7 70 63.5 118.5t131.5 68.5t159 20q75 0 137 -19t103.5 -64t41.5 -109q0 -86 -65 -149.5t-158 -74.5h4q75 -28 114.5 -75.5t39.5 -96.5q0 -61 -35.5 -109t-91.5 -75t-117 -41t-121 -14q-128 0 -209.5 48.5t-93.5 123.5z
M590 0l794 1395h199l-788 -1395h-205zM1249 299h174l76 342z" />
    <glyph glyph-name="questiondown" unicode="&#xbf;" horiz-adv-x="944" 
d="M582 717q-64 0 -103 40t-39 105q0 73 51 123.5t125 50.5q64 0 103 -40t39 -105q0 -73 -51 -123.5t-125 -50.5zM741 76l-77 -379q-76 -35 -185 -57.5t-213 -22.5q-176 0 -280.5 67.5t-104.5 202.5q0 72 30 135t78 109.5t105.5 88t115.5 78.5t106 72.5t78 78t30 88.5
q0 27 -15.5 38.5t-43.5 14.5q58 55 153 55q80 0 138.5 -40t58.5 -116q0 -61 -25.5 -114t-66.5 -92t-90 -74t-98.5 -66t-90.5 -60t-66.5 -64t-25.5 -72q0 -41 33.5 -64.5t89.5 -23.5q86 0 191.5 62.5t174.5 154.5z" />
    <glyph glyph-name="Agrave" unicode="&#xc0;" horiz-adv-x="1480" 
d="M113 231l731 1133h319l125 -1153q5 -49 16 -88t22.5 -60.5t25.5 -36.5t23 -19.5t16 -6.5h-535q6 1 13.5 4t19 13.5t21 26t16 44.5t6.5 66q0 18 -2 30l-12 97h-478l-39 -72q-57 -108 -57 -143q0 -33 16 -48.5t33 -17.5h-495q15 4 35.5 16.5t72 68.5t107.5 146zM580 498
h315l-39 448zM688 1761h397l15 -338z" />
    <glyph glyph-name="Aacute" unicode="&#xc1;" horiz-adv-x="1480" 
d="M113 231l731 1133h319l125 -1153q5 -49 16 -88t22.5 -60.5t25.5 -36.5t23 -19.5t16 -6.5h-535q6 1 13.5 4t19 13.5t21 26t16 44.5t6.5 66q0 18 -2 30l-12 97h-478l-39 -72q-57 -108 -57 -143q0 -33 16 -48.5t33 -17.5h-495q15 4 35.5 16.5t72 68.5t107.5 146zM580 498
h315l-39 448zM911 1423l150 338h397z" />
    <glyph glyph-name="Acircumflex" unicode="&#xc2;" horiz-adv-x="1480" 
d="M113 231l731 1133h319l125 -1153q5 -49 16 -88t22.5 -60.5t25.5 -36.5t23 -19.5t16 -6.5h-535q6 1 13.5 4t19 13.5t21 26t16 44.5t6.5 66q0 18 -2 30l-12 97h-478l-39 -72q-57 -108 -57 -143q0 -33 16 -48.5t33 -17.5h-495q15 4 35.5 16.5t72 68.5t107.5 146zM580 498
h315l-39 448zM643 1423l434 420l264 -420l-323 142z" />
    <glyph glyph-name="Atilde" unicode="&#xc3;" horiz-adv-x="1480" 
d="M113 231l731 1133h319l125 -1153q5 -49 16 -88t22.5 -60.5t25.5 -36.5t23 -19.5t16 -6.5h-535q6 1 13.5 4t19 13.5t21 26t16 44.5t6.5 66q0 18 -2 30l-12 97h-478l-39 -72q-57 -108 -57 -143q0 -33 16 -48.5t33 -17.5h-495q15 4 35.5 16.5t72 68.5t107.5 146zM580 498
h315l-39 448zM709 1432q-35 41 -35 104q0 86 62.5 150.5t160.5 64.5q52 0 113 -26.5t114 -53t86 -26.5q53 0 81 34t44 105q33 -42 33 -101q0 -86 -69.5 -155.5t-165.5 -69.5q-40 0 -83.5 17.5t-75.5 38t-71.5 38t-71.5 17.5q-46 0 -75.5 -31.5t-46.5 -105.5z" />
    <glyph glyph-name="Adieresis" unicode="&#xc4;" horiz-adv-x="1480" 
d="M113 231l731 1133h319l125 -1153q5 -49 16 -88t22.5 -60.5t25.5 -36.5t23 -19.5t16 -6.5h-535q6 1 13.5 4t19 13.5t21 26t16 44.5t6.5 66q0 18 -2 30l-12 97h-478l-39 -72q-57 -108 -57 -143q0 -33 16 -48.5t33 -17.5h-495q15 4 35.5 16.5t72 68.5t107.5 146zM580 498
h315l-39 448zM1239 1454q-59 0 -95 37t-36 96q0 68 48 115t116 47q59 0 94 -37.5t35 -97.5q0 -67 -47 -113.5t-115 -46.5zM809 1454q-59 0 -95 37t-36 96q0 68 48 115t116 47q59 0 94 -37.5t35 -97.5q0 -67 -47 -113.5t-115 -46.5z" />
    <glyph glyph-name="Aring" unicode="&#xc5;" horiz-adv-x="1480" 
d="M113 231l731 1133h319l125 -1153q5 -49 16 -88t22.5 -60.5t25.5 -36.5t23 -19.5t16 -6.5h-535q6 1 13.5 4t19 13.5t21 26t16 44.5t6.5 66q0 18 -2 30l-12 97h-478l-39 -72q-57 -108 -57 -143q0 -33 16 -48.5t33 -17.5h-495q15 4 35.5 16.5t72 68.5t107.5 146zM580 498
h315l-39 448zM819 1622q0 97 62.5 152t148.5 55q85 0 148 -54.5t63 -152.5q0 -100 -63 -155.5t-148 -55.5q-86 0 -148.5 56t-62.5 155zM1030 1511q41 0 70.5 29t29.5 82q0 52 -29 79.5t-71 27.5q-43 0 -73.5 -28t-30.5 -79t31 -81t73 -30z" />
    <glyph glyph-name="AE" unicode="&#xc6;" horiz-adv-x="1888" 
d="M113 231l682 957q47 67 47 119q0 24 -15 39t-36 18h1083l-80 -397q-11 170 -227 170h-232l-49 -328h172q43 0 78.5 6.5t55 15t34 20.5t19.5 19t8 13l-78 -375q-2 31 -29.5 50.5t-60.5 25.5t-72 6h-160l-53 -363h219q142 0 214.5 45t121.5 152l-92 -424h-975
q15 2 31.5 8.5t43 23.5t47.5 52.5t30 85.5l16 111h-393l-47 -72q-60 -100 -60 -141q0 -24 11.5 -40.5t22 -21.5t20.5 -6h-512q9 2 27 14.5t71 69.5t117 147zM610 498h281l88 549z" />
    <glyph glyph-name="Ccedilla" unicode="&#xc7;" horiz-adv-x="1142" 
d="M469 -150l100 119q-219 9 -353 158.5t-134 382.5q0 170 68 331t182 282t274.5 194.5t335.5 73.5q99 0 180.5 -22.5t124.5 -51.5l-84 -389q-34 114 -101.5 171.5t-150.5 57.5q-93 0 -177.5 -61t-140.5 -155.5t-89 -205.5t-33 -213q0 -144 63.5 -228.5t192.5 -84.5
q90 0 179.5 44t156.5 134l-64 -289q-93 -87 -264 -116l-49 -56q78 -10 112.5 -50t24.5 -93q-15 -65 -85 -113.5t-173 -48.5q-112 0 -186 53q27 -6 61 -6q74 0 122 27t56 63q8 37 -30 64t-119 28z" />
    <glyph glyph-name="Egrave" unicode="&#xc8;" horiz-adv-x="1171" 
d="M119 170l223 1032q6 27 6 53q0 50 -23 77t-55 32h969l-80 -397q-11 170 -227 170h-246l-70 -328h199q43 0 78.5 6.5t55 15t34 20.5t19.5 19t8 13l-78 -375q-2 31 -29.5 50.5t-60.5 25.5t-72 6h-199l-73 -363h258q92 0 147 14.5t95.5 49.5t84.5 106l-84 -397h-1030
q14 2 29.5 8.5t41 23.5t47 52.5t32.5 85.5zM539 1761h397l14 -338z" />
    <glyph glyph-name="Eacute" unicode="&#xc9;" horiz-adv-x="1171" 
d="M119 170l223 1032q6 27 6 53q0 50 -23 77t-55 32h969l-80 -397q-11 170 -227 170h-246l-70 -328h199q43 0 78.5 6.5t55 15t34 20.5t19.5 19t8 13l-78 -375q-2 31 -29.5 50.5t-60.5 25.5t-72 6h-199l-73 -363h258q92 0 147 14.5t95.5 49.5t84.5 106l-84 -397h-1030
q14 2 29.5 8.5t41 23.5t47 52.5t32.5 85.5zM662 1423l149 338h397z" />
    <glyph glyph-name="Ecircumflex" unicode="&#xca;" horiz-adv-x="1171" 
d="M119 170l223 1032q6 27 6 53q0 50 -23 77t-55 32h969l-80 -397q-11 170 -227 170h-246l-70 -328h199q43 0 78.5 6.5t55 15t34 20.5t19.5 19t8 13l-78 -375q-2 31 -29.5 50.5t-60.5 25.5t-72 6h-199l-73 -363h258q92 0 147 14.5t95.5 49.5t84.5 106l-84 -397h-1030
q14 2 29.5 8.5t41 23.5t47 52.5t32.5 85.5zM453 1423l434 420l264 -420l-324 142z" />
    <glyph glyph-name="Edieresis" unicode="&#xcb;" horiz-adv-x="1171" 
d="M119 170l223 1032q6 27 6 53q0 50 -23 77t-55 32h969l-80 -397q-11 170 -227 170h-246l-70 -328h199q43 0 78.5 6.5t55 15t34 20.5t19.5 19t8 13l-78 -375q-2 31 -29.5 50.5t-60.5 25.5t-72 6h-199l-73 -363h258q92 0 147 14.5t95.5 49.5t84.5 106l-84 -397h-1030
q14 2 29.5 8.5t41 23.5t47 52.5t32.5 85.5zM1004 1454q-60 0 -96 37t-36 96q0 68 48 115t116 47q59 0 94 -37.5t35 -97.5q0 -67 -46.5 -113.5t-114.5 -46.5zM573 1454q-59 0 -95 37t-36 96q0 68 48 115t116 47q59 0 94 -37.5t35 -97.5q0 -67 -47 -113.5t-115 -46.5z" />
    <glyph glyph-name="Igrave" unicode="&#xcc;" horiz-adv-x="686" 
d="M96 147l223 1055q9 45 9 53q0 49 -21 76.5t-51 32.5h563q-12 -2 -26.5 -9t-37.5 -22.5t-42.5 -47.5t-28.5 -75l-225 -1054q-6 -27 -6 -52q0 -48 20 -75t47 -29h-551q11 1 25.5 7t35 20.5t39 45.5t27.5 74zM215 1761h397l15 -338z" />
    <glyph glyph-name="Iacute" unicode="&#xcd;" horiz-adv-x="686" 
d="M96 147l223 1055q9 45 9 53q0 49 -21 76.5t-51 32.5h563q-12 -2 -26.5 -9t-37.5 -22.5t-42.5 -47.5t-28.5 -75l-225 -1054q-6 -27 -6 -52q0 -48 20 -75t47 -29h-551q11 1 25.5 7t35 20.5t39 45.5t27.5 74zM455 1423l149 338h397z" />
    <glyph glyph-name="Icircumflex" unicode="&#xce;" horiz-adv-x="686" 
d="M96 147l223 1055q9 45 9 53q0 49 -21 76.5t-51 32.5h563q-12 -2 -26.5 -9t-37.5 -22.5t-42.5 -47.5t-28.5 -75l-225 -1054q-6 -27 -6 -52q0 -48 20 -75t47 -29h-551q11 1 25.5 7t35 20.5t39 45.5t27.5 74zM190 1423l435 420l264 -420l-324 142z" />
    <glyph glyph-name="Idieresis" unicode="&#xcf;" horiz-adv-x="686" 
d="M96 147l223 1055q9 45 9 53q0 49 -21 76.5t-51 32.5h563q-12 -2 -26.5 -9t-37.5 -22.5t-42.5 -47.5t-28.5 -75l-225 -1054q-6 -27 -6 -52q0 -48 20 -75t47 -29h-551q11 1 25.5 7t35 20.5t39 45.5t27.5 74zM782 1454q-59 0 -95 37t-36 96q0 68 48 115t116 47
q59 0 94 -37.5t35 -97.5q0 -67 -47 -113.5t-115 -46.5zM352 1454q-59 0 -95 37t-36 96q0 68 48 115t116 47q59 0 94 -37.5t35 -97.5q0 -67 -47 -113.5t-115 -46.5z" />
    <glyph glyph-name="Eth" unicode="&#xd0;" horiz-adv-x="1398" 
d="M94 184l82 400h-137l35 180h139l92 432q6 34 6 61q0 29 -8 51t-21 33t-22 16t-18 7h583q123 0 226 -38t181.5 -112t122.5 -192.5t44 -269.5q0 -110 -30.5 -217t-94.5 -204t-154.5 -170.5t-220 -117t-281.5 -43.5h-649q12 2 24.5 9t33 24.5t38.5 56.5t29 94zM461 217h153
q88 0 165 53.5t127 138.5t78 186.5t28 201.5q0 159 -63.5 254.5t-190.5 95.5h-103l-82 -383h236l-35 -180h-237z" />
    <glyph glyph-name="Ntilde" unicode="&#xd1;" horiz-adv-x="1417" 
d="M102 139l215 1000q7 35 7 37q0 37 -42.5 105.5t-86.5 82.5h444l395 -752l123 596q6 24 6 47q0 30 -10 52.5t-26 33.5t-26.5 16t-21.5 7h473q-11 -2 -23 -8.5t-31.5 -21.5t-36 -45.5t-25.5 -71.5l-262 -1217h-269l-9 38q-9 38 -19.5 76t-31.5 93.5t-44 99.5l-277 522
l-143 -684q-4 -16 -4 -41q0 -29 10 -50.5t25.5 -32t27.5 -15.5t21 -6h-492q13 1 28.5 7t37 19.5t40 43t27.5 69.5zM616 1432q-34 39 -34 104q0 86 62.5 150.5t160.5 64.5q52 0 113 -26.5t114 -53t86 -26.5q53 0 81 34t44 105q33 -42 33 -101q0 -86 -70 -155.5t-166 -69.5
q-50 0 -105 28t-105.5 55.5t-90.5 27.5q-46 0 -76 -31.5t-47 -105.5z" />
    <glyph glyph-name="Ograve" unicode="&#xd2;" horiz-adv-x="1415" 
d="M608 -31q-246 0 -386 150.5t-140 400.5q0 169 62.5 329t169 280.5t258 194t319.5 73.5t289.5 -72t181 -193.5t59.5 -279.5q0 -163 -61.5 -322.5t-167.5 -283.5t-259.5 -200.5t-324.5 -76.5zM651 209q82 0 155 63t121.5 161t76.5 215.5t28 228.5q0 129 -45 204.5
t-137 75.5q-105 0 -193.5 -108t-135 -261t-46.5 -303q0 -127 43.5 -201.5t132.5 -74.5zM700 1761h398l14 -338z" />
    <glyph glyph-name="Oacute" unicode="&#xd3;" horiz-adv-x="1415" 
d="M608 -31q-246 0 -386 150.5t-140 400.5q0 169 62.5 329t169 280.5t258 194t319.5 73.5t289.5 -72t181 -193.5t59.5 -279.5q0 -163 -61.5 -322.5t-167.5 -283.5t-259.5 -200.5t-324.5 -76.5zM651 209q82 0 155 63t121.5 161t76.5 215.5t28 228.5q0 129 -45 204.5
t-137 75.5q-105 0 -193.5 -108t-135 -261t-46.5 -303q0 -127 43.5 -201.5t132.5 -74.5zM776 1423l150 338h397z" />
    <glyph glyph-name="Ocircumflex" unicode="&#xd4;" horiz-adv-x="1415" 
d="M608 -31q-246 0 -386 150.5t-140 400.5q0 169 62.5 329t169 280.5t258 194t319.5 73.5t289.5 -72t181 -193.5t59.5 -279.5q0 -163 -61.5 -322.5t-167.5 -283.5t-259.5 -200.5t-324.5 -76.5zM651 209q82 0 155 63t121.5 161t76.5 215.5t28 228.5q0 129 -45 204.5
t-137 75.5q-105 0 -193.5 -108t-135 -261t-46.5 -303q0 -127 43.5 -201.5t132.5 -74.5zM535 1423l434 420l264 -420l-324 142z" />
    <glyph glyph-name="Otilde" unicode="&#xd5;" horiz-adv-x="1415" 
d="M608 -31q-246 0 -386 150.5t-140 400.5q0 169 62.5 329t169 280.5t258 194t319.5 73.5t289.5 -72t181 -193.5t59.5 -279.5q0 -163 -61.5 -322.5t-167.5 -283.5t-259.5 -200.5t-324.5 -76.5zM651 209q82 0 155 63t121.5 161t76.5 215.5t28 228.5q0 129 -45 204.5
t-137 75.5q-105 0 -193.5 -108t-135 -261t-46.5 -303q0 -127 43.5 -201.5t132.5 -74.5zM616 1432q-34 39 -34 104q0 86 62.5 150.5t160.5 64.5q52 0 113 -26.5t114 -53t86 -26.5q53 0 81 34t44 105q33 -42 33 -101q0 -86 -70 -155.5t-166 -69.5q-50 0 -105 28t-105.5 55.5
t-90.5 27.5q-46 0 -76 -31.5t-47 -105.5z" />
    <glyph glyph-name="Odieresis" unicode="&#xd6;" horiz-adv-x="1415" 
d="M608 -31q-246 0 -386 150.5t-140 400.5q0 169 62.5 329t169 280.5t258 194t319.5 73.5t289.5 -72t181 -193.5t59.5 -279.5q0 -163 -61.5 -322.5t-167.5 -283.5t-259.5 -200.5t-324.5 -76.5zM651 209q82 0 155 63t121.5 161t76.5 215.5t28 228.5q0 129 -45 204.5
t-137 75.5q-105 0 -193.5 -108t-135 -261t-46.5 -303q0 -127 43.5 -201.5t132.5 -74.5zM1126 1454q-59 0 -95 37t-36 96q0 68 48 115t116 47q59 0 94 -37.5t35 -97.5q0 -67 -47 -113.5t-115 -46.5zM696 1454q-59 0 -95 37t-36 96q0 68 48 115t116 47q59 0 94 -37.5t35 -97.5
q0 -67 -47 -113.5t-115 -46.5z" />
    <glyph glyph-name="multiply" unicode="&#xd7;" horiz-adv-x="1443" 
d="M205 0l-121 156l520 428l-338 430l187 153l340 -428l518 428l123 -153l-521 -430l338 -428l-188 -156l-336 430z" />
    <glyph glyph-name="Oslash" unicode="&#xd8;" horiz-adv-x="1404" 
d="M2 -51l182 211q-112 142 -112 360q0 169 62.5 329t169 280.5t258 194t319.5 73.5q182 0 311 -90l115 133l155 -49l-164 -187q113 -144 113 -352q0 -130 -38.5 -259t-112.5 -240.5t-172 -198t-225.5 -136t-264.5 -49.5q-177 0 -305 86l-129 -149zM1026 840v53l-530 -608
q46 -88 139 -88q78 0 150.5 60t122.5 154t81.5 207.5t36.5 221.5zM459 471l530 606q-47 92 -143 92q-100 0 -188.5 -103t-139 -250t-57.5 -294q0 -9 -1 -26t-1 -25z" />
    <glyph glyph-name="Ugrave" unicode="&#xd9;" horiz-adv-x="1382" 
d="M154 530l155 705q4 14 4 39q0 75 -75 90h561q-13 -3 -26 -8t-35 -18t-40 -40t-26 -63l-164 -750q-33 -150 5.5 -211t158.5 -61q98 0 166 58t92 171l162 781q4 18 4 47q0 33 -15 55.5t-27.5 29t-25.5 9.5h481q-11 -2 -25 -8.5t-34.5 -20.5t-37 -41.5t-23.5 -64.5
l-154 -744q-31 -151 -85 -252t-136.5 -158.5t-182.5 -81.5t-239 -24q-276 0 -387.5 142.5t-50.5 418.5zM664 1761h397l14 -338z" />
    <glyph glyph-name="Uacute" unicode="&#xda;" horiz-adv-x="1382" 
d="M154 530l155 705q4 14 4 39q0 75 -75 90h561q-13 -3 -26 -8t-35 -18t-40 -40t-26 -63l-164 -750q-33 -150 5.5 -211t158.5 -61q98 0 166 58t92 171l162 781q4 18 4 47q0 33 -15 55.5t-27.5 29t-25.5 9.5h481q-11 -2 -25 -8.5t-34.5 -20.5t-37 -41.5t-23.5 -64.5
l-154 -744q-31 -151 -85 -252t-136.5 -158.5t-182.5 -81.5t-239 -24q-276 0 -387.5 142.5t-50.5 418.5zM780 1423l150 338h397z" />
    <glyph glyph-name="Ucircumflex" unicode="&#xdb;" horiz-adv-x="1382" 
d="M154 530l155 705q4 14 4 39q0 75 -75 90h561q-13 -3 -26 -8t-35 -18t-40 -40t-26 -63l-164 -750q-33 -150 5.5 -211t158.5 -61q98 0 166 58t92 171l162 781q4 18 4 47q0 33 -15 55.5t-27.5 29t-25.5 9.5h481q-11 -2 -25 -8.5t-34.5 -20.5t-37 -41.5t-23.5 -64.5
l-154 -744q-31 -151 -85 -252t-136.5 -158.5t-182.5 -81.5t-239 -24q-276 0 -387.5 142.5t-50.5 418.5zM575 1423l435 420l264 -420l-324 142z" />
    <glyph glyph-name="Udieresis" unicode="&#xdc;" horiz-adv-x="1382" 
d="M154 530l155 705q4 14 4 39q0 75 -75 90h561q-13 -3 -26 -8t-35 -18t-40 -40t-26 -63l-164 -750q-33 -150 5.5 -211t158.5 -61q98 0 166 58t92 171l162 781q4 18 4 47q0 33 -15 55.5t-27.5 29t-25.5 9.5h481q-11 -2 -25 -8.5t-34.5 -20.5t-37 -41.5t-23.5 -64.5
l-154 -744q-31 -151 -85 -252t-136.5 -158.5t-182.5 -81.5t-239 -24q-276 0 -387.5 142.5t-50.5 418.5zM1110 1454q-59 0 -95 37t-36 96q0 68 48 115t116 47q59 0 94 -37.5t35 -97.5q0 -67 -47 -113.5t-115 -46.5zM680 1454q-59 0 -95 37t-36 96q0 68 48 115t116 47
q59 0 94 -37.5t35 -97.5q0 -67 -47 -113.5t-115 -46.5z" />
    <glyph glyph-name="Yacute" unicode="&#xdd;" horiz-adv-x="1263" 
d="M377 147l82 377l-176 693q-32 117 -121 147h516q-41 -16 -41 -82q0 -20 10 -65l94 -381l269 374q49 68 49 109q0 15 -8.5 25.5t-13 13t-15.5 6.5h461q-14 -3 -32 -12t-56.5 -44.5t-77.5 -90.5l-500 -693l-82 -368q-6 -30 -6 -54q0 -28 8.5 -49t21 -31.5t23 -15.5t19.5 -6
h-555q11 1 25.5 7t36 20.5t40.5 45.5t29 74zM807 1423l149 338h398z" />
    <glyph glyph-name="Thorn" unicode="&#xde;" horiz-adv-x="1255" 
d="M96 147l223 1055q9 45 9 53q0 49 -21 76.5t-51 32.5h563q-9 -2 -19.5 -5.5t-28.5 -15t-33 -27t-30.5 -43.5t-23.5 -63l-20 -88h122q114 0 203 -31t143.5 -84t82.5 -119.5t28 -142.5q0 -90 -38 -177t-107 -158t-177.5 -114.5t-238.5 -43.5q-91 0 -197 27l-26 -123
q-6 -27 -6 -54q0 -48 20 -74t47 -28h-551q11 1 25.5 7t35 20.5t39 45.5t27.5 74zM621 915l-93 -430q43 -14 101 -14q123 0 192.5 82t69.5 186q0 75 -39 125.5t-109 50.5h-122z" />
    <glyph glyph-name="germandbls" unicode="&#xdf;" horiz-adv-x="1347" 
d="M86 41l188 926q18 90 57 164t92 124t113.5 86.5t129 56.5t131 29t125.5 9q114 0 203.5 -27t146.5 -89t57 -151q0 -54 -19.5 -102t-51.5 -82.5t-70 -65t-76 -55t-70 -47t-51.5 -47t-19.5 -49.5q0 -31 33 -65.5t79.5 -69t93.5 -74t80 -95t33 -116.5q0 -65 -27.5 -120.5
t-73.5 -94.5t-105.5 -67t-124 -41t-128.5 -13q-124 0 -208 48.5t-84 136.5q0 65 41.5 122.5t109.5 83.5q-6 -30 -6 -34q0 -70 49.5 -106t116.5 -36q52 0 89.5 20.5t37.5 53.5q0 28 -22.5 57.5t-56.5 53.5t-73.5 56.5t-73.5 65t-56.5 80t-22.5 101.5q0 74 32.5 133t79 97
t92.5 71.5t78.5 72.5t32.5 84q0 55 -41.5 84t-93.5 29q-89 0 -156.5 -68.5t-89.5 -179.5l-190 -950q-82 -414 -414 -414q-155 0 -231 137q18 -2 53 -2q60 0 106 21t76 60.5t49 87t31 110.5z" />
    <glyph glyph-name="agrave" unicode="&#xe0;" horiz-adv-x="1120" 
d="M586 -31l14 127q-64 -63 -147 -95t-160 -32q-120 0 -185 96t-65 244q0 134 49 257t131 212t196 142t238 53q73 0 134 -10q15 -2 41.5 -7.5t42.5 -7.5t32 -2q89 0 187 49l-144 -665q-20 -92 -20 -133q0 -48 27.5 -76.5t76.5 -34.5l15 -2zM465 203q37 0 80 45t69 110
q20 47 51 178.5t31 178.5q0 37 -15.5 56.5t-43.5 19.5q-63 0 -122.5 -66t-95.5 -171.5t-36 -215.5q0 -135 82 -135zM453 1364h397l14 -338z" />
    <glyph glyph-name="aacute" unicode="&#xe1;" horiz-adv-x="1120" 
d="M586 -31l14 127q-64 -63 -147 -95t-160 -32q-120 0 -185 96t-65 244q0 134 49 257t131 212t196 142t238 53q73 0 134 -10q15 -2 41.5 -7.5t42.5 -7.5t32 -2q89 0 187 49l-144 -665q-20 -92 -20 -133q0 -48 27.5 -76.5t76.5 -34.5l15 -2zM465 203q37 0 80 45t69 110
q20 47 51 178.5t31 178.5q0 37 -15.5 56.5t-43.5 19.5q-63 0 -122.5 -66t-95.5 -171.5t-36 -215.5q0 -135 82 -135zM553 1026l149 338h398z" />
    <glyph glyph-name="acircumflex" unicode="&#xe2;" horiz-adv-x="1120" 
d="M586 -31l14 127q-64 -63 -147 -95t-160 -32q-120 0 -185 96t-65 244q0 134 49 257t131 212t196 142t238 53q73 0 134 -10q15 -2 41.5 -7.5t42.5 -7.5t32 -2q89 0 187 49l-144 -665q-20 -92 -20 -133q0 -48 27.5 -76.5t76.5 -34.5l15 -2zM465 203q37 0 80 45t69 110
q20 47 51 178.5t31 178.5q0 37 -15.5 56.5t-43.5 19.5q-63 0 -122.5 -66t-95.5 -171.5t-36 -215.5q0 -135 82 -135zM371 1026l393 414l223 -414l-280 141z" />
    <glyph glyph-name="atilde" unicode="&#xe3;" horiz-adv-x="1120" 
d="M586 -31l14 127q-64 -63 -147 -95t-160 -32q-120 0 -185 96t-65 244q0 134 49 257t131 212t196 142t238 53q73 0 134 -10q15 -2 41.5 -7.5t42.5 -7.5t32 -2q89 0 187 49l-144 -665q-20 -92 -20 -133q0 -48 27.5 -76.5t76.5 -34.5l15 -2zM465 203q37 0 80 45t69 110
q20 47 51 178.5t31 178.5q0 37 -15.5 56.5t-43.5 19.5q-63 0 -122.5 -66t-95.5 -171.5t-36 -215.5q0 -135 82 -135zM387 1075q-35 41 -35 105q0 86 62.5 150.5t160.5 64.5q41 0 89 -16.5t83.5 -37t75 -37t66.5 -16.5q53 0 81 34t44 105q33 -42 33 -100q0 -86 -70 -155.5
t-166 -69.5q-40 0 -83.5 17t-75 38t-71 38t-71.5 17q-46 0 -76 -31.5t-47 -105.5z" />
    <glyph glyph-name="adieresis" unicode="&#xe4;" horiz-adv-x="1120" 
d="M586 -31l14 127q-64 -63 -147 -95t-160 -32q-120 0 -185 96t-65 244q0 134 49 257t131 212t196 142t238 53q73 0 134 -10q15 -2 41.5 -7.5t42.5 -7.5t32 -2q89 0 187 49l-144 -665q-20 -92 -20 -133q0 -48 27.5 -76.5t76.5 -34.5l15 -2zM465 203q37 0 80 45t69 110
q20 47 51 178.5t31 178.5q0 37 -15.5 56.5t-43.5 19.5q-63 0 -122.5 -66t-95.5 -171.5t-36 -215.5q0 -135 82 -135zM909 1098q-59 0 -95 37t-36 96q0 68 48 115t116 47q59 0 94 -38t35 -98q0 -67 -47 -113t-115 -46zM479 1098q-59 0 -95 37t-36 96q0 68 48 115t116 47
q59 0 94 -38t35 -98q0 -67 -47 -113t-115 -46z" />
    <glyph glyph-name="aring" unicode="&#xe5;" horiz-adv-x="1120" 
d="M586 -31l14 127q-64 -63 -147 -95t-160 -32q-120 0 -185 96t-65 244q0 134 49 257t131 212t196 142t238 53q73 0 134 -10q15 -2 41.5 -7.5t42.5 -7.5t32 -2q89 0 187 49l-144 -665q-20 -92 -20 -133q0 -48 27.5 -76.5t76.5 -34.5l15 -2zM465 203q37 0 80 45t69 110
q20 47 51 178.5t31 178.5q0 37 -15.5 56.5t-43.5 19.5q-63 0 -122.5 -66t-95.5 -171.5t-36 -215.5q0 -135 82 -135zM467 1245q0 97 62.5 152t148.5 55q85 0 148 -54.5t63 -152.5q0 -100 -63 -155.5t-148 -55.5q-86 0 -148.5 56t-62.5 155zM678 1135q41 0 70.5 29t29.5 81
t-29 79.5t-71 27.5q-43 0 -74 -28t-31 -79t31 -80.5t74 -29.5z" />
    <glyph glyph-name="ae" unicode="&#xe6;" horiz-adv-x="1449" 
d="M424 674l-330 -74q-4 36 -4 51q0 66 31.5 123.5t82 97t114.5 68t130 42t127 13.5q184 0 263 -71q18 -14 28 -27q150 94 330 94q53 0 101.5 -13.5t90.5 -41t67.5 -76t25.5 -112.5q0 -167 -149.5 -246.5t-465.5 -98.5q0 -24 2 -36q12 -81 60.5 -131t142.5 -50
q76 0 162.5 32.5t155.5 84.5q-49 -157 -180 -246.5t-281 -89.5q-192 0 -291 123q-134 -121 -375 -121q-118 0 -198 65.5t-80 172.5q0 298 608 338l22 108q7 31 7 52q0 54 -29 79t-72 25q-55 0 -89 -27.5t-34 -60.5q0 -32 27 -47zM883 561q68 3 114 8.5t86.5 16t64 27
t37 42.5t13.5 62q0 38 -21 60t-57 22q-87 0 -148.5 -68t-88.5 -170zM543 295l16 90q-144 -8 -211 -36t-67 -93q0 -38 30 -64t74 -26q53 0 100 33t58 96z" />
    <glyph glyph-name="ccedilla" unicode="&#xe7;" horiz-adv-x="897" 
d="M184 -150l107 127q-119 26 -184.5 116.5t-65.5 225.5q0 139 50.5 263.5t136 214t203.5 142t249 52.5q101 0 163 -50.5t62 -133.5q0 -102 -83 -191t-193 -90q28 32 28 109q0 57 -21.5 99t-64.5 42q-73 0 -132.5 -105t-59.5 -245q0 -111 50 -176.5t146 -65.5q64 0 135 31.5
t132 87.5q-50 -141 -160.5 -227.5t-239.5 -104.5l-41 -45q78 -10 113 -50t25 -93q-15 -65 -85 -113.5t-173 -48.5q-113 0 -187 53q27 -6 62 -6q74 0 122 27t56 63q8 37 -30.5 64t-119.5 28z" />
    <glyph glyph-name="egrave" unicode="&#xe8;" horiz-adv-x="958" 
d="M877 303q-49 -157 -180 -246.5t-281 -89.5q-173 0 -273 102.5t-100 274.5q0 122 48 239t131 207.5t204.5 145.5t257.5 55q53 0 101.5 -13.5t90.5 -41t67.5 -76t25.5 -112.5q0 -50 -18.5 -100t-64 -102t-113 -93t-173.5 -69.5t-238 -35.5q2 -17 15 -47q47 -115 182 -115
q76 0 162.5 32.5t155.5 84.5zM360 516q43 2 95 14t105.5 34.5t89.5 62.5t36 90q0 38 -21 60t-57 22q-68 0 -146.5 -80.5t-101.5 -202.5zM391 1364h397l15 -338z" />
    <glyph glyph-name="eacute" unicode="&#xe9;" horiz-adv-x="958" 
d="M877 303q-49 -157 -180 -246.5t-281 -89.5q-173 0 -273 102.5t-100 274.5q0 122 48 239t131 207.5t204.5 145.5t257.5 55q53 0 101.5 -13.5t90.5 -41t67.5 -76t25.5 -112.5q0 -50 -18.5 -100t-64 -102t-113 -93t-173.5 -69.5t-238 -35.5q2 -17 15 -47q47 -115 182 -115
q76 0 162.5 32.5t155.5 84.5zM360 516q43 2 95 14t105.5 34.5t89.5 62.5t36 90q0 38 -21 60t-57 22q-68 0 -146.5 -80.5t-101.5 -202.5zM449 1026l149 338h397z" />
    <glyph glyph-name="ecircumflex" unicode="&#xea;" horiz-adv-x="958" 
d="M877 303q-49 -157 -180 -246.5t-281 -89.5q-173 0 -273 102.5t-100 274.5q0 122 48 239t131 207.5t204.5 145.5t257.5 55q53 0 101.5 -13.5t90.5 -41t67.5 -76t25.5 -112.5q0 -50 -18.5 -100t-64 -102t-113 -93t-173.5 -69.5t-238 -35.5q2 -17 15 -47q47 -115 182 -115
q76 0 162.5 32.5t155.5 84.5zM360 516q43 2 95 14t105.5 34.5t89.5 62.5t36 90q0 38 -21 60t-57 22q-68 0 -146.5 -80.5t-101.5 -202.5zM330 1026l393 414l223 -414l-280 141z" />
    <glyph glyph-name="edieresis" unicode="&#xeb;" horiz-adv-x="958" 
d="M877 303q-49 -157 -180 -246.5t-281 -89.5q-173 0 -273 102.5t-100 274.5q0 122 48 239t131 207.5t204.5 145.5t257.5 55q53 0 101.5 -13.5t90.5 -41t67.5 -76t25.5 -112.5q0 -50 -18.5 -100t-64 -102t-113 -93t-173.5 -69.5t-238 -35.5q2 -17 15 -47q47 -115 182 -115
q76 0 162.5 32.5t155.5 84.5zM360 516q43 2 95 14t105.5 34.5t89.5 62.5t36 90q0 38 -21 60t-57 22q-68 0 -146.5 -80.5t-101.5 -202.5zM860 1098q-59 0 -95 37t-36 96q0 68 48 115t116 47q59 0 94 -38t35 -98q0 -67 -47 -113t-115 -46zM430 1098q-59 0 -95 37t-36 96
q0 68 48 115t116 47q59 0 94 -38t35 -98q0 -67 -47 -113t-115 -46z" />
    <glyph glyph-name="igrave" unicode="&#xec;" horiz-adv-x="585" 
d="M27 0l168 764q2 6 2 18q0 36 -35 61.5t-74 30.5l-16 3l497 118l-166 -772q-12 -52 -12 -100q0 -55 16.5 -86.5t41.5 -36.5h-422zM207 1364h397l14 -338z" />
    <glyph glyph-name="iacute" unicode="&#xed;" horiz-adv-x="585" 
d="M27 0l168 764q2 6 2 18q0 36 -35 61.5t-74 30.5l-16 3l497 118l-166 -772q-12 -52 -12 -100q0 -55 16.5 -86.5t41.5 -36.5h-422zM221 1026l150 338h397z" />
    <glyph glyph-name="icircumflex" unicode="&#xee;" horiz-adv-x="585" 
d="M27 0l168 764q2 6 2 18q0 36 -35 61.5t-74 30.5l-16 3l497 118l-166 -772q-12 -52 -12 -100q0 -55 16.5 -86.5t41.5 -36.5h-422zM104 1026l394 414l223 -414l-281 141z" />
    <glyph glyph-name="idieresis" unicode="&#xef;" horiz-adv-x="585" 
d="M27 0l168 764q2 6 2 18q0 36 -35 61.5t-74 30.5l-16 3l497 118l-166 -772q-12 -52 -12 -100q0 -55 16.5 -86.5t41.5 -36.5h-422zM651 1098q-59 0 -95 37t-36 96q0 68 48 115t116 47q59 0 94 -38t35 -98q0 -67 -47 -113t-115 -46zM221 1098q-59 0 -95 37t-36 96
q0 68 48 115t116 47q59 0 94 -38t35 -98q0 -67 -47 -113t-115 -46z" />
    <glyph glyph-name="eth" unicode="&#xf0;" horiz-adv-x="1067" 
d="M283 1036v121l190 66q-66 41 -156 77l359 125q65 -35 125 -88l278 103v-127l-192 -68q74 -95 112.5 -226.5t38.5 -275.5q0 -114 -23 -223.5t-72.5 -208.5t-119.5 -173.5t-171 -118.5t-220 -44q-101 0 -180 34t-125.5 92.5t-70 129.5t-23.5 150q0 120 46 233.5t119.5 194
t168 129.5t188.5 49q116 0 199 -92q-70 153 -172 244zM457 186q51 0 96 46.5t72.5 114.5t43 138t15.5 123q0 66 -23 116t-73 50t-95 -47t-73.5 -115.5t-45 -139.5t-16.5 -124q0 -66 23.5 -114t75.5 -48z" />
    <glyph glyph-name="ntilde" unicode="&#xf1;" horiz-adv-x="1101" 
d="M31 0l166 758q2 8 2 24q0 39 -31.5 63t-75.5 29l-16 3l461 118l-19 -118q149 116 316 116q219 0 219 -186q0 -50 -13 -113l-98 -471q-6 -24 -6 -80q0 -128 55 -143h-422l140 639q6 24 6 47q0 42 -20 67t-56 25q-39 0 -86 -39.5t-64 -117.5l-135 -621h-323zM379 1075
q-35 41 -35 105q0 86 62.5 150.5t160.5 64.5q41 0 89 -16.5t83.5 -37t75 -37t66.5 -16.5q53 0 81 34t44 105q32 -40 32 -100q0 -86 -69.5 -155.5t-165.5 -69.5q-40 0 -83.5 17t-75 38t-71 38t-71.5 17q-46 0 -76 -31.5t-47 -105.5z" />
    <glyph glyph-name="ograve" unicode="&#xf2;" horiz-adv-x="1071" 
d="M442 -25q-101 0 -180 34t-125.5 92.5t-70 129.5t-23.5 150q0 115 42.5 224t116.5 194t185 136.5t238 51.5q102 0 181.5 -33t126.5 -90t71 -127.5t24 -150.5q0 -82 -24 -166.5t-73 -164.5t-117.5 -142t-165 -100t-206.5 -38zM467 186q51 0 96 46.5t72.5 114.5t43 138
t15.5 123q0 66 -23 116t-73 50t-95 -47t-73 -115.5t-44.5 -139.5t-16.5 -124q0 -66 23 -114t75 -48zM408 1364h397l14 -338z" />
    <glyph glyph-name="oacute" unicode="&#xf3;" horiz-adv-x="1071" 
d="M442 -25q-101 0 -180 34t-125.5 92.5t-70 129.5t-23.5 150q0 115 42.5 224t116.5 194t185 136.5t238 51.5q102 0 181.5 -33t126.5 -90t71 -127.5t24 -150.5q0 -82 -24 -166.5t-73 -164.5t-117.5 -142t-165 -100t-206.5 -38zM467 186q51 0 96 46.5t72.5 114.5t43 138
t15.5 123q0 66 -23 116t-73 50t-95 -47t-73 -115.5t-44.5 -139.5t-16.5 -124q0 -66 23 -114t75 -48zM545 1026l149 338h398z" />
    <glyph glyph-name="ocircumflex" unicode="&#xf4;" horiz-adv-x="1071" 
d="M442 -25q-101 0 -180 34t-125.5 92.5t-70 129.5t-23.5 150q0 115 42.5 224t116.5 194t185 136.5t238 51.5q102 0 181.5 -33t126.5 -90t71 -127.5t24 -150.5q0 -82 -24 -166.5t-73 -164.5t-117.5 -142t-165 -100t-206.5 -38zM467 186q51 0 96 46.5t72.5 114.5t43 138
t15.5 123q0 66 -23 116t-73 50t-95 -47t-73 -115.5t-44.5 -139.5t-16.5 -124q0 -66 23 -114t75 -48zM313 1026l394 414l223 -414l-281 141z" />
    <glyph glyph-name="otilde" unicode="&#xf5;" horiz-adv-x="1071" 
d="M442 -25q-101 0 -180 34t-125.5 92.5t-70 129.5t-23.5 150q0 115 42.5 224t116.5 194t185 136.5t238 51.5q102 0 181.5 -33t126.5 -90t71 -127.5t24 -150.5q0 -82 -24 -166.5t-73 -164.5t-117.5 -142t-165 -100t-206.5 -38zM467 186q51 0 96 46.5t72.5 114.5t43 138
t15.5 123q0 66 -23 116t-73 50t-95 -47t-73 -115.5t-44.5 -139.5t-16.5 -124q0 -66 23 -114t75 -48zM383 1075q-35 41 -35 105q0 86 62.5 150.5t160.5 64.5q41 0 89 -16.5t83.5 -37t75 -37t66.5 -16.5q53 0 81 34t44 105q32 -40 32 -100q0 -86 -69.5 -155.5t-165.5 -69.5
q-40 0 -83.5 17t-75 38t-71 38t-71.5 17q-46 0 -76 -31.5t-47 -105.5z" />
    <glyph glyph-name="odieresis" unicode="&#xf6;" horiz-adv-x="1071" 
d="M442 -25q-101 0 -180 34t-125.5 92.5t-70 129.5t-23.5 150q0 115 42.5 224t116.5 194t185 136.5t238 51.5q102 0 181.5 -33t126.5 -90t71 -127.5t24 -150.5q0 -82 -24 -166.5t-73 -164.5t-117.5 -142t-165 -100t-206.5 -38zM467 186q51 0 96 46.5t72.5 114.5t43 138
t15.5 123q0 66 -23 116t-73 50t-95 -47t-73 -115.5t-44.5 -139.5t-16.5 -124q0 -66 23 -114t75 -48zM854 1098q-59 0 -95 37t-36 96q0 68 48 115t116 47q59 0 94 -38t35 -98q0 -67 -47 -113t-115 -46zM424 1098q-59 0 -95 37t-36 96q0 68 48 115t116 47q59 0 94 -38t35 -98
q0 -67 -47 -113t-115 -46z" />
    <glyph glyph-name="divide" unicode="&#xf7;" horiz-adv-x="1443" 
d="M166 485l47 213h1133l-48 -213h-1132zM657 61q-59 0 -95 37.5t-36 96.5q0 68 48 114.5t116 46.5q59 0 94 -37.5t35 -97.5q0 -67 -47 -113.5t-115 -46.5zM825 836q-59 0 -95 37t-36 96q0 68 48 114.5t116 46.5q59 0 94 -37.5t35 -97.5q0 -67 -47 -113t-115 -46z" />
    <glyph glyph-name="oslash" unicode="&#xf8;" horiz-adv-x="1050" 
d="M14 -61l121 153q-102 111 -102 289q0 155 71 292.5t206 225.5t304 88q108 0 195 -41l113 146l133 -39l-144 -181q107 -113 107 -286q0 -82 -24 -166.5t-73 -164.5t-117.5 -142t-165 -100t-206.5 -38q-116 0 -196 41l-86 -110zM362 381l285 364q-23 29 -59 29
q-56 0 -105 -57t-77 -134.5t-39 -158.5q-5 -35 -5 -43zM680 580l-287 -365q23 -29 64 -29q59 0 108 58t76 135.5t37 159.5q2 14 2 41z" />
    <glyph glyph-name="ugrave" unicode="&#xf9;" horiz-adv-x="1138" 
d="M92 270l78 387q16 85 16 123q0 50 -20 68t-70 26l-12 3l485 118l-145 -669q-6 -30 -6 -56q0 -84 71 -84q44 0 88.5 44.5t61.5 113.5l74 313q20 84 20 131q0 24 -6.5 39.5t-21.5 24.5t-29 13t-39 9l-10 3l483 118l-172 -788q-6 -21 -6 -39q0 -33 24.5 -51.5t77.5 -26.5
l15 -2l-461 -119l24 119q-57 -54 -141 -85.5t-172 -31.5q-221 0 -221 187q0 44 14 112zM440 1364h398l14 -338z" />
    <glyph glyph-name="uacute" unicode="&#xfa;" horiz-adv-x="1138" 
d="M92 270l78 387q16 85 16 123q0 50 -20 68t-70 26l-12 3l485 118l-145 -669q-6 -30 -6 -56q0 -84 71 -84q44 0 88.5 44.5t61.5 113.5l74 313q20 84 20 131q0 24 -6.5 39.5t-21.5 24.5t-29 13t-39 9l-10 3l483 118l-172 -788q-6 -21 -6 -39q0 -33 24.5 -51.5t77.5 -26.5
l15 -2l-461 -119l24 119q-57 -54 -141 -85.5t-172 -31.5q-221 0 -221 187q0 44 14 112zM559 1026l150 338h397z" />
    <glyph glyph-name="ucircumflex" unicode="&#xfb;" horiz-adv-x="1138" 
d="M92 270l78 387q16 85 16 123q0 50 -20 68t-70 26l-12 3l485 118l-145 -669q-6 -30 -6 -56q0 -84 71 -84q44 0 88.5 44.5t61.5 113.5l74 313q20 84 20 131q0 24 -6.5 39.5t-21.5 24.5t-29 13t-39 9l-10 3l483 118l-172 -788q-6 -21 -6 -39q0 -33 24.5 -51.5t77.5 -26.5
l15 -2l-461 -119l24 119q-57 -54 -141 -85.5t-172 -31.5q-221 0 -221 187q0 44 14 112zM379 1026l393 414l223 -414l-280 141z" />
    <glyph glyph-name="udieresis" unicode="&#xfc;" horiz-adv-x="1138" 
d="M92 270l78 387q16 85 16 123q0 50 -20 68t-70 26l-12 3l485 118l-145 -669q-6 -30 -6 -56q0 -84 71 -84q44 0 88.5 44.5t61.5 113.5l74 313q20 84 20 131q0 24 -6.5 39.5t-21.5 24.5t-29 13t-39 9l-10 3l483 118l-172 -788q-6 -21 -6 -39q0 -33 24.5 -51.5t77.5 -26.5
l15 -2l-461 -119l24 119q-57 -54 -141 -85.5t-172 -31.5q-221 0 -221 187q0 44 14 112zM907 1098q-59 0 -95 37t-36 96q0 68 48 115t116 47q59 0 94 -38t35 -98q0 -67 -47 -113t-115 -46zM477 1098q-59 0 -95 37t-36 96q0 68 48 115t116 47q59 0 94 -38t35 -98
q0 -67 -47 -113t-115 -46z" />
    <glyph glyph-name="yacute" unicode="&#xfd;" horiz-adv-x="1073" 
d="M340 0l-170 770q-23 99 -135 107l-25 2l453 112l137 -678q110 179 152 293q43 118 43 195q0 57 -27 98t-80 51h430q-70 -231 -182 -444q-84 -157 -204.5 -333.5t-250.5 -315.5q-102 -108 -211.5 -173t-203.5 -65q-93 0 -141 43.5t-48 114.5q0 53 23 114q52 -45 131 -45
t160 40t149 114zM567 1026l150 338h397z" />
    <glyph glyph-name="thorn" unicode="&#xfe;" horiz-adv-x="1114" 
d="M-49 -371l338 1565q4 16 4 25q0 36 -29 57.5t-74 28.5l-12 2l488 118l-119 -528q57 44 128 71t140 27q124 0 191 -99t67 -249q0 -90 -23 -182.5t-72 -180t-117 -156t-166 -110t-212 -41.5q-71 0 -118 35l-89 -383h-325zM498 184q50 0 94.5 44.5t72.5 111t44 138.5t16 132
q0 140 -80 140q-29 0 -71.5 -33.5t-75.5 -85.5q-22 -34 -50 -166.5t-28 -190.5q0 -44 20.5 -67t57.5 -23z" />
    <glyph glyph-name="ydieresis" unicode="&#xff;" horiz-adv-x="1073" 
d="M340 0l-170 770q-23 99 -135 107l-25 2l453 112l137 -678q110 179 152 293q43 118 43 195q0 57 -27 98t-80 51h430q-70 -231 -182 -444q-84 -157 -204.5 -333.5t-250.5 -315.5q-102 -108 -211.5 -173t-203.5 -65q-93 0 -141 43.5t-48 114.5q0 53 23 114q52 -45 131 -45
t160 40t149 114zM848 1098q-59 0 -95 37t-36 96q0 68 48 115t116 47q59 0 94 -38t35 -98q0 -67 -47 -113t-115 -46zM418 1098q-59 0 -95 37t-36 96q0 68 48 115t116 47q59 0 94 -38t35 -98q0 -67 -47 -113t-115 -46z" />
    <glyph glyph-name="Amacron" unicode="&#x100;" horiz-adv-x="1480" 
d="M113 231l731 1133h319l125 -1153q5 -49 16 -88t22.5 -60.5t25.5 -36.5t23 -19.5t16 -6.5h-535q6 1 13.5 4t19 13.5t21 26t16 44.5t6.5 66q0 18 -2 30l-12 97h-478l-39 -72q-57 -108 -57 -143q0 -33 16 -48.5t33 -17.5h-495q15 4 35.5 16.5t72 68.5t107.5 146zM580 498
h315l-39 448zM684 1534l31 143h690l-31 -143h-690z" />
    <glyph glyph-name="amacron" unicode="&#x101;" horiz-adv-x="1120" 
d="M586 -31l14 127q-64 -63 -147 -95t-160 -32q-120 0 -185 96t-65 244q0 134 49 257t131 212t196 142t238 53q73 0 134 -10q15 -2 41.5 -7.5t42.5 -7.5t32 -2q89 0 187 49l-144 -665q-20 -92 -20 -133q0 -48 27.5 -76.5t76.5 -34.5l15 -2zM465 203q37 0 80 45t69 110
q20 47 51 178.5t31 178.5q0 37 -15.5 56.5t-43.5 19.5q-63 0 -122.5 -66t-95.5 -171.5t-36 -215.5q0 -135 82 -135zM358 1157l31 143h690l-30 -143h-691z" />
    <glyph glyph-name="Abreve" unicode="&#x102;" horiz-adv-x="1480" 
d="M113 231l731 1133h319l125 -1153q5 -49 16 -88t22.5 -60.5t25.5 -36.5t23 -19.5t16 -6.5h-535q6 1 13.5 4t19 13.5t21 26t16 44.5t6.5 66q0 18 -2 30l-12 97h-478l-39 -72q-57 -108 -57 -143q0 -33 16 -48.5t33 -17.5h-495q15 4 35.5 16.5t72 68.5t107.5 146zM580 498
h315l-39 448zM813 1823q27 -75 90.5 -114.5t143.5 -39.5t159 39.5t144 114.5q-36 -167 -136 -260t-210 -93q-88 0 -145.5 62.5t-57.5 177.5q0 52 12 113z" />
    <glyph glyph-name="abreve" unicode="&#x103;" horiz-adv-x="1120" 
d="M586 -31l14 127q-64 -63 -147 -95t-160 -32q-120 0 -185 96t-65 244q0 134 49 257t131 212t196 142t238 53q73 0 134 -10q15 -2 41.5 -7.5t42.5 -7.5t32 -2q89 0 187 49l-144 -665q-20 -92 -20 -133q0 -48 27.5 -76.5t76.5 -34.5l15 -2zM465 203q37 0 80 45t69 110
q20 47 51 178.5t31 178.5q0 37 -15.5 56.5t-43.5 19.5q-63 0 -122.5 -66t-95.5 -171.5t-36 -215.5q0 -135 82 -135zM477 1436q27 -75 90.5 -114.5t143.5 -39.5t159 39.5t144 114.5q-36 -167 -136 -260t-210 -93q-88 0 -145.5 62.5t-57.5 177.5q0 51 12 113z" />
    <glyph glyph-name="Aogonek" unicode="&#x104;" horiz-adv-x="1480" 
d="M111 231l731 1133h319l125 -1153q6 -59 20 -103t30 -65.5t28 -31t22 -11.5q-101 -2 -178.5 -46.5t-77.5 -113.5q0 -37 25.5 -58.5t69.5 -21.5q57 0 127 37q-39 -83 -113.5 -129.5t-146.5 -46.5q-70 0 -116 38t-46 103q0 71 46 133t118 105h-238q9 2 19 8.5t23.5 22
t22.5 47.5t9 76q0 18 -2 30l-13 97h-477l-39 -72q-57 -108 -57 -143q0 -32 15 -48t32 -18h-491q7 2 17 6.5t30.5 20.5t43 39.5t55 66.5t67.5 98zM578 498h315l-39 448z" />
    <glyph glyph-name="aogonek" unicode="&#x105;" horiz-adv-x="1120" 
d="M600 -33v129q-64 -63 -147 -95t-160 -32q-120 0 -185 96t-65 244q0 134 49 257t131 212t196 142t238 53q73 0 134 -10q15 -2 41.5 -7.5t42.5 -7.5t32 -2q89 0 187 49l-144 -665q-20 -92 -20 -133q0 -48 27.5 -76.5t76.5 -34.5l15 -2q-361 -113 -361 -244q0 -37 25 -58.5
t69 -21.5q57 0 127 37q-39 -83 -113.5 -129.5t-146.5 -46.5q-70 0 -116 38t-46 103q0 106 113 205zM465 203q37 0 80 45t69 110q20 47 51 178.5t31 178.5q0 37 -15.5 56.5t-43.5 19.5q-63 0 -122.5 -66t-95.5 -171.5t-36 -215.5q0 -135 82 -135z" />
    <glyph glyph-name="Cacute" unicode="&#x106;" horiz-adv-x="1142" 
d="M1063 387l-64 -289q-66 -63 -174 -96t-231 -33q-229 0 -370.5 151t-141.5 390q0 170 68 331t182 282t274.5 194.5t335.5 73.5q99 0 180.5 -22.5t124.5 -51.5l-84 -389q-34 114 -101.5 171.5t-150.5 57.5q-93 0 -177.5 -61t-140.5 -155.5t-89 -205.5t-33 -213
q0 -144 63.5 -228.5t192.5 -84.5q90 0 179.5 44t156.5 134zM662 1423l149 338h397z" />
    <glyph glyph-name="cacute" unicode="&#x107;" horiz-adv-x="897" 
d="M842 303q-56 -158 -186 -247t-273 -89q-160 0 -251 96.5t-91 255.5q0 139 50.5 263.5t136 214t203.5 142t249 52.5q101 0 163 -50.5t62 -133.5q0 -102 -83 -191t-193 -90q28 32 28 109q0 57 -21.5 99t-64.5 42q-73 0 -132.5 -105t-59.5 -245q0 -111 50 -176.5t146 -65.5
q64 0 135 31.5t132 87.5zM438 1026l150 338h397z" />
    <glyph glyph-name="Ccircumflex" unicode="&#x108;" horiz-adv-x="1142" 
d="M1063 387l-64 -289q-66 -63 -174 -96t-231 -33q-229 0 -370.5 151t-141.5 390q0 170 68 331t182 282t274.5 194.5t335.5 73.5q99 0 180.5 -22.5t124.5 -51.5l-84 -389q-34 114 -101.5 171.5t-150.5 57.5q-93 0 -177.5 -61t-140.5 -155.5t-89 -205.5t-33 -213
q0 -144 63.5 -228.5t192.5 -84.5q90 0 179.5 44t156.5 134zM541 1423l434 420l264 -420l-324 142z" />
    <glyph glyph-name="ccircumflex" unicode="&#x109;" horiz-adv-x="897" 
d="M842 303q-56 -158 -186 -247t-273 -89q-160 0 -251 96.5t-91 255.5q0 139 50.5 263.5t136 214t203.5 142t249 52.5q101 0 163 -50.5t62 -133.5q0 -102 -83 -191t-193 -90q28 32 28 109q0 57 -21.5 99t-64.5 42q-73 0 -132.5 -105t-59.5 -245q0 -111 50 -176.5t146 -65.5
q64 0 135 31.5t132 87.5zM260 1026l393 414l224 -414l-281 141z" />
    <glyph glyph-name="Cdotaccent" unicode="&#x10a;" horiz-adv-x="1142" 
d="M1063 387l-64 -289q-66 -63 -174 -96t-231 -33q-229 0 -370.5 151t-141.5 390q0 170 68 331t182 282t274.5 194.5t335.5 73.5q99 0 180.5 -22.5t124.5 -51.5l-84 -389q-34 114 -101.5 171.5t-150.5 57.5q-93 0 -177.5 -61t-140.5 -155.5t-89 -205.5t-33 -213
q0 -144 63.5 -228.5t192.5 -84.5q90 0 179.5 44t156.5 134zM948 1427q-72 0 -116 45t-44 117q0 83 58 140t141 57q73 0 115.5 -45.5t42.5 -118.5q0 -83 -57 -139t-140 -56z" />
    <glyph glyph-name="cdotaccent" unicode="&#x10b;" horiz-adv-x="897" 
d="M842 303q-56 -158 -186 -247t-273 -89q-160 0 -251 96.5t-91 255.5q0 139 50.5 263.5t136 214t203.5 142t249 52.5q101 0 163 -50.5t62 -133.5q0 -102 -83 -191t-193 -90q28 32 28 109q0 57 -21.5 99t-64.5 42q-73 0 -132.5 -105t-59.5 -245q0 -111 50 -176.5t146 -65.5
q64 0 135 31.5t132 87.5zM629 1059q-72 0 -116 45t-44 117q0 83 57.5 139.5t141.5 56.5q72 0 114.5 -45.5t42.5 -118.5q0 -83 -56.5 -138.5t-139.5 -55.5z" />
    <glyph glyph-name="Ccaron" unicode="&#x10c;" horiz-adv-x="1142" 
d="M1063 387l-64 -289q-66 -63 -174 -96t-231 -33q-229 0 -370.5 151t-141.5 390q0 170 68 331t182 282t274.5 194.5t335.5 73.5q99 0 180.5 -22.5t124.5 -51.5l-84 -389q-34 114 -101.5 171.5t-150.5 57.5q-93 0 -177.5 -61t-140.5 -155.5t-89 -205.5t-33 -213
q0 -144 63.5 -228.5t192.5 -84.5q90 0 179.5 44t156.5 134zM862 1425l-264 420l324 -141l374 141z" />
    <glyph glyph-name="ccaron" unicode="&#x10d;" horiz-adv-x="897" 
d="M842 303q-56 -158 -186 -247t-273 -89q-160 0 -251 96.5t-91 255.5q0 139 50.5 263.5t136 214t203.5 142t249 52.5q101 0 163 -50.5t62 -133.5q0 -102 -83 -191t-193 -90q28 32 28 109q0 57 -21.5 99t-64.5 42q-73 0 -132.5 -105t-59.5 -245q0 -111 50 -176.5t146 -65.5
q64 0 135 31.5t132 87.5zM586 1028l-224 412l281 -142l336 142z" />
    <glyph glyph-name="Dcaron" unicode="&#x10e;" horiz-adv-x="1398" 
d="M94 184l211 1012q6 34 6 61q0 29 -8 51t-21 33t-22 16t-18 7h583q123 0 226 -38t181.5 -112t122.5 -192.5t44 -269.5q0 -110 -30.5 -217t-94.5 -204t-154.5 -170.5t-220 -117t-281.5 -43.5h-649q12 2 24.5 9t32.5 24.5t38.5 56.5t29.5 94zM461 217h153q88 0 165 53.5
t127 138.5t78 186.5t28 201.5q0 159 -63.5 254.5t-190.5 95.5h-103q-17 -82 -94 -449.5t-100 -480.5zM838 1425l-265 420l324 -141l375 141z" />
    <glyph glyph-name="dcaron" unicode="&#x10f;" horiz-adv-x="1157" 
d="M569 -31l31 121q-62 -58 -135 -88.5t-143 -30.5q-121 0 -200 86.5t-79 247.5q0 129 45.5 256t118.5 221t169.5 152.5t192.5 58.5q64 0 104 -14t70 -47l64 270q2 6 2 17q0 68 -121 86l-14 2l508 118l-258 -1181q-9 -41 -9 -68q0 -25 9 -42t27.5 -26.5t35 -13.5t43.5 -8
l14 -2zM459 197q71 0 145 116q22 34 49 158t27 180q0 65 -21 95t-71 30q-49 0 -98 -74t-78 -176t-29 -188q0 -141 76 -141zM1196 985l135 412h303z" />
    <glyph glyph-name="Dcroat" unicode="&#x110;" horiz-adv-x="1398" 
d="M94 184l82 400h-137l35 180h139l92 432q6 34 6 61q0 29 -8 51t-21 33t-22 16t-18 7h583q123 0 226 -38t181.5 -112t122.5 -192.5t44 -269.5q0 -110 -30.5 -217t-94.5 -204t-154.5 -170.5t-220 -117t-281.5 -43.5h-649q12 2 24.5 9t33 24.5t38.5 56.5t29 94zM461 217h153
q88 0 165 53.5t127 138.5t78 186.5t28 201.5q0 159 -63.5 254.5t-190.5 95.5h-103l-82 -383h236l-35 -180h-237z" />
    <glyph glyph-name="dcroat" unicode="&#x111;" horiz-adv-x="1105" 
d="M569 -31l31 121q-62 -58 -135 -88.5t-143 -30.5q-121 0 -200 86.5t-79 247.5q0 129 45.5 256t118.5 221t169.5 152.5t192.5 58.5q64 0 104 -14t70 -47l35 147h-260l31 144h260q-5 64 -121 82l-14 2l508 118l-45 -202h102l-31 -144h-102l-182 -835q-9 -41 -9 -68
q0 -25 9 -42t27.5 -26.5t35 -13.5t43.5 -8l14 -2zM459 197q71 0 145 116q22 34 49 158t27 180q0 65 -21 95t-71 30q-49 0 -98 -74t-78 -176t-29 -188q0 -141 76 -141z" />
    <glyph glyph-name="Emacron" unicode="&#x112;" horiz-adv-x="1171" 
d="M119 170l223 1032q6 27 6 53q0 50 -23 77t-55 32h969l-80 -397q-11 170 -227 170h-246l-70 -328h199q43 0 78.5 6.5t55 15t34 20.5t19.5 19t8 13l-78 -375q-2 31 -29.5 50.5t-60.5 25.5t-72 6h-199l-73 -363h258q92 0 147 14.5t95.5 49.5t84.5 106l-84 -397h-1030
q14 2 29.5 8.5t41 23.5t47 52.5t32.5 85.5zM444 1534l31 143h690l-30 -143h-691z" />
    <glyph glyph-name="emacron" unicode="&#x113;" horiz-adv-x="958" 
d="M877 303q-49 -157 -180 -246.5t-281 -89.5q-173 0 -273 102.5t-100 274.5q0 122 48 239t131 207.5t204.5 145.5t257.5 55q53 0 101.5 -13.5t90.5 -41t67.5 -76t25.5 -112.5q0 -50 -18.5 -100t-64 -102t-113 -93t-173.5 -69.5t-238 -35.5q2 -17 15 -47q47 -115 182 -115
q76 0 162.5 32.5t155.5 84.5zM360 516q43 2 95 14t105.5 34.5t89.5 62.5t36 90q0 38 -21 60t-57 22q-68 0 -146.5 -80.5t-101.5 -202.5zM279 1157l30 143h690l-30 -143h-690z" />
    <glyph glyph-name="Ebreve" unicode="&#x114;" horiz-adv-x="1171" 
d="M119 170l223 1032q6 27 6 53q0 50 -23 77t-55 32h969l-80 -397q-11 170 -227 170h-246l-70 -328h199q43 0 78.5 6.5t55 15t34 20.5t19.5 19t8 13l-78 -375q-2 31 -29.5 50.5t-60.5 25.5t-72 6h-199l-73 -363h258q92 0 147 14.5t95.5 49.5t84.5 106l-84 -397h-1030
q14 2 29.5 8.5t41 23.5t47 52.5t32.5 85.5zM596 1823q27 -75 90 -114.5t143 -39.5t159.5 39.5t144.5 114.5q-36 -167 -136.5 -260t-210.5 -93q-88 0 -145 62.5t-57 177.5q0 52 12 113z" />
    <glyph glyph-name="ebreve" unicode="&#x115;" horiz-adv-x="958" 
d="M877 303q-49 -157 -180 -246.5t-281 -89.5q-173 0 -273 102.5t-100 274.5q0 122 48 239t131 207.5t204.5 145.5t257.5 55q53 0 101.5 -13.5t90.5 -41t67.5 -76t25.5 -112.5q0 -50 -18.5 -100t-64 -102t-113 -93t-173.5 -69.5t-238 -35.5q2 -17 15 -47q47 -115 182 -115
q76 0 162.5 32.5t155.5 84.5zM360 516q43 2 95 14t105.5 34.5t89.5 62.5t36 90q0 38 -21 60t-57 22q-68 0 -146.5 -80.5t-101.5 -202.5zM438 1436q27 -75 90.5 -114.5t143.5 -39.5t159 39.5t144 114.5q-36 -167 -136 -260t-210 -93q-88 0 -145.5 62.5t-57.5 177.5
q0 51 12 113z" />
    <glyph glyph-name="Edotaccent" unicode="&#x116;" horiz-adv-x="1171" 
d="M119 170l223 1032q6 27 6 53q0 50 -23 77t-55 32h969l-80 -397q-11 170 -227 170h-246l-70 -328h199q43 0 78.5 6.5t55 15t34 20.5t19.5 19t8 13l-78 -375q-2 31 -29.5 50.5t-60.5 25.5t-72 6h-199l-73 -363h258q92 0 147 14.5t95.5 49.5t84.5 106l-84 -397h-1030
q14 2 29.5 8.5t41 23.5t47 52.5t32.5 85.5zM788 1427q-72 0 -115.5 45t-43.5 117q0 83 57.5 140t140.5 57q73 0 115.5 -45.5t42.5 -118.5q0 -83 -57 -139t-140 -56z" />
    <glyph glyph-name="edotaccent" unicode="&#x117;" horiz-adv-x="958" 
d="M877 303q-49 -157 -180 -246.5t-281 -89.5q-173 0 -273 102.5t-100 274.5q0 122 48 239t131 207.5t204.5 145.5t257.5 55q53 0 101.5 -13.5t90.5 -41t67.5 -76t25.5 -112.5q0 -50 -18.5 -100t-64 -102t-113 -93t-173.5 -69.5t-238 -35.5q2 -17 15 -47q47 -115 182 -115
q76 0 162.5 32.5t155.5 84.5zM360 516q43 2 95 14t105.5 34.5t89.5 62.5t36 90q0 38 -21 60t-57 22q-68 0 -146.5 -80.5t-101.5 -202.5zM639 1059q-72 0 -116 45t-44 117q0 83 57.5 139.5t141.5 56.5q73 0 115.5 -45.5t42.5 -118.5q0 -83 -56.5 -138.5t-140.5 -55.5z" />
    <glyph glyph-name="Eogonek" unicode="&#x118;" horiz-adv-x="1171" 
d="M119 170l223 1032q6 27 6 53q0 48 -22 75t-54 34h967l-80 -397q-11 170 -227 170h-246l-70 -328h199q43 0 78.5 6.5t55 15t34 20.5t19.5 19t8 13l-78 -375q-2 31 -29.5 50.5t-60.5 25.5t-72 6h-199l-73 -363h258q142 0 214.5 45t121.5 152l-93 -424q-87 -3 -162 -51.5
t-75 -108.5q0 -37 25 -58.5t69 -21.5q57 0 127 37q-39 -83 -113.5 -129.5t-146.5 -46.5q-70 0 -116 38t-46 103q0 71 46 133t118 105h-754q15 2 31.5 9t40.5 24t44.5 52.5t31.5 84.5z" />
    <glyph glyph-name="eogonek" unicode="&#x119;" horiz-adv-x="958" 
d="M680 -203q-39 -83 -113.5 -129.5t-146.5 -46.5q-70 0 -117 39.5t-47 106.5q0 102 119 202q-156 12 -244 112.5t-88 262.5q0 122 48 239t131 207.5t204.5 145.5t257.5 55q53 0 101.5 -13.5t90.5 -41t67.5 -76t25.5 -112.5q0 -50 -18.5 -100t-64 -102t-113 -93
t-173.5 -69.5t-238 -35.5q12 -71 66.5 -116.5t130.5 -45.5t162.5 32.5t155.5 84.5q-31 -106 -94.5 -173t-159.5 -116q-78 -41 -121 -81t-43 -93q0 -37 25 -58.5t69 -21.5q57 0 127 37zM360 516q43 2 95 14t105.5 34.5t89.5 62.5t36 90q0 38 -21 60t-57 22
q-68 0 -146.5 -80.5t-101.5 -202.5z" />
    <glyph glyph-name="Ecaron" unicode="&#x11a;" horiz-adv-x="1171" 
d="M119 170l223 1032q6 27 6 53q0 50 -23 77t-55 32h969l-80 -397q-11 170 -227 170h-246l-70 -328h199q43 0 78.5 6.5t55 15t34 20.5t19.5 19t8 13l-78 -375q-2 31 -29.5 50.5t-60.5 25.5t-72 6h-199l-73 -363h258q92 0 147 14.5t95.5 49.5t84.5 106l-84 -397h-1030
q14 2 29.5 8.5t41 23.5t47 52.5t32.5 85.5zM791 1425l-265 420l324 -141l375 141z" />
    <glyph glyph-name="ecaron" unicode="&#x11b;" horiz-adv-x="958" 
d="M877 303q-49 -157 -180 -246.5t-281 -89.5q-173 0 -273 102.5t-100 274.5q0 122 48 239t131 207.5t204.5 145.5t257.5 55q53 0 101.5 -13.5t90.5 -41t67.5 -76t25.5 -112.5q0 -50 -18.5 -100t-64 -102t-113 -93t-173.5 -69.5t-238 -35.5q2 -17 15 -47q47 -115 182 -115
q76 0 162.5 32.5t155.5 84.5zM360 516q43 2 95 14t105.5 34.5t89.5 62.5t36 90q0 38 -21 60t-57 22q-68 0 -146.5 -80.5t-101.5 -202.5zM616 1028l-223 412l281 -142l336 142z" />
    <glyph glyph-name="Gcircumflex" unicode="&#x11c;" horiz-adv-x="1282" 
d="M756 195l49 268q4 28 4 43q0 51 -24 79t-56 33h563q-100 -22 -125 -143l-84 -407q-68 -45 -194 -74t-248 -29q-267 0 -413 142t-146 395q0 168 71.5 329.5t192.5 286t295.5 201t366.5 76.5q89 0 175.5 -20.5t135.5 -57.5l-84 -389q-33 130 -106.5 179.5t-182.5 49.5
q-99 0 -189 -59.5t-151.5 -153t-98 -208.5t-36.5 -226q0 -144 63.5 -233t178.5 -89q8 0 43 7zM621 1423l434 420l264 -420l-324 142z" />
    <glyph glyph-name="gcircumflex" unicode="&#x11d;" horiz-adv-x="1118" 
d="M1141 776h-187q15 -12 28 -56t13 -81q0 -68 -30.5 -126.5t-81 -99t-116.5 -69t-136.5 -42t-141.5 -13.5q-33 0 -47 2q-77 -30 -77 -49q0 -10 13 -18t42.5 -15t59 -12t81.5 -14t92 -17q71 -15 124.5 -34t97.5 -48t67 -71t23 -95q0 -75 -49.5 -135.5t-131 -97t-180 -55.5
t-203.5 -19q-227 0 -354 62.5t-127 166.5q0 47 73.5 101.5t199.5 78.5q-69 27 -112.5 68t-43.5 84q0 97 219 176q-65 40 -103 102t-38 138q0 80 29 147.5t79 114t117 79t142.5 47.5t156.5 15q83 0 197 -24q73 -17 157 -17q123 0 191 43zM543 469q63 0 106 58t43 141
q0 64 -31 103.5t-86 39.5q-62 0 -102.5 -56t-40.5 -141q0 -65 29 -105t82 -40zM365 -29q-69 -18 -107.5 -44t-38.5 -56q0 -35 53.5 -59.5t169.5 -24.5q70 0 125.5 20.5t55.5 51.5q0 18 -7 32t-26 25t-36 18t-53 14.5t-61 11.5t-75 11zM328 1026l393 414l223 -414l-280 141z
" />
    <glyph glyph-name="Gbreve" unicode="&#x11e;" horiz-adv-x="1282" 
d="M756 195l49 268q4 28 4 43q0 51 -24 79t-56 33h563q-100 -22 -125 -143l-84 -407q-68 -45 -194 -74t-248 -29q-267 0 -413 142t-146 395q0 168 71.5 329.5t192.5 286t295.5 201t366.5 76.5q89 0 175.5 -20.5t135.5 -57.5l-84 -389q-33 130 -106.5 179.5t-182.5 49.5
q-99 0 -189 -59.5t-151.5 -153t-98 -208.5t-36.5 -226q0 -144 63.5 -233t178.5 -89q8 0 43 7zM776 1823q27 -75 90.5 -114.5t143.5 -39.5t159 39.5t144 114.5q-36 -167 -136 -260t-210 -93q-88 0 -145.5 62.5t-57.5 177.5q0 52 12 113z" />
    <glyph glyph-name="gbreve" unicode="&#x11f;" horiz-adv-x="1118" 
d="M1141 776h-187q15 -12 28 -56t13 -81q0 -68 -30.5 -126.5t-81 -99t-116.5 -69t-136.5 -42t-141.5 -13.5q-33 0 -47 2q-77 -30 -77 -49q0 -10 13 -18t42.5 -15t59 -12t81.5 -14t92 -17q71 -15 124.5 -34t97.5 -48t67 -71t23 -95q0 -75 -49.5 -135.5t-131 -97t-180 -55.5
t-203.5 -19q-227 0 -354 62.5t-127 166.5q0 47 73.5 101.5t199.5 78.5q-69 27 -112.5 68t-43.5 84q0 97 219 176q-65 40 -103 102t-38 138q0 80 29 147.5t79 114t117 79t142.5 47.5t156.5 15q83 0 197 -24q73 -17 157 -17q123 0 191 43zM543 469q63 0 106 58t43 141
q0 64 -31 103.5t-86 39.5q-62 0 -102.5 -56t-40.5 -141q0 -65 29 -105t82 -40zM365 -29q-69 -18 -107.5 -44t-38.5 -56q0 -35 53.5 -59.5t169.5 -24.5q70 0 125.5 20.5t55.5 51.5q0 18 -7 32t-26 25t-36 18t-53 14.5t-61 11.5t-75 11zM444 1436q27 -75 90.5 -114.5
t143.5 -39.5t159 39.5t144 114.5q-36 -167 -136 -260t-210 -93q-88 0 -145.5 62.5t-57.5 177.5q0 51 12 113z" />
    <glyph glyph-name="Gdotaccent" unicode="&#x120;" horiz-adv-x="1282" 
d="M756 195l49 268q4 28 4 43q0 51 -24 79t-56 33h563q-100 -22 -125 -143l-84 -407q-68 -45 -194 -74t-248 -29q-267 0 -413 142t-146 395q0 168 71.5 329.5t192.5 286t295.5 201t366.5 76.5q89 0 175.5 -20.5t135.5 -57.5l-84 -389q-33 130 -106.5 179.5t-182.5 49.5
q-99 0 -189 -59.5t-151.5 -153t-98 -208.5t-36.5 -226q0 -144 63.5 -233t178.5 -89q8 0 43 7zM989 1427q-72 0 -116 45t-44 117q0 83 58 140t141 57q73 0 115.5 -45.5t42.5 -118.5q0 -83 -57 -139t-140 -56z" />
    <glyph glyph-name="gdotaccent" unicode="&#x121;" horiz-adv-x="1118" 
d="M1141 776h-187q15 -12 28 -56t13 -81q0 -68 -30.5 -126.5t-81 -99t-116.5 -69t-136.5 -42t-141.5 -13.5q-33 0 -47 2q-77 -30 -77 -49q0 -10 13 -18t42.5 -15t59 -12t81.5 -14t92 -17q71 -15 124.5 -34t97.5 -48t67 -71t23 -95q0 -75 -49.5 -135.5t-131 -97t-180 -55.5
t-203.5 -19q-227 0 -354 62.5t-127 166.5q0 47 73.5 101.5t199.5 78.5q-69 27 -112.5 68t-43.5 84q0 97 219 176q-65 40 -103 102t-38 138q0 80 29 147.5t79 114t117 79t142.5 47.5t156.5 15q83 0 197 -24q73 -17 157 -17q123 0 191 43zM543 469q63 0 106 58t43 141
q0 64 -31 103.5t-86 39.5q-62 0 -102.5 -56t-40.5 -141q0 -65 29 -105t82 -40zM365 -29q-69 -18 -107.5 -44t-38.5 -56q0 -35 53.5 -59.5t169.5 -24.5q70 0 125.5 20.5t55.5 51.5q0 18 -7 32t-26 25t-36 18t-53 14.5t-61 11.5t-75 11zM633 1059q-72 0 -116 45t-44 117
q0 83 57.5 139.5t141.5 56.5q72 0 114.5 -45.5t42.5 -118.5q0 -83 -56.5 -138.5t-139.5 -55.5z" />
    <glyph glyph-name="Gcommaaccent" unicode="&#x122;" horiz-adv-x="1282" 
d="M756 195l49 268q4 28 4 43q0 51 -24 79t-56 33h563q-100 -22 -125 -143l-84 -407q-68 -45 -194 -74t-248 -29q-267 0 -413 142t-146 395q0 168 71.5 329.5t192.5 286t295.5 201t366.5 76.5q89 0 175.5 -20.5t135.5 -57.5l-84 -389q-33 130 -106.5 179.5t-182.5 49.5
q-99 0 -189 -59.5t-151.5 -153t-98 -208.5t-36.5 -226q0 -144 63.5 -233t178.5 -89q8 0 43 7zM481 -373q38 7 72 44t43 79q-41 9 -61.5 32.5t-20.5 53.5q0 39 27.5 66.5t68.5 27.5q45 0 77 -31.5t32 -80.5q0 -79 -64.5 -136t-148.5 -57q-4 0 -12.5 1t-12.5 1z" />
    <glyph glyph-name="gcommaaccent" unicode="&#x123;" horiz-adv-x="1118" 
d="M649 1243q41 -9 61.5 -32.5t20.5 -53.5q0 -39 -27.5 -66.5t-68.5 -27.5q-45 0 -77 32t-32 81q0 78 64.5 135t148.5 57q4 0 12.5 -1t12.5 -1q-38 -7 -72 -44t-43 -79zM1141 776h-187q15 -12 28 -56t13 -81q0 -68 -30.5 -126.5t-81 -99t-116.5 -69t-136.5 -42t-141.5 -13.5
q-33 0 -47 2q-77 -30 -77 -49q0 -10 13 -18t42.5 -15t59 -12t81.5 -14t92 -17q71 -15 124.5 -34t97.5 -48t67 -71t23 -95q0 -75 -49.5 -135.5t-131 -97t-180 -55.5t-203.5 -19q-227 0 -354 62.5t-127 166.5q0 47 73.5 101.5t199.5 78.5q-69 27 -112.5 68t-43.5 84
q0 97 219 176q-65 40 -103 102t-38 138q0 80 29 147.5t79 114t117 79t142.5 47.5t156.5 15q83 0 197 -24q73 -17 157 -17q123 0 191 43zM543 469q63 0 106 58t43 141q0 64 -31 103.5t-86 39.5q-62 0 -102.5 -56t-40.5 -141q0 -65 29 -105t82 -40zM365 -29
q-69 -18 -107.5 -44t-38.5 -56q0 -35 53.5 -59.5t169.5 -24.5q70 0 125.5 20.5t55.5 51.5q0 18 -7 32t-26 25t-36 18t-53 14.5t-61 11.5t-75 11z" />
    <glyph glyph-name="Hcircumflex" unicode="&#x124;" horiz-adv-x="1497" 
d="M94 147l225 1055q7 40 7 60q0 84 -70 102h563q-12 -2 -26.5 -9t-37.5 -22.5t-42.5 -47.5t-28.5 -75l-88 -401h451l86 393q6 34 6 60q0 84 -72 102h563q-12 -2 -26.5 -9t-36.5 -22.5t-41.5 -47.5t-28.5 -75l-225 -1054q-8 -40 -8 -54q0 -28 8.5 -49t21 -31.5t22.5 -15.5
t19 -6h-559q11 1 26 7t36.5 20.5t40.5 45.5t28 74l92 443h-450l-90 -434q-6 -30 -6 -54q0 -29 8 -50t21 -31.5t23 -15t19 -5.5h-557q10 1 24 7t34.5 20.5t39.5 45.5t29 74zM596 1423l434 420l264 -420l-323 142z" />
    <glyph glyph-name="hcircumflex" unicode="&#x125;" horiz-adv-x="1101" 
d="M27 0l258 1194q4 20 4 29q0 64 -103 82l-12 2l488 118l-121 -538q58 48 140 77t163 29q91 0 149 -42.5t58 -141.5q0 -46 -15 -115l-98 -471q-6 -27 -6 -82t13.5 -94.5t41.5 -46.5h-422l140 639q6 24 6 45q0 44 -20.5 69t-55.5 25q-42 0 -89.5 -39t-58.5 -94
q-88 -426 -137 -645h-323zM365 1423l434 420l264 -420l-324 142z" />
    <glyph glyph-name="Hbar" unicode="&#x126;" horiz-adv-x="1497" 
d="M94 147l225 1055q7 40 7 60q0 84 -70 102h563q-12 -2 -26.5 -9t-37.5 -22.5t-42.5 -47.5t-28.5 -75l-12 -53h450l11 45q6 34 6 60q0 84 -72 102h563q-12 -2 -26.5 -9t-36.5 -22.5t-41.5 -47.5t-28.5 -75l-225 -1054q-8 -40 -8 -54q0 -28 8.5 -49t21 -31.5t22.5 -15.5
t19 -6h-559q11 1 26 7t36.5 20.5t40.5 45.5t28 74l92 443h-450l-90 -434q-6 -30 -6 -54q0 -29 8 -50t21 -31.5t23 -15t19 -5.5h-557q10 1 24 7t34.5 20.5t39.5 45.5t29 74zM596 809h451l34 164h-450z" />
    <glyph glyph-name="hbar" unicode="&#x127;" horiz-adv-x="1101" 
d="M27 0l233 1081h-92l31 144h90q-3 62 -103 80l-12 2l488 118l-46 -200h273l-31 -144h-274l-43 -194q58 48 140 77t163 29q91 0 149 -42.5t58 -141.5q0 -46 -15 -115l-98 -471q-6 -27 -6 -82t13.5 -94.5t41.5 -46.5h-422l140 639q6 24 6 45q0 44 -20.5 69t-55.5 25
q-42 0 -89.5 -39t-58.5 -94q-88 -426 -137 -645h-323z" />
    <glyph glyph-name="Itilde" unicode="&#x128;" horiz-adv-x="686" 
d="M96 147l223 1055q9 45 9 53q0 49 -21 76.5t-51 32.5h563q-12 -2 -26.5 -9t-37.5 -22.5t-42.5 -47.5t-28.5 -75l-225 -1054q-6 -27 -6 -52q0 -48 20 -75t47 -29h-551q11 1 25.5 7t35 20.5t39 45.5t27.5 74zM252 1432q-35 41 -35 104q0 86 62.5 150.5t160.5 64.5
q52 0 113.5 -26.5t114.5 -53t86 -26.5q53 0 81 34t44 105q32 -40 32 -101q0 -86 -69.5 -155.5t-165.5 -69.5q-50 0 -105 28t-105.5 55.5t-90.5 27.5q-46 0 -76 -31.5t-47 -105.5z" />
    <glyph glyph-name="itilde" unicode="&#x129;" horiz-adv-x="585" 
d="M27 0l168 764q2 6 2 18q0 36 -35 61.5t-74 30.5l-16 3l497 118l-166 -772q-12 -52 -12 -100q0 -55 16.5 -86.5t41.5 -36.5h-422zM100 1075q-34 39 -34 105q0 86 62.5 150.5t160.5 64.5q41 0 89 -16.5t83 -37t74.5 -37t66.5 -16.5q53 0 81 34t44 105q33 -42 33 -100
q0 -86 -70 -155.5t-166 -69.5q-40 0 -83.5 17t-75 38t-71 38t-71.5 17q-46 0 -76 -31.5t-47 -105.5z" />
    <glyph glyph-name="Imacron" unicode="&#x12a;" horiz-adv-x="686" 
d="M96 147l223 1055q9 45 9 53q0 49 -21 76.5t-51 32.5h563q-12 -2 -26.5 -9t-37.5 -22.5t-42.5 -47.5t-28.5 -75l-225 -1054q-6 -27 -6 -52q0 -48 20 -75t47 -29h-551q11 1 25.5 7t35 20.5t39 45.5t27.5 74zM213 1534l31 143h690l-31 -143h-690z" />
    <glyph glyph-name="imacron" unicode="&#x12b;" horiz-adv-x="585" 
d="M27 0l168 764q2 6 2 18q0 36 -35 61.5t-74 30.5l-16 3l497 118l-166 -772q-12 -52 -12 -100q0 -55 16.5 -86.5t41.5 -36.5h-422zM137 1157l31 143h567l-30 -143h-568z" />
    <glyph glyph-name="Ibreve" unicode="&#x12c;" horiz-adv-x="686" 
d="M96 147l223 1055q9 45 9 53q0 49 -21 76.5t-51 32.5h563q-12 -2 -26.5 -9t-37.5 -22.5t-42.5 -47.5t-28.5 -75l-225 -1054q-6 -27 -6 -52q0 -48 20 -75t47 -29h-551q11 1 25.5 7t35 20.5t39 45.5t27.5 74zM354 1823q27 -75 90.5 -114.5t143.5 -39.5t159 39.5t144 114.5
q-36 -167 -136 -260t-210 -93q-88 0 -145.5 62.5t-57.5 177.5q0 52 12 113z" />
    <glyph glyph-name="ibreve" unicode="&#x12d;" horiz-adv-x="585" 
d="M27 0l168 764q2 6 2 18q0 36 -35 61.5t-74 30.5l-16 3l497 118l-166 -772q-12 -52 -12 -100q0 -55 16.5 -86.5t41.5 -36.5h-422zM211 1436q27 -75 90 -114.5t143 -39.5t159.5 39.5t144.5 114.5q-36 -167 -136.5 -260t-210.5 -93q-88 0 -145 62.5t-57 177.5q0 51 12 113z
" />
    <glyph glyph-name="Iogonek" unicode="&#x12e;" horiz-adv-x="686" 
d="M213 0h-240q12 2 26.5 9t33.5 22t36.5 45t26.5 71l223 1055q9 45 9 53q0 47 -20.5 74.5t-49.5 34.5h559q-14 -3 -29 -10.5t-37 -23.5t-40 -47.5t-27 -72.5l-225 -1054q-6 -27 -6 -52q0 -47 19 -74t46 -30q-117 0 -192.5 -43.5t-75.5 -116.5q0 -37 25 -58.5t69 -21.5
q57 0 127 37q-39 -83 -113.5 -129.5t-146.5 -46.5q-70 0 -116 38t-46 103q0 71 46 133t118 105z" />
    <glyph glyph-name="iogonek" unicode="&#x12f;" horiz-adv-x="585" 
d="M27 0l168 764q2 6 2 18q0 36 -35 61.5t-74 30.5l-16 3l497 118l-166 -772q-12 -52 -12 -100q0 -57 17.5 -88.5t42.5 -34.5q-114 -12 -185 -58.5t-71 -101.5q0 -37 25 -58.5t69 -21.5q57 0 127 37q-39 -83 -113.5 -129.5t-146.5 -46.5q-70 0 -116 38t-46 103
q0 69 50.5 131t125.5 107h-143zM426 1059q-72 0 -116 45t-44 117q0 83 57.5 139.5t141.5 56.5q73 0 115.5 -45.5t42.5 -118.5q0 -83 -56.5 -138.5t-140.5 -55.5z" />
    <glyph glyph-name="Idotaccent" unicode="&#x130;" horiz-adv-x="686" 
d="M96 147l223 1055q9 45 9 53q0 49 -21 76.5t-51 32.5h563q-12 -2 -26.5 -9t-37.5 -22.5t-42.5 -47.5t-28.5 -75l-225 -1054q-6 -27 -6 -52q0 -48 20 -75t47 -29h-551q11 1 25.5 7t35 20.5t39 45.5t27.5 74zM547 1427q-72 0 -116 45t-44 117q0 83 58 140t141 57
q72 0 114.5 -45.5t42.5 -118.5q0 -83 -56.5 -139t-139.5 -56z" />
    <glyph glyph-name="dotlessi" unicode="&#x131;" horiz-adv-x="585" 
d="M27 0l168 764q2 6 2 18q0 36 -35 61.5t-74 30.5l-16 3l497 118l-166 -772q-12 -52 -12 -100q0 -55 16.5 -86.5t41.5 -36.5h-422z" />
    <glyph glyph-name="IJ" unicode="&#x132;" horiz-adv-x="1400" 
d="M96 147l223 1055q9 45 9 53q0 49 -21 76.5t-51 32.5h563q-12 -2 -26.5 -9t-37.5 -22.5t-42.5 -47.5t-28.5 -75l-225 -1054q-6 -27 -6 -52q0 -48 20 -75t47 -29h-551q11 1 25.5 7t35 20.5t39 45.5t27.5 74zM842 283l180 850q18 85 18 122q0 93 -71 109h567
q-25 -7 -42 -16.5t-37 -29.5t-36 -57.5t-28 -91.5l-199 -931q-44 -208 -140.5 -312t-262.5 -104q-95 0 -170 36.5t-107 98.5q30 -10 76 -10q86 0 151 83.5t101 252.5z" />
    <glyph glyph-name="ij" unicode="&#x133;" horiz-adv-x="1177" 
d="M27 0l168 764q2 6 2 18q0 36 -35 61.5t-74 30.5l-16 3l497 118l-166 -772q-12 -52 -12 -100q0 -55 16.5 -86.5t41.5 -36.5h-422zM426 1059q-72 0 -116 45t-44 117q0 83 57.5 139.5t141.5 56.5q73 0 115.5 -45.5t42.5 -118.5q0 -83 -56.5 -138.5t-140.5 -55.5zM1012 1059
q-72 0 -116 45t-44 117q0 83 57.5 139.5t141.5 56.5q72 0 114.5 -45.5t42.5 -118.5q0 -83 -56.5 -138.5t-139.5 -55.5zM616 0l162 764q2 6 2 16q0 36 -35.5 61.5t-76.5 32.5l-11 3l498 118l-211 -995q-38 -181 -144.5 -275t-242.5 -94q-107 0 -194.5 37t-118.5 86
q50 -12 90 -12q109 0 181 60t101 198z" />
    <glyph glyph-name="Jcircumflex" unicode="&#x134;" horiz-adv-x="714" 
d="M156 283l180 850q18 85 18 122q0 93 -71 109h567q-25 -7 -42 -16.5t-37 -29.5t-36 -57.5t-28 -91.5l-199 -931q-44 -208 -141 -312t-263 -104q-95 0 -169.5 36.5t-106.5 98.5q30 -10 76 -10q86 0 151 83.5t101 252.5zM223 1423l434 420l265 -420l-324 142z" />
    <glyph glyph-name="jcircumflex" unicode="&#x135;" horiz-adv-x="591" 
d="M31 0l162 764q2 6 2 16q0 36 -36 61.5t-77 32.5l-10 3l497 118l-211 -995q-38 -181 -144.5 -275t-242.5 -94q-107 0 -194.5 37t-118.5 86q50 -12 90 -12q109 0 181.5 60t101.5 198zM78 1026l393 414l223 -414l-280 141z" />
    <glyph glyph-name="Kcommaaccent" unicode="&#x136;" horiz-adv-x="1421" 
d="M94 147l225 1055q7 35 7 55q0 29 -9 51t-23 33t-25 16t-21 7h563q-12 -2 -25.5 -8.5t-34.5 -22t-39.5 -48t-27.5 -75.5l-100 -462l409 421q103 106 103 158q0 30 -33 37h500q-85 -34 -215 -162l-443 -436l244 -549q38 -87 99.5 -147t107.5 -70h-479l-310 678l-108 -522
q-6 -30 -6 -52q0 -29 9 -51t22 -32.5t23.5 -15t18.5 -5.5h-559q10 1 24 7t34.5 20.5t39.5 45.5t29 74zM518 -373q38 7 72 44t43 79q-41 9 -61.5 32.5t-20.5 53.5q0 39 27.5 66.5t68.5 27.5q45 0 77 -31.5t32 -80.5q0 -79 -64.5 -136t-148.5 -57q-4 0 -12.5 1t-12.5 1z" />
    <glyph glyph-name="kcommaaccent" unicode="&#x137;" horiz-adv-x="1167" 
d="M27 0l258 1198q2 6 2 19q0 36 -34.5 58.5t-76.5 29.5l-12 2l498 118l-195 -872l231 244q64 67 64 108q0 30 -37 45h543q-21 -3 -50.5 -13.5t-90.5 -49t-117 -96.5l-258 -269l163 -338q65 -133 199 -133q-52 -35 -125 -55.5t-147 -20.5q-167 0 -224 125l-167 377l-97 -477
h-327zM375 -373q38 7 71.5 44t42.5 79q-40 9 -60.5 32.5t-20.5 53.5q0 39 27.5 66.5t68.5 27.5q45 0 76.5 -31.5t31.5 -80.5q0 -79 -64.5 -136t-148.5 -57q-4 0 -12 1t-12 1z" />
    <glyph glyph-name="kgreenlandic" unicode="&#x138;" horiz-adv-x="1167" 
d="M27 0l166 770q2 6 2 18q0 36 -34.5 59t-76.5 30l-12 2l497 118l-102 -444l231 244q64 67 64 108q0 30 -37 45h543q-21 -3 -50.5 -13.5t-90.5 -49t-117 -96.5l-258 -269l163 -338q65 -133 199 -133q-52 -35 -125 -55.5t-147 -20.5q-167 0 -224 125l-167 377l-97 -477h-327
z" />
    <glyph glyph-name="Lacute" unicode="&#x139;" horiz-adv-x="1112" 
d="M86 147l225 1055q6 30 6 55q0 29 -8.5 51t-22.5 33t-25 16t-21 7h563q-11 -2 -25 -9t-35 -22.5t-39.5 -47.5t-27.5 -75l-211 -983h237q136 0 210 45t132 152l-92 -424h-985q10 1 23 7t32 20.5t36.5 45.5t27.5 74zM545 1423l149 338h398z" />
    <glyph glyph-name="lacute" unicode="&#x13a;" horiz-adv-x="585" 
d="M27 0l258 1194q4 16 4 25q0 36 -29 57.5t-74 28.5l-12 2l488 118l-261 -1202q-12 -55 -12 -102q0 -54 16 -85t41 -36h-419zM350 1423l150 338h397z" />
    <glyph glyph-name="Lcommaaccent" unicode="&#x13b;" horiz-adv-x="1112" 
d="M86 147l225 1055q6 30 6 55q0 29 -8.5 51t-22.5 33t-25 16t-21 7h563q-11 -2 -25 -9t-35 -22.5t-39.5 -47.5t-27.5 -75l-211 -983h237q136 0 210 45t132 152l-92 -424h-985q10 1 23 7t32 20.5t36.5 45.5t27.5 74zM346 -373q38 7 72 44t43 79q-41 9 -61.5 32.5t-20.5 53.5
q0 39 27.5 66.5t68.5 27.5q45 0 77 -31.5t32 -80.5q0 -79 -64.5 -136t-148.5 -57q-4 0 -12.5 1t-12.5 1z" />
    <glyph glyph-name="lcommaaccent" unicode="&#x13c;" horiz-adv-x="585" 
d="M27 0l258 1194q4 16 4 25q0 36 -29 57.5t-74 28.5l-12 2l488 118l-261 -1202q-12 -55 -12 -102q0 -54 16 -85t41 -36h-419zM53 -373q38 7 72 44t43 79q-41 9 -61.5 32.5t-20.5 53.5q0 39 27.5 66.5t68.5 27.5q45 0 77 -31.5t32 -80.5q0 -79 -64.5 -136t-148.5 -57
q-4 0 -12.5 1t-12.5 1z" />
    <glyph glyph-name="Lcaron" unicode="&#x13d;" horiz-adv-x="1112" 
d="M86 147l225 1055q6 30 6 55q0 29 -8.5 51t-22.5 33t-25 16t-21 7h563q-11 -2 -25 -9t-35 -22.5t-39.5 -47.5t-27.5 -75l-211 -983h237q136 0 210 45t132 152l-92 -424h-985q10 1 23 7t32 20.5t36.5 45.5t27.5 74zM791 985l135 412h303z" />
    <glyph glyph-name="lcaron" unicode="&#x13e;" horiz-adv-x="630" 
d="M27 0l258 1194q4 16 4 25q0 36 -29 57.5t-74 28.5l-12 2l488 118l-261 -1202q-12 -55 -12 -102q0 -54 16 -85t41 -36h-419zM688 985l135 412h303z" />
    <glyph glyph-name="Ldot" unicode="&#x13f;" horiz-adv-x="1267" 
d="M86 147l225 1055q6 30 6 55q0 29 -8.5 51t-22.5 33t-25 16t-21 7h563q-11 -2 -25 -9t-35 -22.5t-39.5 -47.5t-27.5 -75l-211 -983h237q136 0 210 45t132 152l-92 -424h-985q10 1 23 7t32 20.5t36.5 45.5t27.5 74zM993 520q-72 0 -115.5 45t-43.5 117q0 83 57.5 140
t140.5 57q73 0 115.5 -45.5t42.5 -118.5q0 -83 -57 -139t-140 -56z" />
    <glyph glyph-name="ldot" unicode="&#x140;" horiz-adv-x="991" 
d="M27 0l258 1194q4 16 4 25q0 36 -29 57.5t-74 28.5l-12 2l488 118l-261 -1202q-12 -55 -12 -102q0 -54 16 -85t41 -36h-419zM788 438q-72 0 -115.5 45t-43.5 117q0 83 57.5 140t140.5 57q73 0 115.5 -45.5t42.5 -118.5q0 -83 -57 -139t-140 -56z" />
    <glyph glyph-name="Lslash" unicode="&#x141;" horiz-adv-x="1103" 
d="M86 147l57 267l-145 -92l43 208l147 95l123 577q6 30 6 55q0 29 -8.5 51t-22.5 33t-25 16t-21 7h563q-11 -2 -25 -9t-35 -22.5t-39.5 -47.5t-27.5 -75l-72 -325l191 121l-43 -209l-191 -121l-96 -449h237q142 0 220 44.5t122 152.5l-92 -424h-985q10 1 23 7t32 20.5
t36.5 45.5t27.5 74z" />
    <glyph glyph-name="lslash" unicode="&#x142;" horiz-adv-x="593" 
d="M31 0l100 463l-137 -88l45 209l137 90l113 520q4 16 4 25q0 36 -29 57.5t-74 28.5l-12 2l488 118l-111 -507l133 86l-45 -209l-133 -88l-104 -484q-13 -60 -13 -102q0 -54 16.5 -85t41.5 -36h-420z" />
    <glyph glyph-name="Nacute" unicode="&#x143;" horiz-adv-x="1417" 
d="M102 139l215 1000q7 35 7 37q0 37 -42.5 105.5t-86.5 82.5h444l395 -752l123 596q6 24 6 47q0 30 -10 52.5t-26 33.5t-26.5 16t-21.5 7h473q-11 -2 -23 -8.5t-31.5 -21.5t-36 -45.5t-25.5 -71.5l-262 -1217h-269l-9 38q-9 38 -19.5 76t-31.5 93.5t-44 99.5l-277 522
l-143 -684q-4 -16 -4 -41q0 -29 10 -50.5t25.5 -32t27.5 -15.5t21 -6h-492q13 1 28.5 7t37 19.5t40 43t27.5 69.5zM836 1423l149 338h397z" />
    <glyph glyph-name="nacute" unicode="&#x144;" horiz-adv-x="1101" 
d="M31 0l166 758q2 8 2 24q0 39 -31.5 63t-75.5 29l-16 3l461 118l-19 -118q149 116 316 116q219 0 219 -186q0 -50 -13 -113l-98 -471q-6 -24 -6 -80q0 -128 55 -143h-422l140 639q6 24 6 47q0 42 -20 67t-56 25q-39 0 -86 -39.5t-64 -117.5l-135 -621h-323zM541 1026
l149 338h397z" />
    <glyph glyph-name="Ncommaaccent" unicode="&#x145;" horiz-adv-x="1417" 
d="M102 139l215 1000q7 35 7 37q0 37 -42.5 105.5t-86.5 82.5h444l395 -752l123 596q6 24 6 47q0 30 -10 52.5t-26 33.5t-26.5 16t-21.5 7h473q-11 -2 -23 -8.5t-31.5 -21.5t-36 -45.5t-25.5 -71.5l-262 -1217h-269l-9 38q-9 38 -19.5 76t-31.5 93.5t-44 99.5l-277 522
l-143 -684q-4 -16 -4 -41q0 -29 10 -50.5t25.5 -32t27.5 -15.5t21 -6h-492q13 1 28.5 7t37 19.5t40 43t27.5 69.5zM477 -373q38 7 72 44t43 79q-41 9 -61.5 32.5t-20.5 53.5q0 39 27.5 66.5t68.5 27.5q45 0 77 -31.5t32 -80.5q0 -79 -64.5 -136t-148.5 -57q-4 0 -12.5 1
t-12.5 1z" />
    <glyph glyph-name="ncommaaccent" unicode="&#x146;" horiz-adv-x="1101" 
d="M31 0l166 758q2 8 2 24q0 39 -31.5 63t-75.5 29l-16 3l461 118l-19 -118q149 116 316 116q219 0 219 -186q0 -50 -13 -113l-98 -471q-6 -24 -6 -80q0 -128 55 -143h-422l140 639q6 24 6 47q0 42 -20 67t-56 25q-39 0 -86 -39.5t-64 -117.5l-135 -621h-323zM317 -373
q38 7 72 44t43 79q-41 9 -61.5 32.5t-20.5 53.5q0 39 27.5 66.5t68.5 27.5q45 0 77 -31.5t32 -80.5q0 -79 -64.5 -136t-148.5 -57q-4 0 -12.5 1t-12.5 1z" />
    <glyph glyph-name="Ncaron" unicode="&#x147;" horiz-adv-x="1417" 
d="M102 139l215 1000q7 35 7 37q0 37 -42.5 105.5t-86.5 82.5h444l395 -752l123 596q6 24 6 47q0 30 -10 52.5t-26 33.5t-26.5 16t-21.5 7h473q-11 -2 -23 -8.5t-31.5 -21.5t-36 -45.5t-25.5 -71.5l-262 -1217h-269l-9 38q-9 38 -19.5 76t-31.5 93.5t-44 99.5l-277 522
l-143 -684q-4 -16 -4 -41q0 -29 10 -50.5t25.5 -32t27.5 -15.5t21 -6h-492q13 1 28.5 7t37 19.5t40 43t27.5 69.5zM909 1425l-264 420l324 -141l374 141z" />
    <glyph glyph-name="ncaron" unicode="&#x148;" horiz-adv-x="1101" 
d="M31 0l166 758q2 8 2 24q0 39 -31.5 63t-75.5 29l-16 3l461 118l-19 -118q149 116 316 116q219 0 219 -186q0 -50 -13 -113l-98 -471q-6 -24 -6 -80q0 -128 55 -143h-422l140 639q6 24 6 47q0 42 -20 67t-56 25q-39 0 -86 -39.5t-64 -117.5l-135 -621h-323zM666 1028
l-224 412l281 -142l336 142z" />
    <glyph glyph-name="napostrophe" unicode="&#x149;" horiz-adv-x="1101" 
d="M31 0l166 758q2 8 2 24q0 39 -31.5 63t-75.5 29l-16 3l461 118l-19 -118q149 116 316 116q219 0 219 -186q0 -50 -13 -113l-98 -471q-6 -24 -6 -80q0 -128 55 -143h-422l140 639q6 24 6 47q0 42 -20 67t-56 25q-39 0 -86 -39.5t-64 -117.5l-135 -621h-323zM100 1092
q38 7 72 43.5t43 78.5q-41 9 -61.5 32.5t-20.5 53.5q0 39 27.5 67t68.5 28q45 0 77 -32t32 -81q0 -78 -64.5 -135t-148.5 -57q-4 0 -12.5 1t-12.5 1z" />
    <glyph glyph-name="Eng" unicode="&#x14a;" horiz-adv-x="1417" 
d="M102 139l215 1000q7 35 7 37q0 37 -42.5 105.5t-86.5 82.5h444l395 -752l123 596q6 24 6 47q0 84 -84 109h471q-12 -4 -24 -10.5t-31 -21.5t-35 -45t-24 -70l-236 -1098q-18 -84 -59.5 -157t-109.5 -135t-172 -98t-232 -36q245 139 245 358q0 120 -71 256l-277 522
l-143 -684q-4 -16 -4 -41q0 -51 27 -75t53 -29h-484q20 3 41.5 13t49 43t38.5 83z" />
    <glyph glyph-name="eng" unicode="&#x14b;" horiz-adv-x="1103" 
d="M31 0l166 758q2 8 2 24q0 39 -31.5 63t-75.5 29l-16 3l461 118l-19 -118q149 116 316 116q219 0 219 -186q0 -46 -13 -119l-141 -688q-37 -181 -143.5 -275t-243.5 -94q-107 0 -194.5 37t-118.5 86q49 -12 90 -12q109 0 180 60t100 198l140 639q6 24 6 47q0 42 -20 67
t-56 25q-39 0 -86 -39.5t-64 -117.5l-135 -621h-323z" />
    <glyph glyph-name="Omacron" unicode="&#x14c;" horiz-adv-x="1415" 
d="M608 -31q-246 0 -386 150.5t-140 400.5q0 169 62.5 329t169 280.5t258 194t319.5 73.5t289.5 -72t181 -193.5t59.5 -279.5q0 -163 -61.5 -322.5t-167.5 -283.5t-259.5 -200.5t-324.5 -76.5zM651 209q82 0 155 63t121.5 161t76.5 215.5t28 228.5q0 129 -45 204.5
t-137 75.5q-105 0 -193.5 -108t-135 -261t-46.5 -303q0 -127 43.5 -201.5t132.5 -74.5zM567 1534l31 143h690l-31 -143h-690z" />
    <glyph glyph-name="omacron" unicode="&#x14d;" horiz-adv-x="1071" 
d="M442 -25q-101 0 -180 34t-125.5 92.5t-70 129.5t-23.5 150q0 115 42.5 224t116.5 194t185 136.5t238 51.5q102 0 181.5 -33t126.5 -90t71 -127.5t24 -150.5q0 -82 -24 -166.5t-73 -164.5t-117.5 -142t-165 -100t-206.5 -38zM467 186q51 0 96 46.5t72.5 114.5t43 138
t15.5 123q0 66 -23 116t-73 50t-95 -47t-73 -115.5t-44.5 -139.5t-16.5 -124q0 -66 23 -114t75 -48zM334 1157l31 143h690l-31 -143h-690z" />
    <glyph glyph-name="Obreve" unicode="&#x14e;" horiz-adv-x="1415" 
d="M608 -31q-246 0 -386 150.5t-140 400.5q0 169 62.5 329t169 280.5t258 194t319.5 73.5t289.5 -72t181 -193.5t59.5 -279.5q0 -163 -61.5 -322.5t-167.5 -283.5t-259.5 -200.5t-324.5 -76.5zM651 209q82 0 155 63t121.5 161t76.5 215.5t28 228.5q0 129 -45 204.5
t-137 75.5q-105 0 -193.5 -108t-135 -261t-46.5 -303q0 -127 43.5 -201.5t132.5 -74.5zM717 1823q27 -75 90 -114.5t143 -39.5t159 39.5t144 114.5q-36 -167 -136 -260t-210 -93q-88 0 -145 62.5t-57 177.5q0 52 12 113z" />
    <glyph glyph-name="obreve" unicode="&#x14f;" horiz-adv-x="1071" 
d="M442 -25q-101 0 -180 34t-125.5 92.5t-70 129.5t-23.5 150q0 115 42.5 224t116.5 194t185 136.5t238 51.5q102 0 181.5 -33t126.5 -90t71 -127.5t24 -150.5q0 -82 -24 -166.5t-73 -164.5t-117.5 -142t-165 -100t-206.5 -38zM467 186q51 0 96 46.5t72.5 114.5t43 138
t15.5 123q0 66 -23 116t-73 50t-95 -47t-73 -115.5t-44.5 -139.5t-16.5 -124q0 -66 23 -114t75 -48zM459 1436q27 -75 90 -114.5t143 -39.5t159 39.5t144 114.5q-36 -167 -136 -260t-210 -93q-88 0 -145.5 62.5t-57.5 177.5q0 46 13 113z" />
    <glyph glyph-name="Ohungarumlaut" unicode="&#x150;" horiz-adv-x="1415" 
d="M608 -31q-246 0 -386 150.5t-140 400.5q0 169 62.5 329t169 280.5t258 194t319.5 73.5t289.5 -72t181 -193.5t59.5 -279.5q0 -163 -61.5 -322.5t-167.5 -283.5t-259.5 -200.5t-324.5 -76.5zM651 209q82 0 155 63t121.5 161t76.5 215.5t28 228.5q0 129 -45 204.5
t-137 75.5q-105 0 -193.5 -108t-135 -261t-46.5 -303q0 -127 43.5 -201.5t132.5 -74.5zM1059 1423l176 338h356zM633 1423l174 338h356z" />
    <glyph glyph-name="ohungarumlaut" unicode="&#x151;" horiz-adv-x="1071" 
d="M442 -25q-101 0 -180 34t-125.5 92.5t-70 129.5t-23.5 150q0 115 42.5 224t116.5 194t185 136.5t238 51.5q102 0 181.5 -33t126.5 -90t71 -127.5t24 -150.5q0 -82 -24 -166.5t-73 -164.5t-117.5 -142t-165 -100t-206.5 -38zM467 186q51 0 96 46.5t72.5 114.5t43 138
t15.5 123q0 66 -23 116t-73 50t-95 -47t-73 -115.5t-44.5 -139.5t-16.5 -124q0 -66 23 -114t75 -48zM725 1026l176 338h356zM299 1026l174 338h356z" />
    <glyph glyph-name="OE" unicode="&#x152;" horiz-adv-x="1916" 
d="M1243 227h258q142 0 214.5 45t121.5 152l-92 -424h-938q-102 -31 -209 -31q-246 0 -386 150.5t-140 400.5q0 169 62.5 329t169 280.5t258 194t319.5 73.5q103 0 200 -33h904l-80 -397q-11 170 -228 170h-245l-70 -328h199q43 0 78.5 6.5t55 15t34 20.5t19 19t7.5 13
l-78 -375q-2 31 -29 50.5t-60 25.5t-72 6h-199zM639 197q81 0 156.5 67t126 169.5t80.5 224t30 231.5q0 129 -45 204.5t-137 75.5q-79 0 -153 -67.5t-124 -170.5t-80 -225.5t-30 -232.5q0 -127 43.5 -201.5t132.5 -74.5z" />
    <glyph glyph-name="oe" unicode="&#x153;" horiz-adv-x="1552" 
d="M756 72q-145 -97 -324 -97q-101 0 -180 34t-125.5 92.5t-70 129.5t-23.5 150q0 155 71 292.5t206 225.5t304 88q194 0 304 -123q169 127 378 127q53 0 101.5 -13.5t91.5 -41t68.5 -76t25.5 -112.5q0 -50 -18.5 -100t-64 -102t-112.5 -93t-173 -69.5t-238 -35.5
q3 -27 12 -47q47 -115 182 -115q76 0 162.5 32.5t155.5 84.5q-49 -157 -180 -246.5t-281 -89.5q-175 0 -272 105zM973 516q141 3 234 60.5t93 140.5q0 38 -21.5 60t-55.5 22q-68 0 -147.5 -80.5t-102.5 -202.5zM457 186q51 0 96 46.5t72.5 114.5t43 138t15.5 123
q0 66 -23 116t-73 50t-95 -47t-73.5 -115.5t-45 -139.5t-16.5 -124q0 -66 23.5 -114t75.5 -48z" />
    <glyph glyph-name="Racute" unicode="&#x154;" horiz-adv-x="1312" 
d="M94 147l225 1055q9 40 9 55q0 29 -9 51t-23 33t-25 16t-21 7h600q223 0 345 -99t122 -261q0 -99 -47.5 -192t-134 -158t-193.5 -81q32 -32 51 -90l111 -303q15 -43 35.5 -77t37.5 -52t35.5 -30.5t26.5 -16t14 -4.5h-473l-137 446q-36 123 -76 123h-18l-94 -413
q-9 -45 -9 -54q0 -29 9 -50t22.5 -31.5t24.5 -15t20 -5.5h-555q11 1 25.5 7t35 20.5t39 45.5t27.5 74zM586 743h112q117 0 186.5 72t69.5 172q0 74 -42.5 122t-104.5 48h-135zM707 1423l149 338h397z" />
    <glyph glyph-name="racute" unicode="&#x155;" horiz-adv-x="897" 
d="M31 0l168 758q2 6 2 20q0 42 -35 65.5t-84 30.5l-14 3l489 118l-27 -137q49 62 117.5 97.5t134.5 35.5q69 0 112.5 -42t43.5 -126q0 -95 -82 -166t-215 -75q13 12 22 39t9 55q0 76 -47 76q-54 0 -95.5 -65t-72.5 -210l-103 -477h-323zM397 1026l150 338h397z" />
    <glyph glyph-name="Rcommaaccent" unicode="&#x156;" horiz-adv-x="1312" 
d="M94 147l225 1055q9 40 9 55q0 29 -9 51t-23 33t-25 16t-21 7h600q223 0 345 -99t122 -261q0 -99 -47.5 -192t-134 -158t-193.5 -81q32 -32 51 -90l111 -303q15 -43 35.5 -77t37.5 -52t35.5 -30.5t26.5 -16t14 -4.5h-473l-137 446q-36 123 -76 123h-18l-94 -413
q-9 -45 -9 -54q0 -29 9 -50t22.5 -31.5t24.5 -15t20 -5.5h-555q11 1 25.5 7t35 20.5t39 45.5t27.5 74zM586 743h112q117 0 186.5 72t69.5 172q0 74 -42.5 122t-104.5 48h-135zM477 -373q38 7 72 44t43 79q-41 9 -61.5 32.5t-20.5 53.5q0 39 27.5 66.5t68.5 27.5
q45 0 77 -31.5t32 -80.5q0 -79 -64.5 -136t-148.5 -57q-4 0 -12.5 1t-12.5 1z" />
    <glyph glyph-name="rcommaaccent" unicode="&#x157;" horiz-adv-x="897" 
d="M31 0l168 758q2 6 2 20q0 42 -35 65.5t-84 30.5l-14 3l489 118l-27 -137q49 62 117.5 97.5t134.5 35.5q69 0 112.5 -42t43.5 -126q0 -95 -82 -166t-215 -75q13 12 22 39t9 55q0 76 -47 76q-54 0 -95.5 -65t-72.5 -210l-103 -477h-323zM145 -373q38 7 72 44t43 79
q-41 9 -61.5 32.5t-20.5 53.5q0 39 27.5 66.5t68.5 27.5q45 0 77 -31.5t32 -80.5q0 -79 -64.5 -136t-148.5 -57q-4 0 -12.5 1t-12.5 1z" />
    <glyph glyph-name="Rcaron" unicode="&#x158;" horiz-adv-x="1312" 
d="M94 147l225 1055q9 40 9 55q0 29 -9 51t-23 33t-25 16t-21 7h600q223 0 345 -99t122 -261q0 -99 -47.5 -192t-134 -158t-193.5 -81q32 -32 51 -90l111 -303q15 -43 35.5 -77t37.5 -52t35.5 -30.5t26.5 -16t14 -4.5h-473l-137 446q-36 123 -76 123h-18l-94 -413
q-9 -45 -9 -54q0 -29 9 -50t22.5 -31.5t24.5 -15t20 -5.5h-555q11 1 25.5 7t35 20.5t39 45.5t27.5 74zM586 743h112q117 0 186.5 72t69.5 172q0 74 -42.5 122t-104.5 48h-135zM795 1425l-265 420l324 -141l375 141z" />
    <glyph glyph-name="rcaron" unicode="&#x159;" horiz-adv-x="897" 
d="M31 0l168 758q2 6 2 20q0 42 -35 65.5t-84 30.5l-14 3l489 118l-27 -137q49 62 117.5 97.5t134.5 35.5q69 0 112.5 -42t43.5 -126q0 -95 -82 -166t-215 -75q13 12 22 39t9 55q0 76 -47 76q-54 0 -95.5 -65t-72.5 -210l-103 -477h-323zM557 1028l-223 412l280 -142
l336 142z" />
    <glyph glyph-name="Sacute" unicode="&#x15a;" horiz-adv-x="1087" 
d="M14 94l95 436q52 -153 158 -234t229 -81q70 0 113.5 37.5t43.5 97.5q0 39 -25.5 74.5t-65.5 66t-89 62.5t-98 71t-89 84t-65.5 109t-25.5 139q0 187 146.5 314t379.5 127q212 0 383 -105l-76 -364q-60 107 -149 168t-177 61q-67 0 -107 -32t-40 -93q0 -40 26.5 -77.5
t68.5 -70.5t93 -67.5t101.5 -75t92.5 -86t68.5 -108t26.5 -133.5q0 -193 -153.5 -320t-409.5 -127q-137 0 -265.5 40.5t-189.5 86.5zM553 1423l149 338h398z" />
    <glyph glyph-name="sacute" unicode="&#x15b;" horiz-adv-x="860" 
d="M-10 49l90 365q19 -101 82 -168.5t160 -67.5q42 0 82 17.5t40 54.5q0 22 -18 44t-47 42t-63.5 42.5t-69.5 50t-64 59t-47 76t-18 95.5q0 83 39 149t102.5 105t138.5 59.5t154 20.5q50 0 99 -9t97.5 -28.5t78.5 -58.5t30 -92q0 -106 -170 -182l4 24q0 64 -44.5 100.5
t-108.5 36.5q-44 0 -81.5 -17.5t-37.5 -55.5q0 -26 26.5 -53.5t66.5 -51.5t87 -58t87 -69t66.5 -87t26.5 -111q0 -66 -28.5 -120t-74 -89t-105 -59t-119 -34t-119.5 -10q-212 0 -342 80zM420 1026l149 338h398z" />
    <glyph glyph-name="Scircumflex" unicode="&#x15c;" horiz-adv-x="1087" 
d="M14 94l95 436q52 -153 158 -234t229 -81q70 0 113.5 37.5t43.5 97.5q0 39 -25.5 74.5t-65.5 66t-89 62.5t-98 71t-89 84t-65.5 109t-25.5 139q0 187 146.5 314t379.5 127q212 0 383 -105l-76 -364q-60 107 -149 168t-177 61q-67 0 -107 -32t-40 -93q0 -40 26.5 -77.5
t68.5 -70.5t93 -67.5t101.5 -75t92.5 -86t68.5 -108t26.5 -133.5q0 -193 -153.5 -320t-409.5 -127q-137 0 -265.5 40.5t-189.5 86.5zM371 1423l434 420l264 -420l-324 142z" />
    <glyph glyph-name="scircumflex" unicode="&#x15d;" horiz-adv-x="860" 
d="M-10 49l90 365q19 -101 82 -168.5t160 -67.5q42 0 82 17.5t40 54.5q0 22 -18 44t-47 42t-63.5 42.5t-69.5 50t-64 59t-47 76t-18 95.5q0 83 39 149t102.5 105t138.5 59.5t154 20.5q50 0 99 -9t97.5 -28.5t78.5 -58.5t30 -92q0 -106 -170 -182l4 24q0 64 -44.5 100.5
t-108.5 36.5q-44 0 -81.5 -17.5t-37.5 -55.5q0 -26 26.5 -53.5t66.5 -51.5t87 -58t87 -69t66.5 -87t26.5 -111q0 -66 -28.5 -120t-74 -89t-105 -59t-119 -34t-119.5 -10q-212 0 -342 80zM242 1026l393 414l223 -414l-280 141z" />
    <glyph glyph-name="Scedilla" unicode="&#x15e;" horiz-adv-x="1087" 
d="M14 94l95 436q52 -153 158 -234t229 -81q70 0 113.5 37.5t43.5 97.5q0 39 -25.5 74.5t-65.5 66t-89 62.5t-98 71t-89 84t-65.5 109t-25.5 139q0 187 146.5 314t379.5 127q212 0 383 -105l-76 -364q-60 107 -149 168t-177 61q-67 0 -107 -32t-40 -93q0 -40 26.5 -77.5
t68.5 -70.5t93 -67.5t101.5 -75t92.5 -86t68.5 -108t26.5 -133.5q0 -179 -134.5 -303.5t-362.5 -141.5l-39 -43q78 -10 112.5 -50t24.5 -93q-15 -65 -85 -113.5t-173 -48.5q-113 0 -187 53q27 -6 62 -6q74 0 122 27t56 63q8 37 -30 64t-119 28l102 123q-114 11 -215.5 47
t-151.5 74z" />
    <glyph glyph-name="scedilla" unicode="&#x15f;" horiz-adv-x="860" 
d="M164 -150l100 121q-165 10 -274 78l90 365q19 -101 82 -168.5t160 -67.5q42 0 82 17.5t40 54.5q0 22 -18 44t-47 42t-63.5 42.5t-69.5 50t-64 59t-47 76t-18 95.5q0 83 39 149t102.5 105t138.5 59.5t154 20.5q50 0 99 -9t97.5 -28.5t78.5 -58.5t30 -92q0 -106 -170 -182
l4 24q0 64 -44.5 100.5t-108.5 36.5q-44 0 -81.5 -17.5t-37.5 -55.5q0 -26 26.5 -53.5t66.5 -51.5t87 -58t87 -69t66.5 -87t26.5 -111q0 -70 -30.5 -126t-82.5 -91t-111.5 -56.5t-127.5 -30.5l-45 -51q78 -10 112.5 -50t24.5 -93q-15 -65 -85 -113.5t-173 -48.5
q-112 0 -186 53q27 -6 61 -6q74 0 122 27t56 63q8 37 -30 64t-119 28z" />
    <glyph glyph-name="Scaron" unicode="&#x160;" horiz-adv-x="1087" 
d="M14 94l95 436q52 -153 158 -234t229 -81q70 0 113.5 37.5t43.5 97.5q0 39 -25.5 74.5t-65.5 66t-89 62.5t-98 71t-89 84t-65.5 109t-25.5 139q0 187 146.5 314t379.5 127q212 0 383 -105l-76 -364q-60 107 -149 168t-177 61q-67 0 -107 -32t-40 -93q0 -40 26.5 -77.5
t68.5 -70.5t93 -67.5t101.5 -75t92.5 -86t68.5 -108t26.5 -133.5q0 -193 -153.5 -320t-409.5 -127q-137 0 -265.5 40.5t-189.5 86.5zM727 1425l-264 420l323 -141l375 141z" />
    <glyph glyph-name="scaron" unicode="&#x161;" horiz-adv-x="860" 
d="M-10 49l90 365q19 -101 82 -168.5t160 -67.5q42 0 82 17.5t40 54.5q0 22 -18 44t-47 42t-63.5 42.5t-69.5 50t-64 59t-47 76t-18 95.5q0 83 39 149t102.5 105t138.5 59.5t154 20.5q50 0 99 -9t97.5 -28.5t78.5 -58.5t30 -92q0 -106 -170 -182l4 24q0 64 -44.5 100.5
t-108.5 36.5q-44 0 -81.5 -17.5t-37.5 -55.5q0 -26 26.5 -53.5t66.5 -51.5t87 -58t87 -69t66.5 -87t26.5 -111q0 -66 -28.5 -120t-74 -89t-105 -59t-119 -34t-119.5 -10q-212 0 -342 80zM526 1028l-223 412l281 -142l336 142z" />
    <glyph glyph-name="uni0162" unicode="&#x162;" horiz-adv-x="1271" 
d="M387 147l211 996h-145q-125 0 -198 -37t-120 -143l94 401h1201l-89 -401q-6 100 -57 140t-186 40h-140l-210 -987q-7 -35 -7 -54q0 -28 8.5 -49t21 -31.5t23 -15.5t19.5 -6h-557q11 1 26 7t36.5 20.5t40.5 45.5t28 74zM350 -373q38 7 72 44t43 79q-41 9 -61.5 32.5
t-20.5 53.5q0 39 27.5 66.5t68.5 27.5q45 0 77 -31.5t32 -80.5q0 -79 -64.5 -136t-148.5 -57q-4 0 -12.5 1t-12.5 1z" />
    <glyph glyph-name="uni0163" unicode="&#x163;" horiz-adv-x="778" 
d="M92 268l113 488h-166l594 501l-64 -307h265l-39 -194h-267l-73 -330q-25 -119 -25 -160q0 -58 28 -80t91 -22q82 0 190 55q-29 -72 -75.5 -123t-102.5 -78t-111 -39t-116 -12q-119 0 -186.5 54.5t-67.5 158.5q0 38 12 88zM184 -373q38 7 72 44t43 79q-41 9 -61.5 32.5
t-20.5 53.5q0 39 27.5 66.5t68.5 27.5q45 0 77 -31.5t32 -80.5q0 -79 -64.5 -136t-148.5 -57q-4 0 -12.5 1t-12.5 1z" />
    <glyph glyph-name="Tcaron" unicode="&#x164;" horiz-adv-x="1271" 
d="M387 147l211 996h-145q-125 0 -198 -37t-120 -143l94 401h1201l-89 -401q-6 100 -57 140t-186 40h-140l-210 -987q-7 -35 -7 -54q0 -28 8.5 -49t21 -31.5t23 -15.5t19.5 -6h-557q11 1 26 7t36.5 20.5t40.5 45.5t28 74zM793 1440l-224 411l281 -141l336 141z" />
    <glyph glyph-name="tcaron" unicode="&#x165;" horiz-adv-x="778" 
d="M92 268l113 488h-166l594 501l-64 -307h265l-39 -194h-267l-73 -330q-25 -119 -25 -160q0 -58 28 -80t91 -22q82 0 190 55q-29 -72 -75.5 -123t-102.5 -78t-111 -39t-116 -12q-119 0 -186.5 54.5t-67.5 158.5q0 38 12 88zM668 985l135 412h303z" />
    <glyph glyph-name="Tbar" unicode="&#x166;" horiz-adv-x="1271" 
d="M387 147l82 385h-158l31 144h158l98 467h-145q-125 0 -198 -37t-120 -143l94 401h1201l-89 -401q-6 100 -57 140t-186 40h-140l-100 -467h174l-31 -144h-174l-79 -376q-7 -35 -7 -54q0 -35 13.5 -59t27.5 -32t27 -11h-551q13 2 28.5 9t35.5 22t38 45t27 71z" />
    <glyph glyph-name="tbar" unicode="&#x167;" horiz-adv-x="778" 
d="M92 268l33 144h-127l31 143h129l47 201h-166l594 501l-64 -307h265l-39 -194h-267l-45 -201h236l-31 -143h-237q-21 -111 -21 -146q0 -58 28 -80t91 -22q82 0 190 55q-29 -72 -75.5 -123t-102.5 -78t-111 -39t-116 -12q-119 0 -186.5 54.5t-67.5 158.5q0 38 12 88z" />
    <glyph glyph-name="Utilde" unicode="&#x168;" horiz-adv-x="1382" 
d="M154 530l155 705q4 14 4 39q0 75 -75 90h561q-13 -3 -26 -8t-35 -18t-40 -40t-26 -63l-164 -750q-33 -150 5.5 -211t158.5 -61q98 0 166 58t92 171l162 781q4 18 4 47q0 33 -15 55.5t-27.5 29t-25.5 9.5h481q-11 -2 -25 -8.5t-34.5 -20.5t-37 -41.5t-23.5 -64.5
l-154 -744q-31 -151 -85 -252t-136.5 -158.5t-182.5 -81.5t-239 -24q-276 0 -387.5 142.5t-50.5 418.5zM600 1432q-35 41 -35 104q0 86 62.5 150.5t160.5 64.5q52 0 113.5 -26.5t114.5 -53t86 -26.5q53 0 81 34t44 105q33 -42 33 -101q0 -86 -70 -155.5t-166 -69.5
q-50 0 -105 28t-105.5 55.5t-90.5 27.5q-46 0 -76 -31.5t-47 -105.5z" />
    <glyph glyph-name="utilde" unicode="&#x169;" horiz-adv-x="1138" 
d="M92 270l78 387q16 85 16 123q0 50 -20 68t-70 26l-12 3l485 118l-145 -669q-6 -30 -6 -56q0 -84 71 -84q44 0 88.5 44.5t61.5 113.5l74 313q20 84 20 131q0 24 -6.5 39.5t-21.5 24.5t-29 13t-39 9l-10 3l483 118l-172 -788q-6 -21 -6 -39q0 -33 24.5 -51.5t77.5 -26.5
l15 -2l-461 -119l24 119q-57 -54 -141 -85.5t-172 -31.5q-221 0 -221 187q0 44 14 112zM377 1075q-35 41 -35 105q0 86 62.5 150.5t160.5 64.5q41 0 89 -16.5t83.5 -37t75 -37t66.5 -16.5q53 0 81 34t44 105q32 -40 32 -100q0 -86 -69.5 -155.5t-165.5 -69.5q-40 0 -83.5 17
t-75 38t-71 38t-71.5 17q-46 0 -76 -31.5t-47 -105.5z" />
    <glyph glyph-name="Umacron" unicode="&#x16a;" horiz-adv-x="1382" 
d="M154 530l155 705q4 14 4 39q0 75 -75 90h561q-13 -3 -26 -8t-35 -18t-40 -40t-26 -63l-164 -750q-33 -150 5.5 -211t158.5 -61q98 0 166 58t92 171l162 781q4 18 4 47q0 33 -15 55.5t-27.5 29t-25.5 9.5h481q-11 -2 -25 -8.5t-34.5 -20.5t-37 -41.5t-23.5 -64.5
l-154 -744q-31 -151 -85 -252t-136.5 -158.5t-182.5 -81.5t-239 -24q-276 0 -387.5 142.5t-50.5 418.5zM592 1534l31 143h690l-31 -143h-690z" />
    <glyph glyph-name="umacron" unicode="&#x16b;" horiz-adv-x="1138" 
d="M92 270l78 387q16 85 16 123q0 50 -20 68t-70 26l-12 3l485 118l-145 -669q-6 -30 -6 -56q0 -84 71 -84q44 0 88.5 44.5t61.5 113.5l74 313q20 84 20 131q0 24 -6.5 39.5t-21.5 24.5t-29 13t-39 9l-10 3l483 118l-172 -788q-6 -21 -6 -39q0 -33 24.5 -51.5t77.5 -26.5
l15 -2l-461 -119l24 119q-57 -54 -141 -85.5t-172 -31.5q-221 0 -221 187q0 44 14 112zM328 1157l30 143h691l-31 -143h-690z" />
    <glyph glyph-name="Ubreve" unicode="&#x16c;" horiz-adv-x="1382" 
d="M154 530l155 705q4 14 4 39q0 75 -75 90h561q-13 -3 -26 -8t-35 -18t-40 -40t-26 -63l-164 -750q-33 -150 5.5 -211t158.5 -61q98 0 166 58t92 171l162 781q4 18 4 47q0 33 -15 55.5t-27.5 29t-25.5 9.5h481q-11 -2 -25 -8.5t-34.5 -20.5t-37 -41.5t-23.5 -64.5
l-154 -744q-31 -151 -85 -252t-136.5 -158.5t-182.5 -81.5t-239 -24q-276 0 -387.5 142.5t-50.5 418.5zM721 1823q27 -75 90 -114.5t143 -39.5t159 39.5t144 114.5q-36 -167 -136 -260t-210 -93q-88 0 -145 62.5t-57 177.5q0 52 12 113z" />
    <glyph glyph-name="ubreve" unicode="&#x16d;" horiz-adv-x="1138" 
d="M92 270l78 387q16 85 16 123q0 50 -20 68t-70 26l-12 3l485 118l-145 -669q-6 -30 -6 -56q0 -84 71 -84q44 0 88.5 44.5t61.5 113.5l74 313q20 84 20 131q0 24 -6.5 39.5t-21.5 24.5t-29 13t-39 9l-10 3l483 118l-172 -788q-6 -21 -6 -39q0 -33 24.5 -51.5t77.5 -26.5
l15 -2l-461 -119l24 119q-57 -54 -141 -85.5t-172 -31.5q-221 0 -221 187q0 44 14 112zM485 1436q27 -75 90.5 -114.5t143.5 -39.5t159 39.5t144 114.5q-36 -167 -136 -260t-210 -93q-88 0 -145.5 62.5t-57.5 177.5q0 51 12 113z" />
    <glyph glyph-name="Uring" unicode="&#x16e;" horiz-adv-x="1382" 
d="M154 530l155 705q4 14 4 39q0 75 -75 90h561q-13 -3 -26 -8t-35 -18t-40 -40t-26 -63l-164 -750q-33 -150 5.5 -211t158.5 -61q98 0 166 58t92 171l162 781q4 18 4 47q0 33 -15 55.5t-27.5 29t-25.5 9.5h481q-11 -2 -25 -8.5t-34.5 -20.5t-37 -41.5t-23.5 -64.5
l-154 -744q-31 -151 -85 -252t-136.5 -158.5t-182.5 -81.5t-239 -24q-276 0 -387.5 142.5t-50.5 418.5zM711 1657q0 97 62.5 152t148.5 55q85 0 148 -54.5t63 -152.5q0 -100 -63 -155.5t-148 -55.5q-86 0 -148.5 56t-62.5 155zM922 1546q41 0 70.5 29t29.5 82q0 52 -29 79
t-71 27q-43 0 -74 -27.5t-31 -78.5t31 -81t74 -30z" />
    <glyph glyph-name="uring" unicode="&#x16f;" horiz-adv-x="1138" 
d="M92 270l78 387q16 85 16 123q0 50 -20 68t-70 26l-12 3l485 118l-145 -669q-6 -30 -6 -56q0 -84 71 -84q44 0 88.5 44.5t61.5 113.5l74 313q20 84 20 131q0 24 -6.5 39.5t-21.5 24.5t-29 13t-39 9l-10 3l483 118l-172 -788q-6 -21 -6 -39q0 -33 24.5 -51.5t77.5 -26.5
l15 -2l-461 -119l24 119q-57 -54 -141 -85.5t-172 -31.5q-221 0 -221 187q0 44 14 112zM498 1245q0 97 62.5 152t148.5 55q85 0 148 -54.5t63 -152.5q0 -100 -63 -155.5t-148 -55.5q-86 0 -148.5 56t-62.5 155zM709 1135q41 0 70.5 29t29.5 81t-29 79.5t-71 27.5
q-43 0 -74 -28t-31 -79t31 -80.5t74 -29.5z" />
    <glyph glyph-name="Uhungarumlaut" unicode="&#x170;" horiz-adv-x="1382" 
d="M154 530l155 705q4 14 4 39q0 75 -75 90h561q-13 -3 -26 -8t-35 -18t-40 -40t-26 -63l-164 -750q-33 -150 5.5 -211t158.5 -61q98 0 166 58t92 171l162 781q4 18 4 47q0 33 -15 55.5t-27.5 29t-25.5 9.5h481q-11 -2 -25 -8.5t-34.5 -20.5t-37 -41.5t-23.5 -64.5
l-154 -744q-31 -151 -85 -252t-136.5 -158.5t-182.5 -81.5t-239 -24q-276 0 -387.5 142.5t-50.5 418.5zM997 1423l177 338h356zM571 1423l174 338h357z" />
    <glyph glyph-name="uhungarumlaut" unicode="&#x171;" horiz-adv-x="1138" 
d="M92 270l78 387q16 85 16 123q0 50 -20 68t-70 26l-12 3l485 118l-145 -669q-6 -30 -6 -56q0 -84 71 -84q44 0 88.5 44.5t61.5 113.5l74 313q20 84 20 131q0 24 -6.5 39.5t-21.5 24.5t-29 13t-39 9l-10 3l483 118l-172 -788q-6 -21 -6 -39q0 -33 24.5 -51.5t77.5 -26.5
l15 -2l-461 -119l24 119q-57 -54 -141 -85.5t-172 -31.5q-221 0 -221 187q0 44 14 112zM778 1026l176 338h357zM352 1026l174 338h357z" />
    <glyph glyph-name="Uogonek" unicode="&#x172;" horiz-adv-x="1382" 
d="M145 483l164 752q4 14 4 39q0 68 -73 90h557q-105 -27 -125 -129l-164 -750q-19 -87 -19 -137q0 -43 14.5 -71.5t42.5 -41.5t56.5 -17.5t69.5 -4.5q98 0 166 58t92 171l162 781q4 18 4 47q0 71 -68 94h481q-99 -30 -120 -135l-164 -772q-48 -221 -142.5 -327.5
t-257.5 -139.5q-30 -6 -44.5 -9t-43 -10.5t-43.5 -14.5t-36 -18.5t-31.5 -25t-18.5 -32t-8 -40.5q0 -37 25 -58.5t69 -21.5q57 0 127 37q-39 -83 -113.5 -129.5t-146.5 -46.5q-70 0 -117 39.5t-47 106.5q0 112 121 204q-66 3 -120 12.5t-106.5 33t-88 59.5t-57 95t-21.5 136
q0 79 20 176z" />
    <glyph glyph-name="uogonek" unicode="&#x173;" horiz-adv-x="1138" 
d="M92 270l78 387q16 85 16 123q0 50 -20 68t-70 26l-12 3l485 118l-145 -669q-6 -30 -6 -56q0 -84 71 -84q44 0 88.5 44.5t61.5 113.5l74 313q20 84 20 131q0 24 -6.5 39.5t-21.5 24.5t-29 13t-39 9l-10 3l483 118l-172 -788q-6 -21 -6 -39q0 -33 24.5 -51.5t77.5 -26.5
l15 -2q-38 -11 -73.5 -22.5t-95 -37t-102 -51t-74.5 -62.5t-32 -75q0 -37 25 -58.5t69 -21.5q57 0 127 37q-39 -83 -113.5 -129.5t-146.5 -46.5q-70 0 -117 39.5t-47 106.5q0 106 119 202l24 119q-57 -54 -141 -85.5t-172 -31.5q-221 0 -221 187q0 44 14 112z" />
    <glyph glyph-name="Wcircumflex" unicode="&#x174;" horiz-adv-x="2021" 
d="M381 0l-105 1153q-16 179 -90 211h533q-11 -2 -22.5 -8t-27.5 -20t-26 -44t-10 -71q0 -13 4 -41l55 -656l307 537l-8 92q-16 179 -80 211h504q-11 -2 -21.5 -8t-27.5 -20.5t-27 -45t-10 -73.5q0 -23 2 -37l53 -654l349 637q43 79 43 127q0 58 -56 74h510
q-12 -2 -28.5 -11t-43.5 -29.5t-61.5 -64.5t-68.5 -104l-662 -1155h-270l-56 674l-389 -674h-270zM834 1423l434 420l264 -420l-324 142z" />
    <glyph glyph-name="wcircumflex" unicode="&#x175;" horiz-adv-x="1607" 
d="M236 -8l-68 778q-10 99 -125 107l-25 2l455 114l43 -553l285 510h233l62 -522l174 281q57 93 57 153q0 69 -67 88h436l-645 -958h-238l-43 489l-297 -489h-237zM614 1026l394 414l223 -414l-281 141z" />
    <glyph glyph-name="Ycircumflex" unicode="&#x176;" horiz-adv-x="1263" 
d="M377 147l82 377l-176 693q-32 117 -121 147h516q-41 -16 -41 -82q0 -20 10 -65l94 -381l269 374q49 68 49 109q0 15 -8.5 25.5t-13 13t-15.5 6.5h461q-14 -3 -32 -12t-56.5 -44.5t-77.5 -90.5l-500 -693l-82 -368q-6 -30 -6 -54q0 -28 8.5 -49t21 -31.5t23 -15.5t19.5 -6
h-555q11 1 25.5 7t36 20.5t40.5 45.5t29 74zM502 1423l434 420l264 -420l-323 142z" />
    <glyph glyph-name="ycircumflex" unicode="&#x177;" horiz-adv-x="1073" 
d="M340 0l-170 770q-23 99 -135 107l-25 2l453 112l137 -678q110 179 152 293q43 118 43 195q0 57 -27 98t-80 51h430q-70 -231 -182 -444q-84 -157 -204.5 -333.5t-250.5 -315.5q-102 -108 -211.5 -173t-203.5 -65q-93 0 -141 43.5t-48 114.5q0 53 23 114q52 -45 131 -45
t160 40t149 114zM340 1026l393 414l223 -414l-280 141z" />
    <glyph glyph-name="Ydieresis" unicode="&#x178;" horiz-adv-x="1263" 
d="M377 147l82 377l-176 693q-32 117 -121 147h516q-41 -16 -41 -82q0 -20 10 -65l94 -381l269 374q49 68 49 109q0 15 -8.5 25.5t-13 13t-15.5 6.5h461q-14 -3 -32 -12t-56.5 -44.5t-77.5 -90.5l-500 -693l-82 -368q-6 -30 -6 -54q0 -28 8.5 -49t21 -31.5t23 -15.5t19.5 -6
h-555q11 1 25.5 7t36 20.5t40.5 45.5t29 74zM1073 1454q-59 0 -95 37t-36 96q0 68 48 115t116 47q59 0 94 -37.5t35 -97.5q0 -67 -47 -113.5t-115 -46.5zM643 1454q-59 0 -95 37t-36 96q0 68 48 115t116 47q59 0 94 -37.5t35 -97.5q0 -67 -47 -113.5t-115 -46.5z" />
    <glyph glyph-name="Zacute" unicode="&#x179;" horiz-adv-x="1226" 
d="M528 227h289q131 0 208 40t134 126l-98 -393h-1116q19 29 224 313.5t400 554.5l195 269h-309q-60 0 -109 -12t-77 -27t-49.5 -36t-29 -33t-12.5 -23l90 358h1084zM684 1423l150 338h397z" />
    <glyph glyph-name="zacute" unicode="&#x17a;" horiz-adv-x="940" 
d="M-45 0l532 786h-225q-61 0 -109 -27t-69 -77l68 285h817l-533 -787h160q55 0 95.5 6.5t65.5 15t46.5 29t32.5 35.5t30 47l-78 -313h-833zM438 1026l150 338h397z" />
    <glyph glyph-name="Zdotaccent" unicode="&#x17b;" horiz-adv-x="1226" 
d="M528 227h289q131 0 208 40t134 126l-98 -393h-1116q19 29 224 313.5t400 554.5l195 269h-309q-60 0 -109 -12t-77 -27t-49.5 -36t-29 -33t-12.5 -23l90 358h1084zM815 1427q-72 0 -116 45t-44 117q0 83 58 140t141 57q73 0 115.5 -45.5t42.5 -118.5q0 -83 -57 -139
t-140 -56z" />
    <glyph glyph-name="zdotaccent" unicode="&#x17c;" horiz-adv-x="940" 
d="M-45 0l532 786h-225q-61 0 -109 -27t-69 -77l68 285h817l-533 -787h160q55 0 95.5 6.5t65.5 15t46.5 29t32.5 35.5t30 47l-78 -313h-833zM569 1059q-72 0 -115.5 45t-43.5 117q0 83 57.5 139.5t140.5 56.5q73 0 115.5 -45.5t42.5 -118.5q0 -83 -56.5 -138.5t-140.5 -55.5
z" />
    <glyph glyph-name="Zcaron" unicode="&#x17d;" horiz-adv-x="1226" 
d="M528 227h289q131 0 208 40t134 126l-98 -393h-1116q19 29 224 313.5t400 554.5l195 269h-309q-60 0 -109 -12t-77 -27t-49.5 -36t-29 -33t-12.5 -23l90 358h1084zM799 1440l-224 411l281 -141l336 141z" />
    <glyph glyph-name="zcaron" unicode="&#x17e;" horiz-adv-x="940" 
d="M-45 0l532 786h-225q-61 0 -109 -27t-69 -77l68 285h817l-533 -787h160q55 0 95.5 6.5t65.5 15t46.5 29t32.5 35.5t30 47l-78 -313h-833zM563 1028l-223 412l281 -142l335 142z" />
    <glyph glyph-name="longs" unicode="&#x17f;" horiz-adv-x="671" 
d="M82 -14l160 770h-158l37 194h158q43 217 155 342t291 125q103 0 162 -42t59 -105q0 -54 -38 -96.5t-107 -51.5q14 20 14 43q0 27 -18.5 46.5t-48.5 19.5q-32 0 -54 -22.5t-43.5 -83.5t-44.5 -175l-194 -964q-75 -373 -392 -373q-164 0 -243 131q54 -8 76 -8
q101 0 152.5 63.5t76.5 186.5z" />
    <glyph glyph-name="florin" unicode="&#x192;" horiz-adv-x="1093" 
d="M-100 -285l96 258q8 -6 21.5 -15t50 -24.5t65.5 -15.5q32 0 52.5 8t42 34t39 78.5t34.5 137.5l94 457h-194l41 205h192q60 291 195.5 426t349.5 135q142 0 238 -47l-107 -246q-62 41 -149 41q-34 0 -61 -16.5t-42.5 -38.5t-29 -60t-18.5 -64.5t-13 -70t-11 -59.5h213
l-41 -205h-210l-82 -397q-59 -281 -193 -424.5t-360 -143.5q-93 0 -213 47z" />
    <glyph glyph-name="Ohorn" unicode="&#x1a0;" horiz-adv-x="1464" 
d="M1380 1087q88 45 119 99q-37 15 -64.5 51t-27.5 80q0 64 47.5 108.5t116.5 44.5q58 0 97.5 -42.5t39.5 -106.5q0 -84 -72 -176q-81 -101 -227 -164q12 -61 12 -129q0 -163 -61.5 -322.5t-167.5 -283.5t-259.5 -200.5t-324.5 -76.5q-246 0 -386 150.5t-140 400.5
q0 169 62.5 329t169 280.5t258 194t319.5 73.5q182 0 307 -83t182 -227zM651 209q82 0 155 63t121.5 161t76.5 215.5t28 228.5q0 129 -45 204.5t-137 75.5q-105 0 -193.5 -108t-135 -261t-46.5 -303q0 -127 43.5 -201.5t132.5 -74.5z" />
    <glyph glyph-name="ohorn" unicode="&#x1a1;" horiz-adv-x="1118" 
d="M977 799q71 45 92 84q-37 15 -64.5 51t-27.5 80q0 64 47.5 108.5t116.5 44.5q58 0 97.5 -42.5t39.5 -106.5q0 -84 -72 -176q-75 -92 -190 -146q12 -52 12 -110q0 -82 -24 -166.5t-73 -164.5t-117.5 -142t-165 -100t-206.5 -38q-101 0 -180 34t-125.5 92.5t-70 129.5
t-23.5 150q0 115 42.5 224t116.5 194t185 136.5t238 51.5q128 0 217 -50.5t135 -137.5zM467 186q51 0 96 46.5t72.5 114.5t43 138t15.5 123q0 66 -23 116t-73 50t-95 -47t-73 -115.5t-44.5 -139.5t-16.5 -124q0 -66 23 -114t75 -48z" />
    <glyph glyph-name="Uhorn" unicode="&#x1af;" horiz-adv-x="1556" 
d="M154 530l155 705q4 14 4 39q0 68 -73 90h557q-105 -27 -125 -129l-164 -750q-33 -150 5.5 -211t158.5 -61q98 0 166 58t92 171l162 781q4 18 4 47q0 71 -68 94h389l-65 -317q90 20 154 61.5t85 77.5q-37 15 -64.5 51t-27.5 80q0 64 47.5 108.5t116.5 44.5
q58 0 97.5 -42.5t39.5 -106.5q0 -92 -71 -176q-59 -72 -166.5 -134t-233.5 -73l-94 -453q-31 -151 -85 -252t-136.5 -158.5t-182.5 -81.5t-239 -24q-276 0 -387.5 142.5t-50.5 418.5z" />
    <glyph glyph-name="uhorn" unicode="&#x1b0;" horiz-adv-x="1318" 
d="M92 270l78 387q16 85 16 123q0 50 -20 68t-70 26l-12 3l485 118l-145 -669q-6 -30 -6 -56q0 -84 71 -84q44 0 88.5 44.5t61.5 113.5l74 313q20 84 20 131q0 24 -6.5 39.5t-21.5 24.5t-29 13t-39 9l-10 3l483 118l-53 -243q80 20 137 59t76 72q-37 15 -64.5 51t-27.5 80
q0 65 47 109t116 44q58 0 98 -42.5t40 -106.5q0 -91 -72 -176q-55 -68 -155.5 -127.5t-219.5 -75.5l-94 -432q-6 -21 -6 -39q0 -33 24.5 -51.5t77.5 -26.5l15 -2l-461 -119l24 119q-57 -54 -141 -85.5t-172 -31.5q-221 0 -221 187q0 44 14 112z" />
    <glyph glyph-name="uni0218" unicode="&#x218;" horiz-adv-x="1087" 
d="M14 94l95 436q52 -153 158 -234t229 -81q70 0 113.5 37.5t43.5 97.5q0 39 -25.5 74.5t-65.5 66t-89 62.5t-98 71t-89 84t-65.5 109t-25.5 139q0 187 146.5 314t379.5 127q212 0 383 -105l-76 -364q-60 107 -149 168t-177 61q-67 0 -107 -32t-40 -93q0 -40 26.5 -77.5
t68.5 -70.5t93 -67.5t101.5 -75t92.5 -86t68.5 -108t26.5 -133.5q0 -193 -153.5 -320t-409.5 -127q-137 0 -265.5 40.5t-189.5 86.5zM350 -373q38 7 72 44t43 79q-41 9 -61.5 32.5t-20.5 53.5q0 39 27.5 66.5t68.5 27.5q45 0 77 -31.5t32 -80.5q0 -79 -64.5 -136t-148.5 -57
q-4 0 -12.5 1t-12.5 1z" />
    <glyph glyph-name="uni0219" unicode="&#x219;" horiz-adv-x="860" 
d="M-10 49l90 365q19 -101 82 -168.5t160 -67.5q42 0 82 17.5t40 54.5q0 22 -18 44t-47 42t-63.5 42.5t-69.5 50t-64 59t-47 76t-18 95.5q0 83 39 149t102.5 105t138.5 59.5t154 20.5q50 0 99 -9t97.5 -28.5t78.5 -58.5t30 -92q0 -106 -170 -182l4 24q0 64 -44.5 100.5
t-108.5 36.5q-44 0 -81.5 -17.5t-37.5 -55.5q0 -26 26.5 -53.5t66.5 -51.5t87 -58t87 -69t66.5 -87t26.5 -111q0 -66 -28.5 -120t-74 -89t-105 -59t-119 -34t-119.5 -10q-212 0 -342 80zM186 -373q38 7 72 44t43 79q-41 9 -61.5 32.5t-20.5 53.5q0 39 27.5 66.5t68.5 27.5
q45 0 77 -31.5t32 -80.5q0 -79 -64.5 -136t-148.5 -57q-4 0 -12.5 1t-12.5 1z" />
    <glyph glyph-name="uni021A" unicode="&#x21a;" horiz-adv-x="1271" 
d="M387 147l211 996h-145q-125 0 -198 -37t-120 -143l94 401h1201l-89 -401q-6 100 -57 140t-186 40h-140l-210 -987q-7 -35 -7 -54q0 -28 8.5 -49t21 -31.5t23 -15.5t19.5 -6h-557q11 1 26 7t36.5 20.5t40.5 45.5t28 74zM350 -373q38 7 72 44t43 79q-41 9 -61.5 32.5
t-20.5 53.5q0 39 27.5 66.5t68.5 27.5q45 0 77 -31.5t32 -80.5q0 -79 -64.5 -136t-148.5 -57q-4 0 -12.5 1t-12.5 1z" />
    <glyph glyph-name="uni021B" unicode="&#x21b;" horiz-adv-x="778" 
d="M92 268l113 488h-166l594 501l-64 -307h265l-39 -194h-267l-73 -330q-25 -119 -25 -160q0 -58 28 -80t91 -22q82 0 190 55q-29 -72 -75.5 -123t-102.5 -78t-111 -39t-116 -12q-119 0 -186.5 54.5t-67.5 158.5q0 38 12 88zM231 -373q38 7 72 44t43 79q-41 9 -61.5 32.5
t-20.5 53.5q0 39 27.5 66.5t68.5 27.5q45 0 77 -31.5t32 -80.5q0 -79 -64.5 -136t-148.5 -57q-4 0 -12.5 1t-12.5 1z" />
    <glyph glyph-name="circumflex" unicode="&#x2c6;" 
d="M283 1026l393 414l223 -414l-281 141z" />
    <glyph glyph-name="caron" unicode="&#x2c7;" 
d="M563 1028l-223 412l281 -142l335 142z" />
    <glyph glyph-name="breve" unicode="&#x2d8;" 
d="M408 1436q27 -75 90 -114.5t143 -39.5t159 39.5t144 114.5q-36 -167 -136 -260t-210 -93q-88 0 -145.5 62.5t-57.5 177.5q0 46 13 113z" />
    <glyph glyph-name="dotaccent" unicode="&#x2d9;" 
d="M616 1059q-72 0 -115.5 45t-43.5 117q0 83 57.5 139.5t140.5 56.5q73 0 115.5 -45.5t42.5 -118.5q0 -83 -56.5 -138.5t-140.5 -55.5z" />
    <glyph glyph-name="ring" unicode="&#x2da;" 
d="M385 1245q0 97 62.5 152t148.5 55q85 0 148 -54.5t63 -152.5q0 -100 -63 -155.5t-148 -55.5q-86 0 -148.5 56t-62.5 155zM596 1135q41 0 70.5 29t29.5 81t-29 79.5t-71 27.5q-43 0 -73.5 -28t-30.5 -79t30.5 -80.5t73.5 -29.5z" />
    <glyph glyph-name="ogonek" unicode="&#x2db;" 
d="M504 0h184q-72 -24 -109.5 -70.5t-37.5 -91.5q0 -36 24.5 -57t69.5 -21q57 0 127 37q-39 -83 -113.5 -129.5t-146.5 -46.5q-70 0 -116 38t-46 103q0 64 44.5 130t119.5 108z" />
    <glyph glyph-name="tilde" unicode="&#x2dc;" 
d="M322 1075q-35 41 -35 105q0 86 62.5 150.5t160.5 64.5q41 0 89 -16.5t83 -37t74.5 -37t66.5 -16.5q53 0 81 34t44 105q33 -42 33 -100q0 -86 -70 -155.5t-166 -69.5q-40 0 -83.5 17t-75 38t-71 38t-71.5 17q-46 0 -75.5 -31.5t-46.5 -105.5z" />
    <glyph glyph-name="hungarumlaut" unicode="&#x2dd;" 
d="M618 1026l177 338h356zM193 1026l174 338h356z" />
    <glyph glyph-name="gravecomb" unicode="&#x300;" horiz-adv-x="0" 
d="M-168 1364h397l15 -338z" />
    <glyph glyph-name="acutecomb" unicode="&#x301;" horiz-adv-x="0" 
d="M-236 1026l150 338h397z" />
    <glyph glyph-name="uni0302" unicode="&#x302;" horiz-adv-x="0" 
d="M-272 1026l393 414l223 -414l-281 141z" />
    <glyph glyph-name="tildecomb" unicode="&#x303;" horiz-adv-x="0" 
d="M-274 1075q-35 41 -35 105q0 86 62.5 150.5t160.5 64.5q41 0 89 -16.5t83 -37t74.5 -37t66.5 -16.5q53 0 81 34t44 105q33 -42 33 -100q0 -86 -69.5 -155.5t-165.5 -69.5q-50 0 -105 27.5t-106 55t-91 27.5q-46 0 -75.5 -31.5t-46.5 -105.5z" />
    <glyph glyph-name="uni0306" unicode="&#x306;" horiz-adv-x="0" 
d="M-205 1436q27 -75 90.5 -114.5t143.5 -39.5t159 39.5t144 114.5q-36 -167 -136 -260t-210 -93q-88 0 -145.5 62.5t-57.5 177.5q0 51 12 113z" />
    <glyph glyph-name="hookabovecomb" unicode="&#x309;" horiz-adv-x="0" 
d="M-143 1260l37 182q82 33 161 33q69 0 114.5 -39t45.5 -101q0 -45 -20.5 -80t-50.5 -55t-59.5 -36.5t-50 -33t-20.5 -34.5q0 -21 25 -29q-20 -10 -51 -10t-53.5 17t-22.5 48q0 35 22 63.5t48.5 44t48.5 37.5t22 46q0 41 -45 41q-69 0 -151 -94z" />
    <glyph glyph-name="uni031B" unicode="&#x31b;" horiz-adv-x="0" 
d="M-104 971l-43 100q46 15 93 49t66 66q-37 15 -64.5 51t-27.5 80q0 64 47.5 108.5t116.5 44.5q58 0 97.5 -42.5t39.5 -106.5q0 -85 -71 -176q-42 -53 -111.5 -100t-142.5 -74z" />
    <glyph glyph-name="dotbelowcomb" unicode="&#x323;" horiz-adv-x="0" 
d="M18 -461q-72 0 -115.5 45t-43.5 117q0 83 57.5 140t140.5 57q73 0 115.5 -45.5t42.5 -118.5q0 -83 -57 -139t-140 -56z" />
    <glyph glyph-name="uni037E" unicode="&#x37e;" horiz-adv-x="534" 
d="M326 571q-77 0 -124.5 49t-47.5 128q0 91 62 153t153 62q78 0 125 -51t47 -130q0 -90 -62.5 -150.5t-152.5 -60.5zM-180 -360q118 39 209 137.5t98 212.5q0 3 1 10t1 10q-7 0 -31 6q-48 10 -75 49t-27 93q0 85 59.5 142.5t145.5 57.5q82 0 140 -60t58 -177
q0 -60 -21.5 -126t-66.5 -130t-106 -115.5t-148 -83t-184 -31.5q-8 0 -53 5z" />
    <glyph glyph-name="tonos" unicode="&#x384;" horiz-adv-x="954" 
d="M528 1006l17 389h344z" />
    <glyph glyph-name="dieresistonos" unicode="&#x385;" horiz-adv-x="1110" 
d="M952 1098q-53 0 -84.5 33t-31.5 86q0 61 42 102t103 41q53 0 84 -33t31 -86q0 -60 -42 -101.5t-102 -41.5zM440 1098q-53 0 -84.5 33t-31.5 86q0 61 42 102t103 41q52 0 83.5 -33t31.5 -86q0 -60 -42 -101.5t-102 -41.5zM655 1169l-14 371h344z" />
    <glyph glyph-name="Alphatonos" unicode="&#x386;" horiz-adv-x="1480" 
d="M113 231l731 1133h319l125 -1153q5 -49 16 -88t22.5 -60.5t25.5 -36.5t23 -19.5t16 -6.5h-535q6 1 13.5 4t19 13.5t21 26t16 44.5t6.5 66q0 18 -2 30l-12 97h-478l-39 -72q-57 -108 -57 -143q0 -33 16 -48.5t33 -17.5h-495q15 4 35.5 16.5t72 68.5t107.5 146zM580 498
h315l-39 448zM317 975l17 389h344z" />
    <glyph glyph-name="anoteleia" unicode="&#x387;" horiz-adv-x="534" 
d="M244 279q-78 0 -125 49t-47 127q0 91 61 152t152 61q79 0 126.5 -50t47.5 -129q0 -90 -62.5 -150t-152.5 -60z" />
    <glyph glyph-name="Epsilontonos" unicode="&#x388;" horiz-adv-x="1304" 
d="M31 975l16 389h344zM252 170l223 1032q6 27 6 53q0 50 -23 77t-55 32h969l-80 -397q-11 170 -227 170h-246l-69 -328h198q43 0 78.5 6.5t55 15t34 20.5t19.5 19t8 13l-78 -375q-2 31 -29.5 50.5t-60.5 25.5t-72 6h-198l-74 -363h258q135 0 199 33.5t129 136.5l-84 -397
h-1031q14 2 29.5 8.5t41 23.5t47 52.5t32.5 85.5z" />
    <glyph glyph-name="Etatonos" unicode="&#x389;" horiz-adv-x="1652" 
d="M250 147l225 1055q6 34 6 60q0 85 -69 102h563q-12 -2 -26.5 -9t-37.5 -22.5t-42.5 -47.5t-28.5 -75l-88 -401h450l86 393q6 34 6 60q0 84 -71 102h563q-12 -2 -26.5 -9t-36.5 -22.5t-41.5 -47.5t-28.5 -75l-226 -1054q-8 -40 -8 -54q0 -28 8.5 -49t21 -31.5t23 -15.5
t19.5 -6h-559q11 1 26 7t36.5 20.5t40.5 45.5t28 74l92 443h-450l-91 -434q-6 -30 -6 -54q0 -29 8.5 -50t21 -31.5t23 -15t19.5 -5.5h-557q10 1 24 7t34.5 20.5t39.5 45.5t29 74zM31 975l16 389h344z" />
    <glyph glyph-name="Iotatonos" unicode="&#x38a;" horiz-adv-x="839" 
d="M31 975l16 389h344zM250 147l223 1055q8 40 8 53q0 49 -21 76.5t-50 32.5h563q-12 -2 -26.5 -9t-37.5 -22.5t-42.5 -47.5t-28.5 -75l-226 -1054q-6 -27 -6 -52q0 -48 20.5 -75t47.5 -29h-551q11 1 25.5 7t35 20.5t39 45.5t27.5 74z" />
    <glyph glyph-name="Omicrontonos" unicode="&#x38c;" horiz-adv-x="1435" 
d="M629 -31q-246 0 -386.5 151t-140.5 400q0 169 62.5 329t169 280.5t258 194t319.5 73.5t290 -72t181.5 -193.5t59.5 -279.5q0 -163 -61.5 -322.5t-167.5 -283.5t-259.5 -200.5t-324.5 -76.5zM672 209q82 0 155 63t121.5 161t76.5 215.5t28 228.5q0 129 -45.5 204.5
t-137.5 75.5q-79 0 -151 -63.5t-119.5 -162.5t-75.5 -217t-28 -229q0 -127 43.5 -201.5t132.5 -74.5zM31 975l16 389h344z" />
    <glyph glyph-name="Upsilontonos" unicode="&#x38e;" horiz-adv-x="1497" 
d="M610 147l82 377l-176 693q-32 117 -121 147h516q-41 -16 -41 -82q0 -15 11 -65l94 -381l268 374q49 68 49 109q0 15 -8.5 25.5t-13 13t-15.5 6.5h461q-14 -3 -32 -12t-56.5 -44.5t-77.5 -90.5l-499 -693l-82 -368q-6 -30 -6 -54q0 -28 8.5 -49t21 -31.5t22.5 -15.5t19 -6
h-555q11 1 25.5 7t36 20.5t40.5 45.5t29 74zM31 975l16 389h344z" />
    <glyph glyph-name="Omegatonos" unicode="&#x38f;" horiz-adv-x="1755" 
d="M-8 0l59 395q15 -41 26 -65.5t28 -44.5t31 -29t43 -15t56 -7t78 -1h43q-57 78 -88.5 188t-31.5 220q0 59 14 131q28 130 89.5 240.5t157.5 197.5t235.5 136t309.5 49q149 0 264 -44t183.5 -119.5t103.5 -169.5t35 -202q0 -69 -16 -147q-64 -290 -303 -480h43
q75 0 110.5 3t75 21t68 47.5t77.5 90.5l-106 -395h-786q13 7 45.5 31t94 82t118 126.5t109.5 170.5t75 208q22 104 22 189q0 154 -68.5 244t-207.5 90t-250.5 -114.5t-155.5 -328.5q-24 -120 -24 -217q0 -93 19 -176.5t46.5 -137t55 -93t46.5 -56.5l19 -18h-743zM115 975
l16 389h344z" />
    <glyph glyph-name="iotadieresistonos" unicode="&#x390;" horiz-adv-x="722" 
d="M113 295l88 405q12 56 12 76q0 87 -121 101l500 122l-141 -657q-11 -46 -11 -80q0 -35 22 -56.5t56 -21.5q45 0 90.5 22.5t73.5 57.5q-41 -143 -128.5 -220t-219.5 -77q-107 0 -170.5 67.5t-63.5 168.5q0 32 13 92zM725 1098q-53 0 -85 33t-32 86q0 61 42.5 102t103.5 41
q53 0 83.5 -33t30.5 -86q0 -60 -41.5 -101.5t-101.5 -41.5zM213 1098q-53 0 -85 33t-32 86q0 61 42.5 102t103.5 41q52 0 83 -33t31 -86q0 -60 -41.5 -101.5t-101.5 -41.5zM428 1169l-14 371h344z" />
    <glyph glyph-name="Alpha" unicode="&#x391;" horiz-adv-x="1480" 
d="M113 231l731 1133h319l125 -1153q5 -49 16 -88t22.5 -60.5t25.5 -36.5t23 -19.5t16 -6.5h-535q6 1 13.5 4t19 13.5t21 26t16 44.5t6.5 66q0 18 -2 30l-12 97h-478l-39 -72q-57 -108 -57 -143q0 -33 16 -48.5t33 -17.5h-495q15 4 35.5 16.5t72 68.5t107.5 146zM580 498
h315l-39 448z" />
    <glyph glyph-name="Beta" unicode="&#x392;" horiz-adv-x="1290" 
d="M92 166l215 1032q6 27 6 51q0 91 -84 115h615q83 0 161 -21t143 -61t104.5 -105t39.5 -145q0 -119 -77.5 -216t-206.5 -122q103 -27 163 -115t60 -196q0 -73 -32 -138.5t-98 -121.5t-182.5 -89.5t-269.5 -33.5h-682q11 2 23.5 8.5t33 23t39 51.5t29.5 83zM463 209h178
q107 0 163 56t56 132q0 87 -50.5 147t-141.5 60h-123zM590 809h153q85 0 134 56t49 128q0 67 -36.5 115.5t-109.5 48.5h-118z" />
    <glyph glyph-name="Gamma" unicode="&#x393;" horiz-adv-x="1058" 
d="M98 170l224 1032q6 30 6 53q0 30 -9.5 52.5t-25 33.5t-26.5 16t-21 7h971l-80 -397q-11 170 -228 170h-243l-203 -971q-8 -40 -8 -55q0 -31 9.5 -54t24 -34.5t26 -16.5t20.5 -6h-586q14 2 29.5 8.5t41 23.5t46.5 52.5t32 85.5z" />
    <glyph glyph-name="uni0394" unicode="&#x394;" horiz-adv-x="1480" 
d="M-33 0l875 1364h319l152 -1364h-1346zM410 231h514l-70 711z" />
    <glyph glyph-name="Epsilon" unicode="&#x395;" horiz-adv-x="1171" 
d="M119 170l223 1032q6 27 6 53q0 50 -23 77t-55 32h969l-80 -397q-11 170 -227 170h-246l-70 -328h199q43 0 78.5 6.5t55 15t34 20.5t19.5 19t8 13l-78 -375q-2 31 -29.5 50.5t-60.5 25.5t-72 6h-199l-73 -363h258q92 0 147 14.5t95.5 49.5t84.5 106l-84 -397h-1030
q14 2 29.5 8.5t41 23.5t47 52.5t32.5 85.5z" />
    <glyph glyph-name="Zeta" unicode="&#x396;" horiz-adv-x="1226" 
d="M528 227h289q131 0 208 40t134 126l-98 -393h-1116q19 29 224 313.5t400 554.5l195 269h-309q-60 0 -109 -12t-77 -27t-49.5 -36t-29 -33t-12.5 -23l90 358h1084z" />
    <glyph glyph-name="Eta" unicode="&#x397;" horiz-adv-x="1497" 
d="M94 147l225 1055q7 40 7 60q0 84 -70 102h563q-12 -2 -26.5 -9t-37.5 -22.5t-42.5 -47.5t-28.5 -75l-88 -401h451l86 393q6 34 6 60q0 84 -72 102h563q-12 -2 -26.5 -9t-36.5 -22.5t-41.5 -47.5t-28.5 -75l-225 -1054q-8 -40 -8 -54q0 -28 8.5 -49t21 -31.5t22.5 -15.5
t19 -6h-559q11 1 26 7t36.5 20.5t40.5 45.5t28 74l92 443h-450l-90 -434q-6 -30 -6 -54q0 -29 8 -50t21 -31.5t23 -15t19 -5.5h-557q10 1 24 7t34.5 20.5t39.5 45.5t29 74z" />
    <glyph glyph-name="Theta" unicode="&#x398;" horiz-adv-x="1564" 
d="M559 506l78 358q1 -6 3.5 -12t11 -16t22.5 -17t40.5 -12.5t61.5 -5.5h152q56 0 96 14t52.5 25.5t19.5 23.5l-78 -358q0 5 -1.5 11.5t-9.5 17t-21.5 18.5t-40 14t-62.5 6h-160q-36 0 -66 -6.5t-46.5 -14.5t-29 -19t-16.5 -16.5t-6 -10.5zM82 541q0 172 68 329.5t184 273
t278 184.5t342 69q289 0 453 -157.5t164 -408.5q0 -128 -40.5 -254t-118 -235t-182.5 -192.5t-244 -132t-292 -48.5q-270 0 -441 159t-171 413zM731 209q98 0 184.5 58t143.5 151t90 208t33 230q0 136 -67.5 218.5t-190.5 82.5q-95 0 -180.5 -59t-143.5 -152.5t-91.5 -209.5
t-33.5 -230q0 -136 65 -216.5t191 -80.5z" />
    <glyph glyph-name="Iota" unicode="&#x399;" horiz-adv-x="686" 
d="M96 147l223 1055q9 45 9 53q0 49 -21 76.5t-51 32.5h563q-12 -2 -26.5 -9t-37.5 -22.5t-42.5 -47.5t-28.5 -75l-225 -1054q-6 -27 -6 -52q0 -48 20 -75t47 -29h-551q11 1 25.5 7t35 20.5t39 45.5t27.5 74z" />
    <glyph glyph-name="Kappa" unicode="&#x39a;" horiz-adv-x="1421" 
d="M94 147l225 1055q7 35 7 55q0 29 -9 51t-23 33t-25 16t-21 7h563q-12 -2 -25.5 -8.5t-34.5 -22t-39.5 -48t-27.5 -75.5l-100 -462l409 421q103 106 103 158q0 30 -33 37h500q-85 -34 -215 -162l-443 -436l244 -549q38 -87 99.5 -147t107.5 -70h-479l-310 678l-108 -522
q-6 -30 -6 -52q0 -29 9 -51t22 -32.5t23.5 -15t18.5 -5.5h-559q10 1 24 7t34.5 20.5t39.5 45.5t29 74z" />
    <glyph glyph-name="Lambda" unicode="&#x39b;" horiz-adv-x="1480" 
d="M113 231l731 1133h319l125 -1153q5 -49 16 -88t22.5 -60.5t25.5 -36.5t23 -19.5t16 -6.5h-537q6 1 13.5 4t19 13.5t21 26t16 44.5t6.5 66q0 18 -2 30l-72 760l-448 -733q-58 -92 -58 -145q0 -33 16 -48.5t33 -17.5h-501q7 2 16.5 6.5t29.5 20t43 39t56.5 66.5t69.5 99z
" />
    <glyph glyph-name="Mu" unicode="&#x39c;" horiz-adv-x="1875" 
d="M158 266l186 860q10 44 10 91q0 120 -102 147h524l193 -748l485 748h535q-10 -2 -22 -7t-33.5 -21.5t-40.5 -41t-39 -70.5t-33 -104l-189 -866q-12 -54 -12 -111q0 -41 9 -70.5t23.5 -44t25 -20.5t20.5 -8h-563q9 2 19 6.5t29 21.5t36 42.5t36 73.5t33 110l146 655
l-623 -942l-244 944l-139 -647q-12 -62 -12 -106q0 -46 11 -79t29 -48.5t30 -22t24 -8.5h-541q11 2 25 7t38 23t45.5 45t44 77t36.5 114z" />
    <glyph glyph-name="Nu" unicode="&#x39d;" horiz-adv-x="1417" 
d="M102 139l215 1000q7 35 7 37q0 37 -42.5 105.5t-86.5 82.5h444l395 -752l123 596q6 24 6 47q0 30 -10 52.5t-26 33.5t-26.5 16t-21.5 7h473q-11 -2 -23 -8.5t-31.5 -21.5t-36 -45.5t-25.5 -71.5l-262 -1217h-269l-9 38q-9 38 -19.5 76t-31.5 93.5t-44 99.5l-277 522
l-143 -684q-4 -16 -4 -41q0 -29 10 -50.5t25.5 -32t27.5 -15.5t21 -6h-492q13 1 28.5 7t37 19.5t40 43t27.5 69.5z" />
    <glyph glyph-name="Xi" unicode="&#x39e;" horiz-adv-x="1114" 
d="M37 0l10 436q18 -73 42.5 -114t75.5 -65t134 -24h449q122 0 193 46.5t144 156.5l-149 -436h-899zM244 975l84 389h854l-80 -397q-11 170 -215 170h-367q-75 0 -131.5 -23.5t-88 -56.5t-56.5 -82zM262 506l76 356q2 -11 9.5 -22.5t41 -25t88.5 -13.5h322q123 0 170 63
l-76 -358q-10 67 -137 67h-330q-130 0 -164 -67z" />
    <glyph glyph-name="Omicron" unicode="&#x39f;" horiz-adv-x="1415" 
d="M608 -31q-246 0 -386 150.5t-140 400.5q0 169 62.5 329t169 280.5t258 194t319.5 73.5t289.5 -72t181 -193.5t59.5 -279.5q0 -163 -61.5 -322.5t-167.5 -283.5t-259.5 -200.5t-324.5 -76.5zM651 209q82 0 155 63t121.5 161t76.5 215.5t28 228.5q0 129 -45 204.5
t-137 75.5q-105 0 -193.5 -108t-135 -261t-46.5 -303q0 -127 43.5 -201.5t132.5 -74.5z" />
    <glyph glyph-name="Pi" unicode="&#x3a0;" horiz-adv-x="1466" 
d="M102 188l199 928q25 118 25 144q0 87 -70 104h1343q-105 -27 -135 -164l-215 -1005q-16 -78 -16 -97q0 -43 21.5 -68t48.5 -30h-555q24 6 40 14.5t36 28t35 55.5t26 90l202 949h-419l-203 -949q-10 -49 -10 -86q0 -85 67 -102h-551q20 6 34 13.5t33.5 26.5t35.5 56t28 92
z" />
    <glyph glyph-name="Rho" unicode="&#x3a1;" horiz-adv-x="1271" 
d="M94 147l228 1055q8 36 8 55q0 29 -9 51t-23 33t-25 16t-21 7h596q114 0 203.5 -30.5t144 -83.5t83 -119t28.5 -142q0 -90 -38.5 -177t-108 -158t-178.5 -114.5t-239 -43.5q-117 0 -208 26l-78 -366q-6 -30 -6 -52q0 -29 9 -51t22 -32.5t23.5 -15t18.5 -5.5h-557
q10 1 24 7t34.5 20.5t39.5 45.5t29 74zM674 1157l-96 -428q50 -16 104 -16q123 0 192.5 82t69.5 186q0 75 -39.5 125.5t-109.5 50.5h-121z" />
    <glyph glyph-name="Sigma" unicode="&#x3a3;" horiz-adv-x="1157" 
d="M-88 0l596 649l-303 715h1020l-90 -422q-3 23 -4.5 33.5t-7.5 35t-14.5 38t-25 33t-38.5 29.5t-55 18t-75 8h-245l178 -420l-428 -463h330q130 0 197 34t138 128l-143 -416h-1030z" />
    <glyph glyph-name="Tau" unicode="&#x3a4;" horiz-adv-x="1271" 
d="M387 147l211 996h-145q-125 0 -198 -37t-120 -143l94 401h1201l-89 -401q-6 100 -57 140t-186 40h-140l-210 -987q-7 -35 -7 -54q0 -28 8.5 -49t21 -31.5t23 -15.5t19.5 -6h-557q11 1 26 7t36.5 20.5t40.5 45.5t28 74z" />
    <glyph glyph-name="Upsilon" unicode="&#x3a5;" horiz-adv-x="1263" 
d="M377 147l82 377l-176 693q-32 117 -121 147h516q-41 -16 -41 -82q0 -20 10 -65l94 -381l269 374q49 68 49 109q0 15 -8.5 25.5t-13 13t-15.5 6.5h461q-14 -3 -32 -12t-56.5 -44.5t-77.5 -90.5l-500 -693l-82 -368q-6 -30 -6 -54q0 -28 8.5 -49t21 -31.5t23 -15.5t19.5 -6
h-555q11 1 25.5 7t36 20.5t40.5 45.5t29 74z" />
    <glyph glyph-name="Phi" unicode="&#x3a6;" horiz-adv-x="1615" 
d="M569 131l4 23q-221 31 -351 152t-130 300q0 127 55.5 235.5t152.5 184.5t224.5 124t274.5 64l4 21q6 30 6 53q0 50 -20 76t-41 33h507q-13 -3 -27 -10.5t-35 -24t-39.5 -49t-27.5 -76.5l-4 -20q225 -28 355.5 -147.5t130.5 -297.5q0 -169 -95 -303.5t-254 -212.5
t-362 -100l-4 -21q-6 -37 -6 -61q0 -54 20 -78t43 -29h-506q94 28 125 164zM1073 981l-127 -598q127 20 218 120.5t91 246.5q0 89 -47.5 148.5t-134.5 82.5zM623 385l127 600q-128 -25 -214.5 -120.5t-86.5 -239.5q0 -95 47.5 -157t126.5 -83z" />
    <glyph glyph-name="Chi" unicode="&#x3a7;" horiz-adv-x="1325" 
d="M88 172l438 504l-219 541q-22 55 -50 90.5t-42.5 44t-26.5 12.5h531q-53 -21 -53 -74q0 -26 18 -73l100 -248l215 248q58 66 58 104q0 6 -1.5 11t-3 8.5t-5 7t-6 5.5t-7 4t-6 3t-6.5 2l-4 2h495q-73 -21 -180 -147l-440 -510l217 -535q19 -50 40 -86t38.5 -53t28 -24
t18.5 -9h-526q9 1 18 7t19 24t10 45q0 32 -25 96l-96 240l-205 -240q-70 -83 -70 -127q0 -35 29 -45h-489q45 6 188 172z" />
    <glyph glyph-name="Psi" unicode="&#x3a8;" horiz-adv-x="1693" 
d="M625 197l43 209q-225 28 -344 135t-119 295q0 69 16 147l37 174q10 44 10 88q0 93 -61 119h508q-91 -27 -129 -203l-43 -194q-17 -76 -17 -117q0 -182 193 -203l110 520q9 47 9 80q0 97 -60 117h508q-14 -4 -28 -13t-34.5 -29.5t-39.5 -61.5t-31 -97l-111 -514
q242 16 310 318l43 194q12 56 12 92q0 90 -55 111h512q-109 -35 -146 -207l-47 -221q-106 -494 -680 -533l-43 -206q-10 -52 -10 -80q0 -58 21.5 -85.5t46.5 -31.5h-519q12 2 28 11t37.5 29t41 61t31.5 96z" />
    <glyph glyph-name="uni03A9" unicode="&#x3a9;" horiz-adv-x="1755" 
d="M-8 0l59 395q15 -41 26 -65.5t28 -44.5t31 -29t43 -15t56 -7t78 -1h43q-57 78 -88.5 188t-31.5 220q0 59 14 131q28 130 89.5 240.5t157.5 197.5t235.5 136t309.5 49q149 0 264 -44t183.5 -119.5t103.5 -169.5t35 -202q0 -69 -16 -147q-64 -290 -303 -480h43
q75 0 110.5 3t75 21t68 47.5t77.5 90.5l-106 -395h-786q13 7 45.5 31t94 82t118 126.5t109.5 170.5t75 208q22 104 22 189q0 154 -68.5 244t-207.5 90t-250.5 -114.5t-155.5 -328.5q-24 -120 -24 -217q0 -93 19 -176.5t46.5 -137t55 -93t46.5 -56.5l19 -18h-743z" />
    <glyph glyph-name="Iotadieresis" unicode="&#x3aa;" horiz-adv-x="686" 
d="M96 147l223 1055q9 45 9 53q0 49 -21 76.5t-51 32.5h563q-12 -2 -26.5 -9t-37.5 -22.5t-42.5 -47.5t-28.5 -75l-225 -1054q-6 -27 -6 -52q0 -48 20 -75t47 -29h-551q11 1 25.5 7t35 20.5t39 45.5t27.5 74zM782 1454q-59 0 -95 37t-36 96q0 68 48 115t116 47
q59 0 94 -37.5t35 -97.5q0 -67 -47 -113.5t-115 -46.5zM352 1454q-59 0 -95 37t-36 96q0 68 48 115t116 47q59 0 94 -37.5t35 -97.5q0 -67 -47 -113.5t-115 -46.5z" />
    <glyph glyph-name="Upsilondieresis" unicode="&#x3ab;" horiz-adv-x="1263" 
d="M377 147l82 377l-176 693q-32 117 -121 147h516q-41 -16 -41 -82q0 -20 10 -65l94 -381l269 374q49 68 49 109q0 15 -8.5 25.5t-13 13t-15.5 6.5h461q-14 -3 -32 -12t-56.5 -44.5t-77.5 -90.5l-500 -693l-82 -368q-6 -30 -6 -54q0 -28 8.5 -49t21 -31.5t23 -15.5t19.5 -6
h-555q11 1 25.5 7t36 20.5t40.5 45.5t29 74zM1073 1454q-59 0 -95 37t-36 96q0 68 48 115t116 47q59 0 94 -37.5t35 -97.5q0 -67 -47 -113.5t-115 -46.5zM643 1454q-59 0 -95 37t-36 96q0 68 48 115t116 47q59 0 94 -37.5t35 -97.5q0 -67 -47 -113.5t-115 -46.5z" />
    <glyph glyph-name="alphatonos" unicode="&#x3ac;" horiz-adv-x="1153" 
d="M1096 133l-256 -176q-60 23 -108 80t-58 129q-65 -86 -155.5 -140.5t-190.5 -54.5q-53 0 -102.5 20t-91 59t-66.5 105t-25 150q0 76 12 137q25 126 81.5 232t129 174.5t154 106.5t160.5 38q101 0 158.5 -66t70.5 -171q35 86 87.5 157.5t104.5 98.5l213 -185
q-107 -47 -213 -278l-45 -98l-4 -56q-4 -66 -4 -71q0 -88 43 -139.5t105 -51.5zM672 418q14 132 14 217q0 45 -6 80q-14 76 -76 76t-118 -92t-85 -216q-18 -79 -18 -143t25 -103.5t71 -39.5q52 0 106 65.5t87 155.5zM645 1006l17 389h344z" />
    <glyph glyph-name="epsilontonos" unicode="&#x3ad;" horiz-adv-x="876" 
d="M616 393h-104q-85 0 -142 -29.5t-57 -87.5q0 -44 43.5 -70t112.5 -26q89 0 183 37.5t149 85.5q-45 -146 -166.5 -241t-292.5 -95q-161 0 -258.5 76t-97.5 188q0 107 77 176.5t199 92.5q-151 62 -151 200q0 126 127 209.5t323 83.5q142 0 233 -47.5t91 -136.5
q0 -103 -152 -164q-2 70 -47.5 113t-122.5 43t-121.5 -34.5t-44.5 -92.5q0 -47 37 -76t115 -29h106zM506 1006l16 389h344z" />
    <glyph glyph-name="etatonos" unicode="&#x3ae;" horiz-adv-x="1120" 
d="M31 0l149 684q10 52 10 78q0 52 -29.5 81t-84.5 34l311 135q52 -20 80 -62t35 -92q150 135 332 135q219 0 219 -186q0 -50 -13 -113l-178 -841q-12 -55 -12 -103q0 -89 61 -121h-422l220 1010q6 24 6 47q0 42 -20 67t-56 25q-39 0 -86 -39.5t-64 -117.5l-135 -621h-323z
M608 1006l17 389h344z" />
    <glyph glyph-name="iotatonos" unicode="&#x3af;" horiz-adv-x="722" 
d="M113 295l88 405q12 56 12 76q0 87 -121 101l500 122l-141 -657q-11 -46 -11 -80q0 -35 22 -56.5t56 -21.5q45 0 90.5 22.5t73.5 57.5q-41 -143 -128.5 -220t-219.5 -77q-107 0 -170.5 67.5t-63.5 168.5q0 32 13 92zM367 1006l16 389h344z" />
    <glyph glyph-name="upsilondieresistonos" unicode="&#x3b0;" horiz-adv-x="1161" 
d="M113 395l59 269q14 61 14 94q0 59 -32 87.5t-82 31.5l311 135q55 -22 90 -79t35 -147q0 -48 -12 -110l-62 -287q-10 -52 -10 -84q0 -57 26.5 -88t75.5 -31q77 0 141.5 86.5t104.5 276.5q21 95 21 174q0 90 -25.5 142.5t-67.5 52.5q95 92 222 92q87 0 145.5 -69.5
t58.5 -207.5q0 -61 -16 -149q-30 -157 -95 -277t-151 -191t-182.5 -106t-200.5 -35q-169 0 -275 83t-106 235q0 42 13 102zM948 1098q-53 0 -85 33t-32 86q0 61 42.5 102t103.5 41q53 0 84 -33t31 -86q0 -60 -42 -101.5t-102 -41.5zM436 1098q-53 0 -85 33t-32 86
q0 61 42.5 102t103.5 41q52 0 83.5 -33t31.5 -86q0 -60 -42 -101.5t-102 -41.5zM651 1169l-14 371h344z" />
    <glyph glyph-name="alpha" unicode="&#x3b1;" horiz-adv-x="1153" 
d="M1096 133l-256 -176q-60 23 -108 80t-58 129q-65 -86 -155.5 -140.5t-190.5 -54.5q-53 0 -102.5 20t-91 59t-66.5 105t-25 150q0 76 12 137q25 126 81.5 232t129 174.5t154 106.5t160.5 38q101 0 158.5 -66t70.5 -171q35 86 87.5 157.5t104.5 98.5l213 -185
q-107 -47 -213 -278l-45 -98l-4 -56q-4 -66 -4 -71q0 -88 43 -139.5t105 -51.5zM672 418q14 132 14 217q0 45 -6 80q-14 76 -76 76t-118 -92t-85 -216q-18 -79 -18 -143t25 -103.5t71 -39.5q52 0 106 65.5t87 155.5z" />
    <glyph glyph-name="beta" unicode="&#x3b2;" horiz-adv-x="1169" 
d="M33 -14l196 950q27 130 86.5 225.5t141.5 150t174.5 80t197.5 25.5q173 0 281.5 -86t108.5 -217q0 -52 -19.5 -102t-46 -86.5t-70 -77t-75 -64t-78.5 -55.5q77 -53 125.5 -132.5t48.5 -170.5q0 -136 -72.5 -241t-189.5 -158.5t-256 -53.5q-61 0 -121.5 18t-91.5 44
l-11 -49q-78 -373 -391 -373q-164 0 -243 131q50 -8 75 -8q101 0 153 63.5t77 186.5zM584 680l116 94q95 75 149 150.5t54 165.5q0 58 -31 94.5t-86 36.5q-81 0 -140 -69t-83 -185l-123 -607q-6 -27 -6 -51q0 -59 34 -89t95 -30q89 0 147 64t58 158q0 80 -49.5 143.5
t-134.5 124.5z" />
    <glyph glyph-name="gamma" unicode="&#x3b3;" horiz-adv-x="1062" 
d="M487 -371h-335q44 204 139 396q-33 431 -117 729q-18 66 -49 100.5t-86 40.5l405 104q36 -104 67 -275.5t32 -293.5l137 201q88 133 88 198q0 25 -11 40.5t-28 15.5q-10 0 -18 -2q25 55 76 88t114 33q69 0 109.5 -42.5t40.5 -107.5q0 -22 -7.5 -48t-15 -45t-27.5 -51
t-28 -44.5t-34 -48.5t-30 -42l-204 -292q-84 -120 -122.5 -229.5t-70.5 -289.5z" />
    <glyph glyph-name="delta" unicode="&#x3b4;" horiz-adv-x="1122" 
d="M436 817q-52 43 -86.5 108t-34.5 142q0 161 149.5 262t381.5 101q153 0 247.5 -66.5t94.5 -165.5q0 -81 -67 -139t-195 -68q20 38 20 78q0 66 -45 109t-115 43q-73 0 -121.5 -37t-48.5 -84q0 -60 40.5 -110.5t144.5 -127.5q254 -188 254 -401q0 -220 -157.5 -353
t-418.5 -133q-201 0 -318.5 101t-117.5 256q0 97 33.5 178t93 139t124 98t142.5 70zM606 666l-43 34q-196 -127 -196 -323q0 -85 38 -138t109 -53q70 0 120.5 39.5t72.5 96t22 120.5q0 125 -123 224z" />
    <glyph glyph-name="epsilon" unicode="&#x3b5;" horiz-adv-x="876" 
d="M616 393h-104q-85 0 -142 -29.5t-57 -87.5q0 -44 43.5 -70t112.5 -26q89 0 183 37.5t149 85.5q-45 -146 -166.5 -241t-292.5 -95q-161 0 -258.5 76t-97.5 188q0 107 77 176.5t199 92.5q-151 62 -151 200q0 126 127 209.5t323 83.5q142 0 233 -47.5t91 -136.5
q0 -103 -152 -164q-2 70 -47.5 113t-122.5 43t-121.5 -34.5t-44.5 -92.5q0 -47 37 -76t115 -29h106z" />
    <glyph glyph-name="zeta" unicode="&#x3b6;" horiz-adv-x="909" 
d="M371 842l297 321q-16 0 -76 3t-98 3q-111 0 -175.5 -43t-99.5 -122q-53 71 -53 170q0 108 75.5 176.5t186.5 68.5q85 0 267 -13t286 -13q99 0 176 12l-567 -623q-117 -128 -169 -221t-52 -172q0 -104 118 -170q144 -81 206.5 -145t62.5 -156q0 -132 -107 -220.5
t-266 -96.5q113 76 113 186q0 56 -43 94.5t-160 100.5q-120 62 -185 143.5t-65 198.5q0 43 7 81t26 76t36 67t52 70.5t58.5 66.5t72.5 76t76 81z" />
    <glyph glyph-name="eta" unicode="&#x3b7;" horiz-adv-x="1120" 
d="M31 0l149 684q10 52 10 78q0 52 -29.5 81t-84.5 34l311 135q52 -20 80 -62t35 -92q150 135 332 135q219 0 219 -186q0 -50 -13 -113l-178 -841q-12 -55 -12 -103q0 -89 61 -121h-422l220 1010q6 24 6 47q0 42 -20 67t-56 25q-39 0 -86 -39.5t-64 -117.5l-135 -621h-323z
" />
    <glyph glyph-name="theta" unicode="&#x3b8;" horiz-adv-x="1148" 
d="M51 578l303 131q43 -22 67.5 -68.5t24.5 -103.5q0 -52 -18 -144q-20 -98 -20 -129q0 -33 20 -55.5t59 -22.5q79 0 147.5 78t112.5 197.5t64 261.5q-87 -23 -168 -23q-167 0 -272 93t-105 235q0 76 32.5 146.5t90.5 125.5t146.5 88t193.5 33q200 0 308 -142.5t108 -369.5
q0 -153 -30.5 -293.5t-89.5 -256.5t-141 -202.5t-190 -134t-231 -47.5q-175 0 -271 80t-96 213q0 15 1.5 30.5t3.5 25t6 27.5t6 28q16 74 16 98q0 82 -78 101zM823 911q2 16 2 47q0 126 -35 188t-96 62q-53 0 -92 -44.5t-39 -108.5q0 -76 45 -116t117 -40q57 0 98 12z" />
    <glyph glyph-name="iota" unicode="&#x3b9;" horiz-adv-x="722" 
d="M113 295l88 405q12 56 12 76q0 87 -121 101l500 122l-141 -657q-11 -46 -11 -80q0 -35 22 -56.5t56 -21.5q45 0 90.5 22.5t73.5 57.5q-41 -143 -128.5 -220t-219.5 -77q-107 0 -170.5 67.5t-63.5 168.5q0 32 13 92z" />
    <glyph glyph-name="kappa" unicode="&#x3ba;" horiz-adv-x="1198" 
d="M29 0l157 702q15 64 15 84q0 41 -37 64.5t-86 26.5l493 127l-114 -529l67 88q31 39 82 105t88 112t70 82q60 65 117.5 94t124.5 29q107 0 159 -78t31 -188q-12 15 -44.5 28t-66.5 13q-56 0 -137 -58q-86 -59 -211 -206l172 -275q63 -100 116.5 -135t119.5 -35
q-42 -30 -114 -53t-148 -23q-94 0 -149.5 33t-112.5 109q-37 50 -111 182l-111 -100l-43 -199h-327z" />
    <glyph glyph-name="lambda" unicode="&#x3bb;" horiz-adv-x="1107" 
d="M92 182l479 744l-10 57q-44 227 -254 227q24 98 82 155.5t141 57.5q45 0 80.5 -14.5t63 -47.5t48.5 -74t38.5 -106t30.5 -130.5t28 -159.5l111 -698q8 -46 19.5 -82t22.5 -55t23.5 -32.5t19.5 -17.5t13 -6h-317l-68 516l-313 -516h-412q15 4 34.5 17.5t58 56t81.5 108.5z
" />
    <glyph glyph-name="uni03BC" unicode="&#x3bc;" horiz-adv-x="1140" 
d="M-2 -180l235 1138h326l-135 -632q-6 -30 -6 -56q0 -42 19.5 -64t54.5 -22q45 0 90.5 43t58.5 105l137 626h326l-156 -698q-6 -34 -6 -53q0 -33 24 -57t64 -27l-274 -166q-51 18 -83 59t-42 90q-110 -137 -195 -137q-49 0 -78 21l-79 -361h-402q30 6 65 51t56 140z" />
    <glyph glyph-name="nu" unicode="&#x3bd;" horiz-adv-x="1077" 
d="M305 0l-119 762q-16 114 -147 117l442 114l76 -585l145 223q35 54 57.5 109t22.5 89q0 24 -11.5 40t-29.5 16q-10 0 -16 -2q25 56 77 88.5t116 32.5q68 0 107.5 -42.5t39.5 -105.5q0 -29 -8 -58.5t-29 -65.5t-34.5 -57t-46 -66t-42.5 -60l-215 -309q-109 -156 -155 -240
h-230z" />
    <glyph glyph-name="xi" unicode="&#x3be;" horiz-adv-x="954" 
d="M817 578h-137q-80 0 -148.5 -20.5t-115.5 -68.5t-47 -116q0 -50 30 -88.5t105 -75.5q145 -70 198.5 -136t53.5 -153q0 -94 -54.5 -167t-139 -111t-181.5 -41q55 32 85 80t30 102t-36 94t-122 80q-295 138 -295 375q0 76 30 141t82 110t117.5 76t141.5 48
q-205 87 -205 282q0 132 76 234t198 154.5t267 52.5q162 0 246.5 -66.5t84.5 -163.5q0 -84 -72.5 -143.5t-191.5 -65.5q21 43 21 82q0 65 -40.5 106.5t-103.5 41.5q-91 0 -144.5 -63.5t-53.5 -158.5q0 -105 62.5 -164t178.5 -59h121z" />
    <glyph glyph-name="omicron" unicode="&#x3bf;" horiz-adv-x="1071" 
d="M442 -25q-101 0 -180 34t-125.5 92.5t-70 129.5t-23.5 150q0 115 42.5 224t116.5 194t185 136.5t238 51.5q102 0 181.5 -33t126.5 -90t71 -127.5t24 -150.5q0 -82 -24 -166.5t-73 -164.5t-117.5 -142t-165 -100t-206.5 -38zM467 186q51 0 96 46.5t72.5 114.5t43 138
t15.5 123q0 66 -23 116t-73 50t-95 -47t-73 -115.5t-44.5 -139.5t-16.5 -124q0 -66 23 -114t75 -48z" />
    <glyph glyph-name="pi" unicode="&#x3c0;" horiz-adv-x="1327" 
d="M252 -43l-234 188q48 16 95.5 45t99 77.5t93.5 126t63 173.5l43 199h-29q-91 0 -164 -54t-110 -149q-33 48 -33 125q0 137 94.5 211t255.5 74q116 0 403.5 -13.5t387.5 -13.5q110 0 188 37l-47 -219q-58 -21 -156 -21q-61 0 -98 2l-88 -411q-8 -46 -8 -66q0 -40 21.5 -62
t62.5 -22t86.5 24.5t68.5 55.5q-43 -156 -134.5 -226.5t-207.5 -70.5q-110 0 -173.5 65.5t-63.5 168.5q0 40 12 92l100 463l-168 8l-77 -365q-41 -193 -107.5 -295t-175.5 -147z" />
    <glyph glyph-name="rho" unicode="&#x3c1;" horiz-adv-x="1124" 
d="M72 186l57 297q37 193 111 308q146 219 440 219q178 0 290.5 -111t112.5 -301q0 -109 -39.5 -217t-107 -193t-165 -137.5t-204.5 -52.5q-72 0 -129 34.5t-82 84.5q-18 -83 -18 -119q0 -48 37 -70.5t131 -46.5q153 -38 222 -84.5t69 -122.5q0 -77 -84 -130.5t-205 -55.5
q49 33 49 72q0 32 -46 54.5t-167 55.5q-73 20 -123 43t-92.5 59.5t-63 90.5t-20.5 127q0 48 27 196zM436 487l-22 -133q-4 -32 -4 -43q0 -106 108 -106q69 0 124 66.5t82.5 160.5t27.5 189q0 176 -109 176q-74 0 -128.5 -85.5t-78.5 -224.5z" />
    <glyph glyph-name="sigma1" unicode="&#x3c2;" horiz-adv-x="897" 
d="M371 -399q112 75 112 186q0 53 -40 91.5t-142 92.5q-128 65 -194 152.5t-66 214.5q0 124 49 243t131.5 209t199.5 145.5t245 55.5q123 0 181 -51.5t58 -132.5q0 -102 -83.5 -191.5t-192.5 -89.5q28 39 28 113q0 56 -22 96.5t-64 40.5q-46 0 -85.5 -40t-63.5 -98.5
t-37.5 -120.5t-13.5 -111q0 -67 26.5 -113.5t87.5 -79.5q136 -75 197 -140t61 -153q0 -138 -110.5 -225.5t-261.5 -93.5z" />
    <glyph glyph-name="sigma" unicode="&#x3c3;" horiz-adv-x="1142" 
d="M989 745h-37q52 -92 52 -227q0 -104 -43 -203t-116.5 -174t-179 -120.5t-223.5 -45.5q-102 0 -180.5 34t-125 93t-70 130.5t-23.5 152.5q0 120 46 227.5t126 185.5t194 123.5t244 45.5q48 0 176 -9.5t193 -9.5q122 0 199 31l-47 -219q-68 -15 -185 -15zM690 756
q-50 4 -69 4q-51 0 -95 -29t-72 -74.5t-48 -102t-28.5 -109.5t-8.5 -99q0 -74 25.5 -117t70.5 -43q69 0 124 76.5t82 182t27 210.5q0 60 -8 101z" />
    <glyph glyph-name="tau" unicode="&#x3c4;" horiz-adv-x="991" 
d="M301 291l102 469h-26q-91 0 -159.5 -51t-106.5 -146q-33 54 -33 127q0 135 91 206t249 71q79 0 245 -10.5t228 -10.5q106 0 178 37l-47 -219q-61 -21 -164 -21q-82 0 -133 5l-70 -322q-26 -123 -26 -160q0 -58 27 -80t89 -22q69 0 170 55q-104 -252 -385 -252
q-115 0 -179 61.5t-64 164.5q0 40 14 98z" />
    <glyph glyph-name="upsilon" unicode="&#x3c5;" horiz-adv-x="1161" 
d="M113 395l59 269q14 61 14 94q0 59 -32 87.5t-82 31.5l311 135q55 -22 90 -79t35 -147q0 -48 -12 -110l-62 -287q-10 -52 -10 -84q0 -57 26.5 -88t75.5 -31q77 0 141.5 86.5t104.5 276.5q21 95 21 174q0 90 -25.5 142.5t-67.5 52.5q95 92 222 92q87 0 145.5 -69.5
t58.5 -207.5q0 -61 -16 -149q-30 -157 -95 -277t-151 -191t-182.5 -106t-200.5 -35q-169 0 -275 83t-106 235q0 42 13 102z" />
    <glyph glyph-name="phi" unicode="&#x3c6;" horiz-adv-x="1544" 
d="M420 -385l76 350q-85 14 -159 46.5t-138.5 87.5t-102 141.5t-37.5 195.5q0 135 36.5 244t97.5 176t134.5 102t151.5 35q62 0 116.5 -27t66.5 -65q-117 -40 -200 -169t-83 -316q0 -186 160 -242l77 358q49 226 171 343.5t331 117.5q169 0 277 -103t108 -278
q0 -146 -52 -265.5t-145.5 -200t-219.5 -128.5t-277 -61l-64 -342h-325zM926 520l-74 -348q44 9 87 29.5t87 58t77 86.5t54 121t21 156q0 76 -25.5 116.5t-67.5 40.5q-61 0 -96.5 -67t-62.5 -193z" />
    <glyph glyph-name="chi" unicode="&#x3c7;" horiz-adv-x="1075" 
d="M-166 -371l488 654l-113 430q-26 96 -63 130t-109 36l436 114l117 -497l108 145q82 113 82 186q0 25 -11.5 41.5t-27.5 16.5q-12 0 -18 -2q59 121 192 121q64 0 106 -40.5t42 -105.5q0 -38 -15.5 -80t-49 -92.5t-57.5 -82t-69 -87.5l-210 -264l96 -369q50 -189 147 -192
l-401 -99l-111 435l-155 -215q-58 -81 -58 -123q0 -45 58 -60h-404z" />
    <glyph glyph-name="psi" unicode="&#x3c8;" horiz-adv-x="1550" 
d="M444 -385l76 352q-194 30 -300.5 133.5t-106.5 241.5q0 54 14 119l43 203q14 61 14 94q0 59 -32 87.5t-82 31.5l309 135q55 -22 90 -79t35 -147q0 -48 -12 -110l-46 -207q-10 -55 -10 -84q0 -74 27.5 -125t101.5 -80l207 961q14 75 14 106q0 92 -69 117h409l-245 -1176
q143 58 223 209.5t80 335.5q0 165 -70 185q40 46 87.5 69t115.5 23q85 0 142 -71t57 -206q0 -146 -55.5 -278.5t-148.5 -231t-216 -165.5t-258 -91l-68 -352h-326z" />
    <glyph glyph-name="omega" unicode="&#x3c9;" horiz-adv-x="1574" 
d="M602 375l51 239h305l-51 -245q-10 -55 -10 -84q0 -46 20 -72.5t60 -26.5q65 0 123 92.5t94 264.5q16 84 16 149t-32 130t-82 87q30 39 86 65.5t112 26.5q110 0 178 -77t68 -224q0 -64 -16 -143q-30 -144 -92 -258.5t-139 -183t-159.5 -104.5t-162.5 -36q-179 0 -269 134
q-64 -69 -136.5 -101.5t-166.5 -32.5q-66 0 -125.5 26t-108 76.5t-77.5 134t-29 189.5q0 80 17 164q41 216 152.5 323t256.5 107q65 0 116 -27.5t65 -66.5q-89 -29 -164 -117t-105 -229q-22 -110 -22 -178q0 -191 92 -191q47 0 81.5 49.5t53.5 139.5z" />
    <glyph glyph-name="iotadieresis" unicode="&#x3ca;" horiz-adv-x="722" 
d="M113 295l88 405q12 56 12 76q0 87 -121 101l500 122l-141 -657q-11 -46 -11 -80q0 -35 22 -56.5t56 -21.5q45 0 90.5 22.5t73.5 57.5q-41 -143 -128.5 -220t-219.5 -77q-107 0 -170.5 67.5t-63.5 168.5q0 32 13 92zM676 1098q-59 0 -95 37t-36 96q0 68 48 115t116 47
q59 0 94 -38t35 -98q0 -67 -47 -113t-115 -46zM246 1098q-59 0 -95 37t-36 96q0 68 48 115t116 47q59 0 94 -38t35 -98q0 -67 -47 -113t-115 -46z" />
    <glyph glyph-name="upsilondieresis" unicode="&#x3cb;" horiz-adv-x="1161" 
d="M113 395l59 269q14 61 14 94q0 59 -32 87.5t-82 31.5l311 135q55 -22 90 -79t35 -147q0 -48 -12 -110l-62 -287q-10 -52 -10 -84q0 -57 26.5 -88t75.5 -31q77 0 141.5 86.5t104.5 276.5q21 95 21 174q0 90 -25.5 142.5t-67.5 52.5q95 92 222 92q87 0 145.5 -69.5
t58.5 -207.5q0 -61 -16 -149q-30 -157 -95 -277t-151 -191t-182.5 -106t-200.5 -35q-169 0 -275 83t-106 235q0 42 13 102zM901 1098q-59 0 -95 37t-36 96q0 68 48 115t116 47q59 0 94 -38t35 -98q0 -67 -47 -113t-115 -46zM471 1098q-59 0 -95 37t-36 96q0 68 48 115
t116 47q59 0 94 -38t35 -98q0 -67 -47 -113t-115 -46z" />
    <glyph glyph-name="omicrontonos" unicode="&#x3cc;" horiz-adv-x="1071" 
d="M442 -25q-101 0 -180 34t-125.5 92.5t-70 129.5t-23.5 150q0 115 42.5 224t116.5 194t185 136.5t238 51.5q102 0 181.5 -33t126.5 -90t71 -127.5t24 -150.5q0 -82 -24 -166.5t-73 -164.5t-117.5 -142t-165 -100t-206.5 -38zM467 186q51 0 96 46.5t72.5 114.5t43 138
t15.5 123q0 66 -23 116t-73 50t-95 -47t-73 -115.5t-44.5 -139.5t-16.5 -124q0 -66 23 -114t75 -48zM614 1006l17 389h344z" />
    <glyph glyph-name="upsilontonos" unicode="&#x3cd;" horiz-adv-x="1161" 
d="M113 395l59 269q14 61 14 94q0 59 -32 87.5t-82 31.5l311 135q55 -22 90 -79t35 -147q0 -48 -12 -110l-62 -287q-10 -52 -10 -84q0 -57 26.5 -88t75.5 -31q77 0 141.5 86.5t104.5 276.5q21 95 21 174q0 90 -25.5 142.5t-67.5 52.5q95 92 222 92q87 0 145.5 -69.5
t58.5 -207.5q0 -61 -16 -149q-30 -157 -95 -277t-151 -191t-182.5 -106t-200.5 -35q-169 0 -275 83t-106 235q0 42 13 102zM621 1006l16 389h344z" />
    <glyph glyph-name="omegatonos" unicode="&#x3ce;" horiz-adv-x="1574" 
d="M602 375l51 239h305l-51 -245q-10 -55 -10 -84q0 -46 20 -72.5t60 -26.5q65 0 123 92.5t94 264.5q16 84 16 149t-32 130t-82 87q30 39 86 65.5t112 26.5q110 0 178 -77t68 -224q0 -64 -16 -143q-30 -144 -92 -258.5t-139 -183t-159.5 -104.5t-162.5 -36q-179 0 -269 134
q-64 -69 -136.5 -101.5t-166.5 -32.5q-66 0 -125.5 26t-108 76.5t-77.5 134t-29 189.5q0 80 17 164q41 216 152.5 323t256.5 107q65 0 116 -27.5t65 -66.5q-89 -29 -164 -117t-105 -229q-22 -110 -22 -178q0 -191 92 -191q47 0 81.5 49.5t53.5 139.5zM840 1006l16 389h344z
" />
    <glyph glyph-name="uni0400" unicode="&#x400;" horiz-adv-x="1171" 
d="M119 170l223 1032q6 27 6 53q0 50 -23 77t-55 32h969l-80 -397q-11 170 -227 170h-246l-70 -328h199q43 0 78.5 6.5t55 15t34 20.5t19.5 19t8 13l-78 -375q-2 31 -29.5 50.5t-60.5 25.5t-72 6h-199l-73 -363h258q92 0 147 14.5t95.5 49.5t84.5 106l-84 -397h-1030
q14 2 29.5 8.5t41 23.5t47 52.5t32.5 85.5zM539 1761h397l14 -338z" />
    <glyph glyph-name="afii10023" unicode="&#x401;" horiz-adv-x="1171" 
d="M119 170l223 1032q6 27 6 53q0 50 -23 77t-55 32h969l-80 -397q-11 170 -227 170h-246l-70 -328h199q43 0 78.5 6.5t55 15t34 20.5t19.5 19t8 13l-78 -375q-2 31 -29.5 50.5t-60.5 25.5t-72 6h-199l-73 -363h258q92 0 147 14.5t95.5 49.5t84.5 106l-84 -397h-1030
q14 2 29.5 8.5t41 23.5t47 52.5t32.5 85.5zM1004 1454q-60 0 -96 37t-36 96q0 68 48 115t116 47q59 0 94 -37.5t35 -97.5q0 -67 -46.5 -113.5t-114.5 -46.5zM573 1454q-59 0 -95 37t-36 96q0 68 48 115t116 47q59 0 94 -37.5t35 -97.5q0 -67 -47 -113.5t-115 -46.5z" />
    <glyph glyph-name="afii10051" unicode="&#x402;" horiz-adv-x="1576" 
d="M387 147l211 996h-145q-125 0 -198 -37t-120 -143l94 401h1219l-88 -401q-6 99 -57.5 139.5t-186.5 40.5h-158l-65 -307q136 47 272 47q176 0 279.5 -104t103.5 -273q0 -135 -52.5 -247t-142.5 -186t-209.5 -114.5t-254.5 -40.5q130 62 208.5 214.5t78.5 313.5
q0 99 -47.5 154t-127.5 55q-83 0 -151 -22l-102 -477q-7 -35 -7 -54q0 -35 13.5 -59t27.5 -32t27 -11h-551q19 3 40.5 13t49.5 45.5t39 88.5z" />
    <glyph glyph-name="afii10052" unicode="&#x403;" horiz-adv-x="1058" 
d="M98 170l224 1032q6 30 6 53q0 30 -9.5 52.5t-25 33.5t-26.5 16t-21 7h971l-80 -397q-11 170 -228 170h-243l-203 -971q-8 -40 -8 -55q0 -31 9.5 -54t24 -34.5t26 -16.5t20.5 -6h-586q14 2 29.5 8.5t41 23.5t46.5 52.5t32 85.5zM641 1423l150 338h397z" />
    <glyph glyph-name="afii10053" unicode="&#x404;" horiz-adv-x="1142" 
d="M520 801h307q83 0 127 24t56 49l-78 -374q0 3 -1 8.5t-9 20t-21.5 25t-43.5 19.5t-71 9h-317q-2 -25 -2 -60q0 -144 65.5 -228.5t194.5 -84.5q90 0 179.5 44t156.5 134l-64 -289q-66 -63 -174 -96t-231 -33q-229 0 -370.5 151t-141.5 390q0 170 68 331t182 282
t274.5 194.5t335.5 73.5q99 0 180.5 -22.5t124.5 -51.5l-84 -389q-34 114 -101.5 171.5t-150.5 57.5q-124 0 -227 -100.5t-164 -255.5z" />
    <glyph glyph-name="afii10054" unicode="&#x405;" horiz-adv-x="1087" 
d="M14 94l95 436q52 -153 158 -234t229 -81q70 0 113.5 37.5t43.5 97.5q0 39 -25.5 74.5t-65.5 66t-89 62.5t-98 71t-89 84t-65.5 109t-25.5 139q0 187 146.5 314t379.5 127q212 0 383 -105l-76 -364q-60 107 -149 168t-177 61q-67 0 -107 -32t-40 -93q0 -40 26.5 -77.5
t68.5 -70.5t93 -67.5t101.5 -75t92.5 -86t68.5 -108t26.5 -133.5q0 -193 -153.5 -320t-409.5 -127q-137 0 -265.5 40.5t-189.5 86.5z" />
    <glyph glyph-name="afii10055" unicode="&#x406;" horiz-adv-x="686" 
d="M96 147l223 1055q9 45 9 53q0 49 -21 76.5t-51 32.5h563q-12 -2 -26.5 -9t-37.5 -22.5t-42.5 -47.5t-28.5 -75l-225 -1054q-6 -27 -6 -52q0 -48 20 -75t47 -29h-551q11 1 25.5 7t35 20.5t39 45.5t27.5 74z" />
    <glyph glyph-name="afii10056" unicode="&#x407;" horiz-adv-x="686" 
d="M96 147l223 1055q9 45 9 53q0 49 -21 76.5t-51 32.5h563q-12 -2 -26.5 -9t-37.5 -22.5t-42.5 -47.5t-28.5 -75l-225 -1054q-6 -27 -6 -52q0 -48 20 -75t47 -29h-551q11 1 25.5 7t35 20.5t39 45.5t27.5 74zM782 1454q-59 0 -95 37t-36 96q0 68 48 115t116 47
q59 0 94 -37.5t35 -97.5q0 -67 -47 -113.5t-115 -46.5zM352 1454q-59 0 -95 37t-36 96q0 68 48 115t116 47q59 0 94 -37.5t35 -97.5q0 -67 -47 -113.5t-115 -46.5z" />
    <glyph glyph-name="afii10057" unicode="&#x408;" horiz-adv-x="714" 
d="M156 283l180 850q18 85 18 122q0 93 -71 109h567q-25 -7 -42 -16.5t-37 -29.5t-36 -57.5t-28 -91.5l-199 -931q-44 -208 -141 -312t-263 -104q-95 0 -169.5 36.5t-106.5 98.5q30 -10 76 -10q86 0 151 83.5t101 252.5z" />
    <glyph glyph-name="afii10058" unicode="&#x409;" horiz-adv-x="1914" 
d="M111 231l704 1133h322l55 -541h244q212 0 336 -87.5t124 -243.5q0 -145 -81.5 -258.5t-218.5 -173.5t-304 -60h-454q9 2 18.5 8.5t23.5 22t22.5 47.5t8.5 76q0 18 -2 30l-75 760l-428 -733q-58 -98 -58 -145q0 -32 15 -48t32 -18h-497q7 2 17.5 6.5t30.5 20.5t43 39.5
t55.5 66.5t66.5 98zM1255 225h25q108 0 181 66.5t73 171.5q0 63 -43 100t-129 37h-145z" />
    <glyph glyph-name="afii10059" unicode="&#x40a;" horiz-adv-x="1992" 
d="M94 147l225 1055q7 40 7 60q0 79 -70 102h557q-14 -3 -29 -10.5t-37 -23.5t-40 -47.5t-27 -72.5l-88 -401h426l86 393q6 34 6 60q0 28 -8 48t-22.5 31t-22 15t-19.5 8h557q-13 -3 -28 -10.5t-36.5 -23.5t-39.5 -47.5t-27 -72.5l-84 -387h119q212 0 336.5 -87.5
t124.5 -243.5q0 -145 -81.5 -258.5t-218.5 -173.5t-304 -60h-606q19 3 40.5 13t49.5 45.5t39 88.5l92 443h-426l-90 -434q-6 -30 -6 -54q0 -51 21.5 -74t45.5 -28h-545q12 2 26 9t34 21.5t37 45t26 71.5zM1253 225h90q108 0 181 66.5t73 171.5q0 63 -43 100t-129 37h-92z
" />
    <glyph glyph-name="afii10060" unicode="&#x40b;" horiz-adv-x="1665" 
d="M387 147l211 996h-145q-125 0 -198 -37t-120 -143l94 401h1221l-88 -401q-6 99 -57.5 139.5t-186.5 40.5h-160l-67 -312q160 54 289 54q175 0 272.5 -81t97.5 -239q0 -55 -16 -133l-47 -223q-17 -79 -17 -105q0 -81 66 -104h-555q15 5 24 8.5t28 17t32.5 32t29 53
t25.5 79.5l47 220q17 74 17 100q0 147 -162 147q-86 0 -174 -30l-100 -471q-7 -35 -7 -54q0 -35 13.5 -59t27.5 -32t27 -11h-551q19 3 40.5 13t49.5 45.5t39 88.5z" />
    <glyph glyph-name="afii10061" unicode="&#x40c;" horiz-adv-x="1421" 
d="M94 147l225 1055q7 35 7 55q0 29 -9 51t-23 33t-25 16t-21 7h563q-12 -2 -25.5 -8.5t-34.5 -22t-39.5 -48t-27.5 -75.5l-100 -462l409 421q103 106 103 158q0 30 -33 37h500q-85 -34 -215 -162l-443 -436l244 -549q38 -87 99.5 -147t107.5 -70h-479l-310 678l-108 -522
q-6 -30 -6 -52q0 -29 9 -51t22 -32.5t23.5 -15t18.5 -5.5h-559q10 1 24 7t34.5 20.5t39.5 45.5t29 74zM823 1423l150 338h397z" />
    <glyph glyph-name="uni040D" unicode="&#x40d;" horiz-adv-x="1497" 
d="M98 166l203 948q23 115 23 154q0 46 -17.5 66t-54.5 30h565q-19 -6 -31 -11.5t-32 -22t-35 -41t-32 -70t-30 -105.5l-118 -553l585 574q15 67 15 110q0 51 -16.5 79t-53.5 40h561q-39 -13 -61 -29.5t-44.5 -60.5t-39.5 -121l-207 -969q-14 -61 -14 -84q0 -86 71 -100
h-555q26 6 42.5 15.5t38 34t39.5 74t34 126.5l119 553l-584 -572q-20 -94 -20 -127q0 -54 18.5 -74.5t54.5 -29.5h-555q42 7 78 46t53 120zM621 1761h397l14 -338z" />
    <glyph glyph-name="afii10062" unicode="&#x40e;" horiz-adv-x="1464" 
d="M119 0l82 369q45 -138 174 -138q53 0 100 31t78 76l20 29l-282 843q-26 75 -52 109t-63 45h541q-64 -16 -64 -92q0 -27 15 -78l161 -498l322 473q49 70 49 123q0 51 -55 72h518q-67 -11 -225 -236l-582 -829q-132 -189 -255 -269.5t-273 -80.5q-146 0 -209 51zM1221 1825
l114 -76q-30 -57 -67 -107t-88 -98t-117.5 -76t-138.5 -28q-118 0 -183 52t-65 126q0 67 53 116.5t145 49.5q-6 -37 -6 -68q0 -56 26 -87.5t73 -31.5q36 0 71.5 19.5t69 56.5t58 70.5t55.5 81.5z" />
    <glyph glyph-name="afii10145" unicode="&#x40f;" horiz-adv-x="1466" 
d="M573 -371h-16q-3 42 -9.5 84t-23.5 96.5t-41 94.5t-66 68t-95 28h-361q105 27 135 164l215 1005q17 83 17 97q0 41 -21 66t-47 32h553q-24 -6 -40 -14.5t-35.5 -28t-34.5 -55.5t-27 -90l-203 -943h422l201 943q10 49 10 86q0 85 -68 102h551q-20 -6 -34 -13.5
t-33.5 -26.5t-35.5 -56t-28 -92l-198 -928q-25 -118 -25 -144q0 -88 68 -104h-355q-49 0 -100.5 -28.5t-92 -70t-78.5 -94.5t-62.5 -96.5t-41.5 -81.5z" />
    <glyph glyph-name="afii10017" unicode="&#x410;" horiz-adv-x="1480" 
d="M113 231l731 1133h319l125 -1153q5 -49 16 -88t22.5 -60.5t25.5 -36.5t23 -19.5t16 -6.5h-535q6 1 13.5 4t19 13.5t21 26t16 44.5t6.5 66q0 18 -2 30l-12 97h-478l-39 -72q-57 -108 -57 -143q0 -33 16 -48.5t33 -17.5h-495q15 4 35.5 16.5t72 68.5t107.5 146zM580 498
h315l-39 448z" />
    <glyph glyph-name="afii10018" unicode="&#x411;" horiz-adv-x="1218" 
d="M109 213l196 922q21 93 21 125q0 50 -18 71.5t-52 32.5h1012l-80 -397q-11 170 -227 170h-295l-64 -295h123q211 0 336 -90t125 -248q0 -149 -81.5 -265t-217.5 -177.5t-301 -61.5h-621q55 11 87 55t57 158zM473 225h100q105 0 177.5 70t72.5 178q0 66 -43 105.5
t-129 39.5h-98z" />
    <glyph glyph-name="afii10019" unicode="&#x412;" horiz-adv-x="1290" 
d="M92 166l215 1032q6 27 6 51q0 91 -84 115h615q83 0 161 -21t143 -61t104.5 -105t39.5 -145q0 -119 -77.5 -216t-206.5 -122q103 -27 163 -115t60 -196q0 -73 -32 -138.5t-98 -121.5t-182.5 -89.5t-269.5 -33.5h-682q11 2 23.5 8.5t33 23t39 51.5t29.5 83zM463 209h178
q107 0 163 56t56 132q0 87 -50.5 147t-141.5 60h-123zM590 809h153q85 0 134 56t49 128q0 67 -36.5 115.5t-109.5 48.5h-118z" />
    <glyph glyph-name="afii10020" unicode="&#x413;" horiz-adv-x="1058" 
d="M98 170l224 1032q6 30 6 53q0 30 -9.5 52.5t-25 33.5t-26.5 16t-21 7h971l-80 -397q-11 170 -228 170h-243l-203 -971q-8 -40 -8 -55q0 -31 9.5 -54t24 -34.5t26 -16.5t20.5 -6h-586q14 2 29.5 8.5t41 23.5t46.5 52.5t32 85.5z" />
    <glyph glyph-name="afii10021" unicode="&#x414;" horiz-adv-x="1488" 
d="M-106 -371l126 604h62q32 0 48 11t30 35l684 1085h319l111 -1081q5 -26 17.5 -38t45.5 -12h64l-129 -604h-19q-1 35 -9 78t-28 96t-49 96t-77 72t-107 29h-643q-58 0 -118.5 -29t-108.5 -72t-90.5 -95.5t-69.5 -96.5t-41 -78h-18zM422 231h496l-62 711z" />
    <glyph glyph-name="afii10022" unicode="&#x415;" horiz-adv-x="1171" 
d="M119 170l223 1032q6 27 6 53q0 50 -23 77t-55 32h969l-80 -397q-11 170 -227 170h-246l-70 -328h199q43 0 78.5 6.5t55 15t34 20.5t19.5 19t8 13l-78 -375q-2 31 -29.5 50.5t-60.5 25.5t-72 6h-199l-73 -363h258q92 0 147 14.5t95.5 49.5t84.5 106l-84 -397h-1030
q14 2 29.5 8.5t41 23.5t47 52.5t32.5 85.5z" />
    <glyph glyph-name="afii10024" unicode="&#x416;" horiz-adv-x="2103" 
d="M381 0h-498q99 34 318 266l477 508l-203 336q-36 60 -73.5 107.5t-64.5 73t-52.5 43t-38 23t-21.5 7.5h523q-64 -19 -64 -76q0 -70 70 -188l204 -342l76 358q15 74 15 113q0 37 -8 64.5t-20 41.5t-21 20.5t-17 8.5h528q-8 -2 -19 -7.5t-29.5 -22.5t-35.5 -43t-35.5 -72.5
t-31.5 -106.5l-76 -354l342 346q150 150 150 217q0 31 -37 43h547q-18 -4 -51.5 -19.5t-118.5 -78.5t-183 -160l-379 -375l246 -465q50 -95 99 -159.5t71 -82t37 -24.5h-453l-301 610l-77 -362q-19 -93 -19 -123q0 -35 7.5 -61t19.5 -38.5t21 -18.5t16 -7h-527
q12 2 28.5 12.5t41 35t48 76t38.5 122.5l78 364z" />
    <glyph glyph-name="afii10025" unicode="&#x417;" horiz-adv-x="1153" 
d="M4 78l84 389q32 -117 120.5 -187.5t223.5 -70.5q120 0 191 56t71 141q0 58 -48.5 96t-124 53.5t-177.5 15.5l49 230h119q136 0 214.5 51.5t78.5 159.5q0 62 -42 103.5t-118 41.5q-68 0 -137.5 -27t-124.5 -69.5t-95.5 -85.5t-66.5 -84l90 426q191 80 449 80
q173 0 292 -87.5t119 -232.5q0 -289 -358 -383q111 -27 180.5 -101.5t69.5 -178.5q0 -89 -35.5 -163t-95.5 -125.5t-140 -87.5t-168.5 -52.5t-181.5 -16.5q-310 0 -438 109z" />
    <glyph glyph-name="afii10026" unicode="&#x418;" horiz-adv-x="1497" 
d="M98 166l203 948q23 115 23 154q0 46 -17.5 66t-54.5 30h565q-19 -6 -31 -11.5t-32 -22t-35 -41t-32 -70t-30 -105.5l-118 -553l585 574q15 67 15 110q0 51 -16.5 79t-53.5 40h561q-39 -13 -61 -29.5t-44.5 -60.5t-39.5 -121l-207 -969q-14 -61 -14 -84q0 -86 71 -100
h-555q26 6 42.5 15.5t38 34t39.5 74t34 126.5l119 553l-584 -572q-20 -94 -20 -127q0 -54 18.5 -74.5t54.5 -29.5h-555q42 7 78 46t53 120z" />
    <glyph glyph-name="afii10027" unicode="&#x419;" horiz-adv-x="1497" 
d="M98 166l203 948q23 115 23 154q0 46 -17.5 66t-54.5 30h565q-19 -6 -31 -11.5t-32 -22t-35 -41t-32 -70t-30 -105.5l-118 -553l585 574q15 67 15 110q0 51 -16.5 79t-53.5 40h561q-39 -13 -61 -29.5t-44.5 -60.5t-39.5 -121l-207 -969q-14 -61 -14 -84q0 -86 71 -100
h-555q26 6 42.5 15.5t38 34t39.5 74t34 126.5l119 553l-584 -572q-20 -94 -20 -127q0 -54 18.5 -74.5t54.5 -29.5h-555q42 7 78 46t53 120zM1233 1825l115 -76q-30 -57 -67.5 -107t-88.5 -98t-117.5 -76t-138.5 -28q-118 0 -183 52t-65 126q0 67 53.5 116.5t145.5 49.5
q-6 -37 -6 -68q0 -56 25.5 -87.5t72.5 -31.5q36 0 71.5 19.5t69 56.5t58 70.5t55.5 81.5z" />
    <glyph glyph-name="afii10028" unicode="&#x41a;" horiz-adv-x="1421" 
d="M94 147l225 1055q7 35 7 55q0 29 -9 51t-23 33t-25 16t-21 7h563q-12 -2 -25.5 -8.5t-34.5 -22t-39.5 -48t-27.5 -75.5l-100 -462l409 421q103 106 103 158q0 30 -33 37h500q-85 -34 -215 -162l-443 -436l244 -549q38 -87 99.5 -147t107.5 -70h-479l-310 678l-108 -522
q-6 -30 -6 -52q0 -29 9 -51t22 -32.5t23.5 -15t18.5 -5.5h-559q10 1 24 7t34.5 20.5t39.5 45.5t29 74z" />
    <glyph glyph-name="afii10029" unicode="&#x41b;" horiz-adv-x="1480" 
d="M113 231l731 1133h319l125 -1153q5 -49 16 -88t22.5 -60.5t25.5 -36.5t23 -19.5t16 -6.5h-537q6 1 13.5 4t19 13.5t21 26t16 44.5t6.5 66q0 18 -2 30l-72 760l-448 -733q-58 -92 -58 -145q0 -33 16 -48.5t33 -17.5h-501q7 2 16.5 6.5t29.5 20t43 39t56.5 66.5t69.5 99z
" />
    <glyph glyph-name="afii10030" unicode="&#x41c;" horiz-adv-x="1875" 
d="M158 266l186 860q10 44 10 91q0 120 -102 147h524l193 -748l485 748h535q-10 -2 -22 -7t-33.5 -21.5t-40.5 -41t-39 -70.5t-33 -104l-189 -866q-12 -54 -12 -111q0 -41 9 -70.5t23.5 -44t25 -20.5t20.5 -8h-563q9 2 19 6.5t29 21.5t36 42.5t36 73.5t33 110l146 655
l-623 -942l-244 944l-139 -647q-12 -62 -12 -106q0 -46 11 -79t29 -48.5t30 -22t24 -8.5h-541q11 2 25 7t38 23t45.5 45t44 77t36.5 114z" />
    <glyph glyph-name="afii10031" unicode="&#x41d;" horiz-adv-x="1497" 
d="M94 147l225 1055q7 40 7 60q0 84 -70 102h563q-12 -2 -26.5 -9t-37.5 -22.5t-42.5 -47.5t-28.5 -75l-88 -401h451l86 393q6 34 6 60q0 84 -72 102h563q-12 -2 -26.5 -9t-36.5 -22.5t-41.5 -47.5t-28.5 -75l-225 -1054q-8 -40 -8 -54q0 -28 8.5 -49t21 -31.5t22.5 -15.5
t19 -6h-559q11 1 26 7t36.5 20.5t40.5 45.5t28 74l92 443h-450l-90 -434q-6 -30 -6 -54q0 -29 8 -50t21 -31.5t23 -15t19 -5.5h-557q10 1 24 7t34.5 20.5t39.5 45.5t29 74z" />
    <glyph glyph-name="afii10032" unicode="&#x41e;" horiz-adv-x="1415" 
d="M608 -31q-246 0 -386 150.5t-140 400.5q0 169 62.5 329t169 280.5t258 194t319.5 73.5t289.5 -72t181 -193.5t59.5 -279.5q0 -163 -61.5 -322.5t-167.5 -283.5t-259.5 -200.5t-324.5 -76.5zM651 209q82 0 155 63t121.5 161t76.5 215.5t28 228.5q0 129 -45 204.5
t-137 75.5q-105 0 -193.5 -108t-135 -261t-46.5 -303q0 -127 43.5 -201.5t132.5 -74.5z" />
    <glyph glyph-name="afii10033" unicode="&#x41f;" horiz-adv-x="1466" 
d="M102 188l199 928q25 118 25 144q0 87 -70 104h1343q-105 -27 -135 -164l-215 -1005q-16 -78 -16 -97q0 -43 21.5 -68t48.5 -30h-555q24 6 40 14.5t36 28t35 55.5t26 90l202 949h-419l-203 -949q-10 -49 -10 -86q0 -85 67 -102h-551q20 6 34 13.5t33.5 26.5t35.5 56t28 92
z" />
    <glyph glyph-name="afii10034" unicode="&#x420;" horiz-adv-x="1271" 
d="M94 147l228 1055q8 36 8 55q0 29 -9 51t-23 33t-25 16t-21 7h596q114 0 203.5 -30.5t144 -83.5t83 -119t28.5 -142q0 -90 -38.5 -177t-108 -158t-178.5 -114.5t-239 -43.5q-117 0 -208 26l-78 -366q-6 -30 -6 -52q0 -29 9 -51t22 -32.5t23.5 -15t18.5 -5.5h-557
q10 1 24 7t34.5 20.5t39.5 45.5t29 74zM674 1157l-96 -428q50 -16 104 -16q123 0 192.5 82t69.5 186q0 75 -39.5 125.5t-109.5 50.5h-121z" />
    <glyph glyph-name="afii10035" unicode="&#x421;" horiz-adv-x="1142" 
d="M1063 387l-64 -289q-66 -63 -174 -96t-231 -33q-229 0 -370.5 151t-141.5 390q0 170 68 331t182 282t274.5 194.5t335.5 73.5q99 0 180.5 -22.5t124.5 -51.5l-84 -389q-34 114 -101.5 171.5t-150.5 57.5q-93 0 -177.5 -61t-140.5 -155.5t-89 -205.5t-33 -213
q0 -144 63.5 -228.5t192.5 -84.5q90 0 179.5 44t156.5 134z" />
    <glyph glyph-name="afii10036" unicode="&#x422;" horiz-adv-x="1271" 
d="M387 147l211 996h-145q-125 0 -198 -37t-120 -143l94 401h1201l-89 -401q-6 100 -57 140t-186 40h-140l-210 -987q-7 -35 -7 -54q0 -28 8.5 -49t21 -31.5t23 -15.5t19.5 -6h-557q11 1 26 7t36.5 20.5t40.5 45.5t28 74z" />
    <glyph glyph-name="afii10037" unicode="&#x423;" horiz-adv-x="1464" 
d="M119 0l82 369q45 -138 174 -138q53 0 100 31t78 76l20 29l-282 843q-26 75 -52 109t-63 45h541q-64 -16 -64 -92q0 -27 15 -78l161 -498l322 473q49 70 49 123q0 51 -55 72h518q-67 -11 -225 -236l-582 -829q-132 -189 -255 -269.5t-273 -80.5q-146 0 -209 51z" />
    <glyph glyph-name="afii10038" unicode="&#x424;" horiz-adv-x="1615" 
d="M569 131l4 23q-221 31 -351 152t-130 300q0 127 55.5 235.5t152.5 184.5t224.5 124t274.5 64l4 21q6 30 6 53q0 50 -20 76t-41 33h507q-13 -3 -27 -10.5t-35 -24t-39.5 -49t-27.5 -76.5l-4 -20q225 -28 355.5 -147.5t130.5 -297.5q0 -169 -95 -303.5t-254 -212.5
t-362 -100l-4 -21q-6 -37 -6 -61q0 -54 20 -78t43 -29h-506q94 28 125 164zM1073 981l-127 -598q127 20 218 120.5t91 246.5q0 89 -47.5 148.5t-134.5 82.5zM623 385l127 600q-128 -25 -214.5 -120.5t-86.5 -239.5q0 -95 47.5 -157t126.5 -83z" />
    <glyph glyph-name="afii10039" unicode="&#x425;" horiz-adv-x="1325" 
d="M88 172l438 504l-219 541q-22 55 -50 90.5t-42.5 44t-26.5 12.5h531q-53 -21 -53 -74q0 -26 18 -73l100 -248l215 248q58 66 58 104q0 6 -1.5 11t-3 8.5t-5 7t-6 5.5t-7 4t-6 3t-6.5 2l-4 2h495q-73 -21 -180 -147l-440 -510l217 -535q19 -50 40 -86t38.5 -53t28 -24
t18.5 -9h-526q9 1 18 7t19 24t10 45q0 32 -25 96l-96 240l-205 -240q-70 -83 -70 -127q0 -35 29 -45h-489q45 6 188 172z" />
    <glyph glyph-name="afii10040" unicode="&#x426;" horiz-adv-x="1486" 
d="M96 164l215 1005q17 83 17 97q0 41 -21 66t-47 32h553q-24 -6 -40 -14.5t-35.5 -28t-34.5 -55.5t-27 -90l-203 -943h422l201 943q10 49 10 86q0 85 -68 102h551q-20 -6 -34 -13.5t-33.5 -26.5t-35.5 -56t-28 -92l-180 -842q-6 -30 -6 -45q0 -56 59 -56h58l-129 -604h-17
q-1 35 -9.5 78t-29 96t-50 96t-77.5 72t-106 29h-1010q105 27 135 164z" />
    <glyph glyph-name="afii10041" unicode="&#x427;" horiz-adv-x="1363" 
d="M795 246l59 286q-146 -53 -287 -53q-175 0 -272.5 81t-97.5 239q0 58 16 133l47 223q16 74 16 105q0 82 -65 104h555q-15 -5 -24 -8.5t-28 -17t-32.5 -32t-29 -53t-25.5 -79.5l-47 -220q-17 -74 -17 -100q0 -147 162 -147q86 0 174 30l82 381q25 117 25 137q0 92 -72 109
h561q-54 -18 -86.5 -56.5t-54.5 -144.5l-207 -966q-17 -79 -17 -103q0 -31 14 -53t28.5 -30t27.5 -11h-579q13 2 26.5 7t35.5 21t41 41t38.5 71t32.5 106z" />
    <glyph glyph-name="afii10042" unicode="&#x428;" horiz-adv-x="2015" 
d="M96 164l215 1005q17 83 17 97q0 41 -21 66t-47 32h537q-32 -9 -53 -21.5t-45.5 -54.5t-39.5 -112l-202 -943h329l201 943q10 49 10 86q0 85 -67 102h534q-20 -6 -34 -13.5t-33.5 -26.5t-35.5 -56t-28 -92l-203 -943h330l201 943q10 49 10 86q0 85 -67 102h534
q-20 -6 -34 -13.5t-33.5 -26.5t-35.5 -56t-28 -92l-199 -928q-24 -113 -24 -144q0 -88 65 -104h-1888q105 27 135 164z" />
    <glyph glyph-name="afii10043" unicode="&#x429;" horiz-adv-x="2035" 
d="M96 164l215 1005q17 83 17 97q0 41 -21 66t-47 32h537q-32 -9 -53 -21.5t-45.5 -54.5t-39.5 -112l-202 -943h329l201 943q10 49 10 86q0 85 -67 102h534q-20 -6 -34 -13.5t-33.5 -26.5t-35.5 -56t-28 -92l-203 -943h330l201 943q10 49 10 86q0 85 -67 102h534
q-20 -6 -34 -13.5t-33.5 -26.5t-35.5 -56t-28 -92l-180 -842q-6 -30 -6 -45q0 -56 59 -56h57l-129 -604h-16q-1 35 -9.5 78t-29 96t-50 96t-77.5 72t-106 29h-1559q105 27 135 164z" />
    <glyph glyph-name="afii10044" unicode="&#x42a;" horiz-adv-x="1499" 
d="M399 213l199 930h-145q-125 0 -198 -37t-120 -143l94 401h891q-118 -28 -153 -188l-70 -316h113q211 0 335.5 -91.5t124.5 -254.5q0 -152 -81.5 -270t-218.5 -181t-304 -63h-610q54 11 86 55t57 158zM764 225h90q108 0 181 72.5t73 187.5q0 69 -43 110.5t-129 41.5h-88z
" />
    <glyph glyph-name="afii10045" unicode="&#x42b;" horiz-adv-x="1865" 
d="M109 213l196 922q21 93 21 125q0 50 -18 71.5t-52 32.5h573q-118 -28 -153 -188l-70 -316h113q212 0 336.5 -91.5t124.5 -254.5q0 -152 -81.5 -270t-219 -181t-304.5 -63h-610q55 11 87 55t57 158zM473 225h90q108 0 181 72.5t73 187.5q0 69 -43 110.5t-129 41.5h-88z
M1278 147l223 1055q8 40 8 53q0 49 -21 76.5t-50 32.5h563q-12 -2 -26.5 -9t-37.5 -22.5t-42.5 -47.5t-28.5 -75l-226 -1054q-6 -27 -6 -52q0 -48 20.5 -75t47.5 -29h-551q11 1 25.5 7t35 20.5t39 45.5t27.5 74z" />
    <glyph glyph-name="afii10046" unicode="&#x42c;" horiz-adv-x="1218" 
d="M109 213l196 922q21 93 21 125q0 50 -18 71.5t-52 32.5h573q-118 -28 -153 -188l-70 -316h123q212 0 336.5 -91.5t124.5 -254.5q0 -152 -81.5 -270t-218.5 -181t-304 -63h-621q55 11 87 55t57 158zM473 225h100q108 0 181 72.5t73 187.5q0 69 -43 110.5t-129 41.5h-98z
" />
    <glyph glyph-name="afii10047" unicode="&#x42d;" horiz-adv-x="1167" 
d="M2 43l84 389q33 -112 109 -167.5t170 -55.5q131 0 228.5 102.5t145.5 270.5h-315q-83 0 -126.5 -24.5t-55.5 -49.5l77 375q7 -20 13 -31t21 -25t42.5 -20t69.5 -6h317q2 12 2 49q0 137 -67 222t-195 85q-88 0 -178.5 -46.5t-157.5 -137.5l74 344q191 80 395 80
q231 0 371.5 -149.5t140.5 -397.5q0 -171 -63.5 -331t-173 -281.5t-267.5 -195t-335 -73.5q-101 0 -193 23t-133 51z" />
    <glyph glyph-name="afii10048" unicode="&#x42e;" horiz-adv-x="2072" 
d="M94 147l225 1055q7 40 7 60q0 79 -70 102h557q-14 -3 -29 -10.5t-37 -23.5t-40 -47.5t-27 -72.5l-88 -401h215q41 124 114 231t168.5 186.5t216 125t250.5 45.5q253 0 388 -151t135 -394q0 -131 -38 -260t-110 -240.5t-168.5 -197.5t-222.5 -135.5t-262 -49.5
q-241 0 -379.5 151t-138.5 400q0 39 2 70h-217l-90 -434q-6 -30 -6 -54q0 -51 21.5 -74t45.5 -28h-545q12 2 26 9t34 21.5t37 45t26 71.5zM1323 209q79 0 149.5 63t117 161.5t73.5 215.5t27 228q0 129 -42 204.5t-130 75.5q-77 0 -146.5 -63.5t-116.5 -162.5t-74.5 -217.5
t-27.5 -228.5q0 -128 41.5 -202t128.5 -74z" />
    <glyph glyph-name="afii10049" unicode="&#x42f;" horiz-adv-x="1312" 
d="M86 174l182 252q77 109 178 164q-105 41 -169 122t-64 199q0 87 30 161t83.5 127t126.5 90.5t159.5 56t182.5 18.5h651q-14 -4 -23 -7t-28.5 -17t-34 -33.5t-31 -57t-26.5 -86.5l-207 -966q-17 -83 -17 -103q0 -43 24 -66t46 -28h-567q1 0 3 1t3 1q17 4 28 8t30.5 17
t33 31.5t28.5 54.5t25 84l64 303h-21q-40 0 -74 -25t-79 -94l-258 -381h-484q10 1 27.5 9.5t45 26.5t63 54t69.5 84zM741 735h107l86 402h-123q-106 0 -173 -66t-67 -170q0 -72 42.5 -119t127.5 -47z" />
    <glyph glyph-name="afii10065" unicode="&#x430;" horiz-adv-x="1120" 
d="M586 -31l14 127q-64 -63 -147 -95t-160 -32q-120 0 -185 96t-65 244q0 134 49 257t131 212t196 142t238 53q73 0 134 -10q15 -2 41.5 -7.5t42.5 -7.5t32 -2q89 0 187 49l-144 -665q-20 -92 -20 -133q0 -48 27.5 -76.5t76.5 -34.5l15 -2zM465 203q37 0 80 45t69 110
q20 47 51 178.5t31 178.5q0 37 -15.5 56.5t-43.5 19.5q-63 0 -122.5 -66t-95.5 -171.5t-36 -215.5q0 -135 82 -135z" />
    <glyph glyph-name="afii10066" unicode="&#x431;" horiz-adv-x="1144" 
d="M856 1393l117 12q177 18 250 78q-24 -127 -86.5 -218.5t-171.5 -121.5q-58 -17 -193 -21q-40 -1 -61.5 -3t-51.5 -10t-49 -22q-34 -25 -60.5 -75t-36 -83t-24.5 -93q68 52 153.5 87t172.5 35q124 0 202.5 -94.5t78.5 -255.5q0 -166 -71.5 -309.5t-207.5 -233.5t-307 -90
q-198 0 -316 112t-118 331q0 72 16 166q62 355 266 577q178 198 498 232zM442 633q-18 -67 -26 -113q-17 -97 -17 -149q0 -92 31 -138.5t88 -46.5q68 0 123.5 65.5t82 147.5t26.5 150q0 76 -31.5 123t-91.5 47q-89 0 -185 -86z" />
    <glyph glyph-name="afii10067" unicode="&#x432;" horiz-adv-x="1034" 
d="M788 496q87 -23 138 -76t51 -133q0 -132 -138.5 -224t-369.5 -92q-113 0 -198.5 35.5t-133.5 95t-71 128.5t-23 145q0 171 79.5 311.5t223 222.5t322.5 82q92 0 162.5 -22t110.5 -58.5t59.5 -79t19.5 -88.5q0 -96 -64 -158t-168 -89zM502 371h-142v-29q0 -178 148 -178
q69 0 111.5 31.5t42.5 78.5q0 45 -41 71t-119 26zM397 551h113q89 0 143 38.5t54 108.5q0 44 -25.5 72.5t-71.5 28.5q-67 0 -125 -72.5t-88 -175.5z" />
    <glyph glyph-name="afii10068" unicode="&#x433;" horiz-adv-x="864" 
d="M786 389l-67 -340q-57 -37 -145.5 -58.5t-180.5 -21.5q-173 0 -271.5 76t-98.5 195q0 117 69.5 193t224.5 145q20 9 46 20.5t41.5 18t35 15.5t30 15t23.5 13.5t20 14t13 14t8.5 15.5t2.5 17q0 53 -88 53q-98 0 -159 -39.5t-71 -95.5q-49 25 -76.5 64t-27.5 79
q0 97 106.5 155t278.5 58q156 0 248 -75t92 -195q0 -108 -59.5 -189t-190.5 -141q-29 -14 -66.5 -30.5t-56 -25t-42 -19.5t-33.5 -18.5t-20.5 -17.5t-14 -20.5t-3.5 -23.5q0 -26 25 -44t70 -18q87 0 178.5 60.5t158.5 150.5z" />
    <glyph glyph-name="afii10069" unicode="&#x434;" horiz-adv-x="1122" 
d="M301 1094q39 136 169 231.5t288 95.5q81 0 148 -26t120.5 -80t83 -146t29.5 -215q0 -91 -11.5 -184t-37.5 -190t-64 -184.5t-94.5 -165t-124.5 -134t-158.5 -89t-193.5 -32.5q-113 0 -204 46t-146.5 138.5t-55.5 215.5q0 114 38 221.5t106.5 192.5t173.5 136.5t229 51.5
q142 0 219 -92q0 9 1 26.5t1 30.5q0 113 -58.5 186.5t-158.5 73.5q-162 0 -299 -108zM791 684q-84 80 -168 80q-106 0 -177 -120t-71 -292q0 -79 28.5 -122.5t79.5 -43.5q61 0 115.5 53t92 136t62.5 160.5t38 148.5z" />
    <glyph glyph-name="afii10070" unicode="&#x435;" horiz-adv-x="958" 
d="M877 303q-49 -157 -180 -246.5t-281 -89.5q-173 0 -273 102.5t-100 274.5q0 122 48 239t131 207.5t204.5 145.5t257.5 55q53 0 101.5 -13.5t90.5 -41t67.5 -76t25.5 -112.5q0 -50 -18.5 -100t-64 -102t-113 -93t-173.5 -69.5t-238 -35.5q2 -17 15 -47q47 -115 182 -115
q76 0 162.5 32.5t155.5 84.5zM360 516q43 2 95 14t105.5 34.5t89.5 62.5t36 90q0 38 -21 60t-57 22q-68 0 -146.5 -80.5t-101.5 -202.5z" />
    <glyph glyph-name="afii10072" unicode="&#x436;" horiz-adv-x="2019" 
d="M766 0l108 508l-204 -270q-205 -271 -459 -271q-92 0 -145.5 47t-53.5 127q0 87 75.5 152t178.5 76q-30 -43 -30 -99q0 -88 75 -88q70 0 128.5 108.5t58.5 244.5q0 241 -158 241q-109 0 -217 -108q47 158 142 241.5t222 83.5q148 0 229 -96t81 -256q0 -47 -6 -90l129 170
l51 237h301l-109 -514l211 279q204 270 459 270q92 0 145.5 -47t53.5 -127q0 -87 -75.5 -151.5t-178.5 -75.5q30 43 30 98q0 88 -75 88q-70 0 -128.5 -108t-58.5 -244q0 -242 158 -242q108 0 217 109q-47 -158 -142.5 -242t-222.5 -84q-148 0 -228.5 96t-80.5 256q0 47 6 91
l-135 -179l-49 -231h-303z" />
    <glyph glyph-name="afii10073" unicode="&#x437;" horiz-adv-x="892" 
d="M-14 25l61 292q40 -75 109.5 -115t158.5 -40q93 0 137 38t44 89q0 48 -45.5 76t-128.5 28h-107l37 178h82q123 0 185.5 37.5t62.5 100.5q0 42 -32.5 67t-90.5 25q-82 0 -142.5 -40.5t-93.5 -107.5q-88 56 -88 142q0 98 104 148t273 50q170 0 266 -68.5t96 -181.5
q0 -57 -21 -101t-58.5 -72t-75 -44.5t-84.5 -29.5q88 -25 136 -80.5t48 -130.5q0 -149 -137 -232.5t-373 -83.5q-91 0 -180.5 15t-142.5 41z" />
    <glyph glyph-name="afii10074" unicode="&#x438;" horiz-adv-x="1138" 
d="M92 270l78 387q16 85 16 123q0 50 -20 68t-70 26l-12 3l485 118l-145 -669q-6 -30 -6 -56q0 -84 71 -84q44 0 88.5 44.5t61.5 113.5l74 313q20 84 20 131q0 24 -6.5 39.5t-21.5 24.5t-29 13t-39 9l-10 3l483 118l-172 -788q-6 -21 -6 -39q0 -33 24.5 -51.5t77.5 -26.5
l15 -2l-461 -119l24 119q-57 -54 -141 -85.5t-172 -31.5q-221 0 -221 187q0 44 14 112z" />
    <glyph glyph-name="afii10075" unicode="&#x439;" horiz-adv-x="1138" 
d="M92 270l78 387q16 85 16 123q0 50 -20 68t-70 26l-12 3l485 118l-145 -669q-6 -30 -6 -56q0 -84 71 -84q44 0 88.5 44.5t61.5 113.5l74 313q20 84 20 131q0 24 -6.5 39.5t-21.5 24.5t-29 13t-39 9l-10 3l483 118l-172 -788q-6 -21 -6 -39q0 -33 24.5 -51.5t77.5 -26.5
l15 -2l-461 -119l24 119q-57 -54 -141 -85.5t-172 -31.5q-221 0 -221 187q0 44 14 112zM961 1473l114 -76q-30 -57 -67 -107t-88 -98.5t-117.5 -76.5t-138.5 -28q-118 0 -183 52.5t-65 126.5q0 67 53 116.5t145 49.5q-6 -38 -6 -68q0 -56 26 -87.5t73 -31.5q36 0 71.5 19.5
t69 56.5t58 70.5t55.5 81.5z" />
    <glyph glyph-name="afii10076" unicode="&#x43a;" horiz-adv-x="1177" 
d="M29 0l157 702q15 64 15 84q0 41 -37 64.5t-86 26.5l500 127l-111 -494q45 14 76 41q39 35 76 90.5t73.5 119t59.5 93.5q55 71 108 101t121 30q89 0 145 -54.5t56 -152.5q0 -29 -6 -59q-16 16 -47 28.5t-64 12.5q-66 0 -131 -74q-115 -129 -199 -192l174 -273
q63 -100 116.5 -135t119.5 -35q-42 -30 -114 -53t-148 -23q-94 0 -149.5 33t-112.5 109q-55 73 -175 299l-90 -416h-327z" />
    <glyph glyph-name="afii10077" unicode="&#x43b;" horiz-adv-x="1073" 
d="M-80 0l664 985h235l115 -784q9 -64 35.5 -93.5t79.5 -33.5l24 -2l-428 -115l-82 618l-221 -337q-57 -87 -57 -152q0 -21 9 -38t23.5 -26.5t24 -14.5t18.5 -7h-440z" />
    <glyph glyph-name="afii10078" unicode="&#x43c;" horiz-adv-x="1355" 
d="M29 0l166 760q10 46 10 88q0 86 -58 110h400l125 -460l311 460h344l-160 -770q-12 -59 -12 -94q0 -33 9.5 -54.5t18.5 -27.5t23 -12h-372l141 659l-457 -692l-178 672l-94 -444q-10 -41 -10 -84q0 -94 65 -111h-272z" />
    <glyph glyph-name="afii10079" unicode="&#x43d;" horiz-adv-x="1146" 
d="M31 0l153 702q15 68 15 78q0 45 -36.5 69.5t-86.5 27.5l493 122l-90 -419h238l80 378h323l-149 -702q-13 -70 -13 -106q0 -129 54 -150h-420l86 399h-238l-86 -399h-323z" />
    </font>
</defs>
</svg>
