<?xml version="1.0" standalone="no"?>
<!DOCTYPE svg PUBLIC "-//W3C//DTD SVG 1.1//EN" "http://www.w3.org/Graphics/SVG/1.1/DTD/svg11.dtd" >
<svg xmlns="http://www.w3.org/2000/svg" xmlns:xlink="http://www.w3.org/1999/xlink" version="1.1">
<metadata>
Created by FontForge 20201107 at Sat Sep  7 07:40:01 2024
 By 
Copyright (c) 2008, 2013 by Nick Shinn. Published by Shinn Type Foundry. All rights reserved. Customized and extended for Riot Games by Monotype Imaging, Inc.
</metadata>
<defs>
<font id="BeaufortforLOL-Medium" horiz-adv-x="966" >
  <font-face 
    font-family="Beaufort for LOL Medium"
    font-weight="500"
    font-stretch="normal"
    units-per-em="2048"
    panose-1="2 2 6 0 0 0 0 0 0 0"
    ascent="1520"
    descent="-528"
    x-height="958"
    cap-height="1364"
    bbox="-299 -483 2079 2048"
    underline-thickness="102"
    underline-position="-255"
    unicode-range="U+000D-FEFF"
  />
<missing-glyph horiz-adv-x="1048" 
d="M0 0v1470h1049v-1470h-1049zM102 102h844v1264h-844v-1264zM461 479l-4 39q0 70 8 111q7 41 43.5 91t77.5 89q43 39 68.5 77t25.5 85q0 70 -47 122t-109 52q-69 0 -112.5 -49t-55.5 -146l-102 17q13 137 84 208.5t192 71.5q110 0 182 -74.5t72 -193.5q0 -79 -30 -131
t-101 -117t-84 -94q-14 -35 -14 -158h-94zM455 240v137h114v-137h-114z" />
    <glyph glyph-name="fi" unicode="fi" horiz-adv-x="1138" 
d="M190 215v610h-161v133h161v54q0 193 88.5 301t235.5 108q23 0 45 -2.5t41 -6t21 -3.5v-213q-21 39 -56 60.5t-71 21.5q-52 0 -76.5 -45t-24.5 -146v-129h228v-133h-228v-610q0 -51 7.5 -91t17.5 -61.5t23 -36.5t22 -19.5t16 -6.5h-381q12 2 24.5 10t29.5 29t27.5 66.5
t10.5 109.5zM807 197v497q0 100 -26.5 136t-75.5 36h-23l330 135v-804q0 -58 10.5 -99.5t27.5 -60.5t29 -27t23 -10h-387q12 2 24.5 9.5t29.5 26.5t27.5 60.5t10.5 100.5zM756 1264q0 57 37.5 94t99.5 37t98.5 -37t36.5 -94t-37 -95.5t-98 -38.5q-62 0 -99.5 38.5
t-37.5 95.5z" />
    <glyph glyph-name="fl" unicode="fl" horiz-adv-x="1153" 
d="M190 215v610h-161v133h161v54q0 193 89 301t237 108q23 0 45 -2.5t41 -6t21 -3.5v-213q-21 39 -56 60.5t-71 21.5q-52 0 -77.5 -45t-25.5 -146v-129h230v-133h-230v-610q0 -51 7.5 -91t17.5 -61.5t23 -36.5t22 -19.5t16 -6.5h-381q12 2 24.5 10t29.5 29t27.5 66.5
t10.5 109.5zM811 197v895q0 64 -8 106t-24.5 62.5t-34.5 28t-44 7.5h-18l332 127v-1226q0 -57 10 -98t26 -60.5t28 -28t24 -10.5h-383q8 2 16.5 5.5t23.5 17t25.5 33t18.5 56.5t8 85z" />
    <glyph glyph-name=".notdef" horiz-adv-x="1048" 
d="M0 0v1470h1049v-1470h-1049zM102 102h844v1264h-844v-1264zM461 479l-4 39q0 70 8 111q7 41 43.5 91t77.5 89q43 39 68.5 77t25.5 85q0 70 -47 122t-109 52q-69 0 -112.5 -49t-55.5 -146l-102 17q13 137 84 208.5t192 71.5q110 0 182 -74.5t72 -193.5q0 -79 -30 -131
t-101 -117t-84 -94q-14 -35 -14 -158h-94zM455 240v137h114v-137h-114z" />
    <glyph glyph-name=".null" horiz-adv-x="0" 
 />
    <glyph glyph-name="nonmarkingreturn" horiz-adv-x="682" 
 />
    <glyph glyph-name="CR" unicode="&#xd;" horiz-adv-x="436" 
 />
    <glyph glyph-name="space" unicode=" " horiz-adv-x="436" 
 />
    <glyph glyph-name="exclam" unicode="!" horiz-adv-x="587" 
d="M207 621l-21 483q-3 62 -11 111t-16.5 74.5t-20 43.5t-17.5 23t-12 8h370q-5 -2 -11 -6.5t-17.5 -22t-20.5 -43t-17 -75t-10 -113.5l-20 -483q-1 -39 -8 -77.5t-16 -67t-20 -55t-19.5 -41.5t-16.5 -28l-8 -14l-8 14q-8 13 -16.5 28t-19.5 41.5t-20 55t-16 67t-8 77.5z
M160 102q0 56 37 92.5t98 36.5t98 -36.5t37 -92.5q0 -55 -37.5 -92t-97.5 -37q-61 0 -98 36.5t-37 92.5z" />
    <glyph glyph-name="quotedbl" unicode="&#x22;" horiz-adv-x="999" 
d="M696 739h-6q-10 16 -25 45.5t-40 118.5t-25 176v285h191v-285q0 -55 -10 -110.5t-23.5 -95t-27.5 -71t-24 -47.5zM303 739h-6q-10 16 -25 45.5t-40 118.5t-25 176v285h190v-285q0 -55 -9.5 -110.5t-23.5 -95t-28 -71t-24 -47.5z" />
    <glyph glyph-name="numbersign" unicode="#" horiz-adv-x="1093" 
d="M123 0l96 422h-184v96h207l82 346h-203v99h225l90 401h115l-92 -401h284l91 401h118l-92 -401h182v-99h-204l-80 -346h211v-96h-238l-98 -422h-111l96 422h-284l-103 -422h-108zM358 518h285l78 346h-283z" />
    <glyph glyph-name="dollar" unicode="$" horiz-adv-x="1081" 
d="M104 113v360q32 -105 104 -178.5t153.5 -105t166.5 -31.5q103 0 172.5 47t69.5 127q0 61 -35.5 110.5t-92 84t-124.5 66.5t-136.5 68t-125 78t-92 106.5t-35.5 145.5q0 136 81 231t226 121v173h187v-164q161 -13 272 -88v-306q-39 119 -141 184.5t-215 65.5
q-94 0 -157 -45.5t-63 -126.5q0 -53 36 -97.5t93 -77.5t126.5 -65.5t139 -70.5t126.5 -83t93 -112.5t36 -150.5q0 -85 -27.5 -151.5t-76.5 -109t-109 -67t-133 -35.5v-221h-187v217q-97 9 -185.5 36.5t-146.5 64.5z" />
    <glyph glyph-name="percent" unicode="%" horiz-adv-x="1452" 
d="M369 709q-94 0 -163.5 51t-101.5 127.5t-32 165.5t33 165.5t102 126.5t162 50q95 0 165 -50.5t102 -126.5t32 -165t-32.5 -165.5t-102.5 -127.5t-164 -51zM209 0l899 1364h135l-895 -1364h-139zM1075 -27q-94 0 -163 51t-100.5 127.5t-31.5 165.5t32.5 165t101.5 126.5
t161 50.5q94 0 164 -50.5t102.5 -126.5t32.5 -165t-32 -165.5t-102 -127.5t-165 -51zM371 821q65 0 101 60.5t36 169.5q0 108 -38 169.5t-103 61.5q-64 0 -99 -59t-35 -168q0 -110 36.5 -172t101.5 -62zM1079 90q66 0 100.5 59.5t34.5 169.5q0 108 -37 170t-102 62
q-64 0 -99.5 -61t-35.5 -171q0 -109 37 -169t102 -60z" />
    <glyph glyph-name="ampersand" unicode="&#x26;" horiz-adv-x="1560" 
d="M1100 889h370q-37 -20 -71.5 -72.5t-57.5 -124.5q-71 -225 -221 -407q193 -138 291 -138q37 0 65.5 18t63.5 58q-37 -126 -91.5 -190t-137.5 -64q-103 0 -344 172q-209 -174 -447 -174q-217 0 -332.5 91.5t-115.5 256.5q0 66 22.5 123.5t66.5 106t91.5 85.5t112.5 77
q-79 102 -122.5 184.5t-43.5 165.5q0 102 51.5 180t136 118t186.5 40q98 0 180.5 -32t136.5 -100t54 -161q0 -54 -17.5 -104t-43.5 -87t-69.5 -75.5t-80.5 -64.5t-92 -60q174 -193 348 -336q73 91 122.5 202t49.5 195q0 74 -61 117zM543 809q108 72 159.5 132t51.5 134
t-56 126t-135 52q-73 0 -121.5 -46t-48.5 -122q0 -14 2.5 -28.5t9.5 -31.5t12 -29.5t18 -33t19 -30.5t23 -33.5t21.5 -30t23.5 -31.5t21 -28zM834 238q-190 159 -371 362q-79 -57 -122.5 -112t-43.5 -123q0 -101 75 -170.5t189 -69.5q137 0 273 113z" />
    <glyph glyph-name="quotesingle" unicode="'" horiz-adv-x="520" 
d="M262 739h-6q-10 16 -25 45.5t-40 118.5t-25 176v285h190v-285q0 -55 -9.5 -110.5t-23.5 -95t-28 -71t-23 -47.5z" />
    <glyph glyph-name="parenleft" unicode="(" horiz-adv-x="655" 
d="M635 -412q-162 52 -289.5 192t-196.5 333t-69 403t68.5 400.5t195 329.5t289.5 194q-160 -115 -247 -369t-87 -547q0 -294 88.5 -552.5t247.5 -383.5z" />
    <glyph glyph-name="parenright" unicode=")" horiz-adv-x="655" 
d="M20 -412q160 117 249 372.5t89 547.5q0 294 -88 550.5t-247 381.5q162 -54 289 -195.5t195 -333t68 -399.5q0 -210 -69 -401t-196 -330t-290 -193z" />
    <glyph glyph-name="asterisk" unicode="*" horiz-adv-x="829" 
d="M72 938v236q128 -72 309 -87q-72 179 -170 287l215 72q-12 -68 -12 -137q0 -77 28 -199q149 135 207 260l133 -194q-159 -28 -301 -121q166 -107 295 -127l-131 -191q-20 42 -36.5 70.5t-61.5 83.5t-105 110q-32 -135 -32 -208q0 -63 12 -127l-215 69q32 35 51.5 59
t56 87t66.5 141q-184 -16 -309 -84z" />
    <glyph glyph-name="plus" unicode="+" horiz-adv-x="1380" 
d="M618 0v508h-487v143h487v502h148v-502h483v-143h-483v-508h-148z" />
    <glyph glyph-name="comma" unicode="," horiz-adv-x="493" 
d="M268 -2q-20 -10 -41 -10q-58 0 -90.5 37t-32.5 88q0 59 39.5 102t108.5 43q86 0 135 -71t49 -173q0 -66 -22 -131t-65 -121.5t-116 -94t-165 -42.5q88 38 150.5 124.5t62.5 178.5q0 41 -13 70z" />
    <glyph glyph-name="hyphen" unicode="-" horiz-adv-x="688" 
d="M94 442v158h502v-158h-502z" />
    <glyph glyph-name="period" unicode="." horiz-adv-x="493" 
d="M100 119q0 62 40.5 102.5t107.5 40.5q68 0 108.5 -41t40.5 -102t-41.5 -103.5t-107.5 -42.5q-67 0 -107.5 42t-40.5 104z" />
    <glyph glyph-name="slash" unicode="/" horiz-adv-x="903" 
d="M74 -29l596 1418h174l-592 -1418h-178z" />
    <glyph glyph-name="zero" unicode="0" horiz-adv-x="1081" 
d="M537 -31q-208 0 -335.5 178t-127.5 496q0 343 129 547.5t342 204.5q208 0 335.5 -185t127.5 -497q0 -338 -127.5 -541t-343.5 -203zM555 123q105 0 170.5 119t65.5 366q0 316 -76.5 473.5t-194.5 157.5q-105 0 -170 -123t-65 -362q0 -316 76 -473.5t194 -157.5z" />
    <glyph glyph-name="one" unicode="1" horiz-adv-x="1081" 
d="M471 256v844q-125 -125 -174 -182l-104 104q152 139 335 342h146v-1108q0 -199 110 -256h-422q13 7 22 12.5t27.5 25.5t29.5 45t20.5 70.5t9.5 102.5z" />
    <glyph glyph-name="two" unicode="2" horiz-adv-x="1081" 
d="M43 0l315 352q198 221 285.5 361t87.5 266q0 127 -71.5 197.5t-176.5 70.5q-93 0 -151 -50.5t-58 -119.5q0 -47 28 -83t79 -48l-156 -158q-62 21 -104.5 84t-42.5 144q0 73 29 139.5t84 121t145.5 86.5t202.5 32q81 0 154.5 -24.5t133 -71t94.5 -122t35 -169.5
q0 -63 -23 -131.5t-56.5 -129t-98 -145t-118.5 -147.5t-148 -168l-104 -117h374q105 0 164.5 32.5t81.5 69.5l-45 -272h-940z" />
    <glyph glyph-name="three" unicode="3" horiz-adv-x="1081" 
d="M37 207l184 137q29 -102 96 -163.5t179 -61.5q119 0 187.5 70.5t68.5 185.5q0 133 -119 211q-109 72 -350 82l393 526h-346q-105 0 -164.5 -32.5t-81.5 -69.5l45 272h864l-440 -569q114 -21 197 -61t129 -94.5t67 -113.5t21 -127q0 -193 -135.5 -311.5t-354.5 -118.5
q-165 0 -280 63.5t-160 174.5z" />
    <glyph glyph-name="four" unicode="4" horiz-adv-x="1081" 
d="M20 367v75l541 922h252v-836h191v-161h-191v-154q0 -163 66 -213h-328q59 51 59 215v152h-590zM240 528h370v633z" />
    <glyph glyph-name="five" unicode="5" horiz-adv-x="1081" 
d="M43 207l184 137q31 -111 102 -168t163 -57q128 0 197 70t69 182q0 181 -178 262q-107 49 -312 49h-121l72 682h492q152 0 227 39l-37 -209h-545l-34 -344q181 0 300.5 -34t206.5 -103q71 -57 107.5 -138t36.5 -172q0 -186 -132 -310t-360 -124q-89 0 -163.5 19.5
t-120 46.5t-80.5 62.5t-50 61t-24 48.5z" />
    <glyph glyph-name="six" unicode="6" horiz-adv-x="1081" 
d="M295 741l10 -6q52 78 131 123t170 45q96 0 174.5 -37t127 -99.5t74.5 -140.5t26 -163q0 -76 -18 -147t-55.5 -134.5t-91.5 -111t-131 -75.5t-169 -28q-219 0 -339 140.5t-120 379.5q0 183 70.5 361.5t197.5 319t287 214.5l324 -36q-225 -67 -399.5 -217.5t-268.5 -387.5z
M582 117q101 0 168 84.5t67 201.5q0 140 -75.5 243.5t-202.5 103.5q-106 0 -174 -87t-68 -202q0 -91 33 -168t99 -126.5t153 -49.5z" />
    <glyph glyph-name="seven" unicode="7" horiz-adv-x="1081" 
d="M549 0h-313q118 284 559 1200h-473q-174 0 -250 -129l45 293h946l-346 -723q-56 -119 -85 -186t-59 -176t-30 -199q0 -40 6 -80z" />
    <glyph glyph-name="eight" unicode="8" horiz-adv-x="1081" 
d="M360 696q-117 44 -178 132.5t-61 193.5q0 109 61.5 195.5t160 132t210.5 45.5q170 0 286.5 -91t116.5 -243q0 -105 -59 -195.5t-174 -128.5q148 -50 217.5 -146t69.5 -218t-67.5 -216t-176.5 -142t-238 -48q-124 0 -225.5 39t-167 124.5t-65.5 205.5q0 122 76.5 221
t213.5 139zM561 793q88 0 143.5 59.5t55.5 155.5q0 104 -65 174.5t-177 70.5q-92 0 -146.5 -56t-54.5 -150q0 -105 67.5 -179.5t176.5 -74.5zM281 389q0 -113 76.5 -192.5t203.5 -79.5q112 0 176 61.5t64 169.5q0 114 -79.5 195.5t-209.5 81.5q-107 0 -169 -67t-62 -169z
" />
    <glyph glyph-name="nine" unicode="9" horiz-adv-x="1081" 
d="M449 -18l-324 36q226 67 400 215.5t268 384.5l-11 7q-52 -78 -130 -123t-169 -45q-97 0 -175.5 37t-127 99.5t-74.5 141t-26 164.5q0 95 29 182.5t84.5 158t146 113t203.5 42.5q219 0 338.5 -141t119.5 -382q0 -280 -154.5 -528.5t-397.5 -361.5zM551 610q106 0 173 86.5
t67 202.5q0 90 -33.5 168t-100 128t-153.5 50q-100 0 -166 -86t-66 -203q0 -140 76 -243t203 -103z" />
    <glyph glyph-name="colon" unicode=":" horiz-adv-x="493" 
d="M98 750q0 61 41 102t109 41q67 0 107 -40.5t40 -102.5q0 -61 -40.5 -102.5t-106.5 -41.5q-68 0 -109 41t-41 103zM98 119q0 61 41 102t109 41q67 0 107 -40.5t40 -102.5t-40.5 -104t-106.5 -42q-67 0 -108.5 42t-41.5 104z" />
    <glyph glyph-name="semicolon" unicode=";" horiz-adv-x="493" 
d="M111 750q0 62 40 102.5t107 40.5q68 0 109 -41t41 -102t-42 -102.5t-108 -41.5q-67 0 -107 41t-40 103zM272 -2q-20 -10 -41 -10q-58 0 -89 36.5t-31 88.5q0 59 39.5 102t107.5 43q85 0 133.5 -71t48.5 -173q0 -66 -22 -131t-65 -121.5t-116 -94t-165 -42.5
q88 38 150.5 124.5t62.5 178.5q0 41 -13 70z" />
    <glyph glyph-name="less" unicode="&#x3c;" horiz-adv-x="1380" 
d="M197 520v119l985 541v-166l-803 -432v-13l803 -419v-168z" />
    <glyph glyph-name="equal" unicode="=" horiz-adv-x="1380" 
d="M131 727v145h1118v-145h-1118zM131 297v145h1118v-145h-1118z" />
    <glyph glyph-name="greater" unicode="&#x3e;" horiz-adv-x="1380" 
d="M197 -18v168l804 430v12l-804 422v166l985 -541v-119z" />
    <glyph glyph-name="question" unicode="?" horiz-adv-x="919" 
d="M158 1018v291q63 39 156.5 63.5t187.5 24.5q165 0 266.5 -78t101.5 -223q0 -60 -22 -116t-57.5 -99.5t-78 -84t-85.5 -78.5t-78.5 -75t-57.5 -79.5t-22 -86.5q0 -69 59 -98q-26 -29 -73 -29q-67 0 -118.5 46.5t-51.5 121.5q0 71 36.5 135.5t88 112.5t103 94.5t88 101.5
t36.5 113q0 79 -51 123.5t-127 44.5q-87 0 -170.5 -57.5t-130.5 -167.5zM293 100q0 54 36.5 90.5t96.5 36.5t96.5 -36t36.5 -91t-36.5 -91t-96.5 -36t-96.5 36t-36.5 91z" />
    <glyph glyph-name="at" unicode="@" horiz-adv-x="1886" 
d="M1657 -39l82 -47q-129 -143 -315.5 -222t-405.5 -79t-391 59.5t-282.5 166.5t-168 252.5t-57.5 320.5q0 193 69 360t190 283.5t290 183t364 66.5q209 0 375.5 -81t263 -236t96.5 -359q0 -161 -63 -305.5t-178 -235t-254 -90.5q-103 0 -153 44t-56 153
q-100 -197 -299 -197q-115 0 -181.5 89.5t-66.5 246.5q0 81 19 166t58 165.5t93 144t129.5 102t161.5 38.5q61 0 123 -18q6 -2 27 -8.5t32.5 -9.5t29.5 -6t32 -3q55 0 120 33l-112 -670q-4 -20 -4 -53q0 -56 24 -89.5t72 -33.5q58 0 117.5 36.5t109.5 102t81.5 170
t31.5 228.5q0 173 -78 308t-225 211.5t-340 76.5q-162 0 -308 -58.5t-253.5 -161.5t-170.5 -253.5t-63 -325.5q0 -156 53 -289.5t152.5 -231t251 -153t338.5 -55.5q191 0 356 69t283 195zM831 117q56 0 104 47.5t83 124.5q35 79 59.5 209t24.5 196q0 152 -139 152
q-68 0 -127.5 -84.5t-92 -201.5t-32.5 -224q0 -105 32.5 -162t87.5 -57z" />
    <glyph glyph-name="A" unicode="A" horiz-adv-x="1470" 
d="M410 0h-381q8 2 18 6.5t29 21.5t37.5 42t43.5 71.5t48 106.5l434 1116h176l442 -1120q23 -59 48 -104.5t45 -70t40 -41t31 -21.5t19 -7h-457q13 1 27 7.5t28.5 27.5t14.5 53q0 33 -33 117l-62 162h-538l-58 -156q-28 -76 -28 -113q0 -27 8.5 -47.5t22 -30.5t24.5 -14.5
t21 -5.5zM471 504h434l-219 567z" />
    <glyph glyph-name="B" unicode="B" horiz-adv-x="1196" 
d="M190 219v932q0 51 -9.5 90.5t-21.5 60.5t-29.5 36t-27 19t-20.5 7h594q94 0 168 -28t118.5 -75t67.5 -104.5t23 -120.5q0 -113 -68 -204t-178 -115q143 -20 227 -121t84 -234q0 -69 -25.5 -133t-73.5 -115.5t-125.5 -82.5t-172.5 -31h-627q9 2 18 6t24 19t26 37t19.5 63
t8.5 94zM416 145h219q131 0 188.5 65.5t57.5 164.5q0 116 -70 187t-195 71h-200v-488zM416 776h190q96 0 152.5 64.5t56.5 171.5q0 91 -60.5 150t-158.5 59h-180v-445z" />
    <glyph glyph-name="C" unicode="C" horiz-adv-x="1310" 
d="M1208 346v-184q-74 -87 -191.5 -140t-250.5 -53t-245.5 38t-191.5 103t-134.5 152.5t-82 186.5t-26.5 204q0 111 29 218t90 202.5t146 167.5t206 114t262 42q98 0 196 -23.5t165 -60.5v-361q-47 140 -148.5 213.5t-240.5 73.5q-111 0 -201 -46.5t-146 -124.5t-86 -174.5
t-30 -201.5q0 -106 30.5 -204t87.5 -177.5t149 -127.5t206 -48q109 0 220 57.5t187 153.5z" />
    <glyph glyph-name="D" unicode="D" horiz-adv-x="1429" 
d="M197 231v922q0 61 -13.5 105.5t-34.5 65.5t-36 29.5t-29 10.5h575q209 0 364.5 -84.5t237.5 -235.5t82 -348q0 -113 -26 -214.5t-81.5 -190t-136.5 -153t-197 -101.5t-257 -37h-551q9 2 18.5 6t26 19.5t28.5 38.5t21 66.5t9 100.5zM424 145h235q90 0 165 30.5t125.5 82.5
t85.5 121.5t51 145.5t16 157q0 254 -126 396.5t-370 142.5h-182v-1076z" />
    <glyph glyph-name="E" unicode="E" horiz-adv-x="1067" 
d="M186 219v934q0 50 -9.5 89.5t-22 60.5t-30.5 35.5t-27.5 18.5t-20.5 7h854v-305q-13 38 -26.5 63t-39.5 50t-68 37t-102 12h-280v-455h235q134 0 162 65v-278q-23 68 -158 68h-239v-476h297q131 0 193.5 39t113.5 144l-55 -328h-873q9 2 18 6t24 19t26 37t19.5 63t8.5 94
z" />
    <glyph glyph-name="F" unicode="F" horiz-adv-x="995" 
d="M195 211v944q0 179 -115 209h860v-303q-10 25 -17 40t-26.5 41t-43 40.5t-65 26.5t-94.5 12h-272v-455h240q130 0 159 78v-303q-1 5 -4 12t-13.5 20t-26.5 23t-46 17.5t-69 7.5h-240v-416q0 -49 8 -87t18.5 -58.5t25 -34.5t24.5 -18.5t20 -6.5h-424q13 2 26.5 10t32 28.5
t30.5 65t12 107.5z" />
    <glyph glyph-name="G" unicode="G" horiz-adv-x="1419" 
d="M997 164v266q0 44 -9.5 78t-21.5 52.5t-29.5 31.5t-27 17t-20.5 7h430q-12 -2 -25 -9.5t-32 -25.5t-31 -56t-12 -91v-379q-199 -88 -451 -88q-132 0 -244.5 37.5t-192.5 102t-136.5 151.5t-83.5 186.5t-27 206.5q0 116 29 224.5t89.5 203t146 165t206.5 111t264 40.5
q130 0 230.5 -25.5t160.5 -58.5v-305q-20 41 -51.5 78t-81 74t-124.5 59t-165 22q-210 0 -336 -154t-126 -395q0 -247 136.5 -404t356.5 -157q75 0 178 35z" />
    <glyph glyph-name="H" unicode="H" horiz-adv-x="1468" 
d="M180 209v946q0 179 -100 209h424q-8 -2 -17 -6t-24 -18.5t-26.5 -35t-20 -60t-8.5 -89.5v-389h653v389q0 61 -11.5 105t-29.5 64.5t-32 29t-27 10.5h423q-8 -2 -17 -6t-24 -18.5t-26.5 -35t-20 -60t-8.5 -89.5v-946q0 -61 10.5 -105t27.5 -64.5t30 -29t26 -10.5h-419
q13 2 26 10t31 28t29.5 64.5t11.5 106.5v412h-653v-412q0 -61 10.5 -105t27.5 -64.5t30 -29t26 -10.5h-418q12 2 25 10t31 28t29 64.5t11 106.5z" />
    <glyph glyph-name="I" unicode="I" horiz-adv-x="593" 
d="M184 197v964q0 173 -100 203h422q-11 -2 -23.5 -10.5t-30.5 -28.5t-30 -63t-12 -101v-964q0 -58 11 -99.5t29 -60.5t30.5 -27t23.5 -10h-418q12 2 24.5 9.5t31.5 26t30.5 60.5t11.5 101z" />
    <glyph glyph-name="J" unicode="J" horiz-adv-x="628" 
d="M221 311v850q0 59 -12 101.5t-31 62.5t-33.5 28.5t-27.5 10.5h426q-8 -2 -17 -6t-24.5 -18t-27 -34.5t-20 -59t-8.5 -87.5v-870q0 -221 -78 -325.5t-233 -104.5q-126 0 -211 88q37 -13 76 -13q221 0 221 377z" />
    <glyph glyph-name="K" unicode="K" horiz-adv-x="1363" 
d="M180 207v948q0 179 -100 209h422q-8 -2 -17 -6t-23.5 -18.5t-25.5 -35t-19.5 -60t-8.5 -89.5v-418l380 412q103 111 103 168q0 12 -4 21t-13.5 14.5t-13 7t-12.5 4.5h446q-14 -2 -35.5 -11t-60 -31t-94 -68.5t-115.5 -110.5l-366 -389l432 -529q57 -69 104.5 -116
t80.5 -68t50.5 -28.5t35.5 -11.5q4 -1 5 -1h-387l-536 668v-461q0 -60 10.5 -103.5t27 -64t29.5 -29t25 -10.5h-418q9 2 18 5.5t24.5 17.5t27 34.5t20 59.5t8.5 90z" />
    <glyph glyph-name="L" unicode="L" horiz-adv-x="1064" 
d="M180 229v924q0 182 -96 211h414q-12 -2 -25.5 -10.5t-31 -29.5t-29 -65.5t-11.5 -105.5v-1008h287q104 0 159 13.5t91 47t76 107.5l-47 -313h-873q7 1 16 5.5t22 19.5t23 38.5t17.5 66.5t7.5 99z" />
    <glyph glyph-name="M" unicode="M" horiz-adv-x="1726" 
d="M199 223v942q0 173 -115 199h393l404 -942l401 942h356q-9 -2 -18.5 -6t-24.5 -18t-26.5 -34.5t-20 -59t-8.5 -87.5v-948q0 -50 8.5 -89.5t20 -61t26.5 -35.5t24.5 -18.5t18.5 -6.5h-405q8 2 17 6t23 18.5t24.5 35.5t18 60.5t7.5 90.5v868l-479 -1108l-484 1104v-852
q0 -65 13.5 -112t34.5 -69t36.5 -31t28.5 -11h-389q10 2 21.5 6.5t29.5 19.5t31 37.5t23 64t10 95.5z" />
    <glyph glyph-name="N" unicode="N" horiz-adv-x="1429" 
d="M195 205v936q0 42 -15.5 79.5t-35 60.5t-46.5 42.5t-41.5 27t-29.5 13.5h344l714 -918v713q0 177 -106 205h375q-9 -2 -18.5 -6t-25 -18t-27 -34.5t-20 -59t-8.5 -87.5v-1159h-147q-5 15 -16.5 41.5t-59.5 107.5t-112 160l-553 688v-792q0 -49 9.5 -87t22 -58.5
t29.5 -34.5t28 -18.5t21 -6.5h-383q13 3 25.5 10t32 26.5t31.5 63t12 105.5z" />
    <glyph glyph-name="O" unicode="O" horiz-adv-x="1507" 
d="M735 -31q-191 0 -340 91.5t-230 250t-81 355.5q0 205 88.5 372t247.5 263t356 96q191 0 339 -91.5t228 -249.5t80 -356q0 -150 -50 -284t-139 -233t-218.5 -156.5t-280.5 -57.5zM778 131q181 0 299.5 142.5t118.5 375.5q0 257 -128 422.5t-337 165.5q-180 0 -299 -139
t-119 -371q0 -266 129.5 -431t335.5 -165z" />
    <glyph glyph-name="P" unicode="P" horiz-adv-x="1130" 
d="M180 207v944q0 51 -9.5 90.5t-21.5 60.5t-29.5 36t-27 19t-20.5 7h561q104 0 188 -33.5t137.5 -90t82 -129t28.5 -153.5q0 -88 -32 -166t-92 -137.5t-152 -94t-205 -34.5q-108 0 -193 25v-344q0 -60 12 -103.5t30.5 -64t33 -29t27.5 -10.5h-414q12 2 25 10t31 28t29 64
t11 105zM395 1221v-525q71 -22 176 -22q124 0 195.5 77t71.5 197q0 119 -73 196t-202 77h-168z" />
    <glyph glyph-name="Q" unicode="Q" horiz-adv-x="1507" 
d="M778 131q181 0 299.5 142.5t118.5 375.5q0 257 -128 422.5t-337 165.5q-180 0 -299 -139t-119 -371q0 -266 129.5 -431t335.5 -165zM864 -18q-54 -13 -129 -13q-191 0 -340 91.5t-230 250t-81 355.5q0 205 88.5 372t247.5 263t356 96q191 0 339 -91.5t228 -249.5t80 -356
q0 -197 -80.5 -356t-212.5 -252q71 -67 191 -110.5t244 -49.5q-101 -73 -262 -73q-233 0 -439 123z" />
    <glyph glyph-name="R" unicode="R" horiz-adv-x="1220" 
d="M195 207v942q0 51 -9.5 91t-22.5 61t-30.5 36t-27.5 19.5t-21 7.5h524q211 0 335 -113t124 -274q0 -138 -90.5 -245.5t-259.5 -125.5q49 -20 104 -114l207 -357q19 -33 43 -58t41 -37.5t41.5 -22.5t31 -11.5t23.5 -5.5h-356l-252 451q-39 68 -72.5 96t-78.5 28h-35v-368
q0 -60 10.5 -103.5t27.5 -64t30 -29t26 -10.5h-410q12 2 25.5 10t31 28t29 64t11.5 105zM412 709h153q138 0 205.5 74t67.5 186q0 104 -72.5 178t-200.5 74h-153v-512z" />
    <glyph glyph-name="S" unicode="S" horiz-adv-x="1064" 
d="M100 74v342q64 -156 164.5 -223.5t233.5 -67.5q103 0 177.5 50.5t74.5 137.5q0 30 -9 58t-21 49.5t-36.5 44.5t-43 38t-55 36t-57.5 31.5t-64.5 32.5t-62.5 32q-66 34 -111 64t-91 74.5t-69.5 102t-23.5 128.5q0 183 129 286t328 103q90 0 178.5 -26.5t141.5 -66.5v-284
q-18 35 -46 70.5t-69.5 72t-101 59.5t-125.5 23q-106 0 -168 -52.5t-62 -131.5q0 -31 9 -58.5t31 -52t42 -42t58.5 -39.5t62.5 -34.5t72 -35.5t79 -38.5t75.5 -41.5t72.5 -49t60.5 -57t50.5 -69t30.5 -81t12.5 -97q0 -182 -132.5 -287.5t-353.5 -105.5q-106 0 -207.5 28.5
t-173.5 76.5z" />
    <glyph glyph-name="T" unicode="T" horiz-adv-x="1290" 
d="M532 209v1012h-258q-42 0 -75 -10t-52.5 -23t-38.5 -40.5t-28 -46.5t-25 -57q14 151 27 320h1128l25 -320q-17 45 -31 71t-41 53.5t-69 40t-103 12.5h-233v-1012q0 -61 11 -105.5t29 -64.5t31.5 -28.5t26.5 -10.5h-422q13 2 26 10t31 28t29.5 64t11.5 107z" />
    <glyph glyph-name="U" unicode="U" horiz-adv-x="1378" 
d="M174 459v698q0 49 -8.5 87.5t-19.5 59t-27 35t-24.5 18.5t-18.5 7h418q-8 -2 -17.5 -6t-23.5 -18t-25 -35t-19 -58.5t-8 -85.5v-694q0 -183 76.5 -262.5t241.5 -79.5q167 0 235 86t68 254v688q0 61 -13 105.5t-33 65.5t-35 29.5t-28 10.5h400q-12 -2 -26 -10.5
t-33.5 -29.5t-31.5 -65.5t-12 -105.5v-680q0 -257 -127 -380.5t-385 -123.5q-273 0 -398.5 120.5t-125.5 369.5z" />
    <glyph glyph-name="V" unicode="V" horiz-adv-x="1456" 
d="M647 0l-444 1135q-80 199 -180 229h454q-67 -17 -67 -86q0 -33 32 -115l320 -811l309 822q25 73 25 96q0 78 -80 94h397q-8 -2 -18 -6.5t-29.5 -20t-38.5 -39.5t-44 -68.5t-48 -101.5l-440 -1128h-148z" />
    <glyph glyph-name="W" unicode="W" horiz-adv-x="2050" 
d="M573 0l-376 1137q-67 198 -177 227h457q-57 -19 -57 -102q0 -42 24 -119l256 -770l258 723l-18 59q-19 61 -42 105t-43 64.5t-33 29t-23 10.5h415q-67 -22 -67 -107q0 -41 24 -114l256 -770l263 778q18 55 18 104q0 84 -76 109h398q-12 -2 -28 -11t-42.5 -32t-55 -73
t-51.5 -120l-374 -1128h-164l-285 860l-299 -860h-158z" />
    <glyph glyph-name="X" unicode="X" horiz-adv-x="1366" 
d="M436 0h-413q7 2 17 6.5t33.5 21t49.5 41t65.5 71t81.5 106.5l287 405l-317 490q-125 191 -220 223h476q-40 -16 -50 -44q-4 -12 -4 -26q0 -43 62 -141l194 -301l199 289q78 115 78 157q0 50 -47 66h401q-10 -2 -26 -10.5t-44 -28.5t-68 -63.5t-83 -104.5l-315 -450
l299 -461q38 -60 74.5 -106t62 -71.5t48.5 -41.5t35 -21t19 -6h-479q17 2 35 19t18 53q0 50 -69 157l-183 277l-188 -268q-82 -117 -82 -168q0 -36 17 -52t36 -18z" />
    <glyph glyph-name="Y" unicode="Y" horiz-adv-x="1314" 
d="M541 209v360l-326 580q-105 184 -199 215h455q-53 -15 -53 -72q0 -42 53 -137l225 -401l211 372q68 119 68 166q0 57 -53 72h370q-10 -2 -24.5 -11t-39.5 -30t-59.5 -67.5t-70.5 -110.5l-328 -570v-366q0 -61 10.5 -105t27 -64.5t29.5 -29t25 -10.5h-418q12 2 25.5 10
t31 28t29 64.5t11.5 106.5z" />
    <glyph glyph-name="Z" unicode="Z" horiz-adv-x="1193" 
d="M53 0l701 1221h-385q-51 0 -91.5 -9t-68.5 -26.5t-48 -36.5t-33.5 -47t-20.5 -49.5t-15 -51.5v363h1000l-697 -1219h418q131 0 198 59.5t124 205.5l-37 -410h-1045z" />
    <glyph glyph-name="bracketleft" unicode="[" horiz-adv-x="575" 
d="M86 -338v1729h412v-117h-244v-1493h244v-119h-412z" />
    <glyph glyph-name="backslash" unicode="\" horiz-adv-x="903" 
d="M662 -29l-596 1418h172l598 -1418h-174z" />
    <glyph glyph-name="bracketright" unicode="]" horiz-adv-x="575" 
d="M78 -338v119h241v1493h-241v117h409v-1729h-409z" />
    <glyph glyph-name="asciicircum" unicode="^" horiz-adv-x="1380" 
d="M182 416l434 1071h150l434 -1071h-170l-340 872h-10l-330 -872h-168z" />
    <glyph glyph-name="underscore" unicode="_" horiz-adv-x="1112" 
d="M8 -270v94h1094v-94h-1094z" />
    <glyph glyph-name="grave" unicode="`" horiz-adv-x="954" 
d="M203 1364h286l115 -317z" />
    <glyph glyph-name="a" unicode="a" horiz-adv-x="976" 
d="M338 670l-209 -82q-25 60 -25 112q0 123 111.5 208t278.5 85q172 0 252.5 -80t80.5 -217v-413q0 -87 40 -139t116 -52q11 0 27 4l-199 -139q-55 9 -102 51.5t-56 87.5q-37 -60 -118 -93.5t-173 -33.5q-120 0 -198 64t-78 174q0 116 135.5 212t403.5 156v95
q0 200 -160 200q-84 0 -128 -35.5t-44 -84.5q0 -29 12.5 -50.5t32.5 -29.5zM625 281v182q-342 -76 -342 -227q0 -60 42 -98t105 -38q76 0 135.5 52t59.5 129z" />
    <glyph glyph-name="b" unicode="b" horiz-adv-x="1062" 
d="M143 -29v1131q0 64 -8.5 107t-25 64t-35 28.5t-43.5 7.5h-21l338 123v-586q44 64 122 105.5t163 41.5q154 0 255 -122.5t101 -346.5q0 -145 -54.5 -270t-160.5 -204t-242 -79q-86 0 -142.5 14.5t-88 29t-55.5 14.5q-56 0 -103 -58zM346 588v-316q0 -77 46.5 -119
t135.5 -42q114 0 179 107t65 257q0 93 -22.5 173t-72.5 133t-118 53q-88 0 -150.5 -73.5t-62.5 -172.5z" />
    <glyph glyph-name="c" unicode="c" horiz-adv-x="903" 
d="M838 696l-205 -86q12 40 12 72q0 76 -41.5 121t-109.5 45q-101 0 -164.5 -93.5t-63.5 -238.5q0 -103 32 -190t101 -144t162 -57q77 0 153.5 44t141.5 128q-32 -155 -135 -241.5t-232 -86.5q-198 0 -307.5 133t-109.5 338q0 123 37 227.5t99.5 175.5t146.5 110.5t177 39.5
q130 0 216 -81.5t90 -215.5z" />
    <glyph glyph-name="d" unicode="d" horiz-adv-x="1064" 
d="M741 -43l-2 152q-43 -60 -124 -100t-164 -40q-172 0 -275.5 127.5t-103.5 349.5q0 242 130.5 393.5t319.5 151.5q67 0 121 -20.5t84 -55.5v197q0 114 -30.5 154.5t-84.5 40.5h-18l336 125v-1156q0 -80 15 -125.5t35 -58t50 -12.5h25zM729 332v305q0 98 -49 155.5
t-141 57.5q-117 0 -184.5 -103t-67.5 -247q0 -172 60 -273.5t165 -101.5q82 0 149.5 60.5t67.5 146.5z" />
    <glyph glyph-name="e" unicode="e" horiz-adv-x="950" 
d="M879 473h-607q0 -14 4 -22q19 -145 102 -233.5t206 -88.5q84 0 166.5 43t142.5 119q-36 -158 -136 -240t-251 -82q-134 0 -234 68t-150 179t-50 247q0 145 52.5 265t152 192.5t227.5 72.5q120 0 205.5 -69.5t126.5 -184.5t43 -266zM272 588h402q0 72 -17.5 132.5t-60 103
t-102.5 42.5q-93 0 -154.5 -84t-67.5 -194z" />
    <glyph glyph-name="f" unicode="f" horiz-adv-x="663" 
d="M190 215v610h-161v133h161v56q0 193 89 300t237 107q23 0 45.5 -2.5t43.5 -6t22 -3.5v-192q-61 61 -131 61q-52 0 -77.5 -45t-25.5 -146v-129h234v-133h-234v-610q0 -51 7.5 -91t17.5 -61.5t23 -36.5t22 -19.5t16 -6.5h-381q12 2 24.5 10t29.5 29t27.5 66.5t10.5 109.5z
" />
    <glyph glyph-name="g" unicode="g" horiz-adv-x="1017" 
d="M449 143l235 -6q145 -4 214 -64t69 -145q0 -61 -33 -117.5t-97 -104t-172 -76.5t-245 -29q-163 0 -266 50t-103 136q0 67 57 128.5t128 90.5q-59 15 -93 48.5t-34 80.5q0 51 53.5 109t124.5 94q-90 37 -143.5 116t-53.5 177q0 71 26.5 136t75.5 115.5t127 80.5t173 30
q70 0 157 -24q90 -23 156 -23q98 0 162 41v-158q-30 -10 -158 -10q61 -76 61 -188q0 -138 -102 -234t-283 -96q-23 0 -71 6q-109 -50 -109 -102q0 -26 41.5 -43t102.5 -19zM496 424q79 0 122.5 60.5t43.5 144.5q0 95 -51.5 168t-143.5 73q-82 0 -126 -58.5t-44 -141.5
q0 -99 54.5 -172.5t144.5 -73.5zM354 -20q-116 -61 -116 -134q0 -52 61 -82t178 -30q138 0 222.5 36.5t84.5 102.5q0 49 -46 72t-146 26q-228 9 -238 9z" />
    <glyph glyph-name="h" unicode="h" horiz-adv-x="1085" 
d="M152 199v882q0 65 -8.5 108.5t-26 65t-37 29.5t-47.5 8h-21l342 140v-594q44 52 129 103.5t179 51.5q131 0 204.5 -83t73.5 -242v-471q0 -57 10 -98t26 -60.5t28 -28t24 -10.5h-366q7 2 14 6t18.5 17t19.5 32.5t14.5 55.5t6.5 82v421q0 114 -38.5 168t-118.5 54
q-89 0 -156.5 -69t-67.5 -169v-405q0 -56 9.5 -96.5t24.5 -59.5t27 -27t23 -10h-379q12 2 24.5 10t30 27t28 61t10.5 101z" />
    <glyph glyph-name="i" unicode="i" horiz-adv-x="491" 
d="M145 197v497q0 100 -28 136t-78 36h-25l334 135v-804q0 -58 10.5 -99.5t27.5 -60.5t29 -27t23 -10h-385q12 2 24.5 9.5t29.5 26.5t27.5 60.5t10.5 100.5zM94 1264q0 57 37.5 94t99.5 37t99 -37t37 -94t-37.5 -95.5t-98.5 -38.5q-62 0 -99.5 38.5t-37.5 95.5z" />
    <glyph glyph-name="j" unicode="j" horiz-adv-x="491" 
d="M88 1264q0 57 36.5 94t98.5 37t99.5 -37t37.5 -94t-37.5 -95.5t-99.5 -38.5q-61 0 -98 38.5t-37 95.5zM147 -31v736q0 93 -27.5 127t-76.5 34h-27l336 135v-1030q0 -358 -276 -358q-65 0 -117 26t-84 58q40 -12 68 -12q51 0 86 12.5t63 43.5t41.5 87.5t13.5 140.5z" />
    <glyph glyph-name="k" unicode="k" horiz-adv-x="1095" 
d="M145 197v895q0 64 -8.5 106t-25.5 62.5t-35.5 28t-44.5 7.5h-19l338 127v-886l252 254q68 68 68 112q0 38 -58 55h439q-115 -37 -260 -178l-238 -231l287 -352q138 -168 229 -168q17 0 27 2q-70 -54 -215 -54q-80 0 -143.5 40.5t-133.5 132.5q-229 306 -254 331v-284
q0 -47 7.5 -83.5t17.5 -56.5t23.5 -33.5t21.5 -17.5t16 -6h-379q11 2 22.5 9.5t28 26.5t27 60.5t10.5 100.5z" />
    <glyph glyph-name="l" unicode="l" horiz-adv-x="491" 
d="M145 197v895q0 64 -8.5 106t-25.5 62.5t-35.5 28t-44.5 7.5h-19l336 127v-1226q0 -57 9.5 -98t25 -60.5t28 -28t23.5 -10.5h-381q8 2 16.5 5.5t23.5 17t25.5 33t18.5 56.5t8 85z" />
    <glyph glyph-name="m" unicode="m" horiz-adv-x="1626" 
d="M145 193v489q0 110 -26 147t-78 37h-25l326 135l2 -170q53 73 142 117.5t173 44.5q80 0 139 -42.5t79 -119.5q49 69 140.5 115.5t190.5 46.5q133 0 201 -92t68 -246v-458q0 -57 9.5 -98t25 -60.5t28 -28t23.5 -10.5h-369q8 2 15.5 6t20 17t21.5 33t16 56.5t7 84.5v407
q0 232 -144 232q-92 0 -154.5 -67.5t-62.5 -164.5v-407q0 -57 9 -98.5t24 -61t26 -27.5t21 -10h-362q8 2 15.5 6t19.5 17t21 33t15.5 56.5t6.5 84.5v407q0 120 -39.5 176t-102.5 56q-89 0 -154 -68t-65 -164v-407q0 -47 7 -83.5t17 -56.5t23 -33.5t21 -17.5t16 -6h-377
q11 2 23 9.5t29 26t27.5 59.5t10.5 98z" />
    <glyph glyph-name="n" unicode="n" horiz-adv-x="1085" 
d="M145 193v489q0 58 -7.5 96t-23 56.5t-32 25t-41.5 6.5h-25l326 135l2 -170q49 69 140 115.5t175 46.5q124 0 200.5 -79.5t76.5 -243.5v-473q0 -57 9.5 -98t25 -60.5t28 -28t23.5 -10.5h-371q8 2 15.5 5.5t20 16.5t21.5 32t16 54.5t7 81.5v426q0 110 -42 165t-114 55
q-87 0 -157 -69.5t-70 -166.5v-410q0 -55 9.5 -95t24.5 -58.5t26.5 -26.5t23.5 -10h-379q12 2 24.5 9.5t29.5 26t27.5 59.5t10.5 98z" />
    <glyph glyph-name="o" unicode="o" horiz-adv-x="1114" 
d="M545 -31q-114 0 -205 41.5t-147 112t-85.5 157.5t-29.5 183q0 79 19.5 155.5t60.5 144.5t97.5 119t136.5 81t173 30q92 0 170 -27.5t133 -74t93.5 -110t56.5 -134.5t18 -147q0 -100 -32 -193.5t-91.5 -169.5t-155 -122t-212.5 -46zM575 111q116 0 181 102t65 244
q0 101 -31 189t-97.5 147t-157.5 59q-80 0 -137 -49.5t-83 -125.5t-26 -167q0 -101 31 -190t97.5 -149t157.5 -60z" />
    <glyph glyph-name="p" unicode="p" horiz-adv-x="1062" 
d="M141 -176v858q0 57 -8 95t-23 56.5t-31.5 25.5t-39.5 7h-21l316 135l2 -165q50 76 125.5 116.5t159.5 40.5q70 0 134.5 -29t117.5 -86t84.5 -151t31.5 -213q0 -151 -54 -273.5t-158 -195t-240 -72.5q-137 0 -195 74v-223q0 -168 90 -195h-371q7 2 15 6t20.5 17.5t21.5 33
t16 56t7 82.5zM342 592v-303q0 -86 45 -132t135 -46q117 0 182.5 103.5t65.5 252.5q0 167 -59 268t-164 101q-82 0 -143.5 -70t-61.5 -174z" />
    <glyph glyph-name="q" unicode="q" horiz-adv-x="1058" 
d="M715 -176v297q-47 -70 -121.5 -110t-159.5 -40q-154 0 -257 123.5t-103 347.5q0 145 55 269.5t161 203t242 78.5q81 0 135 -14.5t86 -28.5t60 -14q59 0 105 59v-1171q0 -169 86 -195h-367q7 2 15 6t20 17.5t21 33t15.5 56t6.5 82.5zM717 377v315q0 77 -47 119.5
t-135 42.5q-78 0 -135 -53t-84 -134.5t-27 -177.5q0 -154 58 -257t157 -103q85 0 149 74t64 174z" />
    <glyph glyph-name="r" unicode="r" horiz-adv-x="753" 
d="M141 197v508q0 98 -25.5 132.5t-72.5 34.5h-23l314 129l2 -235q33 91 109.5 159t166.5 68q55 0 99 -24v-273q-24 44 -67 72.5t-91 28.5q-85 0 -148 -95t-63 -258v-247q0 -57 10 -98t26 -60.5t28 -28t24 -10.5h-377q11 2 22.5 9.5t28 26.5t27 60.5t10.5 100.5z" />
    <glyph glyph-name="s" unicode="s" horiz-adv-x="798" 
d="M80 49v270q39 -97 114.5 -156t190.5 -59q66 0 116 29t50 88q0 29 -10.5 51t-39.5 44t-58 38t-87 46q-31 15 -47 24q-115 58 -167 122t-52 154q0 133 92.5 213t255.5 80q150 0 244 -55v-250q-14 27 -33.5 52.5t-51 54t-76.5 46t-97 17.5q-69 0 -109.5 -32t-40.5 -83
q0 -59 45.5 -96t165.5 -92q136 -61 196 -128.5t60 -164.5q0 -134 -97 -213.5t-265 -79.5q-87 0 -171 22.5t-128 57.5z" />
    <glyph glyph-name="t" unicode="t" horiz-adv-x="677" 
d="M152 223v602h-150l352 406v-273h267v-133h-267v-538q0 -82 32 -121t85 -39q47 0 98.5 30t83.5 76q-22 -135 -95 -200.5t-175 -65.5q-106 0 -168.5 69.5t-62.5 186.5z" />
    <glyph glyph-name="u" unicode="u" horiz-adv-x="1064" 
d="M135 305v449q0 179 -117 203q-3 1 -4 1h324v-612q0 -109 41 -164t113 -55q90 0 159.5 75t69.5 169v399q0 26 -2.5 48t-6 38.5t-9 31t-11 24t-13 17t-13 12t-12.5 8.5t-10.5 5t-9.5 2l-5 2h295v-688q0 -104 26 -140t78 -36h25l-326 -131l-2 174q-55 -77 -142 -122.5
t-175 -45.5q-129 0 -201 81.5t-72 254.5z" />
    <glyph glyph-name="v" unicode="v" horiz-adv-x="1054" 
d="M473 0l-334 797q-9 21 -19.5 40t-20.5 33.5t-19.5 26t-19 20.5t-17 15t-15.5 11l-12 7.5t-10 5.5l-6 2h418q-68 -15 -68 -84q0 -28 21 -81l198 -490l170 465q23 61 23 92q0 27 -9.5 46.5t-24.5 30t-26 15t-22 6.5h375q-10 -2 -23 -9.5t-33.5 -25t-44 -54.5t-43.5 -87
l-315 -782h-123z" />
    <glyph glyph-name="w" unicode="w" horiz-adv-x="1574" 
d="M442 0l-301 797q-52 131 -141 161h408q-60 -15 -60 -79q0 -31 21 -86l182 -498l174 463l-14 45q-17 43 -37 75.5t-37.5 48t-28 22.5t-18.5 9h375q-64 -16 -64 -88q0 -25 19 -77l180 -498l164 473q20 56 20 92q0 27 -8.5 46.5t-21.5 30t-23.5 15t-20.5 6.5h365
q-11 -2 -24 -9t-34.5 -24.5t-45 -54.5t-41.5 -88l-287 -782h-135l-215 575l-215 -575h-136z" />
    <glyph glyph-name="x" unicode="x" horiz-adv-x="1013" 
d="M356 0h-342q10 2 24 9t39.5 25t60.5 57.5t73 94.5l186 271l-215 325q-89 135 -172 176h400q-37 -12 -37 -53q0 -40 47 -108l108 -164l111 160q51 75 51 118q0 35 -37 47h340q-16 -3 -37 -13.5t-64.5 -51.5t-86.5 -105l-191 -286l234 -348q37 -56 72.5 -93t51.5 -47.5
t27 -13.5h-391q33 7 33 47t-51 119l-105 162l-104 -150q-59 -83 -59 -129q0 -43 34 -49z" />
    <glyph glyph-name="y" unicode="y" horiz-adv-x="1062" 
d="M287 -395l-232 178q32 -14 86 -14q184 0 312 256l-306 766q-12 31 -26 56.5t-27.5 42t-26.5 29t-25 19.5t-19.5 11t-14.5 7l-8 2h420l-6 -2q-5 -2 -8.5 -3.5t-10 -5t-11.5 -8t-10.5 -11.5t-9 -14.5t-6 -19t-2.5 -24.5q0 -28 25 -94l190 -491l179 467q28 76 28 112
q0 25 -8.5 44t-21.5 29t-22.5 14.5t-18.5 6.5h356l-5 -2q-4 -2 -8.5 -4.5t-12 -7t-15 -11t-17 -16t-19 -22.5t-19.5 -29t-20.5 -37.5t-20.5 -46.5l-275 -682q-79 -198 -173.5 -327.5t-190.5 -167.5z" />
    <glyph glyph-name="z" unicode="z" horiz-adv-x="925" 
d="M55 0l490 838h-266q-44 0 -79 -14.5t-55.5 -35t-34.5 -46t-19 -44t-7 -32.5v292h756l-484 -829h312q153 0 188 160v-289h-801z" />
    <glyph glyph-name="braceleft" unicode="{" horiz-adv-x="782" 
d="M291 -115v303q0 83 -11 140.5t-29 93t-51.5 56.5t-68 30t-88.5 14q54 5 88.5 14t68 29.5t51.5 55.5t29 92t11 139v305q0 71 20.5 120t54.5 78.5t96 46t125.5 22.5t162.5 8q-140 -14 -200.5 -72.5t-60.5 -183.5v-273q0 -79 -12 -142t-34 -103t-48 -67.5t-58.5 -41.5
t-60 -20t-59.5 -7q32 -2 59 -8t60.5 -20t58.5 -41.5t47.5 -67.5t34.5 -103t12 -143v-274q0 -125 60.5 -182.5t200.5 -71.5q-82 2 -137.5 6t-112 14.5t-91.5 29t-64 48t-41.5 73.5t-12.5 103z" />
    <glyph glyph-name="bar" unicode="|" horiz-adv-x="479" 
d="M156 -451v2048h168v-2048h-168z" />
    <glyph glyph-name="braceright" unicode="}" horiz-adv-x="782" 
d="M268 -135v274q0 95 18.5 166.5t45 110.5t66 63.5t72 32.5t71.5 10q-39 1 -71.5 9t-72 32.5t-66 64t-45 110t-18.5 165.5v273q0 125 -59.5 183.5t-198.5 72.5q69 -1 118 -4.5t100.5 -11t85.5 -20t66 -32.5t50 -48.5t28.5 -68t10.5 -90.5v-305q0 -82 10.5 -139t28.5 -92
t51 -55.5t67.5 -29.5t88.5 -14q-54 -5 -88.5 -14t-67.5 -30t-51 -56.5t-28.5 -93t-10.5 -140.5v-303q0 -45 -7.5 -80.5t-23.5 -62.5t-36.5 -47.5t-52.5 -34.5t-64.5 -23t-79.5 -14.5t-91 -8t-104 -3.5q139 14 198.5 71.5t59.5 182.5z" />
    <glyph glyph-name="asciitilde" unicode="~" horiz-adv-x="1390" 
d="M309 453h-153q0 90 23 158.5t63 108.5t89.5 59.5t106.5 19.5q59 1 122 -19.5t117 -50.5t104.5 -59.5t101.5 -50.5t92 -21q105 0 108 188h154q4 -172 -64.5 -262t-195.5 -90q-76 0 -159.5 32t-143.5 70.5t-128.5 70.5t-119.5 32q-111 0 -117 -186z" />
    <glyph glyph-name="uni00A0" unicode="&#xa0;" horiz-adv-x="436" 
 />
    <glyph glyph-name="exclamdown" unicode="&#xa1;" horiz-adv-x="587" 
d="M186 -102l21 483q1 39 8 77.5t16 67t20 55t19.5 41.5t16.5 28l8 14l8 -14q8 -13 16.5 -28t19.5 -41.5t20 -55t16 -67t8 -77.5l20 -483q2 -62 9.5 -110.5t16.5 -74.5t20 -44t17.5 -23t12.5 -8h-370q6 2 12 6.5t17 21.5t20 43t17 75.5t11 113.5zM162 901q0 55 36.5 91
t96.5 36t96.5 -36t36.5 -91t-36.5 -91t-96.5 -36t-96.5 36t-36.5 91z" />
    <glyph glyph-name="cent" unicode="&#xa2;" horiz-adv-x="1081" 
d="M514 -20v190q-172 21 -265 150t-93 317q0 215 99.5 360.5t258.5 180.5v202h143v-196q112 -15 185.5 -93.5t77.5 -197.5l-203 -86q10 33 10 72q0 75 -43.5 120t-112.5 45q-100 0 -160.5 -92.5t-60.5 -238.5q0 -165 79 -278t210 -113q166 0 299 190q-27 -139 -102.5 -224.5
t-178.5 -111.5v-196h-143z" />
    <glyph glyph-name="sterling" unicode="&#xa3;" horiz-adv-x="1081" 
d="M100 -27l-63 170q67 4 110.5 32.5t69 90.5t36.5 145.5t13 211.5h-141v139h143q1 81 6 146.5t17.5 133t31.5 118.5t50.5 97.5t73 76t100 46.5t131.5 17q166 0 258 -68l-78 -190q-16 57 -67.5 87.5t-114.5 30.5q-37 0 -65.5 -13.5t-48 -34t-33 -59t-20.5 -74t-11 -93.5
t-5 -103.5t-1 -117.5h235v-139h-235q-2 -167 -28.5 -284.5t-98.5 -166.5q54 8 90 8q43 -1 116 -15.5t121 -14.5q90 0 147.5 24.5t104.5 83.5l64 -201q-73 -88 -246 -88q-91 0 -229.5 33t-206.5 33q-63 0 -124.5 -17t-101.5 -45z" />
    <glyph glyph-name="currency" unicode="&#xa4;" horiz-adv-x="1126" 
d="M193 408l133 131q-39 62 -39 143q0 79 37 143l-131 133l96 95l135 -133q55 34 137 34q83 0 144 -36l129 131l96 -95l-129 -131q37 -61 37 -141q0 -79 -37 -143l133 -133l-96 -95l-136 133q-58 -36 -141 -36q-78 0 -139 36l-133 -133zM561 512q75 0 117.5 50.5t42.5 119.5
q0 68 -42.5 117t-117.5 49q-74 0 -114.5 -49t-40.5 -117q0 -70 40.5 -120t114.5 -50z" />
    <glyph glyph-name="yen" unicode="&#xa5;" horiz-adv-x="1089" 
d="M57 479v117h359l-78 182h-281v115h234l-111 256q-82 184 -174 215h412q-43 -17 -43 -78q0 -53 33 -131l167 -401l154 372q43 105 43 160q0 64 -43 78h336q-10 -2 -24.5 -11t-38 -30.5t-52.5 -68t-55 -109.5l-107 -252h226v-115h-275l-77 -182h352v-117h-365v-260
q0 -53 8.5 -94t19.5 -63t26 -36.5t24 -19t18 -6.5h-417q9 2 18.5 6t25.5 19t28 36.5t21 63t9 94.5v260h-373z" />
    <glyph glyph-name="brokenbar" unicode="&#xa6;" horiz-adv-x="466" 
d="M150 666v716h165v-716h-165zM150 -358v716h165v-716h-165z" />
    <glyph glyph-name="section" unicode="&#xa7;" horiz-adv-x="1196" 
d="M141 -156q1 3 63 76t66 80q65 -95 157.5 -139.5t178.5 -44.5q80 0 136.5 42.5t56.5 114.5q0 51 -35.5 92.5t-92.5 70t-126 55t-137.5 56.5t-125.5 65t-92.5 89t-35.5 121q0 92 56.5 163.5t151.5 113.5q-89 50 -130.5 107t-41.5 134q0 111 65 192t166 119t222 38
q111 0 205 -34t141 -93q-1 -3 -59.5 -77.5t-61.5 -78.5q-48 65 -119 100t-143 35q-86 0 -145.5 -40.5t-59.5 -106.5q0 -45 28 -81.5t74 -62t105 -51.5t120 -47.5t120 -53t105 -66t74 -87.5t28 -117q0 -178 -189 -272q148 -98 148 -242q0 -83 -36 -151t-97.5 -111.5
t-140.5 -66.5t-167 -23q-133 0 -246.5 49t-185.5 133zM721 326q137 54 137 166q0 25 -11 47.5t-34.5 43t-46.5 37t-61 34.5t-63.5 29t-68.5 28.5t-61 25.5q-158 -57 -158 -164q0 -36 22.5 -66.5t68 -57t83.5 -44t102 -42.5t91 -37z" />
    <glyph glyph-name="dieresis" unicode="&#xa8;" horiz-adv-x="954" 
d="M557 1262q0 47 31.5 77.5t83.5 30.5q51 0 81.5 -30.5t30.5 -77.5t-31 -79t-81 -32q-51 0 -83 32t-32 79zM178 1262q0 47 31.5 77.5t83.5 30.5q51 0 82 -30.5t31 -77.5t-31 -79t-82 -32t-83 32t-32 79z" />
    <glyph glyph-name="copyright" unicode="&#xa9;" horiz-adv-x="1523" 
d="M762 -23q-106 0 -206 28t-189 86t-156 140t-106 198t-39 253t39 253t106 198t156 140t189 85.5t206 27.5q105 0 204.5 -27.5t188.5 -85t155 -139.5t105 -198.5t39 -253.5t-39 -253.5t-105 -198.5t-155 -140t-188.5 -85.5t-204.5 -27.5zM762 57q91 0 177 24.5t162.5 76
t134 124.5t91 176t33.5 224q0 122 -33.5 225t-91 176t-134 124t-162.5 75.5t-177 24.5q-115 0 -221.5 -40t-193 -115.5t-138 -196.5t-51.5 -271q0 -121 34 -224.5t92 -176.5t135.5 -124.5t164.5 -76.5t178 -25zM1036 479v-143q-37 -52 -111 -87.5t-151 -35.5
q-106 0 -191 38.5t-136.5 103t-79 144.5t-27.5 167q0 92 29.5 177t84 154t142.5 110.5t195 41.5q125 0 229 -72v-270q-72 225 -227 225q-94 0 -163 -50t-100.5 -125t-31.5 -163q0 -90 33 -168t103.5 -130t166.5 -52q136 0 235 135z" />
    <glyph glyph-name="ordfeminine" unicode="&#xaa;" horiz-adv-x="741" 
d="M248 1163l-160 -61q-18 41 -18 84q0 89 80 150t202 61q125 0 183.5 -57.5t58.5 -157.5v-295q0 -139 115 -139q5 0 26 6l-153 -103q-40 6 -73 34t-42 60q-28 -41 -86 -63.5t-123 -22.5q-87 0 -144 46t-57 126q0 85 97.5 155.5t289.5 111.5v65q0 142 -112 142
q-59 0 -91 -25t-32 -59q0 -44 39 -58zM444 885v129q-243 -55 -243 -162q0 -42 29.5 -68t74.5 -26q55 0 97 36t42 91z" />
    <glyph glyph-name="guillemotleft" unicode="&#xab;" horiz-adv-x="858" 
d="M647 141l-241 375l241 375h162l-240 -375l242 -375h-164zM291 141l-242 375l242 375h162l-242 -375l242 -375h-162z" />
    <glyph glyph-name="logicalnot" unicode="&#xac;" horiz-adv-x="1380" 
d="M131 692v144h1118v-549h-145v405h-973z" />
    <glyph glyph-name="uni00AD" unicode="&#xad;" horiz-adv-x="716" 
d="M102 438v162h514v-162h-514z" />
    <glyph glyph-name="registered" unicode="&#xae;" horiz-adv-x="1517" 
d="M762 -23q-106 0 -206 28t-189 86t-156 140t-106 198t-39 253t39 253t106 198t156 140t189 85.5t206 27.5q105 0 204.5 -27.5t188.5 -85t155 -139.5t105 -198.5t39 -253.5t-39 -253.5t-105 -198.5t-155 -140t-188.5 -85.5t-204.5 -27.5zM762 57q91 0 177 24.5t162.5 76
t134 124.5t91 176t33.5 224q0 122 -33.5 225t-91 176t-134 124t-162.5 75.5t-177 24.5q-115 0 -221.5 -40t-193 -115.5t-138 -196.5t-51.5 -271q0 -121 34 -224.5t92 -176.5t135.5 -124.5t164.5 -76.5t178 -25zM526 391v600q0 33 -5 60t-13 42.5t-15 25t-15 15.5l-7 7h311
q126 0 195.5 -76t69.5 -180q0 -95 -54 -168t-145 -80q47 -18 94 -119l78 -166q8 -16 16 -30t16 -24t14.5 -18t14 -14.5t11.5 -9.5t10.5 -7t7.5 -5h-192l-113 250q-28 62 -53.5 86t-59.5 24h-33v-213q0 -42 7.5 -72.5t15 -42.5t17.5 -22l10 -10h-232l10 10q10 11 17.5 23
t14.5 42.5t7 71.5zM659 709h107q67 0 108 47t41 116q0 67 -40.5 114.5t-110.5 47.5h-105v-325z" />
    <glyph glyph-name="macron" unicode="&#xaf;" horiz-adv-x="954" 
d="M152 1190v104h649v-104h-649z" />
    <glyph glyph-name="degree" unicode="&#xb0;" horiz-adv-x="788" 
d="M129 1124q0 114 76 193.5t203 79.5t202.5 -79.5t75.5 -193.5t-75.5 -194t-202.5 -80q-126 0 -202.5 80.5t-76.5 193.5zM408 954q73 0 117 49.5t44 120.5t-44 118.5t-117 47.5t-116.5 -47.5t-43.5 -118.5t44 -120.5t116 -49.5z" />
    <glyph glyph-name="plusminus" unicode="&#xb1;" horiz-adv-x="1380" 
d="M143 698v144h475v403h148v-403h471v-144h-471v-409h-148v409h-475zM143 0v143h1094v-143h-1094z" />
    <glyph glyph-name="twosuperior" unicode="&#xb2;" horiz-adv-x="733" 
d="M47 598l197 213q119 130 168 200.5t49 137.5q0 65 -39 103t-92 38q-49 0 -80 -27t-31 -61q0 -27 18 -47.5t44 -26.5l-105 -112q-46 14 -77 54.5t-31 94.5q0 88 78 160t219 72q112 0 193 -60t81 -170q0 -81 -61 -165.5t-183 -206.5l-73 -74h227q42 0 75 16.5t42.5 28
t13.5 18.5l-37 -186h-596z" />
    <glyph glyph-name="threesuperior" unicode="&#xb3;" horiz-adv-x="733" 
d="M66 715l157 104q9 -67 49 -105t97 -38q50 0 82 26.5t32 71.5q0 69 -71.5 113t-186.5 45l25 98q50 -8 69 -8q65 0 107.5 40.5t42.5 98.5q0 47 -37 86t-94 39q-50 0 -79.5 -21t-29.5 -53t27 -49l-147 -65q-33 41 -33 94q0 77 78.5 139t212.5 62q125 0 197.5 -58t72.5 -143
q0 -73 -52 -132.5t-130 -76.5q92 -22 147 -75t55 -124q0 -102 -88.5 -159.5t-210.5 -57.5q-110 0 -188.5 41t-103.5 107z" />
    <glyph glyph-name="acute" unicode="&#xb4;" horiz-adv-x="954" 
d="M399 1047l117 317h279z" />
    <glyph glyph-name="mu" unicode="&#xb5;" horiz-adv-x="1081" 
d="M150 -180v1138h202v-600q0 -113 44 -172t130 -59q88 0 145.5 73.5t57.5 170.5v587h203v-688q0 -85 31.5 -130.5t85.5 -45.5h14l-197 -131q-46 20 -78.5 64.5t-46.5 103.5q-98 -162 -229 -162q-46 0 -91 26t-69 68v-434h-291q32 6 60.5 51t28.5 140z" />
    <glyph glyph-name="paragraph" unicode="&#xb6;" horiz-adv-x="1306" 
d="M639 -369v686q-125 1 -229 44.5t-172.5 115.5t-106 165.5t-37.5 197.5q0 103 36.5 196t107.5 168t186.5 119.5t261.5 44.5h426q-29 -138 -29 -324v-1413h-131v1620h-180v-1620h-133z" />
    <glyph glyph-name="periodcentered" unicode="&#xb7;" horiz-adv-x="491" 
d="M98 489q0 62 40.5 103t107.5 41t108 -41t41 -103q0 -61 -41.5 -102t-107.5 -41q-67 0 -107.5 40.5t-40.5 102.5z" />
    <glyph glyph-name="cedilla" unicode="&#xb8;" horiz-adv-x="954" 
d="M375 -129l88 147h112l-59 -94q79 -10 121.5 -50t42.5 -93q0 -61 -55 -106.5t-150 -45.5q-96 0 -166 45q30 -6 66 -6q70 0 112.5 32.5t42.5 74.5q0 39 -41 67t-114 29z" />
    <glyph glyph-name="onesuperior" unicode="&#xb9;" horiz-adv-x="565" 
d="M227 795v346l-155 -180v167q130 153 209 258h112v-591q0 -47 8.5 -83.5t19 -56.5t25 -33.5t22.5 -17.5t15 -6h-346q7 2 15 6.5t22.5 18.5t25 33.5t19 56t8.5 82.5z" />
    <glyph glyph-name="ordmasculine" unicode="&#xba;" horiz-adv-x="796" 
d="M389 659q-152 0 -241 101.5t-89 253.5q0 159 96.5 271t250.5 112q152 0 242.5 -102t90.5 -253q0 -103 -40.5 -189t-121.5 -140t-188 -54zM414 766q81 0 125.5 76t44.5 170q0 67 -22.5 129.5t-70 105.5t-108.5 43q-81 0 -125.5 -74t-44.5 -167q0 -69 22.5 -132.5t70 -107
t108.5 -43.5z" />
    <glyph glyph-name="guillemotright" unicode="&#xbb;" horiz-adv-x="858" 
d="M403 141l240 375l-240 375h160l244 -375l-242 -375h-162zM47 141l242 375l-242 375h162l242 -375l-242 -375h-162z" />
    <glyph glyph-name="onequarter" unicode="&#xbc;" horiz-adv-x="1642" 
d="M858 174v45l316 567h196v-499h94v-113h-94v-51q0 -43 10 -72t20.5 -38.5t20.5 -12.5h-272q11 3 22 12t22 38t11 73v51h-346zM319 0l795 1395h135l-790 -1395h-140zM283 795v346l-156 -180v167q130 153 209 258h113v-591q0 -47 8.5 -83.5t19 -56.5t25 -33.5t22.5 -17.5
t15 -6h-346q7 2 15 6.5t22.5 18.5t25 33.5t19 56t8.5 82.5zM1008 287h196v354z" />
    <glyph glyph-name="onehalf" unicode="&#xbd;" horiz-adv-x="1650" 
d="M928 0l196 211q116 124 166.5 198.5t50.5 141.5q0 66 -39.5 102.5t-91.5 36.5q-50 0 -80 -26.5t-30 -61.5q0 -27 18 -47t43 -25l-104 -114q-47 16 -78 56t-31 95q0 88 78.5 159t218.5 71q112 0 193.5 -60t81.5 -170q0 -35 -14.5 -73.5t-31.5 -67.5t-56.5 -76t-63 -71.5
t-78.5 -81.5l-74 -76h228q40 0 71.5 13.5t43 25.5t16.5 22l-37 -182h-596zM287 0l794 1395h136l-791 -1395h-139zM283 795v346l-156 -180v167q130 153 209 258h113v-591q0 -47 8.5 -83.5t19 -56.5t25 -33.5t22.5 -17.5t15 -6h-346q7 2 15 6.5t22.5 18.5t25 33.5t19 56
t8.5 82.5z" />
    <glyph glyph-name="threequarters" unicode="&#xbe;" horiz-adv-x="1787" 
d="M961 174v45l315 567h197v-499h94v-113h-94v-51q0 -43 10 -72t20.5 -38.5t20.5 -12.5h-273q11 3 22 12t22.5 38t11.5 73v51h-346zM86 715l158 104q9 -68 48.5 -105.5t96.5 -37.5q51 0 83 26.5t32 71.5q0 69 -71.5 113t-186.5 45l24 98q50 -8 70 -8q65 0 107 40.5t42 98.5
q0 47 -37 86t-94 39q-50 0 -79 -21t-29 -53q0 -33 26 -49l-147 -65q-33 41 -33 94q0 77 78.5 139t212.5 62q125 0 197.5 -58t72.5 -143q0 -73 -52 -132.5t-130 -76.5q92 -22 147.5 -75t55.5 -124q0 -102 -88.5 -159.5t-210.5 -57.5q-110 0 -189 41t-104 107zM422 0l795 1395
h135l-791 -1395h-139zM1110 287h197v354z" />
    <glyph glyph-name="questiondown" unicode="&#xbf;" horiz-adv-x="919" 
d="M356 918q0 55 36.5 90.5t96.5 35.5q61 0 97.5 -35.5t36.5 -90.5t-37 -91t-97 -36t-96.5 36t-36.5 91zM758 0v-291q-63 -39 -156.5 -63.5t-187.5 -24.5q-166 0 -267.5 78t-101.5 223q0 60 22 116t57.5 99.5t78.5 84t85.5 78.5t78 75t57.5 79.5t22 86.5q0 69 -59 98
q26 29 74 29q67 0 118.5 -46.5t51.5 -121.5q0 -60 -26 -116t-65 -96t-85 -83t-85 -79.5t-65 -84t-26 -96.5q0 -79 51.5 -124.5t126.5 -45.5q87 0 170.5 57.5t130.5 167.5z" />
    <glyph glyph-name="Agrave" unicode="&#xc0;" horiz-adv-x="1470" 
d="M410 0h-381q8 2 18 6.5t29 21.5t37.5 42t43.5 71.5t48 106.5l434 1116h176l442 -1120q23 -59 48 -104.5t45 -70t40 -41t31 -21.5t19 -7h-457q13 1 27 7.5t28.5 27.5t14.5 53q0 33 -33 117l-62 162h-538l-58 -156q-28 -76 -28 -113q0 -27 8.5 -47.5t22 -30.5t24.5 -14.5
t21 -5.5zM471 504h434l-219 567zM395 1747h279l121 -313z" />
    <glyph glyph-name="Aacute" unicode="&#xc1;" horiz-adv-x="1470" 
d="M410 0h-381q8 2 18 6.5t29 21.5t37.5 42t43.5 71.5t48 106.5l434 1116h176l442 -1120q23 -59 48 -104.5t45 -70t40 -41t31 -21.5t19 -7h-457q13 1 27 7.5t28.5 27.5t14.5 53q0 33 -33 117l-62 162h-538l-58 -156q-28 -76 -28 -113q0 -27 8.5 -47.5t22 -30.5t24.5 -14.5
t21 -5.5zM471 504h434l-219 567zM659 1434l117 313h279z" />
    <glyph glyph-name="Acircumflex" unicode="&#xc2;" horiz-adv-x="1470" 
d="M410 0h-381q8 2 18 6.5t29 21.5t37.5 42t43.5 71.5t48 106.5l434 1116h176l442 -1120q23 -59 48 -104.5t45 -70t40 -41t31 -21.5t19 -7h-457q13 1 27 7.5t28.5 27.5t14.5 53q0 33 -33 117l-62 162h-538l-58 -156q-28 -76 -28 -113q0 -27 8.5 -47.5t22 -30.5t24.5 -14.5
t21 -5.5zM471 504h434l-219 567zM723 1778l301 -346q-52 27 -153 67.5t-148 63.5q-45 -22 -143.5 -63t-149.5 -68q50 64 148 176t145 170z" />
    <glyph glyph-name="Atilde" unicode="&#xc3;" horiz-adv-x="1470" 
d="M410 0h-381q8 2 18 6.5t29 21.5t37.5 42t43.5 71.5t48 106.5l434 1116h176l442 -1120q23 -59 48 -104.5t45 -70t40 -41t31 -21.5t19 -7h-457q13 1 27 7.5t28.5 27.5t14.5 53q0 33 -33 117l-62 162h-538l-58 -156q-28 -76 -28 -113q0 -27 8.5 -47.5t22 -30.5t24.5 -14.5
t21 -5.5zM471 504h434l-219 567zM461 1444q-35 41 -35 98q0 68 45.5 121t122.5 53q43 0 102 -28t112.5 -56t84.5 -28q49 0 73.5 40t26.5 101q33 -36 33 -94q0 -69 -47 -126t-121 -57q-35 0 -78 18.5t-76 40t-72 40t-67 18.5q-46 0 -73.5 -39t-30.5 -102z" />
    <glyph glyph-name="Adieresis" unicode="&#xc4;" horiz-adv-x="1470" 
d="M410 0h-381q8 2 18 6.5t29 21.5t37.5 42t43.5 71.5t48 106.5l434 1116h176l442 -1120q23 -59 48 -104.5t45 -70t40 -41t31 -21.5t19 -7h-457q13 1 27 7.5t28.5 27.5t14.5 53q0 33 -33 117l-62 162h-538l-58 -156q-28 -76 -28 -113q0 -27 8.5 -47.5t22 -30.5t24.5 -14.5
t21 -5.5zM471 504h434l-219 567zM803 1593q0 47 31.5 78t83.5 31q51 0 81.5 -31t30.5 -78t-31 -78.5t-81 -31.5q-51 0 -83 31.5t-32 78.5zM424 1593q0 47 31.5 78t83.5 31q51 0 81.5 -31t30.5 -78t-30.5 -78.5t-81.5 -31.5t-83 31.5t-32 78.5z" />
    <glyph glyph-name="Aring" unicode="&#xc5;" horiz-adv-x="1470" 
d="M410 0h-381q8 2 18 6.5t29 21.5t37.5 42t43.5 71.5t48 106.5l434 1116h176l442 -1120q23 -59 48 -104.5t45 -70t40 -41t31 -21.5t19 -7h-457q13 1 27 7.5t28.5 27.5t14.5 53q0 33 -33 117l-62 162h-538l-58 -156q-28 -76 -28 -113q0 -27 8.5 -47.5t22 -30.5t24.5 -14.5
t21 -5.5zM471 504h434l-219 567zM535 1612q0 84 54 138t138 54t139.5 -53.5t55.5 -138.5t-55.5 -139t-139.5 -54q-83 0 -137.5 54.5t-54.5 138.5zM727 1497q47 0 78 32.5t31 82.5t-30.5 81t-78.5 31q-49 0 -80 -31t-31 -81q0 -49 32 -82t79 -33z" />
    <glyph glyph-name="AE" unicode="&#xc6;" horiz-adv-x="1959" 
d="M442 0h-436q12 2 30.5 12t51 35t78.5 80t96 133l569 887q77 118 82 182q0 25 -20 35h930v-305q-13 38 -26.5 63t-39.5 50t-68 37t-102 12h-280v-455h235q134 0 162 65v-280q0 3 -1.5 7.5t-11 16.5t-24.5 21.5t-47 17t-74 7.5h-239v-476h297q131 0 193.5 39t113.5 144
l-56 -328h-882q10 2 21 7.5t27.5 25t29 49.5t21.5 86t9 129v324h-389l-217 -351q-80 -130 -80 -198q0 -36 16 -52.5t31 -19.5zM780 764h301v483z" />
    <glyph glyph-name="Ccedilla" unicode="&#xc7;" horiz-adv-x="1310" 
d="M625 -129l59 102q-146 13 -262 75.5t-188 156.5t-110 208.5t-38 239.5q0 111 29 218t90 202.5t146 167.5t206 114t262 42q98 0 196 -23.5t165 -60.5v-361q-47 140 -148.5 213.5t-240.5 73.5q-111 0 -201 -46.5t-146 -124.5t-86 -174.5t-30 -201.5q0 -106 30.5 -204
t87.5 -177.5t149 -127.5t206 -48q109 0 220 57.5t187 153.5v-184q-71 -82 -180 -133.5t-233 -57.5l-29 -47q79 -10 121.5 -50t42.5 -93q0 -61 -55 -106.5t-150 -45.5q-96 0 -166 45q30 -6 66 -6q70 0 112.5 32.5t42.5 74.5q0 39 -41 67t-114 29z" />
    <glyph glyph-name="Egrave" unicode="&#xc8;" horiz-adv-x="1073" 
d="M186 219v934q0 50 -9.5 89.5t-22 60.5t-30.5 35.5t-27.5 18.5t-20.5 7h854v-305q-13 38 -26.5 63t-39.5 50t-68 37t-102 12h-280v-455h235q134 0 162 65v-278q-23 68 -158 68h-239v-476h297q131 0 193.5 39t113.5 144l-55 -328h-873q9 2 18 6t24 19t26 37t19.5 63t8.5 94
zM319 1747h279l121 -313z" />
    <glyph glyph-name="Eacute" unicode="&#xc9;" horiz-adv-x="1073" 
d="M186 219v934q0 50 -9.5 89.5t-22 60.5t-30.5 35.5t-27.5 18.5t-20.5 7h854v-305q-13 38 -26.5 63t-39.5 50t-68 37t-102 12h-280v-455h235q134 0 162 65v-278q-23 68 -158 68h-239v-476h297q131 0 193.5 39t113.5 144l-55 -328h-873q9 2 18 6t24 19t26 37t19.5 63t8.5 94
zM453 1434l116 313h279z" />
    <glyph glyph-name="Ecircumflex" unicode="&#xca;" horiz-adv-x="1073" 
d="M186 219v934q0 50 -9.5 89.5t-22 60.5t-30.5 35.5t-27.5 18.5t-20.5 7h854v-305q-13 38 -26.5 63t-39.5 50t-68 37t-102 12h-280v-455h235q134 0 162 65v-278q-23 68 -158 68h-239v-476h297q131 0 193.5 39t113.5 144l-55 -328h-873q9 2 18 6t24 19t26 37t19.5 63t8.5 94
zM555 1778l301 -346q-52 27 -153 67.5t-148 63.5q-45 -22 -143.5 -63t-149.5 -68q50 64 148 176t145 170z" />
    <glyph glyph-name="Edieresis" unicode="&#xcb;" horiz-adv-x="1073" 
d="M186 219v934q0 50 -9.5 89.5t-22 60.5t-30.5 35.5t-27.5 18.5t-20.5 7h854v-305q-13 38 -26.5 63t-39.5 50t-68 37t-102 12h-280v-455h235q134 0 162 65v-278q-23 68 -158 68h-239v-476h297q131 0 193.5 39t113.5 144l-55 -328h-873q9 2 18 6t24 19t26 37t19.5 63t8.5 94
zM635 1593q0 47 31.5 78t83.5 31q51 0 81.5 -31t30.5 -78t-31 -78.5t-81 -31.5q-51 0 -83 31.5t-32 78.5zM256 1593q0 47 31.5 78t83.5 31q51 0 81.5 -31t30.5 -78t-30.5 -78.5t-81.5 -31.5t-83 31.5t-32 78.5z" />
    <glyph glyph-name="Igrave" unicode="&#xcc;" horiz-adv-x="614" 
d="M184 197v964q0 173 -100 203h422q-11 -2 -23.5 -10.5t-30.5 -28.5t-30 -63t-12 -101v-964q0 -58 11 -99.5t29 -60.5t30.5 -27t23.5 -10h-418q12 2 24.5 9.5t31.5 26t30.5 60.5t11.5 101zM47 1747h279l120 -313z" />
    <glyph glyph-name="Iacute" unicode="&#xcd;" horiz-adv-x="614" 
d="M184 197v964q0 173 -100 203h422q-11 -2 -23.5 -10.5t-30.5 -28.5t-30 -63t-12 -101v-964q0 -58 11 -99.5t29 -60.5t30.5 -27t23.5 -10h-418q12 2 24.5 9.5t31.5 26t30.5 60.5t11.5 101zM172 1434l117 313h278z" />
    <glyph glyph-name="Icircumflex" unicode="&#xce;" horiz-adv-x="614" 
d="M184 197v964q0 173 -100 203h422q-11 -2 -23.5 -10.5t-30.5 -28.5t-30 -63t-12 -101v-964q0 -58 11 -99.5t29 -60.5t30.5 -27t23.5 -10h-418q12 2 24.5 9.5t31.5 26t30.5 60.5t11.5 101zM305 1778l301 -346q-52 27 -153 67.5t-148 63.5q-45 -22 -143.5 -63t-149.5 -68
q50 64 148 176t145 170z" />
    <glyph glyph-name="Idieresis" unicode="&#xcf;" horiz-adv-x="614" 
d="M184 197v964q0 173 -100 203h422q-11 -2 -23.5 -10.5t-30.5 -28.5t-30 -63t-12 -101v-964q0 -58 11 -99.5t29 -60.5t30.5 -27t23.5 -10h-418q12 2 24.5 9.5t31.5 26t30.5 60.5t11.5 101zM385 1593q0 47 31.5 78t83.5 31q51 0 81.5 -31t30.5 -78t-31 -78.5t-81 -31.5
q-51 0 -83 31.5t-32 78.5zM6 1593q0 47 31.5 78t83.5 31q51 0 81.5 -31t30.5 -78t-30.5 -78.5t-81.5 -31.5t-83 31.5t-32 78.5z" />
    <glyph glyph-name="Eth" unicode="&#xd0;" horiz-adv-x="1429" 
d="M197 231v387h-158v121h158v414q0 61 -13.5 105.5t-34.5 65.5t-36 29.5t-29 10.5h575q209 0 364.5 -84.5t237.5 -235.5t82 -348q0 -113 -26 -214.5t-81.5 -190t-136.5 -153t-197 -101.5t-257 -37h-551q9 2 18.5 6t26 19.5t28.5 38.5t21 66.5t9 100.5zM424 145h235
q90 0 165 30.5t125.5 82.5t85.5 121.5t51 145.5t16 157q0 254 -126 396.5t-370 142.5h-182v-482h254v-121h-254v-473z" />
    <glyph glyph-name="Ntilde" unicode="&#xd1;" horiz-adv-x="1429" 
d="M195 205v936q0 42 -15.5 79.5t-35 60.5t-46.5 42.5t-41.5 27t-29.5 13.5h344l714 -918v713q0 177 -106 205h375q-9 -2 -18.5 -6t-25 -18t-27 -34.5t-20 -59t-8.5 -87.5v-1159h-147q-5 15 -16.5 41.5t-59.5 107.5t-112 160l-553 688v-792q0 -49 9.5 -87t22 -58.5
t29.5 -34.5t28 -18.5t21 -6.5h-383q13 3 25.5 10t32 26.5t31.5 63t12 105.5zM479 1444q-35 41 -35 98q0 68 45.5 121t122.5 53q43 0 102 -28t112.5 -56t84.5 -28q49 0 74 40t27 101q32 -35 32 -94q0 -70 -46.5 -126.5t-120.5 -56.5q-35 0 -78 18.5t-76 40t-72 40t-67 18.5
q-46 0 -74 -39t-31 -102z" />
    <glyph glyph-name="Ograve" unicode="&#xd2;" horiz-adv-x="1507" 
d="M735 -31q-191 0 -340 91.5t-230 250t-81 355.5q0 205 88.5 372t247.5 263t356 96q191 0 339 -91.5t228 -249.5t80 -356q0 -150 -50 -284t-139 -233t-218.5 -156.5t-280.5 -57.5zM778 131q181 0 299.5 142.5t118.5 375.5q0 257 -128 422.5t-337 165.5q-180 0 -299 -139
t-119 -371q0 -266 129.5 -431t335.5 -165zM483 1747h279l121 -313z" />
    <glyph glyph-name="Oacute" unicode="&#xd3;" horiz-adv-x="1507" 
d="M735 -31q-191 0 -340 91.5t-230 250t-81 355.5q0 205 88.5 372t247.5 263t356 96q191 0 339 -91.5t228 -249.5t80 -356q0 -150 -50 -284t-139 -233t-218.5 -156.5t-280.5 -57.5zM778 131q181 0 299.5 142.5t118.5 375.5q0 257 -128 422.5t-337 165.5q-180 0 -299 -139
t-119 -371q0 -266 129.5 -431t335.5 -165zM608 1434l117 313h279z" />
    <glyph glyph-name="Ocircumflex" unicode="&#xd4;" horiz-adv-x="1507" 
d="M735 -31q-191 0 -340 91.5t-230 250t-81 355.5q0 205 88.5 372t247.5 263t356 96q191 0 339 -91.5t228 -249.5t80 -356q0 -150 -50 -284t-139 -233t-218.5 -156.5t-280.5 -57.5zM778 131q181 0 299.5 142.5t118.5 375.5q0 257 -128 422.5t-337 165.5q-180 0 -299 -139
t-119 -371q0 -266 129.5 -431t335.5 -165zM772 1778l301 -346q-52 27 -153 67.5t-148 63.5q-45 -22 -143.5 -63t-149.5 -68q50 64 148 176t145 170z" />
    <glyph glyph-name="Otilde" unicode="&#xd5;" horiz-adv-x="1507" 
d="M735 -31q-191 0 -340 91.5t-230 250t-81 355.5q0 205 88.5 372t247.5 263t356 96q191 0 339 -91.5t228 -249.5t80 -356q0 -150 -50 -284t-139 -233t-218.5 -156.5t-280.5 -57.5zM778 131q181 0 299.5 142.5t118.5 375.5q0 257 -128 422.5t-337 165.5q-180 0 -299 -139
t-119 -371q0 -266 129.5 -431t335.5 -165zM510 1444q-35 41 -35 98q0 68 45.5 121t122.5 53q43 0 102 -28t112.5 -56t84.5 -28q49 0 73.5 40t26.5 101q33 -36 33 -94q0 -69 -47 -126t-121 -57q-35 0 -78 18.5t-76 40t-72 40t-67 18.5q-46 0 -73.5 -39t-30.5 -102z" />
    <glyph glyph-name="Odieresis" unicode="&#xd6;" horiz-adv-x="1507" 
d="M735 -31q-191 0 -340 91.5t-230 250t-81 355.5q0 205 88.5 372t247.5 263t356 96q191 0 339 -91.5t228 -249.5t80 -356q0 -150 -50 -284t-139 -233t-218.5 -156.5t-280.5 -57.5zM778 131q181 0 299.5 142.5t118.5 375.5q0 257 -128 422.5t-337 165.5q-180 0 -299 -139
t-119 -371q0 -266 129.5 -431t335.5 -165zM856 1593q0 47 31.5 78t83.5 31q51 0 81.5 -31t30.5 -78t-31 -78.5t-81 -31.5q-51 0 -83 31.5t-32 78.5zM477 1593q0 47 31.5 78t83.5 31q51 0 82 -31t31 -78t-31 -78.5t-82 -31.5t-83 31.5t-32 78.5z" />
    <glyph glyph-name="multiply" unicode="&#xd7;" horiz-adv-x="1380" 
d="M225 4l-102 105l467 466l-467 469l100 103l469 -471l465 469l103 -103l-467 -469l467 -467l-103 -102l-465 469z" />
    <glyph glyph-name="Oslash" unicode="&#xd8;" horiz-adv-x="1507" 
d="M193 -39l112 166q-105 96 -163 235.5t-58 303.5q0 205 88.5 372t247.5 263t356 96q178 0 324 -84l90 135l129 -53l-109 -162q102 -96 157.5 -233.5t55.5 -299.5q0 -150 -50 -284t-139 -233t-218.5 -156.5t-280.5 -57.5q-173 0 -319 78l-92 -137zM428 313l561 836
q-115 88 -258 88q-180 0 -299 -139t-119 -371q0 -255 115 -414zM1085 1047l-559 -834q111 -82 252 -82q181 0 299.5 142.5t118.5 375.5q0 241 -111 398z" />
    <glyph glyph-name="Ugrave" unicode="&#xd9;" horiz-adv-x="1378" 
d="M174 459v698q0 49 -8.5 87.5t-19.5 59t-27 35t-24.5 18.5t-18.5 7h418q-8 -2 -17.5 -6t-23.5 -18t-25 -35t-19 -58.5t-8 -85.5v-694q0 -183 76.5 -262.5t241.5 -79.5q167 0 235 86t68 254v688q0 61 -13 105.5t-33 65.5t-35 29.5t-28 10.5h400q-12 -2 -26 -10.5
t-33.5 -29.5t-31.5 -65.5t-12 -105.5v-680q0 -257 -127 -380.5t-385 -123.5q-273 0 -398.5 120.5t-125.5 369.5zM383 1747h279l120 -313z" />
    <glyph glyph-name="Uacute" unicode="&#xda;" horiz-adv-x="1378" 
d="M174 459v698q0 49 -8.5 87.5t-19.5 59t-27 35t-24.5 18.5t-18.5 7h418q-8 -2 -17.5 -6t-23.5 -18t-25 -35t-19 -58.5t-8 -85.5v-694q0 -183 76.5 -262.5t241.5 -79.5q167 0 235 86t68 254v688q0 61 -13 105.5t-33 65.5t-35 29.5t-28 10.5h400q-12 -2 -26 -10.5
t-33.5 -29.5t-31.5 -65.5t-12 -105.5v-680q0 -257 -127 -380.5t-385 -123.5q-273 0 -398.5 120.5t-125.5 369.5zM641 1434l117 313h278z" />
    <glyph glyph-name="Ucircumflex" unicode="&#xdb;" horiz-adv-x="1378" 
d="M174 459v698q0 49 -8.5 87.5t-19.5 59t-27 35t-24.5 18.5t-18.5 7h418q-8 -2 -17.5 -6t-23.5 -18t-25 -35t-19 -58.5t-8 -85.5v-694q0 -183 76.5 -262.5t241.5 -79.5q167 0 235 86t68 254v688q0 61 -13 105.5t-33 65.5t-35 29.5t-28 10.5h400q-12 -2 -26 -10.5
t-33.5 -29.5t-31.5 -65.5t-12 -105.5v-680q0 -257 -127 -380.5t-385 -123.5q-273 0 -398.5 120.5t-125.5 369.5zM702 1778l302 -346q-52 27 -153.5 67.5t-148.5 63.5q-45 -22 -143 -63t-149 -68q50 64 148 176t144 170z" />
    <glyph glyph-name="Udieresis" unicode="&#xdc;" horiz-adv-x="1378" 
d="M174 459v698q0 49 -8.5 87.5t-19.5 59t-27 35t-24.5 18.5t-18.5 7h418q-8 -2 -17.5 -6t-23.5 -18t-25 -35t-19 -58.5t-8 -85.5v-694q0 -183 76.5 -262.5t241.5 -79.5q167 0 235 86t68 254v688q0 61 -13 105.5t-33 65.5t-35 29.5t-28 10.5h400q-12 -2 -26 -10.5
t-33.5 -29.5t-31.5 -65.5t-12 -105.5v-680q0 -257 -127 -380.5t-385 -123.5q-273 0 -398.5 120.5t-125.5 369.5zM793 1593q0 47 31.5 78t82.5 31t82 -31t31 -78t-31.5 -78.5t-81.5 -31.5q-51 0 -82.5 31.5t-31.5 78.5zM414 1593q0 47 31.5 78t82.5 31t82 -31t31 -78
t-31 -78.5t-82 -31.5t-82.5 31.5t-31.5 78.5z" />
    <glyph glyph-name="Yacute" unicode="&#xdd;" horiz-adv-x="1314" 
d="M541 209v360l-326 580q-105 184 -199 215h455q-53 -15 -53 -72q0 -42 53 -137l225 -401l211 372q68 119 68 166q0 57 -53 72h370q-10 -2 -24.5 -11t-39.5 -30t-59.5 -67.5t-70.5 -110.5l-328 -570v-366q0 -61 10.5 -105t27 -64.5t29.5 -29t25 -10.5h-418q12 2 25.5 10
t31 28t29 64.5t11.5 106.5zM666 1434l116 313h279z" />
    <glyph glyph-name="Thorn" unicode="&#xde;" horiz-adv-x="1189" 
d="M184 197v970q0 168 -98 197h418q-12 -2 -25 -10t-30 -27.5t-28 -61t-11 -98.5v-26q76 8 241 8q197 0 325 -121t128 -311q0 -88 -32 -169t-90.5 -144.5t-150 -101.5t-202.5 -38q-139 0 -219 27v-94q0 -58 11 -99.5t29 -60.5t30.5 -27t23.5 -10h-418q12 2 24.5 9.5t31.5 26
t30.5 60.5t11.5 101zM410 999v-569q56 -24 190 -24q124 0 197 86.5t73 214.5q0 130 -71.5 216.5t-192.5 86.5q-138 0 -196 -11z" />
    <glyph glyph-name="germandbls" unicode="&#xdf;" horiz-adv-x="1257" 
d="M162 215v719q0 217 141.5 348t374.5 131q161 0 267 -73.5t106 -196.5q0 -59 -26 -108.5t-64.5 -80.5t-84 -60t-84 -49t-64.5 -46.5t-26 -53.5q0 -29 25.5 -55t66.5 -49t90.5 -47.5t98.5 -55t90 -67t66.5 -89t25.5 -114.5q0 -138 -104 -216.5t-266 -78.5q-87 0 -167 23
t-130 61l63 168q39 -53 105.5 -86t136.5 -33q72 0 116 36.5t44 95.5q0 45 -26 84t-67 67.5t-90.5 55.5t-99.5 54t-91 56.5t-67 69.5t-26 86q0 55 34.5 99t84 74.5t98.5 60t83.5 72t34.5 95.5q0 78 -55 127t-145 49q-117 0 -191.5 -83.5t-74.5 -211.5v-778q0 -51 7.5 -91.5
t18 -62t24 -36t22 -19t16.5 -6.5h-373q8 2 16 6t20.5 18.5t22 36t16.5 62t7 92.5z" />
    <glyph glyph-name="agrave" unicode="&#xe0;" horiz-adv-x="976" 
d="M338 670l-209 -82q-25 60 -25 112q0 123 111.5 208t278.5 85q172 0 252.5 -80t80.5 -217v-413q0 -87 40 -139t116 -52q11 0 27 4l-199 -139q-55 9 -102 51.5t-56 87.5q-37 -60 -118 -93.5t-173 -33.5q-120 0 -198 64t-78 174q0 116 135.5 212t403.5 156v95
q0 200 -160 200q-84 0 -128 -35.5t-44 -84.5q0 -29 12.5 -50.5t32.5 -29.5zM625 281v182q-342 -76 -342 -227q0 -60 42 -98t105 -38q76 0 135.5 52t59.5 129zM268 1364h287l115 -317z" />
    <glyph glyph-name="aacute" unicode="&#xe1;" horiz-adv-x="976" 
d="M338 670l-209 -82q-25 60 -25 112q0 123 111.5 208t278.5 85q172 0 252.5 -80t80.5 -217v-413q0 -87 40 -139t116 -52q11 0 27 4l-199 -139q-55 9 -102 51.5t-56 87.5q-37 -60 -118 -93.5t-173 -33.5q-120 0 -198 64t-78 174q0 116 135.5 212t403.5 156v95
q0 200 -160 200q-84 0 -128 -35.5t-44 -84.5q0 -29 12.5 -50.5t32.5 -29.5zM625 281v182q-342 -76 -342 -227q0 -60 42 -98t105 -38q76 0 135.5 52t59.5 129zM389 1047l117 317h278z" />
    <glyph glyph-name="acircumflex" unicode="&#xe2;" horiz-adv-x="976" 
d="M338 670l-209 -82q-25 60 -25 112q0 123 111.5 208t278.5 85q172 0 252.5 -80t80.5 -217v-413q0 -87 40 -139t116 -52q11 0 27 4l-199 -139q-55 9 -102 51.5t-56 87.5q-37 -60 -118 -93.5t-173 -33.5q-120 0 -198 64t-78 174q0 116 135.5 212t403.5 156v95
q0 200 -160 200q-84 0 -128 -35.5t-44 -84.5q0 -29 12.5 -50.5t32.5 -29.5zM625 281v182q-342 -76 -342 -227q0 -60 42 -98t105 -38q76 0 135.5 52t59.5 129zM774 1049l-280 155q-15 -9 -117 -67t-156 -88q35 46 273 366q47 -61 140 -183t140 -183z" />
    <glyph glyph-name="atilde" unicode="&#xe3;" horiz-adv-x="976" 
d="M338 670l-209 -82q-25 60 -25 112q0 123 111.5 208t278.5 85q172 0 252.5 -80t80.5 -217v-413q0 -87 40 -139t116 -52q11 0 27 4l-199 -139q-55 9 -102 51.5t-56 87.5q-37 -60 -118 -93.5t-173 -33.5q-120 0 -198 64t-78 174q0 116 135.5 212t403.5 156v95
q0 200 -160 200q-84 0 -128 -35.5t-44 -84.5q0 -29 12.5 -50.5t32.5 -29.5zM625 281v182q-342 -76 -342 -227q0 -60 42 -98t105 -38q76 0 135.5 52t59.5 129zM238 1096q-33 38 -33 86q0 73 44.5 129.5t121.5 56.5q34 0 79 -17.5t80.5 -39t75 -39t64.5 -17.5q49 0 73.5 40.5
t26.5 101.5q31 -36 31 -82q0 -75 -47.5 -135t-124.5 -60q-33 0 -74.5 18.5t-74.5 40t-71.5 40t-66.5 18.5q-46 0 -73.5 -39t-30.5 -102z" />
    <glyph glyph-name="adieresis" unicode="&#xe4;" horiz-adv-x="976" 
d="M338 670l-209 -82q-25 60 -25 112q0 123 111.5 208t278.5 85q172 0 252.5 -80t80.5 -217v-413q0 -87 40 -139t116 -52q11 0 27 4l-199 -139q-55 9 -102 51.5t-56 87.5q-37 -60 -118 -93.5t-173 -33.5q-120 0 -198 64t-78 174q0 116 135.5 212t403.5 156v95
q0 200 -160 200q-84 0 -128 -35.5t-44 -84.5q0 -29 12.5 -50.5t32.5 -29.5zM625 281v182q-342 -76 -342 -227q0 -60 42 -98t105 -38q76 0 135.5 52t59.5 129zM573 1262q0 47 31.5 77.5t83.5 30.5q51 0 82 -30.5t31 -77.5t-31.5 -79t-81.5 -32q-51 0 -83 32t-32 79zM195 1262
q0 47 31 77.5t83 30.5q51 0 82 -30.5t31 -77.5t-31 -79t-82 -32t-82.5 32t-31.5 79z" />
    <glyph glyph-name="aring" unicode="&#xe5;" horiz-adv-x="976" 
d="M338 670l-209 -82q-25 60 -25 112q0 123 111.5 208t278.5 85q172 0 252.5 -80t80.5 -217v-413q0 -87 40 -139t116 -52q11 0 27 4l-199 -139q-55 9 -102 51.5t-56 87.5q-37 -60 -118 -93.5t-173 -33.5q-120 0 -198 64t-78 174q0 116 135.5 212t403.5 156v95
q0 200 -160 200q-84 0 -128 -35.5t-44 -84.5q0 -29 12.5 -50.5t32.5 -29.5zM625 281v182q-342 -76 -342 -227q0 -60 42 -98t105 -38q76 0 135.5 52t59.5 129zM311 1249q0 84 54.5 138.5t138.5 54.5t139 -54t55 -139t-55 -138.5t-139 -53.5t-138.5 54t-54.5 138zM504 1135
q47 0 77.5 32t30.5 82q0 51 -30 82t-78 31q-49 0 -80 -31.5t-31 -81.5q0 -49 32 -81.5t79 -32.5z" />
    <glyph glyph-name="ae" unicode="&#xe6;" horiz-adv-x="1497" 
d="M340 670l-211 -82q-25 60 -25 112q0 123 112.5 208t279.5 85q201 0 278 -131q109 131 277 131q120 0 206 -69.5t127 -184.5t43 -266h-608q0 -14 4 -22q27 -145 107 -233.5t200 -88.5q84 0 167.5 43t142.5 119q-36 -158 -136 -240t-251 -82q-218 0 -338 176
q-42 -81 -136 -128.5t-204 -47.5q-130 0 -209.5 65t-79.5 173q0 116 135.5 212t403.5 156v95q0 200 -160 200q-84 0 -128 -35.5t-44 -84.5q0 -29 13 -50.5t34 -29.5zM821 588h400q0 71 -18 132t-60.5 103.5t-102.5 42.5q-93 0 -153 -83.5t-66 -194.5zM625 281v182
q-342 -76 -342 -227q0 -60 42 -98t105 -38q77 0 136 50t59 131z" />
    <glyph glyph-name="ccedilla" unicode="&#xe7;" horiz-adv-x="903" 
d="M362 -129l62 102q-168 23 -260 151t-92 316q0 123 37 227.5t99.5 175.5t146.5 110.5t177 39.5q130 0 216 -81.5t90 -215.5l-205 -86q12 40 12 72q0 76 -41.5 121t-109.5 45q-101 0 -164.5 -93.5t-63.5 -238.5q0 -103 32 -190t101 -144t162 -57q77 0 153.5 44t141.5 128
q-30 -142 -119 -226t-205 -98l-28 -49q79 -10 121.5 -50t42.5 -93q0 -61 -55 -106.5t-150 -45.5q-96 0 -166 45q30 -6 65 -6q70 0 113 32.5t43 74.5q0 39 -41.5 67t-114.5 29z" />
    <glyph glyph-name="egrave" unicode="&#xe8;" horiz-adv-x="950" 
d="M879 473h-607q0 -14 4 -22q19 -145 102 -233.5t206 -88.5q84 0 166.5 43t142.5 119q-36 -158 -136 -240t-251 -82q-134 0 -234 68t-150 179t-50 247q0 145 52.5 265t152 192.5t227.5 72.5q120 0 205.5 -69.5t126.5 -184.5t43 -266zM272 588h402q0 72 -17.5 132.5t-60 103
t-102.5 42.5q-93 0 -154.5 -84t-67.5 -194zM248 1364h287l114 -317z" />
    <glyph glyph-name="eacute" unicode="&#xe9;" horiz-adv-x="950" 
d="M879 473h-607q0 -14 4 -22q19 -145 102 -233.5t206 -88.5q84 0 166.5 43t142.5 119q-36 -158 -136 -240t-251 -82q-134 0 -234 68t-150 179t-50 247q0 145 52.5 265t152 192.5t227.5 72.5q120 0 205.5 -69.5t126.5 -184.5t43 -266zM272 588h402q0 72 -17.5 132.5t-60 103
t-102.5 42.5q-93 0 -154.5 -84t-67.5 -194zM399 1047l117 317h279z" />
    <glyph glyph-name="ecircumflex" unicode="&#xea;" horiz-adv-x="950" 
d="M879 473h-607q0 -14 4 -22q19 -145 102 -233.5t206 -88.5q84 0 166.5 43t142.5 119q-36 -158 -136 -240t-251 -82q-134 0 -234 68t-150 179t-50 247q0 145 52.5 265t152 192.5t227.5 72.5q120 0 205.5 -69.5t126.5 -184.5t43 -266zM272 588h402q0 72 -17.5 132.5t-60 103
t-102.5 42.5q-93 0 -154.5 -84t-67.5 -194zM782 1049l-280 155q-15 -9 -117 -67t-156 -88q35 46 273 366q47 -61 140 -183t140 -183z" />
    <glyph glyph-name="edieresis" unicode="&#xeb;" horiz-adv-x="950" 
d="M879 473h-607q0 -14 4 -22q19 -145 102 -233.5t206 -88.5q84 0 166.5 43t142.5 119q-36 -158 -136 -240t-251 -82q-134 0 -234 68t-150 179t-50 247q0 145 52.5 265t152 192.5t227.5 72.5q120 0 205.5 -69.5t126.5 -184.5t43 -266zM272 588h402q0 72 -17.5 132.5t-60 103
t-102.5 42.5q-93 0 -154.5 -84t-67.5 -194zM582 1262q0 47 31 77.5t83 30.5q51 0 82 -30.5t31 -77.5t-31.5 -79t-81.5 -32q-51 0 -82.5 32t-31.5 79zM203 1262q0 47 31 77.5t83 30.5q51 0 82 -30.5t31 -77.5t-31 -79t-82 -32t-82.5 32t-31.5 79z" />
    <glyph glyph-name="igrave" unicode="&#xec;" horiz-adv-x="497" 
d="M145 199v491q0 71 -15.5 111.5t-37.5 52.5t-55 12h-25l342 133v-800q0 -57 10.5 -99t27 -61.5t29.5 -28t25 -10.5h-395q12 2 25 10t30 27t28 61t11 101zM2 1364h287l114 -317z" />
    <glyph glyph-name="iacute" unicode="&#xed;" horiz-adv-x="497" 
d="M145 199v491q0 71 -15.5 111.5t-37.5 52.5t-55 12h-25l342 133v-800q0 -57 10.5 -99t27 -61.5t29.5 -28t25 -10.5h-395q12 2 25 10t30 27t28 61t11 101zM90 1047l117 317h278z" />
    <glyph glyph-name="icircumflex" unicode="&#xee;" horiz-adv-x="497" 
d="M145 199v491q0 71 -15.5 111.5t-37.5 52.5t-55 12h-25l342 133v-800q0 -57 10.5 -99t27 -61.5t29.5 -28t25 -10.5h-395q12 2 25 10t30 27t28 61t11 101zM528 1049l-280 155q-15 -9 -117 -67t-156 -88q35 46 273 366q47 -61 140 -183t140 -183z" />
    <glyph glyph-name="idieresis" unicode="&#xef;" horiz-adv-x="497" 
d="M145 199v491q0 71 -15.5 111.5t-37.5 52.5t-55 12h-25l342 133v-800q0 -57 10.5 -99t27 -61.5t29.5 -28t25 -10.5h-395q12 2 25 10t30 27t28 61t11 101zM328 1262q0 47 31 77.5t81 30.5q52 0 83.5 -30.5t31.5 -77.5t-32 -79t-83 -32q-50 0 -81 32t-31 79zM-53 1262
q0 46 32 77t82 31q52 0 83.5 -30.5t31.5 -77.5t-32 -79t-83 -32q-50 0 -82 32t-32 79z" />
    <glyph glyph-name="eth" unicode="&#xf0;" horiz-adv-x="1032" 
d="M332 1063l-51 74l168 82q-87 66 -162 90l205 114q67 -31 153 -118l195 96l53 -76l-180 -88q248 -299 248 -702q0 -260 -118.5 -414t-324.5 -154q-134 0 -237 76.5t-154 196.5t-51 260q0 110 31.5 204.5t83 156.5t117 97t134.5 35q102 0 186 -58.5t138 -176.5
q-31 108 -94 214t-144 185zM547 117q96 0 151.5 72.5t55.5 211.5q0 198 -88.5 323.5t-200.5 125.5q-85 0 -138 -69t-53 -195q0 -209 75.5 -339t197.5 -130z" />
    <glyph glyph-name="ntilde" unicode="&#xf1;" horiz-adv-x="1085" 
d="M145 193v489q0 58 -7.5 96t-23 56.5t-32 25t-41.5 6.5h-25l326 135l2 -170q49 69 140 115.5t175 46.5q124 0 200.5 -79.5t76.5 -243.5v-473q0 -57 9.5 -98t25 -60.5t28 -28t23.5 -10.5h-371q8 2 15.5 5.5t20 16.5t21.5 32t16 54.5t7 81.5v426q0 110 -42 165t-114 55
q-87 0 -157 -69.5t-70 -166.5v-410q0 -55 9.5 -95t24.5 -58.5t26.5 -26.5t23.5 -10h-379q12 2 24.5 9.5t29.5 26t27.5 59.5t10.5 98zM295 1096q-33 38 -33 86q0 73 44.5 129.5t121.5 56.5q34 0 79 -17.5t80.5 -39t75 -39t64.5 -17.5q49 0 73.5 40.5t26.5 101.5
q31 -36 31 -82q0 -75 -47.5 -135t-124.5 -60q-33 0 -74.5 18.5t-74.5 40t-71.5 40t-66.5 18.5q-46 0 -73.5 -39t-30.5 -102z" />
    <glyph glyph-name="ograve" unicode="&#xf2;" horiz-adv-x="1114" 
d="M545 -31q-114 0 -205 41.5t-147 112t-85.5 157.5t-29.5 183q0 79 19.5 155.5t60.5 144.5t97.5 119t136.5 81t173 30q92 0 170 -27.5t133 -74t93.5 -110t56.5 -134.5t18 -147q0 -100 -32 -193.5t-91.5 -169.5t-155 -122t-212.5 -46zM575 111q116 0 181 102t65 244
q0 101 -31 189t-97.5 147t-157.5 59q-80 0 -137 -49.5t-83 -125.5t-26 -167q0 -101 31 -190t97.5 -149t157.5 -60zM301 1364h287l114 -317z" />
    <glyph glyph-name="oacute" unicode="&#xf3;" horiz-adv-x="1114" 
d="M545 -31q-114 0 -205 41.5t-147 112t-85.5 157.5t-29.5 183q0 79 19.5 155.5t60.5 144.5t97.5 119t136.5 81t173 30q92 0 170 -27.5t133 -74t93.5 -110t56.5 -134.5t18 -147q0 -100 -32 -193.5t-91.5 -169.5t-155 -122t-212.5 -46zM575 111q116 0 181 102t65 244
q0 101 -31 189t-97.5 147t-157.5 59q-80 0 -137 -49.5t-83 -125.5t-26 -167q0 -101 31 -190t97.5 -149t157.5 -60zM451 1047l116 317h279z" />
    <glyph glyph-name="ocircumflex" unicode="&#xf4;" horiz-adv-x="1114" 
d="M545 -31q-114 0 -205 41.5t-147 112t-85.5 157.5t-29.5 183q0 79 19.5 155.5t60.5 144.5t97.5 119t136.5 81t173 30q92 0 170 -27.5t133 -74t93.5 -110t56.5 -134.5t18 -147q0 -100 -32 -193.5t-91.5 -169.5t-155 -122t-212.5 -46zM575 111q116 0 181 102t65 244
q0 101 -31 189t-97.5 147t-157.5 59q-80 0 -137 -49.5t-83 -125.5t-26 -167q0 -101 31 -190t97.5 -149t157.5 -60zM842 1049l-281 155q-27 -15 -123 -70.5t-149 -84.5q41 54 86.5 115.5t100 135t85.5 115.5q47 -61 140.5 -183t140.5 -183z" />
    <glyph glyph-name="otilde" unicode="&#xf5;" horiz-adv-x="1114" 
d="M545 -31q-114 0 -205 41.5t-147 112t-85.5 157.5t-29.5 183q0 79 19.5 155.5t60.5 144.5t97.5 119t136.5 81t173 30q92 0 170 -27.5t133 -74t93.5 -110t56.5 -134.5t18 -147q0 -100 -32 -193.5t-91.5 -169.5t-155 -122t-212.5 -46zM575 111q116 0 181 102t65 244
q0 101 -31 189t-97.5 147t-157.5 59q-80 0 -137 -49.5t-83 -125.5t-26 -167q0 -101 31 -190t97.5 -149t157.5 -60zM301 1096q-33 38 -33 86q0 73 44.5 129.5t121.5 56.5q34 0 79 -17.5t80.5 -39t75 -39t64.5 -17.5q49 0 74 40.5t27 101.5q30 -35 30 -82q0 -75 -47.5 -135
t-124.5 -60q-41 0 -95 29t-105 58.5t-86 29.5q-46 0 -74 -39t-31 -102z" />
    <glyph glyph-name="odieresis" unicode="&#xf6;" horiz-adv-x="1114" 
d="M545 -31q-114 0 -205 41.5t-147 112t-85.5 157.5t-29.5 183q0 79 19.5 155.5t60.5 144.5t97.5 119t136.5 81t173 30q92 0 170 -27.5t133 -74t93.5 -110t56.5 -134.5t18 -147q0 -100 -32 -193.5t-91.5 -169.5t-155 -122t-212.5 -46zM575 111q116 0 181 102t65 244
q0 101 -31 189t-97.5 147t-157.5 59q-80 0 -137 -49.5t-83 -125.5t-26 -167q0 -101 31 -190t97.5 -149t157.5 -60zM639 1262q0 47 31.5 77.5t83.5 30.5q51 0 81.5 -30.5t30.5 -77.5t-31 -79t-81 -32q-51 0 -83 32t-32 79zM260 1262q0 47 31.5 77.5t83.5 30.5
q51 0 81.5 -30.5t30.5 -77.5t-30.5 -79t-81.5 -32t-83 32t-32 79z" />
    <glyph glyph-name="divide" unicode="&#xf7;" horiz-adv-x="1380" 
d="M575 975q0 51 32.5 84t82.5 33t83.5 -33t33.5 -84q0 -50 -34 -81.5t-83 -31.5q-48 0 -81.5 31.5t-33.5 81.5zM129 512v141h1118v-141h-1118zM573 188q0 51 32.5 83t82.5 32q48 0 82.5 -32.5t34.5 -82.5t-34.5 -82t-82.5 -32q-50 0 -82.5 31.5t-32.5 82.5z" />
    <glyph glyph-name="oslash" unicode="&#xf8;" horiz-adv-x="1114" 
d="M145 -68l91 146q-78 69 -118 170t-40 215q0 79 19.5 155.5t60.5 144.5t97.5 119t136.5 81t173 30q119 0 215 -47l66 105l110 -41l-79 -127q78 -69 118.5 -170t40.5 -213q0 -100 -32 -193.5t-91.5 -169.5t-155 -122t-212.5 -46t-211 43l-74 -116zM348 256l340 541
q-68 55 -153 55q-80 0 -137 -49.5t-83 -125.5t-26 -167q0 -142 59 -254zM764 700l-338 -538q63 -51 149 -51q116 0 181 102t65 244q0 135 -57 243z" />
    <glyph glyph-name="ugrave" unicode="&#xf9;" horiz-adv-x="1064" 
d="M135 305v449q0 179 -117 203q-3 1 -4 1h324v-612q0 -109 41 -164t113 -55q90 0 159.5 75t69.5 169v399q0 26 -2.5 48t-6 38.5t-9 31t-11 24t-13 17t-13 12t-12.5 8.5t-10.5 5t-9.5 2l-5 2h295v-688q0 -104 26 -140t78 -36h25l-326 -131l-2 174q-55 -77 -142 -122.5
t-175 -45.5q-129 0 -201 81.5t-72 254.5zM279 1364h286l115 -317z" />
    <glyph glyph-name="uacute" unicode="&#xfa;" horiz-adv-x="1064" 
d="M135 305v449q0 179 -117 203q-3 1 -4 1h324v-612q0 -109 41 -164t113 -55q90 0 159.5 75t69.5 169v399q0 26 -2.5 48t-6 38.5t-9 31t-11 24t-13 17t-13 12t-12.5 8.5t-10.5 5t-9.5 2l-5 2h295v-688q0 -104 26 -140t78 -36h25l-326 -131l-2 174q-55 -77 -142 -122.5
t-175 -45.5q-129 0 -201 81.5t-72 254.5zM438 1047l117 317h279z" />
    <glyph glyph-name="ucircumflex" unicode="&#xfb;" horiz-adv-x="1064" 
d="M135 305v449q0 179 -117 203q-3 1 -4 1h324v-612q0 -109 41 -164t113 -55q90 0 159.5 75t69.5 169v399q0 26 -2.5 48t-6 38.5t-9 31t-11 24t-13 17t-13 12t-12.5 8.5t-10.5 5t-9.5 2l-5 2h295v-688q0 -104 26 -140t78 -36h25l-326 -131l-2 174q-55 -77 -142 -122.5
t-175 -45.5q-129 0 -201 81.5t-72 254.5zM821 1049l-280 155q-15 -9 -117 -67t-156 -88q35 46 273 366q47 -61 140 -183t140 -183z" />
    <glyph glyph-name="udieresis" unicode="&#xfc;" horiz-adv-x="1064" 
d="M135 305v449q0 179 -117 203q-3 1 -4 1h324v-612q0 -109 41 -164t113 -55q90 0 159.5 75t69.5 169v399q0 26 -2.5 48t-6 38.5t-9 31t-11 24t-13 17t-13 12t-12.5 8.5t-10.5 5t-9.5 2l-5 2h295v-688q0 -104 26 -140t78 -36h25l-326 -131l-2 174q-55 -77 -142 -122.5
t-175 -45.5q-129 0 -201 81.5t-72 254.5zM618 1262q0 47 31.5 77.5t83.5 30.5q51 0 82 -30.5t31 -77.5t-31.5 -79t-81.5 -32q-51 0 -83 32t-32 79zM240 1262q0 47 31 77.5t83 30.5q51 0 82 -30.5t31 -77.5t-31 -79t-82 -32t-82.5 32t-31.5 79z" />
    <glyph glyph-name="yacute" unicode="&#xfd;" horiz-adv-x="1062" 
d="M287 -395l-232 178q32 -14 86 -14q184 0 312 256l-306 766q-12 31 -26 56.5t-27.5 42t-26.5 29t-25 19.5t-19.5 11t-14.5 7l-8 2h420l-6 -2q-5 -2 -8.5 -3.5t-10 -5t-11.5 -8t-10.5 -11.5t-9 -14.5t-6 -19t-2.5 -24.5q0 -28 25 -94l190 -491l179 467q28 76 28 112
q0 25 -8.5 44t-21.5 29t-22.5 14.5t-18.5 6.5h356l-5 -2q-4 -2 -8.5 -4.5t-12 -7t-15 -11t-17 -16t-19 -22.5t-19.5 -29t-20.5 -37.5t-20.5 -46.5l-275 -682q-79 -198 -173.5 -327.5t-190.5 -167.5zM457 1047l116 317h279z" />
    <glyph glyph-name="thorn" unicode="&#xfe;" horiz-adv-x="1062" 
d="M143 -176v1268q0 84 -16 130.5t-38 60t-58 13.5h-19l332 127v-577q52 70 126 108.5t153 38.5q70 0 134.5 -29t117.5 -86t84.5 -151t31.5 -213q0 -151 -54 -273.5t-158 -195t-240 -72.5q-128 0 -195 64v-213q0 -168 90 -195h-371q7 2 15 6t20.5 17.5t21.5 33t16 56t7 82.5
zM344 592v-303q0 -86 45 -132t135 -46q117 0 182.5 103.5t65.5 252.5q0 167 -59 268t-164 101q-82 0 -143.5 -70t-61.5 -174z" />
    <glyph glyph-name="ydieresis" unicode="&#xff;" horiz-adv-x="1062" 
d="M287 -395l-232 178q32 -14 86 -14q184 0 312 256l-306 766q-12 31 -26 56.5t-27.5 42t-26.5 29t-25 19.5t-19.5 11t-14.5 7l-8 2h420l-6 -2q-5 -2 -8.5 -3.5t-10 -5t-11.5 -8t-10.5 -11.5t-9 -14.5t-6 -19t-2.5 -24.5q0 -28 25 -94l190 -491l179 467q28 76 28 112
q0 25 -8.5 44t-21.5 29t-22.5 14.5t-18.5 6.5h356l-5 -2q-4 -2 -8.5 -4.5t-12 -7t-15 -11t-17 -16t-19 -22.5t-19.5 -29t-20.5 -37.5t-20.5 -46.5l-275 -682q-79 -198 -173.5 -327.5t-190.5 -167.5zM623 1262q0 47 31 77.5t81 30.5q52 0 83.5 -30.5t31.5 -77.5t-32 -79
t-83 -32q-50 0 -81 32t-31 79zM242 1262q0 46 32 77t82 31q52 0 83.5 -30.5t31.5 -77.5t-32 -79t-83 -32q-50 0 -82 32t-32 79z" />
    <glyph glyph-name="Amacron" unicode="&#x100;" horiz-adv-x="1470" 
d="M410 0h-381q8 2 18 6.5t29 21.5t37.5 42t43.5 71.5t48 106.5l434 1116h176l442 -1120q23 -59 48 -104.5t45 -70t40 -41t31 -21.5t19 -7h-457q13 1 27 7.5t28.5 27.5t14.5 53q0 33 -33 117l-62 162h-538l-58 -156q-28 -76 -28 -113q0 -27 8.5 -47.5t22 -30.5t24.5 -14.5
t21 -5.5zM471 504h434l-219 567zM395 1544v107h652v-107h-652z" />
    <glyph glyph-name="amacron" unicode="&#x101;" horiz-adv-x="976" 
d="M338 670l-209 -82q-25 60 -25 112q0 123 111.5 208t278.5 85q172 0 252.5 -80t80.5 -217v-413q0 -87 40 -139t116 -52q11 0 27 4l-199 -139q-55 9 -102 51.5t-56 87.5q-37 -60 -118 -93.5t-173 -33.5q-120 0 -198 64t-78 174q0 116 135.5 212t403.5 156v95
q0 200 -160 200q-84 0 -128 -35.5t-44 -84.5q0 -29 12.5 -50.5t32.5 -29.5zM625 281v182q-342 -76 -342 -227q0 -60 42 -98t105 -38q76 0 135.5 52t59.5 129zM184 1190v104h650v-104h-650z" />
    <glyph glyph-name="Abreve" unicode="&#x102;" horiz-adv-x="1470" 
d="M410 0h-381q8 2 18 6.5t29 21.5t37.5 42t43.5 71.5t48 106.5l434 1116h176l442 -1120q23 -59 48 -104.5t45 -70t40 -41t31 -21.5t19 -7h-457q13 1 27 7.5t28.5 27.5t14.5 53q0 33 -33 117l-62 162h-538l-58 -156q-28 -76 -28 -113q0 -27 8.5 -47.5t22 -30.5t24.5 -14.5
t21 -5.5zM471 504h434l-219 567zM485 1769q32 -72 97 -110.5t139 -38.5q73 0 136 38t99 111q0 -142 -70 -221.5t-165 -79.5q-96 0 -166 80t-70 221z" />
    <glyph glyph-name="abreve" unicode="&#x103;" horiz-adv-x="976" 
d="M338 670l-209 -82q-25 60 -25 112q0 123 111.5 208t278.5 85q172 0 252.5 -80t80.5 -217v-413q0 -87 40 -139t116 -52q11 0 27 4l-199 -139q-55 9 -102 51.5t-56 87.5q-37 -60 -118 -93.5t-173 -33.5q-120 0 -198 64t-78 174q0 116 135.5 212t403.5 156v95
q0 200 -160 200q-84 0 -128 -35.5t-44 -84.5q0 -29 12.5 -50.5t32.5 -29.5zM625 281v182q-342 -76 -342 -227q0 -60 42 -98t105 -38q76 0 135.5 52t59.5 129zM274 1417q32 -72 96 -110.5t138 -38.5q75 0 138 38t97 111q0 -142 -70 -221.5t-165 -79.5t-164.5 80t-69.5 221z
" />
    <glyph glyph-name="Aogonek" unicode="&#x104;" horiz-adv-x="1470" 
d="M406 0h-375q11 2 26 12t38.5 34t52.5 76.5t57 125.5l434 1116h176l442 -1120q23 -58 48.5 -104t45.5 -70.5t40 -41t30.5 -21.5t18.5 -7q-120 -1 -178 -48t-58 -108q0 -48 32 -78t85 -30q61 0 127 41q-25 -68 -83 -108t-122 -40q-74 0 -126 46.5t-52 119.5q0 60 36 114
t95 91h-211q23 2 45.5 22.5t22.5 65.5q0 33 -33 117l-62 162h-538l-58 -156q-28 -76 -28 -113q0 -49 23 -71t49 -27zM471 504h434l-219 567z" />
    <glyph glyph-name="aogonek" unicode="&#x105;" horiz-adv-x="976" 
d="M338 670l-209 -82q-25 60 -25 112q0 123 111.5 208t278.5 85q172 0 252.5 -80t80.5 -217v-413q0 -87 40 -139t116 -52q11 0 27 4l-156 -108q-98 -67 -98 -144q0 -48 31.5 -78t84.5 -30q61 0 127 41q-25 -68 -82.5 -108t-121.5 -40q-74 0 -126.5 46.5t-52.5 119.5
q0 56 31.5 107t83.5 88q-65 46 -78 106q-37 -60 -118 -93.5t-173 -33.5q-120 0 -198 64t-78 174q0 116 135.5 212t403.5 156v95q0 200 -160 200q-84 0 -128 -35.5t-44 -84.5q0 -29 12.5 -50.5t32.5 -29.5zM625 281v182q-342 -76 -342 -227q0 -60 42 -98t105 -38
q76 0 135.5 52t59.5 129z" />
    <glyph glyph-name="Cacute" unicode="&#x106;" horiz-adv-x="1310" 
d="M1208 346v-184q-74 -87 -191.5 -140t-250.5 -53t-245.5 38t-191.5 103t-134.5 152.5t-82 186.5t-26.5 204q0 111 29 218t90 202.5t146 167.5t206 114t262 42q98 0 196 -23.5t165 -60.5v-361q-47 140 -148.5 213.5t-240.5 73.5q-111 0 -201 -46.5t-146 -124.5t-86 -174.5
t-30 -201.5q0 -106 30.5 -204t87.5 -177.5t149 -127.5t206 -48q109 0 220 57.5t187 153.5zM592 1434l117 313h278z" />
    <glyph glyph-name="cacute" unicode="&#x107;" horiz-adv-x="903" 
d="M838 696l-205 -86q12 40 12 72q0 76 -41.5 121t-109.5 45q-101 0 -164.5 -93.5t-63.5 -238.5q0 -103 32 -190t101 -144t162 -57q77 0 153.5 44t141.5 128q-32 -155 -135 -241.5t-232 -86.5q-198 0 -307.5 133t-109.5 338q0 123 37 227.5t99.5 175.5t146.5 110.5t177 39.5
q130 0 216 -81.5t90 -215.5zM369 1047l116 317h279z" />
    <glyph glyph-name="Ccircumflex" unicode="&#x108;" horiz-adv-x="1310" 
d="M1208 346v-184q-74 -87 -191.5 -140t-250.5 -53t-245.5 38t-191.5 103t-134.5 152.5t-82 186.5t-26.5 204q0 111 29 218t90 202.5t146 167.5t206 114t262 42q98 0 196 -23.5t165 -60.5v-361q-47 140 -148.5 213.5t-240.5 73.5q-111 0 -201 -46.5t-146 -124.5t-86 -174.5
t-30 -201.5q0 -106 30.5 -204t87.5 -177.5t149 -127.5t206 -48q109 0 220 57.5t187 153.5zM745 1778l302 -346q-52 27 -153.5 67.5t-148.5 63.5q-45 -22 -143 -63t-149 -68q50 64 148 176t144 170z" />
    <glyph glyph-name="ccircumflex" unicode="&#x109;" horiz-adv-x="903" 
d="M838 696l-205 -86q12 40 12 72q0 76 -41.5 121t-109.5 45q-101 0 -164.5 -93.5t-63.5 -238.5q0 -103 32 -190t101 -144t162 -57q77 0 153.5 44t141.5 128q-32 -155 -135 -241.5t-232 -86.5q-198 0 -307.5 133t-109.5 338q0 123 37 227.5t99.5 175.5t146.5 110.5t177 39.5
q130 0 216 -81.5t90 -215.5zM786 1049l-280 155q-15 -9 -117 -67t-156 -88q35 46 273 366q47 -61 140 -183t140 -183z" />
    <glyph glyph-name="Cdotaccent" unicode="&#x10a;" horiz-adv-x="1310" 
d="M1208 346v-184q-74 -87 -191.5 -140t-250.5 -53t-245.5 38t-191.5 103t-134.5 152.5t-82 186.5t-26.5 204q0 111 29 218t90 202.5t146 167.5t206 114t262 42q98 0 196 -23.5t165 -60.5v-361q-47 140 -148.5 213.5t-240.5 73.5q-111 0 -201 -46.5t-146 -124.5t-86 -174.5
t-30 -201.5q0 -106 30.5 -204t87.5 -177.5t149 -127.5t206 -48q109 0 220 57.5t187 153.5zM610 1593q0 57 38 94t100 37t98.5 -37t36.5 -94t-37 -95t-98 -38q-62 0 -100 38t-38 95z" />
    <glyph glyph-name="cdotaccent" unicode="&#x10b;" horiz-adv-x="903" 
d="M838 696l-205 -86q12 40 12 72q0 76 -41.5 121t-109.5 45q-101 0 -164.5 -93.5t-63.5 -238.5q0 -103 32 -190t101 -144t162 -57q77 0 153.5 44t141.5 128q-32 -155 -135 -241.5t-232 -86.5q-198 0 -307.5 133t-109.5 338q0 123 37 227.5t99.5 175.5t146.5 110.5t177 39.5
q130 0 216 -81.5t90 -215.5zM373 1264q0 48 32 80t87 32q54 0 86 -32.5t32 -79.5q0 -49 -32 -82t-86 -33t-86.5 33t-32.5 82z" />
    <glyph glyph-name="Ccaron" unicode="&#x10c;" horiz-adv-x="1310" 
d="M1208 346v-184q-74 -87 -191.5 -140t-250.5 -53t-245.5 38t-191.5 103t-134.5 152.5t-82 186.5t-26.5 204q0 111 29 218t90 202.5t146 167.5t206 114t262 42q98 0 196 -23.5t165 -60.5v-361q-47 140 -148.5 213.5t-240.5 73.5q-111 0 -201 -46.5t-146 -124.5t-86 -174.5
t-30 -201.5q0 -106 30.5 -204t87.5 -177.5t149 -127.5t206 -48q109 0 220 57.5t187 153.5zM764 1432l-301 346q52 -27 153 -67.5t148 -63.5q45 22 143.5 63t149.5 68q-50 -64 -148 -176t-145 -170z" />
    <glyph glyph-name="ccaron" unicode="&#x10d;" horiz-adv-x="903" 
d="M838 696l-205 -86q12 40 12 72q0 76 -41.5 121t-109.5 45q-101 0 -164.5 -93.5t-63.5 -238.5q0 -103 32 -190t101 -144t162 -57q77 0 153.5 44t141.5 128q-32 -155 -135 -241.5t-232 -86.5q-198 0 -307.5 133t-109.5 338q0 123 37 227.5t99.5 175.5t146.5 110.5t177 39.5
q130 0 216 -81.5t90 -215.5zM504 1061l-281 360l281 -151l272 151z" />
    <glyph glyph-name="Dcaron" unicode="&#x10e;" horiz-adv-x="1429" 
d="M197 231v922q0 61 -13.5 105.5t-34.5 65.5t-36 29.5t-29 10.5h575q209 0 364.5 -84.5t237.5 -235.5t82 -348q0 -113 -26 -214.5t-81.5 -190t-136.5 -153t-197 -101.5t-257 -37h-551q9 2 18.5 6t26 19.5t28.5 38.5t21 66.5t9 100.5zM424 145h235q90 0 165 30.5t125.5 82.5
t85.5 121.5t51 145.5t16 157q0 254 -126 396.5t-370 142.5h-182v-1076zM713 1432l-301 346q52 -27 153 -67.5t148 -63.5q45 22 143.5 63t149.5 68q-50 -64 -148 -176t-145 -170z" />
    <glyph glyph-name="dcaron" unicode="&#x10f;" horiz-adv-x="1064" 
d="M741 -43l-2 152q-43 -60 -124 -100t-164 -40q-172 0 -275.5 127.5t-103.5 349.5q0 242 130.5 393.5t319.5 151.5q67 0 121 -20.5t84 -55.5v197q0 114 -30.5 154.5t-84.5 40.5h-18l336 125v-1156q0 -80 15 -125.5t35 -58t50 -12.5h25zM729 332v305q0 98 -49 155.5
t-141 57.5q-117 0 -184.5 -103t-67.5 -247q0 -172 60 -273.5t165 -101.5q82 0 149.5 60.5t67.5 146.5zM1057 1026l51 371h231z" />
    <glyph glyph-name="Dcroat" unicode="&#x110;" horiz-adv-x="1429" 
d="M197 231v387h-158v121h158v414q0 61 -13.5 105.5t-34.5 65.5t-36 29.5t-29 10.5h575q209 0 364.5 -84.5t237.5 -235.5t82 -348q0 -113 -26 -214.5t-81.5 -190t-136.5 -153t-197 -101.5t-257 -37h-551q9 2 18.5 6t26 19.5t28.5 38.5t21 66.5t9 100.5zM424 145h235
q90 0 165 30.5t125.5 82.5t85.5 121.5t51 145.5t16 157q0 254 -126 396.5t-370 142.5h-182v-482h254v-121h-254v-473z" />
    <glyph glyph-name="dcroat" unicode="&#x111;" horiz-adv-x="1064" 
d="M774 -45l-2 158q-47 -63 -132 -103.5t-171 -40.5q-179 0 -286 127t-107 348q0 161 64.5 287.5t171 193t233.5 66.5q69 0 125 -20.5t88 -55.5v201h-371v82h365q-11 62 -39 85.5t-70 23.5h-20l344 125v-234h92v-82h-92v-840q0 -115 27.5 -155.5t76.5 -40.5h23zM760 338v295
q0 101 -52 159t-147 58q-83 0 -144.5 -51t-90.5 -129.5t-29 -171.5q0 -169 62 -270t173 -101q86 0 157 62t71 149z" />
    <glyph glyph-name="Emacron" unicode="&#x112;" horiz-adv-x="1073" 
d="M186 219v934q0 50 -9.5 89.5t-22 60.5t-30.5 35.5t-27.5 18.5t-20.5 7h854v-305q-13 38 -26.5 63t-39.5 50t-68 37t-102 12h-280v-455h235q134 0 162 65v-278q-23 68 -158 68h-239v-476h297q131 0 193.5 39t113.5 144l-55 -328h-873q9 2 18 6t24 19t26 37t19.5 63t8.5 94
zM197 1544v107h651v-107h-651z" />
    <glyph glyph-name="emacron" unicode="&#x113;" horiz-adv-x="950" 
d="M879 473h-607q0 -14 4 -22q19 -145 102 -233.5t206 -88.5q84 0 166.5 43t142.5 119q-36 -158 -136 -240t-251 -82q-134 0 -234 68t-150 179t-50 247q0 145 52.5 265t152 192.5t227.5 72.5q120 0 205.5 -69.5t126.5 -184.5t43 -266zM272 588h402q0 72 -17.5 132.5t-60 103
t-102.5 42.5q-93 0 -154.5 -84t-67.5 -194zM182 1190v104h649v-104h-649z" />
    <glyph glyph-name="Ebreve" unicode="&#x114;" horiz-adv-x="1073" 
d="M186 219v934q0 50 -9.5 89.5t-22 60.5t-30.5 35.5t-27.5 18.5t-20.5 7h854v-305q-13 38 -26.5 63t-39.5 50t-68 37t-102 12h-280v-455h235q134 0 162 65v-278q-23 68 -158 68h-239v-476h297q131 0 193.5 39t113.5 144l-55 -328h-873q9 2 18 6t24 19t26 37t19.5 63t8.5 94
zM309 1769q32 -72 97 -110.5t139 -38.5q73 0 136 38t99 111q0 -142 -70 -221.5t-165 -79.5q-96 0 -166 80t-70 221z" />
    <glyph glyph-name="ebreve" unicode="&#x115;" horiz-adv-x="950" 
d="M879 473h-607q0 -14 4 -22q19 -145 102 -233.5t206 -88.5q84 0 166.5 43t142.5 119q-36 -158 -136 -240t-251 -82q-134 0 -234 68t-150 179t-50 247q0 145 52.5 265t152 192.5t227.5 72.5q120 0 205.5 -69.5t126.5 -184.5t43 -266zM272 588h402q0 72 -17.5 132.5t-60 103
t-102.5 42.5q-93 0 -154.5 -84t-67.5 -194zM279 1417q33 -72 96 -110.5t137 -38.5q75 0 138.5 38t97.5 111q0 -142 -70.5 -221.5t-165.5 -79.5t-164 80t-69 221z" />
    <glyph glyph-name="Edotaccent" unicode="&#x116;" horiz-adv-x="1073" 
d="M186 219v934q0 50 -9.5 89.5t-22 60.5t-30.5 35.5t-27.5 18.5t-20.5 7h854v-305q-13 38 -26.5 63t-39.5 50t-68 37t-102 12h-280v-455h235q134 0 162 65v-278q-23 68 -158 68h-239v-476h297q131 0 193.5 39t113.5 144l-55 -328h-873q9 2 18 6t24 19t26 37t19.5 63t8.5 94
zM426 1593q0 57 37.5 94t99.5 37t98.5 -37t36.5 -94t-37 -95t-98 -38q-62 0 -99.5 38t-37.5 95z" />
    <glyph glyph-name="edotaccent" unicode="&#x117;" horiz-adv-x="950" 
d="M879 473h-607q0 -14 4 -22q19 -145 102 -233.5t206 -88.5q84 0 166.5 43t142.5 119q-36 -158 -136 -240t-251 -82q-134 0 -234 68t-150 179t-50 247q0 145 52.5 265t152 192.5t227.5 72.5q120 0 205.5 -69.5t126.5 -184.5t43 -266zM272 588h402q0 72 -17.5 132.5t-60 103
t-102.5 42.5q-93 0 -154.5 -84t-67.5 -194zM385 1264q0 48 32 80t87 32q54 0 86.5 -32.5t32.5 -79.5q0 -49 -32.5 -82t-86.5 -33t-86.5 33t-32.5 82z" />
    <glyph glyph-name="Eogonek" unicode="&#x118;" horiz-adv-x="1067" 
d="M186 219v934q0 176 -108 211h852v-305q-13 38 -26.5 63t-39.5 50t-68 37t-102 12h-280v-455h235q126 0 162 63v-276q-23 68 -158 68h-239v-476h297q131 0 193.5 39t113.5 144l-55 -328q-84 -4 -136.5 -51t-52.5 -105q0 -48 32 -78t85 -30q61 0 127 41q-25 -68 -83 -108
t-122 -40q-74 0 -126 46.5t-52 119.5q0 60 36 114t95 91h-674q12 2 25 11t30 30t28 67.5t11 110.5z" />
    <glyph glyph-name="eogonek" unicode="&#x119;" horiz-adv-x="950" 
d="M879 473h-607q0 -14 4 -22q19 -145 102 -233.5t206 -88.5q84 0 166.5 43t142.5 119q-20 -84 -51 -137q-25 -44 -55.5 -75t-79.5 -65q-67 -47 -84 -65q-45 -45 -45 -105q0 -48 31.5 -78t84.5 -30q61 0 127 41q-25 -68 -83 -108t-122 -40q-74 0 -126 46.5t-52 119.5
q0 96 90 176q-10 -2 -22 -2q-134 0 -234 68t-150 179t-50 247q0 145 52.5 265t152 192.5t227.5 72.5q120 0 205.5 -69.5t126.5 -184.5t43 -266zM272 588h402q0 72 -17.5 132.5t-60 103t-102.5 42.5q-93 0 -154.5 -84t-67.5 -194z" />
    <glyph glyph-name="Ecaron" unicode="&#x11a;" horiz-adv-x="1073" 
d="M186 219v934q0 50 -9.5 89.5t-22 60.5t-30.5 35.5t-27.5 18.5t-20.5 7h854v-305q-13 38 -26.5 63t-39.5 50t-68 37t-102 12h-280v-455h235q134 0 162 65v-278q-23 68 -158 68h-239v-476h297q131 0 193.5 39t113.5 144l-55 -328h-873q9 2 18 6t24 19t26 37t19.5 63t8.5 94
zM563 1432l-301 346q52 -27 153 -67.5t148 -63.5q45 22 143.5 63t149.5 68q-50 -64 -148 -176t-145 -170z" />
    <glyph glyph-name="ecaron" unicode="&#x11b;" horiz-adv-x="950" 
d="M879 473h-607q0 -14 4 -22q19 -145 102 -233.5t206 -88.5q84 0 166.5 43t142.5 119q-36 -158 -136 -240t-251 -82q-134 0 -234 68t-150 179t-50 247q0 145 52.5 265t152 192.5t227.5 72.5q120 0 205.5 -69.5t126.5 -184.5t43 -266zM272 588h402q0 72 -17.5 132.5t-60 103
t-102.5 42.5q-93 0 -154.5 -84t-67.5 -194zM504 1061l-281 360l281 -151l272 151z" />
    <glyph glyph-name="Gcircumflex" unicode="&#x11c;" horiz-adv-x="1419" 
d="M997 164v266q0 44 -9.5 78t-21.5 52.5t-29.5 31.5t-27 17t-20.5 7h430q-12 -2 -25 -9.5t-32 -25.5t-31 -56t-12 -91v-379q-199 -88 -451 -88q-132 0 -244.5 37.5t-192.5 102t-136.5 151.5t-83.5 186.5t-27 206.5q0 116 29 224.5t89.5 203t146 165t206.5 111t264 40.5
q130 0 230.5 -25.5t160.5 -58.5v-305q-20 41 -51.5 78t-81 74t-124.5 59t-165 22q-210 0 -336 -154t-126 -395q0 -247 136.5 -404t356.5 -157q75 0 178 35zM782 1778l301 -346q-52 27 -153 67.5t-148 63.5q-45 -22 -143.5 -63t-149.5 -68q50 64 148 176t145 170z" />
    <glyph glyph-name="gcircumflex" unicode="&#x11d;" horiz-adv-x="1017" 
d="M449 143l235 -6q145 -4 214 -64t69 -145q0 -61 -33 -117.5t-97 -104t-172 -76.5t-245 -29q-163 0 -266 50t-103 136q0 67 57 128.5t128 90.5q-59 15 -93 48.5t-34 80.5q0 51 53.5 109t124.5 94q-90 37 -143.5 116t-53.5 177q0 71 26.5 136t75.5 115.5t127 80.5t173 30
q70 0 157 -24q90 -23 156 -23q98 0 162 41v-158q-30 -10 -158 -10q61 -76 61 -188q0 -138 -102 -234t-283 -96q-23 0 -71 6q-109 -50 -109 -102q0 -26 41.5 -43t102.5 -19zM496 424q79 0 122.5 60.5t43.5 144.5q0 95 -51.5 168t-143.5 73q-82 0 -126 -58.5t-44 -141.5
q0 -99 54.5 -172.5t144.5 -73.5zM354 -20q-116 -61 -116 -134q0 -52 61 -82t178 -30q138 0 222.5 36.5t84.5 102.5q0 49 -46 72t-146 26q-228 9 -238 9zM784 1049l-280 155q-15 -9 -117 -67t-156 -88q35 46 273 366q47 -61 140 -183t140 -183z" />
    <glyph glyph-name="Gbreve" unicode="&#x11e;" horiz-adv-x="1419" 
d="M997 164v266q0 44 -9.5 78t-21.5 52.5t-29.5 31.5t-27 17t-20.5 7h430q-12 -2 -25 -9.5t-32 -25.5t-31 -56t-12 -91v-379q-199 -88 -451 -88q-132 0 -244.5 37.5t-192.5 102t-136.5 151.5t-83.5 186.5t-27 206.5q0 116 29 224.5t89.5 203t146 165t206.5 111t264 40.5
q130 0 230.5 -25.5t160.5 -58.5v-305q-20 41 -51.5 78t-81 74t-124.5 59t-165 22q-210 0 -336 -154t-126 -395q0 -247 136.5 -404t356.5 -157q75 0 178 35zM541 1769q32 -72 96.5 -110.5t138.5 -38.5q73 0 136.5 38t99.5 111q0 -142 -70.5 -221.5t-165.5 -79.5
q-96 0 -165.5 80t-69.5 221z" />
    <glyph glyph-name="gbreve" unicode="&#x11f;" horiz-adv-x="1017" 
d="M449 143l235 -6q145 -4 214 -64t69 -145q0 -61 -33 -117.5t-97 -104t-172 -76.5t-245 -29q-163 0 -266 50t-103 136q0 67 57 128.5t128 90.5q-59 15 -93 48.5t-34 80.5q0 51 53.5 109t124.5 94q-90 37 -143.5 116t-53.5 177q0 71 26.5 136t75.5 115.5t127 80.5t173 30
q70 0 157 -24q90 -23 156 -23q98 0 162 41v-158q-30 -10 -158 -10q61 -76 61 -188q0 -138 -102 -234t-283 -96q-23 0 -71 6q-109 -50 -109 -102q0 -26 41.5 -43t102.5 -19zM496 424q79 0 122.5 60.5t43.5 144.5q0 95 -51.5 168t-143.5 73q-82 0 -126 -58.5t-44 -141.5
q0 -99 54.5 -172.5t144.5 -73.5zM354 -20q-116 -61 -116 -134q0 -52 61 -82t178 -30q138 0 222.5 36.5t84.5 102.5q0 49 -46 72t-146 26q-228 9 -238 9zM274 1417q32 -72 96 -110.5t138 -38.5q75 0 138 38t97 111q0 -142 -70 -221.5t-165 -79.5t-164.5 80t-69.5 221z" />
    <glyph glyph-name="Gdotaccent" unicode="&#x120;" horiz-adv-x="1419" 
d="M997 164v266q0 44 -9.5 78t-21.5 52.5t-29.5 31.5t-27 17t-20.5 7h430q-12 -2 -25 -9.5t-32 -25.5t-31 -56t-12 -91v-379q-199 -88 -451 -88q-132 0 -244.5 37.5t-192.5 102t-136.5 151.5t-83.5 186.5t-27 206.5q0 116 29 224.5t89.5 203t146 165t206.5 111t264 40.5
q130 0 230.5 -25.5t160.5 -58.5v-305q-20 41 -51.5 78t-81 74t-124.5 59t-165 22q-210 0 -336 -154t-126 -395q0 -247 136.5 -404t356.5 -157q75 0 178 35zM647 1593q0 57 37.5 94t99.5 37t99 -37t37 -94t-37 -95t-99 -38t-99.5 38t-37.5 95z" />
    <glyph glyph-name="gdotaccent" unicode="&#x121;" horiz-adv-x="1017" 
d="M449 143l235 -6q145 -4 214 -64t69 -145q0 -61 -33 -117.5t-97 -104t-172 -76.5t-245 -29q-163 0 -266 50t-103 136q0 67 57 128.5t128 90.5q-59 15 -93 48.5t-34 80.5q0 51 53.5 109t124.5 94q-90 37 -143.5 116t-53.5 177q0 71 26.5 136t75.5 115.5t127 80.5t173 30
q70 0 157 -24q90 -23 156 -23q98 0 162 41v-158q-30 -10 -158 -10q61 -76 61 -188q0 -138 -102 -234t-283 -96q-23 0 -71 6q-109 -50 -109 -102q0 -26 41.5 -43t102.5 -19zM496 424q79 0 122.5 60.5t43.5 144.5q0 95 -51.5 168t-143.5 73q-82 0 -126 -58.5t-44 -141.5
q0 -99 54.5 -172.5t144.5 -73.5zM354 -20q-116 -61 -116 -134q0 -52 61 -82t178 -30q138 0 222.5 36.5t84.5 102.5q0 49 -46 72t-146 26q-228 9 -238 9zM371 1264q0 48 31.5 80t86.5 32q54 0 86.5 -32.5t32.5 -79.5q0 -49 -32.5 -82t-86.5 -33t-86 33t-32 82z" />
    <glyph glyph-name="Gcommaaccent" unicode="&#x122;" horiz-adv-x="1419" 
d="M997 164v266q0 44 -9.5 78t-21.5 52.5t-29.5 31.5t-27 17t-20.5 7h430q-12 -2 -25 -9.5t-32 -25.5t-31 -56t-12 -91v-379q-199 -88 -451 -88q-132 0 -244.5 37.5t-192.5 102t-136.5 151.5t-83.5 186.5t-27 206.5q0 116 29 224.5t89.5 203t146 165t206.5 111t264 40.5
q130 0 230.5 -25.5t160.5 -58.5v-305q-20 41 -51.5 78t-81 74t-124.5 59t-165 22q-210 0 -336 -154t-126 -395q0 -247 136.5 -404t356.5 -157q75 0 178 35zM737 -244v8q-20 -4 -28 -4q-36 0 -57 23.5t-21 56.5q0 35 24 62.5t66 27.5q46 0 77 -36t31 -95q0 -71 -54.5 -128.5
t-137.5 -67.5q42 19 71 63.5t29 89.5z" />
    <glyph glyph-name="gcommaaccent" unicode="&#x123;" horiz-adv-x="1017" 
d="M485 1249v-8q20 4 29 4q36 0 57 -23.5t21 -56.5q0 -35 -24 -62.5t-66 -27.5q-46 0 -77.5 36.5t-31.5 94.5q0 71 55 129t138 68q-42 -19 -71.5 -64t-29.5 -90zM449 143l235 -6q145 -4 214 -64t69 -145q0 -61 -33 -117.5t-97 -104t-172 -76.5t-245 -29q-163 0 -266 50
t-103 136q0 67 57 128.5t128 90.5q-59 15 -93 48.5t-34 80.5q0 51 53.5 109t124.5 94q-90 37 -143.5 116t-53.5 177q0 71 26.5 136t75.5 115.5t127 80.5t173 30q70 0 157 -24q90 -23 156 -23q98 0 162 41v-158q-30 -10 -158 -10q61 -76 61 -188q0 -138 -102 -234t-283 -96
q-23 0 -71 6q-109 -50 -109 -102q0 -26 41.5 -43t102.5 -19zM496 424q79 0 122.5 60.5t43.5 144.5q0 95 -51.5 168t-143.5 73q-82 0 -126 -58.5t-44 -141.5q0 -99 54.5 -172.5t144.5 -73.5zM354 -20q-116 -61 -116 -134q0 -52 61 -82t178 -30q138 0 222.5 36.5t84.5 102.5
q0 49 -46 72t-146 26q-228 9 -238 9z" />
    <glyph glyph-name="Hcircumflex" unicode="&#x124;" horiz-adv-x="1468" 
d="M180 209v946q0 179 -100 209h424q-8 -2 -17 -6t-24 -18.5t-26.5 -35t-20 -60t-8.5 -89.5v-389h653v389q0 61 -11.5 105t-29.5 64.5t-32 29t-27 10.5h423q-8 -2 -17 -6t-24 -18.5t-26.5 -35t-20 -60t-8.5 -89.5v-946q0 -61 10.5 -105t27.5 -64.5t30 -29t26 -10.5h-419
q13 2 26 10t31 28t29.5 64.5t11.5 106.5v412h-653v-412q0 -61 10.5 -105t27.5 -64.5t30 -29t26 -10.5h-418q12 2 25 10t31 28t29 64.5t11 106.5zM739 1778l301 -346q-52 27 -153 67.5t-148 63.5q-45 -22 -143.5 -63t-149.5 -68q50 64 148 176t145 170z" />
    <glyph glyph-name="hcircumflex" unicode="&#x125;" horiz-adv-x="1085" 
d="M152 199v882q0 65 -8.5 108.5t-26 65t-37 29.5t-47.5 8h-21l342 140v-594q44 52 129 103.5t179 51.5q131 0 204.5 -83t73.5 -242v-471q0 -57 10 -98t26 -60.5t28 -28t24 -10.5h-366q7 2 14 6t18.5 17t19.5 32.5t14.5 55.5t6.5 82v421q0 114 -38.5 168t-118.5 54
q-89 0 -156.5 -69t-67.5 -169v-405q0 -56 9.5 -96.5t24.5 -59.5t27 -27t23 -10h-379q12 2 24.5 10t30 27t28 61t10.5 101zM559 1778l301 -346q-52 27 -153 67.5t-148 63.5q-45 -22 -143.5 -63t-149.5 -68q50 64 148 176t145 170z" />
    <glyph glyph-name="Hbar" unicode="&#x126;" horiz-adv-x="1507" 
d="M178 274v879q0 47 -9.5 85t-21.5 59.5t-28.5 37.5t-24.5 21t-16 8h432q-8 -2 -17.5 -6.5t-24.5 -20t-27 -39t-20.5 -66.5t-8.5 -99h684q-9 208 -95 231h424q-8 -4 -15 -8.5t-23.5 -24.5t-27.5 -47t-20.5 -78.5t-9.5 -115.5v-881q0 -47 8.5 -85.5t20.5 -60t26.5 -36.5
t24 -20t16.5 -7h-430q7 2 15.5 7.5t25 24.5t29 46t22 78.5t9.5 115.5v349h-684v-349q0 -63 9.5 -114t21.5 -78.5t27.5 -46.5t24.5 -25t15 -8h-430q7 2 15.5 7.5t24 24.5t27.5 46.5t21.5 79t9.5 116.5zM412 766h684v221h-684v-221z" />
    <glyph glyph-name="hbar" unicode="&#x127;" horiz-adv-x="1085" 
d="M152 199v903h-117v104h102q-13 49 -39 67.5t-65 18.5h-21l342 140v-226h330v-104h-330v-264q44 52 129 103.5t179 51.5q131 0 204.5 -83t73.5 -242v-471q0 -57 10 -98t26 -60.5t28 -28t24 -10.5h-366q7 2 14 6t18.5 17t19.5 32.5t14.5 55.5t6.5 82v421q0 114 -38.5 168
t-118.5 54q-89 0 -156.5 -69t-67.5 -169v-405q0 -56 9.5 -96.5t24.5 -59.5t27 -27t23 -10h-379q12 2 24.5 10t30 27t28 61t10.5 101z" />
    <glyph glyph-name="Itilde" unicode="&#x128;" horiz-adv-x="614" 
d="M184 197v964q0 173 -100 203h422q-11 -2 -23.5 -10.5t-30.5 -28.5t-30 -63t-12 -101v-964q0 -58 11 -99.5t29 -60.5t30.5 -27t23.5 -10h-418q12 2 24.5 9.5t31.5 26t30.5 60.5t11.5 101zM43 1444q-35 41 -35 98q0 68 45.5 121t122.5 53q43 0 102 -28t112.5 -56t84.5 -28
q49 0 73.5 40t26.5 101q33 -36 33 -94q0 -69 -47 -126t-121 -57q-35 0 -78 18.5t-76 40t-72 40t-67 18.5q-46 0 -73.5 -39t-30.5 -102z" />
    <glyph glyph-name="itilde" unicode="&#x129;" horiz-adv-x="497" 
d="M145 199v491q0 71 -15.5 111.5t-37.5 52.5t-55 12h-25l342 133v-800q0 -57 10.5 -99t27 -61.5t29.5 -28t25 -10.5h-395q12 2 25 10t30 27t28 61t11 101zM-16 1096q-33 38 -33 86q0 73 44.5 129.5t121.5 56.5q34 0 79 -17.5t80.5 -39t75 -39t64.5 -17.5q49 0 73.5 40.5
t26.5 101.5q31 -36 31 -82q0 -75 -47.5 -135t-124.5 -60q-33 0 -74.5 18.5t-74.5 40t-71.5 40t-66.5 18.5q-46 0 -73.5 -39t-30.5 -102z" />
    <glyph glyph-name="Imacron" unicode="&#x12a;" horiz-adv-x="593" 
d="M184 197v964q0 173 -100 203h422q-11 -2 -23.5 -10.5t-30.5 -28.5t-30 -63t-12 -101v-964q0 -58 11 -99.5t29 -60.5t30.5 -27t23.5 -10h-418q12 2 24.5 9.5t31.5 26t30.5 60.5t11.5 101zM-31 1544v107h652v-107h-652z" />
    <glyph glyph-name="imacron" unicode="&#x12b;" horiz-adv-x="497" 
d="M145 199v491q0 71 -15.5 111.5t-37.5 52.5t-55 12h-25l342 133v-800q0 -57 10.5 -99t27 -61.5t29.5 -28t25 -10.5h-395q12 2 25 10t30 27t28 61t11 101zM-86 1190v104h649v-104h-649z" />
    <glyph glyph-name="Ibreve" unicode="&#x12c;" horiz-adv-x="593" 
d="M184 197v964q0 173 -100 203h422q-11 -2 -23.5 -10.5t-30.5 -28.5t-30 -63t-12 -101v-964q0 -58 11 -99.5t29 -60.5t30.5 -27t23.5 -10h-418q12 2 24.5 9.5t31.5 26t30.5 60.5t11.5 101zM66 1769q32 -72 96.5 -110.5t138.5 -38.5q73 0 136.5 38t99.5 111
q0 -142 -70.5 -221.5t-165.5 -79.5q-96 0 -165.5 80t-69.5 221z" />
    <glyph glyph-name="ibreve" unicode="&#x12d;" horiz-adv-x="497" 
d="M145 199v491q0 71 -15.5 111.5t-37.5 52.5t-55 12h-25l342 133v-800q0 -57 10.5 -99t27 -61.5t29.5 -28t25 -10.5h-395q12 2 25 10t30 27t28 61t11 101zM14 1417q32 -72 96 -110.5t138 -38.5q75 0 138 38t97 111q0 -142 -70 -221.5t-165 -79.5t-164.5 80t-69.5 221z" />
    <glyph glyph-name="Iogonek" unicode="&#x12e;" horiz-adv-x="614" 
d="M268 0h-172q12 2 25.5 10t31 27.5t29 61.5t11.5 100v960q0 170 -101 205h426q-12 -3 -25 -12t-30 -29.5t-28 -63t-11 -100.5v-960q0 -57 10.5 -98.5t26.5 -61t29.5 -28.5t25.5 -11q-117 -4 -176 -51.5t-59 -106.5q0 -50 30 -78t84 -28q65 0 127 41q-24 -68 -82 -108
t-121 -40q-75 0 -126.5 46t-51.5 120q0 60 35 114t92 91z" />
    <glyph glyph-name="iogonek" unicode="&#x12f;" horiz-adv-x="497" 
d="M203 0h-148q11 1 24 9.5t29 28.5t26.5 62t10.5 99v491q0 71 -15.5 111.5t-37.5 52.5t-55 12h-25l342 133v-800q0 -50 8.5 -88t20 -58t26.5 -32.5t24.5 -16t17.5 -4.5q-66 -3 -114.5 -18.5t-74 -39.5t-37.5 -49t-12 -53q0 -46 31 -75t84 -29q59 0 127 39
q-24 -67 -82.5 -107.5t-120.5 -40.5q-75 0 -126.5 46t-51.5 120q0 61 35.5 115.5t93.5 91.5zM100 1264q0 54 36.5 90.5t96.5 36.5t96 -36.5t36 -90.5q0 -55 -36 -92t-96 -37t-96.5 37t-36.5 92z" />
    <glyph glyph-name="Idotaccent" unicode="&#x130;" horiz-adv-x="614" 
d="M184 197v964q0 173 -100 203h422q-11 -2 -23.5 -10.5t-30.5 -28.5t-30 -63t-12 -101v-964q0 -58 11 -99.5t29 -60.5t30.5 -27t23.5 -10h-418q12 2 24.5 9.5t31.5 26t30.5 60.5t11.5 101zM170 1593q0 57 37.5 94t99.5 37t98.5 -37t36.5 -94t-37 -95t-98 -38
q-62 0 -99.5 38t-37.5 95z" />
    <glyph glyph-name="dotlessi" unicode="&#x131;" horiz-adv-x="497" 
d="M145 199v491q0 71 -15.5 111.5t-37.5 52.5t-55 12h-25l342 133v-800q0 -57 10.5 -99t27 -61.5t29.5 -28t25 -10.5h-395q12 2 25 10t30 27t28 61t11 101z" />
    <glyph glyph-name="IJ" unicode="&#x132;" horiz-adv-x="1222" 
d="M184 197v964q0 173 -100 203h422q-11 -2 -23.5 -10.5t-30.5 -28.5t-30 -63t-12 -101v-964q0 -58 11 -99.5t29 -60.5t30.5 -27t23.5 -10h-418q12 2 24.5 9.5t31.5 26t30.5 60.5t11.5 101zM815 311v850q0 59 -12 101.5t-31 62.5t-33.5 28.5t-27.5 10.5h426q-8 -2 -17 -6
t-24.5 -18t-27 -34.5t-20 -59t-8.5 -87.5v-870q0 -221 -78 -325.5t-233 -104.5q-126 0 -211 88q37 -13 76 -13q221 0 221 377z" />
    <glyph glyph-name="ij" unicode="&#x133;" horiz-adv-x="1005" 
d="M145 197v497q0 100 -28 136t-78 36h-25l334 135v-804q0 -58 10.5 -99.5t27.5 -60.5t29 -27t23 -10h-385q12 2 24.5 9.5t29.5 26.5t27.5 60.5t10.5 100.5zM94 1264q0 57 37.5 94t99.5 37t99 -37t37 -94t-37.5 -95.5t-98.5 -38.5q-62 0 -99.5 38.5t-37.5 95.5zM602 1264
q0 57 36.5 94t98.5 37t99.5 -37t37.5 -94t-37.5 -95.5t-99.5 -38.5q-61 0 -98 38.5t-37 95.5zM662 -31v736q0 93 -28 127t-77 34h-27l336 135v-1030q0 -358 -276 -358q-65 0 -117 26t-84 58q40 -12 68 -12q68 0 110.5 22.5t68.5 86.5t26 175z" />
    <glyph glyph-name="Jcircumflex" unicode="&#x134;" horiz-adv-x="628" 
d="M221 311v850q0 59 -12 101.5t-31 62.5t-33.5 28.5t-27.5 10.5h426q-8 -2 -17 -6t-24.5 -18t-27 -34.5t-20 -59t-8.5 -87.5v-870q0 -221 -78 -325.5t-233 -104.5q-126 0 -211 88q37 -13 76 -13q221 0 221 377zM332 1778l301 -346q-52 27 -153 67.5t-148 63.5
q-45 -22 -143.5 -63t-149.5 -68q50 64 148 176t145 170z" />
    <glyph glyph-name="jcircumflex" unicode="&#x135;" horiz-adv-x="491" 
d="M147 -31v736q0 93 -27.5 127t-76.5 34h-27l336 135v-1030q0 -358 -276 -358q-65 0 -117 26t-84 58q40 -12 68 -12q51 0 86 12.5t63 43.5t41.5 87.5t13.5 140.5zM254 1231l-279 -148q47 58 139.5 175t139.5 176l274 -351z" />
    <glyph glyph-name="Kcommaaccent" unicode="&#x136;" horiz-adv-x="1363" 
d="M180 207v948q0 179 -100 209h422q-8 -2 -17 -6t-23.5 -18.5t-25.5 -35t-19.5 -60t-8.5 -89.5v-418l380 412q103 111 103 168q0 12 -4 21t-13.5 14.5t-13 7t-12.5 4.5h446q-14 -2 -35.5 -11t-60 -31t-94 -68.5t-115.5 -110.5l-366 -389l432 -529q57 -69 104.5 -116
t80.5 -68t50.5 -28.5t35.5 -11.5q4 -1 5 -1h-387l-536 668v-461q0 -60 10.5 -103.5t27 -64t29.5 -29t25 -10.5h-418q9 2 18 5.5t24.5 17.5t27 34.5t20 59.5t8.5 90zM692 -244v8q-20 -4 -28 -4q-36 0 -57 23.5t-21 56.5q0 35 24 62.5t66 27.5q46 0 77 -36t31 -95
q0 -71 -54.5 -128.5t-137.5 -67.5q42 19 71 63.5t29 89.5z" />
    <glyph glyph-name="kcommaaccent" unicode="&#x137;" horiz-adv-x="1138" 
d="M145 197v895q0 64 -8.5 106t-25.5 62.5t-35.5 28t-44.5 7.5h-19l338 127v-886l252 254q68 68 68 112q0 38 -58 55h439q-115 -37 -260 -178l-238 -231l287 -352q138 -168 229 -168q17 0 27 2q-70 -54 -215 -54q-80 0 -143.5 40.5t-133.5 132.5q-229 306 -254 331v-284
q0 -47 7.5 -83.5t17.5 -56.5t23.5 -33.5t21.5 -17.5t16 -6h-379q11 2 22.5 9.5t28 26.5t27 60.5t10.5 100.5zM575 -244v8q-20 -4 -28 -4q-36 0 -57 23.5t-21 56.5q0 35 24 62.5t66 27.5q46 0 77.5 -36.5t31.5 -94.5q0 -71 -55 -128.5t-138 -67.5q42 19 71 63.5t29 89.5z" />
    <glyph glyph-name="kgreenlandic" unicode="&#x138;" horiz-adv-x="1116" 
d="M145 240v450q0 104 -26.5 140t-77.5 36h-25l332 135v-473l258 260q70 70 70 115q0 18 -14 31.5t-24.5 17.5t-19.5 6h437q-112 -34 -262 -182l-234 -227l297 -350q144 -170 231 -170q19 0 29 4q-31 -25 -85 -40.5t-113 -15.5q-96 0 -159 38.5t-145 136.5q-11 13 -115 144
t-151 183v-237q0 -57 8 -101.5t18.5 -69.5t24.5 -41.5t23.5 -22t17.5 -7.5h-387q9 2 18.5 7.5t23.5 22t24.5 41t18 69t7.5 100.5z" />
    <glyph glyph-name="Lacute" unicode="&#x139;" horiz-adv-x="1064" 
d="M180 229v924q0 182 -96 211h414q-12 -2 -25.5 -10.5t-31 -29.5t-29 -65.5t-11.5 -105.5v-1008h287q104 0 159 13.5t91 47t76 107.5l-47 -313h-873q7 1 16 5.5t22 19.5t23 38.5t17.5 66.5t7.5 99zM389 1434l117 313h278z" />
    <glyph glyph-name="lacute" unicode="&#x13a;" horiz-adv-x="491" 
d="M145 197v895q0 64 -8.5 106t-25.5 62.5t-35.5 28t-44.5 7.5h-19l336 127v-1226q0 -57 9.5 -98t25 -60.5t28 -28t23.5 -10.5h-381q8 2 16.5 5.5t23.5 17t25.5 33t18.5 56.5t8 85zM123 1434l117 313h278z" />
    <glyph glyph-name="Lcommaaccent" unicode="&#x13b;" horiz-adv-x="1064" 
d="M180 229v924q0 182 -96 211h414q-12 -2 -25.5 -10.5t-31 -29.5t-29 -65.5t-11.5 -105.5v-1008h287q104 0 159 13.5t91 47t76 107.5l-47 -313h-873q7 1 16 5.5t22 19.5t23 38.5t17.5 66.5t7.5 99zM567 -244v8q-20 -4 -28 -4q-36 0 -57 23.5t-21 56.5q0 35 24 62.5t66 27.5
q46 0 77 -36t31 -95q0 -71 -54.5 -128.5t-137.5 -67.5q42 19 71 63.5t29 89.5z" />
    <glyph glyph-name="lcommaaccent" unicode="&#x13c;" horiz-adv-x="491" 
d="M145 197v895q0 64 -8.5 106t-25.5 62.5t-35.5 28t-44.5 7.5h-19l336 127v-1226q0 -57 9.5 -98t25 -60.5t28 -28t23.5 -10.5h-381q8 2 16.5 5.5t23.5 17t25.5 33t18.5 56.5t8 85zM266 -244v8q-20 -4 -28 -4q-36 0 -57 23.5t-21 56.5q0 35 24 62.5t66 27.5q46 0 77 -36
t31 -95q0 -71 -54.5 -128.5t-137.5 -67.5q42 19 71 63.5t29 89.5z" />
    <glyph glyph-name="Lcaron" unicode="&#x13d;" horiz-adv-x="1064" 
d="M180 229v924q0 182 -96 211h414q-12 -2 -25.5 -10.5t-31 -29.5t-29 -65.5t-11.5 -105.5v-1008h287q104 0 159 13.5t91 47t76 107.5l-47 -313h-873q7 1 16 5.5t22 19.5t23 38.5t17.5 66.5t7.5 99zM610 1026l52 371h231z" />
    <glyph glyph-name="lcaron" unicode="&#x13e;" horiz-adv-x="491" 
d="M145 197v895q0 64 -8.5 106t-25.5 62.5t-35.5 28t-44.5 7.5h-19l336 127v-1226q0 -57 9.5 -98t25 -60.5t28 -28t23.5 -10.5h-381q8 2 16.5 5.5t23.5 17t25.5 33t18.5 56.5t8 85zM446 1026l52 371h231z" />
    <glyph glyph-name="Ldot" unicode="&#x13f;" horiz-adv-x="1179" 
d="M180 229v924q0 182 -96 211h414q-12 -2 -25.5 -10.5t-31 -29.5t-29 -65.5t-11.5 -105.5v-1008h287q104 0 159 13.5t91 47t76 107.5l-47 -313h-873q7 1 16 5.5t22 19.5t23 38.5t17.5 66.5t7.5 99zM717 688q0 62 40 102.5t107 40.5q68 0 109 -41t41 -102t-42 -103t-108 -42
q-67 0 -107 41.5t-40 103.5z" />
    <glyph glyph-name="ldot" unicode="&#x140;" horiz-adv-x="876" 
d="M145 197v895q0 64 -8.5 106t-25.5 62.5t-35.5 28t-44.5 7.5h-19l336 127v-1226q0 -57 9.5 -98t25 -60.5t28 -28t23.5 -10.5h-381q8 2 16.5 5.5t23.5 17t25.5 33t18.5 56.5t8 85zM524 690q0 62 40.5 103t107.5 41t108 -41t41 -103q0 -61 -41.5 -103t-107.5 -42
q-67 0 -107.5 41.5t-40.5 103.5z" />
    <glyph glyph-name="Lslash" unicode="&#x141;" horiz-adv-x="1064" 
d="M180 229v271l-141 -109v146l141 110v506q0 178 -94 211h410q-13 -3 -26 -12t-30.5 -30t-28 -65t-10.5 -104v-338l220 166v-147l-220 -166v-523h287q104 0 159 13.5t91 47t76 107.5l-47 -313h-873q8 1 17 6t22 20.5t23 39t17 66t7 97.5z" />
    <glyph glyph-name="lslash" unicode="&#x142;" horiz-adv-x="491" 
d="M145 197v333l-129 -98v148l129 98v414q0 64 -8.5 106t-25.5 62.5t-35.5 28t-44.5 7.5h-19l336 127v-592l129 99v-148l-129 -98v-487q0 -72 17 -119t33.5 -61t33.5 -17h-379q11 2 23.5 10t29.5 27t28 60.5t11 99.5z" />
    <glyph glyph-name="Nacute" unicode="&#x143;" horiz-adv-x="1429" 
d="M195 205v936q0 42 -15.5 79.5t-35 60.5t-46.5 42.5t-41.5 27t-29.5 13.5h344l714 -918v713q0 177 -106 205h375q-9 -2 -18.5 -6t-25 -18t-27 -34.5t-20 -59t-8.5 -87.5v-1159h-147q-5 15 -16.5 41.5t-59.5 107.5t-112 160l-553 688v-792q0 -49 9.5 -87t22 -58.5
t29.5 -34.5t28 -18.5t21 -6.5h-383q13 3 25.5 10t32 26.5t31.5 63t12 105.5zM643 1434l117 313h278z" />
    <glyph glyph-name="nacute" unicode="&#x144;" horiz-adv-x="1085" 
d="M145 193v489q0 58 -7.5 96t-23 56.5t-32 25t-41.5 6.5h-25l326 135l2 -170q49 69 140 115.5t175 46.5q124 0 200.5 -79.5t76.5 -243.5v-473q0 -57 9.5 -98t25 -60.5t28 -28t23.5 -10.5h-371q8 2 15.5 5.5t20 16.5t21.5 32t16 54.5t7 81.5v426q0 110 -42 165t-114 55
q-87 0 -157 -69.5t-70 -166.5v-410q0 -55 9.5 -95t24.5 -58.5t26.5 -26.5t23.5 -10h-379q12 2 24.5 9.5t29.5 26t27.5 59.5t10.5 98zM487 1047l117 317h279z" />
    <glyph glyph-name="Ncommaaccent" unicode="&#x145;" horiz-adv-x="1429" 
d="M195 205v936q0 42 -15.5 79.5t-35 60.5t-46.5 42.5t-41.5 27t-29.5 13.5h344l714 -918v713q0 177 -106 205h375q-9 -2 -18.5 -6t-25 -18t-27 -34.5t-20 -59t-8.5 -87.5v-1159h-147q-5 15 -16.5 41.5t-59.5 107.5t-112 160l-553 688v-792q0 -49 9.5 -87t22 -58.5
t29.5 -34.5t28 -18.5t21 -6.5h-383q13 3 25.5 10t32 26.5t31.5 63t12 105.5zM752 -244v8q-20 -4 -29 -4q-36 0 -57 23.5t-21 56.5q0 35 24 62.5t66 27.5q46 0 77.5 -36.5t31.5 -94.5q0 -71 -55 -128.5t-138 -67.5q42 19 71.5 63.5t29.5 89.5z" />
    <glyph glyph-name="ncommaaccent" unicode="&#x146;" horiz-adv-x="1085" 
d="M145 193v489q0 58 -7.5 96t-23 56.5t-32 25t-41.5 6.5h-25l326 135l2 -170q49 69 140 115.5t175 46.5q124 0 200.5 -79.5t76.5 -243.5v-473q0 -57 9.5 -98t25 -60.5t28 -28t23.5 -10.5h-371q8 2 15.5 5.5t20 16.5t21.5 32t16 54.5t7 81.5v426q0 110 -42 165t-114 55
q-87 0 -157 -69.5t-70 -166.5v-410q0 -55 9.5 -95t24.5 -58.5t26.5 -26.5t23.5 -10h-379q12 2 24.5 9.5t29.5 26t27.5 59.5t10.5 98zM567 -244v8q-20 -4 -28 -4q-36 0 -57 23.5t-21 56.5q0 35 24 62.5t66 27.5q46 0 77 -36t31 -95q0 -71 -54.5 -128.5t-137.5 -67.5
q42 19 71 63.5t29 89.5z" />
    <glyph glyph-name="Ncaron" unicode="&#x147;" horiz-adv-x="1429" 
d="M195 205v936q0 42 -15.5 79.5t-35 60.5t-46.5 42.5t-41.5 27t-29.5 13.5h344l714 -918v713q0 177 -106 205h375q-9 -2 -18.5 -6t-25 -18t-27 -34.5t-20 -59t-8.5 -87.5v-1159h-147q-5 15 -16.5 41.5t-59.5 107.5t-112 160l-553 688v-792q0 -49 9.5 -87t22 -58.5
t29.5 -34.5t28 -18.5t21 -6.5h-383q13 3 25.5 10t32 26.5t31.5 63t12 105.5zM733 1432l-301 346q52 -27 153 -67.5t148 -63.5q45 22 143.5 63t149.5 68q-50 -64 -148 -176t-145 -170z" />
    <glyph glyph-name="ncaron" unicode="&#x148;" horiz-adv-x="1085" 
d="M145 193v489q0 58 -7.5 96t-23 56.5t-32 25t-41.5 6.5h-25l326 135l2 -170q49 69 140 115.5t175 46.5q124 0 200.5 -79.5t76.5 -243.5v-473q0 -57 9.5 -98t25 -60.5t28 -28t23.5 -10.5h-371q8 2 15.5 5.5t20 16.5t21.5 32t16 54.5t7 81.5v426q0 110 -42 165t-114 55
q-87 0 -157 -69.5t-70 -166.5v-410q0 -55 9.5 -95t24.5 -58.5t26.5 -26.5t23.5 -10h-379q12 2 24.5 9.5t29.5 26t27.5 59.5t10.5 98zM563 1061l-280 360l280 -151l273 151z" />
    <glyph glyph-name="napostrophe" unicode="&#x149;" horiz-adv-x="1085" 
d="M145 193v489q0 58 -7.5 96t-23 56.5t-32 25t-41.5 6.5h-25l326 135l2 -170q49 69 140 115.5t175 46.5q124 0 200.5 -79.5t76.5 -243.5v-473q0 -57 9.5 -98t25 -60.5t28 -28t23.5 -10.5h-371q8 2 15.5 5.5t20 16.5t21.5 32t16 54.5t7 81.5v426q0 110 -42 165t-114 55
q-87 0 -157 -69.5t-70 -166.5v-410q0 -55 9.5 -95t24.5 -58.5t26.5 -26.5t23.5 -10h-379q12 2 24.5 9.5t29.5 26t27.5 59.5t10.5 98zM129 1233v8q-20 -4 -29 -4q-36 0 -56.5 23.5t-20.5 56.5q0 35 24 62.5t66 27.5q46 0 77 -36t31 -95q0 -71 -54.5 -129t-137.5 -68
q41 19 70.5 63.5t29.5 90.5z" />
    <glyph glyph-name="Eng" unicode="&#x14a;" horiz-adv-x="1429" 
d="M203 207v928q0 51 -21 94.5t-53 71t-55 41.5t-43 22h352l752 -922v713q0 174 -109 209h381q-10 -3 -19.5 -7.5t-25 -19.5t-27 -36t-20 -59t-8.5 -87v-1030q0 -200 -115.5 -319t-302.5 -119q91 46 141.5 119.5t50.5 158.5q0 82 -59 198t-148 226l-497 610v-792
q0 -59 12.5 -102t32 -64t35.5 -30t30 -11h-383q13 2 26.5 10.5t31.5 29t29.5 64t11.5 103.5z" />
    <glyph glyph-name="eng" unicode="&#x14b;" horiz-adv-x="1085" 
d="M154 195v481q0 59 -8 98.5t-24 58.5t-34 26t-43 7h-25l336 133v-170q49 62 142.5 113t189.5 51q128 0 206.5 -79.5t78.5 -247.5v-695q0 -358 -287 -358q-119 0 -207 82q38 -10 72 -10q108 0 160.5 61.5t52.5 222.5v645q0 222 -164 222q-91 0 -165.5 -70.5t-74.5 -167.5
v-405q0 -56 9.5 -96.5t25 -59.5t27.5 -27t24 -10h-385q12 2 24.5 9.5t30 26.5t28 60t10.5 99z" />
    <glyph glyph-name="Omacron" unicode="&#x14c;" horiz-adv-x="1507" 
d="M735 -31q-191 0 -340 91.5t-230 250t-81 355.5q0 205 88.5 372t247.5 263t356 96q191 0 339 -91.5t228 -249.5t80 -356q0 -150 -50 -284t-139 -233t-218.5 -156.5t-280.5 -57.5zM778 131q181 0 299.5 142.5t118.5 375.5q0 257 -128 422.5t-337 165.5q-180 0 -299 -139
t-119 -371q0 -266 129.5 -431t335.5 -165zM440 1544v107h652v-107h-652z" />
    <glyph glyph-name="omacron" unicode="&#x14d;" horiz-adv-x="1114" 
d="M545 -31q-114 0 -205 41.5t-147 112t-85.5 157.5t-29.5 183q0 79 19.5 155.5t60.5 144.5t97.5 119t136.5 81t173 30q92 0 170 -27.5t133 -74t93.5 -110t56.5 -134.5t18 -147q0 -100 -32 -193.5t-91.5 -169.5t-155 -122t-212.5 -46zM575 111q116 0 181 102t65 244
q0 101 -31 189t-97.5 147t-157.5 59q-80 0 -137 -49.5t-83 -125.5t-26 -167q0 -101 31 -190t97.5 -149t157.5 -60zM246 1190v104h649v-104h-649z" />
    <glyph glyph-name="Obreve" unicode="&#x14e;" horiz-adv-x="1507" 
d="M735 -31q-191 0 -340 91.5t-230 250t-81 355.5q0 205 88.5 372t247.5 263t356 96q191 0 339 -91.5t228 -249.5t80 -356q0 -150 -50 -284t-139 -233t-218.5 -156.5t-280.5 -57.5zM778 131q181 0 299.5 142.5t118.5 375.5q0 257 -128 422.5t-337 165.5q-180 0 -299 -139
t-119 -371q0 -266 129.5 -431t335.5 -165zM526 1769q32 -72 97 -110.5t139 -38.5q73 0 136 38t99 111q0 -142 -70 -221.5t-165 -79.5q-96 0 -166 80t-70 221z" />
    <glyph glyph-name="obreve" unicode="&#x14f;" horiz-adv-x="1114" 
d="M545 -31q-114 0 -205 41.5t-147 112t-85.5 157.5t-29.5 183q0 79 19.5 155.5t60.5 144.5t97.5 119t136.5 81t173 30q92 0 170 -27.5t133 -74t93.5 -110t56.5 -134.5t18 -147q0 -100 -32 -193.5t-91.5 -169.5t-155 -122t-212.5 -46zM575 111q116 0 181 102t65 244
q0 101 -31 189t-97.5 147t-157.5 59q-80 0 -137 -49.5t-83 -125.5t-26 -167q0 -101 31 -190t97.5 -149t157.5 -60zM334 1417q33 -72 96 -110.5t137 -38.5q75 0 138.5 38t97.5 111q0 -142 -70.5 -221.5t-165.5 -79.5t-164 80t-69 221z" />
    <glyph glyph-name="Ohungarumlaut" unicode="&#x150;" horiz-adv-x="1507" 
d="M735 -31q-191 0 -340 91.5t-230 250t-81 355.5q0 205 88.5 372t247.5 263t356 96q191 0 339 -91.5t228 -249.5t80 -356q0 -150 -50 -284t-139 -233t-218.5 -156.5t-280.5 -57.5zM778 131q181 0 299.5 142.5t118.5 375.5q0 257 -128 422.5t-337 165.5q-180 0 -299 -139
t-119 -371q0 -266 129.5 -431t335.5 -165zM897 1452l117 317h264zM532 1452l117 317h264z" />
    <glyph glyph-name="ohungarumlaut" unicode="&#x151;" horiz-adv-x="1114" 
d="M545 -31q-114 0 -205 41.5t-147 112t-85.5 157.5t-29.5 183q0 79 19.5 155.5t60.5 144.5t97.5 119t136.5 81t173 30q92 0 170 -27.5t133 -74t93.5 -110t56.5 -134.5t18 -147q0 -100 -32 -193.5t-91.5 -169.5t-155 -122t-212.5 -46zM575 111q116 0 181 102t65 244
q0 101 -31 189t-97.5 147t-157.5 59q-80 0 -137 -49.5t-83 -125.5t-26 -167q0 -101 31 -190t97.5 -149t157.5 -60zM649 1047l117 317h264zM285 1047l116 317h265z" />
    <glyph glyph-name="OE" unicode="&#x152;" horiz-adv-x="1894" 
d="M1239 145h305q119 0 187 50.5t114 169.5l-57 -365h-844q-102 -31 -209 -31q-191 0 -340 91.5t-230 250t-81 355.5q0 205 88.5 372t247.5 263t356 96q105 0 209 -33h770v-336q-4 19 -9 37t-21.5 48.5t-39 52.5t-63.5 38.5t-92 16.5h-291v-455h248q44 0 75.5 11t47.5 31
t20.5 28.5t9.5 23.5v-336q-1 10 -6.5 22t-19.5 31t-46.5 31.5t-78.5 12.5h-250v-476zM1012 209v924q-113 104 -281 104q-179 0 -297.5 -139t-118.5 -371q0 -266 128.5 -431t334.5 -165q133 0 234 78z" />
    <glyph glyph-name="oe" unicode="&#x153;" horiz-adv-x="1701" 
d="M1630 473h-606q0 -14 4 -22q19 -145 101.5 -233.5t205.5 -88.5q84 0 167.5 43t142.5 119q-36 -158 -136.5 -240t-251.5 -82q-215 0 -339 174q-137 -174 -373 -174q-114 0 -205 41.5t-147 112t-85.5 157.5t-29.5 183q0 79 19.5 155.5t60.5 144.5t97.5 119t136.5 81t173 30
q236 0 367 -168q123 168 323 168q120 0 205.5 -69.5t126.5 -184.5t43 -266zM1024 588h401q0 72 -17.5 132.5t-60 103t-102.5 42.5q-93 0 -154 -84t-67 -194zM575 111q116 0 181 102t65 244q0 101 -31 189t-97.5 147t-157.5 59q-80 0 -137 -49.5t-83 -125.5t-26 -167
q0 -101 31 -190t97.5 -149t157.5 -60z" />
    <glyph glyph-name="Racute" unicode="&#x154;" horiz-adv-x="1220" 
d="M195 207v942q0 51 -9.5 91t-22.5 61t-30.5 36t-27.5 19.5t-21 7.5h524q211 0 335 -113t124 -274q0 -138 -90.5 -245.5t-259.5 -125.5q49 -20 104 -114l207 -357q19 -33 43 -58t41 -37.5t41.5 -22.5t31 -11.5t23.5 -5.5h-356l-252 451q-39 68 -72.5 96t-78.5 28h-35v-368
q0 -60 10.5 -103.5t27.5 -64t30 -29t26 -10.5h-410q12 2 25.5 10t31 28t29 64t11.5 105zM412 709h153q138 0 205.5 74t67.5 186q0 104 -72.5 178t-200.5 74h-153v-512zM526 1434l117 313h279z" />
    <glyph glyph-name="racute" unicode="&#x155;" horiz-adv-x="753" 
d="M141 197v508q0 98 -25.5 132.5t-72.5 34.5h-23l314 129l2 -235q33 91 109.5 159t166.5 68q55 0 99 -24v-273q-24 44 -67 72.5t-91 28.5q-85 0 -148 -95t-63 -258v-247q0 -57 10 -98t26 -60.5t28 -28t24 -10.5h-377q11 2 22.5 9.5t28 26.5t27 60.5t10.5 100.5zM252 1047
l117 317h278z" />
    <glyph glyph-name="Rcommaaccent" unicode="&#x156;" horiz-adv-x="1220" 
d="M195 207v942q0 51 -9.5 91t-22.5 61t-30.5 36t-27.5 19.5t-21 7.5h524q211 0 335 -113t124 -274q0 -138 -90.5 -245.5t-259.5 -125.5q49 -20 104 -114l207 -357q19 -33 43 -58t41 -37.5t41.5 -22.5t31 -11.5t23.5 -5.5h-356l-252 451q-39 68 -72.5 96t-78.5 28h-35v-368
q0 -60 10.5 -103.5t27.5 -64t30 -29t26 -10.5h-410q12 2 25.5 10t31 28t29 64t11.5 105zM412 709h153q138 0 205.5 74t67.5 186q0 104 -72.5 178t-200.5 74h-153v-512zM655 -244v8q-20 -4 -28 -4q-36 0 -57 23.5t-21 56.5q0 35 24 62.5t66 27.5q46 0 77.5 -36.5t31.5 -94.5
q0 -71 -55 -128.5t-138 -67.5q42 19 71 63.5t29 89.5z" />
    <glyph glyph-name="rcommaaccent" unicode="&#x157;" horiz-adv-x="753" 
d="M141 197v508q0 98 -25.5 132.5t-72.5 34.5h-23l314 129l2 -235q33 91 109.5 159t166.5 68q55 0 99 -24v-273q-24 44 -67 72.5t-91 28.5q-85 0 -148 -95t-63 -258v-247q0 -57 10 -98t26 -60.5t28 -28t24 -10.5h-377q11 2 22.5 9.5t28 26.5t27 60.5t10.5 100.5zM373 -244v8
q-20 -4 -29 -4q-36 0 -57 23.5t-21 56.5q0 35 24 62.5t66 27.5q46 0 77.5 -36.5t31.5 -94.5q0 -71 -55 -128.5t-138 -67.5q42 19 71.5 63.5t29.5 89.5z" />
    <glyph glyph-name="Rcaron" unicode="&#x158;" horiz-adv-x="1220" 
d="M195 207v942q0 51 -9.5 91t-22.5 61t-30.5 36t-27.5 19.5t-21 7.5h524q211 0 335 -113t124 -274q0 -138 -90.5 -245.5t-259.5 -125.5q49 -20 104 -114l207 -357q19 -33 43 -58t41 -37.5t41.5 -22.5t31 -11.5t23.5 -5.5h-356l-252 451q-39 68 -72.5 96t-78.5 28h-35v-368
q0 -60 10.5 -103.5t27.5 -64t30 -29t26 -10.5h-410q12 2 25.5 10t31 28t29 64t11.5 105zM412 709h153q138 0 205.5 74t67.5 186q0 104 -72.5 178t-200.5 74h-153v-512zM602 1432l-301 346q52 -27 153 -67.5t148 -63.5q45 22 143.5 63t149.5 68q-50 -64 -148 -176t-145 -170z
" />
    <glyph glyph-name="rcaron" unicode="&#x159;" horiz-adv-x="753" 
d="M141 197v508q0 98 -25.5 132.5t-72.5 34.5h-23l314 129l2 -235q33 91 109.5 159t166.5 68q55 0 99 -24v-273q-24 44 -67 72.5t-91 28.5q-85 0 -148 -95t-63 -258v-247q0 -57 10 -98t26 -60.5t28 -28t24 -10.5h-377q11 2 22.5 9.5t28 26.5t27 60.5t10.5 100.5zM403 1061
l-280 360l280 -151l273 151z" />
    <glyph glyph-name="Sacute" unicode="&#x15a;" horiz-adv-x="1064" 
d="M100 74v342q64 -156 164.5 -223.5t233.5 -67.5q103 0 177.5 50.5t74.5 137.5q0 30 -9 58t-21 49.5t-36.5 44.5t-43 38t-55 36t-57.5 31.5t-64.5 32.5t-62.5 32q-66 34 -111 64t-91 74.5t-69.5 102t-23.5 128.5q0 183 129 286t328 103q90 0 178.5 -26.5t141.5 -66.5v-284
q-18 35 -46 70.5t-69.5 72t-101 59.5t-125.5 23q-106 0 -168 -52.5t-62 -131.5q0 -31 9 -58.5t31 -52t42 -42t58.5 -39.5t62.5 -34.5t72 -35.5t79 -38.5t75.5 -41.5t72.5 -49t60.5 -57t50.5 -69t30.5 -81t12.5 -97q0 -182 -132.5 -287.5t-353.5 -105.5q-106 0 -207.5 28.5
t-173.5 76.5zM410 1434l116 313h279z" />
    <glyph glyph-name="sacute" unicode="&#x15b;" horiz-adv-x="798" 
d="M80 49v270q39 -97 114.5 -156t190.5 -59q66 0 116 29t50 88q0 29 -10.5 51t-39.5 44t-58 38t-87 46q-31 15 -47 24q-115 58 -167 122t-52 154q0 133 92.5 213t255.5 80q150 0 244 -55v-250q-14 27 -33.5 52.5t-51 54t-76.5 46t-97 17.5q-69 0 -109.5 -32t-40.5 -83
q0 -59 45.5 -96t165.5 -92q136 -61 196 -128.5t60 -164.5q0 -134 -97 -213.5t-265 -79.5q-87 0 -171 22.5t-128 57.5zM266 1047l117 317h279z" />
    <glyph glyph-name="Scircumflex" unicode="&#x15c;" horiz-adv-x="1064" 
d="M100 74v342q64 -156 164.5 -223.5t233.5 -67.5q103 0 177.5 50.5t74.5 137.5q0 30 -9 58t-21 49.5t-36.5 44.5t-43 38t-55 36t-57.5 31.5t-64.5 32.5t-62.5 32q-66 34 -111 64t-91 74.5t-69.5 102t-23.5 128.5q0 183 129 286t328 103q90 0 178.5 -26.5t141.5 -66.5v-284
q-18 35 -46 70.5t-69.5 72t-101 59.5t-125.5 23q-106 0 -168 -52.5t-62 -131.5q0 -31 9 -58.5t31 -52t42 -42t58.5 -39.5t62.5 -34.5t72 -35.5t79 -38.5t75.5 -41.5t72.5 -49t60.5 -57t50.5 -69t30.5 -81t12.5 -97q0 -182 -132.5 -287.5t-353.5 -105.5q-106 0 -207.5 28.5
t-173.5 76.5zM543 1778l301 -346q-52 27 -153 67.5t-148 63.5q-45 -22 -143.5 -63t-149.5 -68q50 64 148 176t145 170z" />
    <glyph glyph-name="scircumflex" unicode="&#x15d;" horiz-adv-x="798" 
d="M80 49v270q39 -97 114.5 -156t190.5 -59q66 0 116 29t50 88q0 29 -10.5 51t-39.5 44t-58 38t-87 46q-31 15 -47 24q-115 58 -167 122t-52 154q0 133 92.5 213t255.5 80q150 0 244 -55v-250q-14 27 -33.5 52.5t-51 54t-76.5 46t-97 17.5q-69 0 -109.5 -32t-40.5 -83
q0 -59 45.5 -96t165.5 -92q136 -61 196 -128.5t60 -164.5q0 -134 -97 -213.5t-265 -79.5q-87 0 -171 22.5t-128 57.5zM676 1049l-281 155q-27 -15 -123 -70.5t-149 -84.5q41 54 86.5 115.5t100 135t85.5 115.5q47 -61 140.5 -183t140.5 -183z" />
    <glyph glyph-name="Scedilla" unicode="&#x15e;" horiz-adv-x="1064" 
d="M100 74v342q64 -156 164.5 -223.5t233.5 -67.5q103 0 177.5 50.5t74.5 137.5q0 30 -9 58t-21 49.5t-36.5 44.5t-43 38t-55 36t-57.5 31.5t-64.5 32.5t-62.5 32q-66 34 -111 64t-91 74.5t-69.5 102t-23.5 128.5q0 183 129 286t328 103q90 0 178.5 -26.5t141.5 -66.5v-284
q-18 35 -46 70.5t-69.5 72t-101 59.5t-125.5 23q-106 0 -168 -52.5t-62 -131.5q0 -31 9 -58.5t31 -52t42 -42t58.5 -39.5t62.5 -34.5t72 -35.5t79 -38.5t75.5 -41.5t72.5 -49t60.5 -57t50.5 -69t30.5 -81t12.5 -97q0 -158 -102 -260t-279 -125l-33 -53q79 -10 121.5 -50
t42.5 -93q0 -61 -55 -106.5t-150 -45.5q-96 0 -166 45q30 -6 66 -6q70 0 112.5 32.5t42.5 74.5q0 39 -41 67t-114 29l57 98q-102 1 -200.5 29.5t-168.5 75.5z" />
    <glyph glyph-name="scedilla" unicode="&#x15f;" horiz-adv-x="798" 
d="M80 49v270q39 -97 114.5 -156t190.5 -59q66 0 116 29t50 88q0 29 -10.5 51t-39.5 44t-58 38t-87 46q-31 15 -47 24q-115 58 -167 122t-52 154q0 133 92.5 213t255.5 80q150 0 244 -55v-250q-14 27 -33.5 52.5t-51 54t-76.5 46t-97 17.5q-69 0 -109.5 -32t-40.5 -83
q0 -59 45.5 -96t165.5 -92q136 -61 196 -128.5t60 -164.5q0 -118 -76.5 -195t-211.5 -94l-31 -49q79 -10 121.5 -50t42.5 -93q0 -61 -55 -106.5t-150 -45.5q-96 0 -166 45q30 -6 66 -6q70 0 112.5 32.5t42.5 74.5q0 39 -41 67t-114 29l59 100q-80 5 -151.5 25.5t-108.5 52.5
z" />
    <glyph glyph-name="Scaron" unicode="&#x160;" horiz-adv-x="1064" 
d="M100 74v342q64 -156 164.5 -223.5t233.5 -67.5q103 0 177.5 50.5t74.5 137.5q0 30 -9 58t-21 49.5t-36.5 44.5t-43 38t-55 36t-57.5 31.5t-64.5 32.5t-62.5 32q-66 34 -111 64t-91 74.5t-69.5 102t-23.5 128.5q0 183 129 286t328 103q90 0 178.5 -26.5t141.5 -66.5v-284
q-18 35 -46 70.5t-69.5 72t-101 59.5t-125.5 23q-106 0 -168 -52.5t-62 -131.5q0 -31 9 -58.5t31 -52t42 -42t58.5 -39.5t62.5 -34.5t72 -35.5t79 -38.5t75.5 -41.5t72.5 -49t60.5 -57t50.5 -69t30.5 -81t12.5 -97q0 -182 -132.5 -287.5t-353.5 -105.5q-106 0 -207.5 28.5
t-173.5 76.5zM518 1432l-301 346q52 -27 153 -67.5t148 -63.5q45 22 143.5 63t149.5 68q-50 -64 -148 -176t-145 -170z" />
    <glyph glyph-name="scaron" unicode="&#x161;" horiz-adv-x="798" 
d="M80 49v270q39 -97 114.5 -156t190.5 -59q66 0 116 29t50 88q0 29 -10.5 51t-39.5 44t-58 38t-87 46q-31 15 -47 24q-115 58 -167 122t-52 154q0 133 92.5 213t255.5 80q150 0 244 -55v-250q-14 27 -33.5 52.5t-51 54t-76.5 46t-97 17.5q-69 0 -109.5 -32t-40.5 -83
q0 -59 45.5 -96t165.5 -92q136 -61 196 -128.5t60 -164.5q0 -134 -97 -213.5t-265 -79.5q-87 0 -171 22.5t-128 57.5zM406 1061l-281 360l281 -151l272 151z" />
    <glyph glyph-name="uni0162" unicode="&#x162;" horiz-adv-x="1290" 
d="M532 209v1012h-258q-42 0 -75 -10t-52.5 -23t-38.5 -40.5t-28 -46.5t-25 -57q14 151 27 320h1128l25 -320q-17 45 -31 71t-41 53.5t-69 40t-103 12.5h-233v-1012q0 -61 11 -105.5t29 -64.5t31.5 -28.5t26.5 -10.5h-422q13 2 26 10t31 28t29.5 64t11.5 107zM651 -244v8
q-20 -4 -28 -4q-36 0 -57 23.5t-21 56.5q0 35 24 62.5t66 27.5q46 0 77 -36t31 -95q0 -71 -54.5 -128.5t-137.5 -67.5q42 19 71 63.5t29 89.5z" />
    <glyph glyph-name="uni0163" unicode="&#x163;" horiz-adv-x="712" 
d="M152 223v602h-150l352 406v-273h267v-133h-267v-538q0 -82 32 -121t85 -39q47 0 98.5 30t83.5 76q-22 -135 -95 -200.5t-175 -65.5q-106 0 -168.5 69.5t-62.5 186.5zM393 -244v8q-20 -4 -28 -4q-36 0 -57 23.5t-21 56.5q0 35 24 62.5t66 27.5q46 0 77 -36t31 -95
q0 -71 -54.5 -128.5t-137.5 -67.5q42 19 71 63.5t29 89.5z" />
    <glyph glyph-name="Tcaron" unicode="&#x164;" horiz-adv-x="1290" 
d="M532 209v1012h-258q-42 0 -75 -10t-52.5 -23t-38.5 -40.5t-28 -46.5t-25 -57q14 151 27 320h1128l25 -320q-17 45 -31 71t-41 53.5t-69 40t-103 12.5h-233v-1012q0 -61 11 -105.5t29 -64.5t31.5 -28.5t26.5 -10.5h-422q13 2 26 10t31 28t29.5 64t11.5 107zM651 1432
l-301 346q52 -27 153 -67.5t148 -63.5q45 22 143.5 63t149.5 68q-50 -64 -148 -176t-145 -170z" />
    <glyph glyph-name="tcaron" unicode="&#x165;" horiz-adv-x="712" 
d="M152 223v602h-150l352 406v-273h267v-133h-267v-538q0 -82 32 -121t85 -39q47 0 98.5 30t83.5 76q-22 -135 -95 -200.5t-175 -65.5q-106 0 -168.5 69.5t-62.5 186.5zM498 1026l51 371h231z" />
    <glyph glyph-name="Tbar" unicode="&#x166;" horiz-adv-x="1290" 
d="M528 272v349h-209v106h209v494h-254q-42 0 -75 -10t-52.5 -23t-38.5 -40.5t-28 -46.5t-25 -57q14 151 27 320h1128l25 -320q-17 45 -31 71t-41 53.5t-69 40t-103 12.5h-229v-494h209v-106h-209v-349q0 -83 10.5 -140.5t27.5 -83.5t31 -36t29 -12h-428q11 2 21.5 7
t24.5 22.5t24.5 45t18 78.5t7.5 119z" />
    <glyph glyph-name="tbar" unicode="&#x167;" horiz-adv-x="712" 
d="M162 227v246h-113v105h113v245h-123l330 379v-246h278v-133h-278v-245h223v-105h-223v-182q0 -84 32 -124t88 -40q49 0 103 30t86 76q-24 -135 -99 -200.5t-180 -65.5q-109 0 -173 68t-64 192z" />
    <glyph glyph-name="Utilde" unicode="&#x168;" horiz-adv-x="1378" 
d="M174 459v698q0 49 -8.5 87.5t-19.5 59t-27 35t-24.5 18.5t-18.5 7h418q-8 -2 -17.5 -6t-23.5 -18t-25 -35t-19 -58.5t-8 -85.5v-694q0 -183 76.5 -262.5t241.5 -79.5q167 0 235 86t68 254v688q0 61 -13 105.5t-33 65.5t-35 29.5t-28 10.5h400q-12 -2 -26 -10.5
t-33.5 -29.5t-31.5 -65.5t-12 -105.5v-680q0 -257 -127 -380.5t-385 -123.5q-273 0 -398.5 120.5t-125.5 369.5zM475 1444q-35 41 -35 98q0 68 45.5 121t122.5 53q43 0 102 -28t112.5 -56t84.5 -28q49 0 74 40t27 101q32 -35 32 -94q0 -69 -47 -126t-121 -57
q-35 0 -77.5 18.5t-76 40t-72 40t-66.5 18.5q-46 0 -74 -39t-31 -102z" />
    <glyph glyph-name="utilde" unicode="&#x169;" horiz-adv-x="1064" 
d="M135 305v449q0 179 -117 203q-3 1 -4 1h324v-612q0 -109 41 -164t113 -55q90 0 159.5 75t69.5 169v399q0 26 -2.5 48t-6 38.5t-9 31t-11 24t-13 17t-13 12t-12.5 8.5t-10.5 5t-9.5 2l-5 2h295v-688q0 -104 26 -140t78 -36h25l-326 -131l-2 174q-55 -77 -142 -122.5
t-175 -45.5q-129 0 -201 81.5t-72 254.5zM289 1096q-33 38 -33 86q0 73 44.5 129.5t121.5 56.5q34 0 79 -17.5t80.5 -39t75 -39t64.5 -17.5q49 0 73.5 40.5t26.5 101.5q31 -36 31 -82q0 -75 -47.5 -135t-124.5 -60q-33 0 -74.5 18.5t-74.5 40t-71.5 40t-66.5 18.5
q-46 0 -73.5 -39t-30.5 -102z" />
    <glyph glyph-name="Umacron" unicode="&#x16a;" horiz-adv-x="1378" 
d="M174 459v698q0 49 -8.5 87.5t-19.5 59t-27 35t-24.5 18.5t-18.5 7h418q-8 -2 -17.5 -6t-23.5 -18t-25 -35t-19 -58.5t-8 -85.5v-694q0 -183 76.5 -262.5t241.5 -79.5q167 0 235 86t68 254v688q0 61 -13 105.5t-33 65.5t-35 29.5t-28 10.5h400q-12 -2 -26 -10.5
t-33.5 -29.5t-31.5 -65.5t-12 -105.5v-680q0 -257 -127 -380.5t-385 -123.5q-273 0 -398.5 120.5t-125.5 369.5zM401 1544v107h652v-107h-652z" />
    <glyph glyph-name="umacron" unicode="&#x16b;" horiz-adv-x="1064" 
d="M135 305v449q0 179 -117 203q-3 1 -4 1h324v-612q0 -109 41 -164t113 -55q90 0 159.5 75t69.5 169v399q0 26 -2.5 48t-6 38.5t-9 31t-11 24t-13 17t-13 12t-12.5 8.5t-10.5 5t-9.5 2l-5 2h295v-688q0 -104 26 -140t78 -36h25l-326 -131l-2 174q-55 -77 -142 -122.5
t-175 -45.5q-129 0 -201 81.5t-72 254.5zM207 1190v104h649v-104h-649z" />
    <glyph glyph-name="Ubreve" unicode="&#x16c;" horiz-adv-x="1378" 
d="M174 459v698q0 49 -8.5 87.5t-19.5 59t-27 35t-24.5 18.5t-18.5 7h418q-8 -2 -17.5 -6t-23.5 -18t-25 -35t-19 -58.5t-8 -85.5v-694q0 -183 76.5 -262.5t241.5 -79.5q167 0 235 86t68 254v688q0 61 -13 105.5t-33 65.5t-35 29.5t-28 10.5h400q-12 -2 -26 -10.5
t-33.5 -29.5t-31.5 -65.5t-12 -105.5v-680q0 -257 -127 -380.5t-385 -123.5q-273 0 -398.5 120.5t-125.5 369.5zM479 1769q32 -72 97 -110.5t139 -38.5q73 0 136 38t99 111q0 -142 -70 -221.5t-165 -79.5q-96 0 -166 80t-70 221z" />
    <glyph glyph-name="ubreve" unicode="&#x16d;" horiz-adv-x="1064" 
d="M135 305v449q0 179 -117 203q-3 1 -4 1h324v-612q0 -109 41 -164t113 -55q90 0 159.5 75t69.5 169v399q0 26 -2.5 48t-6 38.5t-9 31t-11 24t-13 17t-13 12t-12.5 8.5t-10.5 5t-9.5 2l-5 2h295v-688q0 -104 26 -140t78 -36h25l-326 -131l-2 174q-55 -77 -142 -122.5
t-175 -45.5q-129 0 -201 81.5t-72 254.5zM293 1417q33 -72 96 -110.5t137 -38.5q75 0 138.5 38t97.5 111q0 -142 -70.5 -221.5t-165.5 -79.5t-164 80t-69 221z" />
    <glyph glyph-name="Uring" unicode="&#x16e;" horiz-adv-x="1378" 
d="M174 459v698q0 49 -8.5 87.5t-19.5 59t-27 35t-24.5 18.5t-18.5 7h418q-8 -2 -17.5 -6t-23.5 -18t-25 -35t-19 -58.5t-8 -85.5v-694q0 -183 76.5 -262.5t241.5 -79.5q167 0 235 86t68 254v688q0 61 -13 105.5t-33 65.5t-35 29.5t-28 10.5h400q-12 -2 -26 -10.5
t-33.5 -29.5t-31.5 -65.5t-12 -105.5v-680q0 -257 -127 -380.5t-385 -123.5q-273 0 -398.5 120.5t-125.5 369.5zM520 1612q0 84 54.5 138t138.5 54t139 -53.5t55 -138.5t-55 -139t-139 -54t-138.5 54.5t-54.5 138.5zM713 1497q47 0 77.5 32.5t30.5 82.5q0 51 -30 81.5
t-78 30.5q-49 0 -80 -31t-31 -81q0 -49 32 -82t79 -33z" />
    <glyph glyph-name="uring" unicode="&#x16f;" horiz-adv-x="1064" 
d="M135 305v449q0 179 -117 203q-3 1 -4 1h324v-612q0 -109 41 -164t113 -55q90 0 159.5 75t69.5 169v399q0 26 -2.5 48t-6 38.5t-9 31t-11 24t-13 17t-13 12t-12.5 8.5t-10.5 5t-9.5 2l-5 2h295v-688q0 -104 26 -140t78 -36h25l-326 -131l-2 174q-55 -77 -142 -122.5
t-175 -45.5q-129 0 -201 81.5t-72 254.5zM360 1249q0 84 54.5 138.5t138.5 54.5t139.5 -54t55.5 -139t-55.5 -138.5t-139.5 -53.5t-138.5 54t-54.5 138zM553 1135q47 0 78 32.5t31 81.5q0 51 -30.5 82t-78.5 31q-49 0 -80 -31.5t-31 -81.5q0 -49 32 -81.5t79 -32.5z" />
    <glyph glyph-name="Uhungarumlaut" unicode="&#x170;" horiz-adv-x="1378" 
d="M174 459v698q0 49 -8.5 87.5t-19.5 59t-27 35t-24.5 18.5t-18.5 7h418q-8 -2 -17.5 -6t-23.5 -18t-25 -35t-19 -58.5t-8 -85.5v-694q0 -183 76.5 -262.5t241.5 -79.5q167 0 235 86t68 254v688q0 61 -13 105.5t-33 65.5t-35 29.5t-28 10.5h400q-12 -2 -26 -10.5
t-33.5 -29.5t-31.5 -65.5t-12 -105.5v-680q0 -257 -127 -380.5t-385 -123.5q-273 0 -398.5 120.5t-125.5 369.5zM868 1434l131 313h258zM502 1434l129 313h258z" />
    <glyph glyph-name="uhungarumlaut" unicode="&#x171;" horiz-adv-x="1064" 
d="M135 305v449q0 179 -117 203q-3 1 -4 1h324v-612q0 -109 41 -164t113 -55q90 0 159.5 75t69.5 169v399q0 26 -2.5 48t-6 38.5t-9 31t-11 24t-13 17t-13 12t-12.5 8.5t-10.5 5t-9.5 2l-5 2h295v-688q0 -104 26 -140t78 -36h25l-326 -131l-2 174q-55 -77 -142 -122.5
t-175 -45.5q-129 0 -201 81.5t-72 254.5zM600 1047l117 317h264zM236 1047l116 317h264z" />
    <glyph glyph-name="Uogonek" unicode="&#x172;" horiz-adv-x="1378" 
d="M180 475v627q0 230 -100 262h428q-94 -26 -94 -258v-621q0 -189 75.5 -274.5t245.5 -85.5q158 0 232.5 89.5t74.5 266.5v619q0 236 -110 264h409q-106 -29 -106 -264v-608q0 -220 -87.5 -340.5t-256.5 -161.5l-33 -8q-60 -14 -94.5 -49.5t-34.5 -90.5q0 -47 31.5 -76.5
t85.5 -29.5q65 0 127 41q-25 -68 -83 -108t-122 -40q-74 0 -126 46.5t-52 119.5q0 96 90 176q-263 0 -381.5 130.5t-118.5 373.5z" />
    <glyph glyph-name="uogonek" unicode="&#x173;" horiz-adv-x="1064" 
d="M1028 94l27 2q-136 -66 -202.5 -129.5t-66.5 -132.5q0 -44 26.5 -71t76.5 -27q59 0 127 39q-26 -67 -84 -107.5t-121 -40.5q-81 0 -128.5 47.5t-47.5 118.5q0 111 108 203l-18 141q-55 -77 -142 -122.5t-175 -45.5q-129 0 -201 81.5t-72 254.5v449q0 179 -117 203
q-3 1 -4 1h324v-612q0 -109 41 -164t113 -55q90 0 159.5 75t69.5 169v399q0 26 -2.5 48t-6 38.5t-9 31t-11 24t-13 17t-13 12t-12.5 8.5t-10.5 5t-9.5 2l-5 2h295v-688q0 -105 26.5 -142t77.5 -34z" />
    <glyph glyph-name="Wcircumflex" unicode="&#x174;" horiz-adv-x="2050" 
d="M573 0l-376 1137q-67 198 -177 227h457q-57 -19 -57 -102q0 -42 24 -119l256 -770l258 723l-18 59q-19 61 -42 105t-43 64.5t-33 29t-23 10.5h415q-67 -22 -67 -107q0 -41 24 -114l256 -770l263 778q18 55 18 104q0 84 -76 109h398q-12 -2 -28 -11t-42.5 -32t-55 -73
t-51.5 -120l-374 -1128h-164l-285 860l-299 -860h-158zM1034 1778l301 -346q-52 27 -153 67.5t-148 63.5q-45 -22 -143.5 -63t-149.5 -68q50 64 148 176t145 170z" />
    <glyph glyph-name="wcircumflex" unicode="&#x175;" horiz-adv-x="1574" 
d="M442 0l-301 797q-52 131 -141 161h408q-60 -15 -60 -79q0 -31 21 -86l182 -498l174 463l-14 45q-17 43 -37 75.5t-37.5 48t-28 22.5t-18.5 9h375q-64 -16 -64 -88q0 -25 19 -77l180 -498l164 473q20 56 20 92q0 27 -8.5 46.5t-21.5 30t-23.5 15t-20.5 6.5h365
q-11 -2 -24 -9t-34.5 -24.5t-45 -54.5t-41.5 -88l-287 -782h-135l-215 575l-215 -575h-136zM1077 1049l-280 155q-15 -9 -117 -67t-156 -88q35 46 273 366q47 -61 140 -183t140 -183z" />
    <glyph glyph-name="Ycircumflex" unicode="&#x176;" horiz-adv-x="1314" 
d="M541 209v360l-326 580q-105 184 -199 215h455q-53 -15 -53 -72q0 -42 53 -137l225 -401l211 372q68 119 68 166q0 57 -53 72h370q-10 -2 -24.5 -11t-39.5 -30t-59.5 -67.5t-70.5 -110.5l-328 -570v-366q0 -61 10.5 -105t27 -64.5t29.5 -29t25 -10.5h-418q12 2 25.5 10
t31 28t29 64.5t11.5 106.5zM680 1778l301 -346q-52 27 -153 67.5t-148 63.5q-45 -22 -143.5 -63t-149.5 -68q50 64 148 176t145 170z" />
    <glyph glyph-name="ycircumflex" unicode="&#x177;" horiz-adv-x="1062" 
d="M287 -395l-232 178q32 -14 86 -14q184 0 312 256l-306 766q-12 31 -26 56.5t-27.5 42t-26.5 29t-25 19.5t-19.5 11t-14.5 7l-8 2h420l-6 -2q-5 -2 -8.5 -3.5t-10 -5t-11.5 -8t-10.5 -11.5t-9 -14.5t-6 -19t-2.5 -24.5q0 -28 25 -94l190 -491l179 467q28 76 28 112
q0 25 -8.5 44t-21.5 29t-22.5 14.5t-18.5 6.5h356l-5 -2q-4 -2 -8.5 -4.5t-12 -7t-15 -11t-17 -16t-19 -22.5t-19.5 -29t-20.5 -37.5t-20.5 -46.5l-275 -682q-79 -198 -173.5 -327.5t-190.5 -167.5zM831 1049l-280 155q-27 -15 -123 -70.5t-149 -84.5q41 54 86.5 115.5
t100 135t85.5 115.5q47 -61 140 -183t140 -183z" />
    <glyph glyph-name="Ydieresis" unicode="&#x178;" horiz-adv-x="1314" 
d="M541 209v360l-326 580q-105 184 -199 215h455q-53 -15 -53 -72q0 -42 53 -137l225 -401l211 372q68 119 68 166q0 57 -53 72h370q-10 -2 -24.5 -11t-39.5 -30t-59.5 -67.5t-70.5 -110.5l-328 -570v-366q0 -61 10.5 -105t27 -64.5t29.5 -29t25 -10.5h-418q12 2 25.5 10
t31 28t29 64.5t11.5 106.5zM762 1593q0 47 31.5 78t83.5 31q51 0 81.5 -31t30.5 -78t-31 -78.5t-81 -31.5q-51 0 -83 31.5t-32 78.5zM383 1593q0 47 31.5 78t83.5 31q51 0 81.5 -31t30.5 -78t-30.5 -78.5t-81.5 -31.5t-83 31.5t-32 78.5z" />
    <glyph glyph-name="Zacute" unicode="&#x179;" horiz-adv-x="1193" 
d="M53 0l701 1221h-385q-51 0 -91.5 -9t-68.5 -26.5t-48 -36.5t-33.5 -47t-20.5 -49.5t-15 -51.5v363h1000l-697 -1219h418q131 0 198 59.5t124 205.5l-37 -410h-1045zM532 1434l117 313h279z" />
    <glyph glyph-name="zacute" unicode="&#x17a;" horiz-adv-x="925" 
d="M55 0l490 838h-266q-44 0 -79 -14.5t-55.5 -35t-34.5 -46t-19 -44t-7 -32.5v292h756l-484 -829h312q153 0 188 160v-289h-801zM352 1047l117 317h279z" />
    <glyph glyph-name="Zdotaccent" unicode="&#x17b;" horiz-adv-x="1193" 
d="M53 0l701 1221h-385q-51 0 -91.5 -9t-68.5 -26.5t-48 -36.5t-33.5 -47t-20.5 -49.5t-15 -51.5v363h1000l-697 -1219h418q131 0 198 59.5t124 205.5l-37 -410h-1045zM471 1593q0 57 37.5 94t99.5 37t98.5 -37t36.5 -94t-37 -95t-98 -38q-62 0 -99.5 38t-37.5 95z" />
    <glyph glyph-name="zdotaccent" unicode="&#x17c;" horiz-adv-x="925" 
d="M55 0l490 838h-266q-44 0 -79 -14.5t-55.5 -35t-34.5 -46t-19 -44t-7 -32.5v292h756l-484 -829h312q153 0 188 160v-289h-801zM365 1264q0 48 31.5 80t86.5 32q54 0 86.5 -32.5t32.5 -79.5q0 -49 -32.5 -82t-86.5 -33t-86 33t-32 82z" />
    <glyph glyph-name="Zcaron" unicode="&#x17d;" horiz-adv-x="1193" 
d="M53 0l701 1221h-385q-51 0 -91.5 -9t-68.5 -26.5t-48 -36.5t-33.5 -47t-20.5 -49.5t-15 -51.5v363h1000l-697 -1219h418q131 0 198 59.5t124 205.5l-37 -410h-1045zM590 1432l-301 346q52 -27 153 -67.5t148 -63.5q45 22 143.5 63t149.5 68q-50 -64 -148 -176t-145 -170z
" />
    <glyph glyph-name="zcaron" unicode="&#x17e;" horiz-adv-x="925" 
d="M55 0l490 838h-266q-44 0 -79 -14.5t-55.5 -35t-34.5 -46t-19 -44t-7 -32.5v292h756l-484 -829h312q153 0 188 160v-289h-801zM475 1061l-280 360l280 -151l273 151z" />
    <glyph glyph-name="longs" unicode="&#x17f;" horiz-adv-x="575" 
d="M199 215v608h-166v133h166v52q0 199 93 306t243 107q24 0 47 -2.5t44.5 -6t22.5 -3.5v-215q-22 39 -59.5 60.5t-75.5 21.5q-55 0 -80.5 -45t-25.5 -146v-870q0 -51 7.5 -91.5t18 -62t24 -36t22 -19t16.5 -6.5h-390q12 2 24.5 10t30 29t28 66.5t10.5 109.5z" />
    <glyph glyph-name="florin" unicode="&#x192;" horiz-adv-x="1081" 
d="M-27 -266l56 178q12 -17 55 -39.5t82 -22.5q71 0 112.5 74.5t59.5 245.5l53 518h-162l11 133h163q15 136 42 236.5t74 179.5t120 119.5t172 40.5q111 0 190 -39l-61 -170q-25 23 -67.5 37t-79.5 14q-24 0 -44 -8t-35 -25t-26.5 -35t-20 -48t-14.5 -53t-11 -61t-8 -62
t-7 -65t-6 -61h176l-11 -133h-176l-47 -455q-30 -278 -129.5 -408t-292.5 -130q-31 0 -64 7t-47.5 12t-56.5 20z" />
    <glyph glyph-name="Ohorn" unicode="&#x1a0;" horiz-adv-x="1568" 
d="M1333 1071q97 43 129 127q-49 11 -79.5 45t-30.5 82q0 55 36 91t101 36q54 0 92.5 -41t38.5 -104q0 -75 -41 -150q-30 -56 -85.5 -102.5t-119.5 -71.5q49 -133 49 -283t-50 -284t-139 -233t-218.5 -156.5t-280.5 -57.5q-191 0 -340 91.5t-230 250t-81 355.5
q0 205 88.5 372t247.5 263t356 96q186 0 332 -87t225 -239zM778 131q181 0 299.5 142.5t118.5 375.5q0 257 -128 422.5t-337 165.5q-180 0 -299 -139t-119 -371q0 -266 129.5 -431t335.5 -165z" />
    <glyph glyph-name="ohorn" unicode="&#x1a1;" horiz-adv-x="1175" 
d="M963 778q82 47 106 117q-49 14 -80 47t-31 80q0 55 36.5 91t101.5 36q54 0 92.5 -41t38.5 -104q0 -75 -41 -150q-54 -102 -182 -166q32 -94 32 -188q0 -100 -32 -193.5t-91.5 -169.5t-155 -122t-212.5 -46q-114 0 -205 41.5t-147 112t-85.5 157.5t-29.5 183
q0 79 19.5 155.5t60.5 144.5t97.5 119t136.5 81t173 30q137 0 238.5 -57.5t159.5 -157.5zM575 111q116 0 181 102t65 244q0 101 -31 189t-97.5 147t-157.5 59q-80 0 -137 -49.5t-83 -125.5t-26 -167q0 -101 31 -190t97.5 -149t157.5 -60z" />
    <glyph glyph-name="Uhorn" unicode="&#x1af;" horiz-adv-x="1544" 
d="M174 459v698q0 174 -96 207h411q-13 -4 -25 -13t-28 -30t-25.5 -62t-9.5 -98v-694q0 -183 76.5 -262.5t241.5 -79.5q167 0 235 86t68 254v688q0 60 -15 104t-38.5 65t-40.5 30t-33 12h315v-317q77 6 142 47.5t86 103.5q-47 13 -79 46.5t-32 78.5q0 57 36 93t99 36
q55 0 94 -40t39 -105q0 -75 -41 -150q-43 -81 -138 -141.5t-206 -67.5v-475q0 -257 -127 -380.5t-385 -123.5q-273 0 -398.5 120.5t-125.5 369.5z" />
    <glyph glyph-name="uhorn" unicode="&#x1b0;" horiz-adv-x="1216" 
d="M135 305v449q0 179 -117 203q-3 1 -4 1h324v-612q0 -109 41 -164t113 -55q90 0 159.5 75t69.5 169v399q0 26 -2.5 48t-6 38.5t-9 31t-11 24t-13 17t-13 12t-12.5 8.5t-10.5 5t-9.5 2l-5 2h295v-208q65 14 116.5 52.5t69.5 92.5q-47 13 -79 46.5t-32 78.5q0 57 36.5 93
t99.5 36q55 0 94 -40t39 -105q0 -75 -41 -150q-40 -73 -122.5 -130.5t-180.5 -74.5v-379q0 -104 26 -140t78 -36h25l-326 -131l-2 174q-55 -77 -142 -122.5t-175 -45.5q-129 0 -201 81.5t-72 254.5z" />
    <glyph glyph-name="uni0218" unicode="&#x218;" horiz-adv-x="1064" 
d="M100 74v342q64 -156 164.5 -223.5t233.5 -67.5q103 0 177.5 50.5t74.5 137.5q0 30 -9 58t-21 49.5t-36.5 44.5t-43 38t-55 36t-57.5 31.5t-64.5 32.5t-62.5 32q-66 34 -111 64t-91 74.5t-69.5 102t-23.5 128.5q0 183 129 286t328 103q90 0 178.5 -26.5t141.5 -66.5v-284
q-18 35 -46 70.5t-69.5 72t-101 59.5t-125.5 23q-106 0 -168 -52.5t-62 -131.5q0 -31 9 -58.5t31 -52t42 -42t58.5 -39.5t62.5 -34.5t72 -35.5t79 -38.5t75.5 -41.5t72.5 -49t60.5 -57t50.5 -69t30.5 -81t12.5 -97q0 -182 -132.5 -287.5t-353.5 -105.5q-106 0 -207.5 28.5
t-173.5 76.5zM537 -244v8q-20 -4 -29 -4q-36 0 -57 23.5t-21 56.5q0 35 24 62.5t66 27.5q46 0 77.5 -36.5t31.5 -94.5q0 -71 -55 -128.5t-138 -67.5q42 19 71.5 63.5t29.5 89.5z" />
    <glyph glyph-name="uni0219" unicode="&#x219;" horiz-adv-x="798" 
d="M80 49v270q39 -97 114.5 -156t190.5 -59q66 0 116 29t50 88q0 29 -10.5 51t-39.5 44t-58 38t-87 46q-31 15 -47 24q-115 58 -167 122t-52 154q0 133 92.5 213t255.5 80q150 0 244 -55v-250q-14 27 -33.5 52.5t-51 54t-76.5 46t-97 17.5q-69 0 -109.5 -32t-40.5 -83
q0 -59 45.5 -96t165.5 -92q136 -61 196 -128.5t60 -164.5q0 -134 -97 -213.5t-265 -79.5q-87 0 -171 22.5t-128 57.5zM418 -244v8q-20 -4 -29 -4q-36 0 -57 23.5t-21 56.5q0 35 24 62.5t66 27.5q46 0 77.5 -36.5t31.5 -94.5q0 -71 -55 -128.5t-138 -67.5q42 19 71.5 63.5
t29.5 89.5z" />
    <glyph glyph-name="uni021A" unicode="&#x21a;" horiz-adv-x="1290" 
d="M532 209v1012h-258q-42 0 -75 -10t-52.5 -23t-38.5 -40.5t-28 -46.5t-25 -57q14 151 27 320h1128l25 -320q-17 45 -31 71t-41 53.5t-69 40t-103 12.5h-233v-1012q0 -61 11 -105.5t29 -64.5t31.5 -28.5t26.5 -10.5h-422q13 2 26 10t31 28t29.5 64t11.5 107zM670 -244v8
q-20 -4 -29 -4q-36 0 -57 23.5t-21 56.5q0 35 24 62.5t66 27.5q46 0 77.5 -36.5t31.5 -94.5q0 -71 -55 -128.5t-138 -67.5q42 19 71.5 63.5t29.5 89.5z" />
    <glyph glyph-name="uni021B" unicode="&#x21b;" horiz-adv-x="712" 
d="M152 223v602h-150l352 406v-273h267v-133h-267v-538q0 -82 32 -121t85 -39q47 0 98.5 30t83.5 76q-22 -135 -95 -200.5t-175 -65.5q-106 0 -168.5 69.5t-62.5 186.5zM373 -244v8q-20 -4 -29 -4q-36 0 -57 23.5t-21 56.5q0 35 24 62.5t66 27.5q46 0 77.5 -36.5t31.5 -94.5
q0 -71 -55 -128.5t-138 -67.5q42 19 71.5 63.5t29.5 89.5z" />
    <glyph glyph-name="circumflex" unicode="&#x2c6;" horiz-adv-x="954" 
d="M758 1049l-281 155q-27 -15 -123 -70.5t-149 -84.5q41 54 86.5 115.5t100 135t85.5 115.5q47 -61 140.5 -183t140.5 -183z" />
    <glyph glyph-name="caron" unicode="&#x2c7;" horiz-adv-x="954" 
d="M465 1061l-281 360l281 -151l272 151z" />
    <glyph glyph-name="breve" unicode="&#x2d8;" horiz-adv-x="954" 
d="M244 1417q33 -72 96 -110.5t137 -38.5q75 0 138.5 38t97.5 111q0 -142 -70.5 -221.5t-165.5 -79.5t-164 80t-69 221z" />
    <glyph glyph-name="dotaccent" unicode="&#x2d9;" horiz-adv-x="954" 
d="M358 1264q0 48 32 80t87 32q54 0 86.5 -32.5t32.5 -79.5q0 -49 -32.5 -82t-86.5 -33t-86.5 33t-32.5 82z" />
    <glyph glyph-name="ring" unicode="&#x2da;" horiz-adv-x="954" 
d="M274 1249q0 84 54.5 138.5t138.5 54.5t139.5 -54t55.5 -139t-55.5 -138.5t-139.5 -53.5t-138.5 54t-54.5 138zM467 1135q47 0 77.5 32t30.5 82q0 51 -30 82t-78 31q-49 0 -80 -31.5t-31 -81.5q0 -49 32 -81.5t79 -32.5z" />
    <glyph glyph-name="ogonek" unicode="&#x2db;" horiz-adv-x="954" 
d="M385 0h135q-59 -24 -93 -64.5t-34 -91.5q0 -48 32 -78t85 -30q61 0 127 41q-25 -68 -83 -108t-122 -40q-74 0 -126 46.5t-52 119.5q0 60 36 114t95 91z" />
    <glyph glyph-name="tilde" unicode="&#x2dc;" horiz-adv-x="954" 
d="M221 1096q-33 38 -33 86q0 73 44.5 129.5t121.5 56.5q34 0 79 -17.5t80.5 -39t75 -39t64.5 -17.5q49 0 74 40.5t27 101.5q30 -34 30 -82q0 -75 -47.5 -135t-124.5 -60q-41 0 -95 29t-105 58.5t-86 29.5q-46 0 -74 -39t-31 -102z" />
    <glyph glyph-name="hungarumlaut" unicode="&#x2dd;" horiz-adv-x="954" 
d="M483 1047l117 317h264zM119 1047l117 317h264z" />
    <glyph glyph-name="gravecomb" unicode="&#x300;" horiz-adv-x="0" 
d="M-201 1364h287l115 -317z" />
    <glyph glyph-name="acutecomb" unicode="&#x301;" horiz-adv-x="0" 
d="M-197 1047l117 317h279z" />
    <glyph glyph-name="uni0302" unicode="&#x302;" horiz-adv-x="0" 
d="M281 1049l-281 155q-27 -15 -123 -70.5t-149 -84.5q41 54 86.5 115.5t100 135t85.5 115.5q47 -61 140.5 -183t140.5 -183z" />
    <glyph glyph-name="tildecomb" unicode="&#x303;" horiz-adv-x="0" 
d="M-266 1096q-33 38 -33 86q0 73 44.5 129.5t121.5 56.5q34 0 79 -17.5t80.5 -39t75 -39t64.5 -17.5q49 0 73.5 40.5t26.5 101.5q31 -36 31 -82q0 -75 -47.5 -135t-124.5 -60q-33 0 -74.5 18.5t-74.5 40t-71.5 40t-66.5 18.5q-46 0 -73.5 -39t-30.5 -102z" />
    <glyph glyph-name="uni0306" unicode="&#x306;" horiz-adv-x="0" 
d="M-233 1417q33 -72 96 -110.5t137 -38.5q75 0 138.5 38t97.5 111q0 -142 -70.5 -221.5t-165.5 -79.5t-164 80t-69 221z" />
    <glyph glyph-name="hookabovecomb" unicode="&#x309;" horiz-adv-x="0" 
d="M-158 1270v153q74 31 158 31q82 0 133 -37.5t51 -99.5q0 -44 -25 -79.5t-55.5 -53.5t-55.5 -37.5t-25 -36.5q0 -26 32 -33q-15 -10 -39 -10q-34 0 -63 20t-29 56q0 25 17.5 48t38 37.5t38 35.5t17.5 43q0 25 -15.5 40t-42.5 15q-39 0 -76 -27t-59 -65z" />
    <glyph glyph-name="uni031B" unicode="&#x31b;" horiz-adv-x="0" 
d="M-113 979l-49 90q50 20 85.5 54.5t49.5 74.5q-48 11 -79 44t-31 83q0 55 36 91t101 36q54 0 92.5 -41t38.5 -104q0 -75 -41 -150q-28 -53 -82 -100t-121 -78z" />
    <glyph glyph-name="dotbelowcomb" unicode="&#x323;" horiz-adv-x="0" 
d="M-119 -256q0 48 32 80.5t87 32.5q54 0 86.5 -33t32.5 -80q0 -49 -32.5 -82t-86.5 -33t-86.5 33t-32.5 82z" />
    <glyph glyph-name="uni037E" unicode="&#x37e;" horiz-adv-x="493" 
d="M111 750q0 62 40 102.5t107 40.5q68 0 109 -41t41 -102t-42 -102.5t-108 -41.5q-67 0 -107 41t-40 103zM272 -2q-20 -10 -41 -10q-58 0 -89 36.5t-31 88.5q0 59 39.5 102t107.5 43q85 0 133.5 -71t48.5 -173q0 -66 -22 -131t-65 -121.5t-116 -94t-165 -42.5
q88 38 150.5 124.5t62.5 178.5q0 41 -13 70z" />
    <glyph glyph-name="tonos" unicode="&#x384;" horiz-adv-x="954" 
d="M416 1026l-6 358h239z" />
    <glyph glyph-name="dieresistonos" unicode="&#x385;" horiz-adv-x="954" 
d="M598 1257q0 45 30 75t79 30q50 0 79 -29.5t29 -75.5q0 -45 -30 -75.5t-78 -30.5q-49 0 -79 30.5t-30 75.5zM137 1257q0 45 30.5 75t80.5 30q48 0 77 -30t29 -75q0 -46 -29 -76t-77 -30q-50 0 -80.5 30.5t-30.5 75.5zM438 1182l-16 338h237z" />
    <glyph glyph-name="Alphatonos" unicode="&#x386;" horiz-adv-x="1470" 
d="M410 0h-381q8 2 18 6.5t29 21.5t37.5 42t43.5 71.5t48 106.5l434 1116h176l442 -1120q23 -59 48 -104.5t45 -70t40 -41t31 -21.5t19 -7h-457q13 1 27 7.5t28.5 27.5t14.5 53q0 33 -33 117l-62 162h-538l-58 -156q-28 -76 -28 -113q0 -27 8.5 -47.5t22 -30.5t24.5 -14.5
t21 -5.5zM471 504h434l-219 567zM213 1006l-6 358h239z" />
    <glyph glyph-name="anoteleia" unicode="&#x387;" horiz-adv-x="491" 
d="M98 489q0 62 40.5 103t107.5 41t108 -41t41 -103q0 -61 -41.5 -102t-107.5 -41q-67 0 -107.5 40.5t-40.5 102.5z" />
    <glyph glyph-name="Epsilontonos" unicode="&#x388;" horiz-adv-x="1132" 
d="M252 219v934q0 50 -10 89.5t-22 60t-30 35.5t-28 19t-21 7h854v-305q-13 38 -26.5 63t-39 50t-67.5 37t-102 12h-281v-455h236q134 0 162 65v-278q-23 68 -158 68h-240v-476h297q131 0 193.5 39t113.5 144l-55 -328h-872q9 2 18 6t24 19t26 37t19.5 63t8.5 94zM-113 1006
l-6 358h240z" />
    <glyph glyph-name="Etatonos" unicode="&#x389;" horiz-adv-x="1533" 
d="M246 209v946q0 179 -101 209h424q-8 -2 -17 -6t-24 -18.5t-26.5 -35t-20 -60t-8.5 -89.5v-389h653v389q0 61 -11.5 105t-29.5 64.5t-32 29t-27 10.5h424q-8 -2 -17 -6t-24 -18.5t-26.5 -35t-20 -60t-8.5 -89.5v-946q0 -61 10.5 -105t27.5 -64.5t30 -29t26 -10.5h-420
q13 2 26 10t31 28t29.5 64.5t11.5 106.5v412h-653v-412q0 -61 10.5 -105t27.5 -64.5t30 -29t26 -10.5h-417q12 2 25 10t31 28t29 64.5t11 106.5zM-113 1006l-6 358h240z" />
    <glyph glyph-name="Iotatonos" unicode="&#x38a;" horiz-adv-x="659" 
d="M250 197v964q0 173 -100 203h421q-11 -2 -23.5 -10.5t-30.5 -28.5t-30 -63t-12 -101v-964q0 -58 11 -99.5t29 -60.5t30.5 -27t23.5 -10h-417q12 2 24.5 9.5t31.5 26t30.5 60.5t11.5 101zM-113 1006l-6 358h240z" />
    <glyph glyph-name="Omicrontonos" unicode="&#x38c;" horiz-adv-x="1507" 
d="M735 -31q-191 0 -340 91.5t-230 250t-81 355.5q0 205 88.5 372t247.5 263t356 96q191 0 339 -91.5t228 -249.5t80 -356q0 -150 -50 -284t-139 -233t-218.5 -156.5t-280.5 -57.5zM778 131q181 0 299.5 142.5t118.5 375.5q0 257 -128 422.5t-337 165.5q-180 0 -299 -139
t-119 -371q0 -266 129.5 -431t335.5 -165zM-27 1006l-6 358h240z" />
    <glyph glyph-name="Upsilontonos" unicode="&#x38e;" horiz-adv-x="1421" 
d="M647 209v360l-325 580q-105 184 -199 215h455q-54 -15 -54 -72q0 -41 54 -137l225 -401l211 372q67 117 67 166q0 57 -53 72h371q-10 -2 -24.5 -11t-40 -30t-60 -67.5t-70.5 -110.5l-327 -570v-366q0 -61 10.5 -105t27 -64.5t29.5 -29t25 -10.5h-418q12 2 25 10t31 28
t29 64.5t11 106.5zM-113 1006l-6 358h240z" />
    <glyph glyph-name="Omegatonos" unicode="&#x38f;" horiz-adv-x="1665" 
d="M80 0l-31 313q25 -48 46.5 -75.5t46.5 -47.5t64.5 -28.5t85 -12t124.5 -4.5q-120 99 -187 241.5t-67 303.5q0 141 47.5 268.5t134 224.5t218.5 154.5t290 57.5q153 0 277.5 -53.5t205.5 -145.5t124.5 -213.5t43.5 -259.5q0 -171 -69 -327t-197 -251h72q75 0 120 6.5
t79.5 28.5t55 50t50.5 83l-31 -313h-706q46 9 99 43t105.5 93t95.5 132.5t70 170t27 196.5q0 171 -53 306t-161 215.5t-255 80.5q-189 0 -303.5 -142t-114.5 -382q0 -121 27 -232.5t70 -192t96.5 -144t106.5 -99t101 -45.5h-708zM43 1006l-6 358h239z" />
    <glyph glyph-name="iotadieresistonos" unicode="&#x390;" horiz-adv-x="649" 
d="M168 223v467q0 103 -28.5 139.5t-80.5 36.5h-24l336 133v-712q0 -81 27.5 -120.5t74.5 -39.5q43 0 85 30t71 76q-21 -136 -87.5 -201t-160.5 -65q-98 0 -155.5 69.5t-57.5 186.5zM395 1257q0 45 30 75t79 30q50 0 79 -29.5t29 -75.5q0 -45 -30 -75.5t-78 -30.5
q-49 0 -79 30.5t-30 75.5zM-66 1257q0 45 30.5 75t80.5 30q48 0 77.5 -30t29.5 -75t-29.5 -75.5t-77.5 -30.5q-50 0 -80.5 30.5t-30.5 75.5zM236 1182l-17 338h238z" />
    <glyph glyph-name="Alpha" unicode="&#x391;" horiz-adv-x="1470" 
d="M410 0h-381q8 2 18 6.5t29 21.5t37.5 42t43.5 71.5t48 106.5l434 1116h176l442 -1120q23 -59 48 -104.5t45 -70t40 -41t31 -21.5t19 -7h-457q13 1 27 7.5t28.5 27.5t14.5 53q0 33 -33 117l-62 162h-538l-58 -156q-28 -76 -28 -113q0 -27 8.5 -47.5t22 -30.5t24.5 -14.5
t21 -5.5zM471 504h434l-219 567z" />
    <glyph glyph-name="Beta" unicode="&#x392;" horiz-adv-x="1196" 
d="M190 219v932q0 51 -9.5 90.5t-21.5 60.5t-29.5 36t-27 19t-20.5 7h594q94 0 168 -28t118.5 -75t67.5 -104.5t23 -120.5q0 -113 -68 -204t-178 -115q143 -20 227 -121t84 -234q0 -69 -25.5 -133t-73.5 -115.5t-125.5 -82.5t-172.5 -31h-627q9 2 18 6t24 19t26 37t19.5 63
t8.5 94zM416 145h219q131 0 188.5 65.5t57.5 164.5q0 116 -70 187t-195 71h-200v-488zM416 776h190q96 0 152.5 64.5t56.5 171.5q0 91 -60.5 150t-158.5 59h-180v-445z" />
    <glyph glyph-name="Gamma" unicode="&#x393;" horiz-adv-x="980" 
d="M180 211v944q0 179 -114 209h860v-303q-10 25 -17 40t-26.5 41t-43 40.5t-65 26.5t-94.5 12h-272v-1016q0 -49 8 -87t18.5 -58.5t25 -34.5t24.5 -18.5t20 -6.5h-424q13 2 26 10t32 28.5t30.5 65t11.5 107.5z" />
    <glyph glyph-name="uni0394" unicode="&#x394;" horiz-adv-x="1480" 
d="M319 154h746l-377 925zM86 0l553 1364h178l572 -1364h-1303z" />
    <glyph glyph-name="Epsilon" unicode="&#x395;" horiz-adv-x="1067" 
d="M186 219v934q0 50 -9.5 89.5t-22 60.5t-30.5 35.5t-27.5 18.5t-20.5 7h854v-305q-13 38 -26.5 63t-39.5 50t-68 37t-102 12h-280v-455h235q134 0 162 65v-278q-23 68 -158 68h-239v-476h297q131 0 193.5 39t113.5 144l-55 -328h-873q9 2 18 6t24 19t26 37t19.5 63t8.5 94
z" />
    <glyph glyph-name="Zeta" unicode="&#x396;" horiz-adv-x="1193" 
d="M53 0l701 1221h-385q-51 0 -91.5 -9t-68.5 -26.5t-48 -36.5t-33.5 -47t-20.5 -49.5t-15 -51.5v363h1000l-697 -1219h418q131 0 198 59.5t124 205.5l-37 -410h-1045z" />
    <glyph glyph-name="Eta" unicode="&#x397;" horiz-adv-x="1468" 
d="M180 209v946q0 179 -100 209h424q-8 -2 -17 -6t-24 -18.5t-26.5 -35t-20 -60t-8.5 -89.5v-389h653v389q0 61 -11.5 105t-29.5 64.5t-32 29t-27 10.5h423q-8 -2 -17 -6t-24 -18.5t-26.5 -35t-20 -60t-8.5 -89.5v-946q0 -61 10.5 -105t27.5 -64.5t30 -29t26 -10.5h-419
q13 2 26 10t31 28t29.5 64.5t11.5 106.5v412h-653v-412q0 -61 10.5 -105t27.5 -64.5t30 -29t26 -10.5h-418q12 2 25 10t31 28t29 64.5t11 106.5z" />
    <glyph glyph-name="Theta" unicode="&#x398;" horiz-adv-x="1507" 
d="M735 -31q-191 0 -340 91.5t-230 250t-81 355.5q0 205 88.5 372t247.5 263t356 96q191 0 339 -91.5t228 -249.5t80 -356q0 -150 -50 -284t-139 -233t-218.5 -156.5t-280.5 -57.5zM778 131q181 0 299.5 142.5t118.5 375.5q0 257 -128 422.5t-337 165.5q-180 0 -299 -139
t-119 -371q0 -266 129.5 -431t335.5 -165zM514 553v276q27 -63 162 -63h160q134 0 161 63v-276q-23 68 -157 68h-168q-135 0 -158 -68z" />
    <glyph glyph-name="Iota" unicode="&#x399;" horiz-adv-x="593" 
d="M184 197v964q0 173 -100 203h422q-11 -2 -23.5 -10.5t-30.5 -28.5t-30 -63t-12 -101v-964q0 -58 11 -99.5t29 -60.5t30.5 -27t23.5 -10h-418q12 2 24.5 9.5t31.5 26t30.5 60.5t11.5 101z" />
    <glyph glyph-name="Kappa" unicode="&#x39a;" horiz-adv-x="1363" 
d="M180 207v948q0 179 -100 209h422q-8 -2 -17 -6t-23.5 -18.5t-25.5 -35t-19.5 -60t-8.5 -89.5v-418l380 412q103 111 103 168q0 12 -4 21t-13.5 14.5t-13 7t-12.5 4.5h446q-14 -2 -35.5 -11t-60 -31t-94 -68.5t-115.5 -110.5l-366 -389l432 -529q57 -69 104.5 -116
t80.5 -68t50.5 -28.5t35.5 -11.5q4 -1 5 -1h-387l-536 668v-461q0 -60 10.5 -103.5t27 -64t29.5 -29t25 -10.5h-418q9 2 18 5.5t24.5 17.5t27 34.5t20 59.5t8.5 90z" />
    <glyph glyph-name="Lambda" unicode="&#x39b;" horiz-adv-x="1470" 
d="M410 0h-381q8 2 18 6.5t29 21.5t37.5 42t43.5 71.5t48 106.5l434 1116h176l442 -1120q23 -59 48.5 -104.5t45.5 -70t39.5 -41t30.5 -21.5t19 -7h-457q13 1 27 7.5t28.5 27.5t14.5 53q0 33 -33 117l-334 866l-324 -860q-28 -76 -28 -113q0 -27 8.5 -47.5t22 -30.5
t24.5 -14.5t21 -5.5z" />
    <glyph glyph-name="Mu" unicode="&#x39c;" horiz-adv-x="1726" 
d="M199 223v942q0 173 -115 199h393l404 -942l401 942h356q-9 -2 -18.5 -6t-24.5 -18t-26.5 -34.5t-20 -59t-8.5 -87.5v-948q0 -50 8.5 -89.5t20 -61t26.5 -35.5t24.5 -18.5t18.5 -6.5h-405q8 2 17 6t23 18.5t24.5 35.5t18 60.5t7.5 90.5v868l-479 -1108l-484 1104v-852
q0 -65 13.5 -112t34.5 -69t36.5 -31t28.5 -11h-389q10 2 21.5 6.5t29.5 19.5t31 37.5t23 64t10 95.5z" />
    <glyph glyph-name="Nu" unicode="&#x39d;" horiz-adv-x="1429" 
d="M195 205v936q0 42 -15.5 79.5t-35 60.5t-46.5 42.5t-41.5 27t-29.5 13.5h344l714 -918v713q0 177 -106 205h375q-9 -2 -18.5 -6t-25 -18t-27 -34.5t-20 -59t-8.5 -87.5v-1159h-147q-5 15 -16.5 41.5t-59.5 107.5t-112 160l-553 688v-792q0 -49 9.5 -87t22 -58.5
t29.5 -34.5t28 -18.5t21 -6.5h-383q13 3 25.5 10t32 26.5t31.5 63t12 105.5z" />
    <glyph glyph-name="Xi" unicode="&#x39e;" horiz-adv-x="1093" 
d="M104 0l-55 328q51 -105 113.5 -144t193.5 -39h381q131 0 193.5 39t113.5 144l-55 -328h-885zM127 1059v305h840v-305q-13 38 -26.5 63t-39.5 50t-68 37t-102 12h-369q-60 0 -102 -12t-67.5 -37t-39 -50t-26.5 -63zM246 553v274q5 -12 16 -23t50 -24.5t96 -13.5h278
q126 0 162 63v-276q-29 68 -158 68h-287q-45 0 -77.5 -8t-48.5 -20.5t-22.5 -21.5t-8.5 -18z" />
    <glyph glyph-name="Omicron" unicode="&#x39f;" horiz-adv-x="1507" 
d="M735 -31q-191 0 -340 91.5t-230 250t-81 355.5q0 205 88.5 372t247.5 263t356 96q191 0 339 -91.5t228 -249.5t80 -356q0 -150 -50 -284t-139 -233t-218.5 -156.5t-280.5 -57.5zM778 131q181 0 299.5 142.5t118.5 375.5q0 257 -128 422.5t-337 165.5q-180 0 -299 -139
t-119 -371q0 -266 129.5 -431t335.5 -165z" />
    <glyph glyph-name="Pi" unicode="&#x3a0;" horiz-adv-x="1427" 
d="M180 209v946q0 175 -98 209h1259q-12 -4 -24 -12t-30 -28.5t-29 -64t-11 -104.5v-946q0 -60 10 -103.5t26 -64t29.5 -30t26.5 -11.5h-415q13 2 26.5 10.5t30.5 29t28 64.5t11 105v1012h-612v-1012q0 -60 10 -103.5t26 -64t29.5 -30t26.5 -11.5h-414q13 2 26 10.5t30 29
t27.5 64.5t10.5 105z" />
    <glyph glyph-name="Rho" unicode="&#x3a1;" horiz-adv-x="1130" 
d="M180 207v944q0 51 -9.5 90.5t-21.5 60.5t-29.5 36t-27 19t-20.5 7h561q104 0 188 -33.5t137.5 -90t82 -129t28.5 -153.5q0 -88 -32 -166t-92 -137.5t-152 -94t-205 -34.5q-108 0 -193 25v-344q0 -60 12 -103.5t30.5 -64t33 -29t27.5 -10.5h-414q12 2 25 10t31 28t29 64
t11 105zM395 1221v-525q71 -22 176 -22q124 0 195.5 77t71.5 197q0 119 -73 196t-202 77h-168z" />
    <glyph glyph-name="Sigma" unicode="&#x3a3;" horiz-adv-x="1136" 
d="M20 0l488 655l-465 709h981v-363q-9 37 -18 62t-29.5 58t-47.5 52.5t-73.5 33.5t-107.5 14h-351l344 -519l-411 -548h436q132 0 198.5 56t122.5 200l-36 -410h-1031z" />
    <glyph glyph-name="Tau" unicode="&#x3a4;" horiz-adv-x="1290" 
d="M532 209v1012h-258q-42 0 -75 -10t-52.5 -23t-38.5 -40.5t-28 -46.5t-25 -57q14 151 27 320h1128l25 -320q-17 45 -31 71t-41 53.5t-69 40t-103 12.5h-233v-1012q0 -61 11 -105.5t29 -64.5t31.5 -28.5t26.5 -10.5h-422q13 2 26 10t31 28t29.5 64t11.5 107z" />
    <glyph glyph-name="Upsilon" unicode="&#x3a5;" horiz-adv-x="1314" 
d="M541 209v360l-326 580q-105 184 -199 215h455q-53 -15 -53 -72q0 -42 53 -137l225 -401l211 372q68 119 68 166q0 57 -53 72h370q-10 -2 -24.5 -11t-39.5 -30t-59.5 -67.5t-70.5 -110.5l-328 -570v-366q0 -61 10.5 -105t27 -64.5t29.5 -29t25 -10.5h-418q12 2 25.5 10
t31 28t29 64.5t11.5 106.5z" />
    <glyph glyph-name="Phi" unicode="&#x3a6;" horiz-adv-x="1486" 
d="M635 164v24q-254 23 -410.5 156t-156.5 326q0 199 157.5 338t409.5 172v20q0 54 -11.5 94t-29 60.5t-32 30t-27.5 12.5h413q-86 -18 -96 -191v-24q254 -22 410.5 -154.5t156.5 -327.5q0 -198 -156 -338.5t-411 -171.5v-26q0 -46 7.5 -82t18 -56t25 -33.5t25 -18.5
t20.5 -7h-409q96 25 96 197zM852 1030v-694q150 21 246 111t96 219q0 136 -92.5 234.5t-249.5 129.5zM635 342v694q-150 -22 -245 -109.5t-95 -213.5q0 -143 92 -241.5t248 -129.5z" />
    <glyph glyph-name="Chi" unicode="&#x3a7;" horiz-adv-x="1366" 
d="M436 0h-413q7 2 17 6.5t33.5 21t49.5 41t65.5 71t81.5 106.5l287 405l-317 490q-125 191 -220 223h476q-40 -16 -50 -44q-4 -12 -4 -26q0 -43 62 -141l194 -301l199 289q78 115 78 157q0 50 -47 66h401q-10 -2 -26 -10.5t-44 -28.5t-68 -63.5t-83 -104.5l-315 -450
l299 -461q38 -60 74.5 -106t62 -71.5t48.5 -41.5t35 -21t19 -6h-479q17 2 35 19t18 53q0 50 -69 157l-183 277l-188 -268q-82 -117 -82 -168q0 -36 17 -52t36 -18z" />
    <glyph glyph-name="Psi" unicode="&#x3a8;" horiz-adv-x="1480" 
d="M633 197v268q-264 12 -394 131t-130 358v203q0 174 -95 207h402q-90 -27 -90 -203v-198q0 -178 77 -259t230 -90v553q0 54 -11.5 94t-29.5 60.5t-32.5 30t-27.5 12.5h412q-13 -4 -25.5 -13t-30 -29.5t-28 -61.5t-10.5 -97v-549q153 9 230 90t77 259v198q0 57 -10 98
t-26.5 62t-28.5 30t-25 13h401q-94 -33 -94 -207v-182q0 -240 -131 -369t-393 -141v-268q0 -102 29.5 -147.5t62.5 -49.5h-401q12 2 25.5 11t29.5 29t26.5 61t10.5 96z" />
    <glyph glyph-name="uni03A9" unicode="&#x3a9;" horiz-adv-x="1665" 
d="M80 0l-31 313q25 -48 46.5 -75.5t46.5 -47.5t64.5 -28.5t85 -12t124.5 -4.5q-120 99 -187 241.5t-67 303.5q0 141 47.5 268.5t134 224.5t218.5 154.5t290 57.5q153 0 277.5 -53.5t205.5 -145.5t124.5 -213.5t43.5 -259.5q0 -171 -69 -327t-197 -251h72q75 0 120 6.5
t79.5 28.5t55 50t50.5 83l-31 -313h-706q46 9 99 43t105.5 93t95.5 132.5t70 170t27 196.5q0 171 -53 306t-161 215.5t-255 80.5q-189 0 -303.5 -142t-114.5 -382q0 -121 27 -232.5t70 -192t96.5 -144t106.5 -99t101 -45.5h-708z" />
    <glyph glyph-name="Iotadieresis" unicode="&#x3aa;" horiz-adv-x="614" 
d="M184 197v964q0 173 -100 203h422q-11 -2 -23.5 -10.5t-30.5 -28.5t-30 -63t-12 -101v-964q0 -58 11 -99.5t29 -60.5t30.5 -27t23.5 -10h-418q12 2 24.5 9.5t31.5 26t30.5 60.5t11.5 101zM385 1593q0 47 31.5 78t83.5 31q51 0 81.5 -31t30.5 -78t-31 -78.5t-81 -31.5
q-51 0 -83 31.5t-32 78.5zM6 1593q0 47 31.5 78t83.5 31q51 0 81.5 -31t30.5 -78t-30.5 -78.5t-81.5 -31.5t-83 31.5t-32 78.5z" />
    <glyph glyph-name="Upsilondieresis" unicode="&#x3ab;" horiz-adv-x="1314" 
d="M541 209v360l-326 580q-105 184 -199 215h455q-53 -15 -53 -72q0 -42 53 -137l225 -401l211 372q68 119 68 166q0 57 -53 72h370q-10 -2 -24.5 -11t-39.5 -30t-59.5 -67.5t-70.5 -110.5l-328 -570v-366q0 -61 10.5 -105t27 -64.5t29.5 -29t25 -10.5h-418q12 2 25.5 10
t31 28t29 64.5t11.5 106.5zM762 1593q0 47 31.5 78t83.5 31q51 0 81.5 -31t30.5 -78t-31 -78.5t-81 -31.5q-51 0 -83 31.5t-32 78.5zM383 1593q0 47 31.5 78t83.5 31q51 0 81.5 -31t30.5 -78t-30.5 -78.5t-81.5 -31.5t-83 31.5t-32 78.5z" />
    <glyph glyph-name="alphatonos" unicode="&#x3ac;" horiz-adv-x="1112" 
d="M1096 94l-189 -131q-55 19 -101.5 79t-68.5 128q-53 -102 -126.5 -150.5t-180.5 -48.5q-64 0 -125 26t-114.5 77.5t-86 141.5t-32.5 206q0 134 37.5 245t98.5 180.5t135 107.5t149 38q108 0 178 -81t92 -220q54 246 151 303l179 -129q-58 -15 -107.5 -90t-81.5 -198
l-29 -109l7 -53q16 -138 73 -230t142 -92zM700 418q-30 234 -69 323q-50 113 -133 113q-89 0 -150 -111t-61 -272t50 -260.5t150 -99.5q70 0 130 84t83 223zM516 1026l-6 358h240z" />
    <glyph glyph-name="epsilontonos" unicode="&#x3ad;" horiz-adv-x="860" 
d="M614 422h-106q-108 0 -170 -37.5t-62 -110.5q0 -69 55 -109t146 -40q102 0 186 38t156 128q-33 -148 -131.5 -235t-251.5 -87q-159 0 -261.5 72.5t-102.5 202.5q0 92 61.5 159.5t175.5 90.5q-80 16 -142.5 72.5t-62.5 144.5q0 90 56.5 155.5t144.5 96t195 30.5
q137 0 243 -45v-250q-32 63 -103.5 111.5t-166.5 48.5q-82 0 -133 -40t-51 -107q0 -74 60.5 -121t185.5 -47h79v-121zM403 1026l-6 358h240z" />
    <glyph glyph-name="etatonos" unicode="&#x3ae;" horiz-adv-x="1079" 
d="M150 0v668q0 79 -16.5 124t-42 59.5t-64.5 14.5l190 131q51 -17 84.5 -63t42.5 -109q45 65 135.5 116.5t184.5 51.5q124 0 200 -79.5t76 -243.5v-850q0 -95 28 -140t60 -51h-293v987q0 110 -41.5 165t-113.5 55q-87 0 -157.5 -69.5t-70.5 -166.5v-600h-202zM494 1026
l-7 358h240z" />
    <glyph glyph-name="iotatonos" unicode="&#x3af;" horiz-adv-x="649" 
d="M168 223v467q0 103 -28.5 139.5t-80.5 36.5h-24l336 133v-712q0 -81 27.5 -120.5t74.5 -39.5q43 0 85 30t71 76q-21 -136 -87.5 -201t-160.5 -65q-98 0 -155.5 69.5t-57.5 186.5zM225 1026l-6 358h240z" />
    <glyph glyph-name="upsilondieresistonos" unicode="&#x3b0;" horiz-adv-x="1060" 
d="M135 348v320q0 79 -16.5 124t-42 59.5t-64.5 14.5l191 131q135 -44 135 -264v-358q0 -264 205 -264q101 0 166 107.5t65 330.5q0 165 -42.5 267t-115.5 102q15 32 59.5 54.5t94.5 22.5q37 0 70.5 -21.5t63 -67t47.5 -130.5t18 -198q0 -135 -26 -242t-69 -174.5t-103 -112
t-123 -62.5t-134 -18q-182 0 -280.5 92t-98.5 287zM645 1257q0 45 30 75t79 30q50 0 79 -29.5t29 -75.5q0 -45 -30 -75.5t-78 -30.5q-49 0 -79 30.5t-30 75.5zM184 1257q0 45 30.5 75t80.5 30q48 0 77 -30t29 -75q0 -46 -29 -76t-77 -30q-50 0 -80.5 30.5t-30.5 75.5z
M485 1182l-16 338h238z" />
    <glyph glyph-name="alpha" unicode="&#x3b1;" horiz-adv-x="1112" 
d="M1096 94l-189 -131q-55 19 -101.5 79t-68.5 128q-53 -102 -126.5 -150.5t-180.5 -48.5q-64 0 -125 26t-114.5 77.5t-86 141.5t-32.5 206q0 134 37.5 245t98.5 180.5t135 107.5t149 38q108 0 178 -81t92 -220q54 246 151 303l179 -129q-58 -15 -107.5 -90t-81.5 -198
l-29 -109l7 -53q16 -138 73 -230t142 -92zM700 418q-30 234 -69 323q-50 113 -133 113q-89 0 -150 -111t-61 -272t50 -260.5t150 -99.5q70 0 130 84t83 223z" />
    <glyph glyph-name="beta" unicode="&#x3b2;" horiz-adv-x="1087" 
d="M150 -180v1114q0 101 24.5 182.5t67.5 136t103.5 91t130 53t149.5 16.5q156 0 257 -86.5t101 -212.5q0 -199 -223 -371q122 -59 188 -149t66 -209q0 -116 -56.5 -211.5t-150 -148t-203.5 -52.5q-81 0 -148 24.5t-104 61.5v-430h-291q32 6 60.5 51t28.5 140zM526 684
l103 92q151 136 151 307q0 84 -54.5 144.5t-139.5 60.5q-106 0 -170 -88t-64 -235v-666q0 -80 65 -134t161 -54t158.5 67t62.5 180q0 47 -15.5 89t-38.5 72.5t-62 62t-72.5 53t-84.5 49.5z" />
    <glyph glyph-name="gamma" unicode="&#x3b3;" horiz-adv-x="1075" 
d="M395 -371v17q0 161 47 354q-113 421 -292 793q-30 63 -70.5 108t-79.5 57h301q75 -139 146 -327.5t110 -349.5q13 29 160 323q63 123 63 221q0 38 -20.5 66.5t-50.5 28.5q-13 0 -21 -2q15 33 54 55t83 22q63 0 105.5 -39t42.5 -106q0 -21 -3 -42.5t-11 -46t-13.5 -41
t-19.5 -46t-20 -41.5t-24 -45.5t-22 -42.5l-127 -248q-62 -120 -88.5 -236t-26.5 -274v-158h-223z" />
    <glyph glyph-name="delta" unicode="&#x3b4;" horiz-adv-x="1021" 
d="M963 1133l-205 -86q12 41 12 77q0 70 -51 115t-139 45q-95 0 -149 -45.5t-54 -105.5q0 -61 47 -121q16 -19 43 -42.5t47 -38.5t68 -48.5t69 -48.5q54 -39 92 -70t78 -73t64 -82.5t39.5 -93t15.5 -109.5q0 -85 -28.5 -163t-82 -140t-139.5 -99t-192 -37q-129 0 -226.5 61
t-145.5 156.5t-48 208.5q0 78 29 148.5t76 120.5t100.5 85t109.5 54q-88 60 -144 139.5t-56 171.5q0 137 108 227.5t309 90.5q58 0 115.5 -16t111.5 -49t88.5 -93t37.5 -139zM535 707l-43 30q-85 -34 -146 -116t-61 -189q0 -140 67.5 -227.5t167.5 -87.5q98 0 153.5 77.5
t55.5 188.5q0 184 -194 324z" />
    <glyph glyph-name="epsilon" unicode="&#x3b5;" horiz-adv-x="860" 
d="M614 422h-106q-108 0 -170 -37.5t-62 -110.5q0 -69 55 -109t146 -40q102 0 186 38t156 128q-33 -148 -131.5 -235t-251.5 -87q-159 0 -261.5 72.5t-102.5 202.5q0 92 61.5 159.5t175.5 90.5q-80 16 -142.5 72.5t-62.5 144.5q0 90 56.5 155.5t144.5 96t195 30.5
q137 0 243 -45v-250q-32 63 -103.5 111.5t-166.5 48.5q-82 0 -133 -40t-51 -107q0 -74 60.5 -121t185.5 -47h79v-121z" />
    <glyph glyph-name="zeta" unicode="&#x3b6;" horiz-adv-x="894" 
d="M244 772l360 475h-301q-52 0 -92 -17t-60 -43t-29.5 -47.5t-12.5 -41.5v301h806l-540 -699q-103 -134 -103 -254q0 -95 47 -157.5t166 -108.5q96 -37 153.5 -64.5t107 -63.5t71 -78.5t21.5 -98.5q0 -81 -73.5 -153t-172.5 -91q78 75 78 158q0 25 -6 45.5t-13.5 36
t-28.5 31.5t-36.5 26.5t-52.5 26.5t-61.5 25.5t-78.5 29.5q-315 119 -315 387q0 54 13 104.5t40.5 101t50.5 84t62 85.5z" />
    <glyph glyph-name="eta" unicode="&#x3b7;" horiz-adv-x="1079" 
d="M150 0v668q0 79 -16.5 124t-42 59.5t-64.5 14.5l190 131q51 -17 84.5 -63t42.5 -109q45 65 135.5 116.5t184.5 51.5q124 0 200 -79.5t76 -243.5v-850q0 -95 28 -140t60 -51h-293v987q0 110 -41.5 165t-113.5 55q-87 0 -157.5 -69.5t-70.5 -166.5v-600h-202z" />
    <glyph glyph-name="theta" unicode="&#x3b8;" horiz-adv-x="1118" 
d="M545 -31q-114 0 -205 59t-147 159t-85.5 223.5t-29.5 259.5q0 151 29 283t86.5 238.5t153 168t218.5 61.5q92 0 170 -39t133 -105.5t93.5 -156t56.5 -190.5t18 -209q0 -120 -17.5 -228.5t-56.5 -205t-95.5 -166.5t-139 -111t-182.5 -41zM825 631h-536q14 -232 88.5 -376
t197.5 -144q76 0 133 75t85.5 191t31.5 254zM285 764h536q-14 231 -88.5 373.5t-197.5 142.5q-78 0 -135.5 -74t-85 -189t-29.5 -253z" />
    <glyph glyph-name="iota" unicode="&#x3b9;" horiz-adv-x="649" 
d="M168 223v467q0 103 -28.5 139.5t-80.5 36.5h-24l336 133v-712q0 -81 27.5 -120.5t74.5 -39.5q43 0 85 30t71 76q-21 -136 -87.5 -201t-160.5 -65q-98 0 -155.5 69.5t-57.5 186.5z" />
    <glyph glyph-name="kappa" unicode="&#x3ba;" horiz-adv-x="1110" 
d="M150 0v690q0 103 -28.5 139.5t-80.5 36.5h-25q67 25 192.5 75.5t143.5 57.5v-583l70 102q34 49 104.5 162.5t106.5 159.5q105 133 223 133q76 0 125 -45t68 -129q-41 32 -111 32q-73 0 -166 -83q-71 -63 -203 -238l277 -313q150 -168 237 -168q17 0 27 2
q-31 -25 -86 -39.5t-115 -14.5q-49 0 -84.5 8t-70.5 31.5t-62.5 49t-75.5 77.5q-29 31 -89 104.5t-81 98.5l-94 -123v-223h-202z" />
    <glyph glyph-name="lambda" unicode="&#x3bb;" horiz-adv-x="1064" 
d="M283 0h-285q77 36 156 215l309 682l-27 70q-55 146 -141.5 231.5t-188.5 85.5l230 146q76 -44 145.5 -163t155.5 -341l283 -727q70 -180 149 -199h-270l-238 643z" />
    <glyph glyph-name="uni03BC" unicode="&#x3bc;" horiz-adv-x="1081" 
d="M150 -180v1138h202v-600q0 -113 44 -172t130 -59q88 0 145.5 73.5t57.5 170.5v587h203v-688q0 -85 31.5 -130.5t85.5 -45.5h14l-197 -131q-46 20 -78.5 64.5t-46.5 103.5q-98 -162 -229 -162q-46 0 -91 26t-69 68v-434h-291q32 6 60.5 51t28.5 140z" />
    <glyph glyph-name="nu" unicode="&#x3bd;" horiz-adv-x="1099" 
d="M467 0l-328 797q-27 62 -64.5 105.5t-76.5 55.5h305l264 -657l162 320q55 112 55 204q0 39 -20.5 67t-50.5 28q-13 0 -21 -2q15 33 54 55t83 22q63 0 105.5 -39.5t42.5 -105.5q0 -43 -16 -95t-32.5 -86t-51.5 -102l-168 -325q-58 -114 -105 -242h-137z" />
    <glyph glyph-name="xi" unicode="&#x3be;" horiz-adv-x="892" 
d="M604 758h144v-133h-150q-150 0 -237 -55.5t-87 -151.5q0 -87 45.5 -139t167.5 -99q78 -30 126 -51t96 -49t73.5 -56t41.5 -65.5t16 -83.5q0 -81 -73.5 -153t-172.5 -91q78 75 78 158q0 22 -3 40t-13.5 34t-19 27.5t-31 25.5t-36.5 22t-50 23t-56.5 23t-69.5 26
q-319 121 -319 377q0 121 80 203t221 112q-117 33 -197 126t-80 221q0 170 117 275.5t305 105.5q159 0 259.5 -82t103.5 -215l-205 -86q12 41 12 75q0 75 -53 118.5t-139 43.5q-95 0 -155 -67.5t-60 -167.5q0 -136 89 -213.5t232 -77.5z" />
    <glyph glyph-name="omicron" unicode="&#x3bf;" horiz-adv-x="1114" 
d="M545 -31q-114 0 -205 41.5t-147 112t-85.5 157.5t-29.5 183q0 79 19.5 155.5t60.5 144.5t97.5 119t136.5 81t173 30q92 0 170 -27.5t133 -74t93.5 -110t56.5 -134.5t18 -147q0 -100 -32 -193.5t-91.5 -169.5t-155 -122t-212.5 -46zM575 111q116 0 181 102t65 244
q0 101 -31 189t-97.5 147t-157.5 59q-80 0 -137 -49.5t-83 -125.5t-26 -167q0 -101 31 -190t97.5 -149t157.5 -60z" />
    <glyph glyph-name="pi" unicode="&#x3c0;" horiz-adv-x="1296" 
d="M283 -37l-179 133q34 6 73 39t76.5 89t62 146.5t24.5 196.5v258q-14 2 -49 2q-101 0 -163.5 -42.5t-94.5 -133.5q-13 47 -13 86q0 101 71.5 166.5t180.5 65.5q121 0 406 -12.5t399 -12.5q108 0 178 31v-152q-75 -20 -196 -20q-55 0 -92 2v-518q0 -82 28 -121t74 -39
q42 0 85 29.5t71 76.5q-21 -136 -87.5 -201t-160.5 -65q-98 0 -155.5 69.5t-57.5 186.5v586l-279 10v-287q0 -228 -46.5 -366.5t-155.5 -202.5z" />
    <glyph glyph-name="rho" unicode="&#x3c1;" horiz-adv-x="1060" 
d="M135 -180v669q0 168 47 273q53 114 153.5 172.5t231.5 58.5q182 0 301 -125.5t119 -361.5q0 -125 -43 -236q-58 -147 -165.5 -222t-235.5 -75q-143 0 -203 74v-418h-293q32 6 60 51t28 140zM340 510v-219q0 -92 48.5 -136t131.5 -44q114 0 183 102.5t69 255.5
q0 179 -62.5 281t-158.5 102q-95 0 -153 -89t-58 -253z" />
    <glyph glyph-name="sigma1" unicode="&#x3c2;" horiz-adv-x="888" 
d="M838 696l-205 -86q12 40 12 72q0 76 -41.5 121t-109.5 45q-101 0 -164.5 -93.5t-63.5 -242.5q0 -124 47.5 -204.5t165.5 -127.5q67 -27 106 -44t85.5 -41t71 -44t47.5 -47.5t32.5 -58.5t9.5 -70q0 -81 -73 -153t-172 -91q78 75 78 158q0 22 -3 40t-13.5 34t-19 27.5
t-31 25.5t-36.5 22t-50 23t-56.5 23t-69.5 26q-152 57 -232.5 168t-80.5 262q0 123 37 227.5t99.5 175.5t146.5 110.5t177 39.5q130 0 216 -81.5t90 -215.5z" />
    <glyph glyph-name="sigma" unicode="&#x3c3;" horiz-adv-x="1161" 
d="M1124 975v-152q-76 -20 -192 -20q-53 0 -82 2q141 -160 141 -346q0 -89 -30.5 -175t-86.5 -157t-147.5 -114.5t-202.5 -43.5t-198.5 40t-140 106t-80 145.5t-27.5 165.5q0 105 31.5 200.5t91 171t155 120.5t213.5 45q55 0 183 -9.5t196 -9.5q105 0 176 31zM696 813
q-82 8 -125 8q-93 0 -158 -50t-94.5 -127.5t-29.5 -172.5q0 -160 70 -260t186 -100q101 0 166 92t65 239q0 116 -20 200.5t-60 170.5z" />
    <glyph glyph-name="tau" unicode="&#x3c4;" horiz-adv-x="905" 
d="M315 223v596q-23 2 -59 2q-79 0 -138.5 -46t-84.5 -124q-13 47 -13 86q0 100 67.5 163t176.5 63q74 0 217 -9.5t209 -9.5q107 0 174 31v-152q-78 -20 -192 -20q-60 0 -154 6v-522q0 -82 32 -121t85 -39q47 0 98.5 30t83.5 76q-22 -135 -95 -200.5t-175 -65.5
q-106 0 -169 69.5t-63 186.5z" />
    <glyph glyph-name="upsilon" unicode="&#x3c5;" horiz-adv-x="1060" 
d="M135 348v320q0 79 -16.5 124t-42 59.5t-64.5 14.5l191 131q135 -44 135 -264v-358q0 -264 205 -264q101 0 166 107.5t65 330.5q0 165 -42.5 267t-115.5 102q15 32 59.5 54.5t94.5 22.5q37 0 70.5 -21.5t63 -67t47.5 -130.5t18 -198q0 -135 -26 -242t-69 -174.5t-103 -112
t-123 -62.5t-134 -18q-182 0 -280.5 92t-98.5 287z" />
    <glyph glyph-name="phi" unicode="&#x3c6;" horiz-adv-x="1374" 
d="M578 -371v346q-81 9 -150 31.5t-134.5 68t-111.5 109t-74 161t-28 218.5q0 104 24 189t62 136.5t83 79t89 27.5q46 0 88 -22.5t57 -54.5q-64 0 -112.5 -53.5t-72.5 -135t-24 -174.5q0 -377 304 -438v436q0 202 93 321t285 119q67 0 125.5 -24t106.5 -71.5t76 -127.5
t28 -184q0 -121 -29.5 -221t-78.5 -167.5t-116.5 -116t-140 -73.5t-153.5 -33v-151q0 -164 88 -195h-284zM774 541v-426q142 27 233 136t91 306q0 146 -46 220.5t-118 74.5q-83 0 -121.5 -85t-38.5 -226z" />
    <glyph glyph-name="chi" unicode="&#x3c7;" horiz-adv-x="1038" 
d="M223 -371h-266q43 10 91.5 62.5t90.5 124.5l271 477l-224 467q-86 180 -166 198h271l254 -538l127 219q71 122 71 203q0 35 -20 56.5t-51 21.5q-13 0 -21 -2q15 33 54 55t83 22q64 0 106 -40t42 -99q0 -49 -29.5 -114.5t-93.5 -168.5l-182 -297l225 -448
q91 -182 166 -199h-289l-235 502z" />
    <glyph glyph-name="psi" unicode="&#x3c8;" horiz-adv-x="1357" 
d="M573 -371v342q-97 5 -179 35t-145 84t-98.5 139t-35.5 193v246q0 79 -16.5 124t-42 59.5t-64.5 14.5l190 131q129 -42 129 -264v-284q0 -145 71 -232t191 -102v1054q0 164 -90 195h287v-1249q137 23 220 131.5t83 308.5q0 143 -44 253t-114 110q20 33 56.5 53t75.5 20
q97 0 159 -105.5t62 -301.5q0 -122 -27.5 -221t-74 -166.5t-111.5 -115.5t-135.5 -73t-149.5 -33v-151q0 -164 88 -195h-285z" />
    <glyph glyph-name="omega" unicode="&#x3c9;" horiz-adv-x="1417" 
d="M608 330v248h197v-234q0 -114 39 -173.5t114 -59.5q84 0 133.5 106t49.5 332q0 163 -50 266t-139 103q15 31 59 54t85 23q105 0 172 -98.5t67 -318.5q0 -135 -22.5 -242t-59.5 -174.5t-88.5 -112t-105.5 -62.5t-115 -18q-77 0 -143 47t-99 123q-37 -77 -103.5 -123.5
t-143.5 -46.5q-62 0 -115 17.5t-102 59t-83 106t-54.5 165t-20.5 228.5q0 202 76.5 326t183.5 124q43 0 85.5 -22.5t57.5 -54.5q-91 0 -150 -105.5t-59 -263.5q0 -220 50.5 -329t136.5 -109q147 0 147 219z" />
    <glyph glyph-name="iotadieresis" unicode="&#x3ca;" horiz-adv-x="649" 
d="M168 223v467q0 103 -28.5 139.5t-80.5 36.5h-24l336 133v-712q0 -81 27.5 -120.5t74.5 -39.5q43 0 85 30t71 76q-21 -136 -87.5 -201t-160.5 -65q-98 0 -155.5 69.5t-57.5 186.5zM348 1262q0 47 31.5 77.5t83.5 30.5q51 0 81.5 -30.5t30.5 -77.5t-31 -79t-81 -32
q-51 0 -83 32t-32 79zM-31 1262q0 47 31.5 77.5t83.5 30.5q51 0 82 -30.5t31 -77.5t-31 -79t-82 -32t-83 32t-32 79z" />
    <glyph glyph-name="upsilondieresis" unicode="&#x3cb;" horiz-adv-x="1060" 
d="M135 348v320q0 79 -16.5 124t-42 59.5t-64.5 14.5l191 131q135 -44 135 -264v-358q0 -264 205 -264q101 0 166 107.5t65 330.5q0 165 -42.5 267t-115.5 102q15 32 59.5 54.5t94.5 22.5q37 0 70.5 -21.5t63 -67t47.5 -130.5t18 -198q0 -135 -26 -242t-69 -174.5t-103 -112
t-123 -62.5t-134 -18q-182 0 -280.5 92t-98.5 287zM608 1262q0 47 31.5 77.5t83.5 30.5q51 0 82 -30.5t31 -77.5t-31.5 -79t-81.5 -32q-51 0 -83 32t-32 79zM229 1262q0 47 31.5 77.5t83.5 30.5q51 0 82 -30.5t31 -77.5t-31 -79t-82 -32t-83 32t-32 79z" />
    <glyph glyph-name="omicrontonos" unicode="&#x3cc;" horiz-adv-x="1114" 
d="M545 -31q-114 0 -205 41.5t-147 112t-85.5 157.5t-29.5 183q0 79 19.5 155.5t60.5 144.5t97.5 119t136.5 81t173 30q92 0 170 -27.5t133 -74t93.5 -110t56.5 -134.5t18 -147q0 -100 -32 -193.5t-91.5 -169.5t-155 -122t-212.5 -46zM575 111q116 0 181 102t65 244
q0 101 -31 189t-97.5 147t-157.5 59q-80 0 -137 -49.5t-83 -125.5t-26 -167q0 -101 31 -190t97.5 -149t157.5 -60zM516 1026l-6 358h240z" />
    <glyph glyph-name="upsilontonos" unicode="&#x3cd;" horiz-adv-x="1060" 
d="M135 348v320q0 79 -16.5 124t-42 59.5t-64.5 14.5l191 131q135 -44 135 -264v-358q0 -264 205 -264q101 0 166 107.5t65 330.5q0 165 -42.5 267t-115.5 102q15 32 59.5 54.5t94.5 22.5q37 0 70.5 -21.5t63 -67t47.5 -130.5t18 -198q0 -135 -26 -242t-69 -174.5t-103 -112
t-123 -62.5t-134 -18q-182 0 -280.5 92t-98.5 287zM479 1026l-6 358h240z" />
    <glyph glyph-name="omegatonos" unicode="&#x3ce;" horiz-adv-x="1417" 
d="M608 330v248h197v-234q0 -114 39 -173.5t114 -59.5q84 0 133.5 106t49.5 332q0 163 -50 266t-139 103q15 31 59 54t85 23q105 0 172 -98.5t67 -318.5q0 -135 -22.5 -242t-59.5 -174.5t-88.5 -112t-105.5 -62.5t-115 -18q-77 0 -143 47t-99 123q-37 -77 -103.5 -123.5
t-143.5 -46.5q-62 0 -115 17.5t-102 59t-83 106t-54.5 165t-20.5 228.5q0 202 76.5 326t183.5 124q43 0 85.5 -22.5t57.5 -54.5q-91 0 -150 -105.5t-59 -263.5q0 -220 50.5 -329t136.5 -109q147 0 147 219zM678 1026l-6 358h239z" />
    <glyph glyph-name="uni0400" unicode="&#x400;" horiz-adv-x="1067" 
d="M186 219v934q0 50 -9.5 89.5t-22 60.5t-30.5 35.5t-27.5 18.5t-20.5 7h854v-305q-13 38 -26.5 63t-39.5 50t-68 37t-102 12h-280v-455h235q134 0 162 65v-278q-23 68 -158 68h-239v-476h297q131 0 193.5 39t113.5 144l-55 -328h-873q9 2 18 6t24 19t26 37t19.5 63t8.5 94
zM319 1747h279l121 -313z" />
    <glyph glyph-name="afii10023" unicode="&#x401;" horiz-adv-x="1073" 
d="M186 219v934q0 50 -9.5 89.5t-22 60.5t-30.5 35.5t-27.5 18.5t-20.5 7h854v-305q-13 38 -26.5 63t-39.5 50t-68 37t-102 12h-280v-455h235q134 0 162 65v-278q-23 68 -158 68h-239v-476h297q131 0 193.5 39t113.5 144l-55 -328h-873q9 2 18 6t24 19t26 37t19.5 63t8.5 94
zM635 1593q0 47 31.5 78t83.5 31q51 0 81.5 -31t30.5 -78t-31 -78.5t-81 -31.5q-51 0 -83 31.5t-32 78.5zM256 1593q0 47 31.5 78t83.5 31q51 0 81.5 -31t30.5 -78t-30.5 -78.5t-81.5 -31.5t-83 31.5t-32 78.5z" />
    <glyph glyph-name="afii10051" unicode="&#x402;" horiz-adv-x="1619" 
d="M532 209v1012h-258q-42 0 -75 -10t-52.5 -23t-38.5 -40.5t-28 -46.5t-25 -57q14 151 27 320h1159l25 -320q-17 45 -31 71t-41 53.5t-69 40t-103 12.5h-264v-430q145 71 311 71q219 0 346 -121t127 -327q0 -216 -124.5 -345.5t-309.5 -129.5q199 145 199 446
q0 77 -23.5 139.5t-63.5 101t-90.5 59t-105.5 20.5q-140 0 -266 -68v-428q0 -59 10 -102.5t26.5 -64.5t30.5 -30.5t27 -11.5h-414q13 2 26.5 11t30 29.5t27 64.5t10.5 104z" />
    <glyph glyph-name="afii10052" unicode="&#x403;" horiz-adv-x="980" 
d="M180 211v944q0 179 -114 209h860v-303q-10 25 -17 40t-26.5 41t-43 40.5t-65 26.5t-94.5 12h-272v-1016q0 -49 8 -87t18.5 -58.5t25 -34.5t24.5 -18.5t20 -6.5h-424q13 2 26 10t32 28.5t30.5 65t11.5 107.5zM446 1434l117 313h279z" />
    <glyph glyph-name="afii10053" unicode="&#x404;" horiz-adv-x="1310" 
d="M326 766h426q125 0 161 63v-276q-29 68 -157 68h-430q11 -96 46.5 -181t93 -154.5t144 -110t191.5 -40.5q109 0 220 57.5t187 153.5v-184q-74 -87 -191.5 -140t-250.5 -53t-245.5 38t-191.5 103t-134.5 152.5t-82 186.5t-26.5 204q0 111 29 218t90 202.5t146 167.5
t206 114t262 42q98 0 196 -23.5t165 -60.5v-361q-47 140 -148.5 213.5t-240.5 73.5q-101 0 -185.5 -39t-141.5 -105.5t-92 -150.5t-46 -178z" />
    <glyph glyph-name="afii10054" unicode="&#x405;" horiz-adv-x="1064" 
d="M100 74v342q64 -156 164.5 -223.5t233.5 -67.5q103 0 177.5 50.5t74.5 137.5q0 30 -9 58t-21 49.5t-36.5 44.5t-43 38t-55 36t-57.5 31.5t-64.5 32.5t-62.5 32q-66 34 -111 64t-91 74.5t-69.5 102t-23.5 128.5q0 183 129 286t328 103q90 0 178.5 -26.5t141.5 -66.5v-284
q-18 35 -46 70.5t-69.5 72t-101 59.5t-125.5 23q-106 0 -168 -52.5t-62 -131.5q0 -31 9 -58.5t31 -52t42 -42t58.5 -39.5t62.5 -34.5t72 -35.5t79 -38.5t75.5 -41.5t72.5 -49t60.5 -57t50.5 -69t30.5 -81t12.5 -97q0 -182 -132.5 -287.5t-353.5 -105.5q-106 0 -207.5 28.5
t-173.5 76.5z" />
    <glyph glyph-name="afii10055" unicode="&#x406;" horiz-adv-x="593" 
d="M184 197v964q0 173 -100 203h422q-11 -2 -23.5 -10.5t-30.5 -28.5t-30 -63t-12 -101v-964q0 -58 11 -99.5t29 -60.5t30.5 -27t23.5 -10h-418q12 2 24.5 9.5t31.5 26t30.5 60.5t11.5 101z" />
    <glyph glyph-name="afii10056" unicode="&#x407;" horiz-adv-x="614" 
d="M184 197v964q0 173 -100 203h422q-11 -2 -23.5 -10.5t-30.5 -28.5t-30 -63t-12 -101v-964q0 -58 11 -99.5t29 -60.5t30.5 -27t23.5 -10h-418q12 2 24.5 9.5t31.5 26t30.5 60.5t11.5 101zM385 1593q0 47 31.5 78t83.5 31q51 0 81.5 -31t30.5 -78t-31 -78.5t-81 -31.5
q-51 0 -83 31.5t-32 78.5zM6 1593q0 47 31.5 78t83.5 31q51 0 81.5 -31t30.5 -78t-30.5 -78.5t-81.5 -31.5t-83 31.5t-32 78.5z" />
    <glyph glyph-name="afii10057" unicode="&#x408;" horiz-adv-x="628" 
d="M221 311v850q0 59 -12 101.5t-31 62.5t-33.5 28.5t-27.5 10.5h426q-8 -2 -17 -6t-24.5 -18t-27 -34.5t-20 -59t-8.5 -87.5v-870q0 -221 -78 -325.5t-233 -104.5q-126 0 -211 88q37 -13 76 -13q221 0 221 377z" />
    <glyph glyph-name="afii10058" unicode="&#x409;" horiz-adv-x="1900" 
d="M403 0h-374q11 2 26 12t38.5 34t52.5 76.5t57 125.5l434 1116h176l211 -559h328q123 0 215 -27.5t147 -78.5t82 -117t27 -148q0 -85 -31.5 -162.5t-89.5 -138.5t-149.5 -97t-202.5 -36h-377q23 2 45 22.5t22 65.5q0 23 -32 117l-320 870l-328 -864q-28 -76 -28 -113
q0 -49 22.5 -71.5t48.5 -26.5zM1280 143h41q127 0 198.5 78t71.5 193t-68.5 180t-209.5 65h-234l156 -415q20 -59 45 -101z" />
    <glyph glyph-name="afii10059" unicode="&#x40a;" horiz-adv-x="1986" 
d="M180 209v946q0 175 -98 209h407q-12 -4 -24 -12t-30 -28.5t-29 -64t-11 -104.5v-389h635v389q0 59 -11 102.5t-28.5 64.5t-31 30t-27.5 12h407q-12 -4 -24 -12t-30 -28.5t-29 -64t-11 -104.5v-350h187q241 0 359 -101t118 -270q0 -184 -129 -309t-344 -125h-502
q13 2 26.5 10.5t30.5 29t28 64.5t11 105v412h-635v-412q0 -60 10 -103.5t26 -64t29.5 -30t26.5 -11.5h-401q13 2 26 10.5t30 29t27.5 64.5t10.5 105zM1245 143h162q127 0 198.5 78t71.5 193q0 114 -71 179.5t-213 65.5h-148v-516z" />
    <glyph glyph-name="afii10060" unicode="&#x40b;" horiz-adv-x="1646" 
d="M532 209v1012h-258q-42 0 -75 -10t-52.5 -23t-38.5 -40.5t-28 -46.5t-25 -57q14 151 27 320h1159l25 -320q-17 45 -31 71t-41 53.5t-69 40t-103 12.5h-264v-430q145 71 301 71q226 0 332 -111t106 -341v-203q0 -59 11 -102.5t28 -64t30 -29.5t25 -11h-413q12 2 25 10.5
t29.5 28.5t27 62.5t10.5 101.5v198q0 158 -68 231t-190 73q-128 0 -254 -68v-428q0 -60 10.5 -104t27.5 -64.5t31 -29.5t27 -11h-418q10 2 20 6.5t24.5 18.5t25 35.5t18.5 60t8 88.5z" />
    <glyph glyph-name="afii10061" unicode="&#x40c;" horiz-adv-x="1363" 
d="M180 207v948q0 179 -100 209h422q-8 -2 -17 -6t-23.5 -18.5t-25.5 -35t-19.5 -60t-8.5 -89.5v-418l380 412q103 111 103 168q0 12 -4 21t-13.5 14.5t-13 7t-12.5 4.5h446q-14 -2 -35.5 -11t-60 -31t-94 -68.5t-115.5 -110.5l-366 -389l432 -529q57 -69 104.5 -116
t80.5 -68t50.5 -28.5t35.5 -11.5q4 -1 5 -1h-387l-536 668v-461q0 -60 10.5 -103.5t27 -64t29.5 -29t25 -10.5h-418q9 2 18 5.5t24.5 17.5t27 34.5t20 59.5t8.5 90zM567 1434l117 313h279z" />
    <glyph glyph-name="uni040D" unicode="&#x40d;" horiz-adv-x="1468" 
d="M180 209v946q0 179 -100 209h422q-8 -2 -17 -6t-24 -18.5t-26.5 -35t-20 -60t-8.5 -89.5v-770l657 832q0 41 -11.5 71.5t-29.5 45t-32 21.5t-27 9h421q-8 -2 -17 -6t-24 -18.5t-26.5 -35t-20 -60t-8.5 -89.5v-946q0 -61 10.5 -105t27.5 -64.5t30 -29t26 -10.5h-417
q13 2 26 10t31 28t29.5 64.5t11.5 106.5v770l-657 -832q0 -40 10.5 -70.5t27.5 -45.5t30.5 -22t25.5 -9h-416q12 2 25 10t31 28t29 64.5t11 106.5zM432 1747h279l120 -313z" />
    <glyph glyph-name="afii10062" unicode="&#x40e;" horiz-adv-x="1423" 
d="M176 0l2 233q70 -108 184 -108q137 0 254 209l11 18l-410 783q-33 64 -64.5 110.5t-55 70t-37.5 34t-25 14.5h452q-65 -16 -65 -86q0 -51 35 -115l301 -581l307 592q25 51 25 96q0 71 -78 94h393q-11 -4 -30 -21t-60 -73.5t-86 -141.5l-438 -829q-59 -111 -116 -180.5
t-134.5 -109.5t-173.5 -40q-118 0 -191 31zM428 1696l156 41q13 -90 58 -131t112 -41q59 0 99.5 42t53.5 130l154 -41q-19 -103 -102.5 -165.5t-215.5 -62.5q-131 0 -213.5 62.5t-101.5 165.5z" />
    <glyph glyph-name="afii10145" unicode="&#x40f;" horiz-adv-x="1427" 
d="M180 209v946q0 59 -10.5 102.5t-27 64.5t-29 30t-25.5 12h414q-94 -28 -94 -209v-1010h612v1010q0 59 -10.5 102.5t-27 64.5t-29 30t-25.5 12h411q-92 -27 -92 -209v-946q0 -59 11 -102.5t28.5 -64.5t30.5 -30t26 -12h-350q-45 0 -83.5 -16t-65 -44.5t-46.5 -59.5
t-34.5 -71.5t-22.5 -68.5t-16 -61q-1 -6 -2 -9h-18q-7 30 -11 44.5t-14.5 49.5t-21.5 56l-27.5 52.5t-37 51t-46 39t-58.5 28.5t-71 9h-330q12 2 25.5 12t29.5 31t26.5 64.5t10.5 101.5z" />
    <glyph glyph-name="afii10017" unicode="&#x410;" horiz-adv-x="1470" 
d="M410 0h-381q8 2 18 6.5t29 21.5t37.5 42t43.5 71.5t48 106.5l434 1116h176l442 -1120q23 -59 48 -104.5t45 -70t40 -41t31 -21.5t19 -7h-457q13 1 27 7.5t28.5 27.5t14.5 53q0 33 -33 117l-62 162h-538l-58 -156q-28 -76 -28 -113q0 -27 8.5 -47.5t22 -30.5t24.5 -14.5
t21 -5.5zM471 504h434l-219 567z" />
    <glyph glyph-name="afii10018" unicode="&#x411;" horiz-adv-x="1185" 
d="M180 213v944q0 58 -12 100.5t-31.5 63.5t-33.5 30t-29 13h952v-303q-10 25 -17 40t-26.5 41t-43 40.5t-65 26.5t-94.5 12h-385v-402h236q122 0 215.5 -30t149.5 -83t84 -121t28 -149q0 -188 -128.5 -312t-344.5 -124h-574q11 2 23 7t30 20t32 37t24 61t10 88zM395 143
h211q128 0 199.5 77t71.5 196q0 115 -72.5 186.5t-212.5 71.5h-197v-531z" />
    <glyph glyph-name="afii10019" unicode="&#x412;" horiz-adv-x="1196" 
d="M190 219v932q0 51 -9.5 90.5t-21.5 60.5t-29.5 36t-27 19t-20.5 7h594q94 0 168 -28t118.5 -75t67.5 -104.5t23 -120.5q0 -113 -68 -204t-178 -115q143 -20 227 -121t84 -234q0 -69 -25.5 -133t-73.5 -115.5t-125.5 -82.5t-172.5 -31h-627q9 2 18 6t24 19t26 37t19.5 63
t8.5 94zM416 145h219q131 0 188.5 65.5t57.5 164.5q0 116 -70 187t-195 71h-200v-488zM416 776h190q96 0 152.5 64.5t56.5 171.5q0 91 -60.5 150t-158.5 59h-180v-445z" />
    <glyph glyph-name="afii10020" unicode="&#x413;" horiz-adv-x="980" 
d="M180 211v944q0 179 -114 209h860v-303q-10 25 -17 40t-26.5 41t-43 40.5t-65 26.5t-94.5 12h-272v-1016q0 -49 8 -87t18.5 -58.5t25 -34.5t24.5 -18.5t20 -6.5h-424q13 2 26 10t32 28.5t30.5 65t11.5 107.5z" />
    <glyph glyph-name="afii10021" unicode="&#x414;" horiz-adv-x="1470" 
d="M61 -330v484h54q36 0 49 10.5t22 34.5l453 1165h176l459 -1163q9 -25 23 -36t49 -11h61v-484h-18q-10 37 -24.5 74t-44 85.5t-65.5 84.5t-92.5 61t-122.5 25h-612q-65 0 -121.5 -25t-93 -61.5t-66 -84t-44 -85.5t-23.5 -74h-19zM340 154h700l-354 917z" />
    <glyph glyph-name="afii10022" unicode="&#x415;" horiz-adv-x="1067" 
d="M186 219v934q0 50 -9.5 89.5t-22 60.5t-30.5 35.5t-27.5 18.5t-20.5 7h854v-305q-13 38 -26.5 63t-39.5 50t-68 37t-102 12h-280v-455h235q134 0 162 65v-278q-23 68 -158 68h-239v-476h297q131 0 193.5 39t113.5 144l-55 -328h-873q9 2 18 6t24 19t26 37t19.5 63t8.5 94
z" />
    <glyph glyph-name="afii10024" unicode="&#x416;" horiz-adv-x="2007" 
d="M389 0h-364q118 33 266 223l403 512l-350 408q-71 81 -136 134t-95 67.5t-50 19.5h420q-39 -13 -39 -49q0 -53 97 -166l356 -416v422q0 171 -94 209h393q-8 -3 -16 -7.5t-21.5 -19t-23.5 -35.5t-17.5 -59.5t-7.5 -87.5v-422l356 416q97 113 97 168q0 35 -41 47h422
q-21 -4 -51.5 -19t-96 -68t-137.5 -134l-346 -395l403 -525q54 -69 100 -116t82 -68.5t49.5 -27t34.5 -11.5h-368l-504 668v-461q0 -59 9 -102t24 -64t27 -30t24 -11h-389q11 2 23.5 10t29.5 28t28 64t11 105v459z" />
    <glyph glyph-name="afii10025" unicode="&#x417;" horiz-adv-x="1069" 
d="M86 74v342q53 -136 156.5 -216.5t257.5 -80.5q118 0 192 64.5t74 170.5q0 129 -128 198t-335 69v145h139q139 0 221 69t82 181q0 98 -64.5 160.5t-170.5 62.5q-70 0 -128.5 -19.5t-96 -46.5t-70 -69.5t-48.5 -74t-34 -73.5v359q181 82 408 82q109 0 202 -37.5t154 -116.5
t61 -186q0 -135 -79 -227.5t-207 -127.5q141 -28 226 -114.5t85 -210.5q0 -82 -30.5 -154.5t-89 -129.5t-152 -90.5t-211.5 -33.5q-247 0 -414 105z" />
    <glyph glyph-name="afii10026" unicode="&#x418;" horiz-adv-x="1468" 
d="M180 209v946q0 179 -100 209h422q-8 -2 -17 -6t-24 -18.5t-26.5 -35t-20 -60t-8.5 -89.5v-770l657 832q0 41 -11.5 71.5t-29.5 45t-32 21.5t-27 9h421q-8 -2 -17 -6t-24 -18.5t-26.5 -35t-20 -60t-8.5 -89.5v-946q0 -61 10.5 -105t27.5 -64.5t30 -29t26 -10.5h-417
q13 2 26 10t31 28t29.5 64.5t11.5 106.5v770l-657 -832q0 -40 10.5 -70.5t27.5 -45.5t30.5 -22t25.5 -9h-416q12 2 25 10t31 28t29 64.5t11 106.5z" />
    <glyph glyph-name="afii10027" unicode="&#x419;" horiz-adv-x="1468" 
d="M180 209v946q0 179 -100 209h422q-8 -2 -17 -6t-24 -18.5t-26.5 -35t-20 -60t-8.5 -89.5v-770l657 832q0 41 -11.5 71.5t-29.5 45t-32 21.5t-27 9h421q-8 -2 -17 -6t-24 -18.5t-26.5 -35t-20 -60t-8.5 -89.5v-946q0 -61 10.5 -105t27.5 -64.5t30 -29t26 -10.5h-417
q13 2 26 10t31 28t29.5 64.5t11.5 106.5v770l-657 -832q0 -40 10.5 -70.5t27.5 -45.5t30.5 -22t25.5 -9h-416q12 2 25 10t31 28t29 64.5t11 106.5zM416 1696l155 41q13 -90 58 -131t112 -41q59 0 100 42t54 130l154 -41q-19 -103 -102.5 -165.5t-215.5 -62.5
q-131 0 -213.5 62.5t-101.5 165.5z" />
    <glyph glyph-name="afii10028" unicode="&#x41a;" horiz-adv-x="1363" 
d="M180 207v948q0 179 -100 209h422q-8 -2 -17 -6t-23.5 -18.5t-25.5 -35t-19.5 -60t-8.5 -89.5v-418l380 412q103 111 103 168q0 12 -4 21t-13.5 14.5t-13 7t-12.5 4.5h446q-14 -2 -35.5 -11t-60 -31t-94 -68.5t-115.5 -110.5l-366 -389l432 -529q57 -69 104.5 -116
t80.5 -68t50.5 -28.5t35.5 -11.5q4 -1 5 -1h-387l-536 668v-461q0 -60 10.5 -103.5t27 -64t29.5 -29t25 -10.5h-418q9 2 18 5.5t24.5 17.5t27 34.5t20 59.5t8.5 90z" />
    <glyph glyph-name="afii10029" unicode="&#x41b;" horiz-adv-x="1470" 
d="M410 0h-381q8 2 18 6.5t29 21.5t37.5 42t43.5 71.5t48 106.5l434 1116h176l442 -1120q23 -59 48.5 -104.5t45.5 -70t39.5 -41t30.5 -21.5t19 -7h-457q13 1 27 7.5t28.5 27.5t14.5 53q0 33 -33 117l-334 866l-324 -860q-28 -76 -28 -113q0 -27 8.5 -47.5t22 -30.5
t24.5 -14.5t21 -5.5z" />
    <glyph glyph-name="afii10030" unicode="&#x41c;" horiz-adv-x="1726" 
d="M199 223v942q0 173 -115 199h393l404 -942l401 942h356q-9 -2 -18.5 -6t-24.5 -18t-26.5 -34.5t-20 -59t-8.5 -87.5v-948q0 -50 8.5 -89.5t20 -61t26.5 -35.5t24.5 -18.5t18.5 -6.5h-405q8 2 17 6t23 18.5t24.5 35.5t18 60.5t7.5 90.5v868l-479 -1108l-484 1104v-852
q0 -65 13.5 -112t34.5 -69t36.5 -31t28.5 -11h-389q10 2 21.5 6.5t29.5 19.5t31 37.5t23 64t10 95.5z" />
    <glyph glyph-name="afii10031" unicode="&#x41d;" horiz-adv-x="1468" 
d="M180 209v946q0 179 -100 209h424q-8 -2 -17 -6t-24 -18.5t-26.5 -35t-20 -60t-8.5 -89.5v-389h653v389q0 61 -11.5 105t-29.5 64.5t-32 29t-27 10.5h423q-8 -2 -17 -6t-24 -18.5t-26.5 -35t-20 -60t-8.5 -89.5v-946q0 -61 10.5 -105t27.5 -64.5t30 -29t26 -10.5h-419
q13 2 26 10t31 28t29.5 64.5t11.5 106.5v412h-653v-412q0 -61 10.5 -105t27.5 -64.5t30 -29t26 -10.5h-418q12 2 25 10t31 28t29 64.5t11 106.5z" />
    <glyph glyph-name="afii10032" unicode="&#x41e;" horiz-adv-x="1507" 
d="M735 -31q-191 0 -340 91.5t-230 250t-81 355.5q0 205 88.5 372t247.5 263t356 96q191 0 339 -91.5t228 -249.5t80 -356q0 -150 -50 -284t-139 -233t-218.5 -156.5t-280.5 -57.5zM778 131q181 0 299.5 142.5t118.5 375.5q0 257 -128 422.5t-337 165.5q-180 0 -299 -139
t-119 -371q0 -266 129.5 -431t335.5 -165z" />
    <glyph glyph-name="afii10033" unicode="&#x41f;" horiz-adv-x="1427" 
d="M180 209v946q0 175 -98 209h1259q-12 -4 -24 -12t-30 -28.5t-29 -64t-11 -104.5v-946q0 -60 10 -103.5t26 -64t29.5 -30t26.5 -11.5h-415q13 2 26.5 10.5t30.5 29t28 64.5t11 105v1012h-612v-1012q0 -60 10 -103.5t26 -64t29.5 -30t26.5 -11.5h-414q13 2 26 10.5t30 29
t27.5 64.5t10.5 105z" />
    <glyph glyph-name="afii10034" unicode="&#x420;" horiz-adv-x="1130" 
d="M180 207v944q0 51 -9.5 90.5t-21.5 60.5t-29.5 36t-27 19t-20.5 7h561q104 0 188 -33.5t137.5 -90t82 -129t28.5 -153.5q0 -88 -32 -166t-92 -137.5t-152 -94t-205 -34.5q-108 0 -193 25v-344q0 -60 12 -103.5t30.5 -64t33 -29t27.5 -10.5h-414q12 2 25 10t31 28t29 64
t11 105zM395 1221v-525q71 -22 176 -22q124 0 195.5 77t71.5 197q0 119 -73 196t-202 77h-168z" />
    <glyph glyph-name="afii10035" unicode="&#x421;" horiz-adv-x="1310" 
d="M1208 346v-184q-74 -87 -191.5 -140t-250.5 -53t-245.5 38t-191.5 103t-134.5 152.5t-82 186.5t-26.5 204q0 111 29 218t90 202.5t146 167.5t206 114t262 42q98 0 196 -23.5t165 -60.5v-361q-47 140 -148.5 213.5t-240.5 73.5q-111 0 -201 -46.5t-146 -124.5t-86 -174.5
t-30 -201.5q0 -106 30.5 -204t87.5 -177.5t149 -127.5t206 -48q109 0 220 57.5t187 153.5z" />
    <glyph glyph-name="afii10036" unicode="&#x422;" horiz-adv-x="1290" 
d="M532 209v1012h-258q-42 0 -75 -10t-52.5 -23t-38.5 -40.5t-28 -46.5t-25 -57q14 151 27 320h1128l25 -320q-17 45 -31 71t-41 53.5t-69 40t-103 12.5h-233v-1012q0 -61 11 -105.5t29 -64.5t31.5 -28.5t26.5 -10.5h-422q13 2 26 10t31 28t29.5 64t11.5 107z" />
    <glyph glyph-name="afii10037" unicode="&#x423;" horiz-adv-x="1423" 
d="M176 0l2 233q70 -108 184 -108q137 0 254 209l11 18l-410 783q-33 64 -64.5 110.5t-55 70t-37.5 34t-25 14.5h452q-65 -16 -65 -86q0 -51 35 -115l301 -581l307 592q25 51 25 96q0 71 -78 94h393q-11 -4 -30 -21t-60 -73.5t-86 -141.5l-438 -829q-59 -111 -116 -180.5
t-134.5 -109.5t-173.5 -40q-118 0 -191 31z" />
    <glyph glyph-name="afii10038" unicode="&#x424;" horiz-adv-x="1486" 
d="M635 164v24q-254 23 -410.5 156t-156.5 326q0 199 157.5 338t409.5 172v20q0 54 -11.5 94t-29 60.5t-32 30t-27.5 12.5h413q-86 -18 -96 -191v-24q254 -22 410.5 -154.5t156.5 -327.5q0 -198 -156 -338.5t-411 -171.5v-26q0 -46 7.5 -82t18 -56t25 -33.5t25 -18.5
t20.5 -7h-409q96 25 96 197zM852 1030v-694q150 21 246 111t96 219q0 136 -92.5 234.5t-249.5 129.5zM635 342v694q-150 -22 -245 -109.5t-95 -213.5q0 -143 92 -241.5t248 -129.5z" />
    <glyph glyph-name="afii10039" unicode="&#x425;" horiz-adv-x="1366" 
d="M436 0h-413q7 2 17 6.5t33.5 21t49.5 41t65.5 71t81.5 106.5l287 405l-317 490q-125 191 -220 223h476q-40 -16 -50 -44q-4 -12 -4 -26q0 -43 62 -141l194 -301l199 289q78 115 78 157q0 50 -47 66h401q-10 -2 -26 -10.5t-44 -28.5t-68 -63.5t-83 -104.5l-315 -450
l299 -461q38 -60 74.5 -106t62 -71.5t48.5 -41.5t35 -21t19 -6h-479q17 2 35 19t18 53q0 50 -69 157l-183 277l-188 -268q-82 -117 -82 -168q0 -36 17 -52t36 -18z" />
    <glyph glyph-name="afii10040" unicode="&#x426;" horiz-adv-x="1447" 
d="M180 209v946q0 59 -10.5 102.5t-27 64.5t-29 30t-25.5 12h414q-94 -28 -94 -209v-1010h612v1010q0 59 -10.5 102.5t-27 64.5t-29 30t-25.5 12h411q-92 -27 -92 -209v-934q0 -43 17 -59.5t61 -16.5h61v-475h-18q-10 37 -24.5 75t-44 86t-66 83.5t-92.5 60.5t-121 25h-932
q12 2 25.5 12t29.5 31t26.5 64.5t10.5 101.5z" />
    <glyph glyph-name="afii10041" unicode="&#x427;" horiz-adv-x="1290" 
d="M885 197v376q-145 -71 -301 -71q-226 0 -332.5 111t-106.5 341v203q0 58 -10 100.5t-27 63.5t-29.5 30t-25.5 13h410q-90 -29 -90 -203v-198q0 -158 68 -231t190 -73q128 0 254 68v434q0 169 -99 203h418q-12 -3 -24 -12t-30 -29.5t-29 -62.5t-11 -99v-964
q0 -57 10.5 -98t27.5 -60.5t29.5 -28t24.5 -10.5h-414q12 2 25.5 10t31 27t29 60.5t11.5 99.5z" />
    <glyph glyph-name="afii10042" unicode="&#x428;" horiz-adv-x="1980" 
d="M180 209v946q0 59 -10.5 102.5t-27 64.5t-29 30t-25.5 12h414q-94 -28 -94 -209v-1010h469v1010q0 59 -10.5 102.5t-27 64.5t-29.5 30t-26 12h412q-92 -27 -92 -209v-1010h469v1010q0 59 -10.5 102.5t-27 64.5t-29 30t-25.5 12h411q-92 -27 -92 -209v-946
q0 -59 11 -102.5t28.5 -64.5t30.5 -30t26 -12h-1808q12 2 25.5 12t29.5 31t26.5 64.5t10.5 101.5z" />
    <glyph glyph-name="afii10043" unicode="&#x429;" horiz-adv-x="2000" 
d="M180 209v946q0 59 -10.5 102.5t-27 64.5t-29 30t-25.5 12h414q-94 -28 -94 -209v-1010h469v1010q0 59 -10.5 102.5t-27 64.5t-29.5 30t-26 12h412q-92 -27 -92 -209v-1010h469v1010q0 59 -10.5 102.5t-27 64.5t-29 30t-25.5 12h411q-92 -27 -92 -209v-934q0 -43 17 -59.5
t61 -16.5h61v-475h-18q-10 37 -24.5 75t-44 86t-66 83.5t-92.5 60.5t-121 25h-1483q12 3 25 13.5t29 32t26 64t10 99.5z" />
    <glyph glyph-name="afii10044" unicode="&#x42a;" horiz-adv-x="1488" 
d="M532 213v1008h-258q-42 0 -75 -10t-52.5 -23t-38.5 -40.5t-28 -46.5t-25 -57q14 151 27 320h766q-14 -3 -28 -12.5t-31.5 -30.5t-29 -63.5t-11.5 -100.5v-317h186q239 0 358 -112.5t119 -291.5q0 -188 -128.5 -312t-344.5 -124h-512q10 2 21 6.5t27 19t28 36.5t21 61.5
t9 89.5zM748 143h161q128 0 199.5 77t71.5 196q0 125 -72.5 201.5t-212.5 76.5h-147v-551z" />
    <glyph glyph-name="afii10045" unicode="&#x42b;" horiz-adv-x="1693" 
d="M180 213v944q0 49 -8 87.5t-19 59.5t-25.5 35t-24.5 18.5t-19 6.5h414q-13 -2 -27.5 -11t-33 -29.5t-30.5 -64t-12 -102.5v-317h187q239 0 358 -112.5t119 -291.5q0 -188 -128.5 -312t-344.5 -124h-514q13 2 27 10t34.5 28.5t33.5 66t13 108.5zM1288 197v964
q0 173 -100 203h422q-11 -2 -23.5 -10.5t-31 -28.5t-30.5 -63t-12 -101v-964q0 -47 8 -83.5t19 -56.5t26 -33.5t24 -17.5t18 -6h-418q12 2 24.5 9.5t31.5 26t30.5 60.5t11.5 101zM395 143h162q128 0 199 77t71 196q0 125 -72 201.5t-212 76.5h-148v-551z" />
    <glyph glyph-name="afii10046" unicode="&#x42c;" horiz-adv-x="1146" 
d="M180 213v944q0 49 -8 87.5t-19 59.5t-25.5 35t-24.5 18.5t-19 6.5h414q-13 -2 -27.5 -11t-33 -29.5t-30.5 -64t-12 -102.5v-317h197q239 0 358 -112.5t119 -291.5q0 -188 -128.5 -312t-344.5 -124h-524q13 2 27 10t34.5 28.5t33.5 66t13 108.5zM395 143h172
q128 0 199.5 77t71.5 196q0 125 -72.5 201.5t-212.5 76.5h-158v-551z" />
    <glyph glyph-name="afii10047" unicode="&#x42d;" horiz-adv-x="1310" 
d="M86 80v311q55 -123 167 -189.5t261 -66.5q102 0 188 41t144 109.5t92.5 155t42.5 180.5h-432q-57 0 -94.5 -14.5t-48 -27t-15.5 -26.5v276q36 -63 162 -63h426q-9 95 -44.5 180t-92 150.5t-138.5 104t-178 38.5q-147 0 -255.5 -74t-155.5 -213v361q63 35 193 59.5
t239 24.5q162 0 292.5 -55.5t213.5 -150t127.5 -217t44.5 -259.5q0 -107 -29.5 -213.5t-89 -202t-141.5 -169.5t-195.5 -117.5t-241.5 -43.5q-138 0 -254.5 29t-187.5 82z" />
    <glyph glyph-name="afii10048" unicode="&#x42e;" horiz-adv-x="2060" 
d="M180 209v946q0 175 -98 209h420q-12 -4 -24 -12t-30 -28.5t-29 -64t-11 -104.5v-389h266q15 135 71.5 251.5t143.5 200t204.5 131.5t249.5 48q187 0 332 -91.5t223 -249.5t78 -356q0 -150 -49 -284t-135.5 -233t-213 -156.5t-273.5 -57.5q-135 0 -251.5 49.5
t-198.5 136.5t-131 207t-56 259h-260v-412q0 -60 10 -103.5t26 -64t29.5 -30t26.5 -11.5h-414q13 2 26 10.5t30 29t27.5 64.5t10.5 105zM1346 131q174 0 288.5 142.5t114.5 375.5q0 168 -55 301.5t-158 210t-236 76.5q-173 0 -288 -139t-115 -371q0 -266 125 -431t324 -165z
" />
    <glyph glyph-name="afii10049" unicode="&#x42f;" horiz-adv-x="1220" 
d="M166 135l168 309q31 58 79.5 104t88.5 58q-151 22 -250.5 121.5t-99.5 233.5q0 86 30.5 159t89.5 127.5t151 85.5t208 31h518q-10 -3 -19.5 -7t-27 -19.5t-30 -36.5t-22.5 -61t-10 -91v-942q0 -50 8 -88.5t19 -59.5t26 -35t24 -18t18 -6h-410q13 2 26.5 10.5t30.5 29
t28 64t11 103.5v368h-51q-69 0 -123.5 -44.5t-91.5 -116.5l-213 -414h-338q33 7 80 39.5t82 95.5zM664 709h159v512h-170q-129 0 -200.5 -73t-71.5 -183t74.5 -183t208.5 -73z" />
    <glyph glyph-name="afii10065" unicode="&#x430;" horiz-adv-x="976" 
d="M338 670l-209 -82q-25 60 -25 112q0 123 111.5 208t278.5 85q172 0 252.5 -80t80.5 -217v-413q0 -87 40 -139t116 -52q11 0 27 4l-199 -139q-55 9 -102 51.5t-56 87.5q-37 -60 -118 -93.5t-173 -33.5q-120 0 -198 64t-78 174q0 116 135.5 212t403.5 156v95
q0 200 -160 200q-84 0 -128 -35.5t-44 -84.5q0 -29 12.5 -50.5t32.5 -29.5zM625 281v182q-342 -76 -342 -227q0 -60 42 -98t105 -38q76 0 135.5 52t59.5 129z" />
    <glyph glyph-name="afii10066" unicode="&#x431;" horiz-adv-x="1042" 
d="M594 1352l111 12q192 22 239 78q-7 -78 -51.5 -146.5t-130.5 -89.5q-70 -16 -182 -24q-125 -10 -170 -41q-41 -28 -66.5 -90t-32.5 -107.5t-14 -120.5q140 95 281 95q75 0 142.5 -25.5t123 -76t88.5 -135.5t33 -194q0 -225 -123 -371.5t-324 -146.5q-218 0 -327 151
t-109 464q0 352 123 538q65 97 154 155.5t235 74.5zM291 686v-106q0 -243 52.5 -356t174.5 -113q61 0 108 33.5t74 88.5t40.5 117.5t13.5 128.5q0 126 -64.5 212.5t-173.5 86.5q-116 0 -225 -92z" />
    <glyph glyph-name="afii10067" unicode="&#x432;" horiz-adv-x="980" 
d="M145 154v655q0 44 -10.5 75t-27.5 45.5t-28.5 20.5t-23.5 8h492q158 0 239.5 -64.5t81.5 -164.5q0 -80 -58 -137t-151 -78q125 -19 193 -83t68 -163q0 -118 -101 -193t-284 -75h-472q9 1 20 7t26.5 20.5t25.5 47.5t10 79zM348 121h154q105 0 154 43.5t49 111.5
q0 77 -64.5 118.5t-173.5 41.5h-119v-315zM348 551h131q81 0 127.5 43t46.5 117q0 63 -48.5 96t-135.5 33h-121v-289z" />
    <glyph glyph-name="afii10068" unicode="&#x433;" horiz-adv-x="804" 
d="M145 188v582q0 155 -88 188h711v-245q-11 22 -21 36t-33.5 34.5t-65 31t-99.5 10.5h-201v-641q0 -67 16.5 -111t32 -57t31.5 -16h-369q6 1 15 5.5t22 17.5t23.5 32.5t18 54.5t7.5 78z" />
    <glyph glyph-name="afii10069" unicode="&#x434;" horiz-adv-x="1116" 
d="M51 -279v414h51q30 0 42 9t20 32l328 817h122l338 -821q6 -14 10.5 -20.5t15 -11.5t28.5 -5h57v-414h-19q-8 31 -21.5 62.5t-40 72.5t-60.5 71.5t-86.5 51.5t-114.5 21h-328q-62 0 -114.5 -21t-86.5 -51.5t-60.5 -71.5t-40 -72.5t-21.5 -62.5h-19zM309 135h428l-215 553z
" />
    <glyph glyph-name="afii10070" unicode="&#x435;" horiz-adv-x="950" 
d="M879 473h-607q0 -14 4 -22q19 -145 102 -233.5t206 -88.5q84 0 166.5 43t142.5 119q-36 -158 -136 -240t-251 -82q-134 0 -234 68t-150 179t-50 247q0 145 52.5 265t152 192.5t227.5 72.5q120 0 205.5 -69.5t126.5 -184.5t43 -266zM272 588h402q0 72 -17.5 132.5t-60 103
t-102.5 42.5q-93 0 -154.5 -84t-67.5 -194z" />
    <glyph glyph-name="afii10072" unicode="&#x436;" horiz-adv-x="1638" 
d="M250 178l252 336l-205 258q-115 144 -254 186h416q-9 -3 -19 -8.5t-21 -18.5t-11 -28q0 -41 67 -123l184 -229q42 -53 64 -53v219q0 68 -10 118t-26 74.5t-28 35t-24 13.5h369q-12 -3 -25 -13.5t-28.5 -35t-25.5 -73.5t-10 -117v-221q22 0 64 53l184 229q68 83 68 123
q0 22 -18 36t-35 19h417q-137 -42 -254 -186l-206 -258l254 -336q55 -74 117 -111.5t104 -37.5q18 0 28 4q-30 -25 -82 -40.5t-108 -15.5q-93 0 -145 29.5t-132 124.5q-20 23 -52 68.5t-74.5 107t-67.5 96.5l-8 12t-9 13t-8.5 11.5t-9 10.5t-8.5 7.5t-9.5 6t-9.5 1.5v-223
q0 -69 10 -119t26 -74.5t28.5 -35t24.5 -13.5h-369q12 3 24.5 13.5t28 34.5t25.5 74t10 118v225q-6 0 -11.5 -3t-10 -6.5t-10.5 -11t-9 -12l-10 -15t-10 -14.5q-25 -34 -67.5 -96t-75 -107.5t-52.5 -68.5q-80 -95 -132 -124.5t-145 -29.5q-56 0 -108 15.5t-82 40.5
q10 -4 29 -4q42 0 104 37.5t117 111.5z" />
    <glyph glyph-name="afii10073" unicode="&#x437;" horiz-adv-x="860" 
d="M86 23v227q38 -61 113 -103.5t176 -42.5t155 44.5t54 123.5q0 71 -63 110.5t-169 39.5h-106v121h80q125 0 185 46.5t60 121.5q0 67 -51 107t-133 40q-95 0 -166.5 -48.5t-103.5 -111.5v250q44 19 128 32t156 13q164 0 259.5 -66t95.5 -196q0 -89 -64.5 -155.5
t-140.5 -81.5q115 -21 176 -83t61 -153q0 -134 -109.5 -211.5t-293.5 -77.5q-86 0 -169.5 15.5t-129.5 38.5z" />
    <glyph glyph-name="afii10074" unicode="&#x438;" horiz-adv-x="1105" 
d="M145 193v573q0 164 -88 192h369q-80 -24 -80 -190v-420l408 461q0 118 -78 149h364q-12 -3 -24 -11.5t-27 -28.5t-24 -60.5t-9 -95.5v-565q0 -100 25 -145.5t55 -51.5h-356q10 3 20.5 12.5t23.5 29.5t21.5 58.5t8.5 89.5v416l-408 -456q0 -70 25 -107t53 -43h-363
q12 3 24.5 13t26.5 30t23.5 59t9.5 91z" />
    <glyph glyph-name="afii10075" unicode="&#x439;" horiz-adv-x="1105" 
d="M145 193v573q0 164 -88 192h369q-80 -24 -80 -190v-420l408 461q0 118 -78 149h364q-12 -3 -24 -11.5t-27 -28.5t-24 -60.5t-9 -95.5v-565q0 -100 25 -145.5t55 -51.5h-356q10 3 20.5 12.5t23.5 29.5t21.5 58.5t8.5 89.5v416l-408 -456q0 -70 25 -107t53 -43h-363
q12 3 24.5 13t26.5 30t23.5 59t9.5 91zM238 1343l155 41q13 -90 58 -131t112 -41q59 0 100 42t54 130l153 -41q-19 -103 -102 -165t-215 -62q-131 0 -213.5 62t-101.5 165z" />
    <glyph glyph-name="afii10076" unicode="&#x43a;" horiz-adv-x="1116" 
d="M145 240v450q0 104 -26.5 140t-77.5 36h-25l332 135v-501q20 0 43 26l221 260q64 73 64 117q0 18 -14 31.5t-24.5 17.5t-19.5 6h437q-26 -8 -58.5 -23t-92.5 -58t-109 -101l-215 -252l264 -325q73 -90 136.5 -130t106.5 -40q19 0 29 4q-31 -25 -85 -40.5t-113 -15.5
q-96 0 -159 38.5t-145 136.5q-23 27 -104.5 134t-116.5 150q-25 29 -45 29v-223q0 -57 8 -101.5t18.5 -69.5t24.5 -41.5t23.5 -22t17.5 -7.5h-387q9 2 18.5 7.5t23.5 22t24.5 41t18 69t7.5 100.5z" />
    <glyph glyph-name="afii10077" unicode="&#x43b;" horiz-adv-x="1075" 
d="M143 176l328 817h123l342 -831q56 -134 141 -162h-420q9 1 18 4.5t21.5 11.5t20.5 26t8 42q0 27 -20 82l-203 522l-191 -495q-22 -61 -22 -95q0 -49 27.5 -72t52.5 -26h-369q10 2 22 9t32.5 24.5t44 54.5t44.5 88z" />
    <glyph glyph-name="afii10078" unicode="&#x43c;" horiz-adv-x="1343" 
d="M145 199v579q0 54 -15.5 98t-32.5 62.5t-29 22.5h315l285 -617l288 617h316q-10 -3 -26.5 -21t-34 -63.5t-17.5 -102.5v-584q0 -58 17 -104t33.5 -64.5t27.5 -21.5h-336q10 3 24.5 21t30 64t15.5 105v558l-367 -773l-358 770v-546q0 -47 9.5 -87t22.5 -62.5t24.5 -35
t18.5 -14.5h-288q5 1 13.5 8.5t19.5 23.5t21 37.5t16.5 56t6.5 73.5z" />
    <glyph glyph-name="afii10079" unicode="&#x43d;" horiz-adv-x="1105" 
d="M145 193v573q0 164 -88 192h371q-80 -24 -80 -190v-213h404v213q0 159 -78 190h366q-12 -3 -24 -11.5t-27 -28.5t-24 -60.5t-9 -95.5v-565q0 -100 25 -145.5t55 -51.5h-358q10 3 20.5 12.5t23.5 29.5t21.5 58.5t8.5 89.5v232h-404v-232q0 -96 24.5 -140t53.5 -50h-365
q12 3 24.5 13t26.5 30t23.5 59t9.5 91z" />
    </font>
</defs>
</svg>
