<?xml version="1.0" standalone="no"?>
<!DOCTYPE svg PUBLIC "-//W3C//DTD SVG 1.1//EN" "http://www.w3.org/Graphics/SVG/1.1/DTD/svg11.dtd" >
<svg xmlns="http://www.w3.org/2000/svg" xmlns:xlink="http://www.w3.org/1999/xlink" version="1.1">
<metadata>
Created by FontForge 20201107 at Sat Sep  7 07:39:58 2024
 By 
Copyright (c) 2008, 2013 by Nick Shinn. Published by Shinn Type Foundry. All rights reserved. Customized and extended for Riot Games by Monotype Imaging, Inc.
</metadata>
<defs>
<font id="BeaufortforLOL-Bold" horiz-adv-x="1122" >
  <font-face 
    font-family="Beaufort for LOL"
    font-weight="700"
    font-stretch="normal"
    units-per-em="2048"
    panose-1="2 2 8 3 5 0 0 2 0 4"
    ascent="1520"
    descent="-528"
    x-height="954"
    cap-height="1364"
    bbox="-315 -485 2214 2050"
    underline-thickness="102"
    underline-position="-255"
    unicode-range="U+000D-FEFF"
  />
<missing-glyph horiz-adv-x="1048" 
d="M0 0v1470h1049v-1470h-1049zM102 102h844v1264h-844v-1264zM461 479l-4 39q0 70 8 111q7 41 43.5 91t77.5 89q43 39 68.5 77t25.5 85q0 70 -47 122t-109 52q-69 0 -112.5 -49t-55.5 -146l-102 17q13 137 84 208.5t192 71.5q110 0 182 -74.5t72 -193.5q0 -79 -30 -131
t-101 -117t-84 -94q-14 -35 -14 -158h-94zM455 240v137h114v-137h-114z" />
    <glyph glyph-name="fi" unicode="fi" horiz-adv-x="1236" 
d="M184 242v544h-159v168h159v60q0 105 28.5 186t78.5 129.5t113.5 73t138.5 24.5q26 0 52.5 -3t48 -7t26.5 -4v-244q-21 36 -54.5 58t-70.5 22q-51 0 -75 -40t-24 -130v-125h224v-168h-224v-544q0 -59 9 -105.5t21.5 -70.5t28 -40t25.5 -20.5t17 -5.5h-467q8 1 16.5 4.5
t25.5 18.5t29.5 38.5t22.5 71t10 109.5zM842 217v445q0 108 -31 147t-82 39h-27l402 153v-784q0 -54 9.5 -96t21.5 -63.5t28.5 -35.5t25.5 -17.5t17 -4.5h-469q8 1 16.5 4t26 17t30 35t22.5 63.5t10 97.5zM795 1255q0 66 44.5 109t116.5 43q71 0 115.5 -43.5t44.5 -108.5
q0 -67 -44.5 -111t-115.5 -44q-72 0 -116.5 44t-44.5 111z" />
    <glyph glyph-name="fl" unicode="fl" horiz-adv-x="1245" 
d="M184 242v544h-159v168h159v60q0 205 102 309t259 104q26 0 52.5 -3t49 -7t25.5 -4v-244q-21 36 -54.5 58t-70.5 22q-51 0 -76 -40t-25 -130v-125h226v-168h-226v-544q0 -59 9 -105.5t21.5 -70.5t28 -40t25.5 -20.5t17 -5.5h-467q8 1 16.5 4.5t25.5 18.5t29.5 38.5
t22.5 71t10 109.5zM844 217v842q0 70 -9.5 116t-28 68t-37.5 29.5t-46 7.5h-18l401 147v-1210q0 -53 8.5 -94t20.5 -63t27.5 -36.5t25.5 -18.5t18 -5h-465q8 1 16.5 4t25.5 17t29.5 35t22 63.5t9.5 97.5z" />
    <glyph glyph-name=".notdef" horiz-adv-x="1048" 
d="M0 0v1470h1049v-1470h-1049zM102 102h844v1264h-844v-1264zM461 479l-4 39q0 70 8 111q7 41 43.5 91t77.5 89q43 39 68.5 77t25.5 85q0 70 -47 122t-109 52q-69 0 -112.5 -49t-55.5 -146l-102 17q13 137 84 208.5t192 71.5q110 0 182 -74.5t72 -193.5q0 -79 -30 -131
t-101 -117t-84 -94q-14 -35 -14 -158h-94zM455 240v137h114v-137h-114z" />
    <glyph glyph-name=".null" horiz-adv-x="0" 
 />
    <glyph glyph-name="nonmarkingreturn" horiz-adv-x="682" 
 />
    <glyph glyph-name="CR" unicode="&#xd;" horiz-adv-x="436" 
 />
    <glyph glyph-name="space" unicode=" " horiz-adv-x="436" 
 />
    <glyph glyph-name="exclam" unicode="!" horiz-adv-x="614" 
d="M195 684l-25 416q-4 65 -14 115.5t-20 76.5t-23 43.5t-20 22t-13 6.5h457q-5 -1 -12 -5t-20 -20.5t-24 -42.5t-21 -77.5t-14 -118.5l-24 -416q-13 -191 -113 -322l-2 -2q0 1 -6 9t-15 22t-20 34t-22.5 47.5t-21.5 58.5t-17.5 71t-9.5 82zM150 121q0 64 43 106.5t114 42.5
t115.5 -42.5t44.5 -106.5q0 -65 -44.5 -107.5t-115.5 -42.5t-114 42t-43 108z" />
    <glyph glyph-name="quotedbl" unicode="&#x22;" horiz-adv-x="1085" 
d="M756 678h-6q-5 7 -12 19t-26.5 51t-34 79t-26.5 98.5t-12 114.5v324h233v-324q0 -57 -12 -115t-29 -100.5t-34 -77t-29 -51.5zM330 678h-8q-4 7 -11.5 19t-26.5 51t-33 79t-26 98.5t-12 114.5v324h233v-324q0 -57 -12 -115t-29 -100.5t-34 -77t-29 -51.5z" />
    <glyph glyph-name="numbersign" unicode="#" horiz-adv-x="1153" 
d="M131 0l92 416h-188v114h213l71 314h-202v117h227l86 403h135l-86 -403h293l84 403h139l-86 -403h183v-117h-209l-70 -314h209v-114h-238l-94 -416h-131l90 416h-293l-94 -416h-131zM385 530h293l67 314h-290z" />
    <glyph glyph-name="dollar" unicode="$" horiz-adv-x="1136" 
d="M131 111v383q40 -102 108.5 -169.5t141.5 -94.5t154 -27q92 0 150 39t58 106q0 52 -33 94.5t-85.5 73t-116.5 60.5t-128 65t-116.5 77.5t-85.5 107t-33 145.5q0 138 78.5 234t216.5 128v191h244v-178q141 -17 238 -82v-324q-41 100 -141 161.5t-203 61.5q-87 0 -133 -37
t-46 -98q0 -22 9 -43q9 -39 47 -73t90.5 -61t114.5 -56t122 -65t109 -80t79.5 -109.5t30.5 -145.5q0 -154 -87 -244t-230 -122v-226h-244v211q-90 9 -172 35t-137 62z" />
    <glyph glyph-name="percent" unicode="%" horiz-adv-x="1556" 
d="M383 725q-102 0 -177 50t-110 125t-35 161q0 135 86 234.5t236 99.5q78 0 141 -28.5t102 -76t60 -106.5t21 -123q0 -86 -35.5 -161t-111 -125t-177.5 -50zM219 0l918 1364h192l-913 -1364h-197zM1165 -25q-78 0 -140.5 28.5t-101 76.5t-59 106.5t-20.5 122.5t20.5 123
t59.5 106.5t101.5 76t139.5 28.5q102 0 177 -49t110 -123.5t35 -161.5q0 -86 -35 -160.5t-110 -124t-177 -49.5zM385 866q59 0 93 48t34 145q0 96 -34.5 144t-94.5 48q-125 0 -125 -190q0 -98 34 -146.5t93 -48.5zM1167 119q125 0 125 190q0 97 -34 146t-93 49t-93 -48.5
t-34 -146.5q0 -97 34.5 -143.5t94.5 -46.5z" />
    <glyph glyph-name="ampersand" unicode="&#x26;" horiz-adv-x="1638" 
d="M1124 856h439q-37 -21 -75 -72.5t-58 -109.5q-26 -80 -81 -180.5t-135 -192.5q173 -111 275 -111q41 0 71 20.5t68 65.5q-21 -73 -43 -125t-53.5 -96t-73.5 -66t-96 -22q-110 0 -346 160q-221 -162 -463 -162q-492 0 -492 352q0 66 23 124t67.5 106t92.5 84.5t114 75.5
q-79 96 -124.5 175.5t-45.5 157.5q0 111 60.5 193.5t154 122t203.5 39.5q107 0 198 -33t151.5 -105.5t60.5 -171.5q0 -65 -23.5 -121.5t-69.5 -103.5t-91.5 -81t-112.5 -74q174 -174 321 -289q63 74 104.5 162t41.5 157q0 75 -62 121zM586 831q92 59 138 113.5t46 120.5
q0 62 -51.5 103.5t-120.5 41.5q-64 0 -108 -38t-44 -105q0 -20 8.5 -43.5t26.5 -51.5t31.5 -46.5t39.5 -51t34 -43.5zM836 252q-175 136 -344 317q-132 -96 -132 -194q0 -89 65.5 -149t176.5 -60q109 0 234 86z" />
    <glyph glyph-name="quotesingle" unicode="'" horiz-adv-x="536" 
d="M268 678h-6q-4 7 -11.5 19t-26.5 51t-33.5 79t-26.5 98.5t-12 114.5v324h233v-324q0 -57 -12 -115t-29 -100.5t-34.5 -77t-29.5 -51.5z" />
    <glyph glyph-name="parenleft" unicode="(" horiz-adv-x="698" 
d="M684 -416q-182 52 -324.5 193.5t-219.5 335t-77 403.5q0 212 77 404t219 330.5t323 193.5q-111 -69 -190 -216.5t-116.5 -327.5t-37.5 -376q0 -303 91.5 -563.5t254.5 -376.5z" />
    <glyph glyph-name="parenright" unicode=")" horiz-adv-x="698" 
d="M16 1444q182 -54 324 -196t218.5 -335.5t76.5 -402.5q0 -213 -77 -404.5t-219.5 -329.5t-324.5 -192q111 69 190.5 216t117.5 327.5t38 376.5q0 304 -90.5 564t-253.5 376z" />
    <glyph glyph-name="asterisk" unicode="*" horiz-adv-x="851" 
d="M57 893v281q2 -1 22 -12t26 -13.5t26 -12.5t31.5 -14t33 -12.5t39.5 -12.5t42 -9.5t50 -9t54 -5.5q-29 74 -68.5 139.5t-60.5 91t-59 68.5l258 86q-19 -116 -19 -178q0 -82 25 -180q136 125 211 284l155 -233q-195 -34 -319 -119q144 -100 313 -125l-155 -227
q-47 100 -85 153q-48 67 -120 134q-29 -113 -29 -195q0 -71 16 -162l-254 82l15 16q15 16 17.5 19t17 19.5t19.5 24t19 25.5t21 30.5t19.5 33t21.5 39t20 43t21 49.5q-76 -6 -143 -24.5t-101.5 -34t-79.5 -39.5z" />
    <glyph glyph-name="plus" unicode="+" horiz-adv-x="1411" 
d="M614 0v492h-471v182h471v485h185v-485h469v-182h-469v-492h-185z" />
    <glyph glyph-name="comma" unicode="," horiz-adv-x="524" 
d="M266 -2q-15 -6 -35 -6q-65 0 -102 42.5t-37 102.5q0 70 46.5 122t127.5 52q97 0 152 -77t55 -189q0 -58 -15.5 -115.5t-49.5 -112.5t-82 -98t-120 -70t-157 -30q92 41 158.5 132.5t66.5 187.5q0 40 -8 59z" />
    <glyph glyph-name="hyphen" unicode="-" horiz-adv-x="681" 
d="M86 428v193h512v-193h-512z" />
    <glyph glyph-name="period" unicode="." horiz-adv-x="524" 
d="M84 143q0 75 49 123.5t129 48.5q81 0 130.5 -48.5t49.5 -123.5q0 -73 -50 -122.5t-130 -49.5t-129 49t-49 123z" />
    <glyph glyph-name="slash" unicode="/" horiz-adv-x="960" 
d="M61 -31l621 1426h223l-614 -1426h-230z" />
    <glyph glyph-name="zero" unicode="0" horiz-adv-x="1136" 
d="M563 -31q-230 0 -360.5 179t-130.5 497q0 220 58 388.5t172.5 265t270.5 96.5q229 0 360.5 -189t131.5 -495q0 -217 -56 -382.5t-171 -262.5t-275 -97zM584 170q47 0 82.5 22t63 71t42 134.5t14.5 206.5q0 300 -65.5 444t-175.5 144q-201 0 -201 -434q0 -301 65 -444.5
t175 -143.5z" />
    <glyph glyph-name="one" unicode="1" horiz-adv-x="1136" 
d="M473 276v775q-97 -101 -160 -174l-131 133q206 195 346 354h215v-1088q0 -209 119 -276h-506q117 66 117 276z" />
    <glyph glyph-name="two" unicode="2" horiz-adv-x="1136" 
d="M41 0l338 373q197 218 279.5 347t82.5 247q0 112 -65 172.5t-158 60.5q-88 0 -140 -45t-52 -106q0 -48 31 -85t89 -49l-182 -198q-82 22 -137 96.5t-55 173.5q0 76 31.5 147t92.5 130.5t161.5 95t226.5 35.5q87 0 165.5 -25t142 -72t101 -124.5t37.5 -174.5
q0 -43 -11.5 -89t-29 -87t-50.5 -93t-62.5 -93t-80.5 -102.5t-88.5 -104.5t-101.5 -115q-11 -12 -16 -18l-76 -84h338q174 0 240 104l-48 -317h-1003z" />
    <glyph glyph-name="three" unicode="3" horiz-adv-x="1136" 
d="M39 229l231 166q35 -110 100 -169.5t175 -59.5q99 0 156 59t57 150q0 123 -117 190q-118 66 -344 76l373 510h-314q-179 0 -247 -104l49 317h903l-436 -567q205 -34 308 -138.5t103 -255.5q0 -194 -143.5 -314t-376.5 -120q-178 0 -304.5 70t-172.5 190z" />
    <glyph glyph-name="four" unicode="4" horiz-adv-x="1136" 
d="M23 322v69q268 493 524 973h342v-844h178v-198h-178v-107q0 -61 10.5 -106t26.5 -66.5t27 -30t22 -12.5h-430q86 43 86 217v105h-608zM307 520h324v608z" />
    <glyph glyph-name="five" unicode="5" horiz-adv-x="1136" 
d="M37 229l231 166q69 -229 269 -229q105 0 162 60t57 153q0 126 -104.5 198t-327.5 72h-172l67 715h529q186 0 241 41l-39 -252h-526l-31 -295q311 0 476 -118.5t165 -325.5q0 -206 -146 -325.5t-376 -119.5q-85 0 -158.5 17t-125 43.5t-92 62t-63.5 69.5t-36 68z" />
    <glyph glyph-name="six" unicode="6" horiz-adv-x="1136" 
d="M358 786l13 -8q53 68 127.5 105t158.5 37q79 0 146.5 -24.5t115.5 -67.5t82.5 -99.5t51 -121.5t16.5 -134q0 -94 -30.5 -182.5t-89.5 -161.5t-157.5 -117.5t-222.5 -44.5q-239 0 -364 145t-125 388q0 178 63.5 349.5t182 310.5t274.5 220l410 -37q-230 -81 -391 -213
t-261 -344zM608 160q91 0 151 72.5t60 179.5q0 127 -69 217t-183 90q-96 0 -155.5 -72.5t-59.5 -179.5q0 -128 70 -217.5t186 -89.5z" />
    <glyph glyph-name="seven" unicode="7" horiz-adv-x="1136" 
d="M637 0h-373q75 210 226 550t280 609h-448q-177 0 -259 -139l46 344h1011l-260 -563q-109 -236 -167 -415t-58 -353q0 -5 1 -16.5t1 -16.5z" />
    <glyph glyph-name="eight" unicode="8" horiz-adv-x="1136" 
d="M360 692q-120 50 -180.5 138.5t-60.5 191.5q0 113 68.5 200t173 130t221.5 43q115 0 212 -37t159.5 -114.5t62.5 -180.5q0 -104 -59.5 -192t-176.5 -126q291 -106 291 -366q0 -129 -74.5 -224.5t-189.5 -141.5t-250 -46q-76 0 -145 12.5t-133 41t-110.5 71t-74.5 106.5
t-28 142q0 121 76 215.5t218 136.5zM588 817q84 0 129 51.5t45 132.5q0 88 -55 148.5t-158 60.5q-84 0 -130 -47t-46 -129q0 -89 57 -153t158 -64zM338 397q0 -98 64.5 -166.5t185.5 -68.5q104 0 158.5 51.5t54.5 148.5q0 99 -68 169.5t-192 70.5q-97 0 -150 -58.5
t-53 -146.5z" />
    <glyph glyph-name="nine" unicode="9" horiz-adv-x="1136" 
d="M539 -18l-410 36q231 81 391 211t260 342l-12 9q-53 -66 -127.5 -103t-157.5 -37q-99 0 -179 37.5t-130 100.5t-77 142.5t-27 166.5q0 95 30.5 183.5t89 162t156 118t219.5 44.5q121 0 216 -39.5t155.5 -111.5t91.5 -170t31 -218q0 -270 -142 -511t-378 -363zM573 637
q95 0 154 74t59 180q0 129 -71.5 219t-188.5 90q-90 0 -147 -73.5t-57 -180.5q0 -129 68.5 -219t182.5 -90z" />
    <glyph glyph-name="colon" unicode=":" horiz-adv-x="524" 
d="M82 758q0 75 49.5 123.5t130.5 48.5q80 0 129 -48.5t49 -123.5q0 -73 -49.5 -121.5t-128.5 -48.5q-80 0 -130 48.5t-50 121.5zM82 143q0 75 49.5 123.5t130.5 48.5q80 0 129 -48.5t49 -123.5q0 -73 -50 -122.5t-128 -49.5q-80 0 -130 49.5t-50 122.5z" />
    <glyph glyph-name="semicolon" unicode=";" horiz-adv-x="524" 
d="M100 758q0 75 49 123.5t130 48.5t130.5 -48.5t49.5 -123.5q0 -73 -50 -121.5t-130 -48.5t-129.5 48.5t-49.5 121.5zM274 -2q-18 -6 -34 -6q-67 0 -103.5 42.5t-36.5 102.5q0 70 46.5 122t127.5 52q97 0 152 -77t55 -189q0 -58 -15.5 -115.5t-49.5 -112.5t-82 -98
t-120 -70t-157 -30q91 41 157.5 133t66.5 187q0 35 -7 59z" />
    <glyph glyph-name="less" unicode="&#x3c;" horiz-adv-x="1411" 
d="M209 514v139l991 547v-207l-760 -409v-13l760 -393v-209z" />
    <glyph glyph-name="equal" unicode="=" horiz-adv-x="1411" 
d="M143 713v182h1125v-182h-1125zM143 274v183h1125v-183h-1125z" />
    <glyph glyph-name="greater" unicode="&#x3e;" horiz-adv-x="1411" 
d="M209 -31v209l762 408v12l-762 395v207l991 -547v-139z" />
    <glyph glyph-name="question" unicode="?" horiz-adv-x="942" 
d="M143 965v344q64 39 165 63.5t202 24.5q182 0 291.5 -83t109.5 -229q0 -62 -22.5 -117.5t-58 -98t-79 -81t-86.5 -73.5t-78.5 -68.5t-58 -73.5t-22.5 -81q0 -72 63 -91q-37 -43 -104 -43q-80 0 -141.5 49t-61.5 136q0 53 19 101t50 84.5t68 70t74 64t68 60t50 64.5t19 72
q0 63 -44 100t-111 37q-86 0 -173 -58.5t-139 -172.5zM283 119q0 64 43 106.5t114 42.5q70 0 114 -42t44 -107q0 -64 -44 -106t-114 -42q-71 0 -114 42t-43 106z" />
    <glyph glyph-name="at" unicode="@" horiz-adv-x="1906" 
d="M1663 -37l92 -61q-130 -136 -324 -212.5t-407 -76.5q-221 0 -395 59.5t-285 166t-169 251t-58 318.5q0 165 49.5 309t136.5 251t203.5 184t253.5 116t284 39q153 0 288 -45.5t237 -129.5t161.5 -214t59.5 -289q0 -172 -68 -318t-186.5 -230.5t-259.5 -84.5
q-108 0 -161.5 39.5t-63.5 138.5q-92 -178 -287 -178q-120 0 -189 91t-69 251q0 102 31 208t88 197.5t150 150t204 58.5q65 0 129 -18q93 -25 125 -25q58 0 133 35l-113 -663q-4 -20 -4 -56q0 -53 21.5 -84.5t62.5 -31.5q56 0 113 32.5t107.5 93.5t82 164.5t31.5 231.5
q0 178 -85 311.5t-228 201.5t-322 68q-123 0 -239 -33.5t-216 -101t-175.5 -161t-118.5 -221t-43 -273.5q0 -208 94.5 -369t272.5 -251.5t415 -90.5q188 0 354 65.5t287 186.5zM852 141q93 0 158 172q29 79 48 193.5t19 169.5q0 145 -110 145q-59 0 -110.5 -80.5t-79 -191
t-27.5 -209.5q0 -92 26.5 -145.5t75.5 -53.5z" />
    <glyph glyph-name="A" unicode="A" horiz-adv-x="1529" 
d="M203 262l430 1102h241l451 -1108q24 -62 51.5 -110.5t49 -74t43 -43t32.5 -22t19 -6.5h-551q9 1 19 5t24 14t23 30t9 47q0 11 -4 29t-13 44.5t-16.5 47.5t-20.5 55t-19 52h-522l-43 -127q-21 -62 -21 -91q0 -31 10 -53t25.5 -32.5t27 -15t21.5 -5.5h-459q8 1 18.5 5.5
t31 21t41.5 43t48.5 76.5t53.5 116zM516 502h385l-194 504z" />
    <glyph glyph-name="B" unicode="B" horiz-adv-x="1308" 
d="M184 240v888q0 58 -11 102.5t-25.5 68t-34 39.5t-30 20t-20.5 6h697q95 0 171 -28t122 -75.5t70 -105.5t24 -121q0 -108 -66 -197.5t-178 -117.5q96 -15 167.5 -68.5t106.5 -127t35 -156.5q0 -70 -26.5 -134.5t-76.5 -117t-131 -84t-181 -31.5h-717q7 1 16.5 4.5t26 19
t29 39.5t22.5 70t10 107zM475 188h207q117 0 170 56.5t53 144.5q0 101 -61 161t-182 60h-187v-422zM475 795h182q90 0 137.5 56.5t47.5 145.5q0 76 -50.5 128.5t-142.5 52.5h-174v-383z" />
    <glyph glyph-name="C" unicode="C" horiz-adv-x="1308" 
d="M1221 395v-235q-74 -85 -194.5 -138t-252.5 -53q-170 0 -304.5 57t-217 153.5t-125.5 217.5t-43 256q0 114 29.5 221t90.5 202t147.5 166t209 112t266.5 41q216 0 367 -80v-393q-49 124 -148.5 196t-240.5 72q-184 0 -299 -141.5t-115 -356.5q0 -144 50.5 -259t147 -182
t222.5 -67q110 0 222 57t188 154z" />
    <glyph glyph-name="D" unicode="D" horiz-adv-x="1486" 
d="M193 254v881q0 57 -12 100.5t-26.5 66t-35.5 38t-31.5 19t-21.5 5.5h632q320 0 512.5 -185t192.5 -483q0 -110 -26 -210t-83.5 -189.5t-141 -155t-205.5 -103.5t-271 -38h-596q8 1 18 4.5t28.5 19.5t32 41t24 74.5t10.5 114.5zM487 188h201q100 0 179 41.5t127 111.5
t73 156.5t25 182.5q0 228 -117 363t-346 135h-142v-990z" />
    <glyph glyph-name="E" unicode="E" 
d="M184 244v891q0 56 -12 99.5t-26.5 66t-35.5 38t-31.5 19.5t-21.5 6h928v-365q-12 40 -27.5 68t-43 55.5t-72.5 41.5t-107 14h-258v-396h225q39 0 69.5 6.5t46.5 14.5t27.5 19.5t15 17.5t5.5 12v-324q-23 68 -159 68h-230v-408h279q128 0 194 42t125 151l-65 -381h-936
q8 1 17.5 4.5t27 19.5t31 40t24 71t10.5 109z" />
    <glyph glyph-name="F" unicode="F" horiz-adv-x="1040" 
d="M190 231v908q0 55 -12 97.5t-26.5 65t-35.5 37.5t-31.5 19t-21.5 6h930v-360q-10 27 -19.5 46.5t-30 45.5t-45.5 42t-67 28t-94 12h-254v-396h222q40 0 71 7t47 16t27 21t14 19t4 13v-338q-1 5 -4 12t-14 19t-27 21.5t-46.5 16.5t-69.5 7h-224v-373q0 -55 9 -97.5t21 -65
t28 -37t27 -18.5t20 -5h-510q9 1 18.5 4t27.5 17.5t31.5 37t24 68t10.5 104.5z" />
    <glyph glyph-name="G" unicode="G" horiz-adv-x="1417" 
d="M965 201v217q0 48 -11.5 85.5t-26 57t-33.5 32.5t-29.5 16.5t-18.5 4.5h514q-8 -1 -17.5 -4.5t-28 -16t-32.5 -31.5t-24.5 -55t-10.5 -83v-375q-97 -40 -229.5 -61t-257.5 -21q-134 0 -248 37.5t-194.5 102.5t-137.5 151.5t-84.5 185.5t-27.5 205q0 114 30 221.5
t93.5 203t153.5 167t217.5 113t277.5 41.5q137 0 237.5 -26t157.5 -56v-355q-51 98 -156 166t-260 68q-194 0 -318 -140.5t-124 -365.5t122 -368.5t312 -143.5q71 0 154 27z" />
    <glyph glyph-name="H" unicode="H" horiz-adv-x="1517" 
d="M170 229v906q0 56 -10 99.5t-23 66t-30.5 38t-27 19.5t-18.5 6h508q-7 -1 -16.5 -4.5t-26 -18t-29 -37.5t-22.5 -67t-10 -102v-353h588v353q0 57 -10 100.5t-22.5 66t-30.5 38t-27.5 19t-18.5 5.5h508q-8 -1 -16.5 -4.5t-25.5 -18t-29.5 -37t-22.5 -67t-10 -102.5v-906
q0 -57 9.5 -101t22 -67t29 -37.5t26 -18.5t17.5 -5h-508q8 1 17 4t27 17.5t31 37t23.5 67t10.5 103.5v367h-588v-367q0 -58 9.5 -102t22 -67t29 -37.5t26 -18t17.5 -4.5h-508q8 1 17 4t27 17.5t31 37t23.5 67t10.5 103.5z" />
    <glyph glyph-name="I" unicode="I" horiz-adv-x="643" 
d="M176 211v932q0 54 -10 96.5t-22.5 64t-30.5 36.5t-26 18t-17 6h503q-7 -1 -15 -4t-26 -17.5t-31 -36t-23.5 -64.5t-10.5 -99v-932q0 -52 9.5 -92t22 -61.5t29 -35t26.5 -17.5t17 -5h-501q8 1 17 4t26 16.5t30 34.5t23 62t10 94z" />
    <glyph glyph-name="J" unicode="J" horiz-adv-x="681" 
d="M215 295v850q0 53 -10 94.5t-23.5 63t-31.5 36.5t-29 19t-21 6h510q-9 -2 -17 -5.5t-25 -18t-29 -36t-21.5 -64t-9.5 -97.5v-881q0 -215 -86.5 -318.5t-245.5 -103.5q-76 0 -142.5 29.5t-109.5 81.5q38 -10 74 -10q107 0 162 94.5t55 259.5z" />
    <glyph glyph-name="K" unicode="K" horiz-adv-x="1447" 
d="M170 227v908q0 56 -10 99.5t-23 66t-30.5 38t-27 19.5t-18.5 6h508q-7 -1 -16.5 -4.5t-26 -18t-29 -37.5t-22.5 -67t-10 -102v-377l338 368q110 123 110 187q0 18 -11 30t-20.5 15.5t-19.5 5.5h537q-8 -1 -19.5 -4.5t-43 -19t-66 -39t-88 -69.5t-109.5 -106l-340 -370
l402 -510q175 -222 283 -245q2 -1 3 -1h-456l-500 639v-412q0 -57 9.5 -101t22 -66.5t29 -37t26 -18t17.5 -4.5h-508q8 1 17 4.5t27 17.5t31 36.5t23.5 66.5t10.5 102z" />
    <glyph glyph-name="L" unicode="L" horiz-adv-x="1114" 
d="M168 254v879q0 57 -9.5 100.5t-22 66.5t-29.5 38.5t-26 19.5t-18 6h496q-8 -1 -17 -4.5t-26 -18t-30 -37t-23 -67.5t-10 -104v-945h276q147 0 209.5 29.5t122.5 136.5l-55 -354h-932q7 1 15 4.5t23 19.5t26.5 41t20.5 74.5t9 114.5z" />
    <glyph glyph-name="M" unicode="M" horiz-adv-x="1800" 
d="M195 244v901q0 54 -12.5 96t-27.5 63.5t-37.5 36t-32.5 18t-22 5.5h498l363 -825l358 825h449q-8 -1 -17.5 -4.5t-27.5 -17.5t-31.5 -36t-24 -66t-10.5 -101v-908q0 -57 10 -101.5t23.5 -67.5t31 -38t28 -19t18.5 -5h-488q8 1 16 4t24 17.5t28 37t21 68t9 104.5v779
l-460 -1043l-473 1041v-764q0 -60 11.5 -106.5t27 -71t35.5 -40.5t32.5 -20.5t22.5 -5.5h-467q9 1 19.5 4.5t31 19.5t35.5 40t27 71t12 109z" />
    <glyph glyph-name="N" unicode="N" horiz-adv-x="1480" 
d="M193 223v899q0 44 -18.5 85t-42.5 66.5t-55 48t-45.5 30t-25.5 12.5h434l643 -805v580q0 56 -10.5 98.5t-23.5 65t-31.5 37.5t-27.5 18.5t-19 5.5h444q-8 -1 -17 -4.5t-26 -17.5t-30 -36t-23 -66t-10 -101v-1139h-213q-6 17 -19 48.5t-69 126t-131 185.5l-457 558v-695
q0 -56 11 -98.5t26 -65t34.5 -36.5t31 -18t20.5 -5h-455q8 1 16.5 4t26 17t30 36t22.5 65.5t10 100.5z" />
    <glyph glyph-name="O" unicode="O" horiz-adv-x="1540" 
d="M750 -31q-202 0 -355.5 93.5t-233 250t-79.5 349.5q0 204 89.5 371t253.5 264.5t372 97.5q151 0 276.5 -54t209 -147.5t129.5 -220t46 -271.5q0 -149 -50.5 -282.5t-141 -233.5t-224.5 -158.5t-292 -58.5zM797 180q160 0 262 126.5t102 340.5q0 154 -47.5 275.5
t-143 193.5t-225.5 72q-159 0 -261.5 -123.5t-102.5 -339.5q0 -248 111.5 -396.5t304.5 -148.5z" />
    <glyph glyph-name="P" unicode="P" horiz-adv-x="1200" 
d="M190 227v901q0 57 -11 101.5t-25 68t-33.5 39.5t-30 20.5t-20.5 6.5h628q104 0 190.5 -34t142 -92t86 -132.5t30.5 -157.5q0 -93 -33.5 -174t-96 -141.5t-157.5 -95.5t-211 -35q-105 0 -182 24v-299q0 -57 11 -101t25.5 -66.5t33.5 -37t29.5 -18t19.5 -4.5h-502q7 0 17 3
t26.5 17t29.5 36.5t23 67t10 103.5zM467 1178v-463q75 -23 151 -23q108 0 169 68.5t61 179.5q0 106 -64.5 172t-179.5 66h-137z" />
    <glyph glyph-name="Q" unicode="Q" horiz-adv-x="1540" 
d="M846 -25q-41 -6 -96 -6q-202 0 -355.5 93.5t-233 250t-79.5 349.5q0 204 89.5 371t253.5 264.5t372 97.5q151 0 276.5 -54t209 -147.5t129.5 -220t46 -271.5q0 -187 -76.5 -345t-207.5 -255q69 -78 193.5 -122.5t248.5 -47.5q-130 -92 -320 -92q-124 0 -241.5 36
t-208.5 99zM797 180q160 0 262 126.5t102 340.5q0 154 -47.5 275.5t-143 193.5t-225.5 72q-159 0 -261.5 -123.5t-102.5 -339.5q0 -248 111.5 -396.5t304.5 -148.5z" />
    <glyph glyph-name="R" unicode="R" horiz-adv-x="1306" 
d="M188 227v899q0 58 -12 103.5t-27 69t-36 39.5t-30.5 19.5t-19.5 6.5h601q117 0 211 -33.5t152 -90t89 -127t31 -148.5q0 -144 -89.5 -250t-244.5 -127q52 -29 102 -119l183 -315q27 -47 57 -80t55 -47.5t40 -20t26 -6.5h-416l-227 420q-36 68 -65 92.5t-70 24.5h-29v-310
q0 -57 9.5 -100.5t22 -66t29 -37t26 -18.5t17.5 -5h-493q8 1 17 4t26.5 17.5t30.5 36.5t23.5 66.5t10.5 102.5zM467 721h143q122 0 183 67.5t61 167.5q0 92 -64.5 157t-181.5 65h-141v-457z" />
    <glyph glyph-name="S" unicode="S" horiz-adv-x="1105" 
d="M94 72v387q132 -287 412 -287q97 0 163 42.5t66 113.5q0 35 -16 66.5t-37.5 54t-62.5 48.5t-71.5 41.5t-85.5 42t-85 42.5q-60 32 -104 62.5t-86.5 74t-64.5 100.5t-22 125q0 130 67 224t176 139t247 45q95 0 186.5 -26.5t149.5 -66.5v-325q-45 84 -143.5 151.5
t-211.5 67.5q-99 0 -150.5 -42t-51.5 -108q0 -31 14.5 -59t33.5 -48t57 -43t66.5 -37t79.5 -38q9 -4 13 -6q47 -21 79 -37t75.5 -41t73 -48.5t61.5 -57.5t50.5 -69.5t31 -82t12.5 -98.5q0 -130 -68.5 -224t-184.5 -140t-265 -46q-112 0 -220.5 28t-183.5 75z" />
    <glyph glyph-name="T" unicode="T" horiz-adv-x="1327" 
d="M514 229v949h-248q-48 0 -82 -11.5t-60 -43.5t-36 -50t-33 -68l-6 -12q18 189 33 371h1165l31 -371q-18 45 -33 71t-43 56t-72 44t-106 14h-211v-949q0 -57 9 -100.5t21.5 -66.5t29 -38t26.5 -19t19 -5h-508q9 1 18.5 4.5t26 18t28.5 37t21.5 67t9.5 102.5z" />
    <glyph glyph-name="U" unicode="U" horiz-adv-x="1429" 
d="M166 469v666q0 57 -10 101t-22 66.5t-30 37.5t-26.5 18.5t-18.5 5.5h506q-8 -1 -16.5 -4t-25.5 -17t-29.5 -36t-22.5 -65.5t-10 -100.5v-660q0 -168 68 -239.5t214 -71.5t208.5 76t62.5 235v652q0 57 -11 101t-25 67t-33 38t-29.5 19t-20.5 6h481q-8 -1 -17.5 -4.5
t-28 -18t-32.5 -37t-25 -67.5t-11 -104v-644q0 -520 -535 -520q-290 0 -425.5 124t-135.5 376z" />
    <glyph glyph-name="V" unicode="V" horiz-adv-x="1511" 
d="M651 0l-444 1114q-25 62 -53 109.5t-49 72t-43 41.5t-31.5 21t-18.5 6h551q-10 -1 -20 -4.5t-26.5 -12.5t-27 -28.5t-10.5 -46.5t35 -113l287 -723l276 731q25 77 25 99q0 28 -10.5 49t-27 30.5t-27.5 13.5t-21 5h473q-7 -1 -16 -4.5t-31 -19.5t-43.5 -41.5t-50 -76
t-54.5 -116.5l-434 -1106h-209z" />
    <glyph glyph-name="W" unicode="W" horiz-adv-x="2119" 
d="M573 0l-372 1118q-21 61 -47 108t-46.5 71.5t-44 40.5t-33.5 20t-20 6h551q-7 -1 -16 -5.5t-21.5 -15t-21 -34t-8.5 -56.5q0 -45 24 -125l223 -671l232 639l-17 49q-19 53 -39 94.5t-35 63t-30 36.5t-22 19t-13 6h490q-8 -2 -17.5 -6t-25.5 -15.5t-26.5 -37t-10.5 -60.5
q0 -43 24 -117l224 -669l223 674q20 59 20 114q0 97 -80 117h471q-8 -1 -18.5 -5t-33 -20.5t-44 -41.5t-48.5 -75t-48 -114l-365 -1108h-223l-262 793l-274 -793h-220z" />
    <glyph glyph-name="X" unicode="X" horiz-adv-x="1427" 
d="M504 0h-494q7 1 17.5 5t36 20.5t54.5 42.5t72.5 77t90.5 119l272 391l-307 467q-39 59 -76.5 105t-62.5 70t-48 40t-32.5 20.5t-16.5 6.5h574q-60 -15 -60 -78q0 -55 68 -158l149 -229l158 223q80 115 80 170q0 25 -11.5 42.5t-21.5 22.5t-18 7h479q-6 -1 -15.5 -4.5
t-33 -18.5t-49 -38t-64 -67t-78.5 -101l-303 -426l297 -451q43 -65 84.5 -115.5t68 -75.5t50.5 -42t32.5 -20t14.5 -5h-582q9 0 21.5 5t27.5 24.5t15 50.5q0 54 -76 172l-139 211l-141 -207q-88 -133 -88 -180q0 -28 11.5 -46t22.5 -23.5t21 -6.5z" />
    <glyph glyph-name="Y" unicode="Y" horiz-adv-x="1376" 
d="M539 229v334l-322 565q-34 58 -67 103t-55.5 68.5t-45 39t-31 19.5t-16.5 6h551q-64 -11 -64 -80q0 -51 54 -145l194 -338l174 301q74 131 74 184q0 28 -12.5 46.5t-23.5 24t-21 7.5h444q-6 -2 -12 -4.5t-27.5 -18.5t-43 -39t-56 -70t-70.5 -108l-327 -551v-344
q0 -57 9.5 -101t21.5 -67t28.5 -37.5t25.5 -18.5t17 -5h-506q8 1 17 4t26.5 17.5t30.5 37t23 67t10 103.5z" />
    <glyph glyph-name="Z" unicode="Z" horiz-adv-x="1245" 
d="M45 0l666 1178h-330q-48 0 -86.5 -6.5t-65 -14.5t-48.5 -26t-34.5 -31t-25.5 -40t-18.5 -42t-16.5 -47v393h1059l-660 -1176h381q129 0 201.5 55.5t124.5 178.5l-41 -422h-1106z" />
    <glyph glyph-name="bracketleft" unicode="[" horiz-adv-x="585" 
d="M72 -354v1749h446v-146h-235v-1456h235v-147h-446z" />
    <glyph glyph-name="backslash" unicode="\" horiz-adv-x="960" 
d="M676 -31l-619 1426h224l620 -1426h-225z" />
    <glyph glyph-name="bracketright" unicode="]" horiz-adv-x="585" 
d="M68 -354v147h233v1456h-233v146h444v-1749h-444z" />
    <glyph glyph-name="asciicircum" unicode="^" horiz-adv-x="1411" 
d="M180 367l432 1073h189l432 -1073h-213l-318 821h-10l-301 -821h-211z" />
    <glyph glyph-name="underscore" unicode="_" horiz-adv-x="1155" 
d="M8 -279v111h1137v-111h-1137z" />
    <glyph glyph-name="grave" unicode="`" horiz-adv-x="995" 
d="M199 1364h342l100 -328z" />
    <glyph glyph-name="a" unicode="a" horiz-adv-x="1038" 
d="M387 668l-258 -99q-25 63 -25 115q0 90 60.5 162.5t154.5 109.5t199 37q369 0 369 -309v-379q0 -92 43 -142t123 -50q3 0 11 2t11 2l-250 -164q-52 7 -100 46.5t-59 78.5q-38 -52 -118.5 -80.5t-168.5 -28.5q-129 0 -211 67.5t-82 180.5q0 121 144 216.5t399 150.5v78
q0 176 -135 176q-72 0 -110 -31.5t-38 -71.5q0 -49 41 -67zM629 291v149q-151 -30 -224 -80.5t-73 -113.5q0 -49 37 -81t94 -32q65 0 115.5 44t50.5 114z" />
    <glyph glyph-name="b" unicode="b" horiz-adv-x="1112" 
d="M141 -31v1104q0 69 -10.5 115.5t-29.5 68.5t-39 30.5t-46 8.5h-22l407 140v-566q43 54 115 88.5t152 34.5q74 0 139 -27.5t118 -82.5t84 -147.5t31 -211.5q0 -146 -59 -271.5t-171 -203.5t-253 -78q-86 0 -144.5 14.5t-92.5 29t-60 14.5q-69 0 -119 -60zM399 578v-279
q0 -70 40.5 -107.5t111.5 -37.5q102 0 157.5 90.5t55.5 226.5q0 83 -20 154.5t-63.5 119.5t-102.5 48q-77 0 -128 -61t-51 -154z" />
    <glyph glyph-name="c" unicode="c" horiz-adv-x="944" 
d="M881 676l-250 -101q14 35 14 76q0 70 -36 113t-99 43q-86 0 -138.5 -81t-52.5 -202q0 -95 31.5 -175.5t98 -133.5t155.5 -53q76 0 155 39.5t142 113.5q-30 -160 -143.5 -253t-253.5 -93q-206 0 -320 131t-114 340q0 124 39 229t104.5 175.5t152.5 109.5t183 39
q142 0 234 -88.5t98 -228.5z" />
    <glyph glyph-name="d" unicode="d" horiz-adv-x="1116" 
d="M739 -45l-2 131q-42 -52 -119 -84.5t-159 -32.5q-79 0 -148 28.5t-123.5 85t-86 149t-31.5 210.5q0 131 40 237.5t106.5 172.5t147.5 101.5t166 35.5q129 0 191 -55v143q0 65 -10.5 109t-30.5 65t-40 29t-46 8h-21l408 148v-1143q0 -62 9 -103.5t26.5 -62t35.5 -28
t42 -7.5h26zM723 354v271q0 83 -43 132.5t-121 49.5q-100 0 -157.5 -88.5t-57.5 -216.5q0 -150 53 -243t144 -93q74 0 128 52t54 136z" />
    <glyph glyph-name="e" unicode="e" horiz-adv-x="1005" 
d="M326 446l6 -24q23 -117 106 -186.5t197 -69.5q87 0 170 37t139 104q-32 -168 -140 -253t-278 -85q-207 0 -330.5 139.5t-123.5 352.5q0 143 54.5 263t160.5 194.5t243 74.5q188 0 293.5 -143.5t106.5 -403.5h-604zM326 594h356q0 102 -43.5 167.5t-116.5 65.5
q-77 0 -132.5 -68t-63.5 -165z" />
    <glyph glyph-name="f" unicode="f" horiz-adv-x="710" 
d="M184 242v544h-159v168h159v58q0 205 102 309t259 104q26 0 54 -3t51.5 -7t27.5 -4v-235q-54 69 -131 69q-51 0 -76 -39.5t-25 -128.5v-123h232v-168h-232v-544q0 -59 9 -105.5t21.5 -70.5t28 -40t25.5 -20.5t17 -5.5h-467q8 1 16.5 4.5t25.5 18.5t29.5 38.5t22.5 71
t10 109.5z" />
    <glyph glyph-name="g" unicode="g" horiz-adv-x="1056" 
d="M494 168l235 -8q79 -2 137 -22t90 -52t47 -67.5t15 -75.5q0 -63 -33.5 -121.5t-100 -109t-181.5 -81t-263 -30.5q-192 0 -292.5 50t-100.5 130q0 67 54.5 125.5t125.5 89.5q-129 35 -129 127q0 52 56.5 110.5t128.5 98.5q-91 37 -147 116.5t-56 176.5q0 75 28.5 141
t82 117t137 80.5t186.5 29.5q70 0 164 -22q98 -23 178 -23q105 0 162 35v-188q-17 -7 -152 -7q49 -67 49 -163q0 -65 -26 -124t-75.5 -106.5t-130.5 -75.5t-183 -28q-28 0 -58 6q-84 -46 -84 -82q0 -22 39.5 -33.5t96.5 -13.5zM512 446q67 0 103 52.5t36 126.5q0 83 -44 148
t-122 65q-67 0 -103 -51t-36 -123q0 -87 45.5 -152.5t120.5 -65.5zM379 -35q-96 -54 -96 -110q0 -44 55 -68.5t160 -24.5q134 0 210 30.5t76 80.5q0 78 -172 84q-221 8 -233 8z" />
    <glyph glyph-name="h" unicode="h" horiz-adv-x="1136" 
d="M145 217v832q0 131 -35.5 178t-93.5 47h-20l410 162v-572q46 47 127.5 88t162.5 41q139 0 219 -86.5t80 -247.5v-444q0 -53 9 -93.5t21.5 -62.5t28 -36t26 -18t18.5 -5h-443q6 1 13.5 4.5t20 17t21.5 34t16 61t7 92.5v385q0 201 -141 201q-77 0 -131.5 -57.5
t-54.5 -151.5v-377q0 -52 8.5 -92t20 -61t27 -34.5t24.5 -17t16 -4.5h-463q8 1 17 4t26 17t30 35t23 63.5t10 97.5z" />
    <glyph glyph-name="i" unicode="i" horiz-adv-x="544" 
d="M143 217v445q0 107 -33 146.5t-85 39.5h-27l405 153v-784q0 -54 9.5 -96t22 -63.5t28.5 -35.5t25.5 -17.5t17.5 -4.5h-467q8 1 16.5 4t25.5 17t29.5 35t22.5 63.5t10 97.5zM96 1255q0 65 44.5 108.5t115.5 43.5q72 0 116 -43t44 -109q0 -67 -44 -111t-116 -44
q-71 0 -115.5 44t-44.5 111z" />
    <glyph glyph-name="j" unicode="j" horiz-adv-x="544" 
d="M96 1255q0 65 44.5 108.5t115.5 43.5q72 0 116 -43t44 -109q0 -67 -44 -111t-116 -44q-71 0 -115.5 44t-44.5 111zM143 -33v705q0 102 -31.5 139t-84.5 37h-29l408 153v-1032q0 -186 -87.5 -273t-238.5 -87q-81 0 -140 34.5t-85 69.5q58 -16 90 -16q95 0 146.5 60
t51.5 210z" />
    <glyph glyph-name="k" unicode="k" horiz-adv-x="1177" 
d="M143 217v842q0 55 -7.5 96t-19.5 64.5t-29.5 37.5t-34 18.5t-36.5 4.5h-20l410 147v-884l223 235q67 67 67 119q0 43 -57 57h498q-114 -39 -267 -194l-206 -209l278 -342q144 -180 227 -180q5 0 25 4q-79 -58 -258 -58q-92 0 -159 40.5t-136 134.5q-196 272 -235 313
v-246q0 -54 9 -96t21 -63.5t28 -35.5t25 -17.5t17 -4.5h-463q8 1 17 4.5t25 17.5t28 35.5t21 63.5t9 96z" />
    <glyph glyph-name="l" unicode="l" horiz-adv-x="544" 
d="M141 217v842q0 70 -10.5 116.5t-30 68t-39.5 29t-47 7.5h-18l407 147v-1210q0 -53 9 -94t21 -63t27 -36.5t25.5 -18.5t18.5 -5h-465q8 1 16.5 4t25 17t29 35t22 63.5t9.5 97.5z" />
    <glyph glyph-name="m" unicode="m" horiz-adv-x="1699" 
d="M141 211v446q0 59 -9 98.5t-25.5 59t-34.5 26.5t-43 7h-29l393 153l2 -147q53 61 141.5 100t168.5 39q79 0 138 -36t83 -103q49 60 140.5 99.5t193.5 39.5q145 0 220.5 -89.5t75.5 -252.5v-434q0 -54 9 -96t21.5 -63.5t28.5 -35.5t25 -17.5t17 -4.5h-453q7 1 16 4.5
t23.5 17.5t25 35.5t19 63.5t8.5 96v371q0 207 -133 207q-85 0 -134.5 -57t-49.5 -148v-373q0 -54 8 -95t19 -63t25 -36t23 -18t17 -5h-444q7 1 14.5 4t22 17t25.5 35t19.5 63.5t8.5 97.5v371q0 107 -35 157t-92 50q-80 0 -134.5 -59t-54.5 -146v-373q0 -54 8.5 -96t20 -63.5
t26.5 -35.5t24 -17.5t16 -4.5h-457q8 1 17 4.5t25.5 17t28.5 34.5t21.5 61.5t9.5 93.5z" />
    <glyph glyph-name="n" unicode="n" horiz-adv-x="1134" 
d="M141 211v446q0 59 -9 98.5t-26 59t-35 26.5t-42 7h-29l393 153l2 -147q51 60 137 99.5t164 39.5q138 0 217.5 -83.5t79.5 -250.5v-442q0 -54 9 -96t21.5 -63.5t28.5 -35.5t25 -17.5t17 -4.5h-455q7 1 14.5 4t22.5 16t26 33.5t20 61.5t9 94v385q0 201 -139 201
q-77 0 -134 -59.5t-57 -149.5v-377q0 -51 8.5 -91t20 -61t26 -34.5t24.5 -17.5t18 -5h-461q8 1 18 4.5t26 17t28.5 34.5t22 61.5t9.5 93.5z" />
    <glyph glyph-name="o" unicode="o" horiz-adv-x="1150" 
d="M563 -31q-224 0 -356.5 137.5t-132.5 356.5q0 228 143 379t365 151q225 0 360 -136.5t135 -354.5q0 -229 -142 -381t-372 -152zM592 154q97 0 156 88t59 219q0 143 -69.5 245.5t-182.5 102.5q-99 0 -157 -85.5t-58 -213.5q0 -144 70.5 -250t181.5 -106z" />
    <glyph glyph-name="p" unicode="p" horiz-adv-x="1112" 
d="M135 -156v803q0 117 -31.5 159t-83.5 42h-22l381 153l4 -147q47 65 122.5 102t158.5 37q71 0 136 -28.5t120 -84t87.5 -150t32.5 -214.5q0 -239 -130 -390t-341 -151q-121 0 -174 56v-187q0 -53 9 -93.5t20.5 -62t27.5 -35.5t25.5 -18t18.5 -6h-449q7 1 14 4t21.5 16.5
t25 34.5t19 63t8.5 97zM391 569v-268q0 -72 40 -109.5t116 -37.5q102 0 158.5 86.5t56.5 218.5q0 152 -50 244t-145 92q-74 0 -125 -63.5t-51 -162.5z" />
    <glyph glyph-name="q" unicode="q" horiz-adv-x="1105" 
d="M711 -156v250q-44 -56 -114 -89.5t-151 -33.5q-74 0 -139 28t-118.5 83t-85 147t-31.5 211q0 147 59.5 272.5t171.5 203t252 77.5q81 0 137.5 -14.5t91.5 -28.5t64 -14q76 0 123 59v-1151q0 -53 9 -93.5t20.5 -62t27 -35.5t25 -18t18.5 -6h-446q6 1 13 4t21.5 16.5
t24.5 34.5t18.5 63t8.5 97zM713 389v277q0 70 -40.5 107.5t-111.5 37.5q-102 0 -157.5 -91.5t-55.5 -225.5q0 -86 21.5 -158.5t65 -119t100.5 -46.5q74 0 126 62.5t52 156.5z" />
    <glyph glyph-name="r" unicode="r" horiz-adv-x="798" 
d="M139 217v459q0 104 -29.5 142t-80.5 38h-25l379 145l4 -213q35 84 108 144.5t156 60.5q58 0 107 -28v-330q-22 46 -70.5 78t-99.5 32q-79 0 -135 -82t-56 -239v-207q0 -54 9.5 -96t22 -63.5t28.5 -35.5t25.5 -17.5t17.5 -4.5h-463q8 1 16.5 4t25 17t29 35t22 63.5
t9.5 97.5z" />
    <glyph glyph-name="s" unicode="s" horiz-adv-x="827" 
d="M76 51v297q43 -90 124 -146.5t191 -56.5q60 0 99.5 22.5t39.5 65.5q0 19 -8 35t-19 28t-35.5 27t-45.5 25.5t-62.5 31.5t-72.5 38q-105 56 -152 119.5t-47 150.5q0 140 97 222.5t270 82.5q70 0 140 -15t114 -40v-274q-33 55 -101 103t-159 48q-58 0 -90.5 -23.5
t-32.5 -62.5q0 -46 39.5 -75.5t148.5 -81.5q11 -4 16 -7q130 -58 187 -127t57 -166q0 -140 -103.5 -221.5t-279.5 -81.5q-92 0 -181 23t-134 59z" />
    <glyph glyph-name="t" unicode="t" horiz-adv-x="727" 
d="M143 219v567h-145l405 461v-293h265v-168h-265v-483q0 -70 31 -103.5t82 -33.5q50 0 102.5 29t79.5 71q-21 -156 -100.5 -227.5t-200.5 -71.5q-119 0 -186.5 69.5t-67.5 182.5z" />
    <glyph glyph-name="u" unicode="u" 
d="M133 309v426q0 192 -133 219h395v-587q0 -99 35.5 -149t101.5 -50q80 0 136.5 62t56.5 151v369q0 178 -102 204h362v-655q0 -57 9 -96t25.5 -57.5t34.5 -25.5t42 -7h28l-391 -152l-2 150q-55 -64 -138.5 -103t-162.5 -39q-141 0 -219 83.5t-78 256.5z" />
    <glyph glyph-name="v" unicode="v" horiz-adv-x="1134" 
d="M479 0l-332 782q-18 42 -39 75t-37.5 50t-33.5 28.5t-26 14.5t-15 4h496q-10 -1 -19.5 -4.5t-23 -12t-21.5 -27t-8 -44.5q0 -29 22 -90l168 -414l146 392q24 62 24 98q0 30 -10.5 51.5t-27 31.5t-27.5 14t-21 5h432q-5 -1 -12.5 -4t-24.5 -15t-33.5 -30.5t-38 -53.5
t-40.5 -81l-315 -770h-183z" />
    <glyph glyph-name="w" unicode="w" horiz-adv-x="1644" 
d="M453 0l-303 782q-20 50 -44.5 86.5t-47.5 53t-36 23.5t-24 9h479q-8 -1 -16.5 -4.5t-19 -12t-17 -25.5t-6.5 -40q0 -40 22 -96l152 -414l149 394q0 11 -12 35q-15 40 -32.5 71t-31 47t-27.5 27t-20.5 14t-11.5 4h438q-13 -1 -26.5 -7t-28 -28t-14.5 -57q0 -33 20 -86
l150 -411l135 387q23 62 23 100q0 30 -9 51.5t-23.5 31.5t-24.5 14t-19 5h422q-6 -1 -14.5 -4t-26 -15t-34.5 -30t-38 -53.5t-39 -81.5l-289 -770h-182l-197 524l-196 -524h-180z" />
    <glyph glyph-name="x" unicode="x" horiz-adv-x="1081" 
d="M215 188l184 265l-227 333q-95 138 -170 168h477q-43 -14 -43 -55q0 -40 47 -108l82 -121l80 118q51 75 51 117q0 39 -39 49h416q-8 -1 -18 -4t-32 -14.5t-44.5 -29t-53.5 -51.5t-61 -79l-184 -276l244 -355q37 -55 73.5 -90.5t53 -44t26.5 -10.5h-475q4 0 11.5 3
t16.5 16t9 32q0 42 -51 121l-74 113l-72 -107q-59 -86 -59 -129q0 -39 39 -49h-418q7 1 14.5 3.5t29.5 14.5t44.5 30.5t56 55t66.5 84.5z" />
    <glyph glyph-name="y" unicode="y" 
d="M330 -393l-287 192q14 -5 39.5 -9t36.5 -1q195 -7 334 248l-299 743q-11 26 -23 49t-23.5 39t-23 29.5t-22.5 22t-20.5 15t-17.5 10t-14 5.5t-10 3l-4 1h498l-5 -2q-5 -1 -11 -3t-14 -6t-15 -11t-13 -16t-9 -23t-3 -31q0 -24 25 -94l157 -412l150 392q28 76 28 110
q-1 28 -11 48t-25.5 29.5t-26 13.5t-19.5 5h424l-2 -1q-66 -21 -128 -149q-7 -16 -15 -34l-285 -684q-77 -188 -176 -316.5t-190 -162.5z" />
    <glyph glyph-name="z" unicode="z" horiz-adv-x="970" 
d="M49 0l463 801h-221q-51 0 -91 -16.5t-61.5 -38t-36.5 -50t-19.5 -45t-6.5 -30.5v333h819l-463 -790h283q47 0 84.5 15t57 34t33.5 45.5t17.5 40.5t5.5 27v-326h-864z" />
    <glyph glyph-name="braceleft" unicode="{" horiz-adv-x="796" 
d="M283 -113v291q0 85 -11 144.5t-30 96.5t-53.5 58.5t-71 30.5t-92.5 14q71 5 113.5 18.5t78 48.5t51 101.5t15.5 171.5v293q0 61 15.5 107t50.5 76t75.5 48.5t106.5 28.5t127.5 13t152.5 4q-147 -7 -211.5 -73t-64.5 -200v-268q0 -94 -21.5 -163.5t-51.5 -107t-74 -60.5
t-78 -30t-74 -8q41 -2 74 -8.5t77.5 -29.5t74.5 -60.5t51.5 -107.5t21.5 -164v-271q0 -133 65 -198t211 -72q-78 0 -132 2.5t-113.5 9.5t-99 19t-77 32t-59 49t-34.5 70t-13 94z" />
    <glyph glyph-name="bar" unicode="|" horiz-adv-x="493" 
d="M139 -451v2048h215v-2048h-215z" />
    <glyph glyph-name="braceright" unicode="}" horiz-adv-x="796" 
d="M248 -119v271q0 94 21.5 164t51.5 107.5t74.5 60.5t77.5 29.5t74 8.5q-40 1 -74 8t-78 30t-74 60.5t-51.5 107t-21.5 163.5v268q0 134 -64.5 200t-210.5 73q77 0 131.5 -2.5t113.5 -9.5t98.5 -19t77 -32.5t59 -49.5t34.5 -70t13 -94v-293q0 -105 15.5 -171.5t51 -101.5
t78 -48.5t113.5 -18.5q-56 -5 -92.5 -14t-71 -30.5t-53.5 -58.5t-30 -96.5t-11 -144.5v-291q0 -46 -9 -83.5t-28.5 -65t-44 -48t-62 -34.5t-75 -22.5t-91 -13.5t-102 -7t-115.5 -2q146 7 210.5 72t64.5 198z" />
    <glyph glyph-name="asciitilde" unicode="~" horiz-adv-x="1417" 
d="M326 426h-197q1 109 30 190t77 125t102 64.5t115 21.5q62 1 127.5 -21.5t120 -55t104.5 -64.5t97.5 -55t82.5 -23q54 0 79 48t28 153h196q4 -199 -72.5 -304.5t-220.5 -105.5q-66 0 -134.5 23.5t-124.5 56.5t-107 66t-100.5 56.5t-88.5 23.5q-53 0 -81.5 -45t-32.5 -154z
" />
    <glyph glyph-name="uni00A0" unicode="&#xa0;" horiz-adv-x="436" 
 />
    <glyph glyph-name="exclamdown" unicode="&#xa1;" horiz-adv-x="614" 
d="M170 -96l25 415q2 35 8 70t13.5 62.5t17.5 53.5t19 45t19 36.5t16.5 27.5t12.5 18l6 9q7 -9 14 -18.5t25.5 -41.5t32 -65.5t26.5 -87t17 -109.5l24 -415q4 -65 13.5 -115t20 -76t23 -44t19.5 -22.5t13 -6.5h-455q5 1 11.5 5t19.5 20.5t23.5 42.5t20.5 77.5t15 118.5z
M150 885q0 65 44 107t115 42q70 0 113 -42t43 -107q0 -64 -43 -106t-113 -42q-71 0 -115 42t-44 106z" />
    <glyph glyph-name="cent" unicode="&#xa2;" horiz-adv-x="1136" 
d="M516 -25v195q-169 27 -261.5 154t-92.5 313q0 210 98.5 354t255.5 183v202h182v-196q118 -22 192.5 -106t78.5 -204l-248 -100q12 34 12 76q0 70 -36.5 112.5t-98.5 42.5q-87 0 -137.5 -80t-50.5 -202q0 -158 77 -260.5t199 -102.5q79 0 159 47t146 138
q-25 -146 -104 -239t-189 -124v-203h-182z" />
    <glyph glyph-name="sterling" unicode="&#xa3;" horiz-adv-x="1136" 
d="M98 -33l-73 211q82 3 128 43t68.5 131t26.5 256h-131v176h133q3 116 15 203t42 167.5t78.5 131.5t126 81t182.5 30q188 0 297 -74l-82 -233q-16 61 -73 94t-125 33q-40 0 -69 -13.5t-48 -43.5t-30.5 -63.5t-17.5 -88.5t-7.5 -103t-1.5 -121h245v-176h-245
q-2 -142 -21.5 -243t-73.5 -148q57 5 84 2q32 -1 94 -10.5t101 -9.5q95 0 153 23t115 83l66 -242q-69 -94 -248 -94q-84 0 -234 32t-223 32q-69 0 -139.5 -19t-112.5 -47z" />
    <glyph glyph-name="currency" unicode="&#xa4;" horiz-adv-x="1159" 
d="M182 408l140 135q-35 60 -35 139q0 80 32 137l-137 139l123 121l144 -143q60 29 129 29q75 0 135 -29l139 141l123 -121l-137 -137q32 -57 32 -137q0 -79 -32 -139l139 -137l-123 -121l-141 141q-64 -31 -135 -31q-67 0 -134 31l-139 -141zM578 522q71 0 111 46.5
t40 111.5t-39.5 110.5t-111.5 45.5q-70 0 -109 -46t-39 -110q0 -65 39 -111.5t109 -46.5z" />
    <glyph glyph-name="yen" unicode="&#xa5;" horiz-adv-x="1150" 
d="M57 455v145h344l-67 160h-277v143h219l-94 225q-24 57 -50.5 101.5t-46.5 68t-41 39.5t-30.5 20.5t-17.5 6.5h496q-50 -12 -50 -86q0 -61 31 -139l135 -336l119 299q49 123 49 182q0 29 -9 48t-17 25t-15 7h393q-6 -1 -13.5 -4.5t-28 -19t-40 -39t-47.5 -70.5t-53 -107
l-94 -221h213v-143h-272l-70 -160h342v-145h-358v-222q0 -58 9.5 -103t22 -68t29 -38t26 -19t17.5 -5h-500q8 1 17 4t27 17.5t31 37.5t23.5 68.5t10.5 105.5v222h-363z" />
    <glyph glyph-name="brokenbar" unicode="&#xa6;" horiz-adv-x="487" 
d="M137 666v716h213v-716h-213zM137 -358v716h213v-716h-213z" />
    <glyph glyph-name="section" unicode="&#xa7;" horiz-adv-x="1236" 
d="M293 35q63 -92 154 -135t174 -43q73 0 121.5 34t48.5 93q0 44 -28 79.5t-73 59t-103 47t-119 43t-119 48t-103 61t-73 82.5t-28 112q0 90 56 161t145 114q-83 45 -125.5 101.5t-42.5 135.5q0 92 40.5 164t109 115.5t152.5 65.5t177 22q123 0 228.5 -36.5t154.5 -98.5
q0 -3 -76.5 -92t-82.5 -95q-45 65 -114.5 99t-139.5 34q-72 0 -121 -33t-49 -90q0 -36 22 -65.5t60 -51.5t87 -41t103.5 -38t109 -40.5t103.5 -50t87 -63t60.5 -84.5t22.5 -110q0 -169 -176 -269q141 -98 141 -243q0 -118 -69 -203t-176 -124.5t-236 -39.5
q-136 0 -259.5 49.5t-209.5 138.5q0 1 40.5 46t82 91.5t43.5 49.5zM739 358q49 16 81 51t32 85q0 21 -9.5 41.5t-22.5 36t-39 33t-45 28t-56 26t-56 23t-59 22.5l-24 9q-60 -20 -95.5 -58t-35.5 -82q0 -23 9.5 -43t31 -37.5t42 -31.5t56.5 -29.5t60 -25t66.5 -25t63.5 -23.5
z" />
    <glyph glyph-name="dieresis" unicode="&#xa8;" horiz-adv-x="995" 
d="M567 1253q0 55 36 90t97 35t97.5 -35t36.5 -90q0 -56 -37.5 -92.5t-96.5 -36.5q-60 0 -96.5 36t-36.5 93zM164 1253q0 55 38 90t99 35q59 0 95 -35t36 -90q0 -56 -36 -92.5t-95 -36.5q-61 0 -99 36.5t-38 92.5z" />
    <glyph glyph-name="copyright" unicode="&#xa9;" horiz-adv-x="1519" 
d="M758 -23q-106 0 -206 28t-189.5 86t-156.5 140t-106 198t-39 253t39 253t106 198t156.5 140t189.5 85.5t206 27.5q105 0 204.5 -27.5t188.5 -85t155 -139.5t105 -198.5t39 -253.5t-39 -253.5t-105 -198.5t-155 -140t-188.5 -85.5t-204.5 -27.5zM758 70q113 0 216.5 39
t187.5 112.5t134 193t50 267.5t-50 267.5t-134 193t-187.5 112.5t-216.5 39q-90 0 -175 -24t-161 -74t-133 -121t-90 -172t-33 -219q0 -119 33 -220t90 -172.5t133 -122.5t161 -75t175 -24zM1030 508v-174q-37 -50 -110 -84.5t-148 -34.5q-102 0 -183 38t-130 102t-75 143
t-26 166q0 129 50.5 238t149.5 177t228 68q117 0 230 -72v-297q-34 111 -92 166t-129 55q-112 0 -178 -88t-66 -217q0 -133 68 -226t184 -93q135 0 227 133z" />
    <glyph glyph-name="ordfeminine" unicode="&#xaa;" horiz-adv-x="772" 
d="M264 1161l-190 -71q-19 51 -19 84q0 66 44 118t111.5 78.5t143.5 26.5q267 0 267 -223v-273q0 -141 124 -141q1 0 21 4l-191 -117q-37 6 -71.5 33.5t-42.5 54.5q-29 -36 -87 -56t-120 -20q-93 0 -152 49t-59 130q0 88 103.5 157.5t285.5 106.5v55q0 64 -23 94.5t-73 30.5
q-51 0 -78 -21t-27 -49q0 -36 33 -51zM432 891v108q-211 -44 -211 -141q0 -34 25.5 -56t66.5 -22q48 0 83.5 30t35.5 81z" />
    <glyph glyph-name="guillemotleft" unicode="&#xab;" horiz-adv-x="890" 
d="M653 131l-233 385l233 383h197l-234 -383l234 -385h-197zM272 131l-233 385l233 383h197l-233 -383l233 -385h-197z" />
    <glyph glyph-name="logicalnot" unicode="&#xac;" horiz-adv-x="1411" 
d="M143 662v180h1125v-555h-183v375h-942z" />
    <glyph glyph-name="uni00AD" unicode="&#xad;" horiz-adv-x="696" 
d="M90 426v195h518v-195h-518z" />
    <glyph glyph-name="registered" unicode="&#xae;" horiz-adv-x="1511" 
d="M758 -23q-106 0 -206 28t-189.5 86t-156.5 140t-106 198t-39 253t39 253t106 198t156.5 140t189.5 85.5t206 27.5q105 0 204.5 -27.5t188.5 -85t155 -139.5t105 -198.5t39 -253.5t-39 -253.5t-105 -198.5t-155 -140t-188.5 -85.5t-204.5 -27.5zM758 70q113 0 216.5 39
t187.5 112.5t134 193t50 267.5t-50 267.5t-134 193t-187.5 112.5t-216.5 39q-90 0 -175 -24t-161 -74t-133 -121t-90 -172t-33 -219q0 -119 33 -220t90 -172.5t133 -122.5t161 -75t175 -24zM516 399v582q0 28 -3 52t-8.5 40t-12 28t-13.5 19t-12 11.5t-9 6.5l-5 3h331
q129 0 201 -78.5t72 -183.5q0 -92 -50 -166.5t-133 -83.5q40 -24 76 -105l72 -174q9 -21 19.5 -38t19 -27.5t18 -19t15.5 -12t12 -6.5l6 -3h-225l-103 254q-38 92 -86 92h-22v-191q0 -29 3 -52.5t7.5 -39t10 -27t11.5 -18t10.5 -10.5t8.5 -6l4 -2h-270l4 2q4 3 8.5 6.5
t10.5 10t11.5 18.5t10 27t7.5 39t3 52zM676 713h86q60 0 97.5 42t37.5 109q0 63 -36.5 106.5t-98.5 43.5h-86v-301z" />
    <glyph glyph-name="macron" unicode="&#xaf;" horiz-adv-x="995" 
d="M162 1174v122h669v-122h-669z" />
    <glyph glyph-name="degree" unicode="&#xb0;" horiz-adv-x="768" 
d="M102 1112q0 116 78.5 199.5t216.5 83.5q136 0 214.5 -83.5t78.5 -199.5q0 -117 -78.5 -201t-214.5 -84t-215.5 84t-79.5 201zM397 952q69 0 110.5 47t41.5 113q0 65 -41 110.5t-111 45.5t-110.5 -45.5t-40.5 -110.5q0 -66 41 -113t110 -47z" />
    <glyph glyph-name="plusminus" unicode="&#xb1;" horiz-adv-x="1411" 
d="M162 698v181h452v376h185v-376h450v-181h-450v-381h-185v381h-452zM162 0v180h1087v-180h-1087z" />
    <glyph glyph-name="twosuperior" unicode="&#xb2;" horiz-adv-x="755" 
d="M37 588l205 221q118 127 166.5 195.5t48.5 130.5q0 46 -34.5 77t-96.5 31q-37 0 -58.5 -19.5t-21.5 -45.5t18 -44.5t43 -23.5q-5 -6 -119 -137q-59 15 -96 61.5t-37 110.5q0 41 19 82.5t56.5 78.5t102 60t146.5 23q77 0 142.5 -24.5t110 -79.5t44.5 -132t-58 -161.5
t-161 -182.5l-80 -76h211q83 0 123 66l-43 -211h-631z" />
    <glyph glyph-name="threesuperior" unicode="&#xb3;" horiz-adv-x="755" 
d="M55 715l189 125q11 -68 49 -104t86 -36q39 0 64.5 21t25.5 59q0 61 -65 100t-177 40l31 118q39 -8 78 -8q55 0 91 32t36 83q0 42 -32.5 75t-84.5 33q-43 0 -67.5 -19t-24.5 -46q0 -29 22 -45l-176 -76q-37 43 -37 107q0 78 82.5 145t231.5 67q137 0 215 -59t78 -145
q0 -74 -54 -131t-133 -72q92 -21 147.5 -72t55.5 -125q0 -72 -48 -123.5t-117 -73.5t-148 -22q-117 0 -204.5 44t-113.5 108z" />
    <glyph glyph-name="acute" unicode="&#xb4;" horiz-adv-x="995" 
d="M418 1036l98 328h338z" />
    <glyph glyph-name="mu" unicode="&#xb5;" horiz-adv-x="1130" 
d="M141 -158v1116h262v-589q0 -100 40.5 -150.5t111.5 -50.5q77 0 124.5 61t47.5 152v577h260v-659q0 -186 141 -186l-225 -152q-55 14 -95 57t-60 101q-87 -150 -209 -150q-39 0 -76.5 18.5t-59.5 47.5v-406h-378q16 4 32 14t37 31.5t34 65t13 102.5z" />
    <glyph glyph-name="paragraph" unicode="&#xb6;" horiz-adv-x="1370" 
d="M645 -369v656q-250 6 -404.5 159t-154.5 377q0 108 38.5 204.5t113.5 174t199 123t282 45.5h469q-33 -121 -33 -326v-1415h-164v1598h-182v-1596h-164z" />
    <glyph glyph-name="periodcentered" unicode="&#xb7;" horiz-adv-x="520" 
d="M82 485q0 75 49 123.5t129 48.5q81 0 130.5 -48.5t49.5 -123.5q0 -73 -50.5 -122.5t-129.5 -49.5q-80 0 -129 49t-49 123z" />
    <glyph glyph-name="cedilla" unicode="&#xb8;" horiz-adv-x="995" 
d="M367 -139l98 157h135l-61 -94q80 -10 123 -50.5t43 -92.5q0 -63 -58.5 -109.5t-157.5 -46.5q-107 0 -180 49q27 -6 64 -6q71 0 114 30t43 69q0 38 -42 65.5t-121 28.5z" />
    <glyph glyph-name="onesuperior" unicode="&#xb9;" horiz-adv-x="585" 
d="M61 915v209q99 111 205 254h166v-585q0 -26 2.5 -49.5t7.5 -41.5t10.5 -32.5t14 -26t14.5 -19t15 -14.5t13.5 -10t12 -7.5t8.5 -4.5h-401q34 21 50 40q44 56 44 165v305z" />
    <glyph glyph-name="ordmasculine" unicode="&#xba;" horiz-adv-x="806" 
d="M393 659q-157 0 -252.5 97.5t-95.5 257.5q0 168 103.5 275.5t259.5 107.5q158 0 256 -97t98 -256q0 -168 -103 -276.5t-266 -108.5zM416 795q69 0 110 64t41 155q0 98 -50.5 173t-127.5 75q-69 0 -110 -62.5t-41 -150.5q0 -101 50.5 -177.5t127.5 -76.5z" />
    <glyph glyph-name="guillemotright" unicode="&#xbb;" horiz-adv-x="890" 
d="M420 131l231 385l-231 383h194l234 -383l-234 -385h-194zM41 131l233 385l-233 383h195l235 -383l-235 -385h-195z" />
    <glyph glyph-name="onequarter" unicode="&#xbc;" horiz-adv-x="1626" 
d="M858 170v37l322 579h237v-487h94v-129h-94v-47q0 -44 13.5 -73t26.5 -38t26 -12h-340q9 2 18 7.5t22 18t21 38t8 59.5v47h-354zM291 0l794 1395h168l-790 -1395h-172zM88 915v209q99 111 205 254h166v-585q0 -26 2.5 -49.5t7.5 -41.5t10.5 -32.5t14 -26t14.5 -19
t15 -14.5t13.5 -10t12 -7.5t8.5 -4.5h-401q34 21 50 40q44 56 44 165v305zM1049 299h163v311z" />
    <glyph glyph-name="onehalf" unicode="&#xbd;" horiz-adv-x="1681" 
d="M88 915v209q99 111 205 254h166v-585q0 -26 2.5 -49.5t7.5 -41.5t10.5 -32.5t14 -26t14.5 -19t15 -14.5t13.5 -10t12 -7.5t8.5 -4.5h-401q34 21 50 40q44 56 44 165v305zM274 0l795 1395h168l-791 -1395h-172zM926 0l204 221q119 128 167.5 196t48.5 130q0 46 -35 77
t-97 31q-37 0 -58 -19.5t-21 -45.5t18 -44.5t43 -23.5q-5 -6 -119 -137q-59 15 -96 61.5t-37 110.5q0 41 19 82.5t56.5 78.5t102 60t146.5 23q77 0 142.5 -24.5t110 -79.5t44.5 -132t-58 -161.5t-161 -182.5l-80 -76h211q82 0 122 66l-43 -211h-630z" />
    <glyph glyph-name="threequarters" unicode="&#xbe;" horiz-adv-x="1843" 
d="M991 170v37l322 579h237v-487h95v-129h-95v-47q0 -44 13.5 -73t26.5 -38t26 -12h-340q9 2 18 7.5t22.5 18t21.5 38t8 59.5v47h-355zM66 715l188 125q11 -68 49 -104t86 -36q39 0 64.5 21t25.5 59q0 61 -64.5 100t-176.5 40l30 118q39 -8 78 -8q55 0 91 32t36 83
q0 42 -32.5 75t-84.5 33q-43 0 -67.5 -19t-24.5 -46q0 -29 23 -45l-176 -76q-37 43 -37 107q0 78 82 145t231 67q137 0 215 -59t78 -145q0 -74 -53.5 -131t-132.5 -72q92 -21 147 -72t55 -125q0 -72 -48 -123.5t-117 -73.5t-148 -22q-117 0 -204 44t-113 108zM424 0
l795 1395h167l-790 -1395h-172zM1182 299h164v311z" />
    <glyph glyph-name="questiondown" unicode="&#xbf;" horiz-adv-x="942" 
d="M342 893q0 65 44 107t114 42q71 0 114 -42t43 -107q0 -64 -43 -106t-114 -42q-70 0 -114 42t-44 106zM797 47v-342q-66 -39 -166.5 -64.5t-200.5 -25.5q-182 0 -291.5 83.5t-109.5 229.5q0 62 22.5 118t58 98t78.5 80.5t86.5 73.5t79 68.5t58 73t22.5 80.5t-16 60.5
t-49 29.5q37 43 106 43q81 0 142 -48.5t61 -135.5q0 -53 -19.5 -100.5t-50 -83.5t-68 -69.5t-75 -64t-68 -60t-50 -64.5t-19.5 -72q0 -63 44 -100t111 -37q86 0 174 58.5t140 170.5z" />
    <glyph glyph-name="Agrave" unicode="&#xc0;" horiz-adv-x="1529" 
d="M203 262l430 1102h241l451 -1108q24 -62 51.5 -110.5t49 -74t43 -43t32.5 -22t19 -6.5h-551q9 1 19 5t24 14t23 30t9 47q0 11 -4 29t-13 44.5t-16.5 47.5t-20.5 55t-19 52h-522l-43 -127q-21 -62 -21 -91q0 -31 10 -53t25.5 -32.5t27 -15t21.5 -5.5h-459q8 1 18.5 5.5
t31 21t41.5 43t48.5 76.5t53.5 116zM516 502h385l-194 504zM412 1755h342l100 -328z" />
    <glyph glyph-name="Aacute" unicode="&#xc1;" horiz-adv-x="1529" 
d="M203 262l430 1102h241l451 -1108q24 -62 51.5 -110.5t49 -74t43 -43t32.5 -22t19 -6.5h-551q9 1 19 5t24 14t23 30t9 47q0 11 -4 29t-13 44.5t-16.5 47.5t-20.5 55t-19 52h-522l-43 -127q-21 -62 -21 -91q0 -31 10 -53t25.5 -32.5t27 -15t21.5 -5.5h-459q8 1 18.5 5.5
t31 21t41.5 43t48.5 76.5t53.5 116zM516 502h385l-194 504zM655 1427l99 328h338z" />
    <glyph glyph-name="Acircumflex" unicode="&#xc2;" horiz-adv-x="1529" 
d="M203 262l430 1102h241l451 -1108q24 -62 51.5 -110.5t49 -74t43 -43t32.5 -22t19 -6.5h-551q9 1 19 5t24 14t23 30t9 47q0 11 -4 29t-13 44.5t-16.5 47.5t-20.5 55t-19 52h-522l-43 -127q-21 -62 -21 -91q0 -31 10 -53t25.5 -32.5t27 -15t21.5 -5.5h-459q8 1 18.5 5.5
t31 21t41.5 43t48.5 76.5t53.5 116zM516 502h385l-194 504zM756 1810l327 -383q-25 13 -163.5 68t-163.5 68q-24 -13 -160 -68.5t-160 -67.5q24 30 159.5 191.5t160.5 191.5z" />
    <glyph glyph-name="Atilde" unicode="&#xc3;" horiz-adv-x="1529" 
d="M203 262l430 1102h241l451 -1108q24 -62 51.5 -110.5t49 -74t43 -43t32.5 -22t19 -6.5h-551q9 1 19 5t24 14t23 30t9 47q0 11 -4 29t-13 44.5t-16.5 47.5t-20.5 55t-19 52h-522l-43 -127q-21 -62 -21 -91q0 -31 10 -53t25.5 -32.5t27 -15t21.5 -5.5h-459q8 1 18.5 5.5
t31 21t41.5 43t48.5 76.5t53.5 116zM516 502h385l-194 504zM492 1458q-50 50 -50 117q0 72 47.5 125t128.5 53q48 0 110.5 -27t119 -54t88.5 -27q96 0 96 139q45 -45 45 -111q0 -75 -50.5 -132.5t-131.5 -57.5q-46 0 -103 28.5t-110.5 57t-91.5 28.5q-95 0 -98 -139z" />
    <glyph glyph-name="Adieresis" unicode="&#xc4;" horiz-adv-x="1529" 
d="M203 262l430 1102h241l451 -1108q24 -62 51.5 -110.5t49 -74t43 -43t32.5 -22t19 -6.5h-551q9 1 19 5t24 14t23 30t9 47q0 11 -4 29t-13 44.5t-16.5 47.5t-20.5 55t-19 52h-522l-43 -127q-21 -62 -21 -91q0 -31 10 -53t25.5 -32.5t27 -15t21.5 -5.5h-459q8 1 18.5 5.5
t31 21t41.5 43t48.5 76.5t53.5 116zM516 502h385l-194 504zM829 1618q0 55 36.5 90t97.5 35t97 -35t36 -90q0 -56 -37 -92.5t-96 -36.5q-61 0 -97.5 36.5t-36.5 92.5zM426 1618q0 55 38 90t99 35q59 0 95 -35t36 -90q0 -56 -36 -92.5t-95 -36.5q-61 0 -99 36.5t-38 92.5z
" />
    <glyph glyph-name="Aring" unicode="&#xc5;" horiz-adv-x="1529" 
d="M203 262l430 1102h241l451 -1108q24 -62 51.5 -110.5t49 -74t43 -43t32.5 -22t19 -6.5h-551q9 1 19 5t24 14t23 30t9 47q0 11 -4 29t-13 44.5t-16.5 47.5t-20.5 55t-19 52h-522l-43 -127q-21 -62 -21 -91q0 -31 10 -53t25.5 -32.5t27 -15t21.5 -5.5h-459q8 1 18.5 5.5
t31 21t41.5 43t48.5 76.5t53.5 116zM516 502h385l-194 504zM760 1432q-85 0 -143 55t-58 147q0 91 58 145t143 54q86 0 144.5 -53.5t58.5 -145.5q0 -93 -58.5 -147.5t-144.5 -54.5zM760 1522q44 0 74 30.5t30 81.5t-29.5 80t-74.5 29q-46 0 -76.5 -29.5t-30.5 -79.5
q0 -51 31 -81.5t76 -30.5z" />
    <glyph glyph-name="AE" unicode="&#xc6;" horiz-adv-x="2037" 
d="M504 0h-502q8 2 17 6t33.5 21.5t50 43t66 77t83.5 118.5l557 881q74 119 74 172q0 37 -25 45h1043v-365q-14 40 -29 67.5t-42.5 55.5t-72 42t-106.5 14h-260v-396h225q48 0 83 9.5t51.5 25t22.5 25t9 18.5v-344q-27 80 -162 80h-229v-408h280q127 0 194 42.5t124 150.5
l-64 -381h-942q10 2 22 7.5t30 24t31.5 47t23.5 82t10 122.5v313h-379l-197 -326q-73 -119 -73 -192q0 -28 11.5 -46.5t22 -24t19.5 -7.5zM834 780h266v437z" />
    <glyph glyph-name="Ccedilla" unicode="&#xc7;" horiz-adv-x="1308" 
d="M598 -139l70 114q-115 13 -212 56.5t-165 108t-115 147t-69.5 175t-22.5 191.5q0 114 29.5 221t90.5 202t147.5 166t209 112t266.5 41q216 0 367 -80v-393q-49 124 -148.5 196t-240.5 72q-184 0 -299 -141.5t-115 -356.5q0 -144 50.5 -259t147 -182t222.5 -67
q110 0 222 57t188 154v-235q-70 -81 -183.5 -133t-238.5 -58l-29 -45q80 -10 123 -50.5t43 -92.5q0 -63 -58 -109.5t-157 -46.5q-107 0 -180 49q27 -6 63 -6q71 0 114.5 30t43.5 69q0 38 -42.5 65.5t-121.5 28.5z" />
    <glyph glyph-name="Egrave" unicode="&#xc8;" horiz-adv-x="1126" 
d="M184 244v891q0 56 -12 99.5t-26.5 66t-35.5 38t-31.5 19.5t-21.5 6h928v-365q-12 40 -27.5 68t-43 55.5t-72.5 41.5t-107 14h-258v-396h225q39 0 69.5 6.5t46.5 14.5t27.5 19.5t15 17.5t5.5 12v-324q-23 68 -159 68h-230v-408h279q128 0 194 42t125 151l-65 -381h-936
q8 1 17.5 4.5t27 19.5t31 40t24 71t10.5 109zM295 1755h342l100 -328z" />
    <glyph glyph-name="Eacute" unicode="&#xc9;" horiz-adv-x="1126" 
d="M184 244v891q0 56 -12 99.5t-26.5 66t-35.5 38t-31.5 19.5t-21.5 6h928v-365q-12 40 -27.5 68t-43 55.5t-72.5 41.5t-107 14h-258v-396h225q39 0 69.5 6.5t46.5 14.5t27.5 19.5t15 17.5t5.5 12v-324q-23 68 -159 68h-230v-408h279q128 0 194 42t125 151l-65 -381h-936
q8 1 17.5 4.5t27 19.5t31 40t24 71t10.5 109zM444 1427l99 328h338z" />
    <glyph glyph-name="Ecircumflex" unicode="&#xca;" horiz-adv-x="1126" 
d="M184 244v891q0 56 -12 99.5t-26.5 66t-35.5 38t-31.5 19.5t-21.5 6h928v-365q-12 40 -27.5 68t-43 55.5t-72.5 41.5t-107 14h-258v-396h225q39 0 69.5 6.5t46.5 14.5t27.5 19.5t15 17.5t5.5 12v-324q-23 68 -159 68h-230v-408h279q128 0 194 42t125 151l-65 -381h-936
q8 1 17.5 4.5t27 19.5t31 40t24 71t10.5 109zM571 1810l328 -383q-25 13 -163.5 68.5t-164.5 67.5q-25 -12 -159.5 -67.5t-159.5 -68.5q25 30 160 191t159 192z" />
    <glyph glyph-name="Edieresis" unicode="&#xcb;" horiz-adv-x="1126" 
d="M184 244v891q0 56 -12 99.5t-26.5 66t-35.5 38t-31.5 19.5t-21.5 6h928v-365q-12 40 -27.5 68t-43 55.5t-72.5 41.5t-107 14h-258v-396h225q39 0 69.5 6.5t46.5 14.5t27.5 19.5t15 17.5t5.5 12v-324q-23 68 -159 68h-230v-408h279q128 0 194 42t125 151l-65 -381h-936
q8 1 17.5 4.5t27 19.5t31 40t24 71t10.5 109zM645 1618q0 55 36 90t97 35t97 -35t36 -90q0 -56 -37 -92.5t-96 -36.5q-60 0 -96.5 36.5t-36.5 92.5zM242 1618q0 55 38 90t99 35q59 0 95 -35t36 -90q0 -56 -36 -92.5t-95 -36.5q-61 0 -99 36.5t-38 92.5z" />
    <glyph glyph-name="Igrave" unicode="&#xcc;" horiz-adv-x="653" 
d="M176 211v932q0 54 -10 96.5t-22.5 64t-30.5 36.5t-26 18t-17 6h503q-7 -1 -15 -4t-26 -17.5t-31 -36t-23.5 -64.5t-10.5 -99v-932q0 -52 9.5 -92t22 -61.5t29 -35t26.5 -17.5t17 -5h-501q8 1 17 4t26 16.5t30 34.5t23 62t10 94zM16 1755h342l101 -328z" />
    <glyph glyph-name="Iacute" unicode="&#xcd;" horiz-adv-x="653" 
d="M176 211v932q0 54 -10 96.5t-22.5 64t-30.5 36.5t-26 18t-17 6h503q-7 -1 -15 -4t-26 -17.5t-31 -36t-23.5 -64.5t-10.5 -99v-932q0 -52 9.5 -92t22 -61.5t29 -35t26.5 -17.5t17 -5h-501q8 1 17 4t26 16.5t30 34.5t23 62t10 94zM203 1427l98 328h338z" />
    <glyph glyph-name="Icircumflex" unicode="&#xce;" horiz-adv-x="653" 
d="M176 211v932q0 54 -10 96.5t-22.5 64t-30.5 36.5t-26 18t-17 6h503q-7 -1 -15 -4t-26 -17.5t-31 -36t-23.5 -64.5t-10.5 -99v-932q0 -52 9.5 -92t22 -61.5t29 -35t26.5 -17.5t17 -5h-501q8 1 17 4t26 16.5t30 34.5t23 62t10 94zM324 1810l327 -383q-26 13 -164 68
t-163 68q-25 -13 -160.5 -68.5t-159.5 -67.5q25 30 160.5 191.5t159.5 191.5z" />
    <glyph glyph-name="Idieresis" unicode="&#xcf;" horiz-adv-x="653" 
d="M176 211v932q0 54 -10 96.5t-22.5 64t-30.5 36.5t-26 18t-17 6h503q-7 -1 -15 -4t-26 -17.5t-31 -36t-23.5 -64.5t-10.5 -99v-932q0 -52 9.5 -92t22 -61.5t29 -35t26.5 -17.5t17 -5h-501q8 1 17 4t26 16.5t30 34.5t23 62t10 94zM397 1618q0 55 36 90t97 35t97.5 -35
t36.5 -90q0 -56 -37.5 -92.5t-96.5 -36.5q-60 0 -96.5 36.5t-36.5 92.5zM-6 1618q0 55 38 90t99 35q59 0 95 -35t36 -90q0 -56 -36 -92.5t-95 -36.5q-61 0 -99 36.5t-38 92.5z" />
    <glyph glyph-name="Eth" unicode="&#xd0;" horiz-adv-x="1486" 
d="M193 254v346h-148v152h148v383q0 57 -12 100.5t-26.5 66t-35.5 38t-31.5 19t-21.5 5.5h632q320 0 512.5 -185t192.5 -483q0 -110 -26 -210t-83.5 -189.5t-141 -155t-205.5 -103.5t-271 -38h-596q8 1 18 4.5t28.5 19.5t32 41t24 74.5t10.5 114.5zM487 188h201
q100 0 179 41.5t127 111.5t73 156.5t25 182.5q0 228 -117 363t-346 135h-142v-426h250v-152h-250v-412z" />
    <glyph glyph-name="Ntilde" unicode="&#xd1;" horiz-adv-x="1480" 
d="M193 223v899q0 44 -18.5 85t-42.5 66.5t-55 48t-45.5 30t-25.5 12.5h434l643 -805v580q0 56 -10.5 98.5t-23.5 65t-31.5 37.5t-27.5 18.5t-19 5.5h444q-8 -1 -17 -4.5t-26 -17.5t-30 -36t-23 -66t-10 -101v-1139h-213q-6 17 -19 48.5t-69 126t-131 185.5l-457 558v-695
q0 -56 11 -98.5t26 -65t34.5 -36.5t31 -18t20.5 -5h-455q8 1 16.5 4t26 17t30 36t22.5 65.5t10 100.5zM485 1458q-49 49 -49 117q0 72 47.5 125t128.5 53q48 0 110.5 -27t119 -54t88.5 -27q96 0 96 139q45 -45 45 -111q0 -75 -50.5 -132.5t-131.5 -57.5q-46 0 -103 28.5
t-110.5 57t-91.5 28.5q-46 0 -72 -35.5t-27 -103.5z" />
    <glyph glyph-name="Ograve" unicode="&#xd2;" horiz-adv-x="1540" 
d="M750 -31q-202 0 -355.5 93.5t-233 250t-79.5 349.5q0 204 89.5 371t253.5 264.5t372 97.5q151 0 276.5 -54t209 -147.5t129.5 -220t46 -271.5q0 -149 -50.5 -282.5t-141 -233.5t-224.5 -158.5t-292 -58.5zM797 180q160 0 262 126.5t102 340.5q0 154 -47.5 275.5
t-143 193.5t-225.5 72q-159 0 -261.5 -123.5t-102.5 -339.5q0 -248 111.5 -396.5t304.5 -148.5zM483 1755h342l101 -328z" />
    <glyph glyph-name="Oacute" unicode="&#xd3;" horiz-adv-x="1540" 
d="M750 -31q-202 0 -355.5 93.5t-233 250t-79.5 349.5q0 204 89.5 371t253.5 264.5t372 97.5q151 0 276.5 -54t209 -147.5t129.5 -220t46 -271.5q0 -149 -50.5 -282.5t-141 -233.5t-224.5 -158.5t-292 -58.5zM797 180q160 0 262 126.5t102 340.5q0 154 -47.5 275.5
t-143 193.5t-225.5 72q-159 0 -261.5 -123.5t-102.5 -339.5q0 -248 111.5 -396.5t304.5 -148.5zM608 1427l99 328h337z" />
    <glyph glyph-name="Ocircumflex" unicode="&#xd4;" horiz-adv-x="1540" 
d="M750 -31q-202 0 -355.5 93.5t-233 250t-79.5 349.5q0 204 89.5 371t253.5 264.5t372 97.5q151 0 276.5 -54t209 -147.5t129.5 -220t46 -271.5q0 -149 -50.5 -282.5t-141 -233.5t-224.5 -158.5t-292 -58.5zM797 180q160 0 262 126.5t102 340.5q0 154 -47.5 275.5
t-143 193.5t-225.5 72q-159 0 -261.5 -123.5t-102.5 -339.5q0 -248 111.5 -396.5t304.5 -148.5zM776 1810l328 -383q-26 13 -164 68.5t-164 67.5q-24 -12 -159.5 -67.5t-159.5 -68.5q25 30 159.5 191t159.5 192z" />
    <glyph glyph-name="Otilde" unicode="&#xd5;" horiz-adv-x="1540" 
d="M750 -31q-202 0 -355.5 93.5t-233 250t-79.5 349.5q0 204 89.5 371t253.5 264.5t372 97.5q151 0 276.5 -54t209 -147.5t129.5 -220t46 -271.5q0 -149 -50.5 -282.5t-141 -233.5t-224.5 -158.5t-292 -58.5zM797 180q160 0 262 126.5t102 340.5q0 154 -47.5 275.5
t-143 193.5t-225.5 72q-159 0 -261.5 -123.5t-102.5 -339.5q0 -248 111.5 -396.5t304.5 -148.5zM512 1458q-49 49 -49 117q0 72 47.5 125t128.5 53q48 0 110.5 -27t118.5 -54t88 -27q97 0 97 139q45 -45 45 -111q0 -75 -51 -132.5t-132 -57.5q-46 0 -103 28.5t-110.5 57
t-91.5 28.5q-95 0 -98 -139z" />
    <glyph glyph-name="Odieresis" unicode="&#xd6;" horiz-adv-x="1540" 
d="M750 -31q-202 0 -355.5 93.5t-233 250t-79.5 349.5q0 204 89.5 371t253.5 264.5t372 97.5q151 0 276.5 -54t209 -147.5t129.5 -220t46 -271.5q0 -149 -50.5 -282.5t-141 -233.5t-224.5 -158.5t-292 -58.5zM797 180q160 0 262 126.5t102 340.5q0 154 -47.5 275.5
t-143 193.5t-225.5 72q-159 0 -261.5 -123.5t-102.5 -339.5q0 -248 111.5 -396.5t304.5 -148.5zM852 1618q0 55 36 90t97 35t97 -35t36 -90q0 -56 -37 -92.5t-96 -36.5q-61 0 -97 36.5t-36 92.5zM449 1618q0 55 38 90t99 35q59 0 95 -35t36 -90q0 -56 -36 -92.5t-95 -36.5
q-61 0 -99 36.5t-38 92.5z" />
    <glyph glyph-name="multiply" unicode="&#xd7;" horiz-adv-x="1411" 
d="M258 2l-127 129l447 449l-447 448l127 129l449 -450l446 448l129 -127l-448 -450l448 -447l-129 -129l-446 449z" />
    <glyph glyph-name="Oslash" unicode="&#xd8;" horiz-adv-x="1523" 
d="M184 -45l115 172q-109 96 -167 236.5t-58 300.5q0 146 49.5 278t139.5 233.5t226 161.5t299 60q172 0 314 -76l80 123l147 -51l-104 -158q108 -96 166.5 -236.5t58.5 -298.5q0 -145 -48.5 -276.5t-137 -233.5t-224.5 -162.5t-299 -60.5q-174 0 -319 74l-88 -133zM461 373
l502 741q-99 76 -226 76q-159 0 -261.5 -124t-102.5 -341q0 -213 88 -352zM1065 993l-502 -741q95 -74 225 -74q160 0 262.5 127.5t102.5 341.5q0 207 -88 346z" />
    <glyph glyph-name="Ugrave" unicode="&#xd9;" horiz-adv-x="1429" 
d="M166 469v666q0 57 -10 101t-22 66.5t-30 37.5t-26.5 18.5t-18.5 5.5h506q-8 -1 -16.5 -4t-25.5 -17t-29.5 -36t-22.5 -65.5t-10 -100.5v-660q0 -168 68 -239.5t214 -71.5t208.5 76t62.5 235v652q0 57 -11 101t-25 67t-33 38t-29.5 19t-20.5 6h481q-8 -1 -17.5 -4.5
t-28 -18t-32.5 -37t-25 -67.5t-11 -104v-644q0 -520 -535 -520q-290 0 -425.5 124t-135.5 376zM399 1755h342l101 -328z" />
    <glyph glyph-name="Uacute" unicode="&#xda;" horiz-adv-x="1429" 
d="M166 469v666q0 57 -10 101t-22 66.5t-30 37.5t-26.5 18.5t-18.5 5.5h506q-8 -1 -16.5 -4t-25.5 -17t-29.5 -36t-22.5 -65.5t-10 -100.5v-660q0 -168 68 -239.5t214 -71.5t208.5 76t62.5 235v652q0 57 -11 101t-25 67t-33 38t-29.5 19t-20.5 6h481q-8 -1 -17.5 -4.5
t-28 -18t-32.5 -37t-25 -67.5t-11 -104v-644q0 -520 -535 -520q-290 0 -425.5 124t-135.5 376zM641 1427l98 328h338z" />
    <glyph glyph-name="Ucircumflex" unicode="&#xdb;" horiz-adv-x="1429" 
d="M166 469v666q0 57 -10 101t-22 66.5t-30 37.5t-26.5 18.5t-18.5 5.5h506q-8 -1 -16.5 -4t-25.5 -17t-29.5 -36t-22.5 -65.5t-10 -100.5v-660q0 -168 68 -239.5t214 -71.5t208.5 76t62.5 235v652q0 57 -11 101t-25 67t-33 38t-29.5 19t-20.5 6h481q-8 -1 -17.5 -4.5
t-28 -18t-32.5 -37t-25 -67.5t-11 -104v-644q0 -520 -535 -520q-290 0 -425.5 124t-135.5 376zM719 1810l328 -383q-25 13 -163.5 68.5t-164.5 67.5q-24 -13 -159.5 -68.5t-160.5 -67.5q25 30 160 191.5t160 191.5z" />
    <glyph glyph-name="Udieresis" unicode="&#xdc;" horiz-adv-x="1429" 
d="M166 469v666q0 57 -10 101t-22 66.5t-30 37.5t-26.5 18.5t-18.5 5.5h506q-8 -1 -16.5 -4t-25.5 -17t-29.5 -36t-22.5 -65.5t-10 -100.5v-660q0 -168 68 -239.5t214 -71.5t208.5 76t62.5 235v652q0 57 -11 101t-25 67t-33 38t-29.5 19t-20.5 6h481q-8 -1 -17.5 -4.5
t-28 -18t-32.5 -37t-25 -67.5t-11 -104v-644q0 -520 -535 -520q-290 0 -425.5 124t-135.5 376zM797 1618q0 55 36 90t97 35t97 -35t36 -90q0 -56 -37 -92.5t-96 -36.5q-60 0 -96.5 36.5t-36.5 92.5zM393 1618q0 55 38 90t99 35q59 0 95.5 -35t36.5 -90q0 -56 -36.5 -92.5
t-95.5 -36.5q-61 0 -99 36.5t-38 92.5z" />
    <glyph glyph-name="Yacute" unicode="&#xdd;" horiz-adv-x="1376" 
d="M539 229v334l-322 565q-34 58 -67 103t-55.5 68.5t-45 39t-31 19.5t-16.5 6h551q-64 -11 -64 -80q0 -51 54 -145l194 -338l174 301q74 131 74 184q0 28 -12.5 46.5t-23.5 24t-21 7.5h444q-6 -2 -12 -4.5t-27.5 -18.5t-43 -39t-56 -70t-70.5 -108l-327 -551v-344
q0 -57 9.5 -101t21.5 -67t28.5 -37.5t25.5 -18.5t17 -5h-506q8 1 17 4t26.5 17.5t30.5 37t23 67t10 103.5zM694 1427l99 328h337z" />
    <glyph glyph-name="Thorn" unicode="&#xde;" horiz-adv-x="1232" 
d="M176 211v940q0 53 -9.5 94t-22.5 62t-29.5 35t-26.5 17.5t-18 4.5h501q-8 -1 -16.5 -4t-25.5 -16.5t-29.5 -34.5t-22.5 -62.5t-10 -95.5v-18q111 12 225 12q208 0 341.5 -118.5t133.5 -313.5q0 -93 -34.5 -175t-97.5 -144.5t-158.5 -99t-210.5 -36.5q-117 0 -199 23v-70
q0 -52 9.5 -92t22 -61.5t29 -35t26.5 -17.5t17 -5h-501q8 1 17 4t26 16.5t30 34.5t23 62t10 94zM467 944v-481q64 -21 154 -21q112 0 178.5 73t66.5 192q0 112 -59.5 181.5t-165.5 69.5q-103 0 -174 -14z" />
    <glyph glyph-name="germandbls" unicode="&#xdf;" horiz-adv-x="1296" 
d="M145 242v686q0 221 152 355t403 134q112 0 202.5 -31.5t147 -97t56.5 -155.5q0 -47 -17.5 -88.5t-46 -70.5t-62.5 -54t-68 -45.5t-62.5 -39t-46 -38.5t-17.5 -41q0 -26 24 -50.5t62.5 -47t85 -47.5t93.5 -56.5t85.5 -69.5t62.5 -92t24 -117q0 -98 -55.5 -168
t-141.5 -101.5t-192 -31.5q-89 0 -171 23t-131 63l72 201q36 -54 96.5 -84.5t124.5 -30.5q60 0 98 27.5t38 71.5q0 40 -24.5 75.5t-63.5 63t-86.5 55t-94.5 56t-86 59.5t-63.5 73.5t-24.5 90.5q0 54 31.5 98t77 74t90.5 58.5t76.5 67t31.5 85.5q0 72 -51 115t-129 43
q-105 0 -172 -78.5t-67 -200.5v-739q0 -60 9.5 -106.5t21.5 -70.5t28 -40t26 -20t17 -5h-461q8 1 17 5t24.5 19t27 39t20.5 71t9 108z" />
    <glyph glyph-name="agrave" unicode="&#xe0;" horiz-adv-x="1038" 
d="M387 668l-258 -99q-25 63 -25 115q0 90 60.5 162.5t154.5 109.5t199 37q369 0 369 -309v-379q0 -92 43 -142t123 -50q3 0 11 2t11 2l-250 -164q-52 7 -100 46.5t-59 78.5q-38 -52 -118.5 -80.5t-168.5 -28.5q-129 0 -211 67.5t-82 180.5q0 121 144 216.5t399 150.5v78
q0 176 -135 176q-72 0 -110 -31.5t-38 -71.5q0 -49 41 -67zM629 291v149q-151 -30 -224 -80.5t-73 -113.5q0 -49 37 -81t94 -32q65 0 115.5 44t50.5 114zM256 1364h342l100 -328z" />
    <glyph glyph-name="aacute" unicode="&#xe1;" horiz-adv-x="1038" 
d="M387 668l-258 -99q-25 63 -25 115q0 90 60.5 162.5t154.5 109.5t199 37q369 0 369 -309v-379q0 -92 43 -142t123 -50q3 0 11 2t11 2l-250 -164q-52 7 -100 46.5t-59 78.5q-38 -52 -118.5 -80.5t-168.5 -28.5q-129 0 -211 67.5t-82 180.5q0 121 144 216.5t399 150.5v78
q0 176 -135 176q-72 0 -110 -31.5t-38 -71.5q0 -49 41 -67zM629 291v149q-151 -30 -224 -80.5t-73 -113.5q0 -49 37 -81t94 -32q65 0 115.5 44t50.5 114zM401 1036l99 328h338z" />
    <glyph glyph-name="acircumflex" unicode="&#xe2;" horiz-adv-x="1038" 
d="M387 668l-258 -99q-25 63 -25 115q0 90 60.5 162.5t154.5 109.5t199 37q369 0 369 -309v-379q0 -92 43 -142t123 -50q3 0 11 2t11 2l-250 -164q-52 7 -100 46.5t-59 78.5q-38 -52 -118.5 -80.5t-168.5 -28.5q-129 0 -211 67.5t-82 180.5q0 121 144 216.5t399 150.5v78
q0 176 -135 176q-72 0 -110 -31.5t-38 -71.5q0 -49 41 -67zM629 291v149q-151 -30 -224 -80.5t-73 -113.5q0 -49 37 -81t94 -32q65 0 115.5 44t50.5 114zM231 1036l289 391l295 -391l-295 150z" />
    <glyph glyph-name="atilde" unicode="&#xe3;" horiz-adv-x="1038" 
d="M387 668l-258 -99q-25 63 -25 115q0 90 60.5 162.5t154.5 109.5t199 37q369 0 369 -309v-379q0 -92 43 -142t123 -50q3 0 11 2t11 2l-250 -164q-52 7 -100 46.5t-59 78.5q-38 -52 -118.5 -80.5t-168.5 -28.5q-129 0 -211 67.5t-82 180.5q0 121 144 216.5t399 150.5v78
q0 176 -135 176q-72 0 -110 -31.5t-38 -71.5q0 -49 41 -67zM629 291v149q-151 -30 -224 -80.5t-73 -113.5q0 -49 37 -81t94 -32q65 0 115.5 44t50.5 114zM256 1085q-49 49 -49 117q0 72 47.5 125t128.5 53q48 0 110.5 -27t118.5 -54t88 -27q97 0 97 139q45 -45 45 -111
q0 -75 -51 -132.5t-132 -57.5q-46 0 -103 29t-110.5 57.5t-91.5 28.5q-95 0 -98 -140z" />
    <glyph glyph-name="adieresis" unicode="&#xe4;" horiz-adv-x="1038" 
d="M387 668l-258 -99q-25 63 -25 115q0 90 60.5 162.5t154.5 109.5t199 37q369 0 369 -309v-379q0 -92 43 -142t123 -50q3 0 11 2t11 2l-250 -164q-52 7 -100 46.5t-59 78.5q-38 -52 -118.5 -80.5t-168.5 -28.5q-129 0 -211 67.5t-82 180.5q0 121 144 216.5t399 150.5v78
q0 176 -135 176q-72 0 -110 -31.5t-38 -71.5q0 -49 41 -67zM629 291v149q-151 -30 -224 -80.5t-73 -113.5q0 -49 37 -81t94 -32q65 0 115.5 44t50.5 114zM592 1253q0 55 36 90t97 35t97 -35t36 -90q0 -56 -37 -92.5t-96 -36.5q-61 0 -97 36t-36 93zM188 1253q0 54 38.5 89.5
t99.5 35.5q59 0 95 -35t36 -90q0 -56 -36 -92.5t-95 -36.5q-61 0 -99.5 36.5t-38.5 92.5z" />
    <glyph glyph-name="aring" unicode="&#xe5;" horiz-adv-x="1038" 
d="M387 668l-258 -99q-25 63 -25 115q0 90 60.5 162.5t154.5 109.5t199 37q369 0 369 -309v-379q0 -92 43 -142t123 -50q3 0 11 2t11 2l-250 -164q-52 7 -100 46.5t-59 78.5q-38 -52 -118.5 -80.5t-168.5 -28.5q-129 0 -211 67.5t-82 180.5q0 121 144 216.5t399 150.5v78
q0 176 -135 176q-72 0 -110 -31.5t-38 -71.5q0 -49 41 -67zM629 291v149q-151 -30 -224 -80.5t-73 -113.5q0 -49 37 -81t94 -32q65 0 115.5 44t50.5 114zM526 1044q-85 0 -142.5 55.5t-57.5 147.5q0 91 57.5 145t142.5 54q86 0 144.5 -53.5t58.5 -145.5q0 -93 -59 -148
t-144 -55zM526 1135q44 0 74.5 30.5t30.5 81.5t-30 80t-75 29q-46 0 -76 -29.5t-30 -79.5q0 -51 31 -81.5t75 -30.5z" />
    <glyph glyph-name="ae" unicode="&#xe6;" horiz-adv-x="1558" 
d="M389 668l-260 -99q-23 57 -23 115q0 90 60.5 162.5t154 109.5t197.5 37q208 0 295 -108q108 108 270 108q188 0 293.5 -143.5t106.5 -403.5h-604q0 -6 6 -24q26 -117 108.5 -186.5t194.5 -69.5q86 0 169 37t140 104q-32 -168 -140 -254t-278 -86q-214 0 -342 158
q-50 -76 -141 -116t-201 -40q-143 0 -226 68.5t-83 179.5q0 121 144 216.5t399 150.5v78q0 176 -135 176q-72 0 -110 -31.5t-38 -71.5q0 -50 43 -67zM879 594h354q0 102 -43 167.5t-115 65.5q-77 0 -132.5 -68t-63.5 -165zM629 291v149q-151 -30 -224 -80.5t-73 -113.5
q0 -49 37 -81t94 -32q66 0 116 42.5t50 115.5z" />
    <glyph glyph-name="ccedilla" unicode="&#xe7;" horiz-adv-x="944" 
d="M348 -139l72 114q-168 26 -259 151.5t-91 313.5q0 124 39 229t104.5 175.5t152.5 109.5t183 39q142 0 234 -88.5t98 -228.5l-250 -101q14 35 14 76q0 70 -36 113t-99 43q-86 0 -138.5 -81t-52.5 -202q0 -95 31.5 -175.5t98 -133.5t155.5 -53q76 0 155 39.5t142 113.5
q-27 -145 -125 -235.5t-225 -106.5l-31 -49q80 -10 123 -50.5t43 -92.5q0 -63 -58 -109.5t-157 -46.5q-107 0 -180 49q27 -6 63 -6q71 0 114.5 30t43.5 69q0 38 -42.5 65.5t-121.5 28.5z" />
    <glyph glyph-name="egrave" unicode="&#xe8;" horiz-adv-x="1005" 
d="M326 446l6 -24q23 -117 106 -186.5t197 -69.5q87 0 170 37t139 104q-32 -168 -140 -253t-278 -85q-207 0 -330.5 139.5t-123.5 352.5q0 143 54.5 263t160.5 194.5t243 74.5q188 0 293.5 -143.5t106.5 -403.5h-604zM326 594h356q0 102 -43.5 167.5t-116.5 65.5
q-77 0 -132.5 -68t-63.5 -165zM236 1364h342l100 -328z" />
    <glyph glyph-name="eacute" unicode="&#xe9;" horiz-adv-x="1005" 
d="M326 446l6 -24q23 -117 106 -186.5t197 -69.5q87 0 170 37t139 104q-32 -168 -140 -253t-278 -85q-207 0 -330.5 139.5t-123.5 352.5q0 143 54.5 263t160.5 194.5t243 74.5q188 0 293.5 -143.5t106.5 -403.5h-604zM326 594h356q0 102 -43.5 167.5t-116.5 65.5
q-77 0 -132.5 -68t-63.5 -165zM418 1036l98 328h338z" />
    <glyph glyph-name="ecircumflex" unicode="&#xea;" horiz-adv-x="1005" 
d="M326 446l6 -24q23 -117 106 -186.5t197 -69.5q87 0 170 37t139 104q-32 -168 -140 -253t-278 -85q-207 0 -330.5 139.5t-123.5 352.5q0 143 54.5 263t160.5 194.5t243 74.5q188 0 293.5 -143.5t106.5 -403.5h-604zM326 594h356q0 102 -43.5 167.5t-116.5 65.5
q-77 0 -132.5 -68t-63.5 -165zM225 1036l289 391l295 -391l-295 150z" />
    <glyph glyph-name="edieresis" unicode="&#xeb;" horiz-adv-x="1005" 
d="M326 446l6 -24q23 -117 106 -186.5t197 -69.5q87 0 170 37t139 104q-32 -168 -140 -253t-278 -85q-207 0 -330.5 139.5t-123.5 352.5q0 143 54.5 263t160.5 194.5t243 74.5q188 0 293.5 -143.5t106.5 -403.5h-604zM326 594h356q0 102 -43.5 167.5t-116.5 65.5
q-77 0 -132.5 -68t-63.5 -165zM586 1253q0 55 36 90t97 35t97 -35t36 -90q0 -56 -37 -92.5t-96 -36.5q-61 0 -97 36t-36 93zM182 1253q0 55 38 90t99 35q59 0 95.5 -35t36.5 -90q0 -56 -36.5 -92.5t-95.5 -36.5q-61 0 -99 36.5t-38 92.5z" />
    <glyph glyph-name="igrave" unicode="&#xec;" horiz-adv-x="544" 
d="M147 217v442q0 109 -33.5 149t-86.5 40h-27l412 153v-784q0 -54 9.5 -96t21.5 -63.5t28.5 -35.5t25.5 -17.5t17 -4.5h-473q8 1 17 4t26 17t30 35t23 63.5t10 97.5zM12 1364h342l101 -328z" />
    <glyph glyph-name="iacute" unicode="&#xed;" horiz-adv-x="544" 
d="M147 217v442q0 109 -33.5 149t-86.5 40h-27l412 153v-784q0 -54 9.5 -96t21.5 -63.5t28.5 -35.5t25.5 -17.5t17 -4.5h-473q8 1 17 4t26 17t30 35t23 63.5t10 97.5zM111 1036l98 328h338z" />
    <glyph glyph-name="icircumflex" unicode="&#xee;" horiz-adv-x="544" 
d="M147 217v442q0 109 -33.5 149t-86.5 40h-27l412 153v-784q0 -54 9.5 -96t21.5 -63.5t28.5 -35.5t25.5 -17.5t17 -4.5h-473q8 1 17 4t26 17t30 35t23 63.5t10 97.5zM-12 1036l288 391l295 -391l-295 150z" />
    <glyph glyph-name="idieresis" unicode="&#xef;" horiz-adv-x="544" 
d="M147 217v442q0 109 -33.5 149t-86.5 40h-27l412 153v-784q0 -54 9.5 -96t21.5 -63.5t28.5 -35.5t25.5 -17.5t17 -4.5h-473q8 1 17 4t26 17t30 35t23 63.5t10 97.5zM348 1253q0 55 36 90t97 35t97 -35t36 -90q0 -56 -37 -92.5t-96 -36.5q-61 0 -97 36t-36 93zM-55 1253
q0 55 38 90t99 35q59 0 95 -35t36 -90q0 -56 -36 -92.5t-95 -36.5q-61 0 -99 36.5t-38 92.5z" />
    <glyph glyph-name="eth" unicode="&#xf0;" horiz-adv-x="1085" 
d="M324 1061l-72 86l172 74q-90 58 -166 84l274 120q72 -44 142 -104l196 84l72 -86l-182 -78q128 -145 194 -327t66 -377q0 -167 -53 -293.5t-164 -201.5t-268 -75q-146 0 -252.5 73.5t-158.5 193t-52 268.5q0 89 26 175t75 156.5t127.5 114t174.5 43.5q181 0 293 -186
q-89 204 -242 342zM569 158q32 0 62 13.5t58.5 43.5t45.5 88t17 137q0 153 -72.5 256t-171.5 103q-69 0 -123.5 -69.5t-54.5 -219.5q0 -156 69 -254t170 -98z" />
    <glyph glyph-name="ntilde" unicode="&#xf1;" horiz-adv-x="1134" 
d="M141 211v446q0 59 -9 98.5t-26 59t-35 26.5t-42 7h-29l393 153l2 -147q51 60 137 99.5t164 39.5q138 0 217.5 -83.5t79.5 -250.5v-442q0 -54 9 -96t21.5 -63.5t28.5 -35.5t25 -17.5t17 -4.5h-455q7 1 14.5 4t22.5 16t26 33.5t20 61.5t9 94v385q0 201 -139 201
q-77 0 -134 -59.5t-57 -149.5v-377q0 -51 8.5 -91t20 -61t26 -34.5t24.5 -17.5t18 -5h-461q8 1 18 4.5t26 17t28.5 34.5t22 61.5t9.5 93.5zM307 1085q-49 49 -49 117q0 72 47.5 125t128.5 53q48 0 110.5 -27t119 -54t88.5 -27q96 0 96 139q45 -45 45 -111
q0 -75 -50.5 -132.5t-131.5 -57.5q-46 0 -103 29t-110.5 57.5t-91.5 28.5q-46 0 -72 -36t-27 -104z" />
    <glyph glyph-name="ograve" unicode="&#xf2;" horiz-adv-x="1150" 
d="M563 -31q-224 0 -356.5 137.5t-132.5 356.5q0 228 143 379t365 151q225 0 360 -136.5t135 -354.5q0 -229 -142 -381t-372 -152zM592 154q97 0 156 88t59 219q0 143 -69.5 245.5t-182.5 102.5q-99 0 -157 -85.5t-58 -213.5q0 -144 70.5 -250t181.5 -106zM274 1364h342
l101 -328z" />
    <glyph glyph-name="oacute" unicode="&#xf3;" horiz-adv-x="1150" 
d="M563 -31q-224 0 -356.5 137.5t-132.5 356.5q0 228 143 379t365 151q225 0 360 -136.5t135 -354.5q0 -229 -142 -381t-372 -152zM592 154q97 0 156 88t59 219q0 143 -69.5 245.5t-182.5 102.5q-99 0 -157 -85.5t-58 -213.5q0 -144 70.5 -250t181.5 -106zM465 1036l98 328
h338z" />
    <glyph glyph-name="ocircumflex" unicode="&#xf4;" horiz-adv-x="1150" 
d="M563 -31q-224 0 -356.5 137.5t-132.5 356.5q0 228 143 379t365 151q225 0 360 -136.5t135 -354.5q0 -229 -142 -381t-372 -152zM592 154q97 0 156 88t59 219q0 143 -69.5 245.5t-182.5 102.5q-99 0 -157 -85.5t-58 -213.5q0 -144 70.5 -250t181.5 -106zM287 1036l288 391
l295 -391l-295 150z" />
    <glyph glyph-name="otilde" unicode="&#xf5;" horiz-adv-x="1150" 
d="M563 -31q-224 0 -356.5 137.5t-132.5 356.5q0 228 143 379t365 151q225 0 360 -136.5t135 -354.5q0 -229 -142 -381t-372 -152zM592 154q97 0 156 88t59 219q0 143 -69.5 245.5t-182.5 102.5q-99 0 -157 -85.5t-58 -213.5q0 -144 70.5 -250t181.5 -106zM311 1085
q-49 49 -49 117q0 72 47.5 125t128.5 53q48 0 110.5 -27t119 -54t88.5 -27q96 0 96 139q45 -45 45 -111q0 -75 -50.5 -132.5t-131.5 -57.5q-46 0 -103 29t-110.5 57.5t-91.5 28.5q-46 0 -72 -36t-27 -104z" />
    <glyph glyph-name="odieresis" unicode="&#xf6;" horiz-adv-x="1150" 
d="M563 -31q-224 0 -356.5 137.5t-132.5 356.5q0 228 143 379t365 151q225 0 360 -136.5t135 -354.5q0 -229 -142 -381t-372 -152zM592 154q97 0 156 88t59 219q0 143 -69.5 245.5t-182.5 102.5q-99 0 -157 -85.5t-58 -213.5q0 -144 70.5 -250t181.5 -106zM647 1253
q0 55 36 90t97 35t97 -35t36 -90q0 -56 -37 -92.5t-96 -36.5q-60 0 -96.5 36t-36.5 93zM244 1253q0 55 38 90t99 35q59 0 95 -35t36 -90q0 -56 -36 -92.5t-95 -36.5q-61 0 -99 36.5t-38 92.5z" />
    <glyph glyph-name="divide" unicode="&#xf7;" horiz-adv-x="1411" 
d="M578 975q0 57 37 93t90 36t91 -35.5t38 -93.5q0 -57 -38 -91t-91 -34q-52 0 -89.5 34.5t-37.5 90.5zM141 498v178h1125v-178h-1125zM575 197q0 57 37 92t90 35q52 0 90.5 -35t38.5 -92t-38.5 -92t-90.5 -35q-53 0 -90 34.5t-37 92.5z" />
    <glyph glyph-name="oslash" unicode="&#xf8;" horiz-adv-x="1150" 
d="M168 -63l80 133q-85 66 -129.5 167t-44.5 226q0 228 143 379t365 151q107 0 202 -37q17 25 70 115l125 -41q-78 -129 -82 -137q87 -65 133.5 -166t46.5 -225q0 -229 -142 -381t-372 -152q-108 0 -203 37l-65 -104q-10 2 -127 35zM387 301l287 469q-55 39 -119 39
q-99 0 -157 -85.5t-58 -213.5q0 -117 47 -209zM760 664l-289 -469q53 -41 121 -41q97 0 156 88t59 219q0 114 -47 203z" />
    <glyph glyph-name="ugrave" unicode="&#xf9;" 
d="M133 309v426q0 192 -133 219h395v-587q0 -99 35.5 -149t101.5 -50q80 0 136.5 62t56.5 151v369q0 178 -102 204h362v-655q0 -57 9 -96t25.5 -57.5t34.5 -25.5t42 -7h28l-391 -152l-2 150q-55 -64 -138.5 -103t-162.5 -39q-141 0 -219 83.5t-78 256.5zM281 1364h342
l100 -328z" />
    <glyph glyph-name="uacute" unicode="&#xfa;" 
d="M133 309v426q0 192 -133 219h395v-587q0 -99 35.5 -149t101.5 -50q80 0 136.5 62t56.5 151v369q0 178 -102 204h362v-655q0 -57 9 -96t25.5 -57.5t34.5 -25.5t42 -7h28l-391 -152l-2 150q-55 -64 -138.5 -103t-162.5 -39q-141 0 -219 83.5t-78 256.5zM446 1036l99 328
h338z" />
    <glyph glyph-name="ucircumflex" unicode="&#xfb;" 
d="M133 309v426q0 192 -133 219h395v-587q0 -99 35.5 -149t101.5 -50q80 0 136.5 62t56.5 151v369q0 178 -102 204h362v-655q0 -57 9 -96t25.5 -57.5t34.5 -25.5t42 -7h28l-391 -152l-2 150q-55 -64 -138.5 -103t-162.5 -39q-141 0 -219 83.5t-78 256.5zM274 1036l289 391
l295 -391l-295 150z" />
    <glyph glyph-name="udieresis" unicode="&#xfc;" 
d="M133 309v426q0 192 -133 219h395v-587q0 -99 35.5 -149t101.5 -50q80 0 136.5 62t56.5 151v369q0 178 -102 204h362v-655q0 -57 9 -96t25.5 -57.5t34.5 -25.5t42 -7h28l-391 -152l-2 150q-55 -64 -138.5 -103t-162.5 -39q-141 0 -219 83.5t-78 256.5zM635 1253
q0 55 36 90t97 35t97 -35t36 -90q0 -56 -37 -92.5t-96 -36.5q-60 0 -96.5 36t-36.5 93zM231 1253q0 54 38.5 89.5t99.5 35.5q59 0 95 -35t36 -90q0 -56 -36 -92.5t-95 -36.5q-61 0 -99.5 36.5t-38.5 92.5z" />
    <glyph glyph-name="yacute" unicode="&#xfd;" 
d="M330 -393l-287 192q14 -5 39.5 -9t36.5 -1q195 -7 334 248l-299 743q-11 26 -23 49t-23.5 39t-23 29.5t-22.5 22t-20.5 15t-17.5 10t-14 5.5t-10 3l-4 1h498l-5 -2q-5 -1 -11 -3t-14 -6t-15 -11t-13 -16t-9 -23t-3 -31q0 -24 25 -94l157 -412l150 392q28 76 28 110
q-1 28 -11 48t-25.5 29.5t-26 13.5t-19.5 5h424l-2 -1q-66 -21 -128 -149q-7 -16 -15 -34l-285 -684q-77 -188 -176 -316.5t-190 -162.5zM508 1036l98 328h338z" />
    <glyph glyph-name="thorn" unicode="&#xfe;" horiz-adv-x="1112" 
d="M139 -156v1215q0 70 -10 116.5t-29.5 68t-39 29t-46.5 7.5h-18l401 147v-561q49 59 122 93t149 34q71 0 136 -28.5t120 -84t87.5 -150t32.5 -214.5q0 -239 -130 -390t-341 -151q-112 0 -176 50v-181q0 -53 9 -93.5t21 -62t28.5 -35.5t26 -18t18.5 -6h-449q7 1 14 4
t21.5 16.5t25 34.5t19 63t8.5 97zM397 569v-268q0 -147 154 -147q102 0 158.5 86.5t56.5 218.5q0 152 -50 244t-145 92q-73 0 -123.5 -63.5t-50.5 -162.5z" />
    <glyph glyph-name="ydieresis" unicode="&#xff;" 
d="M330 -393l-287 192q14 -5 39.5 -9t36.5 -1q195 -7 334 248l-299 743q-11 26 -23 49t-23.5 39t-23 29.5t-22.5 22t-20.5 15t-17.5 10t-14 5.5t-10 3l-4 1h498l-5 -2q-5 -1 -11 -3t-14 -6t-15 -11t-13 -16t-9 -23t-3 -31q0 -24 25 -94l157 -412l150 392q28 76 28 110
q-1 28 -11 48t-25.5 29.5t-26 13.5t-19.5 5h424l-2 -1q-66 -21 -128 -149q-7 -16 -15 -34l-285 -684q-77 -188 -176 -316.5t-190 -162.5zM627 1253q0 55 36 90t97 35t97 -35t36 -90q0 -56 -37 -92.5t-96 -36.5q-60 0 -96.5 36t-36.5 93zM223 1253q0 55 38 90t99 35
q59 0 95.5 -35t36.5 -90q0 -56 -36.5 -92.5t-95.5 -36.5q-61 0 -99 36.5t-38 92.5z" />
    <glyph glyph-name="Amacron" unicode="&#x100;" horiz-adv-x="1529" 
d="M203 262l430 1102h241l451 -1108q24 -62 51.5 -110.5t49 -74t43 -43t32.5 -22t19 -6.5h-551q9 1 19 5t24 14t23 30t9 47q0 11 -4 29t-13 44.5t-16.5 47.5t-20.5 55t-19 52h-522l-43 -127q-21 -62 -21 -91q0 -31 10 -53t25.5 -32.5t27 -15t21.5 -5.5h-459q8 1 18.5 5.5
t31 21t41.5 43t48.5 76.5t53.5 116zM516 502h385l-194 504zM416 1548v123h669v-123h-669z" />
    <glyph glyph-name="amacron" unicode="&#x101;" horiz-adv-x="1038" 
d="M387 668l-258 -99q-25 63 -25 115q0 90 60.5 162.5t154.5 109.5t199 37q369 0 369 -309v-379q0 -92 43 -142t123 -50q3 0 11 2t11 2l-250 -164q-52 7 -100 46.5t-59 78.5q-38 -52 -118.5 -80.5t-168.5 -28.5q-129 0 -211 67.5t-82 180.5q0 121 144 216.5t399 150.5v78
q0 176 -135 176q-72 0 -110 -31.5t-38 -71.5q0 -49 41 -67zM629 291v149q-151 -30 -224 -80.5t-73 -113.5q0 -49 37 -81t94 -32q65 0 115.5 44t50.5 114zM195 1174v122h669v-122h-669z" />
    <glyph glyph-name="Abreve" unicode="&#x102;" horiz-adv-x="1529" 
d="M203 262l430 1102h241l451 -1108q24 -62 51.5 -110.5t49 -74t43 -43t32.5 -22t19 -6.5h-551q9 1 19 5t24 14t23 30t9 47q0 11 -4 29t-13 44.5t-16.5 47.5t-20.5 55t-19 52h-522l-43 -127q-21 -62 -21 -91q0 -31 10 -53t25.5 -32.5t27 -15t21.5 -5.5h-459q8 1 18.5 5.5
t31 21t41.5 43t48.5 76.5t53.5 116zM516 502h385l-194 504zM500 1800q37 -74 105 -112.5t145 -38.5t144 39t107 112q0 -154 -74.5 -239.5t-176.5 -85.5t-176 85.5t-74 239.5z" />
    <glyph glyph-name="abreve" unicode="&#x103;" horiz-adv-x="1038" 
d="M387 668l-258 -99q-25 63 -25 115q0 90 60.5 162.5t154.5 109.5t199 37q369 0 369 -309v-379q0 -92 43 -142t123 -50q3 0 11 2t11 2l-250 -164q-52 7 -100 46.5t-59 78.5q-38 -52 -118.5 -80.5t-168.5 -28.5q-129 0 -211 67.5t-82 180.5q0 121 144 216.5t399 150.5v78
q0 176 -135 176q-72 0 -110 -31.5t-38 -71.5q0 -49 41 -67zM629 291v149q-151 -30 -224 -80.5t-73 -113.5q0 -49 37 -81t94 -32q65 0 115.5 44t50.5 114zM279 1425q37 -74 104.5 -112.5t144.5 -38.5t144.5 39t107.5 112q0 -153 -75 -239t-177 -86q-101 0 -175 85.5
t-74 239.5z" />
    <glyph glyph-name="Aogonek" unicode="&#x104;" horiz-adv-x="1529" 
d="M203 262l430 1102h241l451 -1108q25 -62 52 -110t48 -74t42 -43t32 -22t19 -7q-126 0 -193.5 -43.5t-67.5 -101.5q0 -48 31.5 -77.5t83.5 -29.5q57 0 123 39q-24 -75 -85 -118.5t-128 -43.5q-78 0 -133 48.5t-55 125.5q0 57 34 111t91 90h-248q24 2 48.5 25t24.5 71
q0 11 -4 29t-13 44.5t-16.5 47.5t-20.5 55t-19 52h-522l-43 -127q-21 -62 -21 -91q0 -30 9.5 -52t23.5 -33t25.5 -15.5t21.5 -5.5h-453q9 2 19 7t30.5 22t41 43.5t48 76t52.5 113.5zM516 502h385l-194 504z" />
    <glyph glyph-name="aogonek" unicode="&#x105;" horiz-adv-x="1038" 
d="M387 668l-258 -99q-25 63 -25 115q0 90 60.5 162.5t154.5 109.5t199 37q369 0 369 -309v-379q0 -92 43 -142t123 -50q3 0 11 2t11 2q-29 -19 -90 -63.5t-78 -57.5q-94 -72 -94 -146q0 -45 31.5 -72.5t83.5 -27.5q57 0 123 39q-24 -75 -85 -118.5t-128 -43.5
q-78 0 -133.5 48.5t-55.5 125.5q0 104 99 183q-64 39 -82 94q-38 -52 -118.5 -80.5t-168.5 -28.5q-129 0 -211 67.5t-82 180.5q0 121 144 216.5t399 150.5v78q0 176 -135 176q-72 0 -110 -31.5t-38 -71.5q0 -49 41 -67zM629 291v149q-151 -30 -224 -80.5t-73 -113.5
q0 -49 37 -81t94 -32q65 0 115.5 44t50.5 114z" />
    <glyph glyph-name="Cacute" unicode="&#x106;" horiz-adv-x="1308" 
d="M1221 395v-235q-74 -85 -194.5 -138t-252.5 -53q-170 0 -304.5 57t-217 153.5t-125.5 217.5t-43 256q0 114 29.5 221t90.5 202t147.5 166t209 112t266.5 41q216 0 367 -80v-393q-49 124 -148.5 196t-240.5 72q-184 0 -299 -141.5t-115 -356.5q0 -144 50.5 -259t147 -182
t222.5 -67q110 0 222 57t188 154zM588 1427l98 328h338z" />
    <glyph glyph-name="cacute" unicode="&#x107;" horiz-adv-x="944" 
d="M881 676l-250 -101q14 35 14 76q0 70 -36 113t-99 43q-86 0 -138.5 -81t-52.5 -202q0 -95 31.5 -175.5t98 -133.5t155.5 -53q76 0 155 39.5t142 113.5q-30 -160 -143.5 -253t-253.5 -93q-206 0 -320 131t-114 340q0 124 39 229t104.5 175.5t152.5 109.5t183 39
q142 0 234 -88.5t98 -228.5zM375 1036l98 328h338z" />
    <glyph glyph-name="Ccircumflex" unicode="&#x108;" horiz-adv-x="1308" 
d="M1221 395v-235q-74 -85 -194.5 -138t-252.5 -53q-170 0 -304.5 57t-217 153.5t-125.5 217.5t-43 256q0 114 29.5 221t90.5 202t147.5 166t209 112t266.5 41q216 0 367 -80v-393q-49 124 -148.5 196t-240.5 72q-184 0 -299 -141.5t-115 -356.5q0 -144 50.5 -259t147 -182
t222.5 -67q110 0 222 57t188 154zM727 1810l328 -383q-26 13 -164 68.5t-164 67.5q-24 -12 -159.5 -67.5t-159.5 -68.5q25 30 159.5 191t159.5 192z" />
    <glyph glyph-name="ccircumflex" unicode="&#x109;" horiz-adv-x="944" 
d="M881 676l-250 -101q14 35 14 76q0 70 -36 113t-99 43q-86 0 -138.5 -81t-52.5 -202q0 -95 31.5 -175.5t98 -133.5t155.5 -53q76 0 155 39.5t142 113.5q-30 -160 -143.5 -253t-253.5 -93q-206 0 -320 131t-114 340q0 124 39 229t104.5 175.5t152.5 109.5t183 39
q142 0 234 -88.5t98 -228.5zM229 1036l289 391l295 -391l-295 150z" />
    <glyph glyph-name="Cdotaccent" unicode="&#x10a;" horiz-adv-x="1308" 
d="M1221 395v-235q-74 -85 -194.5 -138t-252.5 -53q-170 0 -304.5 57t-217 153.5t-125.5 217.5t-43 256q0 114 29.5 221t90.5 202t147.5 166t209 112t266.5 41q216 0 367 -80v-393q-49 124 -148.5 196t-240.5 72q-184 0 -299 -141.5t-115 -356.5q0 -144 50.5 -259t147 -182
t222.5 -67q110 0 222 57t188 154zM588 1620q0 59 40 98t105 39t105.5 -39t40.5 -98q0 -60 -40.5 -99.5t-105.5 -39.5t-105 39.5t-40 99.5z" />
    <glyph glyph-name="cdotaccent" unicode="&#x10b;" horiz-adv-x="944" 
d="M881 676l-250 -101q14 35 14 76q0 70 -36 113t-99 43q-86 0 -138.5 -81t-52.5 -202q0 -95 31.5 -175.5t98 -133.5t155.5 -53q76 0 155 39.5t142 113.5q-30 -160 -143.5 -253t-253.5 -93q-206 0 -320 131t-114 340q0 124 39 229t104.5 175.5t152.5 109.5t183 39
q142 0 234 -88.5t98 -228.5zM356 1255q0 56 37.5 92.5t100.5 36.5q60 0 97.5 -37t37.5 -92q0 -57 -37.5 -94t-97.5 -37q-62 0 -100 37t-38 94z" />
    <glyph glyph-name="Ccaron" unicode="&#x10c;" horiz-adv-x="1308" 
d="M1221 395v-235q-74 -85 -194.5 -138t-252.5 -53q-170 0 -304.5 57t-217 153.5t-125.5 217.5t-43 256q0 114 29.5 221t90.5 202t147.5 166t209 112t266.5 41q216 0 367 -80v-393q-49 124 -148.5 196t-240.5 72q-184 0 -299 -141.5t-115 -356.5q0 -144 50.5 -259t147 -182
t222.5 -67q110 0 222 57t188 154zM760 1436l-305 379q27 -15 155.5 -71t149.5 -67q19 10 146 66.5t153 71.5q-128 -166 -299 -379z" />
    <glyph glyph-name="ccaron" unicode="&#x10d;" horiz-adv-x="944" 
d="M881 676l-250 -101q14 35 14 76q0 70 -36 113t-99 43q-86 0 -138.5 -81t-52.5 -202q0 -95 31.5 -175.5t98 -133.5t155.5 -53q76 0 155 39.5t142 113.5q-30 -160 -143.5 -253t-253.5 -93q-206 0 -320 131t-114 340q0 124 39 229t104.5 175.5t152.5 109.5t183 39
q142 0 234 -88.5t98 -228.5zM510 1044l-297 386l297 -146l289 146z" />
    <glyph glyph-name="Dcaron" unicode="&#x10e;" horiz-adv-x="1486" 
d="M193 254v881q0 57 -12 100.5t-26.5 66t-35.5 38t-31.5 19t-21.5 5.5h632q320 0 512.5 -185t192.5 -483q0 -110 -26 -210t-83.5 -189.5t-141 -155t-205.5 -103.5t-271 -38h-596q8 1 18 4.5t28.5 19.5t32 41t24 74.5t10.5 114.5zM487 188h201q100 0 179 41.5t127 111.5
t73 156.5t25 182.5q0 228 -117 363t-346 135h-142v-990zM743 1436l-305 379q27 -15 155.5 -71t149.5 -67q19 10 146 66.5t153 71.5q-128 -166 -299 -379z" />
    <glyph glyph-name="dcaron" unicode="&#x10f;" horiz-adv-x="1118" 
d="M739 -45l-2 131q-42 -52 -119 -84.5t-159 -32.5q-79 0 -148 28.5t-123.5 85t-86 149t-31.5 210.5q0 131 40 237.5t106.5 172.5t147.5 101.5t166 35.5q129 0 191 -55v143q0 65 -10.5 109t-30.5 65t-40 29t-46 8h-21l408 148v-1143q0 -62 9 -103.5t26.5 -62t35.5 -28
t42 -7.5h26zM723 354v271q0 83 -43 132.5t-121 49.5q-100 0 -157.5 -88.5t-57.5 -216.5q0 -150 53 -243t144 -93q74 0 128 52t54 136zM1081 1006l49 391h269z" />
    <glyph glyph-name="Dcroat" unicode="&#x110;" horiz-adv-x="1486" 
d="M193 254v346h-148v152h148v383q0 57 -12 100.5t-26.5 66t-35.5 38t-31.5 19t-21.5 5.5h632q320 0 512.5 -185t192.5 -483q0 -110 -26 -210t-83.5 -189.5t-141 -155t-205.5 -103.5t-271 -38h-596q8 1 18 4.5t28.5 19.5t32 41t24 74.5t10.5 114.5zM487 188h201
q100 0 179 41.5t127 111.5t73 156.5t25 182.5q0 228 -117 363t-346 135h-142v-426h250v-152h-250v-412z" />
    <glyph glyph-name="dcroat" unicode="&#x111;" horiz-adv-x="1116" 
d="M756 -45l-2 133q-45 -53 -123 -86t-162 -33q-82 0 -152.5 28.5t-125.5 84.5t-87 148t-32 210q0 132 41 239t109 173t150.5 101.5t170.5 35.5q130 0 192 -55v141v21h-313v96h299q-24 96 -111 96h-22l411 148v-244h95v-96h-95v-803q0 -117 31.5 -159t83.5 -42h25zM737 356
v267q0 86 -43 135t-125 49q-102 0 -160.5 -89t-58.5 -216q0 -149 53.5 -241.5t147.5 -92.5q76 0 131 52t55 136z" />
    <glyph glyph-name="Emacron" unicode="&#x112;" horiz-adv-x="1126" 
d="M184 244v891q0 56 -12 99.5t-26.5 66t-35.5 38t-31.5 19.5t-21.5 6h928v-365q-12 40 -27.5 68t-43 55.5t-72.5 41.5t-107 14h-258v-396h225q39 0 69.5 6.5t46.5 14.5t27.5 19.5t15 17.5t5.5 12v-324q-23 68 -159 68h-230v-408h279q128 0 194 42t125 151l-65 -381h-936
q8 1 17.5 4.5t27 19.5t31 40t24 71t10.5 109zM225 1548v123h670v-123h-670z" />
    <glyph glyph-name="emacron" unicode="&#x113;" horiz-adv-x="1005" 
d="M326 446l6 -24q23 -117 106 -186.5t197 -69.5q87 0 170 37t139 104q-32 -168 -140 -253t-278 -85q-207 0 -330.5 139.5t-123.5 352.5q0 143 54.5 263t160.5 194.5t243 74.5q188 0 293.5 -143.5t106.5 -403.5h-604zM326 594h356q0 102 -43.5 167.5t-116.5 65.5
q-77 0 -132.5 -68t-63.5 -165zM184 1174v122h670v-122h-670z" />
    <glyph glyph-name="Ebreve" unicode="&#x114;" horiz-adv-x="1126" 
d="M184 244v891q0 56 -12 99.5t-26.5 66t-35.5 38t-31.5 19.5t-21.5 6h928v-365q-12 40 -27.5 68t-43 55.5t-72.5 41.5t-107 14h-258v-396h225q39 0 69.5 6.5t46.5 14.5t27.5 19.5t15 17.5t5.5 12v-324q-23 68 -159 68h-230v-408h279q128 0 194 42t125 151l-65 -381h-936
q8 1 17.5 4.5t27 19.5t31 40t24 71t10.5 109zM324 1800q37 -74 104.5 -112.5t144.5 -38.5t144.5 39t107.5 112q0 -153 -75 -239t-177 -86q-101 0 -175 85.5t-74 239.5z" />
    <glyph glyph-name="ebreve" unicode="&#x115;" horiz-adv-x="1005" 
d="M326 446l6 -24q23 -117 106 -186.5t197 -69.5q87 0 170 37t139 104q-32 -168 -140 -253t-278 -85q-207 0 -330.5 139.5t-123.5 352.5q0 143 54.5 263t160.5 194.5t243 74.5q188 0 293.5 -143.5t106.5 -403.5h-604zM326 594h356q0 102 -43.5 167.5t-116.5 65.5
q-77 0 -132.5 -68t-63.5 -165zM281 1425q37 -74 104.5 -112.5t144.5 -38.5t144.5 39t107.5 112q0 -153 -75 -239t-177 -86q-101 0 -175 85.5t-74 239.5z" />
    <glyph glyph-name="Edotaccent" unicode="&#x116;" horiz-adv-x="1126" 
d="M184 244v891q0 56 -12 99.5t-26.5 66t-35.5 38t-31.5 19.5t-21.5 6h928v-365q-12 40 -27.5 68t-43 55.5t-72.5 41.5t-107 14h-258v-396h225q39 0 69.5 6.5t46.5 14.5t27.5 19.5t15 17.5t5.5 12v-324q-23 68 -159 68h-230v-408h279q128 0 194 42t125 151l-65 -381h-936
q8 1 17.5 4.5t27 19.5t31 40t24 71t10.5 109zM436 1620q0 59 40.5 98t105.5 39t105 -39t40 -98q0 -60 -40 -99.5t-105 -39.5t-105.5 39.5t-40.5 99.5z" />
    <glyph glyph-name="edotaccent" unicode="&#x117;" horiz-adv-x="1005" 
d="M326 446l6 -24q23 -117 106 -186.5t197 -69.5q87 0 170 37t139 104q-32 -168 -140 -253t-278 -85q-207 0 -330.5 139.5t-123.5 352.5q0 143 54.5 263t160.5 194.5t243 74.5q188 0 293.5 -143.5t106.5 -403.5h-604zM326 594h356q0 102 -43.5 167.5t-116.5 65.5
q-77 0 -132.5 -68t-63.5 -165zM379 1255q0 56 37 92.5t100 36.5q60 0 97.5 -37t37.5 -92q0 -57 -37.5 -94t-97.5 -37q-62 0 -99.5 37t-37.5 94z" />
    <glyph glyph-name="Eogonek" unicode="&#x118;" 
d="M184 244v891q0 55 -11.5 98t-26 65.5t-35.5 38.5t-31.5 20t-22.5 7h928v-365q-12 40 -27.5 68t-43 55.5t-72.5 41.5t-107 14h-258v-396h225q131 0 164 76v-340q-2 7 -5 14t-14.5 19.5t-27 21.5t-45 16t-67.5 7h-230v-408h279q128 0 194 42t125 151l-65 -381
q-83 -8 -127.5 -52t-44.5 -95q0 -46 31 -75.5t83 -29.5q62 0 123 39q-24 -76 -85 -119t-128 -43q-78 0 -133 47.5t-55 126.5q0 57 34 111t91 90h-723q9 2 19 6.5t27 21t30 41t22.5 70.5t9.5 105z" />
    <glyph glyph-name="eogonek" unicode="&#x119;" horiz-adv-x="1005" 
d="M930 446h-604q39 -135 112 -207.5t197 -72.5q84 0 169.5 37.5t139.5 103.5q-20 -102 -63.5 -164.5t-116.5 -115.5q-84 -61 -113.5 -95t-29.5 -84q0 -44 31 -72t83 -28q57 0 123 39q-24 -75 -85 -118.5t-128 -43.5q-78 0 -133 48.5t-55 125.5q0 95 84 172q-9 -2 -15 -2
q-207 0 -330.5 139.5t-123.5 352.5q0 143 54.5 263t160.5 194.5t243 74.5q188 0 293.5 -143.5t106.5 -403.5zM326 594h356q0 102 -43.5 167.5t-116.5 65.5q-77 0 -132.5 -68t-63.5 -165z" />
    <glyph glyph-name="Ecaron" unicode="&#x11a;" horiz-adv-x="1126" 
d="M184 244v891q0 56 -12 99.5t-26.5 66t-35.5 38t-31.5 19.5t-21.5 6h928v-365q-12 40 -27.5 68t-43 55.5t-72.5 41.5t-107 14h-258v-396h225q39 0 69.5 6.5t46.5 14.5t27.5 19.5t15 17.5t5.5 12v-324q-23 68 -159 68h-230v-408h279q128 0 194 42t125 151l-65 -381h-936
q8 1 17.5 4.5t27 19.5t31 40t24 71t10.5 109zM580 1436l-306 379q27 -15 156 -71t150 -67q19 10 146 66.5t153 71.5q-128 -166 -299 -379z" />
    <glyph glyph-name="ecaron" unicode="&#x11b;" horiz-adv-x="1005" 
d="M326 446l6 -24q23 -117 106 -186.5t197 -69.5q87 0 170 37t139 104q-32 -168 -140 -253t-278 -85q-207 0 -330.5 139.5t-123.5 352.5q0 143 54.5 263t160.5 194.5t243 74.5q188 0 293.5 -143.5t106.5 -403.5h-604zM326 594h356q0 102 -43.5 167.5t-116.5 65.5
q-77 0 -132.5 -68t-63.5 -165zM518 1044l-297 386l297 -146l289 146z" />
    <glyph glyph-name="Gcircumflex" unicode="&#x11c;" horiz-adv-x="1417" 
d="M965 201v217q0 48 -11.5 85.5t-26 57t-33.5 32.5t-29.5 16.5t-18.5 4.5h514q-8 -1 -17.5 -4.5t-28 -16t-32.5 -31.5t-24.5 -55t-10.5 -83v-375q-97 -40 -229.5 -61t-257.5 -21q-134 0 -248 37.5t-194.5 102.5t-137.5 151.5t-84.5 185.5t-27.5 205q0 114 30 221.5
t93.5 203t153.5 167t217.5 113t277.5 41.5q137 0 237.5 -26t157.5 -56v-355q-51 98 -156 166t-260 68q-194 0 -318 -140.5t-124 -365.5t122 -368.5t312 -143.5q71 0 154 27zM772 1810l328 -383q-25 13 -163.5 68.5t-164.5 67.5q-24 -12 -159.5 -67.5t-159.5 -68.5
q24 30 159 191t160 192z" />
    <glyph glyph-name="gcircumflex" unicode="&#x11d;" horiz-adv-x="1056" 
d="M494 168l235 -8q79 -2 137 -22t90 -52t47 -67.5t15 -75.5q0 -63 -33.5 -121.5t-100 -109t-181.5 -81t-263 -30.5q-192 0 -292.5 50t-100.5 130q0 67 54.5 125.5t125.5 89.5q-129 35 -129 127q0 52 56.5 110.5t128.5 98.5q-91 37 -147 116.5t-56 176.5q0 75 28.5 141
t82 117t137 80.5t186.5 29.5q70 0 164 -22q98 -23 178 -23q105 0 162 35v-188q-17 -7 -152 -7q49 -67 49 -163q0 -65 -26 -124t-75.5 -106.5t-130.5 -75.5t-183 -28q-28 0 -58 6q-84 -46 -84 -82q0 -22 39.5 -33.5t96.5 -13.5zM512 446q67 0 103 52.5t36 126.5q0 83 -44 148
t-122 65q-67 0 -103 -51t-36 -123q0 -87 45.5 -152.5t120.5 -65.5zM379 -35q-96 -54 -96 -110q0 -44 55 -68.5t160 -24.5q134 0 210 30.5t76 80.5q0 78 -172 84q-221 8 -233 8zM236 1036l288 391l295 -391l-295 150z" />
    <glyph glyph-name="Gbreve" unicode="&#x11e;" horiz-adv-x="1417" 
d="M965 201v217q0 48 -11.5 85.5t-26 57t-33.5 32.5t-29.5 16.5t-18.5 4.5h514q-8 -1 -17.5 -4.5t-28 -16t-32.5 -31.5t-24.5 -55t-10.5 -83v-375q-97 -40 -229.5 -61t-257.5 -21q-134 0 -248 37.5t-194.5 102.5t-137.5 151.5t-84.5 185.5t-27.5 205q0 114 30 221.5
t93.5 203t153.5 167t217.5 113t277.5 41.5q137 0 237.5 -26t157.5 -56v-355q-51 98 -156 166t-260 68q-194 0 -318 -140.5t-124 -365.5t122 -368.5t312 -143.5q71 0 154 27zM526 1800q37 -74 105 -112.5t145 -38.5t144.5 39t107.5 112q0 -153 -75 -239t-177 -86t-176 85.5
t-74 239.5z" />
    <glyph glyph-name="gbreve" unicode="&#x11f;" horiz-adv-x="1056" 
d="M494 168l235 -8q79 -2 137 -22t90 -52t47 -67.5t15 -75.5q0 -63 -33.5 -121.5t-100 -109t-181.5 -81t-263 -30.5q-192 0 -292.5 50t-100.5 130q0 67 54.5 125.5t125.5 89.5q-129 35 -129 127q0 52 56.5 110.5t128.5 98.5q-91 37 -147 116.5t-56 176.5q0 75 28.5 141
t82 117t137 80.5t186.5 29.5q70 0 164 -22q98 -23 178 -23q105 0 162 35v-188q-17 -7 -152 -7q49 -67 49 -163q0 -65 -26 -124t-75.5 -106.5t-130.5 -75.5t-183 -28q-28 0 -58 6q-84 -46 -84 -82q0 -22 39.5 -33.5t96.5 -13.5zM512 446q67 0 103 52.5t36 126.5q0 83 -44 148
t-122 65q-67 0 -103 -51t-36 -123q0 -87 45.5 -152.5t120.5 -65.5zM379 -35q-96 -54 -96 -110q0 -44 55 -68.5t160 -24.5q134 0 210 30.5t76 80.5q0 78 -172 84q-221 8 -233 8zM276 1425q37 -74 105 -112.5t145 -38.5t144.5 39t107.5 112q0 -153 -75 -239t-177 -86
t-176 85.5t-74 239.5z" />
    <glyph glyph-name="Gdotaccent" unicode="&#x120;" horiz-adv-x="1417" 
d="M965 201v217q0 48 -11.5 85.5t-26 57t-33.5 32.5t-29.5 16.5t-18.5 4.5h514q-8 -1 -17.5 -4.5t-28 -16t-32.5 -31.5t-24.5 -55t-10.5 -83v-375q-97 -40 -229.5 -61t-257.5 -21q-134 0 -248 37.5t-194.5 102.5t-137.5 151.5t-84.5 185.5t-27.5 205q0 114 30 221.5
t93.5 203t153.5 167t217.5 113t277.5 41.5q137 0 237.5 -26t157.5 -56v-355q-51 98 -156 166t-260 68q-194 0 -318 -140.5t-124 -365.5t122 -368.5t312 -143.5q71 0 154 27zM635 1620q0 59 40 98t105 39t105.5 -39t40.5 -98q0 -60 -40.5 -99.5t-105.5 -39.5t-105 39.5
t-40 99.5z" />
    <glyph glyph-name="gdotaccent" unicode="&#x121;" horiz-adv-x="1056" 
d="M494 168l235 -8q79 -2 137 -22t90 -52t47 -67.5t15 -75.5q0 -63 -33.5 -121.5t-100 -109t-181.5 -81t-263 -30.5q-192 0 -292.5 50t-100.5 130q0 67 54.5 125.5t125.5 89.5q-129 35 -129 127q0 52 56.5 110.5t128.5 98.5q-91 37 -147 116.5t-56 176.5q0 75 28.5 141
t82 117t137 80.5t186.5 29.5q70 0 164 -22q98 -23 178 -23q105 0 162 35v-188q-17 -7 -152 -7q49 -67 49 -163q0 -65 -26 -124t-75.5 -106.5t-130.5 -75.5t-183 -28q-28 0 -58 6q-84 -46 -84 -82q0 -22 39.5 -33.5t96.5 -13.5zM512 446q67 0 103 52.5t36 126.5q0 83 -44 148
t-122 65q-67 0 -103 -51t-36 -123q0 -87 45.5 -152.5t120.5 -65.5zM379 -35q-96 -54 -96 -110q0 -44 55 -68.5t160 -24.5q134 0 210 30.5t76 80.5q0 78 -172 84q-221 8 -233 8zM381 1255q0 56 37 92.5t100 36.5q60 0 97.5 -37t37.5 -92q0 -57 -37.5 -94t-97.5 -37
q-62 0 -99.5 37t-37.5 94z" />
    <glyph glyph-name="Gcommaaccent" unicode="&#x122;" horiz-adv-x="1417" 
d="M965 201v217q0 48 -11.5 85.5t-26 57t-33.5 32.5t-29.5 16.5t-18.5 4.5h514q-8 -1 -17.5 -4.5t-28 -16t-32.5 -31.5t-24.5 -55t-10.5 -83v-375q-97 -40 -229.5 -61t-257.5 -21q-134 0 -248 37.5t-194.5 102.5t-137.5 151.5t-84.5 185.5t-27.5 205q0 114 30 221.5
t93.5 203t153.5 167t217.5 113t277.5 41.5q137 0 237.5 -26t157.5 -56v-355q-51 98 -156 166t-260 68q-194 0 -318 -140.5t-124 -365.5t122 -368.5t312 -143.5q71 0 154 27zM739 -244q-2 0 -6 -1t-6 -1q-43 0 -67.5 24.5t-24.5 59.5q0 36 26.5 64t69.5 28q46 0 77.5 -35.5
t31.5 -93.5q0 -69 -54.5 -128.5t-140.5 -69.5q39 18 66.5 64t27.5 89z" />
    <glyph glyph-name="gcommaaccent" unicode="&#x123;" horiz-adv-x="1056" 
d="M596 1405q-41 -18 -66.5 -61.5t-25.5 -90.5q50 0 76 -22.5t26 -59.5q0 -36 -26.5 -65t-69.5 -29q-45 0 -77 35.5t-32 93.5q0 70 55 129.5t140 69.5zM494 168l235 -8q79 -2 137 -22t90 -52t47 -67.5t15 -75.5q0 -63 -33.5 -121.5t-100 -109t-181.5 -81t-263 -30.5
q-192 0 -292.5 50t-100.5 130q0 67 54.5 125.5t125.5 89.5q-129 35 -129 127q0 52 56.5 110.5t128.5 98.5q-91 37 -147 116.5t-56 176.5q0 75 28.5 141t82 117t137 80.5t186.5 29.5q70 0 164 -22q98 -23 178 -23q105 0 162 35v-188q-17 -7 -152 -7q49 -67 49 -163
q0 -65 -26 -124t-75.5 -106.5t-130.5 -75.5t-183 -28q-28 0 -58 6q-84 -46 -84 -82q0 -22 39.5 -33.5t96.5 -13.5zM512 446q67 0 103 52.5t36 126.5q0 83 -44 148t-122 65q-67 0 -103 -51t-36 -123q0 -87 45.5 -152.5t120.5 -65.5zM379 -35q-96 -54 -96 -110q0 -44 55 -68.5
t160 -24.5q134 0 210 30.5t76 80.5q0 78 -172 84q-221 8 -233 8z" />
    <glyph glyph-name="Hcircumflex" unicode="&#x124;" horiz-adv-x="1517" 
d="M170 229v906q0 56 -10 99.5t-23 66t-30.5 38t-27 19.5t-18.5 6h508q-7 -1 -16.5 -4.5t-26 -18t-29 -37.5t-22.5 -67t-10 -102v-353h588v353q0 57 -10 100.5t-22.5 66t-30.5 38t-27.5 19t-18.5 5.5h508q-8 -1 -16.5 -4.5t-25.5 -18t-29.5 -37t-22.5 -67t-10 -102.5v-906
q0 -57 9.5 -101t22 -67t29 -37.5t26 -18.5t17.5 -5h-508q8 1 17 4t27 17.5t31 37t23.5 67t10.5 103.5v367h-588v-367q0 -58 9.5 -102t22 -67t29 -37.5t26 -18t17.5 -4.5h-508q8 1 17 4t27 17.5t31 37t23.5 67t10.5 103.5zM758 1810l327 -383q-25 13 -163.5 68t-163.5 68
q-24 -13 -159.5 -68.5t-160.5 -67.5q25 30 160.5 191.5t159.5 191.5z" />
    <glyph glyph-name="hcircumflex" unicode="&#x125;" horiz-adv-x="1136" 
d="M145 217v832q0 131 -35.5 178t-93.5 47h-20l410 162v-572q46 47 127.5 88t162.5 41q139 0 219 -86.5t80 -247.5v-444q0 -53 9 -93.5t21.5 -62.5t28 -36t26 -18t18.5 -5h-443q6 1 13.5 4.5t20 17t21.5 34t16 61t7 92.5v385q0 201 -141 201q-77 0 -131.5 -57.5
t-54.5 -151.5v-377q0 -52 8.5 -92t20 -61t27 -34.5t24.5 -17t16 -4.5h-463q8 1 17 4t26 17t30 35t23 63.5t10 97.5zM569 1810l328 -383q-25 13 -163.5 68.5t-164.5 67.5q-25 -12 -159.5 -67.5t-159.5 -68.5q24 30 159.5 191t159.5 192z" />
    <glyph glyph-name="Hbar" unicode="&#x126;" horiz-adv-x="1536" 
d="M168 262v871q0 54 -10.5 97.5t-23.5 66.5t-30.5 39.5t-26 20.5t-16.5 7h510q-8 -2 -16 -6t-25.5 -19.5t-29.5 -38t-22 -66.5t-11 -101h604q-8 203 -106 231h508q-8 -2 -17.5 -7t-26 -22.5t-29.5 -44t-22.5 -76t-9.5 -112.5v-873q0 -54 9.5 -97t22 -66.5t28.5 -39
t27 -20.5t18 -6h-508q9 2 19 7.5t26.5 23t29 44t22 75t9.5 110.5v336h-604v-336q0 -63 9.5 -112t22.5 -75.5t29 -44t26 -22.5t17 -6h-508q9 2 19 7.5t26.5 23.5t29 44.5t21.5 75.5t9 111zM467 782h604v205h-604v-205z" />
    <glyph glyph-name="hbar" unicode="&#x127;" horiz-adv-x="1136" 
d="M145 217v903h-120v123h120v86l261 107v-193h415v-123h-415v-256q46 47 127.5 88t162.5 41q139 0 219 -86.5t80 -247.5v-444q0 -53 9 -93.5t21.5 -62.5t28 -36t26 -18t18.5 -5h-443q6 1 13.5 4.5t20 17t21.5 34t16 61t7 92.5v385q0 201 -141 201q-77 0 -131.5 -57.5
t-54.5 -151.5v-377q0 -52 8.5 -92t20 -61t27 -34.5t24.5 -17t16 -4.5h-463q8 1 17 4t26 17t30 35t23 63.5t10 97.5z" />
    <glyph glyph-name="Itilde" unicode="&#x128;" horiz-adv-x="653" 
d="M176 211v932q0 54 -10 96.5t-22.5 64t-30.5 36.5t-26 18t-17 6h503q-7 -1 -15 -4t-26 -17.5t-31 -36t-23.5 -64.5t-10.5 -99v-932q0 -52 9.5 -92t22 -61.5t29 -35t26.5 -17.5t17 -5h-501q8 1 17 4t26 16.5t30 34.5t23 62t10 94zM59 1458q-49 49 -49 117q0 72 47.5 125
t128.5 53q48 0 110.5 -27t119 -54t88.5 -27q96 0 96 139q45 -45 45 -111q0 -75 -50.5 -132.5t-131.5 -57.5q-46 0 -103 28.5t-110.5 57t-91.5 28.5q-46 0 -72 -35.5t-27 -103.5z" />
    <glyph glyph-name="itilde" unicode="&#x129;" horiz-adv-x="555" 
d="M147 217v442q0 109 -33.5 149t-86.5 40h-27l412 153v-784q0 -54 9.5 -96t21.5 -63.5t28.5 -35.5t25.5 -17.5t17 -4.5h-473q8 1 17 4t26 17t30 35t23 63.5t10 97.5zM10 1085q-49 49 -49 117q0 72 47.5 125t128.5 53q48 0 110.5 -27t119 -54t88.5 -27q96 0 96 139
q45 -45 45 -111q0 -75 -50.5 -132.5t-131.5 -57.5q-46 0 -103 29t-110.5 57.5t-91.5 28.5q-46 0 -72 -36t-27 -104z" />
    <glyph glyph-name="Imacron" unicode="&#x12a;" horiz-adv-x="643" 
d="M176 211v932q0 54 -10 96.5t-22.5 64t-30.5 36.5t-26 18t-17 6h503q-7 -1 -15 -4t-26 -17.5t-31 -36t-23.5 -64.5t-10.5 -99v-932q0 -52 9.5 -92t22 -61.5t29 -35t26.5 -17.5t17 -5h-501q8 1 17 4t26 16.5t30 34.5t23 62t10 94zM-14 1556v123h669v-123h-669z" />
    <glyph glyph-name="imacron" unicode="&#x12b;" horiz-adv-x="544" 
d="M147 217v442q0 109 -33.5 149t-86.5 40h-27l412 153v-784q0 -54 9.5 -96t21.5 -63.5t28.5 -35.5t25.5 -17.5t17 -4.5h-473q8 1 17 4t26 17t30 35t23 63.5t10 97.5zM-61 1174v122h669v-122h-669z" />
    <glyph glyph-name="Ibreve" unicode="&#x12c;" horiz-adv-x="643" 
d="M176 211v932q0 54 -10 96.5t-22.5 64t-30.5 36.5t-26 18t-17 6h503q-7 -1 -15 -4t-26 -17.5t-31 -36t-23.5 -64.5t-10.5 -99v-932q0 -52 9.5 -92t22 -61.5t29 -35t26.5 -17.5t17 -5h-501q8 1 17 4t26 16.5t30 34.5t23 62t10 94zM76 1800q37 -74 105 -112.5t145 -38.5
t144.5 39t107.5 112q0 -153 -75 -239t-177 -86t-176 85.5t-74 239.5z" />
    <glyph glyph-name="ibreve" unicode="&#x12d;" horiz-adv-x="555" 
d="M147 217v442q0 109 -33.5 149t-86.5 40h-27l412 153v-784q0 -54 9.5 -96t21.5 -63.5t28.5 -35.5t25.5 -17.5t17 -4.5h-473q8 1 17 4t26 17t30 35t23 63.5t10 97.5zM27 1425q37 -74 104.5 -112.5t144.5 -38.5t144.5 39t107.5 112q0 -153 -75 -239t-177 -86
q-101 0 -175 85.5t-74 239.5z" />
    <glyph glyph-name="Iogonek" unicode="&#x12e;" horiz-adv-x="653" 
d="M285 0h-209q9 2 19 6t26 18.5t28.5 36t21.5 61.5t9 91v930q0 52 -9.5 93t-22 63t-30 37.5t-27 20t-19.5 7.5h508q-12 -2 -25.5 -11t-33.5 -31t-33 -68.5t-13 -110.5v-930q0 -62 12 -107t30 -65.5t32 -29.5t26 -11q-129 -3 -190 -50t-61 -102q0 -47 30.5 -73.5t83.5 -26.5
q62 0 123 39q-22 -76 -83.5 -119t-129.5 -43q-78 0 -132 47.5t-54 126.5q0 58 33.5 111.5t89.5 89.5z" />
    <glyph glyph-name="iogonek" unicode="&#x12f;" horiz-adv-x="544" 
d="M219 0h-172q12 2 26 11t32 30t30 67t12 109v442q0 109 -33.5 149t-86.5 40h-27l412 153v-784q0 -64 11.5 -110t29.5 -67t31.5 -29.5t25.5 -10.5q-59 -1 -105 -12t-73 -27t-44.5 -37t-23.5 -39.5t-6 -38.5q0 -43 31.5 -70.5t83.5 -27.5q60 0 123 37q-22 -74 -84 -118
t-129 -44q-78 0 -132.5 48.5t-54.5 125.5q0 58 33.5 112.5t89.5 90.5zM102 1255q0 64 44.5 107t115.5 43t114.5 -43t43.5 -107q0 -67 -43.5 -110t-114.5 -43t-115.5 43t-44.5 110z" />
    <glyph glyph-name="Idotaccent" unicode="&#x130;" horiz-adv-x="653" 
d="M176 211v932q0 54 -10 96.5t-22.5 64t-30.5 36.5t-26 18t-17 6h503q-7 -1 -15 -4t-26 -17.5t-31 -36t-23.5 -64.5t-10.5 -99v-932q0 -52 9.5 -92t22 -61.5t29 -35t26.5 -17.5t17 -5h-501q8 1 17 4t26 16.5t30 34.5t23 62t10 94zM180 1620q0 59 40.5 98t105.5 39t105 -39
t40 -98q0 -61 -40 -101t-105 -40t-105.5 40t-40.5 101z" />
    <glyph glyph-name="dotlessi" unicode="&#x131;" horiz-adv-x="544" 
d="M147 217v442q0 109 -33.5 149t-86.5 40h-27l412 153v-784q0 -54 9.5 -96t21.5 -63.5t28.5 -35.5t25.5 -17.5t17 -4.5h-473q8 1 17 4t26 17t30 35t23 63.5t10 97.5z" />
    <glyph glyph-name="IJ" unicode="&#x132;" horiz-adv-x="1325" 
d="M176 211v932q0 54 -10 96.5t-22.5 64t-30.5 36.5t-26 18t-17 6h503q-7 -1 -15 -4t-26 -17.5t-31 -36t-23.5 -64.5t-10.5 -99v-932q0 -52 9.5 -92t22 -61.5t29 -35t26.5 -17.5t17 -5h-501q8 1 17 4t26 16.5t30 34.5t23 62t10 94zM858 295v850q0 53 -10 94.5t-23.5 63
t-31.5 36.5t-29 19t-21 6h510q-9 -2 -17 -5.5t-25 -18t-29 -36t-21.5 -64t-9.5 -97.5v-881q0 -215 -86.5 -318.5t-245.5 -103.5q-76 0 -142.5 29.5t-109.5 81.5q38 -10 74 -10q107 0 162 94.5t55 259.5z" />
    <glyph glyph-name="ij" unicode="&#x133;" horiz-adv-x="1099" 
d="M143 217v445q0 107 -33 146.5t-85 39.5h-27l405 153v-784q0 -54 9.5 -96t22 -63.5t28.5 -35.5t25.5 -17.5t17.5 -4.5h-467q8 1 16.5 4t25.5 17t29.5 35t22.5 63.5t10 97.5zM96 1255q0 65 44.5 108.5t115.5 43.5q72 0 116 -43t44 -109q0 -67 -44 -111t-116 -44
q-71 0 -115.5 44t-44.5 111zM651 1255q0 65 44.5 108.5t115.5 43.5q72 0 116 -43t44 -109q0 -67 -44 -111t-116 -44q-71 0 -115.5 44t-44.5 111zM698 -33v705q0 102 -31.5 139t-84.5 37h-29l408 153v-1032q0 -186 -87.5 -273t-238.5 -87q-81 0 -140 34.5t-85 69.5
q58 -16 90 -16q95 0 146.5 60t51.5 210z" />
    <glyph glyph-name="Jcircumflex" unicode="&#x134;" horiz-adv-x="681" 
d="M215 295v850q0 53 -10 94.5t-23.5 63t-31.5 36.5t-29 19t-21 6h510q-9 -2 -17 -5.5t-25 -18t-29 -36t-21.5 -64t-9.5 -97.5v-881q0 -215 -86.5 -318.5t-245.5 -103.5q-76 0 -142.5 29.5t-109.5 81.5q38 -10 74 -10q107 0 162 94.5t55 259.5zM360 1810l328 -383
q-26 13 -164 68.5t-164 67.5q-24 -12 -159 -67.5t-160 -68.5q24 30 159 191t160 192z" />
    <glyph glyph-name="jcircumflex" unicode="&#x135;" horiz-adv-x="544" 
d="M143 -31v703q0 102 -31.5 139t-84.5 37h-27l406 153v-1030q0 -186 -87.5 -273t-238.5 -87q-80 0 -141 35t-82 69q43 -16 90 -16q93 0 144.5 60t51.5 210zM567 1055l-293 143q-56 -27 -157 -77t-133 -66q192 254 290 381z" />
    <glyph glyph-name="Kcommaaccent" unicode="&#x136;" horiz-adv-x="1470" 
d="M170 227v908q0 56 -10 99.5t-23 66t-30.5 38t-27 19.5t-18.5 6h508q-7 -1 -16.5 -4.5t-26 -18t-29 -37.5t-22.5 -67t-10 -102v-377l338 368q110 123 110 187q0 18 -11 30t-20.5 15.5t-19.5 5.5h537q-8 -1 -19.5 -4.5t-43 -19t-66 -39t-88 -69.5t-109.5 -106l-340 -370
l402 -510q175 -222 283 -245q2 -1 3 -1h-456l-500 639v-412q0 -57 9.5 -101t22 -66.5t29 -37t26 -18t17.5 -4.5h-508q8 1 17 4.5t27 17.5t31 36.5t23.5 66.5t10.5 102zM735 -244q-2 0 -6 -1t-6 -1q-43 0 -67.5 24.5t-24.5 59.5q0 36 26.5 64t69.5 28q46 0 77.5 -35.5
t31.5 -93.5q0 -69 -54.5 -128.5t-140.5 -69.5q39 18 66.5 64t27.5 89z" />
    <glyph glyph-name="kcommaaccent" unicode="&#x137;" horiz-adv-x="1198" 
d="M143 217v842q0 55 -7.5 96t-19.5 64.5t-29.5 37.5t-34 18.5t-36.5 4.5h-20l410 147v-884l223 235q67 67 67 119q0 43 -57 57h498q-114 -39 -267 -194l-206 -209l278 -342q144 -180 227 -180q5 0 25 4q-79 -58 -258 -58q-92 0 -159 40.5t-136 134.5q-196 272 -235 313
v-246q0 -54 9 -96t21 -63.5t28 -35.5t25 -17.5t17 -4.5h-463q8 1 17 4.5t25 17.5t28 35.5t21 63.5t9 96zM600 -244q-2 0 -6 -1t-6 -1q-43 0 -67.5 24.5t-24.5 59.5q0 36 26.5 64t69.5 28q46 0 77 -35.5t31 -93.5q0 -70 -54 -129t-140 -69q39 18 66.5 64t27.5 89z" />
    <glyph glyph-name="kgreenlandic" unicode="&#x138;" horiz-adv-x="1198" 
d="M147 238v421q0 109 -33.5 149t-86.5 40h-27q48 17 210 77t202 76v-458l229 233q68 71 68 121q0 14 -5.5 24.5t-14 16.5t-16 9t-15.5 5l-7 2h504q-115 -41 -270 -196l-211 -207l282 -342q152 -180 232 -180q6 0 26 4q-79 -58 -245 -58q-102 0 -173.5 40t-144.5 135
q-7 8 -55 74t-101 135.5t-83 101.5v-221q0 -58 9 -103.5t21.5 -70t28 -40.5t25 -20.5t16.5 -5.5h-469q8 1 18.5 5.5t26.5 20t28.5 39.5t21.5 69.5t9 103.5z" />
    <glyph glyph-name="Lacute" unicode="&#x139;" horiz-adv-x="1114" 
d="M168 254v879q0 57 -9.5 100.5t-22 66.5t-29.5 38.5t-26 19.5t-18 6h496q-8 -1 -17 -4.5t-26 -18t-30 -37t-23 -67.5t-10 -104v-945h276q147 0 209.5 29.5t122.5 136.5l-55 -354h-932q7 1 15 4.5t23 19.5t26.5 41t20.5 74.5t9 114.5zM391 1427l98 328h338z" />
    <glyph glyph-name="lacute" unicode="&#x13a;" horiz-adv-x="544" 
d="M141 217v842q0 70 -10.5 116.5t-30 68t-39.5 29t-47 7.5h-18l407 147v-1210q0 -53 9 -94t21 -63t27 -36.5t25.5 -18.5t18.5 -5h-465q8 1 16.5 4t25 17t29 35t22 63.5t9.5 97.5zM127 1427l98 328h338z" />
    <glyph glyph-name="Lcommaaccent" unicode="&#x13b;" horiz-adv-x="1114" 
d="M168 254v879q0 57 -9.5 100.5t-22 66.5t-29.5 38.5t-26 19.5t-18 6h496q-8 -1 -17 -4.5t-26 -18t-30 -37t-23 -67.5t-10 -104v-945h276q147 0 209.5 29.5t122.5 136.5l-55 -354h-932q7 1 15 4.5t23 19.5t26.5 41t20.5 74.5t9 114.5zM571 -244q-2 0 -6 -1t-6 -1
q-43 0 -67.5 24.5t-24.5 59.5q0 36 26.5 64t69.5 28q46 0 77.5 -35.5t31.5 -93.5q0 -69 -54.5 -128.5t-140.5 -69.5q39 18 66.5 64t27.5 89z" />
    <glyph glyph-name="lcommaaccent" unicode="&#x13c;" horiz-adv-x="544" 
d="M141 217v842q0 70 -10.5 116.5t-30 68t-39.5 29t-47 7.5h-18l407 147v-1210q0 -53 9 -94t21 -63t27 -36.5t25.5 -18.5t18.5 -5h-465q8 1 16.5 4t25 17t29 35t22 63.5t9.5 97.5zM281 -244q-2 0 -6.5 -1t-6.5 -1q-43 0 -67.5 24.5t-24.5 59.5q0 36 26.5 64t69.5 28
q46 0 77.5 -35.5t31.5 -93.5q0 -69 -54.5 -128.5t-140.5 -69.5q39 19 67 64.5t28 88.5z" />
    <glyph glyph-name="Lcaron" unicode="&#x13d;" horiz-adv-x="1114" 
d="M168 254v879q0 57 -9.5 100.5t-22 66.5t-29.5 38.5t-26 19.5t-18 6h496q-8 -1 -17 -4.5t-26 -18t-30 -37t-23 -67.5t-10 -104v-945h276q147 0 209.5 29.5t122.5 136.5l-55 -354h-932q7 1 15 4.5t23 19.5t26.5 41t20.5 74.5t9 114.5zM653 1006l49 391h269z" />
    <glyph glyph-name="lcaron" unicode="&#x13e;" horiz-adv-x="544" 
d="M141 217v842q0 70 -10.5 116.5t-30 68t-39.5 29t-47 7.5h-18l407 147v-1210q0 -53 9 -94t21 -63t27 -36.5t25.5 -18.5t18.5 -5h-465q8 1 16.5 4t25 17t29 35t22 63.5t9.5 97.5zM489 1006l50 391h268z" />
    <glyph glyph-name="Ldot" unicode="&#x13f;" horiz-adv-x="1208" 
d="M168 254v879q0 57 -9.5 100.5t-22 66.5t-29.5 38.5t-26 19.5t-18 6h496q-8 -1 -17 -4.5t-26 -18t-30 -37t-23 -67.5t-10 -104v-945h276q147 0 209.5 29.5t122.5 136.5l-55 -354h-932q7 1 15 4.5t23 19.5t26.5 41t20.5 74.5t9 114.5zM723 688q0 75 49 123.5t129 48.5
q81 0 130.5 -48.5t49.5 -123.5q0 -73 -50 -122.5t-130 -49.5t-129 49t-49 123z" />
    <glyph glyph-name="ldot" unicode="&#x140;" horiz-adv-x="987" 
d="M141 217v842q0 70 -10.5 116.5t-30 68t-39.5 29t-47 7.5h-18l407 147v-1210q0 -53 9 -94t21 -63t27 -36.5t25.5 -18.5t18.5 -5h-465q8 1 16.5 4t25 17t29 35t22 63.5t9.5 97.5zM573 645q0 75 49 123.5t130 48.5t130.5 -48.5t49.5 -123.5q0 -73 -50 -122.5t-130 -49.5
t-129.5 49t-49.5 123z" />
    <glyph glyph-name="Lslash" unicode="&#x141;" horiz-adv-x="1114" 
d="M35 373v176l135 100v484q0 57 -9.5 101t-22 67t-29.5 38.5t-25.5 19t-17.5 5.5h495q-10 -2 -18.5 -5.5t-26.5 -18.5t-30.5 -38t-22.5 -67t-10 -102v-273l200 150v-179l-200 -149v-494h278q135 0 207.5 50t132.5 170l-63 -408h-934q7 1 16.5 5.5t24 21t26.5 42t20.5 74
t8.5 111.5v217z" />
    <glyph glyph-name="lslash" unicode="&#x142;" horiz-adv-x="536" 
d="M141 217v272l-127 -96v178l127 97v391q0 70 -10.5 116.5t-30 68t-39.5 29t-47 7.5h-18l407 147v-563l121 92v-178l-121 -92v-469q0 -53 8 -94t19 -63t25.5 -36.5t23.5 -18.5t17 -5h-457q8 1 18 5t25.5 18t28 36t21.5 63t9 95z" />
    <glyph glyph-name="Nacute" unicode="&#x143;" horiz-adv-x="1480" 
d="M193 223v899q0 44 -18.5 85t-42.5 66.5t-55 48t-45.5 30t-25.5 12.5h434l643 -805v580q0 56 -10.5 98.5t-23.5 65t-31.5 37.5t-27.5 18.5t-19 5.5h444q-8 -1 -17 -4.5t-26 -17.5t-30 -36t-23 -66t-10 -101v-1139h-213q-6 17 -19 48.5t-69 126t-131 185.5l-457 558v-695
q0 -56 11 -98.5t26 -65t34.5 -36.5t31 -18t20.5 -5h-455q8 1 16.5 4t26 17t30 36t22.5 65.5t10 100.5zM639 1427l98 328h338z" />
    <glyph glyph-name="nacute" unicode="&#x144;" horiz-adv-x="1134" 
d="M141 211v446q0 59 -9 98.5t-26 59t-35 26.5t-42 7h-29l393 153l2 -147q51 60 137 99.5t164 39.5q138 0 217.5 -83.5t79.5 -250.5v-442q0 -54 9 -96t21.5 -63.5t28.5 -35.5t25 -17.5t17 -4.5h-455q7 1 14.5 4t22.5 16t26 33.5t20 61.5t9 94v385q0 201 -139 201
q-77 0 -134 -59.5t-57 -149.5v-377q0 -51 8.5 -91t20 -61t26 -34.5t24.5 -17.5t18 -5h-461q8 1 18 4.5t26 17t28.5 34.5t22 61.5t9.5 93.5zM504 1036l98 328h338z" />
    <glyph glyph-name="Ncommaaccent" unicode="&#x145;" horiz-adv-x="1480" 
d="M193 223v899q0 44 -18.5 85t-42.5 66.5t-55 48t-45.5 30t-25.5 12.5h434l643 -805v580q0 56 -10.5 98.5t-23.5 65t-31.5 37.5t-27.5 18.5t-19 5.5h444q-8 -1 -17 -4.5t-26 -17.5t-30 -36t-23 -66t-10 -101v-1139h-213q-6 17 -19 48.5t-69 126t-131 185.5l-457 558v-695
q0 -56 11 -98.5t26 -65t34.5 -36.5t31 -18t20.5 -5h-455q8 1 16.5 4t26 17t30 36t22.5 65.5t10 100.5zM756 -244q-2 0 -6.5 -1t-6.5 -1q-43 0 -67.5 24.5t-24.5 59.5q0 36 26.5 64t70.5 28q46 0 77 -35.5t31 -93.5q0 -70 -54 -129t-140 -69q39 18 66.5 64t27.5 89z" />
    <glyph glyph-name="ncommaaccent" unicode="&#x146;" horiz-adv-x="1134" 
d="M141 211v446q0 59 -9 98.5t-26 59t-35 26.5t-42 7h-29l393 153l2 -147q51 60 137 99.5t164 39.5q138 0 217.5 -83.5t79.5 -250.5v-442q0 -54 9 -96t21.5 -63.5t28.5 -35.5t25 -17.5t17 -4.5h-455q7 1 14.5 4t22.5 16t26 33.5t20 61.5t9 94v385q0 201 -139 201
q-77 0 -134 -59.5t-57 -149.5v-377q0 -51 8.5 -91t20 -61t26 -34.5t24.5 -17.5t18 -5h-461q8 1 18 4.5t26 17t28.5 34.5t22 61.5t9.5 93.5zM578 -244q-2 0 -6.5 -1t-6.5 -1q-43 0 -67.5 24.5t-24.5 59.5q0 36 26.5 64t69.5 28q46 0 77.5 -35.5t31.5 -93.5
q0 -69 -54.5 -128.5t-140.5 -69.5q39 19 67 64.5t28 88.5z" />
    <glyph glyph-name="Ncaron" unicode="&#x147;" horiz-adv-x="1480" 
d="M193 223v899q0 44 -18.5 85t-42.5 66.5t-55 48t-45.5 30t-25.5 12.5h434l643 -805v580q0 56 -10.5 98.5t-23.5 65t-31.5 37.5t-27.5 18.5t-19 5.5h444q-8 -1 -17 -4.5t-26 -17.5t-30 -36t-23 -66t-10 -101v-1139h-213q-6 17 -19 48.5t-69 126t-131 185.5l-457 558v-695
q0 -56 11 -98.5t26 -65t34.5 -36.5t31 -18t20.5 -5h-455q8 1 16.5 4t26 17t30 36t22.5 65.5t10 100.5zM750 1436l-306 379q27 -15 156 -71t150 -67q19 10 146 66.5t153 71.5q-128 -166 -299 -379z" />
    <glyph glyph-name="ncaron" unicode="&#x148;" horiz-adv-x="1134" 
d="M141 211v446q0 59 -9 98.5t-26 59t-35 26.5t-42 7h-29l393 153l2 -147q51 60 137 99.5t164 39.5q138 0 217.5 -83.5t79.5 -250.5v-442q0 -54 9 -96t21.5 -63.5t28.5 -35.5t25 -17.5t17 -4.5h-455q7 1 14.5 4t22.5 16t26 33.5t20 61.5t9 94v385q0 201 -139 201
q-77 0 -134 -59.5t-57 -149.5v-377q0 -51 8.5 -91t20 -61t26 -34.5t24.5 -17.5t18 -5h-461q8 1 18 4.5t26 17t28.5 34.5t22 61.5t9.5 93.5zM580 1044l-297 386l297 -146l288 146z" />
    <glyph glyph-name="napostrophe" unicode="&#x149;" horiz-adv-x="1134" 
d="M141 211v446q0 59 -9 98.5t-26 59t-35 26.5t-42 7h-29l393 153l2 -147q51 60 137 99.5t164 39.5q138 0 217.5 -83.5t79.5 -250.5v-442q0 -54 9 -96t21.5 -63.5t28.5 -35.5t25 -17.5t17 -4.5h-455q7 1 14.5 4t22.5 16t26 33.5t20 61.5t9 94v385q0 201 -139 201
q-77 0 -134 -59.5t-57 -149.5v-377q0 -51 8.5 -91t20 -61t26 -34.5t24.5 -17.5t18 -5h-461q8 1 18 4.5t26 17t28.5 34.5t22 61.5t9.5 93.5zM117 1233q-2 0 -6.5 -1t-6.5 -1q-43 0 -67.5 24.5t-24.5 59.5q0 36 26.5 64t70.5 28q46 0 77 -35.5t31 -93.5q0 -70 -54 -129.5
t-140 -69.5q39 18 66.5 64t27.5 90z" />
    <glyph glyph-name="Eng" unicode="&#x14a;" horiz-adv-x="1480" 
d="M197 225v895q0 44 -18.5 84.5t-42 66.5t-54.5 48.5t-46.5 31t-27.5 13.5h438l662 -807v580q0 67 -13.5 115t-35.5 70t-35.5 30t-28.5 12h445q-9 -2 -19 -6t-26.5 -19.5t-28.5 -38t-21.5 -65.5t-9.5 -98v-1018q0 -187 -130.5 -309.5t-350.5 -122.5q98 46 150.5 125.5
t52.5 173.5q0 81 -46 180.5t-122 191.5l-463 562v-697q0 -65 14 -112t36 -69t38.5 -31t30.5 -11h-451q13 2 26.5 10.5t33 30t31.5 69.5t12 115z" />
    <glyph glyph-name="eng" unicode="&#x14b;" horiz-adv-x="1134" 
d="M145 213v442q0 113 -31 153t-83 40h-29l397 153l2 -149q50 57 137.5 99t172.5 42q139 0 220 -83.5t81 -252.5v-688q0 -185 -88.5 -272.5t-243.5 -87.5q-81 0 -141 34.5t-86 69.5q46 -16 92 -16q97 0 150 60.5t53 209.5v627q0 201 -144 201q-79 0 -137.5 -59.5
t-58.5 -149.5v-377q0 -51 8.5 -91t19.5 -61t25.5 -34.5t24.5 -17.5t18 -5h-463q8 1 18 4.5t26 17t28.5 34.5t22 62t9.5 95z" />
    <glyph glyph-name="Omacron" unicode="&#x14c;" horiz-adv-x="1540" 
d="M750 -31q-202 0 -355.5 93.5t-233 250t-79.5 349.5q0 204 89.5 371t253.5 264.5t372 97.5q151 0 276.5 -54t209 -147.5t129.5 -220t46 -271.5q0 -149 -50.5 -282.5t-141 -233.5t-224.5 -158.5t-292 -58.5zM797 180q160 0 262 126.5t102 340.5q0 154 -47.5 275.5
t-143 193.5t-225.5 72q-159 0 -261.5 -123.5t-102.5 -339.5q0 -248 111.5 -396.5t304.5 -148.5zM436 1548v123h670v-123h-670z" />
    <glyph glyph-name="omacron" unicode="&#x14d;" horiz-adv-x="1150" 
d="M563 -31q-224 0 -356.5 137.5t-132.5 356.5q0 228 143 379t365 151q225 0 360 -136.5t135 -354.5q0 -229 -142 -381t-372 -152zM592 154q97 0 156 88t59 219q0 143 -69.5 245.5t-182.5 102.5q-99 0 -157 -85.5t-58 -213.5q0 -144 70.5 -250t181.5 -106zM248 1174v122h670
v-122h-670z" />
    <glyph glyph-name="Obreve" unicode="&#x14e;" horiz-adv-x="1540" 
d="M750 -31q-202 0 -355.5 93.5t-233 250t-79.5 349.5q0 204 89.5 371t253.5 264.5t372 97.5q151 0 276.5 -54t209 -147.5t129.5 -220t46 -271.5q0 -149 -50.5 -282.5t-141 -233.5t-224.5 -158.5t-292 -58.5zM797 180q160 0 262 126.5t102 340.5q0 154 -47.5 275.5
t-143 193.5t-225.5 72q-159 0 -261.5 -123.5t-102.5 -339.5q0 -248 111.5 -396.5t304.5 -148.5zM520 1800q37 -74 105 -112.5t145 -38.5t144.5 39t107.5 112q0 -153 -75 -239t-177 -86t-176 85.5t-74 239.5z" />
    <glyph glyph-name="obreve" unicode="&#x14f;" horiz-adv-x="1150" 
d="M563 -31q-224 0 -356.5 137.5t-132.5 356.5q0 228 143 379t365 151q225 0 360 -136.5t135 -354.5q0 -229 -142 -381t-372 -152zM592 154q97 0 156 88t59 219q0 143 -69.5 245.5t-182.5 102.5q-99 0 -157 -85.5t-58 -213.5q0 -144 70.5 -250t181.5 -106zM330 1425
q37 -74 105 -112.5t145 -38.5t144 39t107 112q0 -154 -74.5 -239.5t-176.5 -85.5t-176 85.5t-74 239.5z" />
    <glyph glyph-name="Ohungarumlaut" unicode="&#x150;" horiz-adv-x="1540" 
d="M750 -31q-202 0 -355.5 93.5t-233 250t-79.5 349.5q0 204 89.5 371t253.5 264.5t372 97.5q151 0 276.5 -54t209 -147.5t129.5 -220t46 -271.5q0 -149 -50.5 -282.5t-141 -233.5t-224.5 -158.5t-292 -58.5zM797 180q160 0 262 126.5t102 340.5q0 154 -47.5 275.5
t-143 193.5t-225.5 72q-159 0 -261.5 -123.5t-102.5 -339.5q0 -248 111.5 -396.5t304.5 -148.5zM922 1444l110 328h309zM526 1444l109 328h311z" />
    <glyph glyph-name="ohungarumlaut" unicode="&#x151;" horiz-adv-x="1150" 
d="M563 -31q-224 0 -356.5 137.5t-132.5 356.5q0 228 143 379t365 151q225 0 360 -136.5t135 -354.5q0 -229 -142 -381t-372 -152zM592 154q97 0 156 88t59 219q0 143 -69.5 245.5t-182.5 102.5q-99 0 -157 -85.5t-58 -213.5q0 -144 70.5 -250t181.5 -106zM670 1036l110 328
h310zM274 1036l109 328h311z" />
    <glyph glyph-name="OE" unicode="&#x152;" horiz-adv-x="2000" 
d="M1356 188h282q122 0 197 55t121 173l-68 -416h-915q-105 -31 -223 -31q-154 0 -281.5 56t-211.5 151.5t-129.5 221.5t-45.5 266q0 146 50 278t139.5 233.5t226 161.5t299.5 60q107 0 219 -33h848v-389q-4 24 -12.5 48t-27 53t-44 51t-67.5 36.5t-93 14.5h-264v-396h229
q47 0 81 13t50 33.5t22 32.5t9 24v-393q0 4 -1.5 11t-11 25t-24.5 32t-47 25t-74 11h-233v-408zM1069 428v578q-32 67 -117 125.5t-207 58.5q-159 0 -260.5 -124t-101.5 -341q0 -250 112 -398.5t302 -148.5q90 0 166.5 70.5t105.5 179.5z" />
    <glyph glyph-name="oe" unicode="&#x153;" horiz-adv-x="1740" 
d="M1665 446h-604q8 -48 27.5 -92.5t54.5 -89t93.5 -71.5t133.5 -27q87 0 170 37t139 104q-32 -168 -139.5 -253t-277.5 -85q-206 0 -334 148q-142 -148 -365 -148q-224 0 -356.5 137.5t-132.5 356.5q0 228 143 379t365 151q229 0 366 -143q127 143 318 143q188 0 293 -143
t106 -404zM1061 594h356q0 102 -43.5 167.5t-116.5 65.5q-77 0 -132.5 -68t-63.5 -165zM592 154q97 0 156 88t59 219q0 143 -69.5 245.5t-182.5 102.5q-99 0 -157 -85.5t-58 -213.5q0 -144 70.5 -250t181.5 -106z" />
    <glyph glyph-name="Racute" unicode="&#x154;" horiz-adv-x="1306" 
d="M188 227v899q0 58 -12 103.5t-27 69t-36 39.5t-30.5 19.5t-19.5 6.5h601q117 0 211 -33.5t152 -90t89 -127t31 -148.5q0 -144 -89.5 -250t-244.5 -127q52 -29 102 -119l183 -315q27 -47 57 -80t55 -47.5t40 -20t26 -6.5h-416l-227 420q-36 68 -65 92.5t-70 24.5h-29v-310
q0 -57 9.5 -100.5t22 -66t29 -37t26 -18.5t17.5 -5h-493q8 1 17 4t26.5 17.5t30.5 36.5t23.5 66.5t10.5 102.5zM467 721h143q122 0 183 67.5t61 167.5q0 92 -64.5 157t-181.5 65h-141v-457zM547 1427l98 328h338z" />
    <glyph glyph-name="racute" unicode="&#x155;" horiz-adv-x="819" 
d="M139 217v459q0 104 -29.5 142t-80.5 38h-25l379 145l4 -213q35 84 108 144.5t156 60.5q58 0 107 -28v-330q-22 46 -70.5 78t-99.5 32q-79 0 -135 -82t-56 -239v-207q0 -54 9.5 -96t22 -63.5t28.5 -35.5t25.5 -17.5t17.5 -4.5h-463q8 1 16.5 4t25 17t29 35t22 63.5
t9.5 97.5zM252 1036l98 328h338z" />
    <glyph glyph-name="Rcommaaccent" unicode="&#x156;" horiz-adv-x="1306" 
d="M188 227v899q0 58 -12 103.5t-27 69t-36 39.5t-30.5 19.5t-19.5 6.5h601q117 0 211 -33.5t152 -90t89 -127t31 -148.5q0 -144 -89.5 -250t-244.5 -127q52 -29 102 -119l183 -315q27 -47 57 -80t55 -47.5t40 -20t26 -6.5h-416l-227 420q-36 68 -65 92.5t-70 24.5h-29v-310
q0 -57 9.5 -100.5t22 -66t29 -37t26 -18.5t17.5 -5h-493q8 1 17 4t26.5 17.5t30.5 36.5t23.5 66.5t10.5 102.5zM467 721h143q122 0 183 67.5t61 167.5q0 92 -64.5 157t-181.5 65h-141v-457zM672 -244q-2 0 -6.5 -1t-6.5 -1q-43 0 -67.5 24.5t-24.5 59.5q0 36 26.5 64
t70.5 28q46 0 77 -35.5t31 -93.5q0 -70 -54 -129t-140 -69q39 18 66.5 64t27.5 89z" />
    <glyph glyph-name="rcommaaccent" unicode="&#x157;" horiz-adv-x="819" 
d="M139 217v459q0 104 -29.5 142t-80.5 38h-25l379 145l4 -213q35 84 108 144.5t156 60.5q58 0 107 -28v-330q-22 46 -70.5 78t-99.5 32q-79 0 -135 -82t-56 -239v-207q0 -54 9.5 -96t22 -63.5t28.5 -35.5t25.5 -17.5t17.5 -4.5h-463q8 1 16.5 4t25 17t29 35t22 63.5
t9.5 97.5zM365 -244q-2 0 -6.5 -1t-6.5 -1q-43 0 -67.5 24.5t-24.5 59.5q0 36 26.5 64t69.5 28q46 0 77.5 -35.5t31.5 -93.5q0 -69 -54.5 -128.5t-140.5 -69.5q39 19 67 64.5t28 88.5z" />
    <glyph glyph-name="Rcaron" unicode="&#x158;" horiz-adv-x="1306" 
d="M188 227v899q0 58 -12 103.5t-27 69t-36 39.5t-30.5 19.5t-19.5 6.5h601q117 0 211 -33.5t152 -90t89 -127t31 -148.5q0 -144 -89.5 -250t-244.5 -127q52 -29 102 -119l183 -315q27 -47 57 -80t55 -47.5t40 -20t26 -6.5h-416l-227 420q-36 68 -65 92.5t-70 24.5h-29v-310
q0 -57 9.5 -100.5t22 -66t29 -37t26 -18.5t17.5 -5h-493q8 1 17 4t26.5 17.5t30.5 36.5t23.5 66.5t10.5 102.5zM467 721h143q122 0 183 67.5t61 167.5q0 92 -64.5 157t-181.5 65h-141v-457zM629 1436l-305 379q27 -15 155.5 -71t149.5 -67q19 10 146 66.5t153 71.5
q-128 -166 -299 -379z" />
    <glyph glyph-name="rcaron" unicode="&#x159;" horiz-adv-x="819" 
d="M139 217v459q0 104 -29.5 142t-80.5 38h-25l379 145l4 -213q35 84 108 144.5t156 60.5q58 0 107 -28v-330q-22 46 -70.5 78t-99.5 32q-79 0 -135 -82t-56 -239v-207q0 -54 9.5 -96t22 -63.5t28.5 -35.5t25.5 -17.5t17.5 -4.5h-463q8 1 16.5 4t25 17t29 35t22 63.5
t9.5 97.5zM420 1044l-297 386l297 -146l289 146z" />
    <glyph glyph-name="Sacute" unicode="&#x15a;" horiz-adv-x="1105" 
d="M94 72v387q132 -287 412 -287q97 0 163 42.5t66 113.5q0 35 -16 66.5t-37.5 54t-62.5 48.5t-71.5 41.5t-85.5 42t-85 42.5q-60 32 -104 62.5t-86.5 74t-64.5 100.5t-22 125q0 130 67 224t176 139t247 45q95 0 186.5 -26.5t149.5 -66.5v-325q-45 84 -143.5 151.5
t-211.5 67.5q-99 0 -150.5 -42t-51.5 -108q0 -31 14.5 -59t33.5 -48t57 -43t66.5 -37t79.5 -38q9 -4 13 -6q47 -21 79 -37t75.5 -41t73 -48.5t61.5 -57.5t50.5 -69.5t31 -82t12.5 -98.5q0 -130 -68.5 -224t-184.5 -140t-265 -46q-112 0 -220.5 28t-183.5 75zM426 1427
l98 328h338z" />
    <glyph glyph-name="sacute" unicode="&#x15b;" horiz-adv-x="827" 
d="M76 51v297q43 -90 124 -146.5t191 -56.5q60 0 99.5 22.5t39.5 65.5q0 19 -8 35t-19 28t-35.5 27t-45.5 25.5t-62.5 31.5t-72.5 38q-105 56 -152 119.5t-47 150.5q0 140 97 222.5t270 82.5q70 0 140 -15t114 -40v-274q-33 55 -101 103t-159 48q-58 0 -90.5 -23.5
t-32.5 -62.5q0 -46 39.5 -75.5t148.5 -81.5q11 -4 16 -7q130 -58 187 -127t57 -166q0 -140 -103.5 -221.5t-279.5 -81.5q-92 0 -181 23t-134 59zM272 1036l99 328h338z" />
    <glyph glyph-name="Scircumflex" unicode="&#x15c;" horiz-adv-x="1105" 
d="M94 72v387q132 -287 412 -287q97 0 163 42.5t66 113.5q0 35 -16 66.5t-37.5 54t-62.5 48.5t-71.5 41.5t-85.5 42t-85 42.5q-60 32 -104 62.5t-86.5 74t-64.5 100.5t-22 125q0 130 67 224t176 139t247 45q95 0 186.5 -26.5t149.5 -66.5v-325q-45 84 -143.5 151.5
t-211.5 67.5q-99 0 -150.5 -42t-51.5 -108q0 -31 14.5 -59t33.5 -48t57 -43t66.5 -37t79.5 -38q9 -4 13 -6q47 -21 79 -37t75.5 -41t73 -48.5t61.5 -57.5t50.5 -69.5t31 -82t12.5 -98.5q0 -130 -68.5 -224t-184.5 -140t-265 -46q-112 0 -220.5 28t-183.5 75zM565 1810
l328 -383q-25 13 -163.5 68.5t-164.5 67.5q-25 -12 -159.5 -67.5t-159.5 -68.5q24 30 159 191t160 192z" />
    <glyph glyph-name="scircumflex" unicode="&#x15d;" horiz-adv-x="827" 
d="M76 51v297q43 -90 124 -146.5t191 -56.5q60 0 99.5 22.5t39.5 65.5q0 19 -8 35t-19 28t-35.5 27t-45.5 25.5t-62.5 31.5t-72.5 38q-105 56 -152 119.5t-47 150.5q0 140 97 222.5t270 82.5q70 0 140 -15t114 -40v-274q-33 55 -101 103t-159 48q-58 0 -90.5 -23.5
t-32.5 -62.5q0 -46 39.5 -75.5t148.5 -81.5q11 -4 16 -7q130 -58 187 -127t57 -166q0 -140 -103.5 -221.5t-279.5 -81.5q-92 0 -181 23t-134 59zM121 1036l289 391l295 -391l-295 150z" />
    <glyph glyph-name="Scedilla" unicode="&#x15e;" horiz-adv-x="1105" 
d="M94 72v387q132 -287 412 -287q97 0 163 42.5t66 113.5q0 35 -16 66.5t-37.5 54t-62.5 48.5t-71.5 41.5t-85.5 42t-85 42.5q-60 32 -104 62.5t-86.5 74t-64.5 100.5t-22 125q0 130 67 224t176 139t247 45q95 0 186.5 -26.5t149.5 -66.5v-325q-45 84 -143.5 151.5
t-211.5 67.5q-99 0 -150.5 -42t-51.5 -108q0 -31 14.5 -59t33.5 -48t57 -43t66.5 -37t79.5 -38q9 -4 13 -6q47 -21 79 -37t75.5 -41t73 -48.5t61.5 -57.5t50.5 -69.5t31 -82t12.5 -98.5q0 -166 -109 -270.5t-289 -131.5l-34 -53q80 -10 123 -50.5t43 -92.5q0 -63 -58 -109.5
t-157 -46.5q-108 0 -181 49q27 -6 64 -6q71 0 114 30t43 69q0 38 -42 65.5t-121 28.5l67 108q-108 3 -211 30.5t-174 72.5z" />
    <glyph glyph-name="scedilla" unicode="&#x15f;" horiz-adv-x="827" 
d="M76 51v297q43 -90 124 -146.5t191 -56.5q60 0 99.5 22.5t39.5 65.5q0 19 -8 35t-19 28t-35.5 27t-45.5 25.5t-62.5 31.5t-72.5 38q-105 56 -152 119.5t-47 150.5q0 140 97 222.5t270 82.5q70 0 140 -15t114 -40v-274q-33 55 -101 103t-159 48q-58 0 -90.5 -23.5
t-32.5 -62.5q0 -46 39.5 -75.5t148.5 -81.5q11 -4 16 -7q130 -58 187 -127t57 -166q0 -122 -78.5 -200t-216.5 -97l-33 -51q80 -10 123 -50.5t43 -92.5q0 -63 -58 -109.5t-157 -46.5q-107 0 -180 49q27 -6 64 -6q71 0 114 30t43 69q0 38 -42.5 65.5t-121.5 28.5l68 110
q-80 5 -153.5 26.5t-112.5 53.5z" />
    <glyph glyph-name="Scaron" unicode="&#x160;" horiz-adv-x="1105" 
d="M94 72v387q132 -287 412 -287q97 0 163 42.5t66 113.5q0 35 -16 66.5t-37.5 54t-62.5 48.5t-71.5 41.5t-85.5 42t-85 42.5q-60 32 -104 62.5t-86.5 74t-64.5 100.5t-22 125q0 130 67 224t176 139t247 45q95 0 186.5 -26.5t149.5 -66.5v-325q-45 84 -143.5 151.5
t-211.5 67.5q-99 0 -150.5 -42t-51.5 -108q0 -31 14.5 -59t33.5 -48t57 -43t66.5 -37t79.5 -38q9 -4 13 -6q47 -21 79 -37t75.5 -41t73 -48.5t61.5 -57.5t50.5 -69.5t31 -82t12.5 -98.5q0 -130 -68.5 -224t-184.5 -140t-265 -46q-112 0 -220.5 28t-183.5 75zM543 1427
l-326 383q25 -12 163 -67t163 -68q24 12 159.5 67t159.5 68q-26 -34 -163 -196.5t-156 -186.5z" />
    <glyph glyph-name="scaron" unicode="&#x161;" horiz-adv-x="827" 
d="M76 51v297q43 -90 124 -146.5t191 -56.5q60 0 99.5 22.5t39.5 65.5q0 19 -8 35t-19 28t-35.5 27t-45.5 25.5t-62.5 31.5t-72.5 38q-105 56 -152 119.5t-47 150.5q0 140 97 222.5t270 82.5q70 0 140 -15t114 -40v-274q-33 55 -101 103t-159 48q-58 0 -90.5 -23.5
t-32.5 -62.5q0 -46 39.5 -75.5t148.5 -81.5q11 -4 16 -7q130 -58 187 -127t57 -166q0 -140 -103.5 -221.5t-279.5 -81.5q-92 0 -181 23t-134 59zM420 1044l-297 386l297 -146l289 146z" />
    <glyph glyph-name="uni0162" unicode="&#x162;" horiz-adv-x="1327" 
d="M514 229v949h-248q-48 0 -82 -11.5t-60 -43.5t-36 -50t-33 -68l-6 -12q18 189 33 371h1165l31 -371q-18 45 -33 71t-43 56t-72 44t-106 14h-211v-949q0 -57 9 -100.5t21.5 -66.5t29 -38t26.5 -19t19 -5h-508q9 1 18.5 4.5t26 18t28.5 37t21.5 67t9.5 102.5zM662 -244
q-2 0 -6.5 -1t-6.5 -1q-43 0 -67.5 24.5t-24.5 59.5q0 36 26.5 64t69.5 28q46 0 77.5 -35.5t31.5 -93.5q0 -69 -54.5 -128.5t-140.5 -69.5q39 19 67 64.5t28 88.5z" />
    <glyph glyph-name="uni0163" unicode="&#x163;" horiz-adv-x="743" 
d="M143 219v567h-145l405 461v-293h265v-168h-265v-483q0 -70 31 -103.5t82 -33.5q50 0 102.5 29t79.5 71q-21 -156 -100.5 -227.5t-200.5 -71.5q-119 0 -186.5 69.5t-67.5 182.5zM397 -244q-2 0 -6 -1t-6 -1q-43 0 -67.5 24.5t-24.5 59.5q0 36 26.5 64t69.5 28
q46 0 77.5 -35.5t31.5 -93.5q0 -69 -54.5 -128.5t-140.5 -69.5q39 18 66.5 64t27.5 89z" />
    <glyph glyph-name="Tcaron" unicode="&#x164;" horiz-adv-x="1327" 
d="M514 229v949h-248q-48 0 -82 -11.5t-60 -43.5t-36 -50t-33 -68l-6 -12q18 189 33 371h1165l31 -371q-18 45 -33 71t-43 56t-72 44t-106 14h-211v-949q0 -57 9 -100.5t21.5 -66.5t29 -38t26.5 -19t19 -5h-508q9 1 18.5 4.5t26 18t28.5 37t21.5 67t9.5 102.5zM668 1436
l-306 379q27 -15 156 -71t150 -67q19 10 146 66.5t153 71.5q-128 -166 -299 -379z" />
    <glyph glyph-name="tcaron" unicode="&#x165;" horiz-adv-x="743" 
d="M143 219v567h-145l405 461v-293h265v-168h-265v-483q0 -70 31 -103.5t82 -33.5q50 0 102.5 29t79.5 71q-21 -156 -100.5 -227.5t-200.5 -71.5q-119 0 -186.5 69.5t-67.5 182.5zM535 1006l49 391h268z" />
    <glyph glyph-name="Tbar" unicode="&#x166;" horiz-adv-x="1327" 
d="M514 260v336h-186v125h186v457h-248q-48 0 -82 -11.5t-60 -43.5t-36 -50t-33 -68l-6 -12q18 189 33 371h1165l31 -371q-18 45 -33 71t-43 56t-72 44t-106 14h-211v-457h184v-125h-184v-336q0 -64 8.5 -113t20 -75t27 -43t26 -22t20.5 -7h-501q14 2 28.5 12t32 35t28.5 80
t11 133z" />
    <glyph glyph-name="tbar" unicode="&#x167;" horiz-adv-x="743" 
d="M147 221v228h-114v122h114v215h-131l394 447v-279h270v-168h-270v-215h208v-122h-208v-144q0 -71 31.5 -105t82.5 -34q52 0 106.5 29t80.5 71q-22 -156 -102.5 -227.5t-202.5 -71.5q-121 0 -190 69t-69 185z" />
    <glyph glyph-name="Utilde" unicode="&#x168;" horiz-adv-x="1429" 
d="M166 469v666q0 57 -10 101t-22 66.5t-30 37.5t-26.5 18.5t-18.5 5.5h506q-8 -1 -16.5 -4t-25.5 -17t-29.5 -36t-22.5 -65.5t-10 -100.5v-660q0 -168 68 -239.5t214 -71.5t208.5 76t62.5 235v652q0 57 -11 101t-25 67t-33 38t-29.5 19t-20.5 6h481q-8 -1 -17.5 -4.5
t-28 -18t-32.5 -37t-25 -67.5t-11 -104v-644q0 -520 -535 -520q-290 0 -425.5 124t-135.5 376zM496 1458q-50 50 -50 117q0 72 48 125t129 53q48 0 110.5 -27t118.5 -54t88 -27q96 0 96 139q45 -45 45 -111q0 -75 -50.5 -132.5t-131.5 -57.5q-46 0 -103 28.5t-110.5 57
t-91.5 28.5q-95 0 -98 -139z" />
    <glyph glyph-name="utilde" unicode="&#x169;" 
d="M133 309v426q0 192 -133 219h395v-587q0 -99 35.5 -149t101.5 -50q80 0 136.5 62t56.5 151v369q0 178 -102 204h362v-655q0 -57 9 -96t25.5 -57.5t34.5 -25.5t42 -7h28l-391 -152l-2 150q-55 -64 -138.5 -103t-162.5 -39q-141 0 -219 83.5t-78 256.5zM303 1085
q-49 49 -49 117q0 72 47.5 125t128.5 53q48 0 110.5 -27t119 -54t88.5 -27q96 0 96 139q45 -45 45 -111q0 -75 -50.5 -132.5t-131.5 -57.5q-37 0 -81 18t-78.5 39.5t-75.5 39.5t-71 18q-95 0 -98 -140z" />
    <glyph glyph-name="Umacron" unicode="&#x16a;" horiz-adv-x="1429" 
d="M166 469v666q0 57 -10 101t-22 66.5t-30 37.5t-26.5 18.5t-18.5 5.5h506q-8 -1 -16.5 -4t-25.5 -17t-29.5 -36t-22.5 -65.5t-10 -100.5v-660q0 -168 68 -239.5t214 -71.5t208.5 76t62.5 235v652q0 57 -11 101t-25 67t-33 38t-29.5 19t-20.5 6h481q-8 -1 -17.5 -4.5
t-28 -18t-32.5 -37t-25 -67.5t-11 -104v-644q0 -520 -535 -520q-290 0 -425.5 124t-135.5 376zM412 1548v123h669v-123h-669z" />
    <glyph glyph-name="umacron" unicode="&#x16b;" 
d="M133 309v426q0 192 -133 219h395v-587q0 -99 35.5 -149t101.5 -50q80 0 136.5 62t56.5 151v369q0 178 -102 204h362v-655q0 -57 9 -96t25.5 -57.5t34.5 -25.5t42 -7h28l-391 -152l-2 150q-55 -64 -138.5 -103t-162.5 -39q-141 0 -219 83.5t-78 256.5zM225 1174v122h670
v-122h-670z" />
    <glyph glyph-name="Ubreve" unicode="&#x16c;" horiz-adv-x="1429" 
d="M166 469v666q0 57 -10 101t-22 66.5t-30 37.5t-26.5 18.5t-18.5 5.5h506q-8 -1 -16.5 -4t-25.5 -17t-29.5 -36t-22.5 -65.5t-10 -100.5v-660q0 -168 68 -239.5t214 -71.5t208.5 76t62.5 235v652q0 57 -11 101t-25 67t-33 38t-29.5 19t-20.5 6h481q-8 -1 -17.5 -4.5
t-28 -18t-32.5 -37t-25 -67.5t-11 -104v-644q0 -520 -535 -520q-290 0 -425.5 124t-135.5 376zM483 1800q37 -74 105 -112.5t145 -38.5t144.5 39t107.5 112q0 -153 -75 -239t-177 -86t-176 85.5t-74 239.5z" />
    <glyph glyph-name="ubreve" unicode="&#x16d;" 
d="M133 309v426q0 192 -133 219h395v-587q0 -99 35.5 -149t101.5 -50q80 0 136.5 62t56.5 151v369q0 178 -102 204h362v-655q0 -57 9 -96t25.5 -57.5t34.5 -25.5t42 -7h28l-391 -152l-2 150q-55 -64 -138.5 -103t-162.5 -39q-141 0 -219 83.5t-78 256.5zM307 1425
q37 -74 105 -112.5t145 -38.5t144.5 39t107.5 112q0 -153 -75 -239t-177 -86t-176 85.5t-74 239.5z" />
    <glyph glyph-name="Uring" unicode="&#x16e;" horiz-adv-x="1429" 
d="M166 469v666q0 57 -10 101t-22 66.5t-30 37.5t-26.5 18.5t-18.5 5.5h506q-8 -1 -16.5 -4t-25.5 -17t-29.5 -36t-22.5 -65.5t-10 -100.5v-660q0 -168 68 -239.5t214 -71.5t208.5 76t62.5 235v652q0 57 -11 101t-25 67t-33 38t-29.5 19t-20.5 6h481q-8 -1 -17.5 -4.5
t-28 -18t-32.5 -37t-25 -67.5t-11 -104v-644q0 -520 -535 -520q-290 0 -425.5 124t-135.5 376zM725 1432q-85 0 -143 55t-58 147q0 91 58 145t143 54q86 0 144.5 -53.5t58.5 -145.5q0 -93 -58.5 -147.5t-144.5 -54.5zM725 1522q44 0 74 30.5t30 81.5t-29.5 80t-74.5 29
q-46 0 -76.5 -29.5t-30.5 -79.5q0 -51 31 -81.5t76 -30.5z" />
    <glyph glyph-name="uring" unicode="&#x16f;" 
d="M133 309v426q0 192 -133 219h395v-587q0 -99 35.5 -149t101.5 -50q80 0 136.5 62t56.5 151v369q0 178 -102 204h362v-655q0 -57 9 -96t25.5 -57.5t34.5 -25.5t42 -7h28l-391 -152l-2 150q-55 -64 -138.5 -103t-162.5 -39q-141 0 -219 83.5t-78 256.5zM569 1044
q-85 0 -142.5 55.5t-57.5 147.5q0 91 57.5 145t142.5 54q86 0 144.5 -53.5t58.5 -145.5q0 -93 -59 -148t-144 -55zM569 1135q44 0 74.5 30.5t30.5 81.5t-30 80t-75 29q-46 0 -76 -29.5t-30 -79.5q0 -51 31 -81.5t75 -30.5z" />
    <glyph glyph-name="Uhungarumlaut" unicode="&#x170;" horiz-adv-x="1429" 
d="M166 469v666q0 57 -10 101t-22 66.5t-30 37.5t-26.5 18.5t-18.5 5.5h506q-8 -1 -16.5 -4t-25.5 -17t-29.5 -36t-22.5 -65.5t-10 -100.5v-660q0 -168 68 -239.5t214 -71.5t208.5 76t62.5 235v652q0 57 -11 101t-25 67t-33 38t-29.5 19t-20.5 6h481q-8 -1 -17.5 -4.5
t-28 -18t-32.5 -37t-25 -67.5t-11 -104v-644q0 -520 -535 -520q-290 0 -425.5 124t-135.5 376zM815 1436l111 327h309zM420 1436l108 327h312z" />
    <glyph glyph-name="uhungarumlaut" unicode="&#x171;" 
d="M133 309v426q0 192 -133 219h395v-587q0 -99 35.5 -149t101.5 -50q80 0 136.5 62t56.5 151v369q0 178 -102 204h362v-655q0 -57 9 -96t25.5 -57.5t34.5 -25.5t42 -7h28l-391 -152l-2 150q-55 -64 -138.5 -103t-162.5 -39q-141 0 -219 83.5t-78 256.5zM618 1036l111 328
h309zM223 1036l109 328h311z" />
    <glyph glyph-name="Uogonek" unicode="&#x172;" horiz-adv-x="1429" 
d="M170 477v631q0 219 -107 256h506q-102 -31 -102 -250v-622q0 -173 67.5 -247.5t217.5 -74.5q140 0 206 78t66 241v617q0 223 -117 258h479q-112 -27 -112 -258v-608q0 -425 -359 -508q-4 0 -16 -4q-139 -31 -139 -136q0 -46 30 -74t84 -28q57 0 123 39
q-24 -75 -85 -118.5t-128 -43.5q-78 0 -133 48.5t-55 125.5q0 96 86 172q-266 7 -389 136t-123 370z" />
    <glyph glyph-name="uogonek" unicode="&#x173;" horiz-adv-x="1140" 
d="M137 309v424q0 52 -12 93.5t-28.5 63.5t-37.5 37.5t-33.5 20t-23.5 6.5h401v-585q0 -100 37 -150.5t105 -50.5q80 0 138 62.5t58 152.5v365q0 50 -8.5 88t-19 58t-27 34.5t-24.5 18t-21 7.5h363v-653q0 -110 30 -148t82 -38h29q-277 -138 -277 -277q0 -41 24.5 -65.5
t70.5 -24.5q59 0 122 37q-24 -75 -85 -118.5t-128 -43.5q-87 0 -135.5 50t-48.5 124q0 113 96 199l-28 123q-57 -69 -142.5 -109.5t-175.5 -40.5q-143 0 -222 83.5t-79 256.5z" />
    <glyph glyph-name="Wcircumflex" unicode="&#x174;" horiz-adv-x="2119" 
d="M573 0l-372 1118q-21 61 -47 108t-46.5 71.5t-44 40.5t-33.5 20t-20 6h551q-7 -1 -16 -5.5t-21.5 -15t-21 -34t-8.5 -56.5q0 -45 24 -125l223 -671l232 639l-17 49q-19 53 -39 94.5t-35 63t-30 36.5t-22 19t-13 6h490q-8 -2 -17.5 -6t-25.5 -15.5t-26.5 -37t-10.5 -60.5
q0 -43 24 -117l224 -669l223 674q20 59 20 114q0 97 -80 117h471q-8 -1 -18.5 -5t-33 -20.5t-44 -41.5t-48.5 -75t-48 -114l-365 -1108h-223l-262 793l-274 -793h-220zM1081 1810l328 -383q-26 13 -164 68t-164 68q-25 -12 -159.5 -67.5t-159.5 -68.5q24 30 159 191t160 192
z" />
    <glyph glyph-name="wcircumflex" unicode="&#x175;" horiz-adv-x="1644" 
d="M453 0l-303 782q-20 50 -44.5 86.5t-47.5 53t-36 23.5t-24 9h479q-8 -1 -16.5 -4.5t-19 -12t-17 -25.5t-6.5 -40q0 -40 22 -96l152 -414l149 394q0 11 -12 35q-15 40 -32.5 71t-31 47t-27.5 27t-20.5 14t-11.5 4h438q-13 -1 -26.5 -7t-28 -28t-14.5 -57q0 -33 20 -86
l150 -411l135 387q23 62 23 100q0 30 -9 51.5t-23.5 31.5t-24.5 14t-19 5h422q-6 -1 -14.5 -4t-26 -15t-34.5 -30t-38 -53.5t-39 -81.5l-289 -770h-182l-197 524l-196 -524h-180zM555 1036l289 391l295 -391l-295 150z" />
    <glyph glyph-name="Ycircumflex" unicode="&#x176;" horiz-adv-x="1376" 
d="M539 229v334l-322 565q-34 58 -67 103t-55.5 68.5t-45 39t-31 19.5t-16.5 6h551q-64 -11 -64 -80q0 -51 54 -145l194 -338l174 301q74 131 74 184q0 28 -12.5 46.5t-23.5 24t-21 7.5h444q-6 -2 -12 -4.5t-27.5 -18.5t-43 -39t-56 -70t-70.5 -108l-327 -551v-344
q0 -57 9.5 -101t21.5 -67t28.5 -37.5t25.5 -18.5t17 -5h-506q8 1 17 4t26.5 17.5t30.5 37t23 67t10 103.5zM727 1810l328 -383q-26 13 -164 68.5t-164 67.5q-24 -12 -159.5 -67.5t-159.5 -68.5q25 30 159.5 191t159.5 192z" />
    <glyph glyph-name="ycircumflex" unicode="&#x177;" 
d="M330 -393l-287 192q14 -5 39.5 -9t36.5 -1q195 -7 334 248l-299 743q-11 26 -23 49t-23.5 39t-23 29.5t-22.5 22t-20.5 15t-17.5 10t-14 5.5t-10 3l-4 1h498l-5 -2q-5 -1 -11 -3t-14 -6t-15 -11t-13 -16t-9 -23t-3 -31q0 -24 25 -94l157 -412l150 392q28 76 28 110
q-1 28 -11 48t-25.5 29.5t-26 13.5t-19.5 5h424l-2 -1q-66 -21 -128 -149q-7 -16 -15 -34l-285 -684q-77 -188 -176 -316.5t-190 -162.5zM299 1036l289 391l295 -391l-295 150z" />
    <glyph glyph-name="Ydieresis" unicode="&#x178;" horiz-adv-x="1376" 
d="M539 229v334l-322 565q-34 58 -67 103t-55.5 68.5t-45 39t-31 19.5t-16.5 6h551q-64 -11 -64 -80q0 -51 54 -145l194 -338l174 301q74 131 74 184q0 28 -12.5 46.5t-23.5 24t-21 7.5h444q-6 -2 -12 -4.5t-27.5 -18.5t-43 -39t-56 -70t-70.5 -108l-327 -551v-344
q0 -57 9.5 -101t21.5 -67t28.5 -37.5t25.5 -18.5t17 -5h-506q8 1 17 4t26.5 17.5t30.5 37t23 67t10 103.5zM780 1618q0 55 36 90t97 35t97.5 -35t36.5 -90q0 -56 -37.5 -92.5t-96.5 -36.5q-61 0 -97 36.5t-36 92.5zM377 1618q0 55 38 90t99 35q59 0 95 -35t36 -90
q0 -56 -36 -92.5t-95 -36.5q-61 0 -99 36.5t-38 92.5z" />
    <glyph glyph-name="Zacute" unicode="&#x179;" horiz-adv-x="1245" 
d="M45 0l666 1178h-330q-48 0 -86.5 -6.5t-65 -14.5t-48.5 -26t-34.5 -31t-25.5 -40t-18.5 -42t-16.5 -47v393h1059l-660 -1176h381q129 0 201.5 55.5t124.5 178.5l-41 -422h-1106zM547 1427l98 328h338z" />
    <glyph glyph-name="zacute" unicode="&#x17a;" horiz-adv-x="970" 
d="M49 0l463 801h-221q-51 0 -91 -16.5t-61.5 -38t-36.5 -50t-19.5 -45t-6.5 -30.5v333h819l-463 -790h283q47 0 84.5 15t57 34t33.5 45.5t17.5 40.5t5.5 27v-326h-864zM354 1036l99 328h338z" />
    <glyph glyph-name="Zdotaccent" unicode="&#x17b;" horiz-adv-x="1245" 
d="M45 0l666 1178h-330q-48 0 -86.5 -6.5t-65 -14.5t-48.5 -26t-34.5 -31t-25.5 -40t-18.5 -42t-16.5 -47v393h1059l-660 -1176h381q129 0 201.5 55.5t124.5 178.5l-41 -422h-1106zM485 1620q0 59 40.5 98t105.5 39t105 -39t40 -98q0 -60 -40 -99.5t-105 -39.5t-105.5 39.5
t-40.5 99.5z" />
    <glyph glyph-name="zdotaccent" unicode="&#x17c;" horiz-adv-x="970" 
d="M49 0l463 801h-221q-51 0 -91 -16.5t-61.5 -38t-36.5 -50t-19.5 -45t-6.5 -30.5v333h819l-463 -790h283q47 0 84.5 15t57 34t33.5 45.5t17.5 40.5t5.5 27v-326h-864zM358 1255q0 56 37.5 92.5t100.5 36.5q60 0 97.5 -37t37.5 -92q0 -57 -37.5 -94t-97.5 -37
q-62 0 -100 37t-38 94z" />
    <glyph glyph-name="Zcaron" unicode="&#x17d;" horiz-adv-x="1245" 
d="M45 0l666 1178h-330q-48 0 -86.5 -6.5t-65 -14.5t-48.5 -26t-34.5 -31t-25.5 -40t-18.5 -42t-16.5 -47v393h1059l-660 -1176h381q129 0 201.5 55.5t124.5 178.5l-41 -422h-1106zM621 1436l-306 379q27 -15 156 -71t150 -67q19 10 146 66.5t153 71.5q-128 -166 -299 -379z
" />
    <glyph glyph-name="zcaron" unicode="&#x17e;" horiz-adv-x="970" 
d="M49 0l463 801h-221q-51 0 -91 -16.5t-61.5 -38t-36.5 -50t-19.5 -45t-6.5 -30.5v333h819l-463 -790h283q47 0 84.5 15t57 34t33.5 45.5t17.5 40.5t5.5 27v-326h-864zM492 1044l-297 386l297 -146l288 146z" />
    <glyph glyph-name="longs" unicode="&#x17f;" horiz-adv-x="667" 
d="M188 242v544h-161v168h161v58q0 107 29.5 188.5t81 130t116 72.5t140.5 24q26 0 54 -3t52.5 -7t26.5 -4v-246q-20 36 -57 58t-76 22q-52 0 -77 -39.5t-25 -128.5v-837q0 -60 9.5 -106.5t21.5 -70.5t28 -40t26 -20t17 -5h-469q8 1 17 5t25.5 19t28.5 39t21.5 71t9.5 108z
" />
    <glyph glyph-name="florin" unicode="&#x192;" horiz-adv-x="1136" 
d="M336 172l49 487h-178q3 28 7 84.5t7 85.5h178q28 283 135.5 425.5t307.5 142.5q121 0 215 -43q-38 -118 -70 -211q-30 23 -72.5 35t-76.5 12q-26 0 -47.5 -10.5t-36 -25.5t-26 -41.5t-17.5 -49t-11.5 -58.5t-7.5 -59t-5 -61.5t-5 -55.5h192l-12 -170h-194l-37 -380
q-35 -307 -140 -451.5t-321 -144.5q-83 0 -188 43q7 27 59 221q9 -12 54.5 -36t84.5 -24q43 0 72 23.5t51 87t33 174.5z" />
    <glyph glyph-name="Ohorn" unicode="&#x1a0;" horiz-adv-x="1607" 
d="M1364 1077q90 41 117 115q-47 11 -79 46.5t-32 86.5q0 58 40 96.5t108 38.5q58 0 99.5 -43.5t41.5 -109.5q0 -78 -43 -152q-30 -55 -85 -101.5t-120 -74.5q47 -136 47 -277q0 -149 -50.5 -282.5t-141 -233.5t-224.5 -158.5t-292 -58.5q-202 0 -355.5 93.5t-233 250
t-79.5 349.5q0 204 89.5 371t253.5 264.5t372 97.5q192 0 339 -85t228 -233zM797 180q160 0 262 126.5t102 340.5q0 154 -47.5 275.5t-143 193.5t-225.5 72q-159 0 -261.5 -123.5t-102.5 -339.5q0 -248 111.5 -396.5t304.5 -148.5z" />
    <glyph glyph-name="ohorn" unicode="&#x1a1;" horiz-adv-x="1212" 
d="M997 788q68 41 90 101q-48 13 -79 47.5t-31 85.5q0 58 38.5 96.5t106.5 38.5q59 0 100.5 -43.5t41.5 -109.5q0 -81 -41 -152q-57 -101 -176 -164q30 -85 30 -186q0 -229 -142 -381t-372 -152q-224 0 -356.5 137.5t-132.5 356.5q0 228 143 379t365 151q137 0 244 -54
t171 -151zM592 154q97 0 156 88t59 219q0 143 -69.5 245.5t-182.5 102.5q-99 0 -157 -85.5t-58 -213.5q0 -144 70.5 -250t181.5 -106z" />
    <glyph glyph-name="Uhorn" unicode="&#x1af;" horiz-adv-x="1603" 
d="M166 469v666q0 195 -105 229h496q-96 -31 -96 -223v-660q0 -168 68 -239.5t214 -71.5t208.5 76t62.5 235v652q0 55 -11 97.5t-25.5 65.5t-34 39.5t-31 21t-23.5 7.5h373v-313q77 7 135 46t82 95q-48 13 -79.5 47t-31.5 84q0 60 39 98.5t106 38.5q59 0 100.5 -43
t41.5 -110q0 -83 -41 -152q-49 -86 -142.5 -144.5t-209.5 -68.5v-453q0 -520 -535 -520q-290 0 -425.5 124t-135.5 376z" />
    <glyph glyph-name="uhorn" unicode="&#x1b0;" horiz-adv-x="1294" 
d="M133 309v430q0 187 -133 219h395v-591q0 -99 35.5 -149t101.5 -50q80 0 136.5 62t56.5 151v373q0 174 -100 204h360v-206q66 14 115 50t69 87q-48 13 -79 47t-31 84q0 60 39 98.5t106 38.5q59 0 100.5 -43t41.5 -110q0 -83 -41 -152q-45 -79 -130 -135.5t-190 -73.5v-344
q0 -57 9 -96t25.5 -57.5t34.5 -25.5t42 -7h28l-391 -152l-2 150q-55 -64 -138.5 -103t-162.5 -39q-141 0 -219 83.5t-78 256.5z" />
    <glyph glyph-name="uni0218" unicode="&#x218;" horiz-adv-x="1105" 
d="M94 72v387q132 -287 412 -287q97 0 163 42.5t66 113.5q0 35 -16 66.5t-37.5 54t-62.5 48.5t-71.5 41.5t-85.5 42t-85 42.5q-60 32 -104 62.5t-86.5 74t-64.5 100.5t-22 125q0 130 67 224t176 139t247 45q95 0 186.5 -26.5t149.5 -66.5v-325q-45 84 -143.5 151.5
t-211.5 67.5q-99 0 -150.5 -42t-51.5 -108q0 -31 14.5 -59t33.5 -48t57 -43t66.5 -37t79.5 -38q9 -4 13 -6q47 -21 79 -37t75.5 -41t73 -48.5t61.5 -57.5t50.5 -69.5t31 -82t12.5 -98.5q0 -130 -68.5 -224t-184.5 -140t-265 -46q-112 0 -220.5 28t-183.5 75zM551 -244
q-2 0 -6 -1t-6 -1q-43 0 -68 25t-25 59q0 36 26.5 64t70.5 28q46 0 77 -35.5t31 -93.5q0 -70 -54 -129t-140 -69q39 18 66.5 64t27.5 89z" />
    <glyph glyph-name="uni0219" unicode="&#x219;" horiz-adv-x="827" 
d="M76 51v297q43 -90 124 -146.5t191 -56.5q60 0 99.5 22.5t39.5 65.5q0 19 -8 35t-19 28t-35.5 27t-45.5 25.5t-62.5 31.5t-72.5 38q-105 56 -152 119.5t-47 150.5q0 140 97 222.5t270 82.5q70 0 140 -15t114 -40v-274q-33 55 -101 103t-159 48q-58 0 -90.5 -23.5
t-32.5 -62.5q0 -46 39.5 -75.5t148.5 -81.5q11 -4 16 -7q130 -58 187 -127t57 -166q0 -140 -103.5 -221.5t-279.5 -81.5q-92 0 -181 23t-134 59zM430 -244q-2 0 -6 -1t-6 -1q-43 0 -67.5 24.5t-24.5 59.5q0 36 26.5 64t69.5 28q46 0 77 -35.5t31 -93.5q0 -70 -54 -129
t-140 -69q39 18 66.5 64t27.5 89z" />
    <glyph glyph-name="uni021A" unicode="&#x21a;" horiz-adv-x="1327" 
d="M514 229v949h-248q-48 0 -82 -11.5t-60 -43.5t-36 -50t-33 -68l-6 -12q18 189 33 371h1165l31 -371q-18 45 -33 71t-43 56t-72 44t-106 14h-211v-949q0 -57 9 -100.5t21.5 -66.5t29 -38t26.5 -19t19 -5h-508q9 1 18.5 4.5t26 18t28.5 37t21.5 67t9.5 102.5zM678 -244
q-2 0 -6 -1t-6 -1q-44 0 -68.5 25t-24.5 59q0 36 26.5 64t70.5 28q46 0 77 -35.5t31 -93.5q0 -70 -54 -129t-140 -69q39 18 66.5 64t27.5 89z" />
    <glyph glyph-name="uni021B" unicode="&#x21b;" horiz-adv-x="743" 
d="M143 219v567h-145l405 461v-293h265v-168h-265v-483q0 -70 31 -103.5t82 -33.5q50 0 102.5 29t79.5 71q-21 -156 -100.5 -227.5t-200.5 -71.5q-119 0 -186.5 69.5t-67.5 182.5zM379 -244q-2 0 -6 -1t-6 -1q-43 0 -68 25t-25 59q0 36 26.5 64t70.5 28q46 0 77 -35.5
t31 -93.5q0 -70 -54 -129t-140 -69q39 18 66.5 64t27.5 89z" />
    <glyph glyph-name="circumflex" unicode="&#x2c6;" horiz-adv-x="995" 
d="M207 1036l289 391l295 -391l-295 150z" />
    <glyph glyph-name="caron" unicode="&#x2c7;" horiz-adv-x="995" 
d="M477 1044l-297 386l297 -146l289 146z" />
    <glyph glyph-name="breve" unicode="&#x2d8;" horiz-adv-x="995" 
d="M248 1425q37 -74 105 -112.5t145 -38.5t144.5 39t107.5 112q0 -153 -75 -239t-177 -86t-176 85.5t-74 239.5z" />
    <glyph glyph-name="dotaccent" unicode="&#x2d9;" horiz-adv-x="995" 
d="M360 1255q0 56 37.5 92.5t100.5 36.5q60 0 97.5 -37t37.5 -92q0 -57 -37.5 -94t-97.5 -37q-62 0 -100 37t-38 94z" />
    <glyph glyph-name="ring" unicode="&#x2da;" horiz-adv-x="995" 
d="M471 1044q-85 0 -143 55.5t-58 147.5q0 91 58 145t143 54q86 0 144.5 -53.5t58.5 -145.5q0 -93 -59 -148t-144 -55zM471 1135q44 0 74 30.5t30 81.5t-29.5 80t-74.5 29q-46 0 -76 -29.5t-30 -79.5q0 -51 31 -81.5t75 -30.5z" />
    <glyph glyph-name="ogonek" unicode="&#x2db;" horiz-adv-x="995" 
d="M406 0h159q-57 -23 -89 -62.5t-32 -84.5q0 -46 31.5 -75.5t83.5 -29.5q62 0 123 39q-24 -76 -85 -119t-128 -43q-78 0 -133 47.5t-55 126.5q0 57 34 111t91 90z" />
    <glyph glyph-name="tilde" unicode="&#x2dc;" horiz-adv-x="995" 
d="M231 1085q-49 49 -49 117q0 72 47.5 125t128.5 53q48 0 110.5 -27t119 -54t88.5 -27q96 0 96 139q45 -45 45 -111q0 -75 -50.5 -132.5t-131.5 -57.5q-46 0 -103 29t-110.5 57.5t-91.5 28.5q-46 0 -72 -36t-27 -104z" />
    <glyph glyph-name="hungarumlaut" unicode="&#x2dd;" horiz-adv-x="995" 
d="M510 1036l111 328h309zM115 1036l108 328h312z" />
    <glyph glyph-name="gravecomb" unicode="&#x300;" horiz-adv-x="0" 
d="M-221 1364h342l100 -328z" />
    <glyph glyph-name="acutecomb" unicode="&#x301;" horiz-adv-x="0" 
d="M-217 1036l98 328h338z" />
    <glyph glyph-name="uni0302" unicode="&#x302;" horiz-adv-x="0" 
d="M-289 1036l289 391l295 -391l-295 150z" />
    <glyph glyph-name="tildecomb" unicode="&#x303;" horiz-adv-x="0" 
d="M-266 1085q-49 49 -49 117q0 72 47.5 125t128.5 53q48 0 110.5 -27t118.5 -54t88 -27q96 0 96 139q45 -45 45 -111q0 -75 -50.5 -132.5t-131.5 -57.5q-46 0 -103 29t-110.5 57.5t-91.5 28.5q-95 0 -98 -140z" />
    <glyph glyph-name="uni0306" unicode="&#x306;" horiz-adv-x="0" 
d="M-250 1425q37 -74 105 -112.5t145 -38.5t144.5 39t107.5 112q0 -153 -75 -239t-177 -86t-176 85.5t-74 239.5z" />
    <glyph glyph-name="hookabovecomb" unicode="&#x309;" horiz-adv-x="0" 
d="M-164 1264v168q76 32 164 32q84 0 136 -39t52 -108q0 -39 -16 -69.5t-39.5 -49.5t-46.5 -34t-39 -30t-16 -30q0 -26 32 -33q-17 -10 -47 -10q-40 0 -69 21.5t-29 60.5q0 27 17.5 50.5t39 37.5t39 34t17.5 40q0 51 -56 51q-39 0 -76.5 -26.5t-62.5 -65.5z" />
    <glyph glyph-name="uni031B" unicode="&#x31b;" horiz-adv-x="0" 
d="M-111 975l-53 98q46 18 79.5 50.5t47.5 68.5q-47 11 -78.5 46t-31.5 87q0 58 39.5 96.5t107.5 38.5q58 0 99.5 -43.5t41.5 -109.5q0 -78 -43 -152q-29 -54 -84.5 -101.5t-124.5 -78.5z" />
    <glyph glyph-name="dotbelowcomb" unicode="&#x323;" horiz-adv-x="0" 
d="M-137 -264q0 56 37 92.5t100 36.5q60 0 97.5 -37t37.5 -92q0 -56 -37.5 -93.5t-97.5 -37.5q-62 0 -99.5 37t-37.5 94z" />
    <glyph glyph-name="uni037E" unicode="&#x37e;" horiz-adv-x="524" 
d="M100 758q0 75 49 123.5t130 48.5t130.5 -48.5t49.5 -123.5q0 -73 -50 -121.5t-130 -48.5t-129.5 48.5t-49.5 121.5zM274 -2q-18 -6 -34 -6q-67 0 -103.5 42.5t-36.5 102.5q0 70 46.5 122t127.5 52q97 0 152 -77t55 -189q0 -58 -15.5 -115.5t-49.5 -112.5t-82 -98
t-120 -70t-157 -30q91 41 157.5 133t66.5 187q0 35 -7 59z" />
    <glyph glyph-name="tonos" unicode="&#x384;" horiz-adv-x="954" 
d="M408 1016l-25 373h291z" />
    <glyph glyph-name="dieresistonos" unicode="&#x385;" horiz-adv-x="1032" 
d="M639 1243q0 51 34 84t89 33q56 0 89.5 -32.5t33.5 -84.5t-34 -85.5t-89 -33.5t-89 33.5t-34 85.5zM143 1243q0 51 35 84t92 33q55 0 88 -32.5t33 -84.5t-33 -85.5t-88 -33.5q-56 0 -91.5 33.5t-35.5 85.5zM475 1176l-29 354h279z" />
    <glyph glyph-name="Alphatonos" unicode="&#x386;" horiz-adv-x="1529" 
d="M203 262l430 1102h241l451 -1108q24 -62 51.5 -110.5t49 -74t43 -43t32.5 -22t19 -6.5h-551q9 1 19 5t24 14t23 30t9 47q0 11 -4 29t-13 44.5t-16.5 47.5t-20.5 55t-19 52h-522l-43 -127q-21 -62 -21 -91q0 -31 10 -53t25.5 -32.5t27 -15t21.5 -5.5h-459q8 1 18.5 5.5
t31 21t41.5 43t48.5 76.5t53.5 116zM516 502h385l-194 504zM211 991l-25 373h291z" />
    <glyph glyph-name="anoteleia" unicode="&#x387;" horiz-adv-x="520" 
d="M82 485q0 75 49 123.5t129 48.5q81 0 130.5 -48.5t49.5 -123.5q0 -73 -50.5 -122.5t-129.5 -49.5q-80 0 -129 49t-49 123z" />
    <glyph glyph-name="Epsilontonos" unicode="&#x388;" horiz-adv-x="1236" 
d="M299 244v891q0 56 -12 99.5t-26.5 66t-35.5 38t-31.5 19.5t-21.5 6h928v-365q-12 40 -27.5 68t-43 55.5t-72.5 41.5t-107 14h-258v-396h225q39 0 69.5 6.5t46.5 14.5t27.5 19.5t15 17.5t5.5 12v-324q-23 68 -160 68h-229v-408h278q128 0 194.5 42.5t125.5 150.5l-66 -381
h-936q8 1 17.5 4.5t27.5 19.5t31.5 40t24 71t10.5 109zM-104 991l-25 373h291z" />
    <glyph glyph-name="Etatonos" unicode="&#x389;" horiz-adv-x="1632" 
d="M285 229v906q0 56 -10 99.5t-23 66t-30.5 38t-27 19.5t-18.5 6h508q-7 -1 -16.5 -4.5t-26 -18t-29 -37.5t-22.5 -67t-10 -102v-353h587v353q0 57 -10 100.5t-22.5 66t-30 38t-27 19t-18.5 5.5h508q-8 -1 -17 -4.5t-26 -18t-29.5 -37t-22.5 -67t-10 -102.5v-906
q0 -57 9.5 -101t22.5 -67t29.5 -37.5t26 -18.5t17.5 -5h-508q8 1 17 4t26.5 17.5t30.5 37t23.5 67t10.5 103.5v367h-587v-367q0 -58 9.5 -102t22 -67t29 -37.5t26 -18t17.5 -4.5h-508q8 1 17 4t27 17.5t31 37t23.5 67t10.5 103.5zM-104 991l-25 373h291z" />
    <glyph glyph-name="Iotatonos" unicode="&#x38a;" horiz-adv-x="753" 
d="M287 211v932q0 54 -10.5 96.5t-22.5 64t-30.5 36.5t-26.5 18t-17 6h504q-7 -1 -15 -4t-26 -17.5t-31 -36t-23.5 -64.5t-10.5 -99v-932q0 -52 9.5 -92t22 -61.5t29 -35t26.5 -17.5t17 -5h-502q8 1 17 4t26.5 16.5t30.5 34.5t23 62t10 94zM-104 991l-25 373h291z" />
    <glyph glyph-name="Omicrontonos" unicode="&#x38c;" horiz-adv-x="1540" 
d="M750 -31q-202 0 -355.5 93.5t-233 250t-79.5 349.5q0 204 89.5 371t253.5 264.5t372 97.5q151 0 276.5 -54t209 -147.5t129.5 -220t46 -271.5q0 -149 -50.5 -282.5t-141 -233.5t-224.5 -158.5t-292 -58.5zM797 180q160 0 262 126.5t102 340.5q0 154 -47.5 275.5
t-143 193.5t-225.5 72q-159 0 -261.5 -123.5t-102.5 -339.5q0 -248 111.5 -396.5t304.5 -148.5zM-29 991l-24 373h291z" />
    <glyph glyph-name="Upsilontonos" unicode="&#x38e;" horiz-adv-x="1536" 
d="M696 229v334l-321 565q-34 58 -67 103t-55.5 68.5t-45 39t-31 19.5t-16.5 6h551q-64 -11 -64 -80q0 -53 53 -145l195 -338l174 301q74 131 74 184q0 28 -13 46.5t-24 24t-21 7.5h445q-6 -2 -12 -4.5t-27.5 -18.5t-43 -39t-56 -70t-70.5 -108l-328 -551v-344
q0 -57 9.5 -101t22 -67t28.5 -37.5t25.5 -18.5t17.5 -5h-506q8 1 17 4t26 17.5t30 37t23 67t10 103.5zM-104 991l-25 373h291z" />
    <glyph glyph-name="Omegatonos" unicode="&#x38f;" horiz-adv-x="1710" 
d="M72 0l-27 354q57 -107 123.5 -136.5t234.5 -29.5q-110 96 -169.5 230t-59.5 282q0 135 47 259t133.5 221.5t222.5 156t300 58.5q158 0 285.5 -54t207.5 -146t123 -210t43 -250q0 -158 -61 -303t-175 -244h60q132 0 191 32.5t112 133.5l-27 -354h-747q26 6 68 36.5
t92 87.5t93 129t72 171t29 203q0 159 -46 284t-142 201t-230 76q-165 0 -264.5 -127.5t-99.5 -355.5q0 -126 29 -241.5t71.5 -194.5t92.5 -140t91.5 -91.5t69.5 -37.5h-743zM49 991l-24 373h290z" />
    <glyph glyph-name="iotadieresistonos" unicode="&#x390;" horiz-adv-x="696" 
d="M162 227v432q0 109 -33.5 149t-87.5 40h-27l408 153v-698q0 -70 27 -103.5t71 -33.5q45 0 88.5 29t67.5 71q-21 -150 -96 -224.5t-183 -74.5q-110 0 -172.5 71.5t-62.5 188.5zM420 1243q0 51 34 84t89 33q56 0 89.5 -32.5t33.5 -84.5t-34 -85.5t-89 -33.5t-89 33.5
t-34 85.5zM-76 1243q0 51 35 84t92 33q55 0 88 -32.5t33 -84.5t-33 -85.5t-88 -33.5q-56 0 -91.5 33.5t-35.5 85.5zM256 1176l-29 354h279z" />
    <glyph glyph-name="Alpha" unicode="&#x391;" horiz-adv-x="1529" 
d="M203 262l430 1102h241l451 -1108q24 -62 51.5 -110.5t49 -74t43 -43t32.5 -22t19 -6.5h-551q9 1 19 5t24 14t23 30t9 47q0 11 -4 29t-13 44.5t-16.5 47.5t-20.5 55t-19 52h-522l-43 -127q-21 -62 -21 -91q0 -31 10 -53t25.5 -32.5t27 -15t21.5 -5.5h-459q8 1 18.5 5.5
t31 21t41.5 43t48.5 76.5t53.5 116zM516 502h385l-194 504z" />
    <glyph glyph-name="Beta" unicode="&#x392;" horiz-adv-x="1308" 
d="M184 240v888q0 58 -11 102.5t-25.5 68t-34 39.5t-30 20t-20.5 6h697q95 0 171 -28t122 -75.5t70 -105.5t24 -121q0 -108 -66 -197.5t-178 -117.5q96 -15 167.5 -68.5t106.5 -127t35 -156.5q0 -70 -26.5 -134.5t-76.5 -117t-131 -84t-181 -31.5h-717q7 1 16.5 4.5t26 19
t29 39.5t22.5 70t10 107zM475 188h207q117 0 170 56.5t53 144.5q0 101 -61 161t-182 60h-187v-422zM475 795h182q90 0 137.5 56.5t47.5 145.5q0 76 -50.5 128.5t-142.5 52.5h-174v-383z" />
    <glyph glyph-name="Gamma" unicode="&#x393;" horiz-adv-x="1017" 
d="M170 231v908q0 54 -11.5 96t-26 64t-35.5 37.5t-32.5 20t-23.5 7.5h930v-360q-10 27 -19.5 46.5t-30 45.5t-45.5 42t-67 28t-94 12h-252v-955q0 -53 8 -94.5t19 -64.5t26 -38t26 -19.5t21 -6.5h-504q13 2 27.5 10.5t35.5 30.5t34.5 71.5t13.5 118.5z" />
    <glyph glyph-name="uni0394" unicode="&#x394;" horiz-adv-x="1536" 
d="M88 0l545 1364h244l569 -1364h-1358zM391 193h643l-327 817z" />
    <glyph glyph-name="Epsilon" unicode="&#x395;" 
d="M184 244v891q0 56 -12 99.5t-26.5 66t-35.5 38t-31.5 19.5t-21.5 6h928v-365q-12 40 -27.5 68t-43 55.5t-72.5 41.5t-107 14h-258v-396h225q39 0 69.5 6.5t46.5 14.5t27.5 19.5t15 17.5t5.5 12v-324q-23 68 -159 68h-230v-408h279q128 0 194 42t125 151l-65 -381h-936
q8 1 17.5 4.5t27 19.5t31 40t24 71t10.5 109z" />
    <glyph glyph-name="Zeta" unicode="&#x396;" horiz-adv-x="1245" 
d="M45 0l666 1178h-330q-48 0 -86.5 -6.5t-65 -14.5t-48.5 -26t-34.5 -31t-25.5 -40t-18.5 -42t-16.5 -47v393h1059l-660 -1176h381q129 0 201.5 55.5t124.5 178.5l-41 -422h-1106z" />
    <glyph glyph-name="Eta" unicode="&#x397;" horiz-adv-x="1517" 
d="M170 229v906q0 56 -10 99.5t-23 66t-30.5 38t-27 19.5t-18.5 6h508q-7 -1 -16.5 -4.5t-26 -18t-29 -37.5t-22.5 -67t-10 -102v-353h588v353q0 57 -10 100.5t-22.5 66t-30.5 38t-27.5 19t-18.5 5.5h508q-8 -1 -16.5 -4.5t-25.5 -18t-29.5 -37t-22.5 -67t-10 -102.5v-906
q0 -57 9.5 -101t22 -67t29 -37.5t26 -18.5t17.5 -5h-508q8 1 17 4t27 17.5t31 37t23.5 67t10.5 103.5v367h-588v-367q0 -58 9.5 -102t22 -67t29 -37.5t26 -18t17.5 -4.5h-508q8 1 17 4t27 17.5t31 37t23.5 67t10.5 103.5z" />
    <glyph glyph-name="Theta" unicode="&#x398;" horiz-adv-x="1560" 
d="M760 -31q-154 0 -282.5 54t-214.5 148t-133.5 220.5t-47.5 270.5q0 152 53.5 287t147.5 233.5t230 155.5t294 57q204 0 358.5 -93t234 -249.5t79.5 -350.5q0 -149 -51.5 -282.5t-143 -233.5t-228 -158.5t-296.5 -58.5zM807 180q164 0 269.5 129.5t105.5 341.5
q0 154 -48.5 274.5t-146.5 191.5t-231 71q-163 0 -269 -126.5t-106 -340.5q0 -247 114.5 -394t311.5 -147zM541 528v318q27 -64 161 -64h160q135 0 162 64v-318q-23 68 -158 68h-168q-134 0 -157 -68z" />
    <glyph glyph-name="Iota" unicode="&#x399;" horiz-adv-x="643" 
d="M176 211v932q0 54 -10 96.5t-22.5 64t-30.5 36.5t-26 18t-17 6h503q-7 -1 -15 -4t-26 -17.5t-31 -36t-23.5 -64.5t-10.5 -99v-932q0 -52 9.5 -92t22 -61.5t29 -35t26.5 -17.5t17 -5h-501q8 1 17 4t26 16.5t30 34.5t23 62t10 94z" />
    <glyph glyph-name="Kappa" unicode="&#x39a;" horiz-adv-x="1447" 
d="M170 227v908q0 56 -10 99.5t-23 66t-30.5 38t-27 19.5t-18.5 6h508q-7 -1 -16.5 -4.5t-26 -18t-29 -37.5t-22.5 -67t-10 -102v-377l338 368q110 123 110 187q0 18 -11 30t-20.5 15.5t-19.5 5.5h537q-8 -1 -19.5 -4.5t-43 -19t-66 -39t-88 -69.5t-109.5 -106l-340 -370
l402 -510q175 -222 283 -245q2 -1 3 -1h-456l-500 639v-412q0 -57 9.5 -101t22 -66.5t29 -37t26 -18t17.5 -4.5h-508q8 1 17 4.5t27 17.5t31 36.5t23.5 66.5t10.5 102z" />
    <glyph glyph-name="Lambda" unicode="&#x39b;" horiz-adv-x="1492" 
d="M201 258l434 1106h209l444 -1114q25 -62 53 -109.5t49 -72t43 -41.5t31.5 -21t18.5 -6h-551q10 1 20 4.5t26.5 12.5t27 28.5t10.5 46.5t-35 113l-287 723l-276 -731q-25 -67 -25 -99q0 -28 10.5 -49t27 -30.5t27.5 -13.5t21 -5h-469q37 16 63 41q69 66 128 217z" />
    <glyph glyph-name="Mu" unicode="&#x39c;" horiz-adv-x="1800" 
d="M195 244v901q0 54 -12.5 96t-27.5 63.5t-37.5 36t-32.5 18t-22 5.5h498l363 -825l358 825h449q-8 -1 -17.5 -4.5t-27.5 -17.5t-31.5 -36t-24 -66t-10.5 -101v-908q0 -57 10 -101.5t23.5 -67.5t31 -38t28 -19t18.5 -5h-488q8 1 16 4t24 17.5t28 37t21 68t9 104.5v779
l-460 -1043l-473 1041v-764q0 -60 11.5 -106.5t27 -71t35.5 -40.5t32.5 -20.5t22.5 -5.5h-467q9 1 19.5 4.5t31 19.5t35.5 40t27 71t12 109z" />
    <glyph glyph-name="Nu" unicode="&#x39d;" horiz-adv-x="1480" 
d="M193 223v899q0 44 -18.5 85t-42.5 66.5t-55 48t-45.5 30t-25.5 12.5h434l643 -805v580q0 56 -10.5 98.5t-23.5 65t-31.5 37.5t-27.5 18.5t-19 5.5h444q-8 -1 -17 -4.5t-26 -17.5t-30 -36t-23 -66t-10 -101v-1139h-213q-6 17 -19 48.5t-69 126t-131 185.5l-457 558v-695
q0 -56 11 -98.5t26 -65t34.5 -36.5t31 -18t20.5 -5h-455q8 1 16.5 4t26 17t30 36t22.5 65.5t10 100.5z" />
    <glyph glyph-name="Xi" unicode="&#x39e;" horiz-adv-x="1134" 
d="M109 0l-64 381q52 -107 116 -150t193 -43h426q129 0 193.5 43t116.5 150l-66 -381h-915zM131 1016v348h870v-348q-12 37 -27.5 63t-43 50t-71 36.5t-103.5 12.5h-379q-114 0 -167.5 -42.5t-78.5 -119.5zM250 528v316q3 -8 10.5 -16t24.5 -19.5t50 -19t77 -7.5h309
q125 0 162 64v-318q-29 68 -158 68h-317q-45 0 -78 -8t-48.5 -20.5t-22.5 -21.5t-9 -18z" />
    <glyph glyph-name="Omicron" unicode="&#x39f;" horiz-adv-x="1540" 
d="M750 -31q-202 0 -355.5 93.5t-233 250t-79.5 349.5q0 204 89.5 371t253.5 264.5t372 97.5q151 0 276.5 -54t209 -147.5t129.5 -220t46 -271.5q0 -149 -50.5 -282.5t-141 -233.5t-224.5 -158.5t-292 -58.5zM797 180q160 0 262 126.5t102 340.5q0 154 -47.5 275.5
t-143 193.5t-225.5 72q-159 0 -261.5 -123.5t-102.5 -339.5q0 -248 111.5 -396.5t304.5 -148.5z" />
    <glyph glyph-name="Pi" unicode="&#x3a0;" horiz-adv-x="1476" 
d="M170 229v906q0 192 -107 229h1346q-102 -31 -102 -229v-906q0 -66 11.5 -114.5t29 -71t32 -32t27.5 -11.5h-492q12 2 26 12.5t31.5 33.5t28.5 71t11 112v949h-547v-949q0 -67 10 -114.5t26 -70.5t29.5 -32.5t26.5 -11.5h-489q12 2 27 12.5t33 33.5t30 71t12 112z" />
    <glyph glyph-name="Rho" unicode="&#x3a1;" horiz-adv-x="1200" 
d="M190 227v901q0 57 -11 101.5t-25 68t-33.5 39.5t-30 20.5t-20.5 6.5h628q104 0 190.5 -34t142 -92t86 -132.5t30.5 -157.5q0 -93 -33.5 -174t-96 -141.5t-157.5 -95.5t-211 -35q-105 0 -182 24v-299q0 -57 11 -101t25.5 -66.5t33.5 -37t29.5 -18t19.5 -4.5h-502q7 0 17 3
t26.5 17t29.5 36.5t23 67t10 103.5zM467 1178v-463q75 -23 151 -23q108 0 169 68.5t61 179.5q0 106 -64.5 172t-179.5 66h-137z" />
    <glyph glyph-name="Sigma" unicode="&#x3a3;" horiz-adv-x="1177" 
d="M14 0l490 655l-467 709h1018v-393q-10 34 -18 55.5t-29 53.5t-47.5 50.5t-73.5 33t-107 14.5h-301l307 -463l-383 -512h408q133 0 197 45t120 164l-51 -412h-1063z" />
    <glyph glyph-name="Tau" unicode="&#x3a4;" horiz-adv-x="1327" 
d="M514 229v949h-248q-48 0 -82 -11.5t-60 -43.5t-36 -50t-33 -68l-6 -12q18 189 33 371h1165l31 -371q-18 45 -33 71t-43 56t-72 44t-106 14h-211v-949q0 -57 9 -100.5t21.5 -66.5t29 -38t26.5 -19t19 -5h-508q9 1 18.5 4.5t26 18t28.5 37t21.5 67t9.5 102.5z" />
    <glyph glyph-name="Upsilon" unicode="&#x3a5;" horiz-adv-x="1376" 
d="M539 229v334l-322 565q-34 58 -67 103t-55.5 68.5t-45 39t-31 19.5t-16.5 6h551q-64 -11 -64 -80q0 -51 54 -145l194 -338l174 301q74 131 74 184q0 28 -12.5 46.5t-23.5 24t-21 7.5h444q-6 -2 -12 -4.5t-27.5 -18.5t-43 -39t-56 -70t-70.5 -108l-327 -551v-344
q0 -57 9.5 -101t21.5 -67t28.5 -37.5t25.5 -18.5t17 -5h-506q8 1 17 4t26.5 17.5t30.5 37t23 67t10 103.5z" />
    <glyph glyph-name="Phi" unicode="&#x3a6;" horiz-adv-x="1591" 
d="M662 147v23q-264 23 -428 160t-164 340q0 209 165 352t427 174v21q0 48 -11 84t-29 55t-31.5 28t-27.5 13h465q-39 -10 -68 -58t-30 -118v-23q264 -19 428 -156t164 -342q0 -208 -163.5 -352.5t-428.5 -175.5v-22q0 -51 10.5 -89t28 -56.5t30.5 -26.5t27 -11h-461
q97 25 97 180zM930 1006v-648q130 19 213.5 104.5t83.5 209.5q0 128 -79 216.5t-218 117.5zM662 362v648q-129 -21 -211 -103t-82 -202q0 -135 79 -225t214 -118z" />
    <glyph glyph-name="Chi" unicode="&#x3a7;" horiz-adv-x="1427" 
d="M504 0h-494q7 1 17.5 5t36 20.5t54.5 42.5t72.5 77t90.5 119l272 391l-307 467q-39 59 -76.5 105t-62.5 70t-48 40t-32.5 20.5t-16.5 6.5h574q-60 -15 -60 -78q0 -55 68 -158l149 -229l158 223q80 115 80 170q0 25 -11.5 42.5t-21.5 22.5t-18 7h479q-6 -1 -15.5 -4.5
t-33 -18.5t-49 -38t-64 -67t-78.5 -101l-303 -426l297 -451q43 -65 84.5 -115.5t68 -75.5t50.5 -42t32.5 -20t14.5 -5h-582q9 0 21.5 5t27.5 24.5t15 50.5q0 54 -76 172l-139 211l-141 -207q-88 -133 -88 -180q0 -28 11.5 -46t22.5 -23.5t21 -6.5z" />
    <glyph glyph-name="Psi" unicode="&#x3a8;" horiz-adv-x="1628" 
d="M680 197v237q-551 31 -551 520v203q0 173 -98 207h458q-90 -27 -90 -203v-196q0 -169 72 -246.5t209 -87.5v536q0 54 -11.5 94t-29 60.5t-32 30t-27.5 12.5h464q-13 -4 -25.5 -13t-30 -29.5t-28 -61.5t-10.5 -97v-532q136 9 208.5 88.5t72.5 245.5v196q0 57 -10 98
t-26.5 62t-28.5 30t-25 13h458q-98 -34 -98 -207v-182q0 -250 -139.5 -388t-411.5 -153v-237q0 -101 31.5 -147t65.5 -50h-463q12 2 26 11t31 29t28 61t11 96z" />
    <glyph glyph-name="uni03A9" unicode="&#x3a9;" horiz-adv-x="1710" 
d="M72 0l-27 354q57 -107 123.5 -136.5t234.5 -29.5q-110 96 -169.5 230t-59.5 282q0 135 47 259t133.5 221.5t222.5 156t300 58.5q158 0 285.5 -54t207.5 -146t123 -210t43 -250q0 -158 -61 -303t-175 -244h60q132 0 191 32.5t112 133.5l-27 -354h-747q26 6 68 36.5
t92 87.5t93 129t72 171t29 203q0 159 -46 284t-142 201t-230 76q-165 0 -264.5 -127.5t-99.5 -355.5q0 -126 29 -241.5t71.5 -194.5t92.5 -140t91.5 -91.5t69.5 -37.5h-743z" />
    <glyph glyph-name="Iotadieresis" unicode="&#x3aa;" horiz-adv-x="653" 
d="M176 211v932q0 54 -10 96.5t-22.5 64t-30.5 36.5t-26 18t-17 6h503q-7 -1 -15 -4t-26 -17.5t-31 -36t-23.5 -64.5t-10.5 -99v-932q0 -52 9.5 -92t22 -61.5t29 -35t26.5 -17.5t17 -5h-501q8 1 17 4t26 16.5t30 34.5t23 62t10 94zM397 1618q0 55 36 90t97 35t97.5 -35
t36.5 -90q0 -56 -37.5 -92.5t-96.5 -36.5q-60 0 -96.5 36.5t-36.5 92.5zM-6 1618q0 55 38 90t99 35q59 0 95 -35t36 -90q0 -56 -36 -92.5t-95 -36.5q-61 0 -99 36.5t-38 92.5z" />
    <glyph glyph-name="Upsilondieresis" unicode="&#x3ab;" horiz-adv-x="1376" 
d="M539 229v334l-322 565q-34 58 -67 103t-55.5 68.5t-45 39t-31 19.5t-16.5 6h551q-64 -11 -64 -80q0 -51 54 -145l194 -338l174 301q74 131 74 184q0 28 -12.5 46.5t-23.5 24t-21 7.5h444q-6 -2 -12 -4.5t-27.5 -18.5t-43 -39t-56 -70t-70.5 -108l-327 -551v-344
q0 -57 9.5 -101t21.5 -67t28.5 -37.5t25.5 -18.5t17 -5h-506q8 1 17 4t26.5 17.5t30.5 37t23 67t10 103.5zM780 1618q0 55 36 90t97 35t97.5 -35t36.5 -90q0 -56 -37.5 -92.5t-96.5 -36.5q-61 0 -97 36.5t-36 92.5zM377 1618q0 55 38 90t99 35q59 0 95 -35t36 -90
q0 -56 -36 -92.5t-95 -36.5q-61 0 -99 36.5t-38 92.5z" />
    <glyph glyph-name="alphatonos" unicode="&#x3ac;" horiz-adv-x="1153" 
d="M1145 113l-225 -154q-60 18 -107 76t-68 131q-107 -195 -307 -195q-52 0 -102 15t-99 50t-85.5 86t-59 129.5t-22.5 174.5q0 107 25 199.5t67.5 159t98.5 114t118 71t125 23.5q108 0 176.5 -73.5t91.5 -196.5q20 97 58.5 175t87.5 106l221 -158q-59 -14 -109 -85.5
t-80 -193.5l-24 -102l12 -78q20 -123 72.5 -198.5t134.5 -75.5zM702 418q-23 213 -61 301q-41 94 -115 94q-79 0 -130.5 -95.5t-51.5 -234.5q0 -145 44.5 -234t131.5 -89q63 0 113 71.5t69 186.5zM537 1016l-25 373h291z" />
    <glyph glyph-name="epsilontonos" unicode="&#x3ad;" horiz-adv-x="890" 
d="M649 408h-108q-95 0 -151 -31.5t-56 -95.5q0 -58 51.5 -92.5t136.5 -34.5q201 0 330 153q-30 -159 -135.5 -248.5t-270.5 -89.5t-274 75t-109 202q0 95 61.5 161.5t172.5 92.5q-79 16 -141 72t-62 143q0 89 56.5 153t148 94.5t207.5 30.5q147 0 276 -45v-278
q-40 65 -111.5 112t-166.5 47q-74 0 -119 -35.5t-45 -93.5q0 -64 52.5 -103.5t160.5 -39.5h96v-149zM408 1016l-25 373h291z" />
    <glyph glyph-name="etatonos" unicode="&#x3ae;" horiz-adv-x="1130" 
d="M143 0v647q0 110 -38 153.5t-105 45.5l240 158q57 -19 94.5 -66t50.5 -104q48 66 134.5 112.5t176.5 46.5q138 0 217.5 -83.5t79.5 -250.5v-815q0 -49 7.5 -87.5t18.5 -61t25.5 -37.5t25.5 -21t22 -8h-361v965q0 201 -139 201q-77 0 -133 -59.5t-56 -149.5v-586h-260z
M500 1016l-25 373h291z" />
    <glyph glyph-name="iotatonos" unicode="&#x3af;" horiz-adv-x="696" 
d="M162 227v432q0 109 -33.5 149t-87.5 40h-27l408 153v-698q0 -70 27 -103.5t71 -33.5q45 0 88.5 29t67.5 71q-21 -150 -96 -224.5t-183 -74.5q-110 0 -172.5 71.5t-62.5 188.5zM231 1016l-24 373h291z" />
    <glyph glyph-name="upsilondieresistonos" unicode="&#x3b0;" 
d="M135 360v283q0 115 -38 158t-105 45l239 158q72 -22 118 -96t46 -203v-324q0 -113 45 -170t129 -57q88 0 146.5 95.5t58.5 299.5q0 165 -42.5 267t-115.5 102q27 38 75 60.5t108 22.5q99 0 167 -102.5t68 -318.5q0 -131 -27.5 -236t-73 -174t-109 -115t-133 -66
t-146.5 -20q-190 0 -300 97t-110 294zM672 1243q0 51 34 84t89 33q56 0 89.5 -32.5t33.5 -84.5t-34 -85.5t-89 -33.5t-89 33.5t-34 85.5zM176 1243q0 51 35 84t92 33q55 0 88 -32.5t33 -84.5t-33 -85.5t-88 -33.5q-56 0 -91.5 33.5t-35.5 85.5zM508 1176l-29 354h279z" />
    <glyph glyph-name="alpha" unicode="&#x3b1;" horiz-adv-x="1153" 
d="M1145 113l-225 -154q-60 18 -107 76t-68 131q-107 -195 -307 -195q-52 0 -102 15t-99 50t-85.5 86t-59 129.5t-22.5 174.5q0 107 25 199.5t67.5 159t98.5 114t118 71t125 23.5q108 0 176.5 -73.5t91.5 -196.5q20 97 58.5 175t87.5 106l221 -158q-59 -14 -109 -85.5
t-80 -193.5l-24 -102l12 -78q20 -123 72.5 -198.5t134.5 -75.5zM702 418q-23 213 -61 301q-41 94 -115 94q-79 0 -130.5 -95.5t-51.5 -234.5q0 -145 44.5 -234t131.5 -89q63 0 113 71.5t69 186.5z" />
    <glyph glyph-name="beta" unicode="&#x3b2;" horiz-adv-x="1138" 
d="M143 -180v1114q0 128 38.5 224t107 152t156 83.5t192.5 27.5q177 0 286 -91.5t109 -227.5q0 -104 -58.5 -194t-156.5 -160q120 -56 185 -148t65 -209q0 -123 -61 -220t-159 -147.5t-212 -50.5q-72 0 -133.5 20.5t-100.5 53.5v-418h-346q32 6 60 51t28 140zM526 682
l111 100q139 127 139 285q0 76 -47.5 130t-120.5 54q-95 0 -151 -77.5t-56 -208.5v-635q0 -82 53.5 -131t141.5 -49t141.5 59.5t53.5 157.5q0 45 -15.5 84.5t-36 68t-60.5 60.5t-70 51t-83 51z" />
    <glyph glyph-name="gamma" unicode="&#x3b3;" horiz-adv-x="1099" 
d="M666 -371h-285q0 192 53 383q-42 148 -91 293t-108 293t-122 246.5t-115 113.5h352q67 -123 132 -292t98 -310l129 260q55 110 55 195q0 36 -17.5 63t-44.5 27q-12 0 -20 -2q19 44 64 72t100 28q71 0 116.5 -44.5t45.5 -112.5q0 -20 -2.5 -39t-9.5 -41.5t-11.5 -37
t-17 -42t-17.5 -38t-22 -44t-21 -41.5l-137 -270q-60 -118 -82 -232.5t-22 -277.5v-150z" />
    <glyph glyph-name="delta" unicode="&#x3b4;" horiz-adv-x="1105" 
d="M1034 1133l-243 -107q10 33 10 64q0 60 -51.5 106.5t-131.5 46.5q-86 0 -134 -42t-48 -89q0 -17 3 -31.5t12.5 -29.5t17 -26.5t26 -27.5t30.5 -26t39 -28t42.5 -28t50.5 -32.5t54 -34.5q76 -49 127.5 -90.5t98 -95t69 -116t22.5 -136.5q0 -88 -32 -167.5t-91.5 -141
t-152.5 -98t-207 -36.5q-217 0 -345 122.5t-128 303.5q0 78 27.5 147t74.5 119.5t100 87t113 60.5q-194 127 -194 293q0 144 118 237t338 93q70 0 135.5 -18.5t120.5 -53.5t90 -93.5t39 -131.5zM514 719q-75 -38 -126.5 -112t-51.5 -175q0 -122 65 -199t158 -77q95 0 148 68
t53 165q0 91 -50 160t-147 137q-30 19 -49 33z" />
    <glyph glyph-name="epsilon" unicode="&#x3b5;" horiz-adv-x="890" 
d="M649 408h-108q-95 0 -151 -31.5t-56 -95.5q0 -58 51.5 -92.5t136.5 -34.5q201 0 330 153q-30 -159 -135.5 -248.5t-270.5 -89.5t-274 75t-109 202q0 95 61.5 161.5t172.5 92.5q-79 16 -141 72t-62 143q0 89 56.5 153t148 94.5t207.5 30.5q147 0 276 -45v-278
q-40 65 -111.5 112t-166.5 47q-74 0 -119 -35.5t-45 -93.5q0 -64 52.5 -103.5t160.5 -39.5h96v-149z" />
    <glyph glyph-name="zeta" unicode="&#x3b6;" horiz-adv-x="921" 
d="M266 807l303 401h-258q-44 0 -80.5 -13t-58.5 -31.5t-38 -42.5t-22.5 -42.5t-9.5 -34.5v355h844l-452 -600q-85 -113 -125.5 -190t-40.5 -158q0 -87 40.5 -145t149.5 -105q99 -42 155.5 -71.5t106 -68t70 -82.5t20.5 -102q0 -95 -82.5 -170t-205.5 -90q84 69 84 160
q0 39 -12.5 66t-48.5 53t-77.5 45.5t-124.5 52.5q-109 43 -179.5 95t-110 128.5t-39.5 175.5q0 54 15.5 109t48.5 112.5t58.5 95.5t69.5 97z" />
    <glyph glyph-name="eta" unicode="&#x3b7;" horiz-adv-x="1130" 
d="M143 0v647q0 110 -38 153.5t-105 45.5l240 158q57 -19 94.5 -66t50.5 -104q48 66 134.5 112.5t176.5 46.5q138 0 217.5 -83.5t79.5 -250.5v-815q0 -49 7.5 -87.5t18.5 -61t25.5 -37.5t25.5 -21t22 -8h-361v965q0 201 -139 201q-77 0 -133 -59.5t-56 -149.5v-586h-260z
" />
    <glyph glyph-name="theta" unicode="&#x3b8;" horiz-adv-x="1153" 
d="M563 -31q-150 0 -262 91t-169.5 248.5t-57.5 361.5q0 218 62.5 388.5t178.5 266.5t267 96q153 0 266 -89t171 -246t58 -361q0 -218 -60 -388t-178 -269t-276 -99zM334 774h473q-14 206 -82 334.5t-170 128.5q-97 0 -156.5 -129t-64.5 -334zM811 618h-471
q14 -206 82.5 -335t169.5 -129q94 0 153.5 129t65.5 335z" />
    <glyph glyph-name="iota" unicode="&#x3b9;" horiz-adv-x="696" 
d="M162 227v432q0 109 -33.5 149t-87.5 40h-27l408 153v-698q0 -70 27 -103.5t71 -33.5q45 0 88.5 29t67.5 71q-21 -150 -96 -224.5t-183 -74.5q-110 0 -172.5 71.5t-62.5 188.5z" />
    <glyph glyph-name="kappa" unicode="&#x3ba;" horiz-adv-x="1179" 
d="M143 0v664q0 184 -112 184h-25q75 27 397 153v-561l89 133q26 40 67.5 106t63 100t57 79t63 67t66 38t80.5 16q87 0 144.5 -57.5t72.5 -163.5q-42 37 -109 37q-29 0 -59 -11t-61.5 -35t-56.5 -46.5t-58.5 -61t-52.5 -62t-52 -65.5l263 -295q168 -190 276 -190
q-80 -54 -235 -54q-39 0 -72 6t-60 14.5t-56 28.5t-51 37.5t-54 52t-55.5 62t-65.5 77.5q-37 45 -58 69l-86 -111v-211h-260z" />
    <glyph glyph-name="lambda" unicode="&#x3bb;" horiz-adv-x="1105" 
d="M338 0h-340q70 30 147 199l322 702l-25 62q-54 133 -139 216.5t-186 84.5l260 166q79 -47 148.5 -174t156.5 -349l279 -712q38 -99 77 -143t72 -52h-309l-213 578z" />
    <glyph glyph-name="uni03BC" unicode="&#x3bc;" horiz-adv-x="1130" 
d="M141 -158v1116h262v-589q0 -100 40.5 -150.5t111.5 -50.5q77 0 124.5 61t47.5 152v577h260v-659q0 -186 141 -186l-225 -152q-55 14 -95 57t-60 101q-87 -150 -209 -150q-39 0 -76.5 18.5t-59.5 47.5v-406h-378q16 4 32 14t37 31.5t34 65t13 102.5z" />
    <glyph glyph-name="nu" unicode="&#x3bd;" horiz-adv-x="1112" 
d="M465 0l-322 784q-28 65 -68.5 114.5t-78.5 59.5h354l236 -591l131 264q49 96 49 180q0 38 -17.5 64t-46.5 26q-10 0 -18 -2q20 43 64.5 71.5t99.5 28.5q70 0 116 -43.5t46 -111.5q0 -43 -15.5 -93t-31 -83t-54.5 -111l-166 -321q-53 -106 -102 -236h-176z" />
    <glyph glyph-name="xi" unicode="&#x3be;" horiz-adv-x="944" 
d="M786 606h-147q-140 0 -223.5 -48.5t-83.5 -135.5q0 -73 44 -120.5t159 -96.5q82 -35 130 -58t98 -54t75 -60.5t41 -68.5t16 -87q0 -95 -83 -170t-206 -90q84 71 84 160q0 72 -55 113t-209 104q-169 68 -261.5 160t-92.5 231q0 122 80.5 204t222.5 113q-121 39 -199 125.5
t-78 214.5q0 172 124 280t329 108q170 0 275.5 -84.5t111.5 -212.5l-244 -107q11 33 11 61q0 67 -47 111.5t-128 44.5q-88 0 -141 -59t-53 -146q0 -124 86 -195t227 -71h137v-166z" />
    <glyph glyph-name="omicron" unicode="&#x3bf;" horiz-adv-x="1150" 
d="M563 -31q-224 0 -356.5 137.5t-132.5 356.5q0 228 143 379t365 151q225 0 360 -136.5t135 -354.5q0 -229 -142 -381t-372 -152zM592 154q97 0 156 88t59 219q0 143 -69.5 245.5t-182.5 102.5q-99 0 -157 -85.5t-58 -213.5q0 -144 70.5 -250t181.5 -106z" />
    <glyph glyph-name="pi" unicode="&#x3c0;" horiz-adv-x="1320" 
d="M317 -41l-233 160q40 2 83 32.5t82 84.5t64 141t25 190v228q-6 2 -33 2q-203 0 -260 -191q-25 52 -25 111q0 115 75 184.5t206 69.5q122 0 404 -12.5t391 -12.5q119 0 186 31v-186q-66 -17 -180 -17q-61 0 -98 2v-473q0 -70 29 -103.5t75 -33.5q42 0 83.5 25.5t63.5 62.5
q-18 -149 -89 -218t-177 -69q-116 0 -181 71.5t-65 188.5v555l-229 9v-326q0 -213 -45 -333t-152 -173z" />
    <glyph glyph-name="rho" unicode="&#x3c1;" horiz-adv-x="1112" 
d="M133 -152v641q0 171 51 273q57 114 164 172.5t246 58.5q197 0 321.5 -126.5t124.5 -354.5q0 -135 -45 -244q-58 -146 -170.5 -219.5t-242.5 -73.5q-128 0 -187 56v-402h-352q34 6 62 57t28 162zM393 516v-209q0 -153 154 -153q100 0 158.5 87t58.5 228q0 157 -54.5 248.5
t-136.5 91.5t-131 -76t-49 -217z" />
    <glyph glyph-name="sigma1" unicode="&#x3c2;" horiz-adv-x="935" 
d="M881 676l-250 -101q14 35 14 76q0 72 -36.5 114t-96.5 42q-87 0 -140 -82t-53 -215q0 -118 44 -189.5t155 -119.5q57 -25 93 -42t77.5 -39t66 -39.5t49.5 -40.5t37.5 -47t20.5 -53t8 -63q0 -96 -82.5 -171.5t-205.5 -90.5q84 69 84 160q0 23 -5.5 42.5t-12.5 34.5
t-26.5 30t-34.5 25.5t-50 26.5t-60 26.5t-76 31.5q-331 133 -331 448q0 246 140 399.5t343 153.5q136 0 229 -87t99 -230z" />
    <glyph glyph-name="sigma" unicode="&#x3c3;" horiz-adv-x="1181" 
d="M969 774h-62q131 -140 131 -319q0 -90 -32.5 -175.5t-92.5 -155.5t-155.5 -112.5t-210.5 -42.5t-207 40t-149 107t-87 149t-30 171q0 107 33.5 202t96 168.5t160.5 116t218 42.5q53 0 189.5 -9.5t203.5 -9.5q110 0 180 31v-186q-69 -17 -186 -17zM705 784q-3 0 -47.5 3.5
t-67.5 3.5q-119 0 -184.5 -87.5t-65.5 -222.5q0 -144 61 -235.5t162 -91.5q91 0 149 85t58 218q0 178 -65 327z" />
    <glyph glyph-name="tau" unicode="&#x3c4;" horiz-adv-x="946" 
d="M317 219v569q-15 3 -43 3q-86 0 -145.5 -49.5t-83.5 -135.5q-25 52 -25 111q0 111 70.5 179.5t188.5 68.5q78 0 234.5 -9.5t221.5 -9.5q104 0 172 31v-186q-70 -17 -182 -17q-65 0 -147 6v-477q0 -69 31.5 -103t80.5 -34q50 0 102.5 29t79.5 71q-21 -156 -100.5 -227.5
t-198.5 -71.5t-187.5 69.5t-68.5 182.5z" />
    <glyph glyph-name="upsilon" unicode="&#x3c5;" 
d="M135 360v283q0 115 -38 158t-105 45l239 158q72 -22 118 -96t46 -203v-324q0 -113 45 -170t129 -57q88 0 146.5 95.5t58.5 299.5q0 165 -42.5 267t-115.5 102q27 38 75 60.5t108 22.5q99 0 167 -102.5t68 -318.5q0 -131 -27.5 -236t-73 -174t-109 -115t-133 -66
t-146.5 -20q-190 0 -300 97t-110 294z" />
    <glyph glyph-name="phi" unicode="&#x3c6;" horiz-adv-x="1478" 
d="M602 -371v338q-85 10 -157.5 32.5t-142.5 67t-119 107t-79 158t-30 215.5q0 217 88 331.5t209 114.5q55 0 102 -24t64 -60q-62 -5 -109 -55t-71.5 -128t-24.5 -171q0 -188 70.5 -285t199.5 -125v398q0 205 105.5 327.5t310.5 122.5q78 0 146.5 -26.5t122.5 -77.5
t85 -133.5t31 -186.5q0 -122 -32.5 -221.5t-85.5 -165t-125.5 -112.5t-147 -70.5t-156.5 -32.5v-143q0 -164 88 -195h-342zM856 530v-387q59 13 109 41t92 74.5t66 118.5t24 164q0 132 -42.5 200t-107.5 68q-141 0 -141 -279z" />
    <glyph glyph-name="chi" unicode="&#x3c7;" horiz-adv-x="1069" 
d="M266 -371h-309q41 10 90 64t90 125l264 463l-227 479q-86 180 -166 198h336l231 -495l101 180q57 99 57 176q0 36 -17 59t-44 23q-13 0 -21 -2q19 44 64 72t100 28q68 0 115 -43t47 -110q0 -56 -31.5 -124.5t-97.5 -174.5l-166 -268l227 -453q92 -179 166 -197h-352
l-211 449z" />
    <glyph glyph-name="psi" unicode="&#x3c8;" horiz-adv-x="1452" 
d="M598 -371v336q-220 21 -351.5 145t-131.5 343v190q0 112 -35.5 156.5t-97.5 46.5l235 158q152 -58 152 -299v-238q0 -125 61 -205.5t168 -105.5v999q0 73 -15 119.5t-32.5 63t-42.5 26.5h344v-1210q119 33 188.5 138.5t69.5 289.5q0 141 -38 238.5t-101 97.5
q61 81 164 81q99 0 165 -97.5t66 -287.5q0 -149 -39 -266.5t-110 -194.5t-162.5 -122.5t-202.5 -61.5v-125q0 -61 11 -106t28.5 -66.5t30.5 -30.5t26 -12h-350z" />
    <glyph glyph-name="omega" unicode="&#x3c9;" horiz-adv-x="1513" 
d="M629 352v244h254v-240q0 -99 34 -150.5t97 -51.5q166 0 166 395q0 157 -53.5 258.5t-143.5 101.5q18 34 71.5 59t104.5 25q57 0 104.5 -22t87.5 -69t62.5 -131.5t22.5 -199.5q0 -128 -24 -231.5t-63.5 -171.5t-93.5 -114t-112.5 -65.5t-122.5 -19.5q-89 0 -159.5 41.5
t-112.5 116.5q-93 -158 -271 -158q-63 0 -119.5 17.5t-109 60t-90 106t-60 161.5t-22.5 221q0 215 85.5 336.5t211.5 121.5q51 0 99 -24.5t67 -59.5q-91 0 -149 -102.5t-58 -257.5q0 -197 48.5 -296t125.5 -99q59 0 91 50t32 148z" />
    <glyph glyph-name="iotadieresis" unicode="&#x3ca;" horiz-adv-x="696" 
d="M162 227v432q0 109 -33.5 149t-87.5 40h-27l408 153v-698q0 -70 27 -103.5t71 -33.5q45 0 88.5 29t67.5 71q-21 -150 -96 -224.5t-183 -74.5q-110 0 -172.5 71.5t-62.5 188.5zM365 1253q0 55 36 90t97 35t97 -35t36 -90q0 -56 -37 -92.5t-96 -36.5q-60 0 -96.5 36
t-36.5 93zM-39 1253q0 55 38 90t99 35q59 0 95 -35t36 -90q0 -56 -36 -92.5t-95 -36.5q-61 0 -99 36.5t-38 92.5z" />
    <glyph glyph-name="upsilondieresis" unicode="&#x3cb;" 
d="M135 360v283q0 115 -38 158t-105 45l239 158q72 -22 118 -96t46 -203v-324q0 -113 45 -170t129 -57q88 0 146.5 95.5t58.5 299.5q0 165 -42.5 267t-115.5 102q27 38 75 60.5t108 22.5q99 0 167 -102.5t68 -318.5q0 -131 -27.5 -236t-73 -174t-109 -115t-133 -66
t-146.5 -20q-190 0 -300 97t-110 294zM625 1253q0 55 36 90t97 35t97 -35t36 -90q0 -56 -37 -92.5t-96 -36.5q-60 0 -96.5 36t-36.5 93zM221 1253q0 55 38 90t99 35q59 0 95 -35t36 -90q0 -56 -36 -92.5t-95 -36.5q-61 0 -99 36.5t-38 92.5z" />
    <glyph glyph-name="omicrontonos" unicode="&#x3cc;" horiz-adv-x="1150" 
d="M563 -31q-224 0 -356.5 137.5t-132.5 356.5q0 228 143 379t365 151q225 0 360 -136.5t135 -354.5q0 -229 -142 -381t-372 -152zM592 154q97 0 156 88t59 219q0 143 -69.5 245.5t-182.5 102.5q-99 0 -157 -85.5t-58 -213.5q0 -144 70.5 -250t181.5 -106zM524 1016l-24 373
h291z" />
    <glyph glyph-name="upsilontonos" unicode="&#x3cd;" 
d="M135 360v283q0 115 -38 158t-105 45l239 158q72 -22 118 -96t46 -203v-324q0 -113 45 -170t129 -57q88 0 146.5 95.5t58.5 299.5q0 165 -42.5 267t-115.5 102q27 38 75 60.5t108 22.5q99 0 167 -102.5t68 -318.5q0 -131 -27.5 -236t-73 -174t-109 -115t-133 -66
t-146.5 -20q-190 0 -300 97t-110 294zM489 1016l-24 373h291z" />
    <glyph glyph-name="omegatonos" unicode="&#x3ce;" horiz-adv-x="1513" 
d="M629 352v244h254v-240q0 -99 34 -150.5t97 -51.5q166 0 166 395q0 157 -53.5 258.5t-143.5 101.5q18 34 71.5 59t104.5 25q57 0 104.5 -22t87.5 -69t62.5 -131.5t22.5 -199.5q0 -128 -24 -231.5t-63.5 -171.5t-93.5 -114t-112.5 -65.5t-122.5 -19.5q-89 0 -159.5 41.5
t-112.5 116.5q-93 -158 -271 -158q-63 0 -119.5 17.5t-109 60t-90 106t-60 161.5t-22.5 221q0 215 85.5 336.5t211.5 121.5q51 0 99 -24.5t67 -59.5q-91 0 -149 -102.5t-58 -257.5q0 -197 48.5 -296t125.5 -99q59 0 91 50t32 148zM721 1016l-25 373h291z" />
    <glyph glyph-name="uni0400" unicode="&#x400;" horiz-adv-x="1126" 
d="M184 244v891q0 56 -12 99.5t-26.5 66t-35.5 38t-31.5 19.5t-21.5 6h928v-365q-12 40 -27.5 68t-43 55.5t-72.5 41.5t-107 14h-258v-396h225q39 0 69.5 6.5t46.5 14.5t27.5 19.5t15 17.5t5.5 12v-324q-23 68 -159 68h-230v-408h279q128 0 194 42t125 151l-65 -381h-936
q8 1 17.5 4.5t27 19.5t31 40t24 71t10.5 109zM295 1755h342l100 -328z" />
    <glyph glyph-name="afii10023" unicode="&#x401;" horiz-adv-x="1126" 
d="M184 244v891q0 56 -12 99.5t-26.5 66t-35.5 38t-31.5 19.5t-21.5 6h928v-365q-12 40 -27.5 68t-43 55.5t-72.5 41.5t-107 14h-258v-396h225q39 0 69.5 6.5t46.5 14.5t27.5 19.5t15 17.5t5.5 12v-324q-23 68 -159 68h-230v-408h279q128 0 194 42t125 151l-65 -381h-936
q8 1 17.5 4.5t27 19.5t31 40t24 71t10.5 109zM645 1618q0 55 36 90t97 35t97 -35t36 -90q0 -56 -37 -92.5t-96 -36.5q-60 0 -96.5 36.5t-36.5 92.5zM242 1618q0 55 38 90t99 35q59 0 95 -35t36 -90q0 -56 -36 -92.5t-95 -36.5q-61 0 -99 36.5t-38 92.5z" />
    <glyph glyph-name="afii10051" unicode="&#x402;" horiz-adv-x="1662" 
d="M516 229v949h-250q-40 0 -71.5 -11t-51.5 -25.5t-39.5 -43t-29 -48t-25.5 -57.5l33 371h1196l31 -371q-18 45 -33 71t-43 56t-72 44t-106 14h-244v-365q131 59 305 59q220 0 346.5 -125t126.5 -337q0 -222 -140.5 -352t-352.5 -130q188 151 188 439q0 148 -75.5 230.5
t-186.5 82.5q-116 0 -211 -45v-406q0 -67 11.5 -115.5t29 -71t31.5 -31.5t28 -11h-495q14 2 28 11t31.5 31.5t29 71t11.5 115.5z" />
    <glyph glyph-name="afii10052" unicode="&#x403;" horiz-adv-x="1017" 
d="M170 231v908q0 54 -11.5 96t-26 64t-35.5 37.5t-32.5 20t-23.5 7.5h930v-360q-10 27 -19.5 46.5t-30 45.5t-45.5 42t-67 28t-94 12h-252v-955q0 -53 8 -94.5t19 -64.5t26 -38t26 -19.5t21 -6.5h-504q13 2 27.5 10.5t35.5 30.5t34.5 71.5t13.5 118.5zM426 1427l98 326h338
z" />
    <glyph glyph-name="afii10053" unicode="&#x404;" horiz-adv-x="1308" 
d="M391 782h393q126 0 164 66v-322q-1 5 -3.5 10.5t-13 17t-26.5 20t-46.5 15.5t-70.5 7h-395q20 -174 133.5 -293t284.5 -119q110 0 222 57t188 154v-235q-74 -85 -194.5 -138t-252.5 -53q-170 0 -304.5 57t-217 153.5t-125.5 217.5t-43 256q0 114 29.5 221t90.5 202
t147.5 166t209 112t266.5 41q216 0 367 -80v-393q-49 124 -148.5 196t-240.5 72q-164 0 -276 -116t-138 -292z" />
    <glyph glyph-name="afii10054" unicode="&#x405;" horiz-adv-x="1105" 
d="M94 72v387q132 -287 412 -287q97 0 163 42.5t66 113.5q0 35 -16 66.5t-37.5 54t-62.5 48.5t-71.5 41.5t-85.5 42t-85 42.5q-60 32 -104 62.5t-86.5 74t-64.5 100.5t-22 125q0 130 67 224t176 139t247 45q95 0 186.5 -26.5t149.5 -66.5v-325q-45 84 -143.5 151.5
t-211.5 67.5q-99 0 -150.5 -42t-51.5 -108q0 -31 14.5 -59t33.5 -48t57 -43t66.5 -37t79.5 -38q9 -4 13 -6q47 -21 79 -37t75.5 -41t73 -48.5t61.5 -57.5t50.5 -69.5t31 -82t12.5 -98.5q0 -130 -68.5 -224t-184.5 -140t-265 -46q-112 0 -220.5 28t-183.5 75z" />
    <glyph glyph-name="afii10055" unicode="&#x406;" horiz-adv-x="643" 
d="M176 211v932q0 54 -10 96.5t-22.5 64t-30.5 36.5t-26 18t-17 6h503q-7 -1 -15 -4t-26 -17.5t-31 -36t-23.5 -64.5t-10.5 -99v-932q0 -52 9.5 -92t22 -61.5t29 -35t26.5 -17.5t17 -5h-501q8 1 17 4t26 16.5t30 34.5t23 62t10 94z" />
    <glyph glyph-name="afii10056" unicode="&#x407;" horiz-adv-x="653" 
d="M176 211v932q0 54 -10 96.5t-22.5 64t-30.5 36.5t-26 18t-17 6h503q-7 -1 -15 -4t-26 -17.5t-31 -36t-23.5 -64.5t-10.5 -99v-932q0 -52 9.5 -92t22 -61.5t29 -35t26.5 -17.5t17 -5h-501q8 1 17 4t26 16.5t30 34.5t23 62t10 94zM397 1618q0 55 36 90t97 35t97.5 -35
t36.5 -90q0 -56 -37.5 -92.5t-96.5 -36.5q-60 0 -96.5 36.5t-36.5 92.5zM-6 1618q0 55 38 90t99 35q59 0 95 -35t36 -90q0 -56 -36 -92.5t-95 -36.5q-61 0 -99 36.5t-38 92.5z" />
    <glyph glyph-name="afii10057" unicode="&#x408;" horiz-adv-x="665" 
d="M215 295v850q0 53 -10 94.5t-23.5 63t-31.5 36.5t-29 19t-21 6h510q-9 -2 -17 -5.5t-25 -18t-29 -36t-21.5 -64t-9.5 -97.5v-881q0 -215 -86.5 -318.5t-245.5 -103.5q-76 0 -142.5 29.5t-109.5 81.5q38 -10 74 -10q107 0 162 94.5t55 259.5z" />
    <glyph glyph-name="afii10058" unicode="&#x409;" horiz-adv-x="1966" 
d="M203 262l432 1102h209l219 -551h350q122 0 216 -30t150.5 -83t84.5 -120.5t28 -147.5q0 -187 -133.5 -309.5t-359.5 -122.5h-463q28 2 55 23t27 67q0 26 -35 117l-285 727l-276 -727q-29 -76 -29 -109q0 -50 28.5 -73t57.5 -25h-471q13 2 30 12.5t43.5 36t59 81
t62.5 132.5zM1317 184h37q112 0 175.5 65.5t63.5 162.5q0 100 -60.5 157.5t-186.5 57.5h-207z" />
    <glyph glyph-name="afii10059" unicode="&#x40a;" horiz-adv-x="2029" 
d="M170 229v906q0 192 -107 229h486q-13 -3 -26 -12.5t-32 -32.5t-30.5 -70.5t-11.5 -113.5v-353h559v359q0 60 -11 105t-29.5 68t-33.5 34t-31 16h494q-16 -4 -32 -15t-35.5 -34t-31.5 -68.5t-12 -105.5v-328h187q123 0 217.5 -30t151.5 -83t85.5 -120.5t28.5 -147.5
q0 -189 -135 -310.5t-359 -121.5h-559q16 3 31.5 14t33.5 35t29 71t11 111v365h-559v-367q0 -66 11 -114t28 -70.5t31 -32.5t28 -12h-481q13 2 28 11.5t33.5 32t30.5 71t12 114.5zM1286 184h131q112 0 176 65.5t64 162.5q0 99 -62.5 157t-187.5 58h-121v-443z" />
    <glyph glyph-name="afii10060" unicode="&#x40b;" horiz-adv-x="1697" 
d="M516 229v949h-250q-40 0 -71.5 -11t-51.5 -25.5t-39.5 -43t-29 -48t-25.5 -57.5l33 371h1196l31 -371q-18 45 -33 71t-43 56t-72 44t-106 14h-244v-365q137 59 285 59q234 0 346 -114t112 -348v-203q0 -59 11 -102t27.5 -64t29.5 -30t25 -11h-480q12 2 25.5 11t30 29
t27 62.5t10.5 100.5v198q0 138 -65.5 208.5t-178.5 70.5q-107 0 -205 -45v-406q0 -67 11.5 -115.5t29 -71t31.5 -31.5t28 -11h-495q14 2 28 11t31.5 31.5t29 71t11.5 115.5z" />
    <glyph glyph-name="afii10061" unicode="&#x40c;" horiz-adv-x="1447" 
d="M170 227v908q0 56 -10 99.5t-23 66t-30.5 38t-27 19.5t-18.5 6h508q-7 -1 -16.5 -4.5t-26 -18t-29 -37.5t-22.5 -67t-10 -102v-377l338 368q110 123 110 187q0 18 -11 30t-20.5 15.5t-19.5 5.5h537q-8 -1 -19.5 -4.5t-43 -19t-66 -39t-88 -69.5t-109.5 -106l-340 -370
l402 -510q175 -222 283 -245q2 -1 3 -1h-456l-500 639v-412q0 -57 9.5 -101t22 -66.5t29 -37t26 -18t17.5 -4.5h-508q8 1 17 4.5t27 17.5t31 36.5t23.5 66.5t10.5 102zM602 1427l98 326h338z" />
    <glyph glyph-name="uni040D" unicode="&#x40d;" horiz-adv-x="1517" 
d="M170 229v906q0 55 -9.5 98t-22 65.5t-30 38t-27 20t-20.5 7.5h504q-9 -2 -18.5 -6.5t-25.5 -20t-28 -38.5t-21 -66t-9 -98v-662l592 703q0 44 -9.5 78t-21.5 53t-29 32.5t-27 17.5t-20 7h502q-9 -2 -18.5 -6.5t-25.5 -19.5t-28 -38t-21 -66t-9 -99v-906q0 -55 8.5 -98
t20.5 -66.5t27.5 -39t26 -20t19.5 -5.5h-500q13 2 27 10.5t33.5 30.5t32 70.5t12.5 117.5v662l-592 -703q0 -54 11.5 -93t29.5 -58t32 -27t27 -10h-497q10 2 20 6.5t26 19.5t28 38t21 66t9 99zM416 1753h338l102 -326z" />
    <glyph glyph-name="afii10062" unicode="&#x40e;" horiz-adv-x="1486" 
d="M193 0l2 305q73 -127 198 -127q119 0 209 148l14 22l-405 787q-57 109 -109.5 164.5t-87.5 64.5h557q-77 -23 -77 -90q0 -48 32 -111l267 -518l268 526q24 52 24 99q0 71 -77 94h475q-12 -3 -27.5 -14t-38.5 -35.5t-54.5 -72.5t-66.5 -114l-438 -829
q-94 -177 -202.5 -258.5t-260.5 -81.5q-131 0 -202 41zM430 1712l193 47q10 -86 51 -132t106 -46q59 0 98 47t48 131l188 -47q-21 -113 -110.5 -185.5t-233.5 -72.5q-143 0 -231.5 72.5t-108.5 185.5z" />
    <glyph glyph-name="afii10145" unicode="&#x40f;" horiz-adv-x="1476" 
d="M748 -350h-19q-89 350 -303 350h-358q9 2 20 7.5t26.5 21t27 39.5t20 66t8.5 95v906q0 63 -11.5 110t-29.5 70.5t-32.5 34.5t-26.5 14h487q-92 -27 -92 -229v-947h547v947q0 63 -10.5 110t-27.5 70.5t-30.5 34.5t-25.5 14h489q-100 -30 -100 -229v-906q0 -66 11.5 -114.5
t29.5 -71t32 -32t27 -11.5h-375q-53 0 -99 -27t-75 -64.5t-53.5 -90.5t-35.5 -90t-21 -78z" />
    <glyph glyph-name="afii10017" unicode="&#x410;" horiz-adv-x="1529" 
d="M203 262l430 1102h241l451 -1108q24 -62 51.5 -110.5t49 -74t43 -43t32.5 -22t19 -6.5h-551q9 1 19 5t24 14t23 30t9 47q0 11 -4 29t-13 44.5t-16.5 47.5t-20.5 55t-19 52h-522l-43 -127q-21 -62 -21 -91q0 -31 10 -53t25.5 -32.5t27 -15t21.5 -5.5h-459q8 1 18.5 5.5
t31 21t41.5 43t48.5 76.5t53.5 116zM516 502h385l-194 504z" />
    <glyph glyph-name="afii10018" unicode="&#x411;" horiz-adv-x="1222" 
d="M170 233v910q0 188 -109 221h1002v-363q-13 36 -27 61.5t-41.5 55t-74.5 45t-111 15.5h-360v-349h217q122 0 216.5 -31.5t151.5 -86.5t86 -124t29 -149q0 -189 -136 -313.5t-358 -124.5h-600q16 3 33 14.5t37 36t32.5 72t12.5 110.5zM449 184h161q112 0 175 68t63 168
q0 98 -63 160.5t-187 62.5h-149v-459z" />
    <glyph glyph-name="afii10019" unicode="&#x412;" horiz-adv-x="1308" 
d="M184 240v888q0 58 -11 102.5t-25.5 68t-34 39.5t-30 20t-20.5 6h697q95 0 171 -28t122 -75.5t70 -105.5t24 -121q0 -108 -66 -197.5t-178 -117.5q96 -15 167.5 -68.5t106.5 -127t35 -156.5q0 -70 -26.5 -134.5t-76.5 -117t-131 -84t-181 -31.5h-717q7 1 16.5 4.5t26 19
t29 39.5t22.5 70t10 107zM475 188h207q117 0 170 56.5t53 144.5q0 101 -61 161t-182 60h-187v-422zM475 795h182q90 0 137.5 56.5t47.5 145.5q0 76 -50.5 128.5t-142.5 52.5h-174v-383z" />
    <glyph glyph-name="afii10020" unicode="&#x413;" horiz-adv-x="1017" 
d="M170 231v908q0 54 -11.5 96t-26 64t-35.5 37.5t-32.5 20t-23.5 7.5h930v-360q-10 27 -19.5 46.5t-30 45.5t-45.5 42t-67 28t-94 12h-252v-955q0 -53 8 -94.5t19 -64.5t26 -38t26 -19.5t21 -6.5h-504q13 2 27.5 10.5t35.5 30.5t34.5 71.5t13.5 118.5z" />
    <glyph glyph-name="afii10021" unicode="&#x414;" horiz-adv-x="1529" 
d="M68 -350v543h53q25 0 40 6.5t20.5 14.5t11.5 24l440 1126h241l455 -1122q7 -18 13 -27t20.5 -15.5t38.5 -6.5h61v-543h-18q-9 36 -25.5 76t-48 90.5t-69.5 90t-95 66.5t-121 27h-641q-63 0 -120 -27t-95.5 -66.5t-69.5 -89.5t-47.5 -91t-25.5 -76h-18zM399 193h621
l-315 813z" />
    <glyph glyph-name="afii10022" unicode="&#x415;" 
d="M184 244v891q0 56 -12 99.5t-26.5 66t-35.5 38t-31.5 19.5t-21.5 6h928v-365q-12 40 -27.5 68t-43 55.5t-72.5 41.5t-107 14h-258v-396h225q39 0 69.5 6.5t46.5 14.5t27.5 19.5t15 17.5t5.5 12v-324q-23 68 -159 68h-230v-408h279q128 0 194 42t125 151l-65 -381h-936
q8 1 17.5 4.5t27 19.5t31 40t24 71t10.5 109z" />
    <glyph glyph-name="afii10024" unicode="&#x416;" horiz-adv-x="2121" 
d="M449 0h-431q110 35 269 244l383 497l-326 385q-58 69 -112 119t-92.5 73.5t-59 32.5t-35.5 13h500q-45 -13 -45 -53q0 -60 104 -185l318 -383v392q0 189 -101 229h473q-9 -3 -17 -7.5t-23.5 -20.5t-26 -38.5t-19 -65.5t-8.5 -97v-392l318 383q104 125 104 187
q0 38 -45 51h498q-15 -4 -35.5 -13t-59 -32.5t-92.5 -73.5t-112 -119l-324 -378l383 -504q160 -210 268 -244h-432l-471 637v-410q0 -55 8 -97.5t18.5 -65.5t24.5 -38.5t23.5 -20t17.5 -5.5h-469q9 2 18.5 6.5t25 19.5t27 37.5t20 65.5t8.5 98v408z" />
    <glyph glyph-name="afii10025" unicode="&#x417;" horiz-adv-x="1120" 
d="M84 76v364q116 -264 414 -264q115 0 184.5 53t69.5 142q0 58 -34 101.5t-95 69.5t-137.5 39t-170.5 15v186h134q132 0 207 60.5t75 161.5q0 84 -61.5 135t-163.5 51q-64 0 -120.5 -18t-95.5 -45t-72.5 -65t-53 -70t-35.5 -68v391q185 82 438 82q88 0 168 -22t145 -63
t103.5 -108t38.5 -151q0 -135 -79.5 -225.5t-211.5 -125.5q144 -30 230 -115.5t86 -209.5q0 -182 -144 -295t-379 -113q-281 0 -440 107z" />
    <glyph glyph-name="afii10026" unicode="&#x418;" horiz-adv-x="1517" 
d="M170 229v906q0 55 -9.5 98t-22 65.5t-30 38t-27 20t-20.5 7.5h504q-9 -2 -18.5 -6.5t-25.5 -20t-28 -38.5t-21 -66t-9 -98v-662l592 703q0 44 -9.5 78t-21.5 53t-29 32.5t-27 17.5t-20 7h502q-9 -2 -18.5 -6.5t-25.5 -19.5t-28 -38t-21 -66t-9 -99v-906q0 -55 8.5 -98
t20.5 -66.5t27.5 -39t26 -20t19.5 -5.5h-500q13 2 27 10.5t33.5 30.5t32 70.5t12.5 117.5v662l-592 -703q0 -54 11.5 -93t29.5 -58t32 -27t27 -10h-497q10 2 20 6.5t26 19.5t28 38t21 66t9 99z" />
    <glyph glyph-name="afii10027" unicode="&#x419;" horiz-adv-x="1517" 
d="M170 229v906q0 55 -9.5 98t-22 65.5t-30 38t-27 20t-20.5 7.5h504q-9 -2 -18.5 -6.5t-25.5 -20t-28 -38.5t-21 -66t-9 -98v-662l592 703q0 44 -9.5 78t-21.5 53t-29 32.5t-27 17.5t-20 7h502q-9 -2 -18.5 -6.5t-25.5 -19.5t-28 -38t-21 -66t-9 -99v-906q0 -55 8.5 -98
t20.5 -66.5t27.5 -39t26 -20t19.5 -5.5h-500q13 2 27 10.5t33.5 30.5t32 70.5t12.5 117.5v662l-592 -703q0 -54 11.5 -93t29.5 -58t32 -27t27 -10h-497q10 2 20 6.5t26 19.5t28 38t21 66t9 99zM414 1712l192 47q10 -86 51.5 -132t106.5 -46q59 0 97.5 47t47.5 131l189 -47
q-21 -113 -110.5 -185.5t-233.5 -72.5q-143 0 -231.5 72.5t-108.5 185.5z" />
    <glyph glyph-name="afii10028" unicode="&#x41a;" horiz-adv-x="1447" 
d="M170 227v908q0 56 -10 99.5t-23 66t-30.5 38t-27 19.5t-18.5 6h508q-7 -1 -16.5 -4.5t-26 -18t-29 -37.5t-22.5 -67t-10 -102v-377l338 368q110 123 110 187q0 18 -11 30t-20.5 15.5t-19.5 5.5h537q-8 -1 -19.5 -4.5t-43 -19t-66 -39t-88 -69.5t-109.5 -106l-340 -370
l402 -510q175 -222 283 -245q2 -1 3 -1h-456l-500 639v-412q0 -57 9.5 -101t22 -66.5t29 -37t26 -18t17.5 -4.5h-508q8 1 17 4.5t27 17.5t31 36.5t23.5 66.5t10.5 102z" />
    <glyph glyph-name="afii10029" unicode="&#x41b;" horiz-adv-x="1492" 
d="M201 258l434 1106h209l444 -1114q25 -62 53 -109.5t49 -72t43 -41.5t31.5 -21t18.5 -6h-551q10 1 20 4.5t26.5 12.5t27 28.5t10.5 46.5t-35 113l-287 723l-276 -731q-25 -67 -25 -99q0 -28 10.5 -49t27 -30.5t27.5 -13.5t21 -5h-469q37 16 63 41q69 66 128 217z" />
    <glyph glyph-name="afii10030" unicode="&#x41c;" horiz-adv-x="1800" 
d="M195 244v901q0 54 -12.5 96t-27.5 63.5t-37.5 36t-32.5 18t-22 5.5h498l363 -825l358 825h449q-8 -1 -17.5 -4.5t-27.5 -17.5t-31.5 -36t-24 -66t-10.5 -101v-908q0 -57 10 -101.5t23.5 -67.5t31 -38t28 -19t18.5 -5h-488q8 1 16 4t24 17.5t28 37t21 68t9 104.5v779
l-460 -1043l-473 1041v-764q0 -60 11.5 -106.5t27 -71t35.5 -40.5t32.5 -20.5t22.5 -5.5h-467q9 1 19.5 4.5t31 19.5t35.5 40t27 71t12 109z" />
    <glyph glyph-name="afii10031" unicode="&#x41d;" horiz-adv-x="1517" 
d="M170 229v906q0 56 -10 99.5t-23 66t-30.5 38t-27 19.5t-18.5 6h508q-7 -1 -16.5 -4.5t-26 -18t-29 -37.5t-22.5 -67t-10 -102v-353h588v353q0 57 -10 100.5t-22.5 66t-30.5 38t-27.5 19t-18.5 5.5h508q-8 -1 -16.5 -4.5t-25.5 -18t-29.5 -37t-22.5 -67t-10 -102.5v-906
q0 -57 9.5 -101t22 -67t29 -37.5t26 -18.5t17.5 -5h-508q8 1 17 4t27 17.5t31 37t23.5 67t10.5 103.5v367h-588v-367q0 -58 9.5 -102t22 -67t29 -37.5t26 -18t17.5 -4.5h-508q8 1 17 4t27 17.5t31 37t23.5 67t10.5 103.5z" />
    <glyph glyph-name="afii10032" unicode="&#x41e;" horiz-adv-x="1540" 
d="M750 -31q-202 0 -355.5 93.5t-233 250t-79.5 349.5q0 204 89.5 371t253.5 264.5t372 97.5q151 0 276.5 -54t209 -147.5t129.5 -220t46 -271.5q0 -149 -50.5 -282.5t-141 -233.5t-224.5 -158.5t-292 -58.5zM797 180q160 0 262 126.5t102 340.5q0 154 -47.5 275.5
t-143 193.5t-225.5 72q-159 0 -261.5 -123.5t-102.5 -339.5q0 -248 111.5 -396.5t304.5 -148.5z" />
    <glyph glyph-name="afii10033" unicode="&#x41f;" horiz-adv-x="1476" 
d="M170 229v906q0 192 -107 229h1346q-102 -31 -102 -229v-906q0 -66 11.5 -114.5t29 -71t32 -32t27.5 -11.5h-492q12 2 26 12.5t31.5 33.5t28.5 71t11 112v949h-547v-949q0 -67 10 -114.5t26 -70.5t29.5 -32.5t26.5 -11.5h-489q12 2 27 12.5t33 33.5t30 71t12 112z" />
    <glyph glyph-name="afii10034" unicode="&#x420;" horiz-adv-x="1200" 
d="M190 227v901q0 57 -11 101.5t-25 68t-33.5 39.5t-30 20.5t-20.5 6.5h628q104 0 190.5 -34t142 -92t86 -132.5t30.5 -157.5q0 -93 -33.5 -174t-96 -141.5t-157.5 -95.5t-211 -35q-105 0 -182 24v-299q0 -57 11 -101t25.5 -66.5t33.5 -37t29.5 -18t19.5 -4.5h-502q7 0 17 3
t26.5 17t29.5 36.5t23 67t10 103.5zM467 1178v-463q75 -23 151 -23q108 0 169 68.5t61 179.5q0 106 -64.5 172t-179.5 66h-137z" />
    <glyph glyph-name="afii10035" unicode="&#x421;" horiz-adv-x="1308" 
d="M1221 395v-235q-74 -85 -194.5 -138t-252.5 -53q-170 0 -304.5 57t-217 153.5t-125.5 217.5t-43 256q0 114 29.5 221t90.5 202t147.5 166t209 112t266.5 41q216 0 367 -80v-393q-49 124 -148.5 196t-240.5 72q-184 0 -299 -141.5t-115 -356.5q0 -144 50.5 -259t147 -182
t222.5 -67q110 0 222 57t188 154z" />
    <glyph glyph-name="afii10036" unicode="&#x422;" horiz-adv-x="1327" 
d="M514 229v949h-248q-48 0 -82 -11.5t-60 -43.5t-36 -50t-33 -68l-6 -12q18 189 33 371h1165l31 -371q-18 45 -33 71t-43 56t-72 44t-106 14h-211v-949q0 -57 9 -100.5t21.5 -66.5t29 -38t26.5 -19t19 -5h-508q9 1 18.5 4.5t26 18t28.5 37t21.5 67t9.5 102.5z" />
    <glyph glyph-name="afii10037" unicode="&#x423;" horiz-adv-x="1486" 
d="M193 0l2 305q73 -127 198 -127q119 0 209 148l14 22l-405 787q-57 109 -109.5 164.5t-87.5 64.5h557q-77 -23 -77 -90q0 -48 32 -111l267 -518l268 526q24 52 24 99q0 71 -77 94h475q-12 -3 -27.5 -14t-38.5 -35.5t-54.5 -72.5t-66.5 -114l-438 -829
q-94 -177 -202.5 -258.5t-260.5 -81.5q-131 0 -202 41z" />
    <glyph glyph-name="afii10038" unicode="&#x424;" horiz-adv-x="1591" 
d="M662 147v23q-264 23 -428 160t-164 340q0 209 165 352t427 174v21q0 48 -11 84t-29 55t-31.5 28t-27.5 13h465q-39 -10 -68 -58t-30 -118v-23q264 -19 428 -156t164 -342q0 -208 -163.5 -352.5t-428.5 -175.5v-22q0 -51 10.5 -89t28 -56.5t30.5 -26.5t27 -11h-461
q97 25 97 180zM930 1006v-648q130 19 213.5 104.5t83.5 209.5q0 128 -79 216.5t-218 117.5zM662 362v648q-129 -21 -211 -103t-82 -202q0 -135 79 -225t214 -118z" />
    <glyph glyph-name="afii10039" unicode="&#x425;" horiz-adv-x="1427" 
d="M504 0h-494q7 1 17.5 5t36 20.5t54.5 42.5t72.5 77t90.5 119l272 391l-307 467q-39 59 -76.5 105t-62.5 70t-48 40t-32.5 20.5t-16.5 6.5h574q-60 -15 -60 -78q0 -55 68 -158l149 -229l158 223q80 115 80 170q0 25 -11.5 42.5t-21.5 22.5t-18 7h479q-6 -1 -15.5 -4.5
t-33 -18.5t-49 -38t-64 -67t-78.5 -101l-303 -426l297 -451q43 -65 84.5 -115.5t68 -75.5t50.5 -42t32.5 -20t14.5 -5h-582q9 0 21.5 5t27.5 24.5t15 50.5q0 54 -76 172l-139 211l-141 -207q-88 -133 -88 -180q0 -28 11.5 -46t22.5 -23.5t21 -6.5z" />
    <glyph glyph-name="afii10040" unicode="&#x426;" horiz-adv-x="1497" 
d="M170 229v906q0 63 -11.5 110t-29.5 70.5t-32.5 34.5t-26.5 14h487q-92 -27 -92 -229v-947h547v947q0 63 -10.5 110t-27.5 70.5t-30.5 34.5t-25.5 14h489q-100 -30 -100 -229v-856q0 -46 17 -68.5t60 -22.5h62v-538h-19q-9 36 -25.5 76t-48 90.5t-69.5 90t-95 66.5
t-120 27h-1001q9 2 20 7.5t26.5 21t27 39.5t20 66t8.5 95z" />
    <glyph glyph-name="afii10041" unicode="&#x427;" horiz-adv-x="1347" 
d="M141 942v215q0 58 -10 100.5t-27 63.5t-29.5 30t-25.5 13h477q-90 -27 -90 -203v-205q0 -137 60.5 -204.5t171.5 -67.5q114 0 217 47v352q0 252 -103 281h496q-13 -3 -27 -13t-32 -33t-29.5 -70t-11.5 -111v-854q0 -68 7.5 -120.5t18 -82t25 -48.5t26 -25t23.5 -7h-506
q14 2 29.5 11t36.5 30.5t34 68.5t13 113v330q-145 -64 -297 -64q-228 0 -337.5 112.5t-109.5 340.5z" />
    <glyph glyph-name="afii10042" unicode="&#x428;" horiz-adv-x="2009" 
d="M170 229v906q0 63 -11.5 110t-29.5 70.5t-32.5 34.5t-26.5 14h479q-92 -27 -92 -229v-947h403v947q0 63 -10.5 110t-27.5 70.5t-30.5 34.5t-25.5 14h481q-100 -30 -100 -229v-947h405v947q0 63 -10.5 110t-27.5 70.5t-30.5 34.5t-25.5 14h479q-98 -29 -98 -229v-906
q0 -66 11 -113.5t28.5 -70t31 -32.5t27.5 -13h-1869q9 2 20 7.5t26.5 21t27 39.5t20 66t8.5 95z" />
    <glyph glyph-name="afii10043" unicode="&#x429;" horiz-adv-x="2029" 
d="M170 229v906q0 63 -11.5 110t-29.5 70.5t-32.5 34.5t-26.5 14h479q-92 -27 -92 -229v-947h403v947q0 63 -10.5 110t-27.5 70.5t-30.5 34.5t-25.5 14h481q-100 -30 -100 -229v-947h405v947q0 63 -10.5 110t-27.5 70.5t-30.5 34.5t-25.5 14h479q-98 -29 -98 -229v-856
q0 -46 17.5 -68.5t60.5 -22.5h61v-538h-18q-9 36 -25.5 76t-48 90.5t-69.5 90t-95 66.5t-120 27h-1532q13 3 27 13t32 33t29.5 70.5t11.5 112.5z" />
    <glyph glyph-name="afii10044" unicode="&#x42a;" horiz-adv-x="1540" 
d="M516 233v945h-250q-48 0 -82 -11.5t-60 -43.5t-36 -50t-33 -68l-6 -12l33 371h827q-16 -4 -33 -15.5t-36.5 -34.5t-32 -68t-12.5 -105v-289h188q122 0 216.5 -33t151.5 -90.5t86 -130t29 -156.5q0 -194 -135 -318t-358 -124h-563q15 3 31 14.5t34 35.5t29.5 71.5
t11.5 111.5zM795 184h133q113 0 175 68t62 172q0 109 -62.5 175.5t-187.5 66.5h-120v-482z" />
    <glyph glyph-name="afii10045" unicode="&#x42b;" horiz-adv-x="1779" 
d="M170 233v910q0 51 -8 90.5t-19.5 62t-27 38.5t-26.5 21.5t-23 8.5h497q-16 -3 -33 -14t-36.5 -34.5t-32 -69t-12.5 -105.5v-289h186q123 0 217.5 -33t151.5 -90.5t85.5 -130t28.5 -156.5q0 -195 -134.5 -318.5t-358.5 -123.5h-564q15 3 31.5 14t35 35t30.5 71.5t12 112.5
zM1319 211v932q0 185 -107 221h502q-8 -2 -18 -6.5t-26 -20t-28.5 -38t-22 -63.5t-9.5 -93v-932q0 -61 12 -105.5t30 -65.5t32 -29.5t26 -10.5h-496q12 2 25.5 10t33.5 28.5t33 65t13 107.5zM449 184h131q113 0 176 68t63 172q0 108 -63 175t-187 67h-120v-482z" />
    <glyph glyph-name="afii10046" unicode="&#x42c;" horiz-adv-x="1202" 
d="M170 233v910q0 51 -8 90.5t-19.5 62t-27 38.5t-26.5 21.5t-23 8.5h497q-16 -3 -33 -14t-36.5 -34.5t-32 -69t-12.5 -105.5v-289h196q123 0 217.5 -33t151.5 -90.5t85.5 -130t28.5 -156.5q0 -195 -134.5 -318.5t-358.5 -123.5h-574q15 3 31.5 14t35 35t30.5 71.5t12 112.5
zM449 184h141q113 0 176 68t63 172q0 109 -62.5 175.5t-186.5 66.5h-131v-482z" />
    <glyph glyph-name="afii10047" unicode="&#x42d;" horiz-adv-x="1310" 
d="M82 78v350q56 -119 163.5 -181.5t248.5 -62.5q174 0 289.5 119t131.5 293h-397q-46 0 -79 -8t-49 -21t-23 -22t-9 -17v320q28 -66 164 -66h393q-24 178 -133 293t-268 115q-145 0 -251.5 -72.5t-153.5 -195.5v393q70 33 185 56.5t236 23.5q170 0 305 -55t219.5 -150.5
t128.5 -219t44 -265.5q0 -108 -29 -213t-88.5 -199.5t-142.5 -166.5t-199 -114.5t-250 -42.5q-137 0 -251.5 28.5t-184.5 80.5z" />
    <glyph glyph-name="afii10048" unicode="&#x42e;" horiz-adv-x="2127" 
d="M170 229v906q0 192 -107 229h494q-13 -3 -26 -12.5t-32 -32.5t-30.5 -70.5t-11.5 -113.5v-353h252q37 267 226 440t462 173q148 0 270.5 -54t204.5 -147.5t127 -220t45 -271.5q0 -149 -49 -282.5t-137 -233.5t-219.5 -158.5t-286.5 -58.5q-186 0 -330.5 83.5t-225 224.5
t-94.5 319h-245v-367q0 -66 11 -114.5t28.5 -71t31.5 -32t27 -11.5h-487q13 2 27 11t32.5 31.5t30.5 71t12 115.5zM1397 180q154 0 253 126.5t99 340.5q0 154 -45.5 275.5t-137 193.5t-216.5 72q-154 0 -252.5 -123t-98.5 -340q0 -248 107 -396.5t291 -148.5z" />
    <glyph glyph-name="afii10049" unicode="&#x42f;" horiz-adv-x="1275" 
d="M178 154l150 282q28 52 68.5 92.5t78.5 59.5q-148 29 -242 124t-94 238q0 84 31 157.5t90 131.5t155.5 91.5t217.5 33.5h596q-11 -3 -21 -7.5t-30 -21.5t-34 -40t-25 -67.5t-11 -101.5v-899q0 -68 12 -116t31 -70t32.5 -30.5t26.5 -10.5h-489q13 1 28 10t34 31t31.5 70.5
t12.5 115.5v310h-36q-109 0 -177 -140l-198 -397h-410q32 5 81.5 41.5t90.5 112.5zM682 721h145v457h-149q-116 0 -180 -64t-64 -160q0 -99 64 -166t184 -67z" />
    <glyph glyph-name="afii10065" unicode="&#x430;" horiz-adv-x="1038" 
d="M387 668l-258 -99q-25 63 -25 115q0 90 60.5 162.5t154.5 109.5t199 37q369 0 369 -309v-379q0 -92 43 -142t123 -50q3 0 11 2t11 2l-250 -164q-52 7 -100 46.5t-59 78.5q-38 -52 -118.5 -80.5t-168.5 -28.5q-129 0 -211 67.5t-82 180.5q0 121 144 216.5t399 150.5v78
q0 176 -135 176q-72 0 -110 -31.5t-38 -71.5q0 -49 41 -67zM629 291v149q-151 -30 -224 -80.5t-73 -113.5q0 -49 37 -81t94 -32q65 0 115.5 44t50.5 114z" />
    <glyph glyph-name="afii10066" unicode="&#x431;" horiz-adv-x="1103" 
d="M639 1372l106 10q185 18 244 80q-4 -65 -22.5 -120t-62.5 -103t-109 -65q-54 -14 -183 -23q-123 -7 -166 -41q-27 -22 -45 -54t-28 -77.5t-13.5 -72.5t-7.5 -77q143 109 283 109q76 0 144.5 -26.5t125.5 -78t91 -139t34 -198.5q0 -230 -131.5 -378.5t-347.5 -148.5
q-231 0 -353 152.5t-122 462.5q0 360 135 553q69 98 168.5 158.5t259.5 76.5zM348 659q-2 -18 -2 -110q0 -202 50.5 -299.5t154.5 -97.5q53 0 94 29.5t64 77t35 102t12 110.5q0 117 -56.5 197t-150.5 80q-106 0 -201 -89z" />
    <glyph glyph-name="afii10067" unicode="&#x432;" horiz-adv-x="1024" 
d="M141 184v590q0 52 -12 90.5t-30 57t-32 26.5t-26 10h532q171 0 256.5 -63.5t85.5 -163.5q0 -80 -54 -138t-142 -79q120 -19 184 -81.5t64 -162.5q0 -119 -106.5 -194.5t-303.5 -75.5h-510q10 1 23 9t30.5 26.5t29 57.5t11.5 91zM395 152h123q95 0 136.5 36.5t41.5 96.5
q0 66 -51.5 100.5t-144.5 34.5h-105v-268zM395 563h107q70 0 108.5 36.5t38.5 98.5q0 55 -40.5 83t-114.5 28h-99v-246z" />
    <glyph glyph-name="afii10068" unicode="&#x433;" horiz-adv-x="831" 
d="M141 201v561q0 44 -9 79.5t-20.5 55t-27.5 34.5t-24.5 19.5t-16.5 7.5h752v-290q-12 25 -23.5 42.5t-36.5 41.5t-66 36.5t-96 12.5h-172v-606q0 -52 11 -92.5t27.5 -60.5t29.5 -30t23 -12h-447q6 1 16 6t24.5 19.5t26.5 35.5t20.5 58t8.5 82z" />
    <glyph glyph-name="afii10069" unicode="&#x434;" horiz-adv-x="1153" 
d="M39 -293v457h57q30 0 44.5 12t27.5 43l309 774h180l320 -778q13 -29 25.5 -40t39.5 -11h62v-457h-19q-10 31 -24.5 64t-42 76t-61 75.5t-83 55t-104.5 22.5h-397q-55 0 -105 -22.5t-83 -55t-61 -75.5t-42.5 -76t-24.5 -64h-18zM356 164h353l-179 461z" />
    <glyph glyph-name="afii10070" unicode="&#x435;" horiz-adv-x="1005" 
d="M326 446l6 -24q23 -117 106 -186.5t197 -69.5q87 0 170 37t139 104q-32 -168 -140 -253t-278 -85q-207 0 -330.5 139.5t-123.5 352.5q0 143 54.5 263t160.5 194.5t243 74.5q188 0 293.5 -143.5t106.5 -403.5h-604zM326 594h356q0 102 -43.5 167.5t-116.5 65.5
q-77 0 -132.5 -68t-63.5 -165z" />
    <glyph glyph-name="afii10072" unicode="&#x436;" horiz-adv-x="1744" 
d="M225 201l240 325l-170 224q-124 162 -260 204h477q-51 -17 -51 -57q0 -49 65 -133l150 -199q17 -22 26 -32.5t21.5 -19.5t24.5 -9v211q0 69 -11 118.5t-28.5 73.5t-30.5 34t-25 13h439q-8 -2 -17 -6.5t-24 -20t-26 -39.5t-19.5 -68.5t-8.5 -102.5v-213q17 0 38.5 21.5
t54.5 64.5l129 174q65 84 65 133q0 25 -19 39.5t-34 17.5h479q-140 -43 -262 -204l-170 -224l240 -325q65 -88 131 -129t102 -41q-76 -54 -256 -54q-79 0 -145.5 44t-132.5 139q-29 41 -152 229q-15 22 -20 29.5t-15 20t-17.5 16.5t-15.5 4v-219q0 -68 10 -118t26 -74
t29 -34.5t25 -13.5h-434q9 2 19 7t24 21.5t25 40.5t19 68.5t8 100.5v221q-7 0 -14 -3.5t-14 -11.5t-12 -14.5t-14 -20.5t-14 -20q-18 -26 -59 -86.5t-57 -84t-41 -58t-44 -56.5q-61 -73 -117.5 -101t-146.5 -28q-80 0 -138.5 16.5t-84.5 39.5q37 0 102.5 41t130.5 129z" />
    <glyph glyph-name="afii10073" unicode="&#x437;" horiz-adv-x="897" 
d="M76 23v260q48 -68 125.5 -109t175.5 -41q186 0 186 143q0 62 -59 97t-160 35h-104v149h77q120 0 179 41.5t59 106.5q0 58 -46 91t-122 33q-93 0 -162 -46.5t-114 -112.5v278q130 45 301 45q184 0 286.5 -65t102.5 -193q0 -89 -64 -153.5t-141 -79.5q115 -23 174 -84
t59 -152q0 -137 -113 -217t-317 -80q-89 0 -178.5 15t-144.5 39z" />
    <glyph glyph-name="afii10074" unicode="&#x438;" horiz-adv-x="1150" 
d="M141 203v553q0 56 -11 97t-29 62t-31 30t-27 13h444q-13 -4 -26 -14t-28.5 -30.5t-25.5 -61t-10 -94.5v-359l353 389q0 131 -88 170h440q-9 -2 -19.5 -8t-24.5 -21t-24.5 -36t-18 -58t-7.5 -83v-545q0 -55 9.5 -96.5t25 -63.5t29 -33t26.5 -14h-432q10 3 22 13.5t27 31.5
t25 62t10 94v356l-353 -389q0 -80 28.5 -121t59.5 -47h-438q12 3 25.5 13.5t30 32t27.5 62.5t11 95z" />
    <glyph glyph-name="afii10075" unicode="&#x439;" horiz-adv-x="1150" 
d="M141 203v553q0 56 -11 97t-29 62t-31 30t-27 13h444q-13 -4 -26 -14t-28.5 -30.5t-25.5 -61t-10 -94.5v-359l353 389q0 131 -88 170h440q-9 -2 -19.5 -8t-24.5 -21t-24.5 -36t-18 -58t-7.5 -83v-545q0 -55 9.5 -96.5t25 -63.5t29 -33t26.5 -14h-432q10 3 22 13.5t27 31.5
t25 62t10 94v356l-353 -389q0 -80 28.5 -121t59.5 -47h-438q12 3 25.5 13.5t30 32t27.5 62.5t11 95zM233 1360l193 47q10 -86 51.5 -132t106.5 -46q59 0 97.5 47t47.5 131l189 -47q-21 -113 -111 -185.5t-234 -72.5q-143 0 -231.5 72.5t-108.5 185.5z" />
    </font>
</defs>
</svg>
