<?xml version="1.0" standalone="no"?>
<!DOCTYPE svg PUBLIC "-//W3C//DTD SVG 1.1//EN" "http://www.w3.org/Graphics/SVG/1.1/DTD/svg11.dtd" >
<svg xmlns="http://www.w3.org/2000/svg" xmlns:xlink="http://www.w3.org/1999/xlink" version="1.1">
<metadata>
Created by FontForge 20201107 at Sat Sep  7 07:40:00 2024
 By 
Copyright (c) 2008, 2013 by Nick Shinn. Published by Shinn Type Foundry. All rights reserved. Customized and extended for Riot Games by Monotype Imaging, Inc.
</metadata>
<defs>
<font id="BeaufortforLOL-LightItalic" horiz-adv-x="874" >
  <font-face 
    font-family="Beaufort for LOL Light"
    font-weight="300"
    font-style="italic"
    font-stretch="normal"
    units-per-em="2048"
    panose-1="2 2 3 3 5 0 0 9 0 4"
    ascent="1520"
    descent="-528"
    x-height="967"
    cap-height="1364"
    bbox="-324 -510 2148 2019"
    underline-thickness="102"
    underline-position="-255"
    slope="-12"
    unicode-range="U+000D-FEFF"
  />
<missing-glyph horiz-adv-x="1048" 
d="M0 0v1470h1049v-1470h-1049zM102 102h844v1264h-844v-1264zM461 479l-4 39q0 70 8 111q7 41 43.5 91t77.5 89q43 39 68.5 77t25.5 85q0 70 -47 122t-109 52q-69 0 -112.5 -49t-55.5 -146l-102 17q13 137 84 208.5t192 71.5q110 0 182 -74.5t72 -193.5q0 -79 -30 -131
t-101 -117t-84 -94q-14 -35 -14 -158h-94zM455 240v137h114v-137h-114z" />
    <glyph glyph-name="fi" unicode="fi" horiz-adv-x="1019" 
d="M109 0l192 905h-192l14 62h192l35 151q34 148 123.5 230t198.5 82q50 0 75 -22.5t25 -55.5q0 -36 -25.5 -69.5t-66.5 -45.5q14 22 14 55q0 34 -20 53t-51 19q-122 0 -174 -231l-37 -166h247l-16 -62h-246l-192 -905q-17 -78 -45 -145t-68 -123.5t-97.5 -88.5t-125.5 -32
q-40 0 -80 14.5t-61 40.5q43 -12 86 -12q120 0 189.5 88t105.5 258zM655 0l174 797q9 40 9 61q0 63 -64 78l-8 2l197 57l-166 -772q-17 -81 -17 -131q0 -75 25 -92h-150zM868 1278q0 33 19.5 54.5t56.5 21.5q35 0 55.5 -22t20.5 -54t-20.5 -54t-55.5 -22q-37 0 -56.5 21.5
t-19.5 54.5z" />
    <glyph glyph-name="fl" unicode="fl" horiz-adv-x="1019" 
d="M109 0l192 905h-192l14 62h192l35 151q34 148 123.5 230t198.5 82q50 0 75 -22.5t25 -55.5q0 -36 -25.5 -69.5t-66.5 -45.5q14 22 14 55q0 34 -20 53t-51 19q-122 0 -174 -231l-37 -166h247l-16 -62h-246l-192 -905q-17 -78 -45 -145t-68 -123.5t-97.5 -88.5t-125.5 -32
q-40 0 -80 14.5t-61 40.5q43 -12 86 -12q120 0 189.5 88t105.5 258zM653 0l269 1227q6 30 6 55q0 35 -16 57.5t-46 26.5l-12 2l201 57l-260 -1202q-19 -87 -19 -129q0 -76 27 -94h-150z" />
    <glyph glyph-name=".notdef" horiz-adv-x="1048" 
d="M0 0v1470h1049v-1470h-1049zM102 102h844v1264h-844v-1264zM461 479l-4 39q0 70 8 111q7 41 43.5 91t77.5 89q43 39 68.5 77t25.5 85q0 70 -47 122t-109 52q-69 0 -112.5 -49t-55.5 -146l-102 17q13 137 84 208.5t192 71.5q110 0 182 -74.5t72 -193.5q0 -79 -30 -131
t-101 -117t-84 -94q-14 -35 -14 -158h-94zM455 240v137h114v-137h-114z" />
    <glyph glyph-name=".null" horiz-adv-x="0" 
 />
    <glyph glyph-name="nonmarkingreturn" horiz-adv-x="682" 
 />
    <glyph glyph-name="CR" unicode="&#xd;" horiz-adv-x="436" 
 />
    <glyph glyph-name="space" unicode=" " horiz-adv-x="436" 
 />
    <glyph glyph-name="exclam" unicode="!" horiz-adv-x="587" 
d="M250 498l117 614q18 93 18 162q0 72 -27 90h226q-6 -3 -12.5 -8t-19.5 -22.5t-25.5 -43t-27.5 -72t-28 -106.5l-141 -614q-15 -62 -41 -121t-43 -86q-6 36 -6 86q0 67 10 121zM109 70q0 36 24.5 63t67.5 27t67.5 -27t24.5 -63t-24.5 -63t-67.5 -27t-67.5 27t-24.5 63z
" />
    <glyph glyph-name="quotedbl" unicode="&#x22;" horiz-adv-x="868" 
d="M674 852h-4q-11 39 -11 111q0 88 21 188l45 213h113l-45 -213q-18 -84 -48 -159t-51 -108zM340 852h-4q-10 39 -10 111q0 93 20 188l45 213h113l-45 -213q-18 -84 -48 -159t-51 -108z" />
    <glyph glyph-name="numbersign" unicode="#" horiz-adv-x="1153" 
d="M92 0l154 432h-185l13 60h194l150 415h-211l12 60h219l144 397h75l-145 -397h395l146 397h80l-146 -397h197l-13 -60h-204l-150 -415h234l-13 -60h-245l-158 -432h-70l152 432h-393l-162 -432h-70zM348 492h393l146 415h-393z" />
    <glyph glyph-name="dollar" unicode="$" horiz-adv-x="1052" 
d="M344 -135l35 170q-78 6 -152.5 27t-117.5 53l51 225q12 -125 69.5 -183t161.5 -67l123 576q-42 31 -67.5 51.5t-58.5 53.5t-51 62t-31 68t-13 82q0 152 99 249t263 101l33 156h66l-33 -158q60 -6 122.5 -26t100.5 -48l-43 -194q-17 182 -192 209l-117 -545
q37 -27 50 -37.5t46 -37.5t47.5 -43t38 -44.5t33.5 -52.5t18.5 -56t8.5 -65q0 -163 -97 -257.5t-293 -100.5l-34 -168h-66zM537 770l106 508q-123 -1 -195.5 -72t-72.5 -188q0 -40 12.5 -75t38.5 -67t49.5 -54t61.5 -52zM569 623l-112 -535q142 3 217.5 74.5t75.5 189.5
q0 44 -14.5 83t-43.5 73.5t-55.5 58.5t-67.5 56z" />
    <glyph glyph-name="percent" unicode="%" horiz-adv-x="1308" 
d="M463 819q-116 0 -176 68.5t-60 171.5q0 81 35 157t106 127.5t162 51.5q115 0 175.5 -69.5t60.5 -172.5q0 -81 -35 -156.5t-106 -126.5t-162 -51zM20 0l1299 1364h86l-1294 -1364h-91zM469 872q97 0 159 87.5t62 193.5q0 81 -42.5 135.5t-125.5 54.5q-63 0 -114 -43.5
t-77 -107.5t-26 -131q0 -81 41.5 -135t122.5 -54zM889 -31q-116 0 -176 68.5t-60 171.5q0 81 35 157t106 127.5t162 51.5q115 0 175.5 -69.5t60.5 -172.5q0 -81 -35 -156.5t-106 -126.5t-162 -51zM895 23q97 0 159 87t62 193q0 81 -42.5 136t-125.5 55q-94 0 -155.5 -88.5
t-61.5 -194.5q0 -81 41 -134.5t123 -53.5z" />
    <glyph glyph-name="ampersand" unicode="&#x26;" horiz-adv-x="1443" 
d="M1223 934h250q-41 -19 -80.5 -74t-96.5 -160q-61 -115 -153.5 -242.5t-194.5 -230.5q174 -174 279 -174q54 0 139 68q-40 -69 -91.5 -105t-103.5 -36q-123 0 -301 178q-222 -183 -452 -183q-140 0 -234 75t-94 208q0 67 22 127t54 103t84.5 86t97.5 70.5t109 62.5
q-97 172 -97 305q0 120 54 209.5t136 132.5t177 43q105 0 181.5 -71t76.5 -189q0 -60 -28.5 -117.5t-60.5 -95.5t-99.5 -85.5t-99 -66t-106.5 -58.5q-11 -6 -16 -9q145 -238 332 -437q65 66 142 165.5t145 224.5t68 202q0 52 -39 74zM549 750q50 28 70.5 40t63 37.5t61.5 41
t50.5 41t46 46.5t31 48t23 56.5t6.5 61.5q0 99 -57.5 157t-138.5 58q-104 0 -186.5 -77t-82.5 -201q0 -113 113 -309zM829 199q-191 203 -346 460q-55 -31 -87.5 -51.5t-77.5 -56t-69.5 -68.5t-42.5 -80.5t-18 -101.5q0 -111 72.5 -182.5t198.5 -71.5q185 0 370 152z" />
    <glyph glyph-name="quotesingle" unicode="'" horiz-adv-x="466" 
d="M309 852h-4q-10 39 -10 111q0 93 20 188l45 213h113l-45 -213q-18 -84 -48 -159t-50 -108z" />
    <glyph glyph-name="parenleft" unicode="(" horiz-adv-x="686" 
d="M426 -416q-86 36 -152 110t-103.5 167t-56 189t-18.5 192q0 173 52 359t143.5 351.5t230 295t297.5 182.5q-146 -96 -265 -239.5t-196 -307t-118 -339.5t-41 -347q0 -178 56 -346t171 -267z" />
    <glyph glyph-name="parenright" unicode=")" horiz-adv-x="686" 
d="M-137 -416q146 96 265 239.5t196 307t118 339.5t41 347q0 178 -56 346t-171 267q86 -36 152 -110t103.5 -167t56 -189t18.5 -192q0 -173 -52 -359t-143.5 -351.5t-230 -295t-297.5 -182.5z" />
    <glyph glyph-name="asterisk" unicode="*" horiz-adv-x="770" 
d="M299 858l-90 121q90 13 264 121q-182 114 -264 129l84 121q16 -35 58.5 -82.5t68.5 -71t76 -66.5q39 169 39 250q0 16 -5 41l144 -47q-67 -69 -142 -254q9 1 42 2.5t46 2.5t42 3.5t45 5.5t38.5 7.5t40.5 11t33 14.5l2 -147q-86 44 -291 61q3 -6 15 -35t17.5 -42t18 -40
t21.5 -43.5t21.5 -37.5t25 -36.5t25.5 -27.5l-139 -45q2 10 2 41q0 101 -41 256q-158 -133 -197 -213z" />
    <glyph glyph-name="plus" unicode="+" horiz-adv-x="1325" 
d="M510 0l115 537h-516l16 73h516l113 533h75l-112 -533h514l-17 -73h-514l-114 -537h-76z" />
    <glyph glyph-name="comma" unicode="," horiz-adv-x="473" 
d="M-111 -369q101 42 187 139.5t86 194.5q0 13 -4 29q-6 -2 -21 -2q-38 0 -59 24.5t-21 57.5q0 35 22.5 60.5t61.5 25.5q44 0 75.5 -38t31.5 -112q0 -72 -33.5 -145.5t-104 -136t-163.5 -86.5q-43 -9 -58 -11z" />
    <glyph glyph-name="hyphen" unicode="-" horiz-adv-x="763" 
d="M113 465l20 92h498l-21 -92h-497z" />
    <glyph glyph-name="period" unicode="." horiz-adv-x="473" 
d="M47 70q0 36 24.5 63t67.5 27t67.5 -27t24.5 -63t-24.5 -63t-67.5 -27t-67.5 27t-24.5 63z" />
    <glyph glyph-name="slash" unicode="/" horiz-adv-x="845" 
d="M-20 -27l882 1403h80l-879 -1403h-83z" />
    <glyph glyph-name="zero" unicode="0" horiz-adv-x="1060" 
d="M403 -33q-72 0 -128.5 30.5t-91 77.5t-57.5 110.5t-31.5 123t-8.5 121.5q0 104 20 215.5t56 219t91.5 204t122 169.5t151 116t175.5 43q72 0 129.5 -30t92.5 -76.5t57.5 -109t31.5 -123t9 -122.5q0 -68 -12 -151t-37.5 -176t-61.5 -184t-88 -174t-113 -146t-140.5 -100.5
t-166.5 -37.5zM422 25q93 0 177.5 74.5t143 186.5t102 243.5t64.5 246.5t21 193q0 51 -6.5 99t-23.5 99t-44 88.5t-71 61.5t-101 24q-101 0 -198 -93.5t-163 -234.5t-106.5 -306t-40.5 -310q0 -50 7 -98.5t24.5 -99.5t44.5 -88.5t71 -61.5t99 -24z" />
    <glyph glyph-name="one" unicode="1" horiz-adv-x="1060" 
d="M395 0l260 1194q-168 -140 -233 -205l-49 55q130 98 366 320h43l-252 -1171q-12 -59 -12 -109q0 -69 45 -84h-168z" />
    <glyph glyph-name="two" unicode="2" horiz-adv-x="1060" 
d="M-27 0l351 311q321 285 446 458.5t125 315.5q0 107 -74.5 179.5t-210.5 72.5q-117 0 -202.5 -60t-85.5 -161q0 -80 73 -106l-108 -74q-51 57 -51 135q0 100 60 176t151.5 113t195.5 37q164 0 259 -84t95 -213q0 -157 -142.5 -343.5t-483.5 -488.5l-213 -188h458
q57 0 104 9t74.5 21t48.5 27.5t28.5 24.5t11.5 16l-54 -178h-856z" />
    <glyph glyph-name="three" unicode="3" horiz-adv-x="1060" 
d="M23 170l110 80q10 -95 74.5 -159t173.5 -64q160 0 274.5 109t114.5 270q0 62 -26.5 115.5t-67.5 84.5q-61 49 -126.5 70t-164.5 26l537 576h-394q-181 0 -262 -111l80 197h750l-561 -592q167 -32 252 -132t85 -224q0 -189 -143 -318t-354 -129q-280 0 -352 201z" />
    <glyph glyph-name="four" unicode="4" horiz-adv-x="1060" 
d="M-43 336l1016 1094l-219 -1016h139l-19 -78h-135l-26 -129q-13 -70 -13 -103q0 -51 13 -75.5t28 -28.5h-168l72 336h-688zM115 414h549l163 764z" />
    <glyph glyph-name="five" unicode="5" horiz-adv-x="1060" 
d="M20 170l111 80q9 -98 77.5 -160.5t164.5 -62.5q92 0 168.5 32.5t126 87.5t77 126.5t27.5 150.5q0 63 -23 118t-70.5 101t-129.5 73t-191 27h-108l180 621h426q117 0 197 37l-52 -123h-528l-129 -444h29q127 0 224.5 -31t157 -86.5t89.5 -127.5t30 -157
q0 -86 -32.5 -167.5t-93.5 -148t-160.5 -107t-222.5 -40.5q-72 0 -131 16t-94.5 38.5t-62.5 52.5t-38.5 51.5t-18.5 42.5z" />
    <glyph glyph-name="six" unicode="6" horiz-adv-x="1060" 
d="M225 680l6 -2q61 89 156.5 141.5t206.5 52.5q62 0 120 -21t108 -62.5t80 -111.5t30 -159q0 -107 -39.5 -207t-105.5 -175t-159 -120t-194 -45q-161 0 -254.5 102t-93.5 287q0 117 44.5 248.5t126 256.5t187 234t238 189t268.5 113l160 -51q-156 -13 -326.5 -102
t-320.5 -239t-238 -329zM449 27q72 0 141 32.5t124.5 90.5t89.5 145.5t34 189.5q0 80 -25.5 142t-67.5 98.5t-92 55t-104 18.5q-157 0 -265 -128t-108 -327q0 -147 74 -232t199 -85z" />
    <glyph glyph-name="seven" unicode="7" horiz-adv-x="1060" 
d="M283 0h-174q137 194 283.5 395.5t358 489t289.5 393.5h-501q-58 0 -107 -10t-76 -22.5t-50 -30.5t-28.5 -25t-11.5 -16l68 190h846l-621 -862q-205 -284 -276 -502z" />
    <glyph glyph-name="eight" unicode="8" horiz-adv-x="1060" 
d="M434 713q-85 27 -134.5 100.5t-49.5 159.5q0 74 31.5 148t87.5 135.5t145.5 100t194.5 38.5q156 0 239.5 -85.5t83.5 -211.5q0 -83 -35 -160t-110 -140t-178 -87q110 -39 163.5 -118t53.5 -179q0 -64 -21.5 -128t-65 -121.5t-103 -101.5t-142 -70t-176.5 -26
q-180 0 -276.5 92t-96.5 226q0 151 105.5 272.5t283.5 155.5zM348 1001q0 -107 66.5 -180t189.5 -73q103 0 182.5 52.5t117.5 129t38 160.5q0 105 -66.5 176t-191.5 71q-102 0 -180.5 -51.5t-117 -127t-38.5 -157.5zM143 305q0 -118 79.5 -199t226.5 -81q163 0 269.5 101.5
t106.5 258.5q0 119 -78 201t-225 82q-89 0 -162.5 -32t-120 -84.5t-71.5 -116.5t-25 -130z" />
    <glyph glyph-name="nine" unicode="9" horiz-adv-x="1060" 
d="M172 -33l-162 51q156 13 326.5 102t320.5 239t238 329l-4 4q-68 -95 -166.5 -145.5t-200.5 -50.5q-62 0 -121 22.5t-108 65t-79 112.5t-30 156q0 76 22.5 154t67 148.5t104.5 125t140 87t168 32.5q160 0 253 -102t93 -287q0 -117 -44 -248.5t-125.5 -257t-186.5 -234.5
t-237.5 -189.5t-268.5 -113.5zM567 569q157 0 267 128t110 327q0 144 -71 230.5t-203 86.5q-73 0 -142.5 -33.5t-124.5 -92t-88.5 -146.5t-33.5 -190q0 -80 25 -141.5t66.5 -97t91 -53.5t103.5 -18z" />
    <glyph glyph-name="colon" unicode=":" horiz-adv-x="466" 
d="M205 782q0 36 24.5 63t67.5 27t67.5 -27t24.5 -63q0 -37 -24.5 -64.5t-67.5 -27.5t-67.5 27.5t-24.5 64.5zM41 70q0 36 24.5 63t67.5 27t67.5 -27t24.5 -63t-24.5 -63t-67.5 -27t-67.5 27t-24.5 63z" />
    <glyph glyph-name="semicolon" unicode=";" horiz-adv-x="466" 
d="M205 782q0 36 24.5 63t67.5 27t67.5 -27t24.5 -63q0 -37 -24.5 -64.5t-67.5 -27.5t-67.5 27.5t-24.5 64.5zM-111 -369q101 42 187 139.5t86 194.5q0 13 -4 29q-6 -2 -21 -2q-38 0 -59 24.5t-21 57.5q0 35 22.5 60.5t61.5 25.5q44 0 75.5 -38t31.5 -112
q0 -72 -33.5 -145.5t-104 -136t-163.5 -86.5q-43 -9 -58 -11z" />
    <glyph glyph-name="less" unicode="&#x3c;" horiz-adv-x="1325" 
d="M172 532l16 78l1086 531l-19 -92l-987 -478l-2 -10l787 -475l-19 -80z" />
    <glyph glyph-name="equal" unicode="=" horiz-adv-x="1325" 
d="M152 754l16 71h1106l-17 -71h-1105zM63 342l17 74h1106l-17 -74h-1106z" />
    <glyph glyph-name="greater" unicode="&#x3e;" horiz-adv-x="1325" 
d="M61 6l19 90l989 475l2 11l-788 477l18 82l860 -531l-16 -78z" />
    <glyph glyph-name="question" unicode="?" horiz-adv-x="1054" 
d="M442 344h-8q-12 0 -18 2q-34 6 -53 37t-19 70q0 60 30.5 116.5t80 102t109 90t118.5 88.5t108.5 89t80 101t30.5 115q0 89 -70 136.5t-176 47.5q-113 0 -220 -53t-163 -151l37 184q65 35 161 56.5t194 21.5q170 0 260 -66t90 -162q0 -67 -33 -130.5t-86.5 -115
t-117.5 -100.5t-128 -96t-117.5 -93t-86.5 -100.5t-33 -109.5q0 -50 30 -80zM221 70q0 36 25.5 63t68.5 27t68 -27t25 -63t-25 -63t-68 -27t-68.5 27t-25.5 63z" />
    <glyph glyph-name="at" unicode="@" horiz-adv-x="1873" 
d="M1599 -43l62 -20q-130 -159 -337.5 -247.5t-426.5 -88.5q-116 0 -221.5 25.5t-199 80t-162.5 133.5t-108.5 193.5t-39.5 253.5q0 158 41 300t111.5 251t164.5 197.5t201.5 145t221 87t224.5 30.5q123 0 223.5 -33.5t168 -90t113.5 -135t66.5 -165t20.5 -182.5
q0 -131 -38.5 -260.5t-105 -232t-164.5 -166.5t-208 -64q-71 0 -102 30.5t-31 102.5q0 38 14 134q-62 -118 -170 -192.5t-210 -74.5t-156.5 67.5t-54.5 188.5q0 132 51.5 268.5t133 242t190 172.5t216.5 67q26 0 76 -8q12 -2 29 -5.5t28 -5.5t21 -2q46 0 107 41l-166 -743
q-23 -108 -23 -141q0 -80 64 -80q118 0 218.5 97.5t155 247.5t54.5 310q0 112 -30 209t-91 177t-166.5 126.5t-243.5 46.5q-121 0 -245.5 -40t-238.5 -121t-203 -192.5t-142 -266t-53 -328.5q0 -128 36.5 -234.5t99.5 -180.5t149 -125t183.5 -75t204.5 -24q195 0 380 78
t308 221zM745 41q84 0 181.5 80.5t156.5 202.5q38 78 80.5 241.5t42.5 233.5q0 59 -29.5 89t-99.5 30q-83 0 -161 -46t-135 -118.5t-101 -160.5t-66 -174.5t-22 -156.5q0 -39 7.5 -75.5t23.5 -70.5t47.5 -54.5t74.5 -20.5z" />
    <glyph glyph-name="A" unicode="A" horiz-adv-x="1327" 
d="M221 0h-221q9 3 25 16.5t55.5 64t89.5 128.5l762 1210l137 -1208q8 -78 27 -129t33.5 -66t25.5 -16h-237q10 3 20 12t21.5 39t13.5 76q0 51 -4 84l-31 262h-524l-156 -248q-68 -110 -68 -172q0 -25 10 -38t21 -15zM451 535h481l-74 651z" />
    <glyph glyph-name="B" unicode="B" horiz-adv-x="1120" 
d="M139 166l215 1032q6 24 6 62q0 96 -59 104h432q139 0 227.5 -70t88.5 -198q0 -90 -41 -173.5t-119.5 -142.5t-177.5 -71q138 -28 202 -111t64 -195q0 -75 -28 -145t-81.5 -128.5t-144 -94t-203.5 -35.5h-487q9 2 19.5 9t27 23.5t32.5 51t27 82.5zM217 59h279q96 0 170 29
t116 78.5t63 107t21 121.5q0 56 -17 105.5t-51 90t-91.5 64t-133.5 23.5h-227zM360 737h236q63 0 123 22.5t110 64.5t80.5 110t30.5 151q0 99 -56.5 160.5t-181.5 61.5h-225z" />
    <glyph glyph-name="C" unicode="C" horiz-adv-x="1118" 
d="M987 231l-22 -108q-72 -74 -180.5 -115t-223.5 -41q-184 0 -305 135.5t-121 376.5q0 114 30.5 238t94.5 245t151.5 217.5t213 156t268.5 59.5q88 0 164 -23t119 -59l-48 -215q-20 239 -254 239q-90 0 -182 -44t-170.5 -125t-140.5 -185.5t-97.5 -235t-35.5 -264.5
q0 -205 99 -323.5t255 -118.5q212 0 385 190z" />
    <glyph glyph-name="D" unicode="D" horiz-adv-x="1282" 
d="M145 184l213 1012q9 52 9 66q0 85 -54 102h420q126 0 225 -44.5t159.5 -121.5t92 -174.5t31.5 -208.5q0 -115 -30.5 -230t-92.5 -220.5t-148 -186.5t-206.5 -129.5t-257.5 -48.5h-473q10 2 22 9.5t29 25.5t33 56.5t28 92.5zM219 59h287q115 0 216.5 44t175.5 119
t127.5 173t80.5 207t27 219q0 99 -24 184.5t-71.5 153.5t-126.5 107t-182 39h-248z" />
    <glyph glyph-name="E" unicode="E" horiz-adv-x="1064" 
d="M244 61h407q110 0 165.5 33.5t103.5 126.5l-46 -221h-843q13 2 27 9t35.5 24t40.5 52.5t30 84.5l221 1032q8 40 8 60q0 44 -18 69.5t-43 32.5h792l-41 -188q0 27 -4.5 47t-11 34t-19.5 23t-24 14t-32 7.5t-36.5 3t-44.5 0.5h-407l-119 -574h348q124 0 158 60l-35 -185
q-1 23 -13 38t-36 20t-40.5 6.5t-45.5 1.5h-348z" />
    <glyph glyph-name="F" unicode="F" horiz-adv-x="1069" 
d="M317 0h-288q13 2 27 9t35.5 24t40.5 52.5t30 84.5l223 1032q6 30 6 62q0 43 -17.5 68t-41.5 32h788l-39 -190q-4 46 -15 73t-35 39.5t-48 15.5t-72 3h-407l-117 -574h389q49 0 85.5 12.5t48.5 23t18 21.5l-37 -184q0 23 -12 38t-35 21t-39.5 7.5t-40.5 1.5h-391
l-107 -506q-8 -40 -8 -62q0 -46 17.5 -73.5t41.5 -30.5z" />
    <glyph glyph-name="G" unicode="G" horiz-adv-x="1247" 
d="M897 96l78 367q6 27 6 55q0 79 -63 100h268q-86 -26 -109 -143l-86 -401q-89 -50 -198 -78.5t-207 -28.5q-197 0 -323 134.5t-126 379.5q0 121 34 248t103.5 246t163.5 213t225 150.5t277 56.5q90 0 180 -25t133 -61l-47 -213q-6 122 -84 181.5t-202 59.5
q-93 0 -188.5 -38t-182.5 -113t-155.5 -177t-109 -241t-40.5 -293q0 -217 99 -333.5t271 -116.5q60 0 144.5 20t138.5 51z" />
    <glyph glyph-name="H" unicode="H" horiz-adv-x="1353" 
d="M141 147l215 1006q17 90 17 111q0 42 -15 67.5t-36 32.5h264q-11 -3 -24 -10.5t-32 -23.5t-35.5 -47.5t-25.5 -72.5l-102 -479h733l100 471q8 46 8 64q0 41 -15 66t-36 32h264q-11 -3 -23.5 -10.5t-31.5 -23.5t-35.5 -47.5t-25.5 -72.5l-226 -1054q-8 -40 -8 -56
q0 -43 17.5 -70t39.5 -30h-266q10 2 22 9t30 21.5t34.5 45t26.5 71.5l112 523h-733l-110 -514q-6 -27 -6 -56q0 -43 16.5 -70t38.5 -30h-264q10 2 22 9t29.5 21.5t34 45t26.5 71.5z" />
    <glyph glyph-name="I" unicode="I" horiz-adv-x="522" 
d="M289 0h-258q10 2 22 9t29.5 21.5t34 45t26.5 71.5l215 1008q19 93 19 125q0 29 -10.5 48.5t-21 26t-21.5 9.5h266q-11 -3 -24 -10.5t-32 -23.5t-35.5 -47.5t-25.5 -72.5l-225 -1054q-8 -40 -8 -62q0 -43 13.5 -67t35.5 -27z" />
    <glyph glyph-name="J" unicode="J" horiz-adv-x="540" 
d="M201 252l200 942q9 44 9 72q0 78 -60 98h273q-7 -1 -15 -4t-23.5 -14t-29 -28t-28 -49.5t-23.5 -74.5l-203 -952q-44 -209 -123.5 -296t-185.5 -87q-54 0 -92.5 17t-53.5 46q32 -16 88 -16q96 0 163.5 90t103.5 256z" />
    <glyph glyph-name="K" unicode="K" horiz-adv-x="1177" 
d="M141 147l226 1055q6 30 6 60q0 43 -17.5 69t-40.5 33h267q-11 -3 -23 -10t-30.5 -23t-34.5 -47.5t-25 -73.5l-96 -454l534 446q101 84 101 131q0 21 -29 31h297q-114 -34 -252 -147l-549 -451l373 -573q25 -39 48.5 -69.5t39 -48t33 -33t24.5 -20.5t21.5 -13t15.5 -9
h-186l-473 748l-127 -592q-6 -27 -6 -56q0 -43 16.5 -70t38.5 -30h-264q10 2 22 9t29.5 21.5t34 45t26.5 71.5z" />
    <glyph glyph-name="L" unicode="L" horiz-adv-x="974" 
d="M215 63h365q110 0 175.5 43t108.5 156l-57 -262h-778q9 2 20.5 9t28 21.5t32 45t25.5 71.5l225 1055q5 25 5 58q0 45 -17 71t-41 33h268q-11 -3 -23 -10.5t-30.5 -23.5t-34 -47.5t-24.5 -72.5z" />
    <glyph glyph-name="M" unicode="M" horiz-adv-x="1593" 
d="M287 0h-258q15 3 33 13t44 45.5t39 88.5l226 1055q6 30 6 60q0 43 -17.5 69t-40.5 33h193l238 -1163l720 1163h195q-11 -3 -23.5 -10.5t-30.5 -23.5t-34 -47.5t-25 -72.5l-225 -1054q-6 -27 -6 -56q0 -43 16.5 -70t38.5 -30h-266q10 2 22 9t30 21.5t34.5 45t26.5 71.5
l231 1065l-760 -1235l-250 1227l-225 -1048q-6 -24 -6 -47q0 -47 23 -76.5t51 -32.5z" />
    <glyph glyph-name="N" unicode="N" horiz-adv-x="1343" 
d="M283 0h-252q17 3 35.5 13t43 43t35.5 83l220 1012q6 24 6 55q0 46 -24.5 96t-72.5 62h158l594 -1153l213 997q6 24 6 49q0 46 -19.5 73t-45.5 34h235q-10 -3 -21 -10t-27.5 -22t-31 -45t-22.5 -70l-273 -1262l-608 1180l-211 -990q-4 -16 -4 -45q0 -43 20 -70t46 -30z
" />
    <glyph glyph-name="O" unicode="O" horiz-adv-x="1341" 
d="M545 -33q-193 0 -304.5 132t-111.5 358q0 172 58.5 341t158 302t243.5 215t304 82q194 0 304 -135.5t110 -358.5q0 -106 -24.5 -216t-69 -214t-112.5 -196t-150.5 -161t-187.5 -109t-218 -40zM565 29q133 0 252.5 77.5t201.5 201.5t130 281t49 316q0 196 -87.5 316
t-244.5 120q-132 0 -251.5 -78.5t-201 -204.5t-129.5 -284t-48 -317q0 -198 87.5 -313t241.5 -115z" />
    <glyph glyph-name="P" unicode="P" horiz-adv-x="1067" 
d="M141 147l228 1055q6 27 6 58q0 45 -18 71t-42 33h394q179 0 270.5 -89.5t91.5 -232.5q0 -86 -33 -163.5t-95.5 -138.5t-161.5 -97.5t-222 -36.5q-34 0 -111 11t-102 18l-104 -479q-6 -27 -6 -56q0 -43 16.5 -70t38.5 -30h-262q10 2 22 9t29.5 21.5t34 45t26.5 71.5z
M492 1309l-136 -619q32 -7 102.5 -14.5t110.5 -7.5q98 0 176 30t126.5 82.5t74 119t25.5 142.5q0 114 -73.5 190.5t-213.5 76.5h-192z" />
    <glyph glyph-name="Q" unicode="Q" horiz-adv-x="1341" 
d="M692 -14q-74 -19 -147 -19q-193 0 -304.5 132t-111.5 358q0 172 58.5 341t158 302t243.5 215t304 82q194 0 304 -135.5t110 -358.5q0 -169 -57.5 -339.5t-171 -315t-261.5 -217.5q153 -131 451 -131q-93 -41 -213 -41q-99 0 -197.5 36.5t-165.5 90.5zM565 29
q133 0 252.5 77.5t201.5 201.5t130 281t49 316q0 196 -87.5 316t-244.5 120q-132 0 -251.5 -78.5t-201 -204.5t-129.5 -284t-48 -317q0 -198 87.5 -313t241.5 -115z" />
    <glyph glyph-name="R" unicode="R" horiz-adv-x="1103" 
d="M139 147l226 1055q8 40 8 58q0 45 -18.5 71t-43.5 33h434q159 0 246.5 -88t87.5 -219q0 -96 -37 -176t-98.5 -131t-139 -79t-161.5 -28q30 -20 66 -98l186 -408q21 -49 51 -82t48.5 -42.5t33.5 -12.5h-182l-240 541q-26 57 -59.5 78.5t-93.5 21.5h-109l-102 -485
q-9 -41 -9 -54q0 -43 17 -71t39 -31h-262q10 2 22 9t29.5 21.5t34 45t26.5 71.5zM358 702h260q173 0 265 99t92 246q0 122 -64.5 190t-179.5 68h-244z" />
    <glyph glyph-name="S" unicode="S" horiz-adv-x="978" 
d="M49 72l53 237q12 -149 93 -214.5t223 -65.5q160 0 247 78.5t87 211.5q0 62 -27.5 117.5t-72 98t-98 83t-107 81.5t-98 85.5t-72 103.5t-27.5 126q0 170 112.5 276.5t299.5 106.5q69 0 159.5 -23t141.5 -59l-45 -205q-6 117 -83 172t-200 55q-135 0 -216 -78.5t-81 -207.5
q0 -60 28 -113t72 -95t98 -82t108 -82t98 -86.5t72 -104t28 -126.5q0 -183 -110 -288t-326 -105q-85 0 -168.5 22.5t-124.5 43t-64 37.5z" />
    <glyph glyph-name="T" unicode="T" horiz-adv-x="1101" 
d="M426 147l248 1164h-254q-83 0 -127.5 -32t-95.5 -128l49 213h987l-51 -219q-9 100 -39 133t-117 33h-252l-248 -1155q-6 -27 -6 -56q0 -43 16.5 -70t38.5 -30h-262q10 2 22.5 9t30.5 21.5t34.5 45t25.5 71.5z" />
    <glyph glyph-name="U" unicode="U" horiz-adv-x="1271" 
d="M203 524l157 711q5 17 5 39q0 37 -18.5 60t-41.5 30h266q-90 -27 -110 -129l-156 -715q-24 -117 -24 -205q0 -282 270 -282q173 0 287 105.5t155 303.5l162 781q6 24 6 49q0 37 -14.5 61t-34.5 31h238q-11 -3 -23 -10t-30 -21t-32.5 -41t-21.5 -63l-164 -772
q-54 -258 -192.5 -373t-370.5 -115q-178 0 -258 94t-80 254q0 95 25 207z" />
    <glyph glyph-name="V" unicode="V" horiz-adv-x="1241" 
d="M457 -61l-135 1218q-20 171 -84 207h235q-47 -19 -53 -109q-3 -45 2 -102l110 -981l601 967q67 109 67 170q0 37 -37 55h226q-37 -24 -78 -76q-42 -53 -92 -133z" />
    <glyph glyph-name="W" unicode="W" horiz-adv-x="1886" 
d="M459 -72l-135 1229q-20 170 -84 207h233q-26 -15 -38 -43q-15 -36 -15 -96q0 -53 10 -140l102 -895l492 842l-14 125q-20 170 -84 207h235q-53 -32 -53 -156q0 -38 6 -90l105 -928l561 949q65 112 65 174q0 38 -33 51h222q-12 -4 -29 -18.5t-55.5 -64.5t-83.5 -126
l-721 -1227l-109 1000z" />
    <glyph glyph-name="X" unicode="X" horiz-adv-x="1169" 
d="M162 0h-213q11 3 29.5 15t62.5 53t98 104l449 512l-215 533q-48 117 -109 147h244q-43 -22 -43 -72q0 -26 18 -75l181 -445l389 445q63 71 63 112q0 22 -26 35h227q-74 -30 -178 -147l-449 -510l215 -535q24 -62 49.5 -103.5t39.5 -53.5t24 -15h-234q12 2 24.5 20.5
t12.5 53.5q0 34 -24 98l-183 446l-393 -446q-80 -91 -80 -137q0 -28 21 -35z" />
    <glyph glyph-name="Y" unicode="Y" horiz-adv-x="1144" 
d="M444 147l95 449l-199 616q-40 114 -107 152h234q-39 -20 -39 -74q0 -23 16 -76l179 -536l428 530q69 86 69 123q0 22 -22 33h211q-78 -33 -179 -158l-493 -610l-92 -440q-8 -36 -8 -56q0 -43 17.5 -70t39.5 -30h-262q10 2 22.5 9t30 21.5t34 45t25.5 71.5z" />
    <glyph glyph-name="Z" unicode="Z" horiz-adv-x="1095" 
d="M160 59h545q109 0 161 34.5t103 123.5l-49 -217h-924q53 76 304 402t476 614l225 289h-534q-40 0 -75 -11t-56.5 -26.5t-38 -34t-24 -31t-9.5 -20.5l39 182h860z" />
    <glyph glyph-name="bracketleft" unicode="[" horiz-adv-x="686" 
d="M49 -307l361 1691h407l-12 -55h-326l-336 -1577h326l-12 -59h-408z" />
    <glyph glyph-name="backslash" unicode="\" horiz-adv-x="845" 
d="M545 -27l-326 1403h78l328 -1403h-80z" />
    <glyph glyph-name="bracketright" unicode="]" horiz-adv-x="686" 
d="M-117 -307l13 59h325l336 1577h-326l13 55h407l-360 -1691h-408z" />
    <glyph glyph-name="asciicircum" unicode="^" horiz-adv-x="1325" 
d="M80 512l665 1073h74l211 -1073h-84l-178 975h-14l-590 -975h-84z" />
    <glyph glyph-name="underscore" unicode="_" horiz-adv-x="1576" 
d="M-174 -254l14 61h1516l-15 -61h-1515z" />
    <glyph glyph-name="grave" unicode="`" 
d="M903 1067l-205 297h152z" />
    <glyph glyph-name="a" unicode="a" horiz-adv-x="974" 
d="M602 -31l55 267q-62 -118 -170.5 -192.5t-210.5 -74.5t-156 67.5t-54 188.5q0 132 51.5 268.5t133 242t190 172.5t216.5 67q26 0 76 -8q12 -2 29 -5.5t28 -5.5t21 -2q46 0 107 41l-166 -743q-23 -108 -23 -141q0 -35 14.5 -54t47.5 -28l14 -4zM315 41q84 0 181.5 80.5
t156.5 202.5q38 78 80.5 241.5t42.5 233.5q0 59 -29.5 89t-99.5 30q-83 0 -161 -46t-135 -118.5t-101 -160.5t-66 -174.5t-22 -156.5q0 -39 7.5 -75.5t23.5 -70.5t47.5 -54.5t74.5 -20.5z" />
    <glyph glyph-name="b" unicode="b" horiz-adv-x="1009" 
d="M61 -29l273 1256q4 16 4 49q0 79 -62 90l-12 2l207 57l-158 -710q79 130 185 204t227 74q108 0 162.5 -79t54.5 -209q0 -95 -26.5 -197.5t-78.5 -198t-122 -172t-165 -122.5t-198 -46q-73 0 -125 19q-12 4 -28 9.5t-23 8t-16 4.5t-15 2q-40 0 -84 -41zM199 145
q0 -118 172 -118q104 0 195.5 63.5t150 161.5t92 211t33.5 217q0 115 -41.5 180.5t-118.5 65.5q-115 0 -229 -114t-170 -263q-31 -82 -57.5 -203.5t-26.5 -200.5z" />
    <glyph glyph-name="c" unicode="c" horiz-adv-x="825" 
d="M735 240q-27 -117 -142.5 -196t-242.5 -79q-144 0 -215.5 90t-71.5 256q0 118 49 241t127.5 220t186.5 159t217 62q90 0 136 -29t46 -81q0 -86 -86 -176q4 32 4 55q0 75 -29.5 119.5t-107.5 44.5q-74 0 -144 -36t-123 -97t-93 -137t-61 -160t-21 -162q0 -138 56 -214.5
t175 -76.5q89 0 183.5 54.5t156.5 142.5z" />
    <glyph glyph-name="d" unicode="d" horiz-adv-x="1009" 
d="M645 -31l55 269q-79 -128 -183 -198.5t-222 -70.5q-110 0 -167.5 81t-57.5 212q0 118 45.5 247t122 236.5t188 177.5t231.5 70q138 0 183 -110l71 344q4 24 4 43q0 85 -67 96l-12 2l213 57l-256 -1181q-17 -83 -17 -123q0 -84 66 -96l12 -2zM332 37q111 0 218 96t171 248
q33 77 59.5 195t26.5 178q0 79 -37.5 130.5t-120.5 51.5q-102 0 -194 -64.5t-152 -162t-95.5 -209.5t-35.5 -211q0 -117 41.5 -184.5t118.5 -67.5z" />
    <glyph glyph-name="e" unicode="e" horiz-adv-x="864" 
d="M725 240q-27 -116 -145 -195.5t-246 -79.5q-118 0 -194.5 81.5t-76.5 232.5q0 103 36.5 209t99 195t140 159.5t166 110.5t171.5 40t130.5 -45t47.5 -114q0 -113 -110.5 -218t-268 -166t-305.5 -65q-6 -44 -6 -82q0 -108 56.5 -183t162.5 -75q87 0 183.5 54t158.5 141z
M178 444q124 4 257 51.5t230 133.5t97 184q0 49 -32 83t-89 34q-59 0 -129 -36t-136 -98t-120 -155t-78 -197z" />
    <glyph glyph-name="f" unicode="f" horiz-adv-x="593" 
d="M109 0l192 905h-192l14 62h192l35 151q34 148 123.5 230t198.5 82q50 0 75 -22.5t25 -55.5q0 -36 -25.5 -69.5t-66.5 -45.5q14 22 14 55q0 34 -20 53t-51 19q-122 0 -174 -231l-37 -166h247l-16 -62h-246l-192 -905q-17 -78 -45 -145t-68 -123.5t-97.5 -88.5t-125.5 -32
q-40 0 -80 14.5t-61 40.5q43 -12 86 -12q120 0 189.5 88t105.5 258z" />
    <glyph glyph-name="g" unicode="g" horiz-adv-x="927" 
d="M424 102l31 -8q55 -15 92 -26.5t82.5 -32t72 -42.5t45.5 -55t19 -73q0 -57 -33 -104.5t-83.5 -77t-114 -49.5t-122 -28.5t-110.5 -8.5q-178 0 -284.5 53.5t-106.5 148.5q0 85 89 156t243 115q-82 21 -123 54t-41 71q0 42 56.5 93t139.5 85q-76 37 -114.5 101.5
t-38.5 141.5q0 107 59 195.5t148.5 135t185.5 46.5q70 0 129 -26q24 -4 125 -4q126 0 199 36l-25 -94h-221q44 -40 67 -98.5t23 -118.5q0 -66 -28.5 -128t-79.5 -110t-126.5 -77t-162.5 -29q-38 0 -72 6q-63 -26 -116.5 -64t-53.5 -69q0 -34 62 -58.5t188 -56.5zM430 401
q123 0 203 89t80 217q0 104 -56.5 164.5t-152.5 60.5q-129 0 -207 -85.5t-78 -215.5q0 -43 11 -81.5t34 -73t66 -55t100 -20.5zM328 43q-147 -38 -233.5 -92.5t-86.5 -124.5q0 -72 87 -118t235 -46q161 0 252.5 49t91.5 121q0 41 -24 74t-73 57.5t-107.5 43t-141.5 36.5z
" />
    <glyph glyph-name="h" unicode="h" horiz-adv-x="993" 
d="M57 0l267 1227q6 24 6 57q0 72 -60 82l-12 2l201 57l-152 -686q62 102 181.5 178t222.5 76q176 0 176 -182q0 -60 -29 -199l-82 -389q-16 -73 -16 -127q0 -79 26 -96h-153l133 606q27 126 27 174q0 144 -125 144q-120 0 -246 -124t-162 -288l-110 -512h-93z" />
    <glyph glyph-name="i" unicode="i" horiz-adv-x="425" 
d="M61 0l175 797q8 36 8 61q0 63 -64 78l-8 2l197 57l-166 -772q-17 -81 -17 -131q0 -75 25 -92h-150zM274 1278q0 33 19.5 54.5t56.5 21.5q35 0 55.5 -22t20.5 -54t-20.5 -54t-55.5 -22q-37 0 -56.5 21.5t-19.5 54.5z" />
    <glyph glyph-name="j" unicode="j" horiz-adv-x="425" 
d="M63 0l175 797q6 42 6 51q0 73 -60 88l-8 2l199 57l-217 -995q-17 -79 -44.5 -145.5t-67.5 -123t-97 -88.5t-125 -32q-40 0 -80 14.5t-61 40.5q43 -12 84 -12q120 0 189 88t107 258zM274 1278q0 33 19.5 54.5t56.5 21.5q35 0 55.5 -22t20.5 -54t-20.5 -54t-55.5 -22
q-37 0 -56.5 21.5t-19.5 54.5z" />
    <glyph glyph-name="k" unicode="k" horiz-adv-x="915" 
d="M57 0l267 1227q8 36 8 59q0 69 -60 80l-12 2l201 57l-191 -882l336 270q123 98 123 131q0 16 -22 23h237q-98 -37 -252 -160l-321 -258l268 -397q43 -65 95.5 -108t96.5 -44q-45 -23 -106 -23q-45 0 -91.5 39.5t-107.5 130.5l-258 390l-116 -537h-95z" />
    <glyph glyph-name="l" unicode="l" horiz-adv-x="425" 
d="M59 0l269 1227q6 30 6 55q0 35 -16 57.5t-46 26.5l-12 2l201 57l-260 -1202q-19 -87 -19 -129q0 -76 27 -94h-150z" />
    <glyph glyph-name="m" unicode="m" horiz-adv-x="1525" 
d="M57 0l172 797q7 28 7 55q0 73 -60 84l-10 2l199 57l-70 -264q15 28 48.5 67.5t85 85.5t122.5 77.5t143 31.5q172 0 172 -182q0 -21 -4 -61q55 95 165.5 169t221.5 74q172 0 172 -182q0 -49 -14 -117l-98 -471q-17 -78 -17 -127q0 -78 27 -96h-152l144 664q14 68 14 116
q0 70 -26.5 108t-90.5 38q-85 0 -169 -60.5t-142.5 -155t-81.5 -198.5l-110 -512h-93l144 664q14 68 14 116q0 70 -26.5 108t-90.5 38q-119 0 -239.5 -124.5t-155.5 -289.5l-108 -512h-93z" />
    <glyph glyph-name="n" unicode="n" horiz-adv-x="991" 
d="M57 0l172 797q7 28 7 55q0 73 -60 84l-10 2l201 57l-62 -254q24 41 62 82.5t89.5 80.5t118.5 64t136 25q176 0 176 -182q0 -54 -13 -117l-98 -471q-16 -73 -16 -127q0 -79 26 -96h-153l145 664q15 73 15 116q0 144 -125 144q-123 0 -247.5 -122.5t-160.5 -289.5
l-110 -512h-93z" />
    <glyph glyph-name="o" unicode="o" horiz-adv-x="948" 
d="M354 -33q-74 0 -130.5 31t-89.5 83.5t-49.5 115.5t-16.5 133q0 158 71 311.5t194 253.5t261 100q74 0 131 -31t90 -83t49.5 -115t16.5 -133q0 -169 -73.5 -323.5t-196 -248.5t-257.5 -94zM371 25q63 0 121.5 32t102.5 84.5t80 119t59 137.5t35.5 137t12.5 120
q0 52 -10.5 99.5t-32.5 90t-63.5 68t-97.5 25.5q-64 0 -123 -31.5t-103 -84t-80 -118.5t-59 -136.5t-35 -137t-12 -121.5q0 -51 11 -98.5t33.5 -90.5t64 -69t96.5 -26z" />
    <glyph glyph-name="p" unicode="p" horiz-adv-x="1009" 
d="M-20 -391l247 1153q13 72 13 88q0 74 -64 88l-10 2l209 55q-6 -30 -32.5 -138t-31.5 -130q30 49 69 93.5t90 84.5t114 64t129 24q110 0 169.5 -81.5t59.5 -211.5q0 -96 -24 -198t-72 -197t-112 -171t-152.5 -121.5t-186.5 -45.5q-68 0 -130.5 38t-86.5 101l-104 -497h-94
zM205 209q0 -72 56 -128t142 -56q69 0 131.5 29.5t109.5 80.5t85 117t62 139.5t36.5 148.5t12.5 144q0 108 -42.5 175t-125.5 67q-110 0 -215.5 -101t-169.5 -254q-29 -71 -55.5 -184t-26.5 -178z" />
    <glyph glyph-name="q" unicode="q" horiz-adv-x="987" 
d="M549 -391l143 639q-79 -131 -184.5 -205t-226.5 -74q-108 0 -164 80.5t-56 210.5q0 93 26 194.5t78.5 197t122 172t164.5 123t199 46.5q75 0 125 -18q16 -6 36.5 -13.5t30 -10.5t17.5 -3q32 0 84 41l-252 -1171q-14 -66 -14 -113q0 -74 33 -96h-162zM322 35q77 0 158 56
t143 141.5t98 181.5q31 86 57.5 214.5t26.5 190.5q0 117 -170 117q-102 0 -193 -63.5t-150 -160.5t-93.5 -211t-34.5 -218q0 -116 40.5 -182t117.5 -66z" />
    <glyph glyph-name="r" unicode="r" horiz-adv-x="733" 
d="M57 0l172 797q7 28 7 55q0 73 -60 84l-10 2l201 57l-70 -321q28 53 68.5 106t91 102t112 80t119.5 31q98 0 98 -73q0 -36 -25.5 -74t-64.5 -58q2 12 2 39q0 43 -13 69t-52 26q-36 0 -86 -31t-101 -88q-161 -180 -223 -471l-69 -332h-97z" />
    <glyph glyph-name="s" unicode="s" horiz-adv-x="794" 
d="M31 33l57 213q2 -102 53.5 -165t163.5 -63q123 0 188.5 52.5t65.5 134.5q0 41 -21.5 78t-55.5 66.5t-75 58.5t-82.5 60t-75.5 64.5t-55.5 78t-21.5 94.5q0 74 31 132t81.5 91.5t110 51t121.5 17.5q94 0 159.5 -36.5t65.5 -98.5q0 -66 -88 -143q9 37 9 65q0 77 -51 117.5
t-126 40.5q-91 0 -164 -55.5t-73 -145.5q0 -57 40.5 -107.5t98 -89.5t114.5 -80t97.5 -98t40.5 -124q0 -130 -95 -204.5t-247 -74.5q-70 0 -148.5 22t-117.5 48z" />
    <glyph glyph-name="t" unicode="t" horiz-adv-x="555" 
d="M117 268l141 637h-104l256 264l-48 -202h252l-12 -62h-252l-125 -583q-3 -13 -8 -37t-7.5 -35.5t-5.5 -29t-4 -32.5t-1 -30q0 -123 112 -123q81 0 174 55q-39 -59 -101.5 -90t-115.5 -31q-85 0 -127.5 42t-42.5 116q0 48 19 141z" />
    <glyph glyph-name="u" unicode="u" horiz-adv-x="991" 
d="M113 270l104 492q12 64 12 88q0 75 -57 86l-12 2l200 57l-141 -647q-24 -120 -24 -170q0 -141 120 -141q123 0 251 126t163 290l66 317q12 54 12 86q0 69 -59 80l-11 2l201 57q-147 -675 -180 -827q-8 -40 -8 -59q0 -71 51 -80l12 -2l-186 -58l49 252
q-66 -109 -176.5 -179.5t-204.5 -70.5q-92 0 -143.5 47.5t-51.5 135.5q0 53 13 116z" />
    <glyph glyph-name="v" unicode="v" horiz-adv-x="901" 
d="M285 -66l-101 822q-12 96 -33 134t-65 46l-12 2l174 53l104 -856l434 674q33 49 33 88q0 31 -21 48t-42 22h217z" />
    <glyph glyph-name="w" unicode="w" horiz-adv-x="1441" 
d="M283 -70l-78 826q-9 95 -31.5 133.5t-67.5 46.5l-12 2l182 55l78 -825l482 836l110 -859l385 662q37 64 37 94q0 20 -13 36t-24.5 21.5t-23.5 8.5h202l-628 -1037l-109 848z" />
    <glyph glyph-name="x" unicode="x" horiz-adv-x="817" 
d="M-55 0l420 487l-132 316q-35 85 -63 110t-78 25h-12l182 57l174 -424l178 207q86 99 86 150q0 27 -30 39h184l-391 -457l141 -344q34 -84 62.5 -109.5t78.5 -25.5h13l-183 -58l-186 451l-248 -289q-53 -61 -53 -98q0 -32 31 -37h-174z" />
    <glyph glyph-name="y" unicode="y" horiz-adv-x="909" 
d="M332 0l-150 782q-15 80 -40 111t-83 43l-10 2l189 57l168 -893q70 93 170 270.5t161 317.5q58 137 58 199q0 57 -47 78h192q-9 -27 -137 -299q-171 -361 -402 -674q-131 -178 -249.5 -286.5t-194.5 -108.5q-52 0 -78 27t-26 65q0 15 8 39q29 -29 94 -29q51 0 110.5 34
t114.5 90t88 95t64 80z" />
    <glyph glyph-name="z" unicode="z" horiz-adv-x="813" 
d="M-25 0l687 909h-347q-72 0 -113.5 -20.5t-101.5 -79.5l101 158h606l-680 -908h375q96 0 138 26t83 99l-45 -184h-703z" />
    <glyph glyph-name="braceleft" unicode="{" horiz-adv-x="800" 
d="M227 -123l72 334q18 89 18 143q0 48 -13.5 79t-43.5 48.5t-60.5 25.5t-82.5 15q58 8 91.5 16t72.5 27.5t63 51t47 84.5t39 130l72 334q17 81 44.5 130.5t79 79t116 41t171.5 16.5q-74 -13 -121.5 -28t-87.5 -40t-62 -62.5t-34 -93.5l-59 -284q-25 -118 -60 -199t-78 -123
t-85 -60t-95 -20q79 -3 125.5 -48.5t46.5 -154.5q0 -79 -26 -200l-60 -285q-10 -48 -10 -72q0 -65 52.5 -95.5t168.5 -53.5q-170 8 -241.5 41.5t-71.5 124.5q0 40 12 98z" />
    <glyph glyph-name="bar" unicode="|" horiz-adv-x="491" 
d="M51 -358l371 1742h74l-371 -1742h-74z" />
    <glyph glyph-name="braceright" unicode="}" horiz-adv-x="800" 
d="M199 -166l59 285q25 119 59.5 200t77 123t84.5 60t94 20q-170 7 -170 203q0 73 27 199l59 284q11 53 11 74q0 65 -52.5 96t-168.5 54q170 -8 241.5 -42.5t71.5 -125.5q0 -40 -12 -99l-72 -334q-19 -93 -19 -141q0 -47 13.5 -78t44 -48.5t60.5 -25.5t83 -16
q-48 -7 -77 -13t-64 -19.5t-57 -33.5t-45 -52.5t-39.5 -80t-30.5 -112.5l-72 -334q-14 -65 -36 -109t-52 -73t-79 -46t-105 -24.5t-142 -11.5q150 27 218 71t90 150z" />
    <glyph glyph-name="asciitilde" unicode="~" horiz-adv-x="1325" 
d="M252 510h-68q21 105 86.5 169t165.5 64q63 0 133 -26t122 -56.5t121 -56.5t132 -26q58 0 97 49t53 114h63q-26 -118 -89 -176.5t-155 -58.5q-67 0 -139.5 26t-125 57t-120 57t-125.5 26q-56 0 -96 -43.5t-55 -118.5z" />
    <glyph glyph-name="uni00A0" unicode="&#xa0;" horiz-adv-x="436" 
 />
    <glyph glyph-name="exclamdown" unicode="&#xa1;" horiz-adv-x="587" 
d="M250 -373h-225q5 3 11.5 8t19 22.5t25 43t28.5 72t30 106.5l142 615q30 121 84 206q8 -56 8 -88q0 -64 -11 -118l-118 -615q-19 -100 -19 -162q0 -65 25 -90zM317 922q0 36 25 63t68 27t68.5 -27t25.5 -63q0 -37 -25.5 -65t-68.5 -28t-68 28t-25 65z" />
    <glyph glyph-name="cent" unicode="&#xa2;" horiz-adv-x="944" 
d="M387 -29l41 191q-126 3 -214.5 86.5t-88.5 228.5q0 170 70.5 325.5t190.5 258t259 123.5l41 200h68l-43 -196q76 0 131 -26t55 -70q0 -41 -26 -98t-60 -97q4 32 4 53q0 71 -44 118.5t-130 47.5q-72 0 -139 -38.5t-116.5 -102.5t-87 -144t-56.5 -164.5t-19 -162.5
q0 -125 73 -194.5t179 -69.5q85 0 164.5 52t144.5 144q-25 -104 -104 -177.5t-184 -92.5l-41 -195h-68z" />
    <glyph glyph-name="sterling" unicode="&#xa3;" horiz-adv-x="1052" 
d="M-45 -31l-33 101q59 5 107.5 27.5t86.5 63t67.5 89.5t54.5 117t42.5 134t36.5 152h-178l15 62h178q23 104 41.5 177t43.5 149.5t51.5 127.5t62 97.5t77 73t95.5 42t120 15.5q122 0 187 -62l-92 -98q-7 47 -45 75.5t-91 28.5q-52 0 -93.5 -18.5t-75.5 -69t-55.5 -89
t-47 -129.5t-37 -137t-36.5 -161q-3 -15 -5 -22h236l-13 -62h-237q-23 -104 -49 -185.5t-64.5 -164t-93.5 -139.5t-123 -84q67 18 119 18q68 0 168 -23.5t166 -23.5q176 0 258 109l39 -115q-99 -76 -273 -76q-87 0 -159 17.5t-132.5 35t-119.5 17.5q-80 0 -199 -70z" />
    <glyph glyph-name="currency" unicode="&#xa4;" horiz-adv-x="1060" 
d="M211 408l123 120q-47 68 -47 156q0 89 45 154l-121 118l45 45l119 -116q62 49 153 49q95 0 158 -53l111 112l45 -45l-115 -114q45 -67 45 -150q0 -86 -47 -154l125 -124l-45 -44l-121 121q-60 -51 -156 -51q-89 0 -151 49l-121 -119zM528 492q83 0 128.5 57t45.5 135
t-45.5 133t-128.5 55q-82 0 -127 -55t-45 -133t45.5 -135t126.5 -57z" />
    <glyph glyph-name="yen" unicode="&#xa5;" horiz-adv-x="1153" 
d="M549 0h-277q12 2 25.5 10t33.5 27t39 60t31 98l70 333h-432l12 60h424l-74 223h-305l13 59h272l-98 314q-46 144 -117 180h274q-40 -16 -52 -52q-7 -19 -7 -44q0 -41 16 -88l168 -527l365 512q71 97 71 146q0 41 -43 53h246q-89 -27 -194 -184l-213 -310h262l-12 -59
h-293l-164 -223h409l-12 -60h-416l-69 -333q-10 -55 -10 -82q0 -56 18.5 -82.5t38.5 -30.5z" />
    <glyph glyph-name="brokenbar" unicode="&#xa6;" horiz-adv-x="450" 
d="M219 666l154 716h73l-153 -716h-74zM2 -358l154 716h73l-153 -716h-74z" />
    <glyph glyph-name="section" unicode="&#xa7;" horiz-adv-x="1200" 
d="M37 -152l80 95q39 -100 132 -152.5t200 -52.5q121 0 207.5 66t86.5 163q0 114 -139 199q-40 24 -127 73t-138 81.5t-79 62.5q-70 70 -70 147q0 58 26 107.5t71 84.5t92.5 59t103.5 42q-131 89 -131 215q0 74 39.5 138.5t103.5 108t145 68.5t165 25q98 0 177 -30.5
t116 -87.5l-74 -99q-35 73 -110 111.5t-164 38.5q-126 0 -220 -68.5t-94 -165.5q0 -103 113 -178q43 -29 186.5 -107.5t188.5 -123.5q71 -71 71 -152q0 -58 -24.5 -107.5t-67.5 -85.5t-89 -61.5t-101 -44.5q53 -37 84.5 -92.5t31.5 -120.5q0 -142 -126.5 -238t-301.5 -96
q-121 0 -221 46t-143 132zM662 248q42 16 81.5 37t79 51.5t63 71.5t23.5 86q0 35 -27 71t-73 68t-91.5 57.5t-99.5 54.5t-79 46q-267 -90 -267 -228q0 -36 21 -69t67 -66.5t84.5 -57t110 -62.5t107.5 -60z" />
    <glyph glyph-name="dieresis" unicode="&#xa8;" 
d="M915 1280q0 30 20.5 49t51.5 19q34 0 54 -18.5t20 -49.5t-20.5 -51.5t-53.5 -20.5q-31 0 -51.5 20.5t-20.5 51.5zM594 1280q0 31 20 49.5t52 18.5t51.5 -18.5t19.5 -49.5t-19.5 -51.5t-51.5 -20.5t-52 20.5t-20 51.5z" />
    <glyph glyph-name="copyright" unicode="&#xa9;" horiz-adv-x="1583" 
d="M840 -23q-106 0 -207 28t-190.5 86t-156.5 140t-106 198t-39 253t39 253t106 198t156.5 140t190.5 85.5t207 27.5t206 -27.5t189 -85.5t156 -140t106 -198t39 -253t-39 -253t-106 -198t-156 -140t-189 -86t-206 -28zM840 35q95 0 184.5 25.5t169.5 78.5t140 128t95 182
t35 233t-35 233.5t-94.5 183t-139.5 128.5t-170 78.5t-185 25.5t-185.5 -25.5t-171.5 -79t-142 -128.5t-96.5 -182t-35.5 -232q0 -126 35.5 -233t96.5 -182.5t142 -129t171.5 -79t185.5 -25.5zM1128 422v-78q-40 -56 -118 -94.5t-162 -38.5q-76 0 -140.5 26t-109.5 69.5
t-77 102.5t-47 124.5t-15 134.5q0 92 27 177.5t76.5 154.5t129 110t176.5 41q133 0 242 -74v-215q-45 125 -105 179.5t-145 54.5q-137 0 -220 -110t-83 -298q0 -180 88 -294.5t221 -114.5q77 0 138.5 35t123.5 108z" />
    <glyph glyph-name="ordfeminine" unicode="&#xaa;" horiz-adv-x="780" 
d="M571 709l33 153q-47 -67 -117.5 -109t-134.5 -42q-74 0 -113.5 46.5t-39.5 131.5q0 122 60.5 242.5t157.5 197t197 76.5q32 0 56 -6q3 0 9 -2t9 -2q28 -4 35 -4q23 0 82 36l-119 -522q-14 -60 -14 -96q0 -46 39 -55q2 0 5.5 -1t4.5 -1l2 -2zM379 762q56 0 122 55t107 139
q26 54 55 165.5t29 158.5q0 80 -84 80q-56 0 -109 -31t-92.5 -80.5t-69.5 -109t-45.5 -119t-15.5 -107.5q0 -38 8.5 -70t32.5 -56.5t62 -24.5z" />
    <glyph glyph-name="guillemotleft" unicode="&#xab;" horiz-adv-x="868" 
d="M614 156l-233 360l375 361h108l-385 -367l228 -354h-93zM295 156l-234 360l375 361h109l-385 -367l227 -354h-92z" />
    <glyph glyph-name="logicalnot" unicode="&#xac;" horiz-adv-x="1337" 
d="M156 752l16 73h1108l-117 -542h-78l101 469h-1030z" />
    <glyph glyph-name="uni00AD" unicode="&#xad;" horiz-adv-x="757" 
d="M117 463l18 94h504l-18 -94h-504z" />
    <glyph glyph-name="registered" unicode="&#xae;" horiz-adv-x="1581" 
d="M834 -23q-106 0 -207 28t-191 86t-157 140t-106.5 198t-39.5 253t39.5 253t106.5 198t157 140t191 85.5t207 27.5t206 -27.5t188.5 -85.5t155 -140t105.5 -198t39 -253t-39 -253t-105.5 -198t-155 -140t-188.5 -86t-206 -28zM831 35q95 0 184.5 25.5t169.5 78.5
t140.5 128t95.5 182t35 233t-35 233.5t-95 183t-140 128.5t-170 78.5t-185 25.5t-185.5 -25.5t-171.5 -79t-141.5 -128.5t-96 -182t-35.5 -232q0 -126 35.5 -233t96 -182.5t141.5 -129t171.5 -79t185.5 -25.5zM721 244h-150q37 15 37 133v637q0 102 -41 127h275
q122 0 188 -73t66 -173q0 -101 -63.5 -174.5t-172.5 -73.5q26 -6 55 -37.5t72 -101.5l96 -154q54 -84 91 -110h-125l-144 243q-52 88 -84 119t-80 31h-55v-260q0 -47 7.5 -79t14.5 -41.5t13 -12.5zM686 698h152q85 0 132.5 57.5t47.5 133.5t-48 131t-136 55h-148v-377z" />
    <glyph glyph-name="macron" unicode="&#xaf;" 
d="M516 1225l10 67h598l-10 -67h-598z" />
    <glyph glyph-name="degree" unicode="&#xb0;" horiz-adv-x="651" 
d="M469 895q-108 0 -179 71t-71 181q0 109 70.5 179.5t179.5 70.5t180.5 -70.5t71.5 -179.5t-71.5 -180.5t-180.5 -71.5zM469 954q79 0 130.5 55t51.5 138t-51 135.5t-131 52.5q-78 0 -129 -52.5t-51 -135.5q0 -84 51 -138.5t129 -54.5z" />
    <glyph glyph-name="plusminus" unicode="&#xb1;" horiz-adv-x="1337" 
d="M549 229l98 467h-516l16 76h517l96 451h78l-97 -451h514l-16 -76h-514l-98 -467h-78zM-14 0l14 74h1108l-16 -74h-1106z" />
    <glyph glyph-name="twosuperior" unicode="&#xb2;" horiz-adv-x="598" 
d="M76 575l215 193q180 161 249.5 255t69.5 171q0 58 -38 95.5t-111 37.5q-59 0 -103.5 -31.5t-44.5 -83.5q0 -38 54 -55l-88 -59q-46 49 -46 90q0 87 75 139.5t173 52.5q99 0 159 -51t60 -125q0 -90 -81.5 -193.5t-282.5 -279.5l-100 -90h229q51 0 92.5 12.5t57.5 24.5
l16 12l-35 -115h-520z" />
    <glyph glyph-name="threesuperior" unicode="&#xb3;" horiz-adv-x="598" 
d="M125 723l100 53q-8 -35 -8 -59q0 -52 44.5 -76.5t100.5 -24.5q72 0 126.5 46t54.5 120q0 71 -60.5 118.5t-197.5 55.5l26 54q40 -9 70 -9q91 0 162 52.5t71 142.5q0 60 -40 96.5t-103 36.5q-53 0 -91 -23.5t-38 -60.5q0 -24 33 -47l-99 -43q-12 37 -12 57
q0 79 65.5 123.5t157.5 44.5q94 0 149.5 -48t55.5 -126q0 -79 -59 -142.5t-144 -86.5q70 -27 103 -78t33 -111q0 -98 -83.5 -161.5t-193.5 -63.5q-90 0 -150.5 42t-72.5 118z" />
    <glyph glyph-name="acute" unicode="&#xb4;" 
d="M709 1067l161 297h170z" />
    <glyph glyph-name="mu" unicode="&#xb5;" horiz-adv-x="1013" 
d="M72 -371h-154q26 11 52.5 50t41.5 110l252 1169h92l-135 -620q-12 -56 -12 -102q0 -91 45.5 -145t130.5 -54q49 0 100 29t92.5 75.5t77.5 102t59.5 109.5t33.5 98l106 507h94l-153 -716q-19 -85 -19 -119q0 -44 17 -62t45 -24l-90 -57q-62 32 -62 124q0 39 16 117
q-149 -250 -327 -250q-72 0 -126 40.5t-73 107.5z" />
    <glyph glyph-name="paragraph" unicode="&#xb6;" horiz-adv-x="1292" 
d="M432 -369l156 736h-13q-106 0 -191.5 34.5t-139 94t-81.5 134t-28 158.5q0 105 43 205.5t123.5 184t211 135t290.5 51.5h348q-31 -55 -88 -320l-299 -1413h-74l354 1667h-184l-354 -1667h-74z" />
    <glyph glyph-name="periodcentered" unicode="&#xb7;" horiz-adv-x="466" 
d="M156 498q0 36 25.5 64t68.5 28t66.5 -27.5t23.5 -64.5t-23.5 -63.5t-66.5 -26.5t-68.5 27t-25.5 63z" />
    <glyph glyph-name="cedilla" unicode="&#xb8;" 
d="M250 -111l96 127h66l-74 -94q65 -11 96 -43.5t31 -77.5q0 -66 -65 -116t-152 -50q-74 0 -123 39q35 -6 70 -6q84 0 127 39.5t43 91.5q0 33 -28.5 59.5t-86.5 30.5z" />
    <glyph glyph-name="onesuperior" unicode="&#xb9;" horiz-adv-x="598" 
d="M307 578l142 649l-218 -193l21 88l283 258h26l-135 -626q-8 -39 -8 -74q0 -53 16.5 -76.5t34.5 -25.5h-162z" />
    <glyph glyph-name="ordmasculine" unicode="&#xba;" horiz-adv-x="817" 
d="M428 707q-91 0 -145 60.5t-54 172.5q0 124 57.5 234.5t147.5 174.5t184 64q90 0 144.5 -62t54.5 -171q0 -124 -57.5 -234.5t-147.5 -174.5t-184 -64zM440 752q75 0 145.5 71.5t112 174t41.5 196.5q0 77 -35.5 124.5t-97.5 47.5q-75 0 -145 -71t-111 -173t-41 -196
q0 -79 35 -126.5t96 -47.5z" />
    <glyph glyph-name="guillemotright" unicode="&#xbb;" horiz-adv-x="868" 
d="M336 156l387 366l-229 355h90l235 -361l-375 -360h-108zM16 156l387 366l-229 355h90l236 -361l-375 -360h-109z" />
    <glyph glyph-name="onequarter" unicode="&#xbc;" horiz-adv-x="1675" 
d="M739 190l596 625l-121 -565h95l-13 -60h-94l-14 -73q-6 -37 -6 -62q0 -44 18 -55h-115l43 190h-389zM172 0l1192 1380h76l-1190 -1380h-78zM362 578l142 649l-217 -193l20 88l283 258h26l-135 -626q-8 -39 -8 -74q0 -53 16.5 -76.5t34.5 -25.5h-162zM864 250h275l82 368z
" />
    <glyph glyph-name="onehalf" unicode="&#xbd;" horiz-adv-x="1591" 
d="M782 0l215 193q181 161 249.5 253.5t68.5 169.5q0 58 -38.5 96t-111.5 38q-59 0 -103 -31.5t-44 -83.5q0 -39 53 -55l-88 -60q-45 51 -45 101q0 61 71 121.5t177 60.5q99 0 159 -51t60 -125q0 -89 -82.5 -189.5t-288.5 -281.5l-100 -90h237q51 0 92.5 12t57.5 24l16 13
l-34 -115h-521zM104 0l1192 1380h76l-1190 -1380h-78zM301 578l141 649l-217 -193l21 88l282 258h27l-135 -626q-8 -39 -8 -74q0 -53 16.5 -76.5t34.5 -25.5h-162z" />
    <glyph glyph-name="threequarters" unicode="&#xbe;" horiz-adv-x="1675" 
d="M213 0l1192 1380h76l-1190 -1380h-78zM780 190l596 625l-121 -565h95l-13 -60h-94l-14 -73q-6 -37 -6 -62q0 -44 18 -55h-115l43 190h-389zM905 250h275l82 368zM119 723l100 53q-8 -35 -8 -59q0 -52 44.5 -76.5t100.5 -24.5q72 0 126.5 46t54.5 120q0 71 -60.5 118.5
t-197.5 55.5l26 54q41 -9 70 -9q91 0 162 52.5t71 142.5q0 60 -40 96.5t-103 36.5q-53 0 -91 -23.5t-38 -60.5q0 -24 33 -47l-99 -43q-12 37 -12 57q0 79 65.5 123.5t157.5 44.5q94 0 149.5 -48t55.5 -126q0 -79 -59 -142.5t-144 -86.5q70 -27 102.5 -78t32.5 -111
q0 -98 -83 -161.5t-193 -63.5q-90 0 -150.5 42t-72.5 118z" />
    <glyph glyph-name="questiondown" unicode="&#xbf;" horiz-adv-x="1054" 
d="M694 918q0 36 24.5 63t67.5 27t68 -27t25 -63t-25 -63.5t-68 -27.5t-67.5 27t-24.5 64zM829 -135l-36 -184q-65 -35 -161 -56.5t-194 -21.5q-170 0 -260 65.5t-90 161.5q0 67 33 130.5t86.5 115t117.5 100.5t128 96t117.5 93t86.5 100.5t33 109.5q0 49 -31 80h9
q12 0 18 -2q34 -6 53 -36.5t19 -69.5q0 -60 -30.5 -116.5t-80 -102t-109 -90t-118.5 -89t-108.5 -89.5t-80 -101t-30.5 -115q0 -89 69.5 -136.5t175.5 -47.5q113 0 220 53.5t163 151.5z" />
    <glyph glyph-name="Agrave" unicode="&#xc0;" horiz-adv-x="1327" 
d="M221 0h-221q9 3 25 16.5t55.5 64t89.5 128.5l762 1210l137 -1208q8 -78 27 -129t33.5 -66t25.5 -16h-237q10 3 20 12t21.5 39t13.5 76q0 51 -4 84l-31 262h-524l-156 -248q-68 -110 -68 -172q0 -25 10 -38t21 -15zM451 535h481l-74 651zM977 1438l-205 297h152z" />
    <glyph glyph-name="Aacute" unicode="&#xc1;" horiz-adv-x="1327" 
d="M221 0h-221q9 3 25 16.5t55.5 64t89.5 128.5l762 1210l137 -1208q8 -78 27 -129t33.5 -66t25.5 -16h-237q10 3 20 12t21.5 39t13.5 76q0 51 -4 84l-31 262h-524l-156 -248q-68 -110 -68 -172q0 -25 10 -38t21 -15zM451 535h481l-74 651zM864 1436l162 297h170z" />
    <glyph glyph-name="Acircumflex" unicode="&#xc2;" horiz-adv-x="1327" 
d="M221 0h-221q9 3 25 16.5t55.5 64t89.5 128.5l762 1210l137 -1208q8 -78 27 -129t33.5 -66t25.5 -16h-237q10 3 20 12t21.5 39t13.5 76q0 51 -4 84l-31 262h-524l-156 -248q-68 -110 -68 -172q0 -25 10 -38t21 -15zM451 535h481l-74 651zM686 1440l299 323l184 -323
l-211 176z" />
    <glyph glyph-name="Atilde" unicode="&#xc3;" horiz-adv-x="1327" 
d="M221 0h-221q9 3 25 16.5t55.5 64t89.5 128.5l762 1210l137 -1208q8 -78 27 -129t33.5 -66t25.5 -16h-237q10 3 20 12t21.5 39t13.5 76q0 51 -4 84l-31 262h-524l-156 -248q-68 -110 -68 -172q0 -25 10 -38t21 -15zM451 535h481l-74 651zM713 1466q-15 34 -15 68
q0 63 35.5 107.5t89.5 44.5q42 0 131.5 -35t126.5 -35q44 0 66 35t22 96q15 -34 15 -68q0 -67 -32 -109t-87 -42q-44 0 -133.5 35.5t-126.5 35.5q-92 0 -92 -133z" />
    <glyph glyph-name="Adieresis" unicode="&#xc4;" horiz-adv-x="1327" 
d="M221 0h-221q9 3 25 16.5t55.5 64t89.5 128.5l762 1210l137 -1208q8 -78 27 -129t33.5 -66t25.5 -16h-237q10 3 20 12t21.5 39t13.5 76q0 51 -4 84l-31 262h-524l-156 -248q-68 -110 -68 -172q0 -25 10 -38t21 -15zM451 535h481l-74 651zM1044 1649q0 31 21 51t55 20
q33 0 53.5 -20t20.5 -51q0 -32 -20.5 -54t-53.5 -22t-54.5 22.5t-21.5 53.5zM782 1573q-31 0 -51 22t-20 54q0 31 19.5 51t51.5 20q35 0 55.5 -20t20.5 -51q0 -32 -21 -54t-55 -22z" />
    <glyph glyph-name="Aring" unicode="&#xc5;" horiz-adv-x="1327" 
d="M221 0h-221q9 3 25 16.5t55.5 64t89.5 128.5l762 1210l137 -1208q8 -78 27 -129t33.5 -66t25.5 -16h-237q10 3 20 12t21.5 39t13.5 76q0 51 -4 84l-31 262h-524l-156 -248q-68 -110 -68 -172q0 -25 10 -38t21 -15zM451 535h481l-74 651zM786 1657q0 71 47 123.5t130 52.5
t128.5 -52t45.5 -124q0 -71 -45.5 -122.5t-128.5 -51.5t-130 51.5t-47 122.5zM963 1538q52 0 82 35.5t30 83.5t-29 83.5t-83 35.5q-55 0 -86 -35.5t-31 -83.5t31.5 -83.5t85.5 -35.5z" />
    <glyph glyph-name="AE" unicode="&#xc6;" horiz-adv-x="1712" 
d="M166 0h-279q19 3 45.5 16.5t87.5 68.5t130 144l743 942q100 129 100 166q0 13 -14 27h793l-48 -229q-1 93 -40 131.5t-123 38.5h-410l-96 -574h325q43 0 76 8.5t51 22t26 23t13 18.5l-45 -213q-1 31 -24 50.5t-50 25.5t-59 6h-324l-102 -611h356q110 0 171 43t108 154
l-53 -258h-799q11 2 23 6.5t31 19t35.5 36.5t32.5 61.5t25 89.5l46 260h-494l-174 -225q-113 -147 -113 -205q0 -38 29 -43zM473 535h455l123 729z" />
    <glyph glyph-name="Ccedilla" unicode="&#xc7;" horiz-adv-x="1118" 
d="M412 -111l63 86q-152 30 -246 161.5t-94 342.5q0 114 30.5 238t94.5 245t151.5 217.5t213 156t268.5 59.5q88 0 164 -23t119 -59l-48 -215q-20 239 -254 239q-90 0 -182 -44t-170.5 -125t-140.5 -185.5t-97.5 -235t-35.5 -264.5q0 -205 99 -323.5t255 -118.5
q212 0 385 190l-22 -108q-72 -74 -180.5 -115t-223.5 -41h-26l-35 -45q65 -11 96 -43.5t31 -77.5q0 -66 -65 -116t-152 -50q-74 0 -123 39q35 -6 69 -6q84 0 127 39.5t43 91.5q0 33 -28 59.5t-86 30.5z" />
    <glyph glyph-name="Egrave" unicode="&#xc8;" horiz-adv-x="1064" 
d="M244 61h407q110 0 165.5 33.5t103.5 126.5l-46 -221h-843q13 2 27 9t35.5 24t40.5 52.5t30 84.5l221 1032q8 40 8 60q0 44 -18 69.5t-43 32.5h792l-41 -188q0 27 -4.5 47t-11 34t-19.5 23t-24 14t-32 7.5t-36.5 3t-44.5 0.5h-407l-119 -574h348q124 0 158 60l-35 -185
q-1 23 -13 38t-36 20t-40.5 6.5t-45.5 1.5h-348zM834 1438l-205 297h151z" />
    <glyph glyph-name="Eacute" unicode="&#xc9;" horiz-adv-x="1064" 
d="M244 61h407q110 0 165.5 33.5t103.5 126.5l-46 -221h-843q13 2 27 9t35.5 24t40.5 52.5t30 84.5l221 1032q8 40 8 60q0 44 -18 69.5t-43 32.5h792l-41 -188q0 27 -4.5 47t-11 34t-19.5 23t-24 14t-32 7.5t-36.5 3t-44.5 0.5h-407l-119 -574h348q124 0 158 60l-35 -185
q-1 23 -13 38t-36 20t-40.5 6.5t-45.5 1.5h-348zM700 1436l162 297h170z" />
    <glyph glyph-name="Ecircumflex" unicode="&#xca;" horiz-adv-x="1064" 
d="M244 61h407q110 0 165.5 33.5t103.5 126.5l-46 -221h-843q13 2 27 9t35.5 24t40.5 52.5t30 84.5l221 1032q8 40 8 60q0 44 -18 69.5t-43 32.5h792l-41 -188q0 27 -4.5 47t-11 34t-19.5 23t-24 14t-32 7.5t-36.5 3t-44.5 0.5h-407l-119 -574h348q124 0 158 60l-35 -185
q-1 23 -13 38t-36 20t-40.5 6.5t-45.5 1.5h-348zM537 1440l299 323l184 -323l-211 176z" />
    <glyph glyph-name="Edieresis" unicode="&#xcb;" horiz-adv-x="1064" 
d="M244 61h407q110 0 165.5 33.5t103.5 126.5l-46 -221h-843q13 2 27 9t35.5 24t40.5 52.5t30 84.5l221 1032q8 40 8 60q0 44 -18 69.5t-43 32.5h792l-41 -188q0 27 -4.5 47t-11 34t-19.5 23t-24 14t-32 7.5t-36.5 3t-44.5 0.5h-407l-119 -574h348q124 0 158 60l-35 -185
q-1 23 -13 38t-36 20t-40.5 6.5t-45.5 1.5h-348zM870 1649q0 31 21 51t55 20q33 0 53.5 -20t20.5 -51q0 -32 -20.5 -54t-53.5 -22t-54.5 22.5t-21.5 53.5zM608 1573q-31 0 -51 22t-20 54q0 31 19.5 51t51.5 20q35 0 55.5 -20t20.5 -51q0 -32 -21 -54t-55 -22z" />
    <glyph glyph-name="Igrave" unicode="&#xcc;" horiz-adv-x="522" 
d="M289 0h-258q10 2 22 9t29.5 21.5t34 45t26.5 71.5l215 1008q19 93 19 125q0 29 -10.5 48.5t-21 26t-21.5 9.5h266q-11 -3 -24 -10.5t-32 -23.5t-35.5 -47.5t-25.5 -72.5l-225 -1054q-8 -40 -8 -62q0 -43 13.5 -67t35.5 -27zM477 1438l-205 297h152z" />
    <glyph glyph-name="Iacute" unicode="&#xcd;" horiz-adv-x="522" 
d="M289 0h-258q10 2 22 9t29.5 21.5t34 45t26.5 71.5l215 1008q19 93 19 125q0 29 -10.5 48.5t-21 26t-21.5 9.5h266q-11 -3 -24 -10.5t-32 -23.5t-35.5 -47.5t-25.5 -72.5l-225 -1054q-8 -40 -8 -62q0 -43 13.5 -67t35.5 -27zM426 1436l162 297h170z" />
    <glyph glyph-name="Icircumflex" unicode="&#xce;" horiz-adv-x="522" 
d="M289 0h-258q10 2 22 9t29.5 21.5t34 45t26.5 71.5l215 1008q19 93 19 125q0 29 -10.5 48.5t-21 26t-21.5 9.5h266q-11 -3 -24 -10.5t-32 -23.5t-35.5 -47.5t-25.5 -72.5l-225 -1054q-8 -40 -8 -62q0 -43 13.5 -67t35.5 -27zM242 1440l299 323l184 -323l-211 176z" />
    <glyph glyph-name="Idieresis" unicode="&#xcf;" horiz-adv-x="522" 
d="M289 0h-258q10 2 22 9t29.5 21.5t34 45t26.5 71.5l215 1008q19 93 19 125q0 29 -10.5 48.5t-21 26t-21.5 9.5h266q-11 -3 -24 -10.5t-32 -23.5t-35.5 -47.5t-25.5 -72.5l-225 -1054q-8 -40 -8 -62q0 -43 13.5 -67t35.5 -27zM600 1649q0 31 21 51t55 20q33 0 53.5 -20
t20.5 -51q0 -32 -20.5 -54t-53.5 -22t-54.5 22.5t-21.5 53.5zM338 1573q-32 0 -52 22t-20 54q0 31 20 51t52 20q35 0 55.5 -20t20.5 -51q0 -32 -21 -54t-55 -22z" />
    <glyph glyph-name="Eth" unicode="&#xd0;" horiz-adv-x="1282" 
d="M145 184l99 469h-181l13 60h180l102 483q9 52 9 66q0 85 -54 102h422q126 0 224.5 -44.5t159 -121.5t91.5 -174t31 -209q0 -115 -31 -230.5t-93.5 -220.5t-149 -186t-207.5 -129.5t-258 -48.5h-469q10 2 22 9.5t29 25.5t33 56.5t28 92.5zM219 59h287q116 0 218 45.5
t175.5 122t127 175t80 206t26.5 213.5q0 99 -24 184.5t-71.5 153.5t-126.5 107t-182 39h-248l-125 -592h275l-13 -60h-274z" />
    <glyph glyph-name="Ntilde" unicode="&#xd1;" horiz-adv-x="1343" 
d="M283 0h-252q17 3 35.5 13t43 43t35.5 83l220 1012q6 24 6 55q0 46 -24.5 96t-72.5 62h158l594 -1153l213 997q6 24 6 49q0 46 -19.5 73t-45.5 34h235q-10 -3 -21 -10t-27.5 -22t-31 -45t-22.5 -70l-273 -1262l-608 1180l-211 -990q-4 -16 -4 -45q0 -43 20 -70t46 -30z
M688 1466q-14 32 -14 68q0 63 35.5 107.5t89.5 44.5q42 0 131.5 -35t126.5 -35q44 0 66 35t22 96q14 -32 14 -68q0 -67 -32 -109t-87 -42q-44 0 -133.5 35.5t-126.5 35.5q-92 0 -92 -133z" />
    <glyph glyph-name="Ograve" unicode="&#xd2;" horiz-adv-x="1341" 
d="M545 -33q-193 0 -304.5 132t-111.5 358q0 172 58.5 341t158 302t243.5 215t304 82q194 0 304 -135.5t110 -358.5q0 -106 -24.5 -216t-69 -214t-112.5 -196t-150.5 -161t-187.5 -109t-218 -40zM565 29q133 0 252.5 77.5t201.5 201.5t130 281t49 316q0 196 -87.5 316
t-244.5 120q-132 0 -251.5 -78.5t-201 -204.5t-129.5 -284t-48 -317q0 -198 87.5 -313t241.5 -115zM993 1438l-205 297h152z" />
    <glyph glyph-name="Oacute" unicode="&#xd3;" horiz-adv-x="1341" 
d="M545 -33q-193 0 -304.5 132t-111.5 358q0 172 58.5 341t158 302t243.5 215t304 82q194 0 304 -135.5t110 -358.5q0 -106 -24.5 -216t-69 -214t-112.5 -196t-150.5 -161t-187.5 -109t-218 -40zM565 29q133 0 252.5 77.5t201.5 201.5t130 281t49 316q0 196 -87.5 316
t-244.5 120q-132 0 -251.5 -78.5t-201 -204.5t-129.5 -284t-48 -317q0 -198 87.5 -313t241.5 -115zM817 1436l162 297h170z" />
    <glyph glyph-name="Ocircumflex" unicode="&#xd4;" horiz-adv-x="1341" 
d="M545 -33q-193 0 -304.5 132t-111.5 358q0 172 58.5 341t158 302t243.5 215t304 82q194 0 304 -135.5t110 -358.5q0 -106 -24.5 -216t-69 -214t-112.5 -196t-150.5 -161t-187.5 -109t-218 -40zM565 29q133 0 252.5 77.5t201.5 201.5t130 281t49 316q0 196 -87.5 316
t-244.5 120q-132 0 -251.5 -78.5t-201 -204.5t-129.5 -284t-48 -317q0 -198 87.5 -313t241.5 -115zM674 1440l299 323l184 -323l-211 176z" />
    <glyph glyph-name="Otilde" unicode="&#xd5;" horiz-adv-x="1341" 
d="M545 -33q-193 0 -304.5 132t-111.5 358q0 172 58.5 341t158 302t243.5 215t304 82q194 0 304 -135.5t110 -358.5q0 -106 -24.5 -216t-69 -214t-112.5 -196t-150.5 -161t-187.5 -109t-218 -40zM565 29q133 0 252.5 77.5t201.5 201.5t130 281t49 316q0 196 -87.5 316
t-244.5 120q-132 0 -251.5 -78.5t-201 -204.5t-129.5 -284t-48 -317q0 -198 87.5 -313t241.5 -115zM688 1466q-14 32 -14 68q0 63 35.5 107.5t89.5 44.5q42 0 131.5 -35t126.5 -35q44 0 66 35t22 96q14 -32 14 -68q0 -67 -32 -109t-87 -42q-44 0 -133.5 35.5t-126.5 35.5
q-92 0 -92 -133z" />
    <glyph glyph-name="Odieresis" unicode="&#xd6;" horiz-adv-x="1341" 
d="M545 -33q-193 0 -304.5 132t-111.5 358q0 172 58.5 341t158 302t243.5 215t304 82q194 0 304 -135.5t110 -358.5q0 -106 -24.5 -216t-69 -214t-112.5 -196t-150.5 -161t-187.5 -109t-218 -40zM565 29q133 0 252.5 77.5t201.5 201.5t130 281t49 316q0 196 -87.5 316
t-244.5 120q-132 0 -251.5 -78.5t-201 -204.5t-129.5 -284t-48 -317q0 -198 87.5 -313t241.5 -115zM1008 1649q0 31 21 51t54 20t53.5 -20t20.5 -51q0 -32 -20.5 -54t-53.5 -22t-54 22t-21 54zM745 1573q-31 0 -51 22t-20 54q0 31 19.5 51t51.5 20q35 0 55.5 -20t20.5 -51
q0 -32 -21 -54t-55 -22z" />
    <glyph glyph-name="multiply" unicode="&#xd7;" horiz-adv-x="1337" 
d="M47 4l-39 57l613 508l-396 510l58 49l397 -512l610 510l41 -57l-610 -506l393 -502l-57 -51l-393 506z" />
    <glyph glyph-name="Oslash" unicode="&#xd8;" horiz-adv-x="1341" 
d="M39 -4l158 160q-70 121 -70 301q0 172 58 341t156.5 302t242 215t303.5 82q195 0 305 -135l129 129l55 -25l-149 -156q73 -127 73 -307q0 -127 -33.5 -259t-100 -253t-156 -216t-212 -151.5t-257.5 -56.5q-198 0 -310 137l-133 -133zM266 236l864 954q-88 151 -268 151
q-132 0 -252 -78.5t-202 -204.5t-130.5 -284.5t-48.5 -316.5q0 -131 37 -221zM1157 1130l-862 -956q85 -145 266 -145q133 0 253 77.5t202 201.5t130.5 281t49.5 316q0 127 -39 225z" />
    <glyph glyph-name="Ugrave" unicode="&#xd9;" horiz-adv-x="1271" 
d="M203 524l157 711q5 17 5 39q0 37 -18.5 60t-41.5 30h266q-90 -27 -110 -129l-156 -715q-24 -117 -24 -205q0 -282 270 -282q173 0 287 105.5t155 303.5l162 781q6 24 6 49q0 37 -14.5 61t-34.5 31h238q-11 -3 -23 -10t-30 -21t-32.5 -41t-21.5 -63l-164 -772
q-54 -258 -192.5 -373t-370.5 -115q-178 0 -258 94t-80 254q0 95 25 207zM897 1438l-205 297h152z" />
    <glyph glyph-name="Uacute" unicode="&#xda;" horiz-adv-x="1271" 
d="M203 524l157 711q5 17 5 39q0 37 -18.5 60t-41.5 30h266q-90 -27 -110 -129l-156 -715q-24 -117 -24 -205q0 -282 270 -282q173 0 287 105.5t155 303.5l162 781q6 24 6 49q0 37 -14.5 61t-34.5 31h238q-11 -3 -23 -10t-30 -21t-32.5 -41t-21.5 -63l-164 -772
q-54 -258 -192.5 -373t-370.5 -115q-178 0 -258 94t-80 254q0 95 25 207zM805 1436l162 297h170z" />
    <glyph glyph-name="Ucircumflex" unicode="&#xdb;" horiz-adv-x="1271" 
d="M203 524l157 711q5 17 5 39q0 37 -18.5 60t-41.5 30h266q-90 -27 -110 -129l-156 -715q-24 -117 -24 -205q0 -282 270 -282q173 0 287 105.5t155 303.5l162 781q6 24 6 49q0 37 -14.5 61t-34.5 31h238q-11 -3 -23 -10t-30 -21t-32.5 -41t-21.5 -63l-164 -772
q-54 -258 -192.5 -373t-370.5 -115q-178 0 -258 94t-80 254q0 95 25 207zM600 1440l299 323l184 -323l-211 176z" />
    <glyph glyph-name="Udieresis" unicode="&#xdc;" horiz-adv-x="1271" 
d="M203 524l157 711q5 17 5 39q0 37 -18.5 60t-41.5 30h266q-90 -27 -110 -129l-156 -715q-24 -117 -24 -205q0 -282 270 -282q173 0 287 105.5t155 303.5l162 781q6 24 6 49q0 37 -14.5 61t-34.5 31h238q-11 -3 -23 -10t-30 -21t-32.5 -41t-21.5 -63l-164 -772
q-54 -258 -192.5 -373t-370.5 -115q-178 0 -258 94t-80 254q0 95 25 207zM975 1649q0 31 21 51t55 20q33 0 53 -20t20 -51q0 -32 -20 -54t-53 -22t-54.5 22.5t-21.5 53.5zM713 1573q-32 0 -52 22t-20 54q0 31 20 51t52 20q35 0 55 -20t20 -51q0 -32 -20.5 -54t-54.5 -22z
" />
    <glyph glyph-name="Yacute" unicode="&#xdd;" horiz-adv-x="1144" 
d="M444 147l95 449l-199 616q-40 114 -107 152h234q-39 -20 -39 -74q0 -23 16 -76l179 -536l428 530q69 86 69 123q0 22 -22 33h211q-78 -33 -179 -158l-493 -610l-92 -440q-8 -36 -8 -56q0 -43 17.5 -70t39.5 -30h-262q10 2 22.5 9t30 21.5t34 45t25.5 71.5zM737 1436
l162 297h170z" />
    <glyph glyph-name="Thorn" unicode="&#xde;" horiz-adv-x="1048" 
d="M287 0h-252q12 2 24 8.5t28 21.5t31 45t25 72l217 1018q17 74 17 107q0 37 -15 61t-36 31h256q-83 -25 -109 -154l-24 -116h202q179 0 271 -89.5t92 -232.5q0 -86 -33 -163.5t-95.5 -138.5t-161.5 -97.5t-222 -36.5q-30 0 -95 9.5t-114 21.5l-45 -211q-8 -40 -8 -62
q0 -87 47 -94zM436 1038l-133 -620q113 -21 209 -21q98 0 176 30.5t126.5 82.5t73.5 119t25 143q0 114 -73 190t-213 76h-191z" />
    <glyph glyph-name="germandbls" unicode="&#xdf;" horiz-adv-x="1175" 
d="M109 0l204 967q20 96 58.5 174t86 128.5t104.5 84.5t113 48.5t113 14.5q125 0 207 -66.5t82 -164.5q0 -64 -25.5 -117t-66.5 -88t-90 -64t-98.5 -51.5t-90.5 -44t-66.5 -48.5t-25.5 -58q0 -45 41.5 -84.5t100.5 -72.5t118 -70.5t100.5 -95t41.5 -128.5q0 -73 -37.5 -132
t-97.5 -94t-129 -53t-138 -18q-116 0 -188 34.5t-72 86.5q0 42 62 86v-12q0 -46 33 -77.5t78.5 -43.5t99.5 -12q47 0 96.5 10.5t98.5 32.5t80.5 64.5t31.5 99.5q0 44 -22 83t-57 67.5t-77.5 54.5t-85.5 51.5t-78 52t-57 61.5t-22 74q0 46 19.5 84t50.5 62.5t71.5 48t82.5 41
t82.5 42t71.5 50.5t50.5 66.5t19.5 90.5q0 82 -64.5 137.5t-158.5 55.5q-53 0 -103 -20.5t-98.5 -64.5t-87.5 -122.5t-61 -183.5l-205 -967q-17 -78 -45 -145t-68 -123.5t-97.5 -88.5t-125.5 -32q-40 0 -80 14.5t-61 40.5q43 -12 86 -12q120 0 189.5 88t105.5 258z" />
    <glyph glyph-name="agrave" unicode="&#xe0;" horiz-adv-x="974" 
d="M602 -31l55 267q-62 -118 -170.5 -192.5t-210.5 -74.5t-156 67.5t-54 188.5q0 132 51.5 268.5t133 242t190 172.5t216.5 67q26 0 76 -8q12 -2 29 -5.5t28 -5.5t21 -2q46 0 107 41l-166 -743q-23 -108 -23 -141q0 -35 14.5 -54t47.5 -28l14 -4zM315 41q84 0 181.5 80.5
t156.5 202.5q38 78 80.5 241.5t42.5 233.5q0 59 -29.5 89t-99.5 30q-83 0 -161 -46t-135 -118.5t-101 -160.5t-66 -174.5t-22 -156.5q0 -39 7.5 -75.5t23.5 -70.5t47.5 -54.5t74.5 -20.5zM733 1067l-205 297h152z" />
    <glyph glyph-name="aacute" unicode="&#xe1;" horiz-adv-x="974" 
d="M602 -31l55 267q-62 -118 -170.5 -192.5t-210.5 -74.5t-156 67.5t-54 188.5q0 132 51.5 268.5t133 242t190 172.5t216.5 67q26 0 76 -8q12 -2 29 -5.5t28 -5.5t21 -2q46 0 107 41l-166 -743q-23 -108 -23 -141q0 -35 14.5 -54t47.5 -28l14 -4zM315 41q84 0 181.5 80.5
t156.5 202.5q38 78 80.5 241.5t42.5 233.5q0 59 -29.5 89t-99.5 30q-83 0 -161 -46t-135 -118.5t-101 -160.5t-66 -174.5t-22 -156.5q0 -39 7.5 -75.5t23.5 -70.5t47.5 -54.5t74.5 -20.5zM567 1067l162 297h170z" />
    <glyph glyph-name="acircumflex" unicode="&#xe2;" horiz-adv-x="974" 
d="M602 -31l55 267q-62 -118 -170.5 -192.5t-210.5 -74.5t-156 67.5t-54 188.5q0 132 51.5 268.5t133 242t190 172.5t216.5 67q26 0 76 -8q12 -2 29 -5.5t28 -5.5t21 -2q46 0 107 41l-166 -743q-23 -108 -23 -141q0 -35 14.5 -54t47.5 -28l14 -4zM315 41q84 0 181.5 80.5
t156.5 202.5q38 78 80.5 241.5t42.5 233.5q0 59 -29.5 89t-99.5 30q-83 0 -161 -46t-135 -118.5t-101 -160.5t-66 -174.5t-22 -156.5q0 -39 7.5 -75.5t23.5 -70.5t47.5 -54.5t74.5 -20.5zM410 1071l299 324l184 -324l-211 176z" />
    <glyph glyph-name="atilde" unicode="&#xe3;" horiz-adv-x="974" 
d="M602 -31l55 267q-62 -118 -170.5 -192.5t-210.5 -74.5t-156 67.5t-54 188.5q0 132 51.5 268.5t133 242t190 172.5t216.5 67q26 0 76 -8q12 -2 29 -5.5t28 -5.5t21 -2q46 0 107 41l-166 -743q-23 -108 -23 -141q0 -35 14.5 -54t47.5 -28l14 -4zM315 41q84 0 181.5 80.5
t156.5 202.5q38 78 80.5 241.5t42.5 233.5q0 59 -29.5 89t-99.5 30q-83 0 -161 -46t-135 -118.5t-101 -160.5t-66 -174.5t-22 -156.5q0 -39 7.5 -75.5t23.5 -70.5t47.5 -54.5t74.5 -20.5zM424 1124q-14 32 -14 68q0 63 35.5 107t89.5 44q42 0 131.5 -34.5t126.5 -34.5
q44 0 66 35t22 96q14 -32 14 -68q0 -67 -32 -109t-87 -42q-44 0 -133.5 35.5t-126.5 35.5q-92 0 -92 -133z" />
    <glyph glyph-name="adieresis" unicode="&#xe4;" horiz-adv-x="974" 
d="M602 -31l55 267q-62 -118 -170.5 -192.5t-210.5 -74.5t-156 67.5t-54 188.5q0 132 51.5 268.5t133 242t190 172.5t216.5 67q26 0 76 -8q12 -2 29 -5.5t28 -5.5t21 -2q46 0 107 41l-166 -743q-23 -108 -23 -141q0 -35 14.5 -54t47.5 -28l14 -4zM315 41q84 0 181.5 80.5
t156.5 202.5q38 78 80.5 241.5t42.5 233.5q0 59 -29.5 89t-99.5 30q-83 0 -161 -46t-135 -118.5t-101 -160.5t-66 -174.5t-22 -156.5q0 -39 7.5 -75.5t23.5 -70.5t47.5 -54.5t74.5 -20.5zM739 1280q0 30 20.5 49t51.5 19q34 0 54 -18.5t20 -49.5t-20.5 -51.5t-53.5 -20.5
q-31 0 -51.5 20.5t-20.5 51.5zM418 1280q0 31 19.5 49.5t51.5 18.5t52 -18.5t20 -49.5t-20 -51.5t-52 -20.5t-51.5 20.5t-19.5 51.5z" />
    <glyph glyph-name="aring" unicode="&#xe5;" horiz-adv-x="974" 
d="M602 -31l55 267q-62 -118 -170.5 -192.5t-210.5 -74.5t-156 67.5t-54 188.5q0 132 51.5 268.5t133 242t190 172.5t216.5 67q26 0 76 -8q12 -2 29 -5.5t28 -5.5t21 -2q46 0 107 41l-166 -743q-23 -108 -23 -141q0 -35 14.5 -54t47.5 -28l14 -4zM315 41q84 0 181.5 80.5
t156.5 202.5q38 78 80.5 241.5t42.5 233.5q0 59 -29.5 89t-99.5 30q-83 0 -161 -46t-135 -118.5t-101 -160.5t-66 -174.5t-22 -156.5q0 -39 7.5 -75.5t23.5 -70.5t47.5 -54.5t74.5 -20.5zM477 1255q0 72 46.5 124.5t129.5 52.5t128.5 -52.5t45.5 -124.5q0 -71 -45.5 -122.5
t-128.5 -51.5t-129.5 51.5t-46.5 122.5zM653 1137q53 0 83 35t30 83t-29.5 83.5t-83.5 35.5q-55 0 -85.5 -35.5t-30.5 -83.5t31 -83t85 -35z" />
    <glyph glyph-name="ae" unicode="&#xe6;" horiz-adv-x="1415" 
d="M274 672l-133 -51q-10 20 -10 63q0 79 39 141t102.5 97t135.5 53t147 18q115 0 178.5 -58t63.5 -155q0 -25 -2 -37q93 113 208.5 181.5t223.5 68.5q83 0 130.5 -45t47.5 -114q0 -44 -13 -82.5t-33 -68t-55.5 -56t-68.5 -45t-86 -36t-93.5 -28.5t-104.5 -23t-106.5 -19
t-111.5 -17q-18 -71 -18 -148q0 -127 61 -196.5t158 -69.5q87 0 183.5 54t158.5 141q-27 -116 -145 -195.5t-246 -79.5q-95 0 -164.5 54.5t-93.5 156.5q-113 -207 -381 -207q-103 0 -164.5 52.5t-61.5 130.5q0 51 19 94.5t49 74.5t81 58t98.5 44t119 33.5t126.5 26t136 21.5
l37 180q10 52 10 80q0 87 -49 130.5t-135 43.5q-45 0 -91.5 -11.5t-88.5 -33.5t-69 -60.5t-27 -87.5q0 -28 10.5 -48.5t27.5 -24.5zM752 520q75 11 125 20t115 23.5t107 29.5t87.5 37.5t71 48.5t42.5 62t17 78q0 48 -33.5 79.5t-91.5 31.5q-122 0 -251.5 -119t-188.5 -291z
M596 260l39 184q-78 -12 -134 -22.5t-120 -26.5t-107 -36.5t-80 -47t-55 -63t-18 -80.5q0 -56 43.5 -93.5t120.5 -37.5q99 0 194.5 63t116.5 160z" />
    <glyph glyph-name="ccedilla" unicode="&#xe7;" horiz-adv-x="825" 
d="M244 -111l59 80q-121 15 -180.5 103t-59.5 239q0 118 49 241t127.5 220t186.5 159t217 62q90 0 136 -29t46 -81q0 -86 -86 -176q4 32 4 55q0 75 -29.5 119.5t-107.5 44.5q-74 0 -144 -36t-123 -97t-93 -137t-61 -160t-21 -162q0 -138 56 -214.5t175 -76.5
q89 0 183.5 54.5t156.5 142.5q-27 -113 -136 -191t-234 -84l-33 -43q65 -11 96 -43.5t31 -77.5q0 -66 -65 -116t-152 -50q-74 0 -123 39q35 -6 69 -6q84 0 127 39.5t43 91.5q0 33 -28 59.5t-86 30.5z" />
    <glyph glyph-name="egrave" unicode="&#xe8;" horiz-adv-x="864" 
d="M725 240q-27 -116 -145 -195.5t-246 -79.5q-118 0 -194.5 81.5t-76.5 232.5q0 103 36.5 209t99 195t140 159.5t166 110.5t171.5 40t130.5 -45t47.5 -114q0 -113 -110.5 -218t-268 -166t-305.5 -65q-6 -44 -6 -82q0 -108 56.5 -183t162.5 -75q87 0 183.5 54t158.5 141z
M178 444q124 4 257 51.5t230 133.5t97 184q0 49 -32 83t-89 34q-59 0 -129 -36t-136 -98t-120 -155t-78 -197zM678 1067l-205 297h152z" />
    <glyph glyph-name="eacute" unicode="&#xe9;" horiz-adv-x="864" 
d="M725 240q-27 -116 -145 -195.5t-246 -79.5q-118 0 -194.5 81.5t-76.5 232.5q0 103 36.5 209t99 195t140 159.5t166 110.5t171.5 40t130.5 -45t47.5 -114q0 -113 -110.5 -218t-268 -166t-305.5 -65q-6 -44 -6 -82q0 -108 56.5 -183t162.5 -75q87 0 183.5 54t158.5 141z
M178 444q124 4 257 51.5t230 133.5t97 184q0 49 -32 83t-89 34q-59 0 -129 -36t-136 -98t-120 -155t-78 -197zM553 1067l162 297h170z" />
    <glyph glyph-name="ecircumflex" unicode="&#xea;" horiz-adv-x="864" 
d="M725 240q-27 -116 -145 -195.5t-246 -79.5q-118 0 -194.5 81.5t-76.5 232.5q0 103 36.5 209t99 195t140 159.5t166 110.5t171.5 40t130.5 -45t47.5 -114q0 -113 -110.5 -218t-268 -166t-305.5 -65q-6 -44 -6 -82q0 -108 56.5 -183t162.5 -75q87 0 183.5 54t158.5 141z
M178 444q124 4 257 51.5t230 133.5t97 184q0 49 -32 83t-89 34q-59 0 -129 -36t-136 -98t-120 -155t-78 -197zM354 1071l299 324l185 -324l-211 176z" />
    <glyph glyph-name="edieresis" unicode="&#xeb;" horiz-adv-x="864" 
d="M725 240q-27 -116 -145 -195.5t-246 -79.5q-118 0 -194.5 81.5t-76.5 232.5q0 103 36.5 209t99 195t140 159.5t166 110.5t171.5 40t130.5 -45t47.5 -114q0 -113 -110.5 -218t-268 -166t-305.5 -65q-6 -44 -6 -82q0 -108 56.5 -183t162.5 -75q87 0 183.5 54t158.5 141z
M178 444q124 4 257 51.5t230 133.5t97 184q0 49 -32 83t-89 34q-59 0 -129 -36t-136 -98t-120 -155t-78 -197zM684 1280q0 30 20.5 49t51.5 19q34 0 53.5 -18.5t19.5 -49.5t-20 -51.5t-53 -20.5q-31 0 -51.5 20.5t-20.5 51.5zM362 1280q0 31 20 49.5t52 18.5t52 -18.5
t20 -49.5t-20 -51.5t-52 -20.5t-52 20.5t-20 51.5z" />
    <glyph glyph-name="igrave" unicode="&#xec;" horiz-adv-x="425" 
d="M57 0l174 797q9 41 9 61q0 64 -60 78l-8 2l197 57l-166 -772q-17 -81 -17 -131q0 -75 25 -92h-154zM397 1067l-204 297h151z" />
    <glyph glyph-name="iacute" unicode="&#xed;" horiz-adv-x="425" 
d="M57 0l174 797q9 41 9 61q0 64 -60 78l-8 2l197 57l-166 -772q-17 -81 -17 -131q0 -75 25 -92h-154zM231 1067l162 297h170z" />
    <glyph glyph-name="icircumflex" unicode="&#xee;" horiz-adv-x="425" 
d="M57 0l174 797q9 41 9 61q0 64 -60 78l-8 2l197 57l-166 -772q-17 -81 -17 -131q0 -75 25 -92h-154zM74 1071l299 324l184 -324l-211 176z" />
    <glyph glyph-name="idieresis" unicode="&#xef;" horiz-adv-x="425" 
d="M57 0l174 797q9 41 9 61q0 64 -60 78l-8 2l197 57l-166 -772q-17 -81 -17 -131q0 -75 25 -92h-154zM465 1280q0 30 20.5 49t51.5 19q34 0 53.5 -18.5t19.5 -49.5t-20 -51.5t-53 -20.5q-31 0 -51.5 20.5t-20.5 51.5zM143 1280q0 31 20 49.5t52 18.5t52 -18.5t20 -49.5
t-20 -51.5t-52 -20.5t-52 20.5t-20 51.5z" />
    <glyph glyph-name="eth" unicode="&#xf0;" horiz-adv-x="1048" 
d="M457 1067l-2 59l209 97q-68 71 -160 98l104 78q76 -42 146 -131l278 129l4 -62l-252 -114q158 -220 158 -453q0 -117 -27 -233t-78 -217t-119.5 -179t-157.5 -123t-185 -45q-125 0 -200 89.5t-75 248.5q0 134 48 261t124.5 219t177 148t201.5 56q72 0 127 -43t80 -129
q-36 200 -158 359zM393 31q112 0 216 107t163 257t59 285q0 113 -52 183.5t-144 70.5q-112 0 -216 -106.5t-163 -256t-59 -284.5q0 -115 52 -185.5t144 -70.5z" />
    <glyph glyph-name="ntilde" unicode="&#xf1;" horiz-adv-x="991" 
d="M57 0l172 797q7 28 7 55q0 73 -60 84l-10 2l201 57l-62 -254q24 41 62 82.5t89.5 80.5t118.5 64t136 25q176 0 176 -182q0 -54 -13 -117l-98 -471q-16 -73 -16 -127q0 -79 26 -96h-153l145 664q15 73 15 116q0 144 -125 144q-123 0 -247.5 -122.5t-160.5 -289.5
l-110 -512h-93zM432 1124q-14 32 -14 68q0 63 35.5 107t89.5 44q42 0 131.5 -34.5t126.5 -34.5q44 0 66 35t22 96q14 -32 14 -68q0 -67 -32 -109t-87 -42q-44 0 -133.5 35.5t-126.5 35.5q-92 0 -92 -133z" />
    <glyph glyph-name="ograve" unicode="&#xf2;" horiz-adv-x="948" 
d="M354 -33q-74 0 -130.5 31t-89.5 83.5t-49.5 115.5t-16.5 133q0 158 71 311.5t194 253.5t261 100q74 0 131 -31t90 -83t49.5 -115t16.5 -133q0 -169 -73.5 -323.5t-196 -248.5t-257.5 -94zM371 25q63 0 121.5 32t102.5 84.5t80 119t59 137.5t35.5 137t12.5 120
q0 52 -10.5 99.5t-32.5 90t-63.5 68t-97.5 25.5q-64 0 -123 -31.5t-103 -84t-80 -118.5t-59 -136.5t-35 -137t-12 -121.5q0 -51 11 -98.5t33.5 -90.5t64 -69t96.5 -26zM721 1067l-205 297h152z" />
    <glyph glyph-name="oacute" unicode="&#xf3;" horiz-adv-x="948" 
d="M354 -33q-74 0 -130.5 31t-89.5 83.5t-49.5 115.5t-16.5 133q0 158 71 311.5t194 253.5t261 100q74 0 131 -31t90 -83t49.5 -115t16.5 -133q0 -169 -73.5 -323.5t-196 -248.5t-257.5 -94zM371 25q63 0 121.5 32t102.5 84.5t80 119t59 137.5t35.5 137t12.5 120
q0 52 -10.5 99.5t-32.5 90t-63.5 68t-97.5 25.5q-64 0 -123 -31.5t-103 -84t-80 -118.5t-59 -136.5t-35 -137t-12 -121.5q0 -51 11 -98.5t33.5 -90.5t64 -69t96.5 -26zM555 1067l162 297h170z" />
    <glyph glyph-name="ocircumflex" unicode="&#xf4;" horiz-adv-x="948" 
d="M354 -33q-74 0 -130.5 31t-89.5 83.5t-49.5 115.5t-16.5 133q0 158 71 311.5t194 253.5t261 100q74 0 131 -31t90 -83t49.5 -115t16.5 -133q0 -169 -73.5 -323.5t-196 -248.5t-257.5 -94zM371 25q63 0 121.5 32t102.5 84.5t80 119t59 137.5t35.5 137t12.5 120
q0 52 -10.5 99.5t-32.5 90t-63.5 68t-97.5 25.5q-64 0 -123 -31.5t-103 -84t-80 -118.5t-59 -136.5t-35 -137t-12 -121.5q0 -51 11 -98.5t33.5 -90.5t64 -69t96.5 -26zM397 1071l299 324l185 -324l-211 176z" />
    <glyph glyph-name="otilde" unicode="&#xf5;" horiz-adv-x="948" 
d="M354 -33q-74 0 -130.5 31t-89.5 83.5t-49.5 115.5t-16.5 133q0 158 71 311.5t194 253.5t261 100q74 0 131 -31t90 -83t49.5 -115t16.5 -133q0 -169 -73.5 -323.5t-196 -248.5t-257.5 -94zM371 25q63 0 121.5 32t102.5 84.5t80 119t59 137.5t35.5 137t12.5 120
q0 52 -10.5 99.5t-32.5 90t-63.5 68t-97.5 25.5q-64 0 -123 -31.5t-103 -84t-80 -118.5t-59 -136.5t-35 -137t-12 -121.5q0 -51 11 -98.5t33.5 -90.5t64 -69t96.5 -26zM410 1124q-15 34 -15 68q0 63 35.5 107t89.5 44q42 0 131.5 -34.5t126.5 -34.5q44 0 66 35t22 96
q15 -35 15 -68q0 -67 -32 -109t-87 -42q-44 0 -133.5 35.5t-126.5 35.5q-92 0 -92 -133z" />
    <glyph glyph-name="odieresis" unicode="&#xf6;" horiz-adv-x="948" 
d="M354 -33q-74 0 -130.5 31t-89.5 83.5t-49.5 115.5t-16.5 133q0 158 71 311.5t194 253.5t261 100q74 0 131 -31t90 -83t49.5 -115t16.5 -133q0 -169 -73.5 -323.5t-196 -248.5t-257.5 -94zM371 25q63 0 121.5 32t102.5 84.5t80 119t59 137.5t35.5 137t12.5 120
q0 52 -10.5 99.5t-32.5 90t-63.5 68t-97.5 25.5q-64 0 -123 -31.5t-103 -84t-80 -118.5t-59 -136.5t-35 -137t-12 -121.5q0 -51 11 -98.5t33.5 -90.5t64 -69t96.5 -26zM727 1280q0 30 20.5 49t51.5 19q34 0 53.5 -18.5t19.5 -49.5t-20 -51.5t-53 -20.5q-31 0 -51.5 20.5
t-20.5 51.5zM406 1280q0 31 19.5 49.5t51.5 18.5t52 -18.5t20 -49.5t-20 -51.5t-52 -20.5t-51.5 20.5t-19.5 51.5z" />
    <glyph glyph-name="divide" unicode="&#xf7;" horiz-adv-x="1325" 
d="M106 537l15 73h1108l-15 -73h-1108zM659 975q0 37 25 64.5t68 27.5t67.5 -27.5t24.5 -64.5q0 -36 -24.5 -63t-67.5 -27t-68 27t-25 63zM494 170q0 36 25.5 63t68.5 27t66.5 -26.5t23.5 -63.5t-23.5 -63.5t-66.5 -26.5t-68.5 27t-25.5 63z" />
    <glyph glyph-name="oslash" unicode="&#xf8;" horiz-adv-x="948" 
d="M-14 -10l120 121q-38 75 -38 198q0 134 47.5 261t124.5 219t177 148t201 56q129 0 203 -86l105 103l51 -23l-125 -125q43 -79 43 -205q0 -134 -48 -261.5t-125 -220t-177.5 -148.5t-202.5 -56q-138 0 -207 90l-96 -92zM174 188l590 656q-50 90 -162 90t-216 -106.5
t-163 -256t-59 -284.5q0 -60 10 -99zM784 784l-589 -655q49 -98 165 -98q85 0 167.5 64t141 160t94.5 210.5t36 214.5q0 42 -15 104z" />
    <glyph glyph-name="ugrave" unicode="&#xf9;" horiz-adv-x="991" 
d="M113 270l104 492q12 64 12 88q0 75 -57 86l-12 2l200 57l-141 -647q-24 -120 -24 -170q0 -141 120 -141q123 0 251 126t163 290l66 317q12 54 12 86q0 69 -59 80l-11 2l201 57q-147 -675 -180 -827q-8 -40 -8 -59q0 -71 51 -80l12 -2l-186 -58l49 252
q-66 -109 -176.5 -179.5t-204.5 -70.5q-92 0 -143.5 47.5t-51.5 135.5q0 53 13 116zM639 1067l-205 297h152z" />
    <glyph glyph-name="uacute" unicode="&#xfa;" horiz-adv-x="991" 
d="M113 270l104 492q12 64 12 88q0 75 -57 86l-12 2l200 57l-141 -647q-24 -120 -24 -170q0 -141 120 -141q123 0 251 126t163 290l66 317q12 54 12 86q0 69 -59 80l-11 2l201 57q-147 -675 -180 -827q-8 -40 -8 -59q0 -71 51 -80l12 -2l-186 -58l49 252
q-66 -109 -176.5 -179.5t-204.5 -70.5q-92 0 -143.5 47.5t-51.5 135.5q0 53 13 116zM555 1067l162 297h170z" />
    <glyph glyph-name="ucircumflex" unicode="&#xfb;" horiz-adv-x="991" 
d="M113 270l104 492q12 64 12 88q0 75 -57 86l-12 2l200 57l-141 -647q-24 -120 -24 -170q0 -141 120 -141q123 0 251 126t163 290l66 317q12 54 12 86q0 69 -59 80l-11 2l201 57q-147 -675 -180 -827q-8 -40 -8 -59q0 -71 51 -80l12 -2l-186 -58l49 252
q-66 -109 -176.5 -179.5t-204.5 -70.5q-92 0 -143.5 47.5t-51.5 135.5q0 53 13 116zM356 1071l299 324l185 -324l-211 176z" />
    <glyph glyph-name="udieresis" unicode="&#xfc;" horiz-adv-x="991" 
d="M113 270l104 492q12 64 12 88q0 75 -57 86l-12 2l200 57l-141 -647q-24 -120 -24 -170q0 -141 120 -141q123 0 251 126t163 290l66 317q12 54 12 86q0 69 -59 80l-11 2l201 57q-147 -675 -180 -827q-8 -40 -8 -59q0 -71 51 -80l12 -2l-186 -58l49 252
q-66 -109 -176.5 -179.5t-204.5 -70.5q-92 0 -143.5 47.5t-51.5 135.5q0 53 13 116zM748 1280q0 30 20 49t51 19q34 0 54 -18.5t20 -49.5t-20.5 -51.5t-53.5 -20.5q-31 0 -51 20.5t-20 51.5zM426 1280q0 31 20 49.5t52 18.5t51.5 -18.5t19.5 -49.5t-19.5 -51.5t-51.5 -20.5
t-52 20.5t-20 51.5z" />
    <glyph glyph-name="yacute" unicode="&#xfd;" horiz-adv-x="909" 
d="M332 0l-150 782q-15 80 -40 111t-83 43l-10 2l189 57l168 -893q70 93 170 270.5t161 317.5q58 137 58 199q0 57 -47 78h192q-9 -27 -137 -299q-171 -361 -402 -674q-131 -178 -249.5 -286.5t-194.5 -108.5q-52 0 -78 27t-26 65q0 15 8 39q29 -29 94 -29q51 0 110.5 34
t114.5 90t88 95t64 80zM514 1067l162 297h170z" />
    <glyph glyph-name="thorn" unicode="&#xfe;" horiz-adv-x="1009" 
d="M74 -391h-94q68 319 130.5 607.5t96.5 444t62 282t40.5 188t18.5 96.5q6 30 6 55q0 35 -16 57.5t-46 26.5l-12 2l201 57l-150 -698q30 49 69 93.5t90 84.5t114 64t129 24q110 0 169.5 -81.5t59.5 -211.5q0 -96 -24 -198t-72 -197t-112 -171t-152.5 -121.5t-186.5 -45.5
q-68 0 -130.5 38t-86.5 101zM205 209q0 -72 56 -128t142 -56q69 0 131.5 29.5t109.5 80.5t85 117t62 139.5t36.5 148.5t12.5 144q0 108 -42.5 175t-125.5 67q-110 0 -215.5 -101t-169.5 -254q-29 -71 -55.5 -184t-26.5 -178z" />
    <glyph glyph-name="ydieresis" unicode="&#xff;" horiz-adv-x="909" 
d="M332 0l-150 782q-15 80 -40 111t-83 43l-10 2l189 57l168 -893q70 93 170 270.5t161 317.5q58 137 58 199q0 57 -47 78h192q-9 -27 -137 -299q-171 -361 -402 -674q-131 -178 -249.5 -286.5t-194.5 -108.5q-52 0 -78 27t-26 65q0 15 8 39q29 -29 94 -29q51 0 110.5 34
t114.5 90t88 95t64 80zM659 1280q0 30 20.5 49t51.5 19q34 0 54 -18.5t20 -49.5t-20.5 -51.5t-53.5 -20.5q-31 0 -51.5 20.5t-20.5 51.5zM338 1280q0 31 20 49.5t52 18.5t51.5 -18.5t19.5 -49.5t-19.5 -51.5t-51.5 -20.5t-52 20.5t-20 51.5z" />
    <glyph glyph-name="Amacron" unicode="&#x100;" horiz-adv-x="1327" 
d="M221 0h-221q9 3 25 16.5t55.5 64t89.5 128.5l762 1210l137 -1208q8 -78 27 -129t33.5 -66t25.5 -16h-237q10 3 20 12t21.5 39t13.5 76q0 51 -4 84l-31 262h-524l-156 -248q-68 -110 -68 -172q0 -25 10 -38t21 -15zM451 535h481l-74 651zM651 1593l11 68h598l-11 -68h-598
z" />
    <glyph glyph-name="amacron" unicode="&#x101;" horiz-adv-x="974" 
d="M602 -31l55 267q-62 -118 -170.5 -192.5t-210.5 -74.5t-156 67.5t-54 188.5q0 132 51.5 268.5t133 242t190 172.5t216.5 67q26 0 76 -8q12 -2 29 -5.5t28 -5.5t21 -2q46 0 107 41l-166 -743q-23 -108 -23 -141q0 -35 14.5 -54t47.5 -28l14 -4zM315 41q84 0 181.5 80.5
t156.5 202.5q38 78 80.5 241.5t42.5 233.5q0 59 -29.5 89t-99.5 30q-83 0 -161 -46t-135 -118.5t-101 -160.5t-66 -174.5t-22 -156.5q0 -39 7.5 -75.5t23.5 -70.5t47.5 -54.5t74.5 -20.5zM344 1225l10 67h598l-10 -67h-598z" />
    <glyph glyph-name="Abreve" unicode="&#x102;" horiz-adv-x="1327" 
d="M221 0h-221q9 3 25 16.5t55.5 64t89.5 128.5l762 1210l137 -1208q8 -78 27 -129t33.5 -66t25.5 -16h-237q10 3 20 12t21.5 39t13.5 76q0 51 -4 84l-31 262h-524l-156 -248q-68 -110 -68 -172q0 -25 10 -38t21 -15zM451 535h481l-74 651zM791 1769q7 -71 54 -109t113 -38
t129.5 38.5t100.5 108.5q-25 -119 -97.5 -184t-152.5 -65q-67 0 -111.5 46t-44.5 130q0 32 9 73z" />
    <glyph glyph-name="abreve" unicode="&#x103;" horiz-adv-x="974" 
d="M602 -31l55 267q-62 -118 -170.5 -192.5t-210.5 -74.5t-156 67.5t-54 188.5q0 132 51.5 268.5t133 242t190 172.5t216.5 67q26 0 76 -8q12 -2 29 -5.5t28 -5.5t21 -2q46 0 107 41l-166 -743q-23 -108 -23 -141q0 -35 14.5 -54t47.5 -28l14 -4zM315 41q84 0 181.5 80.5
t156.5 202.5q38 78 80.5 241.5t42.5 233.5q0 59 -29.5 89t-99.5 30q-83 0 -161 -46t-135 -118.5t-101 -160.5t-66 -174.5t-22 -156.5q0 -39 7.5 -75.5t23.5 -70.5t47.5 -54.5t74.5 -20.5zM512 1401q7 -71 54.5 -109.5t113.5 -38.5t129 38.5t100 109.5q-25 -119 -97.5 -184.5
t-152.5 -65.5q-67 0 -111 46t-44 130q0 38 8 74z" />
    <glyph glyph-name="Aogonek" unicode="&#x104;" horiz-adv-x="1327" 
d="M219 0h-219q9 3 26 17.5t56.5 64.5t87.5 127l762 1210l137 -1208q8 -76 26.5 -127t32.5 -66t25 -18h-37q-114 0 -200.5 -65t-86.5 -152q0 -38 26 -57t67 -19q52 0 131 31q-30 -50 -79.5 -77.5t-101.5 -27.5q-55 0 -92 30t-37 85q0 87 88 178q26 27 64.5 57t50.5 42
q24 24 27 102q0 51 -4 84l-31 262h-524l-156 -248q-68 -110 -68 -172q0 -24 9 -37.5t20 -15.5zM451 535h481l-74 651z" />
    <glyph glyph-name="aogonek" unicode="&#x105;" horiz-adv-x="974" 
d="M606 -8l51 244q-62 -118 -170.5 -192.5t-210.5 -74.5t-156 67.5t-54 188.5q0 132 51.5 268.5t133 242t190 172.5t216.5 67q26 0 76 -8q12 -2 29 -5.5t28 -5.5t21 -2q46 0 107 41l-166 -743q-23 -108 -23 -141q0 -35 14.5 -54t47.5 -28l14 -4q-119 -32 -187 -91
q-83 -74 -83 -147q0 -80 88 -80q52 0 131 31q-30 -50 -79.5 -77.5t-101.5 -27.5q-55 0 -92 30t-37 85q0 58 42 123t120 121zM315 41q84 0 181.5 80.5t156.5 202.5q38 78 80.5 241.5t42.5 233.5q0 59 -29.5 89t-99.5 30q-83 0 -161 -46t-135 -118.5t-101 -160.5t-66 -174.5
t-22 -156.5q0 -39 7.5 -75.5t23.5 -70.5t47.5 -54.5t74.5 -20.5z" />
    <glyph glyph-name="Cacute" unicode="&#x106;" horiz-adv-x="1118" 
d="M987 231l-22 -108q-72 -74 -180.5 -115t-223.5 -41q-184 0 -305 135.5t-121 376.5q0 114 30.5 238t94.5 245t151.5 217.5t213 156t268.5 59.5q88 0 164 -23t119 -59l-48 -215q-20 239 -254 239q-90 0 -182 -44t-170.5 -125t-140.5 -185.5t-97.5 -235t-35.5 -264.5
q0 -205 99 -323.5t255 -118.5q212 0 385 190zM784 1436l162 297h170z" />
    <glyph glyph-name="cacute" unicode="&#x107;" horiz-adv-x="825" 
d="M735 240q-27 -117 -142.5 -196t-242.5 -79q-144 0 -215.5 90t-71.5 256q0 118 49 241t127.5 220t186.5 159t217 62q90 0 136 -29t46 -81q0 -86 -86 -176q4 32 4 55q0 75 -29.5 119.5t-107.5 44.5q-74 0 -144 -36t-123 -97t-93 -137t-61 -160t-21 -162q0 -138 56 -214.5
t175 -76.5q89 0 183.5 54.5t156.5 142.5zM565 1067l162 297h170z" />
    <glyph glyph-name="Ccircumflex" unicode="&#x108;" horiz-adv-x="1118" 
d="M987 231l-22 -108q-72 -74 -180.5 -115t-223.5 -41q-184 0 -305 135.5t-121 376.5q0 114 30.5 238t94.5 245t151.5 217.5t213 156t268.5 59.5q88 0 164 -23t119 -59l-48 -215q-20 239 -254 239q-90 0 -182 -44t-170.5 -125t-140.5 -185.5t-97.5 -235t-35.5 -264.5
q0 -205 99 -323.5t255 -118.5q212 0 385 190zM623 1440l299 323l184 -323l-211 176z" />
    <glyph glyph-name="ccircumflex" unicode="&#x109;" horiz-adv-x="825" 
d="M735 240q-27 -117 -142.5 -196t-242.5 -79q-144 0 -215.5 90t-71.5 256q0 118 49 241t127.5 220t186.5 159t217 62q90 0 136 -29t46 -81q0 -86 -86 -176q4 32 4 55q0 75 -29.5 119.5t-107.5 44.5q-74 0 -144 -36t-123 -97t-93 -137t-61 -160t-21 -162q0 -138 56 -214.5
t175 -76.5q89 0 183.5 54.5t156.5 142.5zM397 1071l299 324l185 -324l-211 176z" />
    <glyph glyph-name="Cdotaccent" unicode="&#x10a;" horiz-adv-x="1118" 
d="M987 231l-22 -108q-72 -74 -180.5 -115t-223.5 -41q-184 0 -305 135.5t-121 376.5q0 114 30.5 238t94.5 245t151.5 217.5t213 156t268.5 59.5q88 0 164 -23t119 -59l-48 -215q-20 239 -254 239q-90 0 -182 -44t-170.5 -125t-140.5 -185.5t-97.5 -235t-35.5 -264.5
q0 -205 99 -323.5t255 -118.5q212 0 385 190zM821 1647q0 33 19.5 54t56.5 21q35 0 55.5 -21.5t20.5 -53.5t-20.5 -54t-55.5 -22q-37 0 -56.5 21.5t-19.5 54.5z" />
    <glyph glyph-name="cdotaccent" unicode="&#x10b;" horiz-adv-x="825" 
d="M735 240q-27 -117 -142.5 -196t-242.5 -79q-144 0 -215.5 90t-71.5 256q0 118 49 241t127.5 220t186.5 159t217 62q90 0 136 -29t46 -81q0 -86 -86 -176q4 32 4 55q0 75 -29.5 119.5t-107.5 44.5q-74 0 -144 -36t-123 -97t-93 -137t-61 -160t-21 -162q0 -138 56 -214.5
t175 -76.5q89 0 183.5 54.5t156.5 142.5zM573 1278q0 33 19.5 54.5t56.5 21.5q35 0 55.5 -22t20.5 -54t-20.5 -54t-55.5 -22q-37 0 -56.5 21.5t-19.5 54.5z" />
    <glyph glyph-name="Ccaron" unicode="&#x10c;" horiz-adv-x="1118" 
d="M987 231l-22 -108q-72 -74 -180.5 -115t-223.5 -41q-184 0 -305 135.5t-121 376.5q0 114 30.5 238t94.5 245t151.5 217.5t213 156t268.5 59.5q88 0 164 -23t119 -59l-48 -215q-20 239 -254 239q-90 0 -182 -44t-170.5 -125t-140.5 -185.5t-97.5 -235t-35.5 -264.5
q0 -205 99 -323.5t255 -118.5q212 0 385 190zM868 1460l-184 324l211 -176l272 176z" />
    <glyph glyph-name="ccaron" unicode="&#x10d;" horiz-adv-x="825" 
d="M735 240q-27 -117 -142.5 -196t-242.5 -79q-144 0 -215.5 90t-71.5 256q0 118 49 241t127.5 220t186.5 159t217 62q90 0 136 -29t46 -81q0 -86 -86 -176q4 32 4 55q0 75 -29.5 119.5t-107.5 44.5q-74 0 -144 -36t-123 -97t-93 -137t-61 -160t-21 -162q0 -138 56 -214.5
t175 -76.5q89 0 183.5 54.5t156.5 142.5zM594 1092l-184 323l211 -176l272 176z" />
    <glyph glyph-name="Dcaron" unicode="&#x10e;" horiz-adv-x="1282" 
d="M145 184l213 1012q9 52 9 66q0 85 -54 102h420q126 0 225 -44.5t159.5 -121.5t92 -174.5t31.5 -208.5q0 -115 -30.5 -230t-92.5 -220.5t-148 -186.5t-206.5 -129.5t-257.5 -48.5h-473q10 2 22 9.5t29 25.5t33 56.5t28 92.5zM219 59h287q115 0 216.5 44t175.5 119
t127.5 173t80.5 207t27 219q0 99 -24 184.5t-71.5 153.5t-126.5 107t-182 39h-248zM766 1460l-184 324l211 -176l272 176z" />
    <glyph glyph-name="dcaron" unicode="&#x10f;" horiz-adv-x="1052" 
d="M645 -31l55 269q-79 -128 -183 -198.5t-222 -70.5q-110 0 -167.5 81t-57.5 212q0 118 45.5 247t122 236.5t188 177.5t231.5 70q138 0 183 -110l71 344q4 24 4 43q0 85 -67 96l-12 2l213 57l-256 -1181q-17 -83 -17 -123q0 -84 66 -96l12 -2zM332 37q111 0 218 96t171 248
q33 77 59.5 195t26.5 178q0 79 -37.5 130.5t-120.5 51.5q-102 0 -194 -64.5t-152 -162t-95.5 -209.5t-35.5 -211q0 -117 41.5 -184.5t118.5 -67.5zM1071 1067l96 330h119z" />
    <glyph glyph-name="Dcroat" unicode="&#x110;" horiz-adv-x="1282" 
d="M145 184l99 469h-181l13 60h180l102 483q9 52 9 66q0 85 -54 102h422q126 0 224.5 -44.5t159 -121.5t91.5 -174t31 -209q0 -115 -31 -230.5t-93.5 -220.5t-149 -186t-207.5 -129.5t-258 -48.5h-469q10 2 22 9.5t29 25.5t33 56.5t28 92.5zM219 59h287q116 0 218 45.5
t175.5 122t127 175t80 206t26.5 213.5q0 99 -24 184.5t-71.5 153.5t-126.5 107t-182 39h-248l-125 -592h275l-13 -60h-274z" />
    <glyph glyph-name="dcroat" unicode="&#x111;" horiz-adv-x="1009" 
d="M645 -31l55 269q-79 -128 -183 -198.5t-222 -70.5q-110 0 -167.5 81t-57.5 212q0 118 45.5 247t122 236.5t188 177.5t231.5 70q138 0 183 -110q40 176 57 274h-444l10 51h444l4 19q4 24 4 43q0 85 -67 96l-12 2l213 57l-48 -217h134l-11 -51h-135l-196 -913
q-17 -83 -17 -123q0 -84 66 -96l12 -2zM332 37q111 0 218 96t171 248q33 77 59.5 195t26.5 178q0 79 -37.5 130.5t-120.5 51.5q-102 0 -194 -64.5t-152 -162t-95.5 -209.5t-35.5 -211q0 -117 41.5 -184.5t118.5 -67.5z" />
    <glyph glyph-name="Emacron" unicode="&#x112;" horiz-adv-x="1064" 
d="M244 61h407q110 0 165.5 33.5t103.5 126.5l-46 -221h-843q13 2 27 9t35.5 24t40.5 52.5t30 84.5l221 1032q8 40 8 60q0 44 -18 69.5t-43 32.5h792l-41 -188q0 27 -4.5 47t-11 34t-19.5 23t-24 14t-32 7.5t-36.5 3t-44.5 0.5h-407l-119 -574h348q124 0 158 60l-35 -185
q-1 23 -13 38t-36 20t-40.5 6.5t-45.5 1.5h-348zM483 1593l11 68h598l-11 -68h-598z" />
    <glyph glyph-name="emacron" unicode="&#x113;" horiz-adv-x="864" 
d="M725 240q-27 -116 -145 -195.5t-246 -79.5q-118 0 -194.5 81.5t-76.5 232.5q0 103 36.5 209t99 195t140 159.5t166 110.5t171.5 40t130.5 -45t47.5 -114q0 -113 -110.5 -218t-268 -166t-305.5 -65q-6 -44 -6 -82q0 -108 56.5 -183t162.5 -75q87 0 183.5 54t158.5 141z
M178 444q124 4 257 51.5t230 133.5t97 184q0 49 -32 83t-89 34q-59 0 -129 -36t-136 -98t-120 -155t-78 -197zM340 1225l10 67h598l-10 -67h-598z" />
    <glyph glyph-name="Ebreve" unicode="&#x114;" horiz-adv-x="1064" 
d="M244 61h407q110 0 165.5 33.5t103.5 126.5l-46 -221h-843q13 2 27 9t35.5 24t40.5 52.5t30 84.5l221 1032q8 40 8 60q0 44 -18 69.5t-43 32.5h792l-41 -188q0 27 -4.5 47t-11 34t-19.5 23t-24 14t-32 7.5t-36.5 3t-44.5 0.5h-407l-119 -574h348q124 0 158 60l-35 -185
q-1 23 -13 38t-36 20t-40.5 6.5t-45.5 1.5h-348zM649 1769q7 -71 54.5 -109t113.5 -38t129.5 38.5t100.5 108.5q-25 -119 -97.5 -184t-152.5 -65q-67 0 -111.5 46t-44.5 130q0 37 8 73z" />
    <glyph glyph-name="ebreve" unicode="&#x115;" horiz-adv-x="864" 
d="M725 240q-27 -116 -145 -195.5t-246 -79.5q-118 0 -194.5 81.5t-76.5 232.5q0 103 36.5 209t99 195t140 159.5t166 110.5t171.5 40t130.5 -45t47.5 -114q0 -113 -110.5 -218t-268 -166t-305.5 -65q-6 -44 -6 -82q0 -108 56.5 -183t162.5 -75q87 0 183.5 54t158.5 141z
M178 444q124 4 257 51.5t230 133.5t97 184q0 49 -32 83t-89 34q-59 0 -129 -36t-136 -98t-120 -155t-78 -197zM471 1401q7 -71 54.5 -109.5t113.5 -38.5t129 38.5t100 109.5q-25 -119 -97.5 -184.5t-152.5 -65.5q-67 0 -111 46t-44 130q0 38 8 74z" />
    <glyph glyph-name="Edotaccent" unicode="&#x116;" horiz-adv-x="1064" 
d="M244 61h407q110 0 165.5 33.5t103.5 126.5l-46 -221h-843q13 2 27 9t35.5 24t40.5 52.5t30 84.5l221 1032q8 40 8 60q0 44 -18 69.5t-43 32.5h792l-41 -188q0 27 -4.5 47t-11 34t-19.5 23t-24 14t-32 7.5t-36.5 3t-44.5 0.5h-407l-119 -574h348q124 0 158 60l-35 -185
q-1 23 -13 38t-36 20t-40.5 6.5t-45.5 1.5h-348zM741 1647q0 33 19.5 54t56.5 21q35 0 55.5 -21.5t20.5 -53.5t-20.5 -54t-55.5 -22q-37 0 -56.5 21.5t-19.5 54.5z" />
    <glyph glyph-name="edotaccent" unicode="&#x117;" horiz-adv-x="864" 
d="M725 240q-27 -116 -145 -195.5t-246 -79.5q-118 0 -194.5 81.5t-76.5 232.5q0 103 36.5 209t99 195t140 159.5t166 110.5t171.5 40t130.5 -45t47.5 -114q0 -113 -110.5 -218t-268 -166t-305.5 -65q-6 -44 -6 -82q0 -108 56.5 -183t162.5 -75q87 0 183.5 54t158.5 141z
M178 444q124 4 257 51.5t230 133.5t97 184q0 49 -32 83t-89 34q-59 0 -129 -36t-136 -98t-120 -155t-78 -197zM561 1278q0 33 19.5 54.5t56.5 21.5q35 0 55.5 -22t20.5 -54t-20.5 -54t-55.5 -22q-37 0 -56.5 21.5t-19.5 54.5z" />
    <glyph glyph-name="Eogonek" unicode="&#x118;" horiz-adv-x="1064" 
d="M244 61h407q110 0 165.5 33.5t103.5 126.5l-46 -221q-97 -7 -174 -74t-77 -139q0 -80 88 -80q52 0 131 31q-30 -51 -79 -78t-101 -27q-55 0 -92.5 30t-37.5 85q0 63 49 132.5t140 119.5h-688q13 2 27.5 9.5t35 24.5t39 52t29.5 84l221 1032q8 40 8 60q0 44 -18 69.5
t-43 32.5h792l-41 -188q0 27 -4.5 47t-11 34t-19.5 23t-24 14t-32 7.5t-36.5 3t-44.5 0.5h-407l-119 -574h348q124 0 158 60l-35 -185q-1 23 -13 38t-36 20t-40.5 6.5t-45.5 1.5h-348z" />
    <glyph glyph-name="eogonek" unicode="&#x119;" horiz-adv-x="864" 
d="M543 -262q-30 -50 -79.5 -77.5t-101.5 -27.5q-55 0 -92 30t-37 85q0 52 33.5 109.5t95.5 109.5q-10 -2 -28 -2q-118 0 -194.5 81.5t-76.5 232.5q0 103 36.5 209t99 195t140 159.5t166 110.5t171.5 40t130.5 -45t47.5 -114q0 -113 -110.5 -218t-268 -166t-305.5 -65
q-6 -44 -6 -82q0 -108 56.5 -183t162.5 -75q87 0 183.5 54t158.5 141q-29 -123 -158 -203q-30 -19 -66 -39t-48 -27q-52 -33 -90.5 -81.5t-38.5 -102.5q0 -80 88 -80q52 0 131 31zM178 444q124 4 257 51.5t230 133.5t97 184q0 49 -32 83t-89 34q-59 0 -129 -36t-136 -98
t-120 -155t-78 -197z" />
    <glyph glyph-name="Ecaron" unicode="&#x11a;" horiz-adv-x="1064" 
d="M244 61h407q110 0 165.5 33.5t103.5 126.5l-46 -221h-843q13 2 27 9t35.5 24t40.5 52.5t30 84.5l221 1032q8 40 8 60q0 44 -18 69.5t-43 32.5h792l-41 -188q0 27 -4.5 47t-11 34t-19.5 23t-24 14t-32 7.5t-36.5 3t-44.5 0.5h-407l-119 -574h348q124 0 158 60l-35 -185
q-1 23 -13 38t-36 20t-40.5 6.5t-45.5 1.5h-348zM766 1460l-184 324l211 -176l272 176z" />
    <glyph glyph-name="ecaron" unicode="&#x11b;" horiz-adv-x="864" 
d="M725 240q-27 -116 -145 -195.5t-246 -79.5q-118 0 -194.5 81.5t-76.5 232.5q0 103 36.5 209t99 195t140 159.5t166 110.5t171.5 40t130.5 -45t47.5 -114q0 -113 -110.5 -218t-268 -166t-305.5 -65q-6 -44 -6 -82q0 -108 56.5 -183t162.5 -75q87 0 183.5 54t158.5 141z
M178 444q124 4 257 51.5t230 133.5t97 184q0 49 -32 83t-89 34q-59 0 -129 -36t-136 -98t-120 -155t-78 -197zM616 1092l-184 323l211 -176l272 176z" />
    <glyph glyph-name="Gcircumflex" unicode="&#x11c;" horiz-adv-x="1247" 
d="M897 96l78 367q6 27 6 55q0 79 -63 100h268q-86 -26 -109 -143l-86 -401q-89 -50 -198 -78.5t-207 -28.5q-197 0 -323 134.5t-126 379.5q0 121 34 248t103.5 246t163.5 213t225 150.5t277 56.5q90 0 180 -25t133 -61l-47 -213q-6 122 -84 181.5t-202 59.5
q-93 0 -188.5 -38t-182.5 -113t-155.5 -177t-109 -241t-40.5 -293q0 -217 99 -333.5t271 -116.5q60 0 144.5 20t138.5 51zM694 1440l299 323l185 -323l-211 176z" />
    <glyph glyph-name="gcircumflex" unicode="&#x11d;" horiz-adv-x="927" 
d="M424 102l31 -8q55 -15 92 -26.5t82.5 -32t72 -42.5t45.5 -55t19 -73q0 -57 -33 -104.5t-83.5 -77t-114 -49.5t-122 -28.5t-110.5 -8.5q-178 0 -284.5 53.5t-106.5 148.5q0 85 89 156t243 115q-82 21 -123 54t-41 71q0 42 56.5 93t139.5 85q-76 37 -114.5 101.5
t-38.5 141.5q0 107 59 195.5t148.5 135t185.5 46.5q70 0 129 -26q24 -4 125 -4q126 0 199 36l-25 -94h-221q44 -40 67 -98.5t23 -118.5q0 -66 -28.5 -128t-79.5 -110t-126.5 -77t-162.5 -29q-38 0 -72 6q-63 -26 -116.5 -64t-53.5 -69q0 -34 62 -58.5t188 -56.5zM430 401
q123 0 203 89t80 217q0 104 -56.5 164.5t-152.5 60.5q-129 0 -207 -85.5t-78 -215.5q0 -43 11 -81.5t34 -73t66 -55t100 -20.5zM328 43q-147 -38 -233.5 -92.5t-86.5 -124.5q0 -72 87 -118t235 -46q161 0 252.5 49t91.5 121q0 41 -24 74t-73 57.5t-107.5 43t-141.5 36.5z
M319 1071l299 324l185 -324l-211 176z" />
    <glyph glyph-name="Gbreve" unicode="&#x11e;" horiz-adv-x="1247" 
d="M897 96l78 367q6 27 6 55q0 79 -63 100h268q-86 -26 -109 -143l-86 -401q-89 -50 -198 -78.5t-207 -28.5q-197 0 -323 134.5t-126 379.5q0 121 34 248t103.5 246t163.5 213t225 150.5t277 56.5q90 0 180 -25t133 -61l-47 -213q-6 122 -84 181.5t-202 59.5
q-93 0 -188.5 -38t-182.5 -113t-155.5 -177t-109 -241t-40.5 -293q0 -217 99 -333.5t271 -116.5q60 0 144.5 20t138.5 51zM758 1769q7 -71 54.5 -109t113.5 -38t129 38t100 109q-25 -119 -97.5 -184t-152.5 -65q-67 0 -111 46t-44 130q0 37 8 73z" />
    <glyph glyph-name="gbreve" unicode="&#x11f;" horiz-adv-x="927" 
d="M424 102l31 -8q55 -15 92 -26.5t82.5 -32t72 -42.5t45.5 -55t19 -73q0 -57 -33 -104.5t-83.5 -77t-114 -49.5t-122 -28.5t-110.5 -8.5q-178 0 -284.5 53.5t-106.5 148.5q0 85 89 156t243 115q-82 21 -123 54t-41 71q0 42 56.5 93t139.5 85q-76 37 -114.5 101.5
t-38.5 141.5q0 107 59 195.5t148.5 135t185.5 46.5q70 0 129 -26q24 -4 125 -4q126 0 199 36l-25 -94h-221q44 -40 67 -98.5t23 -118.5q0 -66 -28.5 -128t-79.5 -110t-126.5 -77t-162.5 -29q-38 0 -72 6q-63 -26 -116.5 -64t-53.5 -69q0 -34 62 -58.5t188 -56.5zM430 401
q123 0 203 89t80 217q0 104 -56.5 164.5t-152.5 60.5q-129 0 -207 -85.5t-78 -215.5q0 -43 11 -81.5t34 -73t66 -55t100 -20.5zM328 43q-147 -38 -233.5 -92.5t-86.5 -124.5q0 -72 87 -118t235 -46q161 0 252.5 49t91.5 121q0 41 -24 74t-73 57.5t-107.5 43t-141.5 36.5z
M455 1401q7 -71 54.5 -109.5t113.5 -38.5t129 38.5t100 109.5q-25 -119 -97.5 -184.5t-152.5 -65.5q-67 0 -111.5 46t-44.5 130q0 33 9 74z" />
    <glyph glyph-name="Gdotaccent" unicode="&#x120;" horiz-adv-x="1247" 
d="M897 96l78 367q6 27 6 55q0 79 -63 100h268q-86 -26 -109 -143l-86 -401q-89 -50 -198 -78.5t-207 -28.5q-197 0 -323 134.5t-126 379.5q0 121 34 248t103.5 246t163.5 213t225 150.5t277 56.5q90 0 180 -25t133 -61l-47 -213q-6 122 -84 181.5t-202 59.5
q-93 0 -188.5 -38t-182.5 -113t-155.5 -177t-109 -241t-40.5 -293q0 -217 99 -333.5t271 -116.5q60 0 144.5 20t138.5 51zM854 1647q0 33 19.5 54t56.5 21q35 0 55.5 -21.5t20.5 -53.5t-20.5 -54t-55.5 -22q-37 0 -56.5 21.5t-19.5 54.5z" />
    <glyph glyph-name="gdotaccent" unicode="&#x121;" horiz-adv-x="927" 
d="M424 102l31 -8q55 -15 92 -26.5t82.5 -32t72 -42.5t45.5 -55t19 -73q0 -57 -33 -104.5t-83.5 -77t-114 -49.5t-122 -28.5t-110.5 -8.5q-178 0 -284.5 53.5t-106.5 148.5q0 85 89 156t243 115q-82 21 -123 54t-41 71q0 42 56.5 93t139.5 85q-76 37 -114.5 101.5
t-38.5 141.5q0 107 59 195.5t148.5 135t185.5 46.5q70 0 129 -26q24 -4 125 -4q126 0 199 36l-25 -94h-221q44 -40 67 -98.5t23 -118.5q0 -66 -28.5 -128t-79.5 -110t-126.5 -77t-162.5 -29q-38 0 -72 6q-63 -26 -116.5 -64t-53.5 -69q0 -34 62 -58.5t188 -56.5zM430 401
q123 0 203 89t80 217q0 104 -56.5 164.5t-152.5 60.5q-129 0 -207 -85.5t-78 -215.5q0 -43 11 -81.5t34 -73t66 -55t100 -20.5zM328 43q-147 -38 -233.5 -92.5t-86.5 -124.5q0 -72 87 -118t235 -46q161 0 252.5 49t91.5 121q0 41 -24 74t-73 57.5t-107.5 43t-141.5 36.5z
M514 1278q0 33 19.5 54.5t56.5 21.5q35 0 55.5 -22t20.5 -54t-20.5 -54t-55.5 -22q-37 0 -56.5 21.5t-19.5 54.5z" />
    <glyph glyph-name="Gcommaaccent" unicode="&#x122;" horiz-adv-x="1247" 
d="M897 96l78 367q6 27 6 55q0 79 -63 100h268q-86 -26 -109 -143l-86 -401q-89 -50 -198 -78.5t-207 -28.5q-197 0 -323 134.5t-126 379.5q0 121 34 248t103.5 246t163.5 213t225 150.5t277 56.5q90 0 180 -25t133 -61l-47 -213q-6 122 -84 181.5t-202 59.5
q-93 0 -188.5 -38t-182.5 -113t-155.5 -177t-109 -241t-40.5 -293q0 -217 99 -333.5t271 -116.5q60 0 144.5 20t138.5 51zM393 -377h-14q57 12 101 55.5t48 96.5q-16 -4 -22 -4q-30 0 -49 20t-19 49q0 30 20 52t54 22q40 0 68 -29.5t28 -72.5q0 -82 -63 -134t-152 -55z" />
    <glyph glyph-name="gcommaaccent" unicode="&#x123;" horiz-adv-x="927" 
d="M723 1380h14q-57 -12 -101 -55t-48 -96q16 4 22 4q30 0 49 -20.5t19 -49.5t-20 -51t-54 -22q-40 0 -68 29.5t-28 72.5q0 82 63 133.5t152 54.5zM424 102l31 -8q55 -15 92 -26.5t82.5 -32t72 -42.5t45.5 -55t19 -73q0 -57 -33 -104.5t-83.5 -77t-114 -49.5t-122 -28.5
t-110.5 -8.5q-178 0 -284.5 53.5t-106.5 148.5q0 85 89 156t243 115q-82 21 -123 54t-41 71q0 42 56.5 93t139.5 85q-76 37 -114.5 101.5t-38.5 141.5q0 107 59 195.5t148.5 135t185.5 46.5q70 0 129 -26q24 -4 125 -4q126 0 199 36l-25 -94h-221q44 -40 67 -98.5t23 -118.5
q0 -66 -28.5 -128t-79.5 -110t-126.5 -77t-162.5 -29q-38 0 -72 6q-63 -26 -116.5 -64t-53.5 -69q0 -34 62 -58.5t188 -56.5zM430 401q123 0 203 89t80 217q0 104 -56.5 164.5t-152.5 60.5q-129 0 -207 -85.5t-78 -215.5q0 -43 11 -81.5t34 -73t66 -55t100 -20.5zM328 43
q-147 -38 -233.5 -92.5t-86.5 -124.5q0 -72 87 -118t235 -46q161 0 252.5 49t91.5 121q0 41 -24 74t-73 57.5t-107.5 43t-141.5 36.5z" />
    <glyph glyph-name="Hcircumflex" unicode="&#x124;" horiz-adv-x="1353" 
d="M141 147l215 1006q17 90 17 111q0 42 -15 67.5t-36 32.5h264q-11 -3 -24 -10.5t-32 -23.5t-35.5 -47.5t-25.5 -72.5l-102 -479h733l100 471q8 46 8 64q0 41 -15 66t-36 32h264q-11 -3 -23.5 -10.5t-31.5 -23.5t-35.5 -47.5t-25.5 -72.5l-226 -1054q-8 -40 -8 -56
q0 -43 17.5 -70t39.5 -30h-266q10 2 22 9t30 21.5t34.5 45t26.5 71.5l112 523h-733l-110 -514q-6 -27 -6 -56q0 -43 16.5 -70t38.5 -30h-264q10 2 22 9t29.5 21.5t34 45t26.5 71.5zM633 1440l299 323l184 -323l-211 176z" />
    <glyph glyph-name="hcircumflex" unicode="&#x125;" horiz-adv-x="993" 
d="M57 0l267 1227q6 24 6 57q0 72 -60 82l-12 2l201 57l-152 -686q62 102 181.5 178t222.5 76q176 0 176 -182q0 -60 -29 -199l-82 -389q-16 -73 -16 -127q0 -79 26 -96h-153l133 606q27 126 27 174q0 144 -125 144q-120 0 -246 -124t-162 -288l-110 -512h-93zM436 1440
l299 323l185 -323l-211 176z" />
    <glyph glyph-name="Hbar" unicode="&#x126;" horiz-adv-x="1353" 
d="M141 147l215 1006q17 90 17 111q0 42 -15 67.5t-36 32.5h262q-12 -4 -25 -12t-32 -24.5t-34.5 -47t-23.5 -70.5l-35 -161h733l33 153q8 46 8 64q0 41 -15 66t-36 32h262q-89 -31 -114 -154l-226 -1054q-8 -40 -8 -56q0 -43 16.5 -70t38.5 -30h-264q10 2 22.5 9t30 22
t34 45.5t26.5 70.5l112 523h-733l-110 -514q-6 -27 -6 -56q0 -43 15.5 -70t37.5 -30h-262q14 3 31.5 13.5t42.5 46t38 87.5zM367 731h733l53 256h-733z" />
    <glyph glyph-name="hbar" unicode="&#x127;" horiz-adv-x="993" 
d="M57 0l250 1149h-82l11 68h86l2 10q6 24 6 57q0 72 -60 82l-12 2l201 57l-47 -208h422l-11 -68h-426l-90 -410q62 102 181.5 178t222.5 76q176 0 176 -182q0 -60 -29 -199l-82 -389q-16 -73 -16 -127q0 -79 26 -96h-153l133 606q27 126 27 174q0 144 -125 144
q-120 0 -246 -124t-162 -288l-110 -512h-93z" />
    <glyph glyph-name="Itilde" unicode="&#x128;" horiz-adv-x="522" 
d="M289 0h-258q10 2 22 9t29.5 21.5t34 45t26.5 71.5l215 1008q19 93 19 125q0 29 -10.5 48.5t-21 26t-21.5 9.5h266q-11 -3 -24 -10.5t-32 -23.5t-35.5 -47.5t-25.5 -72.5l-225 -1054q-8 -40 -8 -62q0 -43 13.5 -67t35.5 -27zM260 1466q-14 32 -14 68q0 63 35.5 107.5
t89.5 44.5q42 0 131.5 -35t126.5 -35q44 0 66 35t22 96q14 -32 14 -68q0 -67 -32 -109t-87 -42q-44 0 -133.5 35.5t-126.5 35.5q-92 0 -92 -133z" />
    <glyph glyph-name="itilde" unicode="&#x129;" horiz-adv-x="425" 
d="M57 0l174 797q9 41 9 61q0 64 -60 78l-8 2l197 57l-166 -772q-17 -81 -17 -131q0 -75 25 -92h-154zM147 1124q-14 32 -14 68q0 63 35.5 107t89.5 44q42 0 131.5 -34.5t126.5 -34.5q44 0 66 35t22 96q14 -32 14 -68q0 -67 -31.5 -109t-86.5 -42q-44 0 -133.5 35.5
t-126.5 35.5q-93 0 -93 -133z" />
    <glyph glyph-name="Imacron" unicode="&#x12a;" horiz-adv-x="522" 
d="M289 0h-258q10 2 22 9t29.5 21.5t34 45t26.5 71.5l215 1008q19 93 19 125q0 29 -10.5 48.5t-21 26t-21.5 9.5h266q-11 -3 -24 -10.5t-32 -23.5t-35.5 -47.5t-25.5 -72.5l-225 -1054q-8 -40 -8 -62q0 -43 13.5 -67t35.5 -27zM199 1593l10 68h598l-10 -68h-598z" />
    <glyph glyph-name="imacron" unicode="&#x12b;" horiz-adv-x="425" 
d="M57 0l174 797q9 41 9 61q0 64 -60 78l-8 2l197 57l-166 -772q-17 -81 -17 -131q0 -75 25 -92h-154zM113 1225l10 67h516l-10 -67h-516z" />
    <glyph glyph-name="Ibreve" unicode="&#x12c;" horiz-adv-x="522" 
d="M289 0h-258q10 2 22 9t29.5 21.5t34 45t26.5 71.5l215 1008q19 93 19 125q0 29 -10.5 48.5t-21 26t-21.5 9.5h266q-11 -3 -24 -10.5t-32 -23.5t-35.5 -47.5t-25.5 -72.5l-225 -1054q-8 -40 -8 -62q0 -43 13.5 -67t35.5 -27zM348 1769q7 -71 54.5 -109t113.5 -38t129 38
t100 109q-25 -119 -97 -184t-152 -65q-67 0 -111.5 46t-44.5 130q0 37 8 73z" />
    <glyph glyph-name="ibreve" unicode="&#x12d;" horiz-adv-x="425" 
d="M57 0l174 797q9 41 9 61q0 64 -60 78l-8 2l197 57l-166 -772q-17 -81 -17 -131q0 -75 25 -92h-154zM193 1401q7 -71 54 -109.5t113 -38.5t129.5 38.5t100.5 109.5q-25 -119 -97.5 -184.5t-152.5 -65.5q-67 0 -111.5 46t-44.5 130q0 33 9 74z" />
    <glyph glyph-name="Iogonek" unicode="&#x12e;" horiz-adv-x="522" 
d="M133 0h-102q14 3 31.5 13.5t42.5 46t38 87.5l215 1008q19 93 19 125q0 66 -53 84h264q-12 -4 -25 -12t-32 -24.5t-34.5 -47t-23.5 -70.5l-225 -1054q-8 -40 -8 -62q0 -46 16 -69t39 -25q-97 -7 -171.5 -74.5t-74.5 -138.5q0 -80 88 -80q52 0 131 31q-30 -51 -79 -78
t-101 -27q-55 0 -92 30t-37 85q0 62 45 129.5t129 122.5z" />
    <glyph glyph-name="iogonek" unicode="&#x12f;" horiz-adv-x="425" 
d="M59 -8l177 805q8 36 8 61q0 63 -64 78l-8 2l197 57l-166 -772q-17 -81 -17 -131q0 -75 25 -92q-79 -13 -148 -73.5t-69 -139.5q0 -80 88 -80q52 0 131 31q-30 -51 -79 -78t-101 -27q-55 0 -92 30t-37 85q0 60 39.5 124.5t115.5 119.5zM266 1278q0 34 22.5 58t63.5 24
q39 0 61.5 -24t22.5 -58t-22.5 -58t-61.5 -24q-40 0 -63 24t-23 58z" />
    <glyph glyph-name="Idotaccent" unicode="&#x130;" horiz-adv-x="536" 
d="M289 0h-258q10 2 22 9t29.5 21.5t34 45t26.5 71.5l215 1008q19 93 19 125q0 29 -10.5 48.5t-21 26t-21.5 9.5h266q-11 -3 -24 -10.5t-32 -23.5t-35.5 -47.5t-25.5 -72.5l-225 -1054q-8 -40 -8 -62q0 -43 13.5 -67t35.5 -27zM434 1647q0 33 19.5 54t56.5 21
q35 0 55.5 -21.5t20.5 -53.5t-20.5 -54t-55.5 -22q-37 0 -56.5 21.5t-19.5 54.5z" />
    <glyph glyph-name="dotlessi" unicode="&#x131;" horiz-adv-x="425" 
d="M57 0l174 797q9 41 9 61q0 64 -60 78l-8 2l197 57l-166 -772q-17 -81 -17 -131q0 -75 25 -92h-154z" />
    <glyph glyph-name="IJ" unicode="&#x132;" horiz-adv-x="1062" 
d="M289 0h-258q10 2 22 9t29.5 21.5t34 45t26.5 71.5l215 1008q19 93 19 125q0 29 -10.5 48.5t-21 26t-21.5 9.5h266q-11 -3 -24 -10.5t-32 -23.5t-35.5 -47.5t-25.5 -72.5l-225 -1054q-8 -40 -8 -62q0 -43 13.5 -67t35.5 -27zM723 252l201 942q8 39 8 72q0 78 -60 98h273
q-7 -1 -15 -4t-23.5 -14t-29 -28t-28 -49.5t-23.5 -74.5l-203 -952q-44 -209 -123.5 -296t-185.5 -87q-111 0 -145 63q32 -16 88 -16q96 0 163 89.5t103 256.5z" />
    <glyph glyph-name="ij" unicode="&#x133;" horiz-adv-x="860" 
d="M61 0l175 797q8 36 8 61q0 63 -64 78l-8 2l197 57l-166 -772q-17 -81 -17 -131q0 -75 25 -92h-150zM274 1278q0 33 19.5 54.5t56.5 21.5q35 0 55.5 -22t20.5 -54t-20.5 -54t-55.5 -22q-37 0 -56.5 21.5t-19.5 54.5zM494 0l174 797q6 42 6 51q0 73 -60 88l-8 2l199 57
l-217 -995q-17 -79 -44.5 -145.5t-67.5 -123t-97 -88.5t-125 -32q-40 0 -80 14.5t-61 40.5q43 -12 84 -12q120 0 190 88t107 258zM705 1278q0 33 19.5 54.5t55.5 21.5q35 0 55.5 -22t20.5 -54t-20.5 -54t-55.5 -22q-36 0 -55.5 21.5t-19.5 54.5z" />
    <glyph glyph-name="Jcircumflex" unicode="&#x134;" horiz-adv-x="540" 
d="M201 252l200 942q9 44 9 72q0 78 -60 98h273q-7 -1 -15 -4t-23.5 -14t-29 -28t-28 -49.5t-23.5 -74.5l-203 -952q-44 -209 -123.5 -296t-185.5 -87q-54 0 -92.5 17t-53.5 46q32 -16 88 -16q96 0 163.5 90t103.5 256zM258 1440l299 323l184 -323l-211 176z" />
    <glyph glyph-name="jcircumflex" unicode="&#x135;" horiz-adv-x="425" 
d="M63 0l175 797q6 42 6 51q0 73 -60 88l-8 2l199 57l-217 -995q-17 -79 -44.5 -145.5t-67.5 -123t-97 -88.5t-125 -32q-40 0 -80 14.5t-61 40.5q43 -12 84 -12q120 0 189 88t107 258zM90 1071l299 324l184 -324l-211 176z" />
    <glyph glyph-name="Kcommaaccent" unicode="&#x136;" horiz-adv-x="1177" 
d="M141 147l226 1055q6 30 6 60q0 43 -17.5 69t-40.5 33h267q-11 -3 -23 -10t-30.5 -23t-34.5 -47.5t-25 -73.5l-96 -454l534 446q101 84 101 131q0 21 -29 31h297q-114 -34 -252 -147l-549 -451l373 -573q25 -39 48.5 -69.5t39 -48t33 -33t24.5 -20.5t21.5 -13t15.5 -9
h-186l-473 748l-127 -592q-6 -27 -6 -56q0 -43 16.5 -70t38.5 -30h-264q10 2 22 9t29.5 21.5t34 45t26.5 71.5zM383 -377h-14q57 12 101 55.5t48 96.5q-16 -4 -22 -4q-30 0 -49 20t-19 49q0 30 20 52t54 22q40 0 68 -29.5t28 -72.5q0 -82 -63 -134t-152 -55z" />
    <glyph glyph-name="kcommaaccent" unicode="&#x137;" horiz-adv-x="915" 
d="M57 0l267 1227q8 36 8 59q0 69 -60 80l-12 2l201 57l-191 -882l336 270q123 98 123 131q0 16 -22 23h237q-98 -37 -252 -160l-321 -258l268 -397q43 -65 95.5 -108t96.5 -44q-45 -23 -106 -23q-45 0 -91.5 39.5t-107.5 130.5l-258 390l-116 -537h-95zM252 -377h-14
q57 12 101 55.5t48 96.5q-16 -4 -22 -4q-30 0 -49 20t-19 49q0 30 20 52t54 22q40 0 68 -29.5t28 -72.5q0 -82 -63 -134t-152 -55z" />
    <glyph glyph-name="kgreenlandic" unicode="&#x138;" horiz-adv-x="915" 
d="M57 0l174 793q9 41 9 59q0 69 -60 80l-12 2l201 57l-99 -448l336 270q123 98 123 131q0 16 -22 23h237q-98 -37 -252 -160l-321 -258l268 -397q43 -65 95.5 -108t96.5 -44q-45 -23 -106 -23q-45 0 -91.5 39.5t-107.5 130.5l-258 390l-116 -537h-95z" />
    <glyph glyph-name="Lacute" unicode="&#x139;" horiz-adv-x="974" 
d="M215 63h365q110 0 175.5 43t108.5 156l-57 -262h-778q9 2 20.5 9t28 21.5t32 45t25.5 71.5l225 1055q5 25 5 58q0 45 -17 71t-41 33h268q-11 -3 -23 -10.5t-30.5 -23.5t-34 -47.5t-24.5 -72.5zM477 1436l162 297h170z" />
    <glyph glyph-name="lacute" unicode="&#x13a;" horiz-adv-x="425" 
d="M59 0l269 1227q6 30 6 55q0 35 -16 57.5t-46 26.5l-12 2l201 57l-260 -1202q-19 -87 -19 -129q0 -76 27 -94h-150zM346 1436l162 297h170z" />
    <glyph glyph-name="Lcommaaccent" unicode="&#x13b;" horiz-adv-x="974" 
d="M215 63h365q110 0 175.5 43t108.5 156l-57 -262h-778q9 2 20.5 9t28 21.5t32 45t25.5 71.5l225 1055q5 25 5 58q0 45 -17 71t-41 33h268q-11 -3 -23 -10.5t-30.5 -23.5t-34 -47.5t-24.5 -72.5zM334 -377h-15q57 12 101.5 55.5t48.5 96.5q-16 -4 -23 -4q-30 0 -48.5 20
t-18.5 49q0 30 20 52t54 22q40 0 68 -29.5t28 -72.5q0 -82 -63 -134t-152 -55z" />
    <glyph glyph-name="lcommaaccent" unicode="&#x13c;" horiz-adv-x="425" 
d="M59 0l269 1227q6 30 6 55q0 35 -16 57.5t-46 26.5l-12 2l201 57l-260 -1202q-19 -87 -19 -129q0 -76 27 -94h-150zM-47 -377h-14q57 12 101 55.5t48 96.5q-16 -4 -22 -4q-30 0 -49 20t-19 49q0 30 20 52t54 22q40 0 68 -29.5t28 -72.5q0 -82 -63 -134t-152 -55z" />
    <glyph glyph-name="Lcaron" unicode="&#x13d;" horiz-adv-x="974" 
d="M215 63h365q110 0 175.5 43t108.5 156l-57 -262h-778q9 2 20.5 9t28 21.5t32 45t25.5 71.5l225 1055q5 25 5 58q0 45 -17 71t-41 33h268q-11 -3 -23 -10.5t-30.5 -23.5t-34 -47.5t-24.5 -72.5zM606 1067l96 330h119z" />
    <glyph glyph-name="lcaron" unicode="&#x13e;" horiz-adv-x="425" 
d="M59 0l269 1227q6 30 6 55q0 35 -16 57.5t-46 26.5l-12 2l201 57l-260 -1202q-19 -87 -19 -129q0 -76 27 -94h-150zM483 1067l97 330h118z" />
    <glyph glyph-name="Ldot" unicode="&#x13f;" horiz-adv-x="1095" 
d="M215 63h365q110 0 175.5 43t108.5 156l-57 -262h-778q9 2 20.5 9t28 21.5t32 45t25.5 71.5l225 1055q5 25 5 58q0 45 -17 71t-41 33h268q-11 -3 -23 -10.5t-30.5 -23.5t-34 -47.5t-24.5 -72.5zM745 688q0 33 19.5 54.5t56.5 21.5q35 0 55.5 -22t20.5 -54t-20.5 -54
t-55.5 -22q-37 0 -56.5 21.5t-19.5 54.5z" />
    <glyph glyph-name="ldot" unicode="&#x140;" horiz-adv-x="655" 
d="M59 0l269 1227q6 30 6 55q0 35 -16 57.5t-46 26.5l-12 2l201 57l-260 -1202q-19 -87 -19 -129q0 -76 27 -94h-150zM483 637q0 33 19.5 54.5t56.5 21.5q35 0 55.5 -22t20.5 -54t-20.5 -54t-55.5 -22q-37 0 -56.5 21.5t-19.5 54.5z" />
    <glyph glyph-name="Lslash" unicode="&#x141;" horiz-adv-x="974" 
d="M215 63h365q110 0 175.5 43t108.5 156l-57 -262h-778q9 2 20.5 9t28.5 21.5t32.5 45t24.5 71.5l94 449l-200 -139l20 94l201 137l110 514q5 25 5 58q0 45 -17 71t-41 33h268q-11 -3 -23 -10.5t-30.5 -23.5t-34 -47.5t-24.5 -72.5l-94 -440l262 182l-21 -94l-262 -180z
" />
    <glyph glyph-name="lslash" unicode="&#x142;" horiz-adv-x="425" 
d="M57 0l148 674l-170 -113l20 90l168 111l103 465q6 30 6 55q0 75 -60 84l-12 2l201 57l-129 -589l172 116l-21 -90l-170 -114l-112 -525q-19 -87 -19 -129q0 -76 27 -94h-152z" />
    <glyph glyph-name="Nacute" unicode="&#x143;" horiz-adv-x="1343" 
d="M283 0h-252q17 3 35.5 13t43 43t35.5 83l220 1012q6 24 6 55q0 46 -24.5 96t-72.5 62h158l594 -1153l213 997q6 24 6 49q0 46 -19.5 73t-45.5 34h235q-10 -3 -21 -10t-27.5 -22t-31 -45t-22.5 -70l-273 -1262l-608 1180l-211 -990q-4 -16 -4 -45q0 -43 20 -70t46 -30z
M825 1436l162 297h170z" />
    <glyph glyph-name="nacute" unicode="&#x144;" horiz-adv-x="991" 
d="M57 0l172 797q7 28 7 55q0 73 -60 84l-10 2l201 57l-62 -254q24 41 62 82.5t89.5 80.5t118.5 64t136 25q176 0 176 -182q0 -54 -13 -117l-98 -471q-16 -73 -16 -127q0 -79 26 -96h-153l145 664q15 73 15 116q0 144 -125 144q-123 0 -247.5 -122.5t-160.5 -289.5
l-110 -512h-93zM555 1067l162 297h170z" />
    <glyph glyph-name="Ncommaaccent" unicode="&#x145;" horiz-adv-x="1343" 
d="M283 0h-252q17 3 35.5 13t43 43t35.5 83l220 1012q6 24 6 55q0 46 -24.5 96t-72.5 62h158l594 -1153l213 997q6 24 6 49q0 46 -19.5 73t-45.5 34h235q-10 -3 -21 -10t-27.5 -22t-31 -45t-22.5 -70l-273 -1262l-608 1180l-211 -990q-4 -16 -4 -45q0 -43 20 -70t46 -30z
M457 -377h-15q57 12 101.5 55.5t48.5 96.5q-16 -4 -23 -4q-30 0 -48.5 20t-18.5 49q0 30 20 52t53 22q40 0 68.5 -29.5t28.5 -72.5q0 -82 -63 -134t-152 -55z" />
    <glyph glyph-name="ncommaaccent" unicode="&#x146;" horiz-adv-x="991" 
d="M57 0l172 797q7 28 7 55q0 73 -60 84l-10 2l201 57l-62 -254q24 41 62 82.5t89.5 80.5t118.5 64t136 25q176 0 176 -182q0 -54 -13 -117l-98 -471q-16 -73 -16 -127q0 -79 26 -96h-153l145 664q15 73 15 116q0 144 -125 144q-123 0 -247.5 -122.5t-160.5 -289.5
l-110 -512h-93zM231 -377h-14q57 12 101.5 55.5t48.5 96.5q-16 -4 -23 -4q-30 0 -49 20t-19 49q0 30 20 52t54 22q40 0 68 -29.5t28 -72.5q0 -82 -63 -134t-152 -55z" />
    <glyph glyph-name="Ncaron" unicode="&#x147;" horiz-adv-x="1343" 
d="M283 0h-252q17 3 35.5 13t43 43t35.5 83l220 1012q6 24 6 55q0 46 -24.5 96t-72.5 62h158l594 -1153l213 997q6 24 6 49q0 46 -19.5 73t-45.5 34h235q-10 -3 -21 -10t-27.5 -22t-31 -45t-22.5 -70l-273 -1262l-608 1180l-211 -990q-4 -16 -4 -45q0 -43 20 -70t46 -30z
M868 1460l-184 324l211 -176l272 176z" />
    <glyph glyph-name="ncaron" unicode="&#x148;" horiz-adv-x="991" 
d="M57 0l172 797q7 28 7 55q0 73 -60 84l-10 2l201 57l-62 -254q24 41 62 82.5t89.5 80.5t118.5 64t136 25q176 0 176 -182q0 -54 -13 -117l-98 -471q-16 -73 -16 -127q0 -79 26 -96h-153l145 664q15 73 15 116q0 144 -125 144q-123 0 -247.5 -122.5t-160.5 -289.5
l-110 -512h-93zM633 1092l-184 323l210 -176l273 176z" />
    <glyph glyph-name="napostrophe" unicode="&#x149;" horiz-adv-x="1054" 
d="M121 0l172 797q6 24 6 55q0 74 -59 84l-11 2l201 57l-61 -254q24 41 62 82t89.5 80.5t118 64.5t135.5 25q176 0 176 -182q0 -59 -12 -117l-98 -471q-17 -78 -17 -127q0 -78 27 -96h-154l146 664q14 68 14 116q0 144 -125 144q-123 0 -247 -122.5t-160 -289.5l-111 -512
h-92zM125 1100h-14q57 12 101 55t48 96q-16 -4 -22 -4q-30 0 -49 20.5t-19 49.5q0 30 20 52t54 22q40 0 68 -30t28 -73q0 -82 -63 -133.5t-152 -54.5z" />
    <glyph glyph-name="Eng" unicode="&#x14a;" horiz-adv-x="1343" 
d="M283 0h-252q17 3 35.5 13t43 43t35.5 83l220 1012q6 24 6 55q0 46 -24.5 96t-72.5 62h158l594 -1153l213 997q6 24 6 49q0 46 -19.5 73t-45.5 34h235q-10 -3 -21 -10t-27.5 -22t-31 -45t-22.5 -70l-232 -1078q-26 -119 -72 -210t-100 -141.5t-108.5 -75.5t-106.5 -25
q119 58 190.5 154.5t71.5 203.5q0 74 -32 137l-492 953l-211 -990q-4 -16 -4 -45q0 -43 20 -70t46 -30z" />
    <glyph glyph-name="eng" unicode="&#x14b;" horiz-adv-x="991" 
d="M57 0l172 797q7 28 7 55q0 73 -60 84l-10 2l201 57l-62 -254q24 41 62 82.5t89.5 80.5t118.5 64t136 25q176 0 176 -182q0 -54 -13 -117l-149 -694q-17 -79 -44.5 -145.5t-67.5 -123t-97 -88.5t-125 -32q-40 0 -80 14.5t-61 40.5q44 -12 84 -12q120 0 191 88.5t108 257.5
l145 664q15 73 15 116q0 144 -125 144q-123 0 -247.5 -122.5t-160.5 -289.5l-110 -512h-93z" />
    <glyph glyph-name="Omacron" unicode="&#x14c;" horiz-adv-x="1341" 
d="M545 -33q-193 0 -304.5 132t-111.5 358q0 172 58.5 341t158 302t243.5 215t304 82q194 0 304 -135.5t110 -358.5q0 -106 -24.5 -216t-69 -214t-112.5 -196t-150.5 -161t-187.5 -109t-218 -40zM565 29q133 0 252.5 77.5t201.5 201.5t130 281t49 316q0 196 -87.5 316
t-244.5 120q-132 0 -251.5 -78.5t-201 -204.5t-129.5 -284t-48 -317q0 -198 87.5 -313t241.5 -115zM598 1593l10 68h598l-10 -68h-598z" />
    <glyph glyph-name="omacron" unicode="&#x14d;" horiz-adv-x="948" 
d="M354 -33q-74 0 -130.5 31t-89.5 83.5t-49.5 115.5t-16.5 133q0 158 71 311.5t194 253.5t261 100q74 0 131 -31t90 -83t49.5 -115t16.5 -133q0 -169 -73.5 -323.5t-196 -248.5t-257.5 -94zM371 25q63 0 121.5 32t102.5 84.5t80 119t59 137.5t35.5 137t12.5 120
q0 52 -10.5 99.5t-32.5 90t-63.5 68t-97.5 25.5q-64 0 -123 -31.5t-103 -84t-80 -118.5t-59 -136.5t-35 -137t-12 -121.5q0 -51 11 -98.5t33.5 -90.5t64 -69t96.5 -26zM360 1225l11 67h598l-11 -67h-598z" />
    <glyph glyph-name="Obreve" unicode="&#x14e;" horiz-adv-x="1341" 
d="M545 -33q-193 0 -304.5 132t-111.5 358q0 172 58.5 341t158 302t243.5 215t304 82q194 0 304 -135.5t110 -358.5q0 -106 -24.5 -216t-69 -214t-112.5 -196t-150.5 -161t-187.5 -109t-218 -40zM565 29q133 0 252.5 77.5t201.5 201.5t130 281t49 316q0 196 -87.5 316
t-244.5 120q-132 0 -251.5 -78.5t-201 -204.5t-129.5 -284t-48 -317q0 -198 87.5 -313t241.5 -115zM737 1769q7 -71 54.5 -109t113.5 -38t129.5 38.5t100.5 108.5q-25 -119 -97.5 -184t-152.5 -65q-67 0 -111.5 46t-44.5 130q0 37 8 73z" />
    <glyph glyph-name="obreve" unicode="&#x14f;" horiz-adv-x="948" 
d="M354 -33q-74 0 -130.5 31t-89.5 83.5t-49.5 115.5t-16.5 133q0 158 71 311.5t194 253.5t261 100q74 0 131 -31t90 -83t49.5 -115t16.5 -133q0 -169 -73.5 -323.5t-196 -248.5t-257.5 -94zM371 25q63 0 121.5 32t102.5 84.5t80 119t59 137.5t35.5 137t12.5 120
q0 52 -10.5 99.5t-32.5 90t-63.5 68t-97.5 25.5q-64 0 -123 -31.5t-103 -84t-80 -118.5t-59 -136.5t-35 -137t-12 -121.5q0 -51 11 -98.5t33.5 -90.5t64 -69t96.5 -26zM471 1401q7 -71 54.5 -109.5t113.5 -38.5t129 38.5t100 109.5q-25 -119 -97.5 -184.5t-152.5 -65.5
q-67 0 -111 46t-44 130q0 38 8 74z" />
    <glyph glyph-name="Ohungarumlaut" unicode="&#x150;" horiz-adv-x="1341" 
d="M545 -33q-193 0 -304.5 132t-111.5 358q0 172 58.5 341t158 302t243.5 215t304 82q194 0 304 -135.5t110 -358.5q0 -106 -24.5 -216t-69 -214t-112.5 -196t-150.5 -161t-187.5 -109t-218 -40zM565 29q133 0 252.5 77.5t201.5 201.5t130 281t49 316q0 196 -87.5 316
t-244.5 120q-132 0 -251.5 -78.5t-201 -204.5t-129.5 -284t-48 -317q0 -198 87.5 -313t241.5 -115zM760 1468l162 297h170zM1049 1468l161 297h170z" />
    <glyph glyph-name="ohungarumlaut" unicode="&#x151;" horiz-adv-x="948" 
d="M354 -33q-74 0 -130.5 31t-89.5 83.5t-49.5 115.5t-16.5 133q0 158 71 311.5t194 253.5t261 100q74 0 131 -31t90 -83t49.5 -115t16.5 -133q0 -169 -73.5 -323.5t-196 -248.5t-257.5 -94zM371 25q63 0 121.5 32t102.5 84.5t80 119t59 137.5t35.5 137t12.5 120
q0 52 -10.5 99.5t-32.5 90t-63.5 68t-97.5 25.5q-64 0 -123 -31.5t-103 -84t-80 -118.5t-59 -136.5t-35 -137t-12 -121.5q0 -51 11 -98.5t33.5 -90.5t64 -69t96.5 -26zM436 1067l162 297h170zM725 1067l162 297h170z" />
    <glyph glyph-name="OE" unicode="&#x152;" horiz-adv-x="1720" 
d="M899 61h408q110 0 170.5 43t107.5 154l-55 -258h-789q-101 -33 -196 -33q-193 0 -303.5 131.5t-110.5 358.5q0 172 58 341t156.5 302t242 215t303.5 82q96 0 166 -33h723l-47 -229q-1 93 -41.5 131.5t-124.5 38.5h-408l-119 -574h349q127 0 163 72l-43 -213
q-1 31 -24 50.5t-50 25.5t-59 6h-348zM803 94l254 1176q-77 71 -191 71q-132 0 -252 -78.5t-202 -204.5t-130.5 -284.5t-48.5 -316.5q0 -197 88.5 -312.5t243.5 -115.5q129 0 238 65z" />
    <glyph glyph-name="oe" unicode="&#x153;" horiz-adv-x="1527" 
d="M727 203q-69 -116 -166 -176t-207 -60q-74 0 -130.5 31t-89.5 83.5t-49.5 115.5t-16.5 133q0 158 71 311.5t194 253.5t261 100q116 0 186 -80t84 -221q94 133 221 216t248 83q83 0 130.5 -45t47.5 -114q0 -116 -109.5 -222t-267.5 -166.5t-307 -60.5q-6 -43 -6 -82
q0 -108 56.5 -183t162.5 -75q87 0 183.5 54t158.5 141q-27 -116 -145 -195.5t-246 -79.5q-101 0 -172.5 61.5t-91.5 176.5zM836 444q80 0 181 30t191.5 79t152.5 120.5t62 145.5q0 48 -33.5 79.5t-91.5 31.5q-59 0 -129 -36t-135.5 -98t-119.5 -155t-78 -197zM371 25
q63 0 121.5 32t102.5 84.5t80 119t59 137.5t35.5 137t12.5 120q0 52 -10.5 99.5t-32.5 90t-63.5 68t-97.5 25.5q-64 0 -123 -31.5t-103 -84t-80 -118.5t-59 -136.5t-35 -137t-12 -121.5q0 -51 11 -98.5t33.5 -90.5t64 -69t96.5 -26z" />
    <glyph glyph-name="Racute" unicode="&#x154;" horiz-adv-x="1103" 
d="M139 147l226 1055q8 40 8 58q0 45 -18.5 71t-43.5 33h434q159 0 246.5 -88t87.5 -219q0 -96 -37 -176t-98.5 -131t-139 -79t-161.5 -28q30 -20 66 -98l186 -408q21 -49 51 -82t48.5 -42.5t33.5 -12.5h-182l-240 541q-26 57 -59.5 78.5t-93.5 21.5h-109l-102 -485
q-9 -41 -9 -54q0 -43 17 -71t39 -31h-262q10 2 22 9t29.5 21.5t34 45t26.5 71.5zM358 702h260q173 0 265 99t92 246q0 122 -64.5 190t-179.5 68h-244zM682 1436l162 297h170z" />
    <glyph glyph-name="racute" unicode="&#x155;" horiz-adv-x="733" 
d="M57 0l172 797q7 28 7 55q0 73 -60 84l-10 2l201 57l-70 -321q28 53 68.5 106t91 102t112 80t119.5 31q98 0 98 -73q0 -36 -25.5 -74t-64.5 -58q2 12 2 39q0 43 -13 69t-52 26q-36 0 -86 -31t-101 -88q-161 -180 -223 -471l-69 -332h-97zM463 1067l162 297h170z" />
    <glyph glyph-name="Rcommaaccent" unicode="&#x156;" horiz-adv-x="1103" 
d="M139 147l226 1055q8 40 8 58q0 45 -18.5 71t-43.5 33h434q159 0 246.5 -88t87.5 -219q0 -96 -37 -176t-98.5 -131t-139 -79t-161.5 -28q30 -20 66 -98l186 -408q21 -49 51 -82t48.5 -42.5t33.5 -12.5h-182l-240 541q-26 57 -59.5 78.5t-93.5 21.5h-109l-102 -485
q-9 -41 -9 -54q0 -43 17 -71t39 -31h-262q10 2 22 9t29.5 21.5t34 45t26.5 71.5zM358 702h260q173 0 265 99t92 246q0 122 -64.5 190t-179.5 68h-244zM362 -377h-14q57 12 101.5 55.5t48.5 96.5q-16 -4 -23 -4q-30 0 -48.5 20t-18.5 49q0 30 20 52t53 22q40 0 68.5 -29.5
t28.5 -72.5q0 -82 -63.5 -134t-152.5 -55z" />
    <glyph glyph-name="rcommaaccent" unicode="&#x157;" horiz-adv-x="733" 
d="M57 0l172 797q7 28 7 55q0 73 -60 84l-10 2l201 57l-70 -321q28 53 68.5 106t91 102t112 80t119.5 31q98 0 98 -73q0 -36 -25.5 -74t-64.5 -58q2 12 2 39q0 43 -13 69t-52 26q-36 0 -86 -31t-101 -88q-161 -180 -223 -471l-69 -332h-97zM10 -377h-14q57 12 101 55.5
t48 96.5q-16 -4 -22 -4q-30 0 -49 20t-19 49q0 30 20 52t54 22q40 0 68 -29.5t28 -72.5q0 -82 -63 -134t-152 -55z" />
    <glyph glyph-name="Rcaron" unicode="&#x158;" horiz-adv-x="1103" 
d="M139 147l226 1055q8 40 8 58q0 45 -18.5 71t-43.5 33h434q159 0 246.5 -88t87.5 -219q0 -96 -37 -176t-98.5 -131t-139 -79t-161.5 -28q30 -20 66 -98l186 -408q21 -49 51 -82t48.5 -42.5t33.5 -12.5h-182l-240 541q-26 57 -59.5 78.5t-93.5 21.5h-109l-102 -485
q-9 -41 -9 -54q0 -43 17 -71t39 -31h-262q10 2 22 9t29.5 21.5t34 45t26.5 71.5zM358 702h260q173 0 265 99t92 246q0 122 -64.5 190t-179.5 68h-244zM725 1460l-184 324l211 -176l272 176z" />
    <glyph glyph-name="rcaron" unicode="&#x159;" horiz-adv-x="733" 
d="M57 0l172 797q7 28 7 55q0 73 -60 84l-10 2l201 57l-70 -321q28 53 68.5 106t91 102t112 80t119.5 31q98 0 98 -73q0 -36 -25.5 -74t-64.5 -58q2 12 2 39q0 43 -13 69t-52 26q-36 0 -86 -31t-101 -88q-161 -180 -223 -471l-69 -332h-97zM514 1092l-184 323l211 -176
l272 176z" />
    <glyph glyph-name="Sacute" unicode="&#x15a;" horiz-adv-x="978" 
d="M49 72l53 237q12 -149 93 -214.5t223 -65.5q160 0 247 78.5t87 211.5q0 62 -27.5 117.5t-72 98t-98 83t-107 81.5t-98 85.5t-72 103.5t-27.5 126q0 170 112.5 276.5t299.5 106.5q69 0 159.5 -23t141.5 -59l-45 -205q-6 117 -83 172t-200 55q-135 0 -216 -78.5t-81 -207.5
q0 -60 28 -113t72 -95t98 -82t108 -82t98 -86.5t72 -104t28 -126.5q0 -183 -110 -288t-326 -105q-85 0 -168.5 22.5t-124.5 43t-64 37.5zM621 1436l161 297h170z" />
    <glyph glyph-name="sacute" unicode="&#x15b;" horiz-adv-x="794" 
d="M31 33l57 213q2 -102 53.5 -165t163.5 -63q123 0 188.5 52.5t65.5 134.5q0 41 -21.5 78t-55.5 66.5t-75 58.5t-82.5 60t-75.5 64.5t-55.5 78t-21.5 94.5q0 74 31 132t81.5 91.5t110 51t121.5 17.5q94 0 159.5 -36.5t65.5 -98.5q0 -66 -88 -143q9 37 9 65q0 77 -51 117.5
t-126 40.5q-91 0 -164 -55.5t-73 -145.5q0 -57 40.5 -107.5t98 -89.5t114.5 -80t97.5 -98t40.5 -124q0 -130 -95 -204.5t-247 -74.5q-70 0 -148.5 22t-117.5 48zM483 1067l162 297h170z" />
    <glyph glyph-name="Scircumflex" unicode="&#x15c;" horiz-adv-x="978" 
d="M49 72l53 237q12 -149 93 -214.5t223 -65.5q160 0 247 78.5t87 211.5q0 62 -27.5 117.5t-72 98t-98 83t-107 81.5t-98 85.5t-72 103.5t-27.5 126q0 170 112.5 276.5t299.5 106.5q69 0 159.5 -23t141.5 -59l-45 -205q-6 117 -83 172t-200 55q-135 0 -216 -78.5t-81 -207.5
q0 -60 28 -113t72 -95t98 -82t108 -82t98 -86.5t72 -104t28 -126.5q0 -183 -110 -288t-326 -105q-85 0 -168.5 22.5t-124.5 43t-64 37.5zM424 1440l299 323l184 -323l-211 176z" />
    <glyph glyph-name="scircumflex" unicode="&#x15d;" horiz-adv-x="794" 
d="M31 33l57 213q2 -102 53.5 -165t163.5 -63q123 0 188.5 52.5t65.5 134.5q0 41 -21.5 78t-55.5 66.5t-75 58.5t-82.5 60t-75.5 64.5t-55.5 78t-21.5 94.5q0 74 31 132t81.5 91.5t110 51t121.5 17.5q94 0 159.5 -36.5t65.5 -98.5q0 -66 -88 -143q9 37 9 65q0 77 -51 117.5
t-126 40.5q-91 0 -164 -55.5t-73 -145.5q0 -57 40.5 -107.5t98 -89.5t114.5 -80t97.5 -98t40.5 -124q0 -130 -95 -204.5t-247 -74.5q-70 0 -148.5 22t-117.5 48zM274 1071l299 324l185 -324l-211 176z" />
    <glyph glyph-name="Scedilla" unicode="&#x15e;" horiz-adv-x="978" 
d="M49 72l53 237q12 -149 93 -214.5t223 -65.5q160 0 247 78.5t87 211.5q0 62 -27.5 117.5t-72 98t-98 83t-107 81.5t-98 85.5t-72 103.5t-27.5 126q0 170 112.5 276.5t299.5 106.5q69 0 159.5 -23t141.5 -59l-45 -205q-6 117 -83 172t-200 55q-135 0 -216 -78.5t-81 -207.5
q0 -60 28 -113t72 -95t98 -82t108 -82t98 -86.5t72 -104t28 -126.5q0 -175 -103 -279.5t-303 -113.5l-37 -47q65 -11 96 -43.5t31 -77.5q0 -66 -65 -116t-152 -50q-74 0 -123 39q34 -6 70 -6q84 0 127 39.5t43 91.5q0 33 -28.5 59.5t-86.5 30.5l62 82q-112 5 -200 39
t-124 62z" />
    <glyph glyph-name="scedilla" unicode="&#x15f;" horiz-adv-x="794" 
d="M31 33l57 213q2 -102 53.5 -165t163.5 -63q123 0 188.5 52.5t65.5 134.5q0 41 -21.5 78t-55.5 66.5t-75 58.5t-82.5 60t-75.5 64.5t-55.5 78t-21.5 94.5q0 74 31 132t81.5 91.5t110 51t121.5 17.5q94 0 159.5 -36.5t65.5 -98.5q0 -66 -88 -143q9 37 9 65q0 77 -51 117.5
t-126 40.5q-91 0 -164 -55.5t-73 -145.5q0 -57 40.5 -107.5t98 -89.5t114.5 -80t97.5 -98t40.5 -124q0 -128 -92 -202t-240 -77l-31 -41q65 -11 96 -43.5t31 -77.5q0 -66 -65 -116t-152 -50q-74 0 -123 39q35 -6 70 -6q84 0 127 39.5t43 91.5q0 33 -28.5 59.5t-86.5 30.5
l58 78q-63 6 -123 25t-92 41z" />
    <glyph glyph-name="Scaron" unicode="&#x160;" horiz-adv-x="978" 
d="M49 72l53 237q12 -149 93 -214.5t223 -65.5q160 0 247 78.5t87 211.5q0 62 -27.5 117.5t-72 98t-98 83t-107 81.5t-98 85.5t-72 103.5t-27.5 126q0 170 112.5 276.5t299.5 106.5q69 0 159.5 -23t141.5 -59l-45 -205q-6 117 -83 172t-200 55q-135 0 -216 -78.5t-81 -207.5
q0 -60 28 -113t72 -95t98 -82t108 -82t98 -86.5t72 -104t28 -126.5q0 -183 -110 -288t-326 -105q-85 0 -168.5 22.5t-124.5 43t-64 37.5zM678 1493l-184 324l211 -177l272 177z" />
    <glyph glyph-name="scaron" unicode="&#x161;" horiz-adv-x="794" 
d="M31 33l57 213q2 -102 53.5 -165t163.5 -63q123 0 188.5 52.5t65.5 134.5q0 41 -21.5 78t-55.5 66.5t-75 58.5t-82.5 60t-75.5 64.5t-55.5 78t-21.5 94.5q0 74 31 132t81.5 91.5t110 51t121.5 17.5q94 0 159.5 -36.5t65.5 -98.5q0 -66 -88 -143q9 37 9 65q0 77 -51 117.5
t-126 40.5q-91 0 -164 -55.5t-73 -145.5q0 -57 40.5 -107.5t98 -89.5t114.5 -80t97.5 -98t40.5 -124q0 -130 -95 -204.5t-247 -74.5q-70 0 -148.5 22t-117.5 48zM504 1092l-185 323l211 -176l273 176z" />
    <glyph glyph-name="uni0162" unicode="&#x162;" horiz-adv-x="1101" 
d="M426 147l248 1164h-254q-83 0 -127.5 -32t-95.5 -128l49 213h987l-51 -219q-9 100 -39 133t-117 33h-252l-248 -1155q-6 -27 -6 -56q0 -43 16.5 -70t38.5 -30h-262q10 2 22.5 9t30.5 21.5t34.5 45t25.5 71.5zM293 -377h-14q57 12 101 55.5t48 96.5q-16 -4 -22 -4
q-30 0 -49 20t-19 49q0 30 20 52t54 22q40 0 68 -29.5t28 -72.5q0 -82 -63 -134t-152 -55z" />
    <glyph glyph-name="uni0163" unicode="&#x163;" horiz-adv-x="555" 
d="M117 268l141 637h-104l256 264l-48 -202h252l-12 -62h-252l-125 -583q-3 -13 -8 -37t-7.5 -35.5t-5.5 -29t-4 -32.5t-1 -30q0 -123 112 -123q81 0 174 55q-39 -59 -101.5 -90t-115.5 -31q-85 0 -127.5 42t-42.5 116q0 48 19 141zM68 -377h-15q57 12 101.5 55.5t48.5 96.5
q-16 -4 -23 -4q-30 0 -48.5 20t-18.5 49q0 30 19.5 52t53.5 22q40 0 68.5 -29.5t28.5 -72.5q0 -82 -63 -134t-152 -55z" />
    <glyph glyph-name="Tcaron" unicode="&#x164;" horiz-adv-x="1101" 
d="M426 147l248 1164h-254q-83 0 -127.5 -32t-95.5 -128l49 213h987l-51 -219q-9 100 -39 133t-117 33h-252l-248 -1155q-6 -27 -6 -56q0 -43 16.5 -70t38.5 -30h-262q10 2 22.5 9t30.5 21.5t34.5 45t25.5 71.5zM745 1460l-184 324l211 -176l272 176z" />
    <glyph glyph-name="tcaron" unicode="&#x165;" horiz-adv-x="555" 
d="M117 268l141 637h-104l256 264l-48 -202h252l-12 -62h-252l-125 -583q-3 -13 -8 -37t-7.5 -35.5t-5.5 -29t-4 -32.5t-1 -30q0 -123 112 -123q81 0 174 55q-39 -59 -101.5 -90t-115.5 -31q-85 0 -127.5 42t-42.5 116q0 48 19 141zM504 1067l96 330h119z" />
    <glyph glyph-name="Tbar" unicode="&#x166;" horiz-adv-x="1101" 
d="M426 147l111 523h-256l14 67h256l123 574h-254q-83 0 -127.5 -32t-95.5 -128l49 213h987l-51 -219q-9 100 -39 133t-117 33h-252l-123 -574h254l-14 -67h-254l-111 -514q-6 -27 -6 -56q0 -43 15.5 -70t37.5 -30h-258q11 2 24 9t29.5 22.5t32.5 45.5t25 70z" />
    <glyph glyph-name="tbar" unicode="&#x167;" horiz-adv-x="555" 
d="M117 268l55 254h-106l14 66h106l72 317h-104l256 264l-48 -202h252l-12 -62h-252l-67 -317h254l-15 -66h-254l-43 -200q-2 -9 -8.5 -41t-9 -45t-5.5 -36t-3 -42q0 -123 112 -123q81 0 174 55q-39 -59 -101.5 -90t-115.5 -31q-85 0 -127.5 42t-42.5 116q0 48 19 141z" />
    <glyph glyph-name="Utilde" unicode="&#x168;" horiz-adv-x="1271" 
d="M203 524l157 711q5 17 5 39q0 37 -18.5 60t-41.5 30h266q-90 -27 -110 -129l-156 -715q-24 -117 -24 -205q0 -282 270 -282q173 0 287 105.5t155 303.5l162 781q6 24 6 49q0 37 -14.5 61t-34.5 31h238q-11 -3 -23 -10t-30 -21t-32.5 -41t-21.5 -63l-164 -772
q-54 -258 -192.5 -373t-370.5 -115q-178 0 -258 94t-80 254q0 95 25 207zM643 1466q-14 32 -14 68q0 63 35.5 107.5t89.5 44.5q42 0 131.5 -35t126.5 -35q44 0 66 35t22 96q14 -32 14 -68q0 -67 -32 -109t-87 -42q-44 0 -133.5 35.5t-126.5 35.5q-92 0 -92 -133z" />
    <glyph glyph-name="utilde" unicode="&#x169;" horiz-adv-x="991" 
d="M113 270l104 492q12 64 12 88q0 75 -57 86l-12 2l200 57l-141 -647q-24 -120 -24 -170q0 -141 120 -141q123 0 251 126t163 290l66 317q12 54 12 86q0 69 -59 80l-11 2l201 57q-147 -675 -180 -827q-8 -40 -8 -59q0 -71 51 -80l12 -2l-186 -58l49 252
q-66 -109 -176.5 -179.5t-204.5 -70.5q-92 0 -143.5 47.5t-51.5 135.5q0 53 13 116zM414 1124q-15 34 -15 68q0 63 35.5 107t89.5 44q42 0 131.5 -34.5t126.5 -34.5q44 0 66 35t22 96q15 -35 15 -68q0 -67 -32 -109t-87 -42q-44 0 -133.5 35.5t-126.5 35.5q-92 0 -92 -133z
" />
    <glyph glyph-name="Umacron" unicode="&#x16a;" horiz-adv-x="1271" 
d="M203 524l157 711q5 17 5 39q0 37 -18.5 60t-41.5 30h266q-90 -27 -110 -129l-156 -715q-24 -117 -24 -205q0 -282 270 -282q173 0 287 105.5t155 303.5l162 781q6 24 6 49q0 37 -14.5 61t-34.5 31h238q-11 -3 -23 -10t-30 -21t-32.5 -41t-21.5 -63l-164 -772
q-54 -258 -192.5 -373t-370.5 -115q-178 0 -258 94t-80 254q0 95 25 207zM598 1593l10 68h598l-10 -68h-598z" />
    <glyph glyph-name="umacron" unicode="&#x16b;" horiz-adv-x="991" 
d="M113 270l104 492q12 64 12 88q0 75 -57 86l-12 2l200 57l-141 -647q-24 -120 -24 -170q0 -141 120 -141q123 0 251 126t163 290l66 317q12 54 12 86q0 69 -59 80l-11 2l201 57q-147 -675 -180 -827q-8 -40 -8 -59q0 -71 51 -80l12 -2l-186 -58l49 252
q-66 -109 -176.5 -179.5t-204.5 -70.5q-92 0 -143.5 47.5t-51.5 135.5q0 53 13 116zM358 1225l11 67h598l-11 -67h-598z" />
    <glyph glyph-name="Ubreve" unicode="&#x16c;" horiz-adv-x="1271" 
d="M203 524l157 711q5 17 5 39q0 37 -18.5 60t-41.5 30h266q-90 -27 -110 -129l-156 -715q-24 -117 -24 -205q0 -282 270 -282q173 0 287 105.5t155 303.5l162 781q6 24 6 49q0 37 -14.5 61t-34.5 31h238q-11 -3 -23 -10t-30 -21t-32.5 -41t-21.5 -63l-164 -772
q-54 -258 -192.5 -373t-370.5 -115q-178 0 -258 94t-80 254q0 95 25 207zM725 1769q7 -71 54.5 -109t113.5 -38t129 38t100 109q-25 -119 -97.5 -184t-152.5 -65q-67 0 -111 46t-44 130q0 37 8 73z" />
    <glyph glyph-name="ubreve" unicode="&#x16d;" horiz-adv-x="991" 
d="M113 270l104 492q12 64 12 88q0 75 -57 86l-12 2l200 57l-141 -647q-24 -120 -24 -170q0 -141 120 -141q123 0 251 126t163 290l66 317q12 54 12 86q0 69 -59 80l-11 2l201 57q-147 -675 -180 -827q-8 -40 -8 -59q0 -71 51 -80l12 -2l-186 -58l49 252
q-66 -109 -176.5 -179.5t-204.5 -70.5q-92 0 -143.5 47.5t-51.5 135.5q0 53 13 116zM475 1401q7 -71 54.5 -109.5t113.5 -38.5t129 38.5t100 109.5q-25 -119 -97 -184.5t-152 -65.5q-67 0 -111.5 46t-44.5 130q0 38 8 74z" />
    <glyph glyph-name="Uring" unicode="&#x16e;" horiz-adv-x="1271" 
d="M203 524l157 711q5 17 5 39q0 37 -18.5 60t-41.5 30h266q-90 -27 -110 -129l-156 -715q-24 -117 -24 -205q0 -282 270 -282q173 0 287 105.5t155 303.5l162 781q6 24 6 49q0 37 -14.5 61t-34.5 31h238q-11 -3 -23 -10t-30 -21t-32.5 -41t-21.5 -63l-164 -772
q-54 -258 -192.5 -373t-370.5 -115q-178 0 -258 94t-80 254q0 95 25 207zM692 1624q0 71 46.5 123.5t129.5 52.5t128.5 -52t45.5 -124q0 -71 -45.5 -122.5t-128.5 -51.5t-129.5 51.5t-46.5 122.5zM868 1505q53 0 83 35.5t30 83.5t-29.5 83.5t-83.5 35.5q-55 0 -85.5 -35.5
t-30.5 -83.5t31 -83.5t85 -35.5z" />
    <glyph glyph-name="uring" unicode="&#x16f;" horiz-adv-x="991" 
d="M113 270l104 492q12 64 12 88q0 75 -57 86l-12 2l200 57l-141 -647q-24 -120 -24 -170q0 -141 120 -141q123 0 251 126t163 290l66 317q12 54 12 86q0 69 -59 80l-11 2l201 57q-147 -675 -180 -827q-8 -40 -8 -59q0 -71 51 -80l12 -2l-186 -58l49 252
q-66 -109 -176.5 -179.5t-204.5 -70.5q-92 0 -143.5 47.5t-51.5 135.5q0 53 13 116zM469 1255q0 72 46.5 124.5t129.5 52.5t128.5 -52.5t45.5 -124.5q0 -71 -45.5 -122.5t-128.5 -51.5t-129.5 51.5t-46.5 122.5zM645 1137q53 0 83 35t30 83t-29.5 83.5t-83.5 35.5
q-55 0 -86 -35.5t-31 -83.5t31.5 -83t85.5 -35z" />
    <glyph glyph-name="Uhungarumlaut" unicode="&#x170;" horiz-adv-x="1271" 
d="M203 524l157 711q5 17 5 39q0 37 -18.5 60t-41.5 30h266q-90 -27 -110 -129l-156 -715q-24 -117 -24 -205q0 -282 270 -282q173 0 287 105.5t155 303.5l162 781q6 24 6 49q0 37 -14.5 61t-34.5 31h238q-11 -3 -23 -10t-30 -21t-32.5 -41t-21.5 -63l-164 -772
q-54 -258 -192.5 -373t-370.5 -115q-178 0 -258 94t-80 254q0 95 25 207zM676 1436l162 297h170zM965 1436l161 297h170z" />
    <glyph glyph-name="uhungarumlaut" unicode="&#x171;" horiz-adv-x="991" 
d="M113 270l104 492q12 64 12 88q0 75 -57 86l-12 2l200 57l-141 -647q-24 -120 -24 -170q0 -141 120 -141q123 0 251 126t163 290l66 317q12 54 12 86q0 69 -59 80l-11 2l201 57q-147 -675 -180 -827q-8 -40 -8 -59q0 -71 51 -80l12 -2l-186 -58l49 252
q-66 -109 -176.5 -179.5t-204.5 -70.5q-92 0 -143.5 47.5t-51.5 135.5q0 53 13 116zM436 1067l162 297h170zM725 1067l162 297h170z" />
    <glyph glyph-name="Uogonek" unicode="&#x172;" horiz-adv-x="1271" 
d="M532 -31h-16q-178 0 -258 94t-80 254q0 95 25 207l157 711q5 17 5 39q0 37 -18.5 60t-41.5 30h264q-90 -31 -108 -129l-156 -715q-24 -117 -24 -205q0 -282 270 -282q173 0 287 105.5t155 303.5l162 781q6 24 6 49q0 37 -14.5 61t-34.5 31h236q-86 -30 -105 -135
l-164 -772q-42 -196 -132 -308.5t-230 -152.5q-4 -1 -27.5 -7t-29.5 -8t-25 -9t-29.5 -13t-26 -17t-30.5 -24q-70 -67 -70 -131q0 -80 88 -80q52 0 131 31q-30 -51 -79 -78t-101 -27q-55 0 -92 30t-37 85q0 117 143 221z" />
    <glyph glyph-name="uogonek" unicode="&#x173;" horiz-adv-x="991" 
d="M633 16l43 205q-66 -109 -176.5 -179.5t-204.5 -70.5q-92 0 -143.5 47.5t-51.5 135.5q0 53 13 116q92 439 110 527q6 27 6 53q0 75 -57 86l-12 2l200 57l-151 -694q-14 -77 -14 -123q0 -141 120 -141q123 0 251 126t163 290l72 344q6 27 6 59q0 69 -59 80l-11 2l201 57
q-147 -675 -180 -827q-8 -40 -8 -59q0 -71 51 -80l12 -2q-122 -28 -210.5 -95t-88.5 -145q0 -80 88 -80q52 0 131 31q-30 -51 -79 -78t-101 -27q-55 0 -92 30t-37 85q0 68 55 141t154 127z" />
    <glyph glyph-name="Wcircumflex" unicode="&#x174;" horiz-adv-x="1886" 
d="M459 -72l-135 1229q-20 170 -84 207h233q-26 -15 -38 -43q-15 -36 -15 -96q0 -53 10 -140l102 -895l492 842l-14 125q-20 170 -84 207h235q-53 -32 -53 -156q0 -38 6 -90l105 -928l561 949q65 112 65 174q0 38 -33 51h222q-12 -4 -29 -18.5t-55.5 -64.5t-83.5 -126
l-721 -1227l-109 1000zM840 1440l299 323l184 -323l-211 176z" />
    <glyph glyph-name="wcircumflex" unicode="&#x175;" horiz-adv-x="1441" 
d="M283 -70l-78 826q-9 95 -31.5 133.5t-67.5 46.5l-12 2l182 55l78 -825l482 836l110 -859l385 662q37 64 37 94q0 20 -13 36t-24.5 21.5t-23.5 8.5h202l-628 -1037l-109 848zM602 1071l299 324l184 -324l-211 176z" />
    <glyph glyph-name="Ycircumflex" unicode="&#x176;" horiz-adv-x="1144" 
d="M444 147l95 449l-199 616q-40 114 -107 152h234q-39 -20 -39 -74q0 -23 16 -76l179 -536l428 530q69 86 69 123q0 22 -22 33h211q-78 -33 -179 -158l-493 -610l-92 -440q-8 -36 -8 -56q0 -43 17.5 -70t39.5 -30h-262q10 2 22.5 9t30 21.5t34 45t25.5 71.5zM559 1440
l299 323l184 -323l-211 176z" />
    <glyph glyph-name="ycircumflex" unicode="&#x177;" horiz-adv-x="909" 
d="M332 0l-150 782q-15 80 -40 111t-83 43l-10 2l189 57l168 -893q70 93 170 270.5t161 317.5q58 137 58 199q0 57 -47 78h192q-9 -27 -137 -299q-171 -361 -402 -674q-131 -178 -249.5 -286.5t-194.5 -108.5q-52 0 -78 27t-26 65q0 15 8 39q29 -29 94 -29q51 0 110.5 34
t114.5 90t88 95t64 80zM309 1071l299 324l185 -324l-211 176z" />
    <glyph glyph-name="Ydieresis" unicode="&#x178;" horiz-adv-x="1144" 
d="M444 147l95 449l-199 616q-40 114 -107 152h234q-39 -20 -39 -74q0 -23 16 -76l179 -536l428 530q69 86 69 123q0 22 -22 33h211q-78 -33 -179 -158l-493 -610l-92 -440q-8 -36 -8 -56q0 -43 17.5 -70t39.5 -30h-262q10 2 22.5 9t30 21.5t34 45t25.5 71.5zM905 1649
q0 31 21 51t55 20q33 0 53.5 -20t20.5 -51q0 -32 -20.5 -54t-53.5 -22t-54.5 22.5t-21.5 53.5zM643 1573q-32 0 -52 22t-20 54q0 31 20 51t52 20q35 0 55.5 -20t20.5 -51q0 -32 -21 -54t-55 -22z" />
    <glyph glyph-name="Zacute" unicode="&#x179;" horiz-adv-x="1095" 
d="M160 59h545q109 0 161 34.5t103 123.5l-49 -217h-924q53 76 304 402t476 614l225 289h-534q-40 0 -75 -11t-56.5 -26.5t-38 -34t-24 -31t-9.5 -20.5l39 182h860zM702 1436l162 297h170z" />
    <glyph glyph-name="zacute" unicode="&#x17a;" horiz-adv-x="813" 
d="M-25 0l687 909h-347q-72 0 -113.5 -20.5t-101.5 -79.5l101 158h606l-680 -908h375q96 0 138 26t83 99l-45 -184h-703zM483 1067l162 297h170z" />
    <glyph glyph-name="Zdotaccent" unicode="&#x17b;" horiz-adv-x="1095" 
d="M160 59h545q109 0 161 34.5t103 123.5l-49 -217h-924q53 76 304 402t476 614l225 289h-534q-40 0 -75 -11t-56.5 -26.5t-38 -34t-24 -31t-9.5 -20.5l39 182h860zM700 1647q0 33 19.5 54t56.5 21q35 0 55.5 -21.5t20.5 -53.5t-20.5 -54t-55.5 -22q-37 0 -56.5 21.5
t-19.5 54.5z" />
    <glyph glyph-name="zdotaccent" unicode="&#x17c;" horiz-adv-x="813" 
d="M-25 0l687 909h-347q-72 0 -113.5 -20.5t-101.5 -79.5l101 158h606l-680 -908h375q96 0 138 26t83 99l-45 -184h-703zM479 1278q0 33 19.5 54.5t56.5 21.5q35 0 55.5 -22t20.5 -54t-20.5 -54t-55.5 -22q-37 0 -56.5 21.5t-19.5 54.5z" />
    <glyph glyph-name="Zcaron" unicode="&#x17d;" horiz-adv-x="1095" 
d="M160 59h545q109 0 161 34.5t103 123.5l-49 -217h-924q53 76 304 402t476 614l225 289h-534q-40 0 -75 -11t-56.5 -26.5t-38 -34t-24 -31t-9.5 -20.5l39 182h860zM737 1493l-184 324l211 -177l272 177z" />
    <glyph glyph-name="zcaron" unicode="&#x17e;" horiz-adv-x="813" 
d="M-25 0l687 909h-347q-72 0 -113.5 -20.5t-101.5 -79.5l101 158h606l-680 -908h375q96 0 138 26t83 99l-45 -184h-703zM514 1092l-184 323l211 -176l272 176z" />
    <glyph glyph-name="longs" unicode="&#x17f;" horiz-adv-x="505" 
d="M109 0l192 905h-192l14 62h192l35 151q34 148 123.5 230t198.5 82q50 0 75 -22.5t25 -55.5q0 -36 -25.5 -69.5t-66.5 -45.5q14 22 14 55q0 34 -20 53t-51 19q-122 0 -174 -231l-244 -1133q-17 -78 -45 -145t-68 -123.5t-97.5 -88.5t-125.5 -32q-40 0 -80 14.5t-61 40.5
q43 -12 86 -12q120 0 189.5 88t105.5 258z" />
    <glyph glyph-name="florin" unicode="&#x192;" horiz-adv-x="1052" 
d="M-92 -248l47 98q16 -26 54.5 -47.5t76.5 -21.5q73 0 121.5 90.5t105.5 292.5l162 579h-131l12 60h136q23 85 39.5 141.5t40.5 125t46 112t52.5 88.5t63.5 70t76 41t93 16q77 0 150 -31l-49 -94q-11 26 -54.5 43.5t-87.5 17.5q-31 0 -57.5 -15t-50 -49.5t-42.5 -73.5
t-41 -104t-39 -123t-43 -147q-3 -12 -5 -18h139l-12 -60h-144l-143 -514q-79 -287 -157 -397.5t-220 -110.5q-20 0 -37.5 2t-33.5 6t-24.5 6.5t-24 9t-19.5 7.5z" />
    <glyph glyph-name="Ohorn" unicode="&#x1a0;" horiz-adv-x="1355" 
d="M1290 1059q137 63 176 166q-29 11 -48 34t-19 52q0 35 23.5 58.5t60.5 23.5q34 0 56 -22t22 -60q0 -76 -68 -164q-66 -86 -193 -141q7 -58 7 -103q0 -106 -24.5 -216t-69 -214t-112.5 -196t-150.5 -161t-187.5 -109t-218 -40q-193 0 -304.5 132t-111.5 358
q0 172 58.5 341t158 302t243.5 215t304 82q157 0 260 -90t137 -248zM565 29q133 0 252.5 77.5t201.5 201.5t130 281t49 316q0 196 -87.5 316t-244.5 120q-132 0 -251.5 -78.5t-201 -204.5t-129.5 -284t-48 -317q0 -198 87.5 -313t241.5 -115z" />
    <glyph glyph-name="ohorn" unicode="&#x1a1;" horiz-adv-x="993" 
d="M864 768q131 69 168 164q-29 11 -48 34t-19 52q0 35 23.5 58.5t60.5 23.5q34 0 55.5 -22t21.5 -60q0 -77 -67 -164q-63 -82 -185 -139q7 -47 7 -82q0 -169 -73.5 -323.5t-196 -248.5t-257.5 -94q-74 0 -130.5 31t-89.5 83.5t-49.5 115.5t-16.5 133q0 158 71 311.5
t194 253.5t261 100q109 0 176 -62.5t94 -164.5zM371 25q63 0 121.5 32t102.5 84.5t80 119t59 137.5t35.5 137t12.5 120q0 52 -10.5 99.5t-32.5 90t-63.5 68t-97.5 25.5q-64 0 -123 -31.5t-103 -84t-80 -118.5t-59 -136.5t-35 -137t-12 -121.5q0 -51 11 -98.5t33.5 -90.5
t64 -69t96.5 -26z" />
    <glyph glyph-name="Uhorn" unicode="&#x1af;" horiz-adv-x="1388" 
d="M203 524l157 711q5 17 5 39q0 37 -18.5 60t-41.5 30h264q-90 -31 -108 -129l-156 -715q-24 -117 -24 -205q0 -282 270 -282q173 0 287 105.5t155 303.5l162 781q6 24 6 49q0 37 -14.5 61t-34.5 31h160l-72 -338q108 11 191 71t108 128q-29 11 -48 34t-19 52
q0 35 23.5 58.5t60.5 23.5q34 0 55.5 -22t21.5 -60q0 -77 -67 -164q-46 -62 -140 -116t-198 -60l-109 -514q-54 -258 -192.5 -373t-370.5 -115q-178 0 -258 94t-80 254q0 95 25 207z" />
    <glyph glyph-name="uhorn" unicode="&#x1b0;" horiz-adv-x="1089" 
d="M113 270l104 492q12 64 12 88q0 75 -57 86l-12 2l200 57l-141 -647q-24 -120 -24 -170q0 -141 120 -141q123 0 251 126t163 290l66 317q12 54 12 86q0 69 -59 80l-11 2l201 57l-55 -252q89 21 156 75.5t89 113.5q-29 11 -48 34t-19 52q0 35 23.5 58.5t60.5 23.5
q34 0 56 -22t22 -60q0 -76 -68 -164q-39 -53 -117.5 -102.5t-167.5 -65.5q-15 -70 -42.5 -195t-45 -206t-24.5 -117q-8 -40 -8 -59q0 -71 51 -80l12 -2l-186 -58l49 252q-66 -109 -176.5 -179.5t-204.5 -70.5q-92 0 -143.5 47.5t-51.5 135.5q0 53 13 116z" />
    <glyph glyph-name="uni0218" unicode="&#x218;" horiz-adv-x="978" 
d="M49 72l53 237q12 -149 93 -214.5t223 -65.5q160 0 247 78.5t87 211.5q0 62 -27.5 117.5t-72 98t-98 83t-107 81.5t-98 85.5t-72 103.5t-27.5 126q0 170 112.5 276.5t299.5 106.5q69 0 159.5 -23t141.5 -59l-45 -205q-6 117 -83 172t-200 55q-135 0 -216 -78.5t-81 -207.5
q0 -60 28 -113t72 -95t98 -82t108 -82t98 -86.5t72 -104t28 -126.5q0 -183 -110 -288t-326 -105q-85 0 -168.5 22.5t-124.5 43t-64 37.5zM231 -377h-14q57 12 101.5 55.5t48.5 96.5q-16 -4 -23 -4q-30 0 -49 20t-19 49q0 30 20 52t54 22q40 0 68 -29.5t28 -72.5
q0 -82 -63 -134t-152 -55z" />
    <glyph glyph-name="uni0219" unicode="&#x219;" horiz-adv-x="794" 
d="M31 33l57 213q2 -102 53.5 -165t163.5 -63q123 0 188.5 52.5t65.5 134.5q0 41 -21.5 78t-55.5 66.5t-75 58.5t-82.5 60t-75.5 64.5t-55.5 78t-21.5 94.5q0 74 31 132t81.5 91.5t110 51t121.5 17.5q94 0 159.5 -36.5t65.5 -98.5q0 -66 -88 -143q9 37 9 65q0 77 -51 117.5
t-126 40.5q-91 0 -164 -55.5t-73 -145.5q0 -57 40.5 -107.5t98 -89.5t114.5 -80t97.5 -98t40.5 -124q0 -130 -95 -204.5t-247 -74.5q-70 0 -148.5 22t-117.5 48zM150 -377h-15q57 12 101.5 55.5t48.5 96.5q-16 -4 -23 -4q-30 0 -48.5 20t-18.5 49q0 30 19.5 52t53.5 22
q40 0 68.5 -29.5t28.5 -72.5q0 -82 -63 -134t-152 -55z" />
    <glyph glyph-name="uni021A" unicode="&#x21a;" horiz-adv-x="1101" 
d="M426 147l248 1164h-254q-83 0 -127.5 -32t-95.5 -128l49 213h987l-51 -219q-9 100 -39 133t-117 33h-252l-248 -1155q-6 -27 -6 -56q0 -43 16.5 -70t38.5 -30h-262q10 2 22.5 9t30.5 21.5t34.5 45t25.5 71.5zM276 -377h-14q57 12 101.5 55.5t48.5 96.5q-16 -4 -23 -4
q-30 0 -48.5 20t-18.5 49q0 30 20 52t53 22q40 0 68.5 -29.5t28.5 -72.5q0 -82 -63.5 -134t-152.5 -55z" />
    <glyph glyph-name="uni021B" unicode="&#x21b;" horiz-adv-x="555" 
d="M117 268l141 637h-104l256 264l-48 -202h252l-12 -62h-252l-125 -583q-3 -13 -8 -37t-7.5 -35.5t-5.5 -29t-4 -32.5t-1 -30q0 -123 112 -123q81 0 174 55q-39 -59 -101.5 -90t-115.5 -31q-85 0 -127.5 42t-42.5 116q0 48 19 141zM88 -377h-14q57 12 101 55.5t48 96.5
q-16 -4 -22 -4q-30 0 -49 20t-19 49q0 30 20 52t54 22q40 0 68 -29.5t28 -72.5q0 -82 -63 -134t-152 -55z" />
    <glyph glyph-name="circumflex" unicode="&#x2c6;" 
d="M561 1071l299 324l184 -324l-210 176z" />
    <glyph glyph-name="caron" unicode="&#x2c7;" 
d="M745 1092l-184 323l211 -176l272 176z" />
    <glyph glyph-name="breve" unicode="&#x2d8;" 
d="M655 1401q7 -71 54.5 -109.5t113.5 -38.5t129.5 38.5t100.5 109.5q-25 -119 -97.5 -184.5t-152.5 -65.5q-67 0 -111.5 46t-44.5 130q0 38 8 74z" />
    <glyph glyph-name="dotaccent" unicode="&#x2d9;" 
d="M786 1278q0 33 19.5 54.5t56.5 21.5q35 0 55.5 -22t20.5 -54t-20.5 -54t-55.5 -22q-37 0 -56.5 21.5t-19.5 54.5z" />
    <glyph glyph-name="ring" unicode="&#x2da;" 
d="M651 1255q0 72 46.5 124.5t129.5 52.5t128.5 -52.5t45.5 -124.5q0 -71 -45.5 -122.5t-128.5 -51.5t-129.5 51.5t-46.5 122.5zM827 1137q53 0 83 35t30 83t-29.5 83.5t-83.5 35.5q-55 0 -85.5 -35.5t-30.5 -83.5t31 -83t85 -35z" />
    <glyph glyph-name="ogonek" unicode="&#x2db;" 
d="M485 27l88 -7q-96 -45 -156.5 -109t-60.5 -124q0 -80 88 -80q52 0 131 31q-30 -51 -79 -78t-101 -27q-55 0 -92 30t-37 85q0 69 57.5 145t161.5 134z" />
    <glyph glyph-name="tilde" unicode="&#x2dc;" 
d="M596 1124q-14 32 -14 68q0 63 35.5 107t89.5 44q42 0 131.5 -34.5t126.5 -34.5q44 0 66 35t22 96q14 -32 14 -68q0 -67 -32 -109t-87 -42q-44 0 -133.5 35.5t-126.5 35.5q-92 0 -92 -133z" />
    <glyph glyph-name="hungarumlaut" unicode="&#x2dd;" 
d="M424 1067l162 297h170zM713 1067l161 297h170z" />
    <glyph glyph-name="gravecomb" unicode="&#x300;" horiz-adv-x="0" 
d="M102 1067l-204 297h151z" />
    <glyph glyph-name="acutecomb" unicode="&#x301;" horiz-adv-x="0" 
d="M-166 1067l162 297h170z" />
    <glyph glyph-name="uni0302" unicode="&#x302;" horiz-adv-x="0" 
d="M-242 1071l299 324l185 -324l-211 176z" />
    <glyph glyph-name="tildecomb" unicode="&#x303;" horiz-adv-x="0" 
d="M-227 1124q-15 34 -15 68q0 63 35.5 107t89.5 44q42 0 131.5 -34.5t126.5 -34.5q44 0 66 35t22 96q15 -35 15 -68q0 -67 -32 -109t-87 -42q-44 0 -133.5 35.5t-126.5 35.5q-92 0 -92 -133z" />
    <glyph glyph-name="uni0306" unicode="&#x306;" horiz-adv-x="0" 
d="M-195 1401q7 -71 54.5 -109.5t113.5 -38.5t129.5 38.5t100.5 109.5q-25 -119 -97.5 -184.5t-152.5 -65.5q-67 0 -111.5 46t-44.5 130q0 38 8 74z" />
    <glyph glyph-name="hookabovecomb" unicode="&#x309;" horiz-adv-x="0" 
d="M-143 1300l22 109q74 31 141 31q56 0 89.5 -29t33.5 -74q0 -48 -28 -84t-62 -52.5t-62 -37t-28 -41.5q0 -22 27 -28q-15 -11 -37 -11q-24 0 -37.5 14.5t-13.5 37.5q0 24 16.5 43t40 33t47.5 29.5t40.5 39t16.5 53.5q0 27 -15.5 43.5t-41.5 16.5q-68 0 -149 -93z" />
    <glyph glyph-name="uni031B" unicode="&#x31b;" horiz-adv-x="0" 
d="M-121 1006l-20 49q144 61 186 170q-30 11 -49 34t-19 52q0 35 23.5 58.5t60.5 23.5q34 0 56 -22t22 -60q0 -77 -67 -164q-66 -86 -193 -141z" />
    <glyph glyph-name="dotbelowcomb" unicode="&#x323;" horiz-adv-x="0" 
d="M-76 -242q0 33 19.5 54.5t56.5 21.5q35 0 55.5 -22t20.5 -54t-20.5 -53.5t-55.5 -21.5q-37 0 -56.5 21t-19.5 54z" />
    <glyph glyph-name="uni037E" unicode="&#x37e;" horiz-adv-x="466" 
d="M205 782q0 36 24.5 63t67.5 27t67.5 -27t24.5 -63q0 -37 -24.5 -64.5t-67.5 -27.5t-67.5 27.5t-24.5 64.5zM-111 -369q101 42 187 139.5t86 194.5q0 13 -4 29q-6 -2 -21 -2q-38 0 -59 24.5t-21 57.5q0 35 22.5 60.5t61.5 25.5q44 0 75.5 -38t31.5 -112
q0 -72 -33.5 -145.5t-104 -136t-163.5 -86.5q-43 -9 -58 -11z" />
    <glyph glyph-name="tonos" unicode="&#x384;" horiz-adv-x="913" 
d="M535 1047l79 329h152z" />
    <glyph glyph-name="dieresistonos" unicode="&#x385;" horiz-adv-x="913" 
d="M731 1280q0 30 20.5 49t51.5 19q34 0 54 -18.5t20 -49.5t-20.5 -51.5t-53.5 -20.5q-31 0 -51.5 20.5t-20.5 51.5zM371 1280q0 31 19.5 49.5t51.5 18.5t52 -18.5t20 -49.5t-20 -51.5t-52 -20.5t-51.5 20.5t-19.5 51.5zM567 1190l80 330h152z" />
    <glyph glyph-name="Alphatonos" unicode="&#x386;" horiz-adv-x="1327" 
d="M221 0h-221q9 3 25 16.5t55.5 64t89.5 128.5l762 1210l137 -1208q8 -78 27 -129t33.5 -66t25.5 -16h-237q10 3 20 12t21.5 39t13.5 76q0 51 -4 84l-31 262h-524l-156 -248q-68 -110 -68 -172q0 -25 10 -38t21 -15zM451 535h481l-74 651zM381 1034l80 330h151z" />
    <glyph glyph-name="anoteleia" unicode="&#x387;" horiz-adv-x="466" 
d="M156 498q0 36 25.5 64t68.5 28t66.5 -27.5t23.5 -64.5t-23.5 -63.5t-66.5 -26.5t-68.5 27t-25.5 63z" />
    <glyph glyph-name="Epsilontonos" unicode="&#x388;" horiz-adv-x="1067" 
d="M246 61h407q110 0 165.5 33.5t103.5 126.5l-45 -221h-844q13 2 27 9t35.5 24t40.5 52.5t30 84.5l221 1032q8 40 8 60q0 44 -18 69.5t-43 32.5h792l-41 -188q0 27 -4.5 47t-11 34t-19.5 23t-24 14t-32 7.5t-36.5 3t-44.5 0.5h-407l-119 -574h348q124 0 158 60l-35 -185
q-1 23 -13 38t-36 20t-40.5 6.5t-45.5 1.5h-348zM59 1034l80 330h152z" />
    <glyph glyph-name="Etatonos" unicode="&#x389;" horiz-adv-x="1374" 
d="M162 147l215 1006q16 85 16 111q0 42 -15 67.5t-36 32.5h264q-11 -3 -24 -10.5t-32 -23.5t-35.5 -47.5t-25.5 -72.5l-102 -479h733l101 471q8 46 8 64q0 41 -15 66t-36 32h264q-11 -3 -24 -10.5t-32 -23.5t-35.5 -47.5t-25.5 -72.5l-225 -1054q-8 -40 -8 -56
q0 -43 17.5 -70t39.5 -30h-266q10 2 22 9t29.5 21.5t34 45t26.5 71.5l113 523h-733l-111 -514q-6 -27 -6 -56q0 -43 16.5 -70t38.5 -30h-264q10 2 22 9t30 21.5t34.5 45t26.5 71.5zM59 1034l80 330h152z" />
    <glyph glyph-name="Iotatonos" unicode="&#x38a;" horiz-adv-x="540" 
d="M307 0h-258q10 2 22 9t30 21.5t34.5 45t26.5 71.5l215 1008q18 88 18 125q0 29 -10.5 48.5t-21 26t-21.5 9.5h266q-11 -3 -23.5 -10.5t-31.5 -23.5t-35.5 -47.5t-25.5 -72.5l-226 -1054q-8 -40 -8 -62q0 -43 13.5 -67t35.5 -27zM59 1034l80 330h152z" />
    <glyph glyph-name="Omicrontonos" unicode="&#x38c;" horiz-adv-x="1341" 
d="M545 -33q-193 0 -304.5 132t-111.5 358q0 172 58.5 341t158 302t243.5 215t304 82q194 0 304 -135.5t110 -358.5q0 -106 -24.5 -216t-69 -214t-112.5 -196t-150.5 -161t-187.5 -109t-218 -40zM565 29q133 0 252.5 77.5t201.5 201.5t130 281t49 316q0 196 -87.5 316
t-244.5 120q-132 0 -251.5 -78.5t-201 -204.5t-129.5 -284t-48 -317q0 -198 87.5 -313t241.5 -115zM100 1034l80 330h152z" />
    <glyph glyph-name="Upsilontonos" unicode="&#x38e;" horiz-adv-x="1208" 
d="M508 147l94 449l-199 616q-40 114 -106 152h233q-38 -19 -38 -74q0 -23 16 -76l178 -536l428 530q70 87 70 123q0 21 -23 33h211q-77 -33 -178 -158l-494 -610l-92 -440q-8 -36 -8 -56q0 -43 17.5 -70t39.5 -30h-262q10 2 22.5 9t30.5 21.5t34.5 45t25.5 71.5zM59 1034
l80 330h152z" />
    <glyph glyph-name="Omegatonos" unicode="&#x38f;" horiz-adv-x="1531" 
d="M-25 0l11 231q10 -37 16.5 -57t20 -43t30.5 -34t45 -21t67 -13.5t95 -3.5h117q-102 66 -167 207.5t-65 300.5q0 158 62 308.5t167 265.5t256.5 185.5t319.5 70.5q241 0 382 -157.5t141 -410.5q0 -239 -128.5 -442.5t-351.5 -327.5h97q56 0 97 3.5t74 13.5t55 21t45 33.5
t38.5 43t40.5 57.5l-88 -231h-629q181 39 330 168t232 309t83 369q0 221 -119 358t-329 137q-150 0 -279 -73t-214 -190.5t-133 -263.5t-48 -294q0 -192 86 -329.5t270 -190.5h-627zM100 1034l80 330h152z" />
    <glyph glyph-name="iotadieresistonos" unicode="&#x390;" horiz-adv-x="546" 
d="M113 252l106 489q21 97 21 115q0 61 -58 78l-14 4l197 57l-158 -733q-17 -83 -17 -115q0 -112 86 -112q44 0 83.5 28t84.5 84q-26 -91 -86 -135.5t-127 -44.5q-63 0 -99 44t-36 122q0 40 17 119zM483 1280q0 30 20.5 49t51.5 19q34 0 54 -18.5t20 -49.5t-20.5 -51.5
t-53.5 -20.5q-31 0 -51.5 20.5t-20.5 51.5zM123 1280q0 31 20 49.5t52 18.5t51.5 -18.5t19.5 -49.5t-19.5 -51.5t-51.5 -20.5t-52 20.5t-20 51.5zM319 1190l80 330h152z" />
    <glyph glyph-name="Alpha" unicode="&#x391;" horiz-adv-x="1327" 
d="M221 0h-221q9 3 25 16.5t55.5 64t89.5 128.5l762 1210l137 -1208q8 -78 27 -129t33.5 -66t25.5 -16h-237q10 3 20 12t21.5 39t13.5 76q0 51 -4 84l-31 262h-524l-156 -248q-68 -110 -68 -172q0 -25 10 -38t21 -15zM451 535h481l-74 651z" />
    <glyph glyph-name="Beta" unicode="&#x392;" horiz-adv-x="1120" 
d="M139 166l215 1032q6 24 6 62q0 96 -59 104h432q139 0 227.5 -70t88.5 -198q0 -90 -41 -173.5t-119.5 -142.5t-177.5 -71q138 -28 202 -111t64 -195q0 -75 -28 -145t-81.5 -128.5t-144 -94t-203.5 -35.5h-487q9 2 19.5 9t27 23.5t32.5 51t27 82.5zM217 59h279q96 0 170 29
t116 78.5t63 107t21 121.5q0 56 -17 105.5t-51 90t-91.5 64t-133.5 23.5h-227zM360 737h236q63 0 123 22.5t110 64.5t80.5 110t30.5 151q0 99 -56.5 160.5t-181.5 61.5h-225z" />
    <glyph glyph-name="Gamma" unicode="&#x393;" horiz-adv-x="972" 
d="M301 0h-289q13 2 27 9t35.5 24t40.5 52.5t30 84.5l224 1032q6 30 6 62q0 43 -18 68t-42 32h789l-39 -190q-4 46 -15 73t-35 39.5t-48 15.5t-72 3h-408l-237 -1139q-8 -40 -8 -62q0 -46 17.5 -73.5t41.5 -30.5z" />
    <glyph glyph-name="uni0394" unicode="&#x394;" horiz-adv-x="1327" 
d="M39 0l893 1419l162 -1419h-1055zM166 76h817l-125 1108z" />
    <glyph glyph-name="Epsilon" unicode="&#x395;" horiz-adv-x="1064" 
d="M244 61h407q110 0 165.5 33.5t103.5 126.5l-46 -221h-843q13 2 27 9t35.5 24t40.5 52.5t30 84.5l221 1032q8 40 8 60q0 44 -18 69.5t-43 32.5h792l-41 -188q0 27 -4.5 47t-11 34t-19.5 23t-24 14t-32 7.5t-36.5 3t-44.5 0.5h-407l-119 -574h348q124 0 158 60l-35 -185
q-1 23 -13 38t-36 20t-40.5 6.5t-45.5 1.5h-348z" />
    <glyph glyph-name="Zeta" unicode="&#x396;" horiz-adv-x="1095" 
d="M160 59h545q109 0 161 34.5t103 123.5l-49 -217h-924q53 76 304 402t476 614l225 289h-534q-40 0 -75 -11t-56.5 -26.5t-38 -34t-24 -31t-9.5 -20.5l39 182h860z" />
    <glyph glyph-name="Eta" unicode="&#x397;" horiz-adv-x="1353" 
d="M141 147l215 1006q17 90 17 111q0 42 -15 67.5t-36 32.5h264q-11 -3 -24 -10.5t-32 -23.5t-35.5 -47.5t-25.5 -72.5l-102 -479h733l100 471q8 46 8 64q0 41 -15 66t-36 32h264q-11 -3 -23.5 -10.5t-31.5 -23.5t-35.5 -47.5t-25.5 -72.5l-226 -1054q-8 -40 -8 -56
q0 -43 17.5 -70t39.5 -30h-266q10 2 22 9t30 21.5t34.5 45t26.5 71.5l112 523h-733l-110 -514q-6 -27 -6 -56q0 -43 16.5 -70t38.5 -30h-264q10 2 22 9t29.5 21.5t34 45t26.5 71.5z" />
    <glyph glyph-name="Theta" unicode="&#x398;" horiz-adv-x="1341" 
d="M442 602l41 195q1 -6 4 -12.5t12.5 -16.5t24 -18t41.5 -13.5t62 -5.5h190q127 0 166 68l-41 -197q0 5 -1.5 11.5t-9.5 17.5t-21 19.5t-39.5 15t-61.5 6.5h-191q-40 0 -72 -7t-50.5 -16t-31.5 -20t-17 -17t-5 -10zM545 -33q-193 0 -304.5 132t-111.5 358q0 172 58.5 341
t158 302t243.5 215t304 82q194 0 304 -135.5t110 -358.5q0 -106 -24.5 -216t-69 -214t-112.5 -196t-150.5 -161t-187.5 -109t-218 -40zM565 29q133 0 252.5 77.5t201.5 201.5t130 281t49 316q0 196 -87.5 316t-244.5 120q-132 0 -251.5 -78.5t-201 -204.5t-129.5 -284
t-48 -317q0 -198 87.5 -313t241.5 -115z" />
    <glyph glyph-name="Iota" unicode="&#x399;" horiz-adv-x="522" 
d="M289 0h-258q10 2 22 9t29.5 21.5t34 45t26.5 71.5l215 1008q19 93 19 125q0 29 -10.5 48.5t-21 26t-21.5 9.5h266q-11 -3 -24 -10.5t-32 -23.5t-35.5 -47.5t-25.5 -72.5l-225 -1054q-8 -40 -8 -62q0 -43 13.5 -67t35.5 -27z" />
    <glyph glyph-name="Kappa" unicode="&#x39a;" horiz-adv-x="1177" 
d="M141 147l226 1055q6 30 6 60q0 43 -17.5 69t-40.5 33h267q-11 -3 -23 -10t-30.5 -23t-34.5 -47.5t-25 -73.5l-96 -454l534 446q101 84 101 131q0 21 -29 31h297q-114 -34 -252 -147l-549 -451l373 -573q25 -39 48.5 -69.5t39 -48t33 -33t24.5 -20.5t21.5 -13t15.5 -9
h-186l-473 748l-127 -592q-6 -27 -6 -56q0 -43 16.5 -70t38.5 -30h-264q10 2 22 9t29.5 21.5t34 45t26.5 71.5z" />
    <glyph glyph-name="Lambda" unicode="&#x39b;" horiz-adv-x="1327" 
d="M227 0h-227q9 3 25 16.5t55.5 64t89.5 128.5l762 1210l137 -1208q8 -78 27 -129t33.5 -66t25.5 -16h-240q10 3 20.5 12t22 39t13.5 76q0 51 -4 84l-105 975l-598 -959q-67 -110 -67 -174q0 -25 9.5 -38t20.5 -15z" />
    <glyph glyph-name="Mu" unicode="&#x39c;" horiz-adv-x="1593" 
d="M287 0h-258q15 3 33 13t44 45.5t39 88.5l226 1055q6 30 6 60q0 43 -17.5 69t-40.5 33h193l238 -1163l720 1163h195q-11 -3 -23.5 -10.5t-30.5 -23.5t-34 -47.5t-25 -72.5l-225 -1054q-6 -27 -6 -56q0 -43 16.5 -70t38.5 -30h-266q10 2 22 9t30 21.5t34.5 45t26.5 71.5
l231 1065l-760 -1235l-250 1227l-225 -1048q-6 -24 -6 -47q0 -47 23 -76.5t51 -32.5z" />
    <glyph glyph-name="Nu" unicode="&#x39d;" horiz-adv-x="1343" 
d="M283 0h-252q17 3 35.5 13t43 43t35.5 83l220 1012q6 24 6 55q0 46 -24.5 96t-72.5 62h158l594 -1153l213 997q6 24 6 49q0 46 -19.5 73t-45.5 34h235q-10 -3 -21 -10t-27.5 -22t-31 -45t-22.5 -70l-273 -1262l-608 1180l-211 -990q-4 -16 -4 -45q0 -43 20 -70t46 -30z
" />
    <glyph glyph-name="Xi" unicode="&#x39e;" horiz-adv-x="1056" 
d="M43 0l-2 221q26 -102 70 -131t174 -29h333q86 0 137.5 15t87 46.5t81.5 98.5l-76 -221h-805zM287 1176l41 188h755l-41 -188q-4 31 -7.5 47.5t-14 35t-29 27t-50 14t-79.5 5.5h-338q-59 0 -97.5 -7t-64.5 -25.5t-41 -38.5t-34 -58zM287 606l39 185q2 -11 10.5 -22.5
t42.5 -24.5t88 -13h213q124 0 168 62l-39 -187q-1 6 -3 12.5t-11 17t-22.5 18t-39.5 13t-61 5.5h-219q-133 0 -166 -66z" />
    <glyph glyph-name="Omicron" unicode="&#x39f;" horiz-adv-x="1341" 
d="M545 -33q-193 0 -304.5 132t-111.5 358q0 172 58.5 341t158 302t243.5 215t304 82q194 0 304 -135.5t110 -358.5q0 -106 -24.5 -216t-69 -214t-112.5 -196t-150.5 -161t-187.5 -109t-218 -40zM565 29q133 0 252.5 77.5t201.5 201.5t130 281t49 316q0 196 -87.5 316
t-244.5 120q-132 0 -251.5 -78.5t-201 -204.5t-129.5 -284t-48 -317q0 -198 87.5 -313t241.5 -115z" />
    <glyph glyph-name="Pi" unicode="&#x3a0;" horiz-adv-x="1323" 
d="M297 0h-270q7 1 14 3.5t23.5 13t30 27.5t28.5 50t24 76l218 1024q8 36 8 70q0 82 -54 100h1072q-10 -1 -22 -6.5t-31.5 -21.5t-38 -52.5t-29.5 -89.5l-217 -1024q-11 -57 -11 -76q0 -84 58 -94h-271q7 1 15 3.5t24 13t29.5 27.5t28.5 50t24 76l240 1133h-703l-239 -1133
q-10 -52 -10 -74q0 -29 7 -49t18 -29.5t18.5 -13t15.5 -4.5z" />
    <glyph glyph-name="Rho" unicode="&#x3a1;" horiz-adv-x="1067" 
d="M141 147l228 1055q6 27 6 58q0 45 -18 71t-42 33h394q179 0 270.5 -89.5t91.5 -232.5q0 -86 -33 -163.5t-95.5 -138.5t-161.5 -97.5t-222 -36.5q-34 0 -111 11t-102 18l-104 -479q-6 -27 -6 -56q0 -43 16.5 -70t38.5 -30h-262q10 2 22 9t29.5 21.5t34 45t26.5 71.5z
M492 1309l-136 -619q32 -7 102.5 -14.5t110.5 -7.5q98 0 176 30t126.5 82.5t74 119t25.5 142.5q0 114 -73.5 190.5t-213.5 76.5h-192z" />
    <glyph glyph-name="Sigma" unicode="&#x3a3;" horiz-adv-x="1034" 
d="M-68 0l605 657l-293 707h850l-41 -188q-3 82 -35 105.5t-129 23.5h-516l264 -631l-553 -600h534q103 0 165 34t112 113l-49 -221h-914z" />
    <glyph glyph-name="Tau" unicode="&#x3a4;" horiz-adv-x="1101" 
d="M426 147l248 1164h-254q-83 0 -127.5 -32t-95.5 -128l49 213h987l-51 -219q-9 100 -39 133t-117 33h-252l-248 -1155q-6 -27 -6 -56q0 -43 16.5 -70t38.5 -30h-262q10 2 22.5 9t30.5 21.5t34.5 45t25.5 71.5z" />
    <glyph glyph-name="Upsilon" unicode="&#x3a5;" horiz-adv-x="1144" 
d="M444 147l95 449l-199 616q-40 114 -107 152h234q-39 -20 -39 -74q0 -23 16 -76l179 -536l428 530q69 86 69 123q0 22 -22 33h211q-78 -33 -179 -158l-493 -610l-92 -440q-8 -36 -8 -56q0 -43 17.5 -70t39.5 -30h-262q10 2 22.5 9t30 21.5t34 45t25.5 71.5z" />
    <glyph glyph-name="Phi" unicode="&#x3a6;" horiz-adv-x="1394" 
d="M719 -31h-260q91 26 119 170l16 84q-220 15 -343.5 121t-123.5 270q0 222 185.5 370t478.5 165l16 76q8 39 8 73q0 76 -57 97h264q-11 -2 -24 -9.5t-32 -24.5t-36.5 -52.5t-26.5 -83.5l-14 -74q222 -13 347.5 -120t125.5 -271q0 -147 -86 -265.5t-238.5 -188.5
t-347.5 -81l-16 -86q-8 -39 -8 -73q0 -49 17 -72t36 -25zM874 1090l-172 -807q154 5 281.5 69t200.5 171t73 233q0 139 -100 229t-283 105zM608 285l170 807q-237 -10 -392 -143.5t-155 -319.5q0 -140 100 -233.5t277 -110.5z" />
    <glyph glyph-name="Chi" unicode="&#x3a7;" horiz-adv-x="1169" 
d="M162 0h-213q11 3 29.5 15t62.5 53t98 104l449 512l-215 533q-48 117 -109 147h244q-43 -22 -43 -72q0 -26 18 -75l181 -445l389 445q63 71 63 112q0 22 -26 35h227q-74 -30 -178 -147l-449 -510l215 -535q24 -62 49.5 -103.5t39.5 -53.5t24 -15h-234q12 2 24.5 20.5
t12.5 53.5q0 34 -24 98l-183 446l-393 -446q-80 -91 -80 -137q0 -28 21 -35z" />
    <glyph glyph-name="Psi" unicode="&#x3a8;" horiz-adv-x="1398" 
d="M733 0h-270q12 2 26.5 10.5t34.5 28t38 60.5t30 98l65 309q-199 18 -303 92.5t-104 222.5q0 58 14 121l45 215q13 60 13 92q0 93 -60 115h285q-15 -3 -30.5 -11.5t-36 -29t-40 -62.5t-32.5 -100l-50 -223q-14 -63 -14 -109q0 -67 25 -116t71.5 -78.5t102 -46t127.5 -23.5
l127 602q8 39 8 74q0 42 -14.5 71t-28 38.5t-27.5 13.5h297q-15 -4 -30.5 -13t-37.5 -29.5t-41.5 -61.5t-31.5 -97l-127 -600q391 21 473 391l45 207q10 55 10 86q0 58 -20 85t-41 32h278q-96 -29 -133 -207l-43 -203q-89 -424 -581 -448l-64 -309q-10 -46 -10 -91
q0 -55 17.5 -79.5t37.5 -26.5z" />
    <glyph glyph-name="uni03A9" unicode="&#x3a9;" horiz-adv-x="1531" 
d="M-25 0l11 231q10 -37 16.5 -57t20 -43t30.5 -34t45 -21t67 -13.5t95 -3.5h117q-102 66 -167 207.5t-65 300.5q0 158 62 308.5t167 265.5t256.5 185.5t319.5 70.5q241 0 382 -157.5t141 -410.5q0 -239 -128.5 -442.5t-351.5 -327.5h97q56 0 97 3.5t74 13.5t55 21t45 33.5
t38.5 43t40.5 57.5l-88 -231h-629q181 39 330 168t232 309t83 369q0 221 -119 358t-329 137q-150 0 -279 -73t-214 -190.5t-133 -263.5t-48 -294q0 -192 86 -329.5t270 -190.5h-627z" />
    <glyph glyph-name="Iotadieresis" unicode="&#x3aa;" horiz-adv-x="522" 
d="M289 0h-258q10 2 22 9t29.5 21.5t34 45t26.5 71.5l215 1008q19 93 19 125q0 29 -10.5 48.5t-21 26t-21.5 9.5h266q-11 -3 -24 -10.5t-32 -23.5t-35.5 -47.5t-25.5 -72.5l-225 -1054q-8 -40 -8 -62q0 -43 13.5 -67t35.5 -27zM600 1649q0 31 21 51t55 20q33 0 53.5 -20
t20.5 -51q0 -32 -20.5 -54t-53.5 -22t-54.5 22.5t-21.5 53.5zM338 1573q-32 0 -52 22t-20 54q0 31 20 51t52 20q35 0 55.5 -20t20.5 -51q0 -32 -21 -54t-55 -22z" />
    <glyph glyph-name="Upsilondieresis" unicode="&#x3ab;" horiz-adv-x="1144" 
d="M444 147l95 449l-199 616q-40 114 -107 152h234q-39 -20 -39 -74q0 -23 16 -76l179 -536l428 530q69 86 69 123q0 22 -22 33h211q-78 -33 -179 -158l-493 -610l-92 -440q-8 -36 -8 -56q0 -43 17.5 -70t39.5 -30h-262q10 2 22.5 9t30 21.5t34 45t25.5 71.5zM905 1649
q0 31 21 51t55 20q33 0 53.5 -20t20.5 -51q0 -32 -20.5 -54t-53.5 -22t-54.5 22.5t-21.5 53.5zM643 1573q-32 0 -52 22t-20 54q0 31 20 51t52 20q35 0 55.5 -20t20.5 -51q0 -32 -21 -54t-55 -22z" />
    <glyph glyph-name="alphatonos" unicode="&#x3ac;" horiz-adv-x="1005" 
d="M893 55l-115 -75q-51 24 -81.5 104.5t-26.5 196.5q-169 -312 -361 -312q-110 0 -176.5 78.5t-66.5 222.5q0 108 39.5 234t104.5 235t159 181.5t192 72.5q101 0 141.5 -97t40.5 -296q66 152 131 254t115 131l82 -70q-54 -24 -119 -119t-129 -235l-51 -112
q-12 -68 -12 -156q0 -113 35 -175.5t98 -62.5zM680 436q8 88 8 166q0 92 -14 178q-26 150 -121 150q-62 0 -122.5 -43t-106.5 -113.5t-82 -155.5t-55 -173t-19 -162q0 -113 42 -179.5t128 -66.5q87 0 180.5 113.5t161.5 285.5zM573 1047l80 329h152z" />
    <glyph glyph-name="epsilontonos" unicode="&#x3ad;" horiz-adv-x="786" 
d="M518 449h-106q-123 0 -202 -59.5t-79 -164.5q0 -81 57 -130.5t148 -49.5t187 56.5t155 138.5q-20 -101 -131.5 -187t-257.5 -86q-115 0 -188.5 64.5t-73.5 169.5q0 117 82.5 195.5t216.5 97.5q-71 18 -117.5 71.5t-46.5 128.5q0 93 57.5 163t142.5 103t181 33
q99 0 164 -35t65 -94q0 -69 -70 -139q-6 106 -56.5 161.5t-135.5 55.5q-101 0 -175.5 -74.5t-74.5 -183.5q0 -75 50 -122.5t147 -47.5h75zM471 1047l80 329h151z" />
    <glyph glyph-name="etatonos" unicode="&#x3ae;" horiz-adv-x="991" 
d="M57 0l154 713q22 99 22 139q0 75 -57 84l90 57q60 -34 60 -123q0 -43 -21 -129q68 109 178.5 180.5t225.5 71.5q178 0 178 -186q0 -55 -15 -123l-178 -856q-12 -62 -12 -96q0 -76 27 -103h-158l225 1026q17 80 17 125q0 144 -127 144q-121 0 -245.5 -122.5t-160.5 -289.5
l-110 -512h-93zM559 1047l80 329h152z" />
    <glyph glyph-name="iotatonos" unicode="&#x3af;" horiz-adv-x="546" 
d="M113 252l106 489q21 97 21 115q0 61 -58 78l-14 4l197 57l-158 -733q-17 -83 -17 -115q0 -112 86 -112q44 0 83.5 28t84.5 84q-26 -91 -86 -135.5t-127 -44.5q-63 0 -99 44t-36 122q0 40 17 119zM285 1047l80 329h151z" />
    <glyph glyph-name="upsilondieresistonos" unicode="&#x3b0;" horiz-adv-x="985" 
d="M113 350l77 361q25 113 25 145q0 73 -57 82l88 55q26 -10 43.5 -41.5t17.5 -83.5q0 -32 -10 -84l-90 -426q-12 -64 -12 -112q0 -105 51 -158t143 -53q61 0 118 26.5t111.5 83t99.5 156.5t73 236q20 94 20 184t-31 145.5t-78 61.5q44 65 105 65q44 0 75 -62.5t31 -168.5
q0 -110 -16 -197q-26 -126 -70.5 -228.5t-98.5 -170t-117.5 -113t-125.5 -65t-125 -19.5q-115 0 -188.5 66.5t-73.5 197.5q0 53 15 117zM735 1280q0 30 20.5 49t51.5 19q34 0 54 -18.5t20 -49.5t-20.5 -51.5t-53.5 -20.5q-31 0 -51.5 20.5t-20.5 51.5zM375 1280
q0 31 19.5 49.5t51.5 18.5t52 -18.5t20 -49.5t-20 -51.5t-52 -20.5t-51.5 20.5t-19.5 51.5zM571 1190l80 330h152z" />
    <glyph glyph-name="alpha" unicode="&#x3b1;" horiz-adv-x="1005" 
d="M893 55l-115 -75q-51 24 -81.5 104.5t-26.5 196.5q-169 -312 -361 -312q-110 0 -176.5 78.5t-66.5 222.5q0 108 39.5 234t104.5 235t159 181.5t192 72.5q101 0 141.5 -97t40.5 -296q66 152 131 254t115 131l82 -70q-54 -24 -119 -119t-129 -235l-51 -112
q-12 -68 -12 -156q0 -113 35 -175.5t98 -62.5zM680 436q8 88 8 166q0 92 -14 178q-26 150 -121 150q-62 0 -122.5 -43t-106.5 -113.5t-82 -155.5t-55 -173t-19 -162q0 -113 42 -179.5t128 -66.5q87 0 180.5 113.5t161.5 285.5z" />
    <glyph glyph-name="beta" unicode="&#x3b2;" horiz-adv-x="991" 
d="M59 0l201 944q52 243 175 352t310 109q126 0 196.5 -72t70.5 -178q0 -71 -26.5 -137t-76 -122.5t-97 -98t-112.5 -88.5q86 -47 133.5 -121t47.5 -168q0 -188 -129 -317.5t-320 -129.5q-91 0 -158.5 42t-93.5 100l-24 -115q-39 -186 -114 -287.5t-181 -101.5
q-40 0 -81 14.5t-61 40.5q43 -12 86 -12q181 0 254 346zM571 684l101 76q235 177 235 389q0 89 -53.5 145t-146.5 56q-120 0 -215.5 -103.5t-131.5 -281.5l-149 -709q-4 -24 -4 -37q0 -74 64.5 -131t158.5 -57q142 0 243 108.5t101 270.5q0 50 -15.5 91.5t-46 74.5t-62.5 57
t-79 51z" />
    <glyph glyph-name="gamma" unicode="&#x3b3;" horiz-adv-x="931" 
d="M279 -371h-105q35 179 111 371q-45 537 -90 795q-12 72 -38 103t-83 40l174 53q61 -264 114 -862q47 84 166 254.5t152 222.5q115 182 115 260q0 34 -17 54t-45 20q-14 0 -24 -2q42 55 108 55q38 0 64 -26.5t26 -73.5q0 -35 -16.5 -75.5t-35 -70.5t-56.5 -85l-246 -353
q-98 -140 -152 -247.5t-84 -247.5z" />
    <glyph glyph-name="delta" unicode="&#x3b4;" horiz-adv-x="913" 
d="M461 811q-67 54 -113.5 126.5t-46.5 154.5q0 150 114 244t296 94q119 0 189.5 -57.5t70.5 -135.5q0 -52 -30.5 -94.5t-84.5 -67.5q29 56 29 113q0 86 -57.5 136t-149.5 50q-121 0 -200 -80.5t-79 -189.5q0 -36 12 -69.5t26 -57t48.5 -58t54.5 -52t70 -58.5
q197 -164 197 -367q0 -125 -55.5 -232.5t-159 -173t-232.5 -65.5q-144 0 -227.5 92.5t-83.5 235.5q0 102 38 191.5t101 151.5t132 104t141 65zM543 743l-41 35q-147 -49 -249.5 -176.5t-102.5 -300.5q0 -124 64.5 -200t166.5 -76q85 0 161 59t120.5 153.5t44.5 196.5
q0 171 -164 309z" />
    <glyph glyph-name="epsilon" unicode="&#x3b5;" horiz-adv-x="786" 
d="M518 449h-106q-123 0 -202 -59.5t-79 -164.5q0 -81 57 -130.5t148 -49.5t187 56.5t155 138.5q-20 -101 -131.5 -187t-257.5 -86q-115 0 -188.5 64.5t-73.5 169.5q0 117 82.5 195.5t216.5 97.5q-71 18 -117.5 71.5t-46.5 128.5q0 93 57.5 163t142.5 103t181 33
q99 0 164 -35t65 -94q0 -69 -70 -139q-6 106 -56.5 161.5t-135.5 55.5q-101 0 -175.5 -74.5t-74.5 -183.5q0 -75 50 -122.5t147 -47.5h75z" />
    <glyph glyph-name="zeta" unicode="&#x3b6;" horiz-adv-x="813" 
d="M311 772l523 553q-25 -2 -50 -2q-37 0 -133.5 4t-144.5 4q-88 0 -151 -42t-85 -128q-18 35 -18 80q0 80 55 125t154 45q60 0 182 -13.5t180 -13.5q85 0 162 15l-627 -668q-200 -210 -200 -362q0 -81 45 -137t141 -103q63 -32 95.5 -50t71 -43.5t56 -47.5t29.5 -51.5
t12 -65.5q0 -86 -61.5 -150t-151.5 -79q58 45 88.5 92t30.5 106t-51.5 101t-183.5 106q-222 109 -222 301q0 47 17 96.5t36 84.5t62.5 88t64.5 76t74 79z" />
    <glyph glyph-name="eta" unicode="&#x3b7;" horiz-adv-x="991" 
d="M57 0l154 713q22 99 22 139q0 75 -57 84l90 57q60 -34 60 -123q0 -43 -21 -129q68 109 178.5 180.5t225.5 71.5q178 0 178 -186q0 -55 -15 -123l-178 -856q-12 -62 -12 -96q0 -76 27 -103h-158l225 1026q17 80 17 125q0 144 -127 144q-121 0 -245.5 -122.5t-160.5 -289.5
l-110 -512h-93z" />
    <glyph glyph-name="theta" unicode="&#x3b8;" horiz-adv-x="944" 
d="M72 598l88 55q27 -13 43 -45t16 -71q0 -49 -20 -136q-29 -123 -29 -168q0 -98 51 -151t131 -53q105 0 199 106.5t155 274t87 364.5q-84 -33 -183 -33q-178 0 -274 82.5t-96 220.5q0 96 42 181.5t122.5 140.5t181.5 55q104 0 177.5 -66t106.5 -165.5t33 -218.5
q0 -205 -45.5 -390.5t-121 -319t-179 -212t-215.5 -78.5q-121 0 -190.5 67t-69.5 187q0 45 24 156q23 99 23 135q0 37 -15.5 58t-41.5 24zM799 831q6 47 6 127q0 190 -61.5 298t-161.5 108q-94 0 -169 -88t-75 -209q0 -270 287 -270q42 0 93 9t81 25z" />
    <glyph glyph-name="iota" unicode="&#x3b9;" horiz-adv-x="546" 
d="M113 252l106 489q21 97 21 115q0 61 -58 78l-14 4l197 57l-158 -733q-17 -83 -17 -115q0 -112 86 -112q44 0 83.5 28t84.5 84q-26 -91 -86 -135.5t-127 -44.5q-63 0 -99 44t-36 122q0 40 17 119z" />
    <glyph glyph-name="kappa" unicode="&#x3ba;" horiz-adv-x="915" 
d="M57 0l158 729q21 96 21 127q0 68 -60 80l-10 2l201 57l-138 -626l217 247q185 210 246 267q105 93 178 96q45 0 73 -31.5t28 -79.5q-27 27 -78 27q-36 0 -85 -27t-89.5 -59t-105 -97t-97 -100.5t-98.5 -109.5l190 -322q50 -85 107.5 -132t115.5 -48q-57 -23 -110 -23
q-60 0 -104.5 39t-100.5 129q-24 41 -80 140t-84 145l-141 -156l-59 -274h-95z" />
    <glyph glyph-name="lambda" unicode="&#x3bb;" horiz-adv-x="950" 
d="M106 0h-165q45 24 93 81t116 161l407 641l-20 133q-51 336 -211 336q-27 0 -54 -9q20 31 55 54.5t76 23.5q45 0 79.5 -31.5t66.5 -120t55 -237.5l125 -817q28 -179 102 -215h-145l-111 745z" />
    <glyph glyph-name="uni03BC" unicode="&#x3bc;" horiz-adv-x="1013" 
d="M72 -371h-154q26 11 52.5 50t41.5 110l252 1169h92l-135 -620q-12 -56 -12 -102q0 -91 45.5 -145t130.5 -54q49 0 100 29t92.5 75.5t77.5 102t59.5 109.5t33.5 98l106 507h94l-153 -716q-19 -85 -19 -119q0 -44 17 -62t45 -24l-90 -57q-62 32 -62 124q0 39 16 117
q-149 -250 -327 -250q-72 0 -126 40.5t-73 107.5z" />
    <glyph glyph-name="nu" unicode="&#x3bd;" horiz-adv-x="917" 
d="M285 -61l-105 849q-9 76 -35 111.5t-71 38.5l174 53l100 -846l287 412q147 213 147 309q0 34 -16.5 54t-44.5 20q-15 0 -25 -2q42 55 109 55q38 0 64 -27t26 -73q0 -23 -7.5 -49.5t-16.5 -46.5t-30 -54t-32.5 -51t-41 -59t-40.5 -58l-229 -325q-22 -31 -60.5 -85t-67 -95
t-46.5 -70z" />
    <glyph glyph-name="xi" unicode="&#x3be;" horiz-adv-x="808" 
d="M602 735h115l-17 -73h-125q-74 0 -145.5 -19.5t-133 -56t-99 -97t-37.5 -135.5q0 -82 43.5 -130t136.5 -95q63 -32 95.5 -50t71 -43.5t56 -47.5t29.5 -51.5t12 -65.5q0 -86 -61.5 -150t-151.5 -79q58 45 88.5 92t30.5 106t-51.5 101t-184.5 106q-217 106 -217 287
q0 75 32.5 140t89 111t126.5 77.5t150 46.5q-103 28 -171.5 107.5t-68.5 189.5q0 89 37 169t97 135t137.5 87.5t156.5 32.5q128 0 199 -58t71 -137q0 -104 -114 -160q28 54 28 119q0 75 -55.5 127.5t-150.5 52.5q-124 0 -216 -111t-92 -270q0 -120 82 -189t207 -69z" />
    <glyph glyph-name="omicron" unicode="&#x3bf;" horiz-adv-x="948" 
d="M354 -33q-74 0 -130.5 31t-89.5 83.5t-49.5 115.5t-16.5 133q0 158 71 311.5t194 253.5t261 100q74 0 131 -31t90 -83t49.5 -115t16.5 -133q0 -169 -73.5 -323.5t-196 -248.5t-257.5 -94zM371 25q63 0 121.5 32t102.5 84.5t80 119t59 137.5t35.5 137t12.5 120
q0 52 -10.5 99.5t-32.5 90t-63.5 68t-97.5 25.5q-64 0 -123 -31.5t-103 -84t-80 -118.5t-59 -136.5t-35 -137t-12 -121.5q0 -51 11 -98.5t33.5 -90.5t64 -69t96.5 -26z" />
    <glyph glyph-name="pi" unicode="&#x3c0;" horiz-adv-x="1198" 
d="M129 -31l-88 70q98 48 185.5 167t129.5 316l78 365q-27 2 -72 2q-94 0 -165.5 -52t-98.5 -135q-6 30 -6 39q0 108 70 166t200 58q76 0 340 -13.5t355 -13.5q118 0 186 35l-18 -90q-72 -21 -181 -21q-73 0 -114 2l-133 -622q-13 -63 -13 -97q0 -110 84 -110
q47 0 85.5 27.5t84.5 84.5q-27 -94 -87 -137t-130 -43q-59 0 -95 42.5t-36 123.5q0 45 12 98l138 637l-344 17l-76 -363q-44 -210 -114 -346t-177 -207z" />
    <glyph glyph-name="rho" unicode="&#x3c1;" horiz-adv-x="962" 
d="M84 203l61 303q32 165 95 276q120 209 352 209q134 0 213.5 -87.5t79.5 -264.5q0 -163 -59.5 -310t-168.5 -240t-241 -93q-87 0 -157 43.5t-91 116.5l-10 -56q-13 -70 -13 -94q0 -83 39.5 -125t134.5 -71q146 -44 202.5 -79.5t56.5 -101.5q0 -54 -38.5 -93t-99.5 -46
q58 49 58 104q0 47 -41.5 70.5t-167.5 64.5q-3 1 -4 1q-50 16 -87.5 35.5t-72.5 50t-53.5 76t-18.5 104.5q0 43 31 207zM233 496l-22 -109q-14 -63 -14 -117q0 -95 66 -156t153 -61q85 0 157 54.5t117 141t70.5 188.5t25.5 202q0 134 -61 214.5t-156 80.5q-111 0 -200 -107
t-136 -331z" />
    <glyph glyph-name="sigma1" unicode="&#x3c2;" horiz-adv-x="813" 
d="M395 -358q58 45 88.5 92t30.5 106q0 31 -11.5 55t-42.5 48.5t-67 45t-104 54.5q-226 114 -226 313q0 103 48.5 217t125.5 206.5t184 153t214 60.5q90 0 136 -29t46 -81q0 -86 -86 -176q4 32 4 55q0 75 -29.5 119.5t-107.5 44.5q-119 0 -221.5 -90t-157.5 -215.5
t-55 -243.5q0 -87 46.5 -145.5t143.5 -106.5q59 -29 94 -48.5t69.5 -43.5t52 -46.5t28 -51.5t10.5 -64q0 -86 -61.5 -150t-151.5 -79z" />
    <glyph glyph-name="sigma" unicode="&#x3c3;" horiz-adv-x="1097" 
d="M1143 973l-19 -90q-76 -21 -170 -21q-61 0 -139 8q62 -134 62 -268q0 -62 -15.5 -132t-44 -141t-73.5 -135.5t-100.5 -115t-128.5 -80t-153 -29.5q-64 0 -114.5 21t-83.5 56t-55 83t-31.5 99.5t-9.5 107.5q0 131 48.5 250t125.5 200t173 129t191 48q45 0 175 -12.5
t186 -12.5q112 0 176 35zM750 879q-82 10 -148 10q-80 0 -150.5 -31.5t-122 -87t-89 -129t-56 -158.5t-18.5 -174q0 -128 55.5 -206t161.5 -78q85 0 162 63.5t127.5 159t80 203.5t29.5 200q0 104 -32 228z" />
    <glyph glyph-name="tau" unicode="&#x3c4;" horiz-adv-x="847" 
d="M283 268l137 619q-25 2 -62 2q-91 0 -163 -53t-97 -134q-6 21 -6 48q0 23 4 43q17 84 84 128t174 44q47 0 192.5 -12.5t198.5 -12.5q38 0 81.5 10t66.5 23l-19 -90q-48 -19 -139 -19q-40 0 -225 15l-119 -557q-26 -121 -26 -175q0 -51 27.5 -81.5t84.5 -30.5q81 0 174 55
q-39 -59 -101.5 -90t-115.5 -31q-85 0 -127.5 42t-42.5 116q0 48 19 141z" />
    <glyph glyph-name="upsilon" unicode="&#x3c5;" horiz-adv-x="985" 
d="M113 350l77 361q25 113 25 145q0 73 -57 82l88 55q26 -10 43.5 -41.5t17.5 -83.5q0 -32 -10 -84l-90 -426q-12 -64 -12 -112q0 -105 51 -158t143 -53q61 0 118 26.5t111.5 83t99.5 156.5t73 236q20 94 20 184t-31 145.5t-78 61.5q44 65 105 65q44 0 75 -62.5t31 -168.5
q0 -110 -16 -197q-26 -126 -70.5 -228.5t-98.5 -170t-117.5 -113t-125.5 -65t-125 -19.5q-115 0 -188.5 66.5t-73.5 197.5q0 53 15 117z" />
    <glyph glyph-name="phi" unicode="&#x3c6;" horiz-adv-x="1232" 
d="M371 -381l75 356q-75 12 -139.5 44.5t-116 85t-81 131.5t-29.5 176q0 115 31.5 224t80.5 186t110 124t118 47q31 0 54.5 -16t31.5 -39q-58 -3 -116 -45t-104 -110.5t-75 -166.5t-29 -204q0 -84 22.5 -150.5t63 -109t88 -69t105.5 -40.5l117 563q42 201 131.5 294
t226.5 93q98 0 163.5 -82t65.5 -237q0 -100 -26 -197.5t-79 -185.5t-126.5 -156t-176.5 -111.5t-222 -50.5l-72 -354h-92zM662 586l-115 -547q120 7 220 66.5t164 151.5t99 205t35 232q0 109 -40.5 175.5t-106.5 66.5q-92 0 -156.5 -91.5t-99.5 -258.5z" />
    <glyph glyph-name="chi" unicode="&#x3c7;" horiz-adv-x="866" 
d="M-178 -371l510 664l-127 502q-20 78 -47 110.5t-84 32.5l178 53l154 -637l210 271q42 56 61.5 83.5t40.5 74t21 85.5q0 32 -16 52t-45 20q-15 0 -25 -2q14 21 43 38t64 17q44 0 68 -29t24 -73q0 -28 -8.5 -56t-29.5 -61.5t-34 -51.5t-46 -58.5t-40 -49.5l-266 -335
l111 -447q20 -78 50.5 -111.5t90.5 -33.5l-188 -58l-140 582l-303 -401q-55 -74 -55 -121q0 -43 41 -60h-213z" />
    <glyph glyph-name="psi" unicode="&#x3c8;" horiz-adv-x="1265" 
d="M399 -381l78 356q-75 3 -139 25.5t-114.5 63.5t-79.5 106.5t-29 148.5q0 46 18 127l57 265q25 113 25 145q0 73 -57 82l88 55q28 -11 44.5 -44t16.5 -79q0 -34 -10 -86l-72 -340q-16 -78 -16 -114q0 -129 72.5 -203.5t207.5 -89.5l246 1159q13 67 13 84q0 69 -52 84h162
l-285 -1329q77 5 150 34t143.5 86t125 157.5t81.5 232.5q19 100 19 184t-28 139t-71 60q44 65 101 65q44 0 72 -61.5t28 -159.5q0 -108 -16 -197q-28 -146 -89 -260.5t-144.5 -185.5t-179.5 -110t-202 -46l-74 -354h-90z" />
    <glyph glyph-name="omega" unicode="&#x3c9;" horiz-adv-x="1335" 
d="M571 289l54 256h88l-54 -254q-14 -72 -14 -101q0 -71 44 -115t114 -44q114 0 200.5 127.5t135.5 378.5q16 85 16 186q0 93 -33 151t-90 62q37 57 96 57q64 0 96.5 -73t32.5 -195q0 -102 -16 -190q-27 -141 -75 -251t-108 -176.5t-125 -100.5t-132 -34q-86 0 -146 51.5
t-67 139.5q-46 -97 -110.5 -144t-155.5 -47q-104 0 -172 83.5t-68 256.5q0 106 31 258q22 105 63 189.5t87 133t91 74t84 25.5q61 0 86 -55q-102 -11 -180.5 -103.5t-120 -237t-41.5 -314.5q0 -125 41.5 -188.5t116.5 -63.5q83 0 145 71.5t86 186.5z" />
    <glyph glyph-name="iotadieresis" unicode="&#x3ca;" horiz-adv-x="546" 
d="M113 252l106 489q21 97 21 115q0 61 -58 78l-14 4l197 57l-158 -733q-17 -83 -17 -115q0 -112 86 -112q44 0 83.5 28t84.5 84q-26 -91 -86 -135.5t-127 -44.5q-63 0 -99 44t-36 122q0 40 17 119zM463 1280q0 30 20.5 49t51.5 19q34 0 53.5 -18.5t19.5 -49.5t-20 -51.5
t-53 -20.5q-31 0 -51.5 20.5t-20.5 51.5zM141 1280q0 31 20 49.5t52 18.5t52 -18.5t20 -49.5t-20 -51.5t-52 -20.5t-52 20.5t-20 51.5z" />
    <glyph glyph-name="upsilondieresis" unicode="&#x3cb;" horiz-adv-x="985" 
d="M113 350l77 361q25 113 25 145q0 73 -57 82l88 55q26 -10 43.5 -41.5t17.5 -83.5q0 -32 -10 -84l-90 -426q-12 -64 -12 -112q0 -105 51 -158t143 -53q61 0 118 26.5t111.5 83t99.5 156.5t73 236q20 94 20 184t-31 145.5t-78 61.5q44 65 105 65q44 0 75 -62.5t31 -168.5
q0 -110 -16 -197q-26 -126 -70.5 -228.5t-98.5 -170t-117.5 -113t-125.5 -65t-125 -19.5q-115 0 -188.5 66.5t-73.5 197.5q0 53 15 117zM717 1280q0 30 20 49t51 19q34 0 54 -18.5t20 -49.5t-20.5 -51.5t-53.5 -20.5q-31 0 -51 20.5t-20 51.5zM395 1280q0 31 20 49.5
t52 18.5t52 -18.5t20 -49.5t-20 -51.5t-52 -20.5t-52 20.5t-20 51.5z" />
    <glyph glyph-name="omicrontonos" unicode="&#x3cc;" horiz-adv-x="948" 
d="M354 -33q-74 0 -130.5 31t-89.5 83.5t-49.5 115.5t-16.5 133q0 158 71 311.5t194 253.5t261 100q74 0 131 -31t90 -83t49.5 -115t16.5 -133q0 -169 -73.5 -323.5t-196 -248.5t-257.5 -94zM371 25q63 0 121.5 32t102.5 84.5t80 119t59 137.5t35.5 137t12.5 120
q0 52 -10.5 99.5t-32.5 90t-63.5 68t-97.5 25.5q-64 0 -123 -31.5t-103 -84t-80 -118.5t-59 -136.5t-35 -137t-12 -121.5q0 -51 11 -98.5t33.5 -90.5t64 -69t96.5 -26zM592 1047l80 329h151z" />
    <glyph glyph-name="upsilontonos" unicode="&#x3cd;" horiz-adv-x="985" 
d="M113 350l77 361q25 113 25 145q0 73 -57 82l88 55q26 -10 43.5 -41.5t17.5 -83.5q0 -32 -10 -84l-90 -426q-12 -64 -12 -112q0 -105 51 -158t143 -53q61 0 118 26.5t111.5 83t99.5 156.5t73 236q20 94 20 184t-31 145.5t-78 61.5q44 65 105 65q44 0 75 -62.5t31 -168.5
q0 -110 -16 -197q-26 -126 -70.5 -228.5t-98.5 -170t-117.5 -113t-125.5 -65t-125 -19.5q-115 0 -188.5 66.5t-73.5 197.5q0 53 15 117zM537 1047l79 329h152z" />
    <glyph glyph-name="omegatonos" unicode="&#x3ce;" horiz-adv-x="1335" 
d="M571 289l54 256h88l-54 -254q-14 -72 -14 -101q0 -71 44 -115t114 -44q114 0 200.5 127.5t135.5 378.5q16 85 16 186q0 93 -33 151t-90 62q37 57 96 57q64 0 96.5 -73t32.5 -195q0 -102 -16 -190q-27 -141 -75 -251t-108 -176.5t-125 -100.5t-132 -34q-86 0 -146 51.5
t-67 139.5q-46 -97 -110.5 -144t-155.5 -47q-104 0 -172 83.5t-68 256.5q0 106 31 258q22 105 63 189.5t87 133t91 74t84 25.5q61 0 86 -55q-102 -11 -180.5 -103.5t-120 -237t-41.5 -314.5q0 -125 41.5 -188.5t116.5 -63.5q83 0 145 71.5t86 186.5zM735 1047l80 329h152z
" />
    <glyph glyph-name="uni0400" unicode="&#x400;" horiz-adv-x="1064" 
d="M244 61h407q110 0 165.5 33.5t103.5 126.5l-46 -221h-843q13 2 27 9t35.5 24t40.5 52.5t30 84.5l221 1032q8 40 8 60q0 44 -18 69.5t-43 32.5h792l-41 -188q0 27 -4.5 47t-11 34t-19.5 23t-24 14t-32 7.5t-36.5 3t-44.5 0.5h-407l-119 -574h348q124 0 158 60l-35 -185
q-1 23 -13 38t-36 20t-40.5 6.5t-45.5 1.5h-348zM834 1438l-205 297h151z" />
    <glyph glyph-name="afii10023" unicode="&#x401;" horiz-adv-x="1064" 
d="M244 61h407q110 0 165.5 33.5t103.5 126.5l-46 -221h-843q13 2 27 9t35.5 24t40.5 52.5t30 84.5l221 1032q8 40 8 60q0 44 -18 69.5t-43 32.5h792l-41 -188q0 27 -4.5 47t-11 34t-19.5 23t-24 14t-32 7.5t-36.5 3t-44.5 0.5h-407l-119 -574h348q124 0 158 60l-35 -185
q-1 23 -13 38t-36 20t-40.5 6.5t-45.5 1.5h-348zM870 1649q0 31 21 51t55 20q33 0 53.5 -20t20.5 -51q0 -32 -20.5 -54t-53.5 -22t-54.5 22.5t-21.5 53.5zM608 1573q-31 0 -51 22t-20 54q0 31 19.5 51t51.5 20q35 0 55.5 -20t20.5 -51q0 -32 -21 -54t-55 -22z" />
    <glyph glyph-name="afii10051" unicode="&#x402;" horiz-adv-x="1449" 
d="M426 147l248 1164h-254q-83 0 -127.5 -32t-95.5 -128l49 213h1018l-52 -219q-9 100 -39 133t-116 33h-283l-127 -590q100 58 190 88.5t197 30.5q150 0 238 -95t88 -245q0 -216 -124 -372t-327 -185q154 80 250 224.5t96 324.5q0 130 -74 206t-190 76q-169 0 -358 -121
l-107 -497q-6 -27 -6 -56q0 -43 15.5 -70t37.5 -30h-258q11 2 24 9t30 22.5t32.5 45.5t24.5 70z" />
    <glyph glyph-name="afii10052" unicode="&#x403;" horiz-adv-x="972" 
d="M301 0h-289q13 2 27 9t35.5 24t40.5 52.5t30 84.5l224 1032q6 30 6 62q0 43 -18 68t-42 32h789l-39 -190q-4 46 -15 73t-35 39.5t-48 15.5t-72 3h-408l-237 -1139q-8 -40 -8 -62q0 -46 17.5 -73.5t41.5 -30.5zM684 1436l162 297h170z" />
    <glyph glyph-name="afii10053" unicode="&#x404;" horiz-adv-x="1118" 
d="M276 731h465q113 0 150 60l-35 -185q0 27 -25.5 46.5t-87.5 19.5h-479q-18 -92 -18 -189q0 -203 99.5 -322.5t256.5 -119.5q212 0 385 190l-22 -108q-72 -74 -180.5 -115t-223.5 -41q-184 0 -305 135.5t-121 376.5q0 114 30.5 238t94.5 245t151.5 217.5t213 156
t268.5 59.5q88 0 164 -23t119 -59l-48 -215q-20 239 -254 239q-186 0 -359 -175t-239 -431z" />
    <glyph glyph-name="afii10054" unicode="&#x405;" horiz-adv-x="978" 
d="M49 72l53 237q12 -149 93 -214.5t223 -65.5q160 0 247 78.5t87 211.5q0 62 -27.5 117.5t-72 98t-98 83t-107 81.5t-98 85.5t-72 103.5t-27.5 126q0 170 112.5 276.5t299.5 106.5q69 0 159.5 -23t141.5 -59l-45 -205q-6 117 -83 172t-200 55q-135 0 -216 -78.5t-81 -207.5
q0 -60 28 -113t72 -95t98 -82t108 -82t98 -86.5t72 -104t28 -126.5q0 -183 -110 -288t-326 -105q-85 0 -168.5 22.5t-124.5 43t-64 37.5z" />
    <glyph glyph-name="afii10055" unicode="&#x406;" horiz-adv-x="522" 
d="M289 0h-258q10 2 22 9t29.5 21.5t34 45t26.5 71.5l215 1008q19 93 19 125q0 29 -10.5 48.5t-21 26t-21.5 9.5h266q-11 -3 -24 -10.5t-32 -23.5t-35.5 -47.5t-25.5 -72.5l-225 -1054q-8 -40 -8 -62q0 -43 13.5 -67t35.5 -27z" />
    <glyph glyph-name="afii10056" unicode="&#x407;" horiz-adv-x="522" 
d="M289 0h-258q10 2 22 9t29.5 21.5t34 45t26.5 71.5l215 1008q19 93 19 125q0 29 -10.5 48.5t-21 26t-21.5 9.5h266q-11 -3 -24 -10.5t-32 -23.5t-35.5 -47.5t-25.5 -72.5l-225 -1054q-8 -40 -8 -62q0 -43 13.5 -67t35.5 -27zM600 1649q0 31 21 51t55 20q33 0 53.5 -20
t20.5 -51q0 -32 -20.5 -54t-53.5 -22t-54.5 22.5t-21.5 53.5zM338 1573q-32 0 -52 22t-20 54q0 31 20 51t52 20q35 0 55.5 -20t20.5 -51q0 -32 -21 -54t-55 -22z" />
    <glyph glyph-name="afii10057" unicode="&#x408;" horiz-adv-x="540" 
d="M201 252l200 942q9 44 9 72q0 78 -60 98h273q-7 -1 -15 -4t-23.5 -14t-29 -28t-28 -49.5t-23.5 -74.5l-203 -952q-44 -209 -123.5 -296t-185.5 -87q-54 0 -92.5 17t-53.5 46q32 -16 88 -16q96 0 163.5 90t103.5 256z" />
    <glyph glyph-name="afii10058" unicode="&#x409;" horiz-adv-x="1789" 
d="M225 0h-225q9 3 28 19t58 66t84 124l739 1210l78 -688h332q187 0 284 -81.5t97 -209.5q0 -192 -152.5 -316t-382.5 -124h-270q10 3 20.5 12.5t21.5 39.5t13 75q0 51 -4 84l-106 969l-576 -953q-67 -112 -67 -174q0 -24 8.5 -37.5t19.5 -15.5zM1063 59h108q115 0 212 44.5
t156.5 130t59.5 194.5q0 114 -82.5 181t-222.5 67h-301z" />
    <glyph glyph-name="afii10059" unicode="&#x40a;" horiz-adv-x="1863" 
d="M141 147l215 1006q17 90 17 111q0 42 -15 67.5t-36 32.5h262q-88 -31 -115 -154l-102 -479h712l101 471q8 36 8 64q0 41 -15 66t-36 32h262q-88 -31 -115 -154l-102 -479h211q187 0 284 -81.5t97 -209.5q0 -192 -152.5 -316t-382.5 -124h-397q26 5 61.5 40.5t50.5 106.5
l113 523h-713l-110 -514q-6 -27 -6 -56q0 -43 15.5 -70t37.5 -30h-262q10 2 23 9t30.5 22t33.5 45.5t25 70.5zM1038 59h207q177 0 302.5 102.5t125.5 266.5q0 114 -82.5 181t-222.5 67h-199z" />
    <glyph glyph-name="afii10060" unicode="&#x40b;" horiz-adv-x="1468" 
d="M571 0h-254q27 5 60 39t49 108l248 1164h-254q-83 0 -127.5 -32t-95.5 -128l49 213h1018l-52 -219q-9 100 -39 133t-116 33h-283l-127 -590q203 117 354 117q148 0 228 -76t80 -217q0 -55 -19 -142l-47 -221q-10 -44 -10 -86q0 -78 53 -96h-266q88 14 123 178l49 236
q14 66 14 123q0 120 -64 177.5t-173 57.5q-151 0 -336 -119l-107 -497q-6 -27 -6 -56q0 -44 15 -70.5t36 -29.5z" />
    <glyph glyph-name="afii10061" unicode="&#x40c;" horiz-adv-x="1177" 
d="M141 147l226 1055q6 30 6 60q0 43 -17.5 69t-40.5 33h267q-11 -3 -23 -10t-30.5 -23t-34.5 -47.5t-25 -73.5l-96 -454l534 446q101 84 101 131q0 21 -29 31h297q-114 -34 -252 -147l-549 -451l373 -573q25 -39 48.5 -69.5t39 -48t33 -33t24.5 -20.5t21.5 -13t15.5 -9
h-186l-473 748l-127 -592q-6 -27 -6 -56q0 -43 16.5 -70t38.5 -30h-264q10 2 22 9t29.5 21.5t34 45t26.5 71.5zM713 1436l161 297h170z" />
    <glyph glyph-name="uni040D" unicode="&#x40d;" horiz-adv-x="1353" 
d="M295 0h-268q7 1 14 3.5t23.5 13t30 27.5t28.5 50t24 76l218 1024q8 36 8 70q0 82 -54 100h267q-11 -1 -23 -6.5t-32 -21.5t-38.5 -52.5t-29.5 -89.5l-207 -977l958 1043q5 25 5 28q0 28 -14.5 46t-26.5 23t-23 7h268q-11 -1 -23 -6.5t-32 -21.5t-38.5 -52.5t-29.5 -89.5
l-217 -1024q-10 -48 -10 -76q0 -27 7 -47t18 -29t19.5 -13t15.5 -5h-269q7 1 15 3.5t24 13t29.5 27.5t28.5 50t24 76l207 977l-961 -1043q-4 -20 -4 -28q0 -21 8 -37t20.5 -23.5t22 -11t17.5 -4.5zM946 1438l-205 297h152z" />
    <glyph glyph-name="afii10062" unicode="&#x40e;" horiz-adv-x="1304" 
d="M55 0l33 150q42 -82 137 -82q84 0 159.5 51t162.5 172l37 51l-250 791q-27 89 -52.5 142.5t-38 67t-28.5 21.5h264q-63 -35 -63 -104q0 -27 18 -97l225 -717l510 723q58 79 58 127q0 51 -56 68h281q-50 -19 -98 -67t-127 -158l-623 -877q-107 -150 -201.5 -220.5
t-203.5 -70.5q-81 0 -144 29zM1126 1761l48 -35q-158 -235 -347 -235q-92 0 -148 40.5t-56 100.5q0 36 30.5 66.5t71.5 30.5q-4 -16 -4 -41q0 -66 32.5 -102t92.5 -36q74 0 141.5 54t138.5 157z" />
    <glyph glyph-name="afii10145" unicode="&#x40f;" horiz-adv-x="1325" 
d="M512 -293h-16q0 35 -1.5 61.5t-6.5 64t-16.5 64t-29.5 52t-48.5 38.5t-69.5 13h-295q11 2 23 8.5t31 23t36 52t28 86.5l218 1024q10 52 10 76q0 78 -56 94h265q-11 -2 -22.5 -8.5t-30.5 -23t-36 -52.5t-28 -86l-240 -1120h703l237 1120q11 57 11 74q0 76 -52 96h263
q-89 -33 -119 -172l-217 -1022q-9 -40 -9 -70q0 -83 52 -100h-301q-172 0 -283 -293z" />
    <glyph glyph-name="afii10017" unicode="&#x410;" horiz-adv-x="1327" 
d="M221 0h-221q9 3 25 16.5t55.5 64t89.5 128.5l762 1210l137 -1208q8 -78 27 -129t33.5 -66t25.5 -16h-237q10 3 20 12t21.5 39t13.5 76q0 51 -4 84l-31 262h-524l-156 -248q-68 -110 -68 -172q0 -25 10 -38t21 -15zM451 535h481l-74 651z" />
    <glyph glyph-name="afii10018" unicode="&#x411;" horiz-adv-x="1060" 
d="M147 172l215 1014q11 57 11 78q0 84 -56 100h766l-39 -190q-4 46 -15 73t-35 39.5t-48 15.5t-72 3h-387l-108 -521h211q187 0 284 -87.5t97 -223.5q0 -137 -70 -245.5t-192 -168t-273 -59.5h-409q11 2 23 8.5t31 23t37 53t29 87.5zM223 59h219q115 0 212 48.5
t156.5 141.5t59.5 212q0 123 -82.5 195.5t-222.5 72.5h-198z" />
    <glyph glyph-name="afii10019" unicode="&#x412;" horiz-adv-x="1120" 
d="M139 166l215 1032q6 24 6 62q0 96 -59 104h432q139 0 227.5 -70t88.5 -198q0 -90 -41 -173.5t-119.5 -142.5t-177.5 -71q138 -28 202 -111t64 -195q0 -75 -28 -145t-81.5 -128.5t-144 -94t-203.5 -35.5h-487q9 2 19.5 9t27 23.5t32.5 51t27 82.5zM217 59h279q96 0 170 29
t116 78.5t63 107t21 121.5q0 56 -17 105.5t-51 90t-91.5 64t-133.5 23.5h-227zM360 737h236q63 0 123 22.5t110 64.5t80.5 110t30.5 151q0 99 -56.5 160.5t-181.5 61.5h-225z" />
    <glyph glyph-name="afii10020" unicode="&#x413;" horiz-adv-x="972" 
d="M301 0h-289q13 2 27 9t35.5 24t40.5 52.5t30 84.5l224 1032q6 30 6 62q0 43 -18 68t-42 32h789l-39 -190q-4 46 -15 73t-35 39.5t-48 15.5t-72 3h-408l-237 -1139q-8 -40 -8 -62q0 -46 17.5 -73.5t41.5 -30.5z" />
    <glyph glyph-name="afii10021" unicode="&#x414;" horiz-adv-x="1329" 
d="M-92 -293l76 367h49q34 0 50.5 12t29.5 35l782 1239l37 59l147 -1298q3 -25 16.5 -36t49.5 -11h49l-78 -367h-16q0 30 -0.5 48t-3.5 53t-8.5 57t-17.5 50.5t-29 45t-43.5 28t-59.5 11.5h-721q-46 0 -89 -21.5t-73 -52t-57.5 -73.5t-43.5 -76t-30 -70h-16zM162 74h821
l-125 1110z" />
    <glyph glyph-name="afii10022" unicode="&#x415;" horiz-adv-x="1064" 
d="M244 61h407q110 0 165.5 33.5t103.5 126.5l-46 -221h-843q13 2 27 9t35.5 24t40.5 52.5t30 84.5l221 1032q8 40 8 60q0 44 -18 69.5t-43 32.5h792l-41 -188q0 27 -4.5 47t-11 34t-19.5 23t-24 14t-32 7.5t-36.5 3t-44.5 0.5h-407l-119 -574h348q124 0 158 60l-35 -185
q-1 23 -13 38t-36 20t-40.5 6.5t-45.5 1.5h-348z" />
    <glyph glyph-name="afii10024" unicode="&#x416;" horiz-adv-x="1755" 
d="M160 0h-219q35 10 63.5 23.5t89.5 58t139 119.5l562 530l-303 434q-40 57 -83.5 99t-79 61.5t-56.5 28t-35 10.5h301q-47 -13 -47 -49q0 -35 65 -129l334 -481l98 462q8 39 8 76q0 38 -11 67t-20.5 39t-17.5 15h262q-9 -2 -24 -13t-35 -32t-38.5 -61t-29.5 -91l-98 -462
l541 481q74 66 98.5 94.5t24.5 50.5q0 8 -3.5 14.5t-7 9t-10.5 5.5l-6 4h301q-24 -3 -59.5 -16t-112 -60.5t-160.5 -122.5l-501 -446l337 -524q46 -72 89 -115.5t66.5 -56.5t55.5 -23h-206l-447 698l-111 -528q-8 -39 -8 -72q0 -47 18 -70t36 -28h-261q9 1 22.5 9t32.5 25
t36.5 52.5t27.5 83.5l113 528z" />
    <glyph glyph-name="afii10025" unicode="&#x417;" horiz-adv-x="1013" 
d="M10 68l41 194q33 -109 118.5 -173t205.5 -64q74 0 144.5 24.5t128 69.5t93 117.5t35.5 160.5q0 131 -107 202t-317 71l13 61h135q172 0 289.5 108t117.5 261q0 104 -64.5 169.5t-174.5 65.5q-116 0 -213.5 -65t-167.5 -158l41 197q206 88 368 88q138 0 229 -78t91 -205
q0 -89 -33 -163t-89.5 -124.5t-124.5 -84t-146 -50.5q119 -24 191.5 -98.5t72.5 -190.5q0 -194 -145.5 -314t-368.5 -120q-230 0 -363 99z" />
    <glyph glyph-name="afii10026" unicode="&#x418;" horiz-adv-x="1353" 
d="M295 0h-268q7 1 14 3.5t23.5 13t30 27.5t28.5 50t24 76l218 1024q8 36 8 70q0 82 -54 100h267q-11 -1 -23 -6.5t-32 -21.5t-38.5 -52.5t-29.5 -89.5l-207 -977l958 1043q5 25 5 28q0 28 -14.5 46t-26.5 23t-23 7h268q-11 -1 -23 -6.5t-32 -21.5t-38.5 -52.5t-29.5 -89.5
l-217 -1024q-10 -48 -10 -76q0 -27 7 -47t18 -29t19.5 -13t15.5 -5h-269q7 1 15 3.5t24 13t29.5 27.5t28.5 50t24 76l207 977l-961 -1043q-4 -20 -4 -28q0 -21 8 -37t20.5 -23.5t22 -11t17.5 -4.5z" />
    <glyph glyph-name="afii10027" unicode="&#x419;" horiz-adv-x="1353" 
d="M295 0h-268q7 1 14 3.5t23.5 13t30 27.5t28.5 50t24 76l218 1024q8 36 8 70q0 82 -54 100h267q-11 -1 -23 -6.5t-32 -21.5t-38.5 -52.5t-29.5 -89.5l-207 -977l958 1043q5 25 5 28q0 28 -14.5 46t-26.5 23t-23 7h268q-11 -1 -23 -6.5t-32 -21.5t-38.5 -52.5t-29.5 -89.5
l-217 -1024q-10 -48 -10 -76q0 -27 7 -47t18 -29t19.5 -13t15.5 -5h-269q7 1 15 3.5t24 13t29.5 27.5t28.5 50t24 76l207 977l-961 -1043q-4 -20 -4 -28q0 -21 8 -37t20.5 -23.5t22 -11t17.5 -4.5zM1178 1761l47 -35q-158 -235 -346 -235q-92 0 -148.5 40.5t-56.5 100.5
q0 36 30 66.5t72 30.5q-4 -16 -4 -41q0 -66 32.5 -102t92.5 -36q74 0 142 54t139 157z" />
    <glyph glyph-name="afii10028" unicode="&#x41a;" horiz-adv-x="1177" 
d="M141 147l226 1055q6 30 6 60q0 43 -17.5 69t-40.5 33h267q-11 -3 -23 -10t-30.5 -23t-34.5 -47.5t-25 -73.5l-96 -454l534 446q101 84 101 131q0 21 -29 31h297q-114 -34 -252 -147l-549 -451l373 -573q25 -39 48.5 -69.5t39 -48t33 -33t24.5 -20.5t21.5 -13t15.5 -9
h-186l-473 748l-127 -592q-6 -27 -6 -56q0 -43 16.5 -70t38.5 -30h-264q10 2 22 9t29.5 21.5t34 45t26.5 71.5z" />
    <glyph glyph-name="afii10029" unicode="&#x41b;" horiz-adv-x="1327" 
d="M227 0h-227q9 3 25 16.5t55.5 64t89.5 128.5l762 1210l137 -1208q8 -78 27 -129t33.5 -66t25.5 -16h-240q10 3 20.5 12t22 39t13.5 76q0 51 -4 84l-105 975l-598 -959q-67 -110 -67 -174q0 -25 9.5 -38t20.5 -15z" />
    <glyph glyph-name="afii10030" unicode="&#x41c;" horiz-adv-x="1593" 
d="M287 0h-258q15 3 33 13t44 45.5t39 88.5l226 1055q6 30 6 60q0 43 -17.5 69t-40.5 33h193l238 -1163l720 1163h195q-11 -3 -23.5 -10.5t-30.5 -23.5t-34 -47.5t-25 -72.5l-225 -1054q-6 -27 -6 -56q0 -43 16.5 -70t38.5 -30h-266q10 2 22 9t30 21.5t34.5 45t26.5 71.5
l231 1065l-760 -1235l-250 1227l-225 -1048q-6 -24 -6 -47q0 -47 23 -76.5t51 -32.5z" />
    <glyph glyph-name="afii10031" unicode="&#x41d;" horiz-adv-x="1353" 
d="M141 147l215 1006q17 90 17 111q0 42 -15 67.5t-36 32.5h264q-11 -3 -24 -10.5t-32 -23.5t-35.5 -47.5t-25.5 -72.5l-102 -479h733l100 471q8 46 8 64q0 41 -15 66t-36 32h264q-11 -3 -23.5 -10.5t-31.5 -23.5t-35.5 -47.5t-25.5 -72.5l-226 -1054q-8 -40 -8 -56
q0 -43 17.5 -70t39.5 -30h-266q10 2 22 9t30 21.5t34.5 45t26.5 71.5l112 523h-733l-110 -514q-6 -27 -6 -56q0 -43 16.5 -70t38.5 -30h-264q10 2 22 9t29.5 21.5t34 45t26.5 71.5z" />
    <glyph glyph-name="afii10032" unicode="&#x41e;" horiz-adv-x="1341" 
d="M545 -33q-193 0 -304.5 132t-111.5 358q0 172 58.5 341t158 302t243.5 215t304 82q194 0 304 -135.5t110 -358.5q0 -106 -24.5 -216t-69 -214t-112.5 -196t-150.5 -161t-187.5 -109t-218 -40zM565 29q133 0 252.5 77.5t201.5 201.5t130 281t49 316q0 196 -87.5 316
t-244.5 120q-132 0 -251.5 -78.5t-201 -204.5t-129.5 -284t-48 -317q0 -198 87.5 -313t241.5 -115z" />
    <glyph glyph-name="afii10033" unicode="&#x41f;" horiz-adv-x="1323" 
d="M297 0h-270q7 1 14 3.5t23.5 13t30 27.5t28.5 50t24 76l218 1024q8 36 8 70q0 82 -54 100h1072q-10 -1 -22 -6.5t-31.5 -21.5t-38 -52.5t-29.5 -89.5l-217 -1024q-11 -57 -11 -76q0 -84 58 -94h-271q7 1 15 3.5t24 13t29.5 27.5t28.5 50t24 76l240 1133h-703l-239 -1133
q-10 -52 -10 -74q0 -29 7 -49t18 -29.5t18.5 -13t15.5 -4.5z" />
    <glyph glyph-name="afii10034" unicode="&#x420;" horiz-adv-x="1067" 
d="M141 147l228 1055q6 27 6 58q0 45 -18 71t-42 33h394q179 0 270.5 -89.5t91.5 -232.5q0 -86 -33 -163.5t-95.5 -138.5t-161.5 -97.5t-222 -36.5q-34 0 -111 11t-102 18l-104 -479q-6 -27 -6 -56q0 -43 16.5 -70t38.5 -30h-262q10 2 22 9t29.5 21.5t34 45t26.5 71.5z
M492 1309l-136 -619q32 -7 102.5 -14.5t110.5 -7.5q98 0 176 30t126.5 82.5t74 119t25.5 142.5q0 114 -73.5 190.5t-213.5 76.5h-192z" />
    <glyph glyph-name="afii10035" unicode="&#x421;" horiz-adv-x="1118" 
d="M987 231l-22 -108q-72 -74 -180.5 -115t-223.5 -41q-184 0 -305 135.5t-121 376.5q0 114 30.5 238t94.5 245t151.5 217.5t213 156t268.5 59.5q88 0 164 -23t119 -59l-48 -215q-20 239 -254 239q-90 0 -182 -44t-170.5 -125t-140.5 -185.5t-97.5 -235t-35.5 -264.5
q0 -205 99 -323.5t255 -118.5q212 0 385 190z" />
    <glyph glyph-name="afii10036" unicode="&#x422;" horiz-adv-x="1101" 
d="M426 147l248 1164h-254q-83 0 -127.5 -32t-95.5 -128l49 213h987l-51 -219q-9 100 -39 133t-117 33h-252l-248 -1155q-6 -27 -6 -56q0 -43 16.5 -70t38.5 -30h-262q10 2 22.5 9t30.5 21.5t34.5 45t25.5 71.5z" />
    <glyph glyph-name="afii10037" unicode="&#x423;" horiz-adv-x="1304" 
d="M55 0l33 150q42 -82 137 -82q84 0 159.5 51t162.5 172l37 51l-250 791q-27 89 -52.5 142.5t-38 67t-28.5 21.5h264q-63 -35 -63 -104q0 -27 18 -97l225 -717l510 723q58 79 58 127q0 51 -56 68h281q-50 -19 -98 -67t-127 -158l-623 -877q-107 -150 -201.5 -220.5
t-203.5 -70.5q-81 0 -144 29z" />
    <glyph glyph-name="afii10038" unicode="&#x424;" horiz-adv-x="1394" 
d="M719 -31h-260q91 26 119 170l16 84q-220 15 -343.5 121t-123.5 270q0 222 185.5 370t478.5 165l16 76q8 39 8 73q0 76 -57 97h264q-11 -2 -24 -9.5t-32 -24.5t-36.5 -52.5t-26.5 -83.5l-14 -74q222 -13 347.5 -120t125.5 -271q0 -147 -86 -265.5t-238.5 -188.5
t-347.5 -81l-16 -86q-8 -39 -8 -73q0 -49 17 -72t36 -25zM874 1090l-172 -807q154 5 281.5 69t200.5 171t73 233q0 139 -100 229t-283 105zM608 285l170 807q-237 -10 -392 -143.5t-155 -319.5q0 -140 100 -233.5t277 -110.5z" />
    <glyph glyph-name="afii10039" unicode="&#x425;" horiz-adv-x="1169" 
d="M162 0h-213q11 3 29.5 15t62.5 53t98 104l449 512l-215 533q-48 117 -109 147h244q-43 -22 -43 -72q0 -26 18 -75l181 -445l389 445q63 71 63 112q0 22 -26 35h227q-74 -30 -178 -147l-449 -510l215 -535q24 -62 49.5 -103.5t39.5 -53.5t24 -15h-234q12 2 24.5 20.5
t12.5 53.5q0 34 -24 98l-183 446l-393 -446q-80 -91 -80 -137q0 -28 21 -35z" />
    <glyph glyph-name="afii10040" unicode="&#x426;" horiz-adv-x="1341" 
d="M227 74h703l237 1120q11 57 11 74q0 70 -52 96h260q-12 -5 -17 -7.5t-22.5 -16.5t-29 -30t-25.5 -47.5t-22 -70.5l-219 -1030q-7 -32 -7 -43q0 -25 15 -35t47 -10h49l-78 -367h-16q0 27 -0.5 47.5t-4.5 53t-10.5 56.5t-19.5 51t-30.5 44.5t-45 29t-61.5 11.5h-858
q11 2 24 9t30.5 24t34 52.5t27.5 84.5l218 1024q10 52 10 76q0 80 -56 94h263q-85 -26 -115 -170z" />
    <glyph glyph-name="afii10041" unicode="&#x427;" horiz-adv-x="1181" 
d="M803 147l106 496q-203 -117 -354 -117q-148 0 -227.5 76t-79.5 217q0 59 18 142l47 221q11 48 11 86q0 78 -54 96h265q-88 -20 -121 -178l-49 -236q-15 -70 -15 -123q0 -120 64.5 -177.5t173.5 -57.5q151 0 336 119l104 491q8 40 8 64q0 41 -15 66t-36 32h262
q-12 -4 -24.5 -12t-31 -24.5t-34 -47t-24.5 -70.5l-226 -1054q-8 -40 -8 -56q0 -43 16.5 -70t38.5 -30h-264q10 2 23 9t31 22t34 45.5t25 70.5z" />
    <glyph glyph-name="afii10042" unicode="&#x428;" horiz-adv-x="1906" 
d="M227 74h592l238 1120q10 52 10 74q0 70 -51 96h260q-88 -35 -117 -172l-237 -1118h591l238 1120q10 52 10 74q0 70 -51 96h260q-88 -35 -117 -172l-217 -1022q-8 -36 -8 -70t10.5 -58t20 -31.5t18.5 -10.5h-1646q11 2 24 9t30.5 24t34 52.5t27.5 84.5l218 1024
q10 52 10 76q0 80 -56 94h263q-83 -25 -115 -170z" />
    <glyph glyph-name="afii10043" unicode="&#x429;" horiz-adv-x="1925" 
d="M227 74h592l238 1120q10 52 10 74q0 70 -51 96h260q-88 -35 -117 -172l-237 -1118h591l238 1120q10 52 10 74q0 70 -51 96h260q-88 -35 -117 -172l-219 -1030q-6 -27 -6 -43q0 -25 15 -35t47 -10h49l-78 -367h-16q0 27 -0.5 47.5t-4.5 53t-10.5 56.5t-19.5 51t-30.5 44.5
t-45 29t-61.5 11.5h-1440q11 2 23.5 9.5t30 24.5t33.5 52t27 84l218 1024q10 52 10 76q0 82 -56 94h261q-83 -29 -113 -170z" />
    <glyph glyph-name="afii10044" unicode="&#x42a;" horiz-adv-x="1400" 
d="M498 172l241 1139h-319q-83 0 -127.5 -32t-95.5 -128l49 213h688q-91 -27 -121 -176l-84 -404h201q187 0 284 -87.5t97 -223.5q0 -137 -70 -245.5t-192 -168t-273 -59.5h-399q12 2 24 8.5t31.5 23t37 53t28.5 87.5zM573 59h209q115 0 212 48.5t156.5 141.5t59.5 212
q0 123 -82.5 195.5t-222.5 72.5h-188z" />
    <glyph glyph-name="afii10045" unicode="&#x42b;" horiz-adv-x="1550" 
d="M147 172l215 1014q11 57 11 78q0 81 -56 100h269q-90 -20 -123 -176l-84 -404h201q187 0 284 -87.5t97 -223.5q0 -137 -70 -245.5t-192 -168t-273 -59.5h-399q87 19 120 172zM223 59h209q115 0 212 48.5t156.5 141.5t59.5 212q0 123 -82.5 195.5t-222.5 72.5h-188z
M1317 0h-258q10 2 22 9t29.5 21.5t34 45t26.5 71.5l215 1008q19 93 19 125q0 29 -10.5 48.5t-21 26t-21.5 9.5h266q-11 -3 -24 -10.5t-32 -23.5t-35.5 -47.5t-25.5 -72.5l-225 -1054q-8 -40 -8 -62q0 -43 13.5 -67t35.5 -27z" />
    <glyph glyph-name="afii10046" unicode="&#x42c;" horiz-adv-x="1060" 
d="M147 172l215 1014q11 57 11 78q0 81 -56 100h269q-90 -20 -123 -176l-84 -404h211q187 0 284 -87.5t97 -223.5q0 -137 -70 -245.5t-192 -168t-273 -59.5h-409q87 19 120 172zM223 59h219q115 0 212 48.5t156.5 141.5t59.5 212q0 123 -82.5 195.5t-222.5 72.5h-198z" />
    <glyph glyph-name="afii10047" unicode="&#x42d;" horiz-adv-x="1118" 
d="M8 49l45 201q15 -118 79 -171.5t177 -53.5q150 0 284.5 87t227.5 233.5t133 326.5h-465q-112 0 -149 -60l35 185q0 -66 112 -66h480q12 79 12 166q0 208 -92 324t-254 116q-97 0 -202 -56.5t-195 -158.5l36 185q194 88 396 88q185 0 301 -128t116 -368q0 -100 -22.5 -206
t-65 -211t-110 -197.5t-151.5 -163.5t-196 -112.5t-237 -41.5q-90 0 -171.5 23t-123.5 59z" />
    <glyph glyph-name="afii10048" unicode="&#x42e;" horiz-adv-x="1830" 
d="M141 147l215 1006q17 75 17 111q0 42 -15 67.5t-36 32.5h260q-88 -31 -115 -154l-102 -479h311q36 135 103.5 255t158.5 212t208.5 145.5t244.5 53.5q190 0 297.5 -135.5t107.5 -358.5q0 -106 -24 -216t-67.5 -214t-110.5 -196t-147.5 -161t-184 -109t-215.5 -40
q-189 0 -298.5 132t-109.5 358q0 101 23 213h-310l-110 -514q-6 -30 -6 -56q0 -43 15.5 -70t37.5 -30h-260q10 2 23 9t30.5 22t33.5 45.5t25 70.5zM1069 29q130 0 247 77.5t197 201.5t127 281t48 316q0 196 -85.5 316t-240.5 120q-104 0 -200.5 -51t-171 -138.5t-130.5 -200
t-85.5 -240.5t-29.5 -254q0 -198 86.5 -313t237.5 -115z" />
    <glyph glyph-name="afii10049" unicode="&#x42f;" horiz-adv-x="1103" 
d="M123 0h-195q37 8 83 41.5t85 87.5l238 330q97 139 219 172q-144 17 -222.5 101.5t-78.5 199.5q0 199 143.5 315.5t370.5 116.5h408q-91 -18 -123 -172l-217 -1020q-13 -57 -13 -76q0 -34 13.5 -57.5t24.5 -30t20 -8.5h-273q11 1 23 6.5t32 20.5t38.5 51t29.5 88l98 455
h-73q-103 0 -174 -41t-156 -158zM655 680h185l133 625h-211q-90 0 -167 -30t-128.5 -80t-81 -115.5t-29.5 -135.5q0 -118 75.5 -191t223.5 -73z" />
    <glyph glyph-name="afii10065" unicode="&#x430;" horiz-adv-x="974" 
d="M602 -31l55 267q-62 -118 -170.5 -192.5t-210.5 -74.5t-156 67.5t-54 188.5q0 132 51.5 268.5t133 242t190 172.5t216.5 67q26 0 76 -8q12 -2 29 -5.5t28 -5.5t21 -2q46 0 107 41l-166 -743q-23 -108 -23 -141q0 -35 14.5 -54t47.5 -28l14 -4zM315 41q84 0 181.5 80.5
t156.5 202.5q38 78 80.5 241.5t42.5 233.5q0 59 -29.5 89t-99.5 30q-83 0 -161 -46t-135 -118.5t-101 -160.5t-66 -174.5t-22 -156.5q0 -39 7.5 -75.5t23.5 -70.5t47.5 -54.5t74.5 -20.5z" />
    <glyph glyph-name="afii10066" unicode="&#x431;" horiz-adv-x="940" 
d="M692 1317l107 12q119 13 168.5 29.5t74.5 46.5q-52 -119 -184 -154q-40 -11 -182 -26q-81 -8 -112.5 -14.5t-63.5 -24.5q-137 -75 -238 -400q184 125 320 125q125 0 202.5 -89t77.5 -244q0 -78 -21 -161.5t-64 -163.5t-100.5 -143.5t-137 -102t-168.5 -38.5
q-137 0 -213 99t-76 286q0 99 29 250q66 314 227 512q69 86 150 136.5t204 64.5zM244 717q-62 -199 -62 -379q0 -148 51.5 -230.5t143.5 -82.5q83 0 157 52.5t122.5 133.5t77 175t28.5 179q0 118 -59 192t-166 74q-129 0 -293 -114z" />
    <glyph glyph-name="afii10067" unicode="&#x432;" horiz-adv-x="890" 
d="M602 504q85 -19 135.5 -74t50.5 -139q0 -130 -115.5 -225t-281.5 -95q-82 0 -145.5 28t-101.5 76.5t-57 109t-19 130.5q0 160 72.5 318t191.5 259t243 101q120 0 189.5 -64.5t69.5 -158.5q0 -98 -68 -170.5t-164 -95.5zM461 467h-277q-18 -71 -18 -154
q0 -135 62.5 -209.5t185.5 -74.5q117 0 198.5 76t81.5 184q0 81 -60.5 129.5t-172.5 48.5zM201 528h268q117 0 194.5 64t77.5 164q0 79 -44 129.5t-128 50.5q-115 0 -214.5 -114.5t-153.5 -293.5z" />
    <glyph glyph-name="afii10068" unicode="&#x433;" horiz-adv-x="733" 
d="M612 252l-45 -209q-114 -74 -274 -74q-109 0 -182.5 57t-73.5 171q0 106 83 181.5t251 149.5q129 57 185 112.5t56 133.5q0 73 -51 119.5t-133 46.5q-84 0 -150 -58.5t-96 -156.5q-28 54 -28 102q0 76 85 122t201 46q110 0 180 -62.5t70 -170.5q0 -106 -61.5 -173
t-186.5 -126q-53 -25 -85.5 -41t-71.5 -36.5t-61 -36t-45.5 -35.5t-35 -39t-19 -41.5t-7.5 -47.5q0 -80 54.5 -120.5t133.5 -40.5q176 0 307 227z" />
    <glyph glyph-name="afii10069" unicode="&#x434;" horiz-adv-x="966" 
d="M264 1167q32 105 140.5 179.5t230.5 74.5q299 0 299 -458q0 -109 -18.5 -224.5t-53 -226.5t-87 -210t-116 -173.5t-144.5 -118t-169 -43.5q-54 0 -102.5 22t-88.5 65.5t-63.5 116.5t-23.5 167q0 106 39 215t103.5 196t155.5 142t187 55q85 0 149.5 -27.5t128.5 -80.5
q5 49 5 110q0 183 -63.5 288t-180.5 105q-89 0 -179 -50.5t-149 -123.5zM821 770q-119 119 -268 119q-72 0 -143 -48t-124.5 -126t-86.5 -183t-33 -213q0 -136 54 -215t140 -79q128 0 246 155t193 475q13 53 22 115z" />
    <glyph glyph-name="afii10070" unicode="&#x435;" horiz-adv-x="864" 
d="M725 240q-27 -116 -145 -195.5t-246 -79.5q-118 0 -194.5 81.5t-76.5 232.5q0 103 36.5 209t99 195t140 159.5t166 110.5t171.5 40t130.5 -45t47.5 -114q0 -113 -110.5 -218t-268 -166t-305.5 -65q-6 -44 -6 -82q0 -108 56.5 -183t162.5 -75q87 0 183.5 54t158.5 141z
M178 444q124 4 257 51.5t230 133.5t97 184q0 49 -32 83t-89 34q-59 0 -129 -36t-136 -98t-120 -155t-78 -197z" />
    <glyph glyph-name="afii10072" unicode="&#x436;" horiz-adv-x="1712" 
d="M705 0l153 723l-315 -438q-228 -318 -424 -318q-66 0 -108 34t-42 89t29 103.5t68 76.5q-15 -38 -15 -92q0 -63 25.5 -103t75.5 -40q86 0 171 85t140 225.5t55 287.5q0 139 -47 212t-131 73q-130 0 -252 -158q41 113 122 173t169 60q114 0 175.5 -88t61.5 -246
q0 -130 -51 -251l320 444l22 106h90l-151 -718l313 436q230 317 426 317q65 0 106.5 -34t41.5 -89t-29 -103.5t-68 -76.5q15 38 15 92q0 62 -26.5 103t-76.5 41q-86 0 -170.5 -85.5t-139 -225.5t-54.5 -287q0 -139 47 -212t131 -73q130 0 252 158q-41 -113 -122 -173.5
t-169 -60.5q-115 0 -176.5 88t-61.5 246q0 129 52 252l-320 -444l-22 -109h-90z" />
    <glyph glyph-name="afii10073" unicode="&#x437;" horiz-adv-x="765" 
d="M-8 23l33 159q3 -18 18.5 -43t43 -51.5t74 -44.5t101.5 -18q132 0 219.5 69t87.5 187q0 77 -66 124.5t-177 47.5h-88l12 61h82q140 0 220.5 72t80.5 174q0 77 -47 129.5t-123 52.5q-100 0 -177.5 -60t-103.5 -157q-28 48 -28 90q0 84 92 131t227 47q108 0 180 -57
t72 -164q0 -116 -76.5 -188.5t-187.5 -96.5q94 -19 148.5 -74t54.5 -137q0 -100 -60 -171.5t-151 -103.5t-201 -32q-83 0 -158 17t-102 37z" />
    <glyph glyph-name="afii10074" unicode="&#x438;" horiz-adv-x="991" 
d="M113 270l104 492q12 64 12 88q0 75 -57 86l-12 2l200 57l-141 -647q-24 -120 -24 -170q0 -141 120 -141q123 0 251 126t163 290l66 317q12 54 12 86q0 69 -59 80l-11 2l201 57q-147 -675 -180 -827q-8 -40 -8 -59q0 -71 51 -80l12 -2l-186 -58l49 252
q-66 -109 -176.5 -179.5t-204.5 -70.5q-92 0 -143.5 47.5t-51.5 135.5q0 53 13 116z" />
    <glyph glyph-name="afii10075" unicode="&#x439;" horiz-adv-x="991" 
d="M113 270l104 492q12 64 12 88q0 75 -57 86l-12 2l200 57l-141 -647q-24 -120 -24 -170q0 -141 120 -141q123 0 251 126t163 290l66 317q12 54 12 86q0 69 -59 80l-11 2l201 57q-147 -675 -180 -827q-8 -40 -8 -59q0 -71 51 -80l12 -2l-186 -58l49 252
q-66 -109 -176.5 -179.5t-204.5 -70.5q-92 0 -143.5 47.5t-51.5 135.5q0 53 13 116zM895 1409l47 -35q-158 -235 -346 -235q-92 0 -148.5 40.5t-56.5 100.5q0 36 30.5 66t72.5 30q-5 -20 -5 -41q0 -66 32.5 -101.5t92.5 -35.5q74 0 142 54t139 157z" />
    <glyph glyph-name="afii10076" unicode="&#x43a;" horiz-adv-x="917" 
d="M59 0l166 770q13 57 13 80q0 48 -19.5 66t-50.5 22l203 57l-111 -499q100 4 173.5 59.5t162.5 181.5q8 11 26.5 38t28.5 41t29.5 38.5t32.5 38t33 31t37.5 27t39 16t43.5 6.5q52 0 81 -38t32 -97q-46 43 -102 43q-53 0 -104.5 -45.5t-121.5 -135.5q-146 -191 -268 -231
l225 -332q42 -61 99 -99t110 -38q-41 -23 -117 -23q-54 0 -97.5 32.5t-88.5 96.5q-39 55 -130.5 194.5t-125.5 186.5l-104 -487h-95z" />
    <glyph glyph-name="afii10077" unicode="&#x43b;" horiz-adv-x="888" 
d="M-49 0l629 993l24 39l107 -866q8 -73 35.5 -103.5t68.5 -33.5l-174 -54l-100 844l-400 -643q-39 -68 -39 -102q0 -35 22.5 -53t41.5 -21h-215z" />
    <glyph glyph-name="afii10078" unicode="&#x43c;" horiz-adv-x="1232" 
d="M57 0l172 795q9 37 9 67q0 39 -15 64.5t-39 31.5h176l185 -796l510 796h108l-166 -796q-10 -48 -10 -76q0 -38 13 -60t28 -26h-160l185 848l-559 -868l-195 849l-141 -657q-13 -60 -13 -88q0 -62 50 -84h-138z" />
    <glyph glyph-name="afii10079" unicode="&#x43d;" horiz-adv-x="1026" 
d="M59 0l170 786q9 40 9 66q0 78 -70 86l201 57l-105 -475h510l90 438h92l-161 -776q-9 -49 -9 -80q0 -78 27 -102h-154l101 461h-508l-98 -461h-95z" />
    <glyph glyph-name="afii10080" unicode="&#x43e;" horiz-adv-x="948" 
d="M354 -33q-74 0 -130.5 31t-89.5 83.5t-49.5 115.5t-16.5 133q0 158 71 311.5t194 253.5t261 100q74 0 131 -31t90 -83t49.5 -115t16.5 -133q0 -169 -73.5 -323.5t-196 -248.5t-257.5 -94zM371 25q63 0 121.5 32t102.5 84.5t80 119t59 137.5t35.5 137t12.5 120
q0 52 -10.5 99.5t-32.5 90t-63.5 68t-97.5 25.5q-64 0 -123 -31.5t-103 -84t-80 -118.5t-59 -136.5t-35 -137t-12 -121.5q0 -51 11 -98.5t33.5 -90.5t64 -69t96.5 -26z" />
    <glyph glyph-name="afii10081" unicode="&#x43f;" horiz-adv-x="991" 
d="M57 0l172 797q7 28 7 55q0 73 -60 84l-10 2l201 57l-62 -254q24 41 62 82.5t89.5 80.5t118.5 64t136 25q176 0 176 -182q0 -54 -13 -117l-98 -471q-16 -73 -16 -127q0 -79 26 -96h-153l145 664q15 73 15 116q0 144 -125 144q-123 0 -247.5 -122.5t-160.5 -289.5
l-110 -512h-93z" />
    <glyph glyph-name="afii10082" unicode="&#x440;" horiz-adv-x="1009" 
d="M-20 -391l247 1153q13 72 13 88q0 74 -64 88l-10 2l209 55q-6 -30 -32.5 -138t-31.5 -130q30 49 69 93.5t90 84.5t114 64t129 24q110 0 169.5 -81.5t59.5 -211.5q0 -96 -24 -198t-72 -197t-112 -171t-152.5 -121.5t-186.5 -45.5q-68 0 -130.5 38t-86.5 101l-104 -497h-94
zM205 209q0 -72 56 -128t142 -56q69 0 131.5 29.5t109.5 80.5t85 117t62 139.5t36.5 148.5t12.5 144q0 108 -42.5 175t-125.5 67q-110 0 -215.5 -101t-169.5 -254q-29 -71 -55.5 -184t-26.5 -178z" />
    <glyph glyph-name="afii10083" unicode="&#x441;" horiz-adv-x="825" 
d="M735 240q-27 -117 -142.5 -196t-242.5 -79q-144 0 -215.5 90t-71.5 256q0 118 49 241t127.5 220t186.5 159t217 62q90 0 136 -29t46 -81q0 -86 -86 -176q4 32 4 55q0 75 -29.5 119.5t-107.5 44.5q-74 0 -144 -36t-123 -97t-93 -137t-61 -160t-21 -162q0 -138 56 -214.5
t175 -76.5q89 0 183.5 54.5t156.5 142.5z" />
    <glyph glyph-name="afii10084" unicode="&#x442;" horiz-adv-x="1525" 
d="M57 0l172 797q7 28 7 55q0 73 -60 84l-10 2l199 57l-70 -264q15 28 48.5 67.5t85 85.5t122.5 77.5t143 31.5q172 0 172 -182q0 -21 -4 -61q55 95 165.5 169t221.5 74q172 0 172 -182q0 -49 -14 -117l-98 -471q-17 -78 -17 -127q0 -78 27 -96h-152l144 664q14 68 14 116
q0 70 -26.5 108t-90.5 38q-85 0 -169 -60.5t-142.5 -155t-81.5 -198.5l-110 -512h-93l144 664q14 68 14 116q0 70 -26.5 108t-90.5 38q-119 0 -239.5 -124.5t-155.5 -289.5l-108 -512h-93z" />
    </font>
</defs>
</svg>
