<?xml version="1.0" standalone="no"?>
<!DOCTYPE svg PUBLIC "-//W3C//DTD SVG 1.1//EN" "http://www.w3.org/Graphics/SVG/1.1/DTD/svg11.dtd" >
<svg xmlns="http://www.w3.org/2000/svg" xmlns:xlink="http://www.w3.org/1999/xlink" version="1.1">
<metadata>
Created by FontForge 20201107 at Sat Sep  7 07:39:55 2024
 By 
Copyright [c] 1997, 2000, 2005, 2008, 2014 by Luc(as) de Groot, published by LucasFonts.
</metadata>
<defs>
<font id="Spiegel-Bold" horiz-adv-x="1167" >
  <font-face 
    font-family="Spiegel Bold"
    font-weight="550"
    font-stretch="normal"
    units-per-em="2048"
    panose-1="2 11 5 2 6 4 2 2 5 4"
    ascent="1577"
    descent="-471"
    x-height="1032"
    cap-height="1358"
    bbox="-915 -471 2124 1987"
    underline-thickness="208"
    underline-position="-263"
    unicode-range="U+000D-FB02"
  />
<missing-glyph horiz-adv-x="1126" 
d="M614 307h-307v512h103v-409h204v-103zM1024 102h-922v922h922v-922zM819 307h-102v205h-205v102h205v103h-205v102h307v-512zM922 205v717h-717v-717h717z" />
    <glyph glyph-name="fi" unicode="fi" horiz-adv-x="1134" 
d="M1026 1169h-301v256h301v-256zM1022 0h-297v807h-285v-807h-299v807h-141v225h141v55q0 88 14 149t50.5 111t106 74.5t175.5 24.5q87 0 170 -27l-47 -207q-48 19 -94 19q-76 0 -76 -115v-84h582v-1032z" />
    <glyph glyph-name="fl" unicode="fl" horiz-adv-x="1134" 
d="M1022 0h-297v1204q-84 27 -156 27q-129 0 -129 -152v-47h168l-22 -225h-146v-807h-299v807h-141v225h141v31q0 383 406 383q48 0 104.5 -7.5t73.5 -13.5h297v-1425z" />
    <glyph glyph-name=".notdef" horiz-adv-x="1126" 
d="M614 307h-307v512h103v-409h204v-103zM1024 102h-922v922h922v-922zM819 307h-102v205h-205v102h205v103h-205v102h307v-512zM922 205v717h-717v-717h717z" />
    <glyph glyph-name=".null" horiz-adv-x="0" 
 />
    <glyph glyph-name=".null" horiz-adv-x="0" 
 />
    <glyph glyph-name="nonmarkingreturn" horiz-adv-x="682" 
 />
    <glyph glyph-name="CR" unicode="&#xd;" horiz-adv-x="512" 
 />
    <glyph glyph-name="space" unicode=" " horiz-adv-x="512" 
 />
    <glyph glyph-name="exclam" unicode="!" horiz-adv-x="618" 
d="M420 414h-187q-92 466 -92 944h371q0 -481 -92 -944zM477 0h-301v303h301v-303z" />
    <glyph glyph-name="quotedbl" unicode="&#x22;" horiz-adv-x="817" 
d="M659 831h-151l-64 527h279zM303 831h-151l-64 527h279z" />
    <glyph glyph-name="numbersign" unicode="#" horiz-adv-x="1271" 
d="M883 0h-250l57 360h-211l-57 -360h-250l57 360h-172v222h207l37 229h-160v221h193l51 326h250l-51 -326h211l51 326h250l-52 -326h170v-221h-204l-37 -229h157v-222h-190zM723 582l37 229h-209l-39 -229h211z" />
    <glyph glyph-name="dollar" unicode="$" horiz-adv-x="1249" 
d="M725 -211h-180v203q-232 8 -338.5 102t-106.5 293l312 33q0 -103 48 -149t154 -46q101 0 159 36t58 95q0 49 -24.5 85t-66 57t-95.5 36.5t-113.5 30.5t-119 32.5t-113.5 47t-95.5 70.5t-66 107.5t-24.5 152.5q0 157 114 263t318 130v195h180v-191q389 -29 389 -348
l-297 -33q0 78 -45 115t-145 37q-85 0 -134 -34.5t-49 -84.5q0 -42 25 -72.5t67 -50t96.5 -35t115 -31.5t120.5 -35.5t114.5 -51t96.5 -74t67 -109t25 -151.5q0 -159 -120 -270t-326 -142v-213z" />
    <glyph glyph-name="percent" unicode="%" horiz-adv-x="1486" 
d="M455 0h-193l750 1358h188zM348 639q-166 0 -233.5 94t-67.5 275q0 173 79 273.5t236 100.5q166 0 234 -93.5t68 -274.5q0 -173 -79.5 -274t-236.5 -101zM356 791q57 0 79 52t22 163q0 120 -22 172.5t-81 52.5q-57 0 -78.5 -52t-21.5 -163q0 -120 21.5 -172.5t80.5 -52.5z
M1110 -25q-166 0 -233.5 94t-67.5 275q0 173 79 274t236 101q166 0 233.5 -94t67.5 -275q0 -173 -79 -274t-236 -101zM1118 127q57 0 79 52t22 163q0 120 -22 172.5t-81 52.5q-57 0 -78.5 -52t-21.5 -163q0 -120 21.5 -172.5t80.5 -52.5z" />
    <glyph glyph-name="ampersand" unicode="&#x26;" horiz-adv-x="1378" 
d="M942 752h287q0 -114 -26.5 -233.5t-76.5 -201.5q94 -57 156 -57l29 4v-264q-43 -16 -88 -16q-129 0 -310 112q-183 -123 -409 -123q-209 0 -334 98t-125 251q0 116 61.5 203.5t172.5 168.5q-69 98 -108.5 190t-39.5 152q0 63 11.5 112.5t42.5 94.5t82 74.5t132.5 47
t190.5 17.5q198 0 296.5 -75t98.5 -217q0 -47 -20.5 -93.5t-40 -75t-75.5 -74t-76.5 -59.5t-93.5 -62q-15 -10 -22 -15q104 -118 256 -242q46 119 29 283zM719 236q-163 133 -291 276q-43 -64 -43 -137q0 -89 54 -137t130 -48q71 0 150 46zM532 866q71 51 110.5 98.5
t39.5 106.5q0 125 -113 125q-55 0 -86.5 -35t-31.5 -100q0 -87 81 -195z" />
    <glyph glyph-name="quotesingle" unicode="'" horiz-adv-x="608" 
d="M381 831h-152l-63 527h278z" />
    <glyph glyph-name="parenleft" unicode="(" horiz-adv-x="731" 
d="M635 -291l-193 -78q-162 193 -249 424t-87 477q0 265 92.5 498.5t245.5 415.5l191 -76q-111 -168 -177.5 -382t-66.5 -447q0 -445 244 -832z" />
    <glyph glyph-name="parenright" unicode=")" horiz-adv-x="731" 
d="M96 1368l193 78q162 -193 249 -424t87 -477q0 -265 -92.5 -498.5t-245.5 -415.5l-191 76q111 168 177.5 382.5t66.5 447.5q0 444 -244 831z" />
    <glyph glyph-name="asterisk" unicode="*" horiz-adv-x="1107" 
d="M889 719l-172 -113l-115 258l-108 -258l-183 103l183 217l-275 -25v191l266 -27l-153 223l176 101l100 -261l109 261l172 -113l-166 -211l268 27v-191l-268 25z" />
    <glyph glyph-name="plus" unicode="+" horiz-adv-x="1187" 
d="M721 147h-254v408h-365v240h365v405h254v-405h364v-240h-364v-408z" />
    <glyph glyph-name="comma" unicode="," horiz-adv-x="561" 
d="M256 -348l-133 53l121 295h-121v328h315v-314z" />
    <glyph glyph-name="hyphen" unicode="-" horiz-adv-x="475" 
d="M465 451h-465v223h465v-223z" />
    <glyph glyph-name="hyphen" unicode="&#xad;" horiz-adv-x="475" 
d="M465 451h-465v223h465v-223z" />
    <glyph glyph-name="period" unicode="." horiz-adv-x="561" 
d="M438 0h-315v328h315v-328z" />
    <glyph glyph-name="slash" unicode="/" horiz-adv-x="860" 
d="M233 -238h-258l650 1711h258z" />
    <glyph glyph-name="zero" unicode="0" horiz-adv-x="1220" 
d="M592 -25q-134 0 -229 35t-163 115.5t-101 216t-33 332.5q0 156 27 277t75.5 201.5t120 132.5t155 74.5t185.5 22.5q134 0 229 -35t163 -115t101 -215t33 -331q0 -156 -27 -277.5t-75.5 -202.5t-120 -133.5t-155 -75t-185.5 -22.5zM621 213q53 0 90 19t66 68t43 141.5
t14 232.5q0 119 -9.5 201.5t-26.5 135.5t-47 82.5t-65 40.5t-86 11q-53 0 -90 -19t-66 -68t-43 -141t-14 -231q0 -120 9.5 -203.5t26.5 -136.5t47 -82t65 -40t86 -11z" />
    <glyph glyph-name="one" unicode="1" horiz-adv-x="940" 
d="M915 0h-849v262h266v805l-205 -76l-72 223l414 154h180v-1106h266v-262z" />
    <glyph glyph-name="two" unicode="2" horiz-adv-x="1177" 
d="M1069 0h-989v258q62 96 153.5 185t171.5 150t153.5 121t117 123t43.5 130q0 88 -39.5 128t-126.5 40q-92 0 -133 -50t-41 -161h-307q0 235 122 346.5t379 111.5q133 0 230.5 -31t153 -87t82 -125.5t26.5 -155.5q0 -78 -24.5 -147t-67 -122t-94.5 -99t-112.5 -87.5
t-114.5 -77.5t-106.5 -78.5t-84.5 -82.5h647z" />
    <glyph glyph-name="three" unicode="3" horiz-adv-x="1165" 
d="M455 584h-80v237h78q153 0 212.5 48t59.5 141q0 72 -45 114.5t-141 42.5q-83 0 -138 -49.5t-55 -128.5h-285q0 189 135.5 291t364.5 102q246 0 369 -91t123 -255q0 -113 -62 -189.5t-203 -119.5v-4q164 -27 238 -106.5t74 -206.5q0 -113 -42.5 -198t-120 -136t-181 -76
t-232.5 -25q-272 0 -378.5 94t-82.5 302h326q-12 -88 27 -130t139 -42q56 0 100 16.5t75.5 61t31.5 114.5q0 113 -68 153t-239 40z" />
    <glyph glyph-name="four" unicode="4" horiz-adv-x="1198" 
d="M952 0h-325v303h-602v213l499 842h428v-807h193v-248h-193v-303zM627 555v518h-4l-301 -518h305z" />
    <glyph glyph-name="five" unicode="5" horiz-adv-x="1153" 
d="M70 401h309q-17 -98 25.5 -141t138.5 -43q97 0 148.5 42t51.5 138q0 85 -30.5 135t-113.5 77.5t-230 27.5q-101 0 -242 -12l49 733h817l-16 -277h-563l-19 -217q33 2 97 2q157 0 273 -31.5t184.5 -90t101 -133t32.5 -167.5q0 -236 -147.5 -352.5t-413.5 -116.5
q-264 0 -371 101t-81 325z" />
    <glyph glyph-name="six" unicode="6" horiz-adv-x="1218" 
d="M1153 463q0 -227 -155 -357.5t-408 -130.5q-91 0 -165 17t-142 61t-114.5 114t-73.5 181t-27 256q0 171 32.5 306t87 222.5t131.5 144.5t161.5 81t181.5 24q221 0 329.5 -87t102.5 -267l-320 -35q8 85 -26.5 125.5t-94.5 40.5q-225 0 -239 -395q206 70 340 70
q192 0 295.5 -86.5t103.5 -284.5zM821 428q0 180 -182 180q-113 0 -217 -49q0 -83 7.5 -143.5t27.5 -111.5t58 -77t95 -26q101 0 156 57.5t55 169.5z" />
    <glyph glyph-name="seven" unicode="7" horiz-adv-x="1015" 
d="M563 0h-360q85 325 201 618t225 447h-582v293h922v-168q-128 -228 -233.5 -539t-172.5 -651z" />
    <glyph glyph-name="eight" unicode="8" horiz-adv-x="1189" 
d="M1085 1067q0 -205 -223 -350q79 -46 133 -94t91.5 -119.5t37.5 -155.5q0 -75 -31 -140t-95.5 -118.5t-176 -84t-258.5 -30.5q-246 0 -371.5 77.5t-125.5 246.5q0 80 38 151.5t94 122.5t138 101q-116 66 -182 146.5t-66 189.5q0 167 138 269.5t392 102.5q216 0 341.5 -80
t125.5 -235zM774 1040q0 58 -48 93.5t-136 35.5q-83 0 -125.5 -34t-42.5 -88q0 -60 51 -107t148 -98q153 97 153 198zM791 324q0 65 -57.5 117.5t-166.5 109.5q-84 -49 -129 -99.5t-45 -111.5q0 -41 16.5 -72t45.5 -47.5t62.5 -24.5t72.5 -8q87 0 144 33.5t57 102.5z" />
    <glyph glyph-name="nine" unicode="9" horiz-adv-x="1218" 
d="M66 895q0 227 155 357t408 130q91 0 165 -17t142 -61t114.5 -114t73.5 -181t27 -257q0 -123 -17.5 -227.5t-48 -183t-74.5 -141t-95.5 -104.5t-113 -69.5t-124 -39.5t-131.5 -12q-224 0 -338.5 92t-99.5 281h321q-6 -74 30.5 -111.5t94.5 -37.5q108 0 175.5 95t74.5 300
q-105 -35 -182 -52.5t-158 -17.5q-193 0 -296 85.5t-103 285.5zM397 928q0 -178 183 -178q104 0 217 49q0 84 -8 144.5t-28 111t-58 76.5t-95 26q-101 0 -156 -57.5t-55 -171.5z" />
    <glyph glyph-name="colon" unicode=":" horiz-adv-x="591" 
d="M469 713h-315v319h315v-319zM469 0h-315v319h315v-319z" />
    <glyph glyph-name="semicolon" unicode=";" horiz-adv-x="591" 
d="M469 713h-315v319h315v-319zM287 -348l-133 53l120 295h-120v319h315v-305z" />
    <glyph glyph-name="less" unicode="&#x3c;" horiz-adv-x="1187" 
d="M1077 184l-983 369v244l983 368v-254l-678 -233l678 -232v-262z" />
    <glyph glyph-name="equal" unicode="=" horiz-adv-x="1187" 
d="M1079 795h-970v229h970v-229zM1079 326h-970v229h970v-229z" />
    <glyph glyph-name="greater" unicode="&#x3e;" horiz-adv-x="1187" 
d="M111 1165l983 -368v-244l-983 -369v254l675 234l-675 231v262z" />
    <glyph glyph-name="question" unicode="?" horiz-adv-x="1048" 
d="M623 414h-248q0 74 15 134t38.5 99t52.5 71t58 59.5t52.5 55.5t38.5 67t15 87q0 72 -38 115t-107 43q-40 0 -70 -17.5t-50 -52t-32 -69t-24 -84.5l-238 98q47 181 152 271.5t301 90.5q197 0 308 -103t111 -271q0 -73 -18.5 -132.5t-48 -99.5t-65.5 -74t-71.5 -64
t-65 -60.5t-48 -72t-18.5 -91.5zM649 0h-301v303h301v-303z" />
    <glyph glyph-name="at" unicode="@" horiz-adv-x="1626" 
d="M1106 115l53 -140q-189 -86 -409 -86q-205 0 -360 88.5t-235.5 240t-80.5 343.5q0 178 62.5 332t169.5 260t253.5 166.5t310.5 60.5q158 0 287 -54t210.5 -143t125 -199t43.5 -226q0 -229 -124 -363.5t-310 -134.5q-177 0 -219 121q-35 -57 -88 -89t-109 -32
q-111 0 -175.5 71.5t-64.5 225.5q0 221 105 350t295 129q166 0 268 -20l-51 -404q-13 -100 1 -142t73 -42q33 0 68 17t68.5 51.5t55 98t21.5 146.5q0 211 -138 347.5t-360 136.5q-116 0 -223.5 -48t-189 -131t-130.5 -205t-49 -261q0 -243 140.5 -390t367.5 -147
q83 0 177 20t161 52zM860 645l29 221q-35 6 -74 6q-160 0 -160 -292q0 -84 16.5 -118t49.5 -34q52 0 89 57t50 160z" />
    <glyph glyph-name="A" unicode="A" horiz-adv-x="1224" 
d="M1219 0h-349q-28 133 -63 268h-451q-39 -146 -65 -268h-285q173 673 416 1358h379q224 -630 418 -1358zM420 508h321q-35 139 -106 381q-29 104 -53 201h-4q-17 -73 -52 -203q-91 -322 -106 -379z" />
    <glyph glyph-name="B" unicode="B" horiz-adv-x="1171" 
d="M590 0h-467v1358h489q171 0 274.5 -41t145 -114t41.5 -187q0 -109 -56.5 -188t-168.5 -103v-4q128 -6 199 -88t71 -207q0 -190 -142 -308t-386 -118zM430 813h156q78 0 121 38.5t43 117.5q0 72 -41.5 110.5t-137.5 38.5h-141v-305zM430 242h158q93 0 145.5 43t52.5 121
q0 86 -49 130t-143 44h-164v-338z" />
    <glyph glyph-name="C" unicode="C" horiz-adv-x="1220" 
d="M842 463h323q-15 -213 -163.5 -350.5t-389.5 -137.5q-263 0 -406 174t-143 486q0 168 36 304t107.5 235.5t184 153.5t258.5 54q256 0 383.5 -134.5t108.5 -358.5l-318 -35q12 274 -192 274q-122 0 -181 -119.5t-59 -334.5q0 -231 59.5 -338t180.5 -107q96 0 148.5 66.5
t62.5 167.5z" />
    <glyph glyph-name="D" unicode="D" horiz-adv-x="1222" 
d="M479 0h-356v1358q64 0 193.5 1t215.5 1q633 0 633 -635q0 -166 -40 -297t-122 -227.5t-214.5 -148.5t-309.5 -52zM434 254h74q170 0 252 109.5t82 332.5q0 203 -76.5 306.5t-257.5 103.5h-74v-852z" />
    <glyph glyph-name="E" unicode="E" horiz-adv-x="1032" 
d="M979 0h-856v1358h870l-28 -254h-531v-285h432v-246h-432v-319h545v-254z" />
    <glyph glyph-name="F" unicode="F" horiz-adv-x="937" 
d="M434 0h-311v1358h825l-28 -254h-486v-322h389v-245h-389v-537z" />
    <glyph glyph-name="G" unicode="G" horiz-adv-x="1232" 
d="M840 266v221h-234v238h524v-614q-108 -64 -240.5 -100t-260.5 -36q-566 0 -566 674q0 342 158 537.5t432 195.5q234 0 355.5 -106.5t117.5 -308.5l-295 -39q5 98 -46 150t-152 52q-117 0 -181.5 -113t-64.5 -329q0 -172 31.5 -273.5t93 -144.5t162.5 -43q46 0 93 11
t73 28z" />
    <glyph glyph-name="H" unicode="H" horiz-adv-x="1318" 
d="M1196 0h-311v575h-451v-575h-311v1358h311v-524h451v524h311v-1358z" />
    <glyph glyph-name="I" unicode="I" horiz-adv-x="557" 
d="M434 0h-311v1358h311v-1358z" />
    <glyph glyph-name="J" unicode="J" horiz-adv-x="679" 
d="M18 -4v246q31 -4 68 -4q97 0 132.5 46t35.5 162v912h311v-897q0 -250 -109.5 -364.5t-314.5 -114.5q-65 0 -123 14z" />
    <glyph glyph-name="K" unicode="K" horiz-adv-x="1196" 
d="M1206 0h-411l-361 633v-633h-311v1358h311v-590l340 590h375l-422 -629z" />
    <glyph glyph-name="L" unicode="L" horiz-adv-x="856" 
d="M846 0h-723v1358h311v-1100h432z" />
    <glyph glyph-name="M" unicode="M" horiz-adv-x="1660" 
d="M1079 1358h422q80 -682 107 -1358h-318q-9 405 -28 709q-18 280 -23 407h-4q-35 -170 -88 -350l-225 -766h-230l-225 766q-54 186 -88 350h-4q-4 -117 -23 -407q-22 -327 -28 -709h-271q24 605 107 1358h422l192 -656q35 -127 55 -237h5q25 133 57 252z" />
    <glyph glyph-name="N" unicode="N" horiz-adv-x="1312" 
d="M1190 0h-338l-348 717q-74 151 -139 346h-5q19 -230 19 -385v-678h-256v1358h407l248 -514q101 -206 168 -412h4q-16 226 -16 445v481h256v-1358z" />
    <glyph glyph-name="O" unicode="O" horiz-adv-x="1298" 
d="M637 -25q-576 0 -576 668q0 160 36.5 292.5t108.5 233.5t188.5 157t267.5 56q575 0 575 -667q0 -98 -14 -187.5t-43.5 -173.5t-78 -152t-113 -119.5t-154.5 -79.5t-197 -28zM649 229q133 0 198.5 116.5t65.5 332.5q0 229 -63 339.5t-201 110.5q-134 0 -199 -116t-65 -332
q0 -229 63 -340t201 -111z" />
    <glyph glyph-name="P" unicode="P" horiz-adv-x="1122" 
d="M434 0h-311v1358h459q254 0 376.5 -105.5t122.5 -330.5q0 -216 -156.5 -350t-441.5 -134h-49v-438zM434 678h80q242 0 242 223q0 217 -213 217h-109v-440z" />
    <glyph glyph-name="Q" unicode="Q" horiz-adv-x="1298" 
d="M618 -25q-557 11 -557 668q0 160 36.5 292.5t108.5 233.5t188.5 157t267.5 56q575 0 575 -667q0 -126 -23.5 -237.5t-71.5 -208.5t-130.5 -167.5t-192.5 -101.5h373l-43 -238h-569zM649 229q133 0 198.5 116.5t65.5 332.5q0 229 -63 339.5t-201 110.5q-134 0 -199 -116
t-65 -332q0 -229 63 -340t201 -111z" />
    <glyph glyph-name="R" unicode="R" horiz-adv-x="1153" 
d="M1118 0h-362l-236 535h-86v-535h-311v1358h487q465 0 465 -395q0 -129 -67.5 -224t-188.5 -149zM434 768h131q91 0 139 46t48 132q0 81 -46 126.5t-139 45.5h-133v-350z" />
    <glyph glyph-name="S" unicode="S" horiz-adv-x="1193" 
d="M1073 1024l-303 -39q0 79 -44 116.5t-144 37.5q-86 0 -134.5 -36t-48.5 -91q0 -41 25 -71.5t67 -50t96.5 -35.5t114.5 -32.5t120.5 -36.5t115 -52t96.5 -74.5t67 -108.5t25 -150q0 -191 -152 -308.5t-421 -117.5q-259 0 -378.5 96.5t-119.5 307.5l312 41q0 -105 50 -152
t165 -47q102 0 153 39t51 105q0 48 -24.5 82.5t-66 55t-95.5 36.5t-113.5 31t-119 33t-113.5 48t-95.5 70.5t-66 106t-24.5 149.5q0 181 144 293t400 112q461 0 461 -358z" />
    <glyph glyph-name="T" unicode="T" horiz-adv-x="968" 
d="M641 0h-311v1100h-322v258h963l-21 -258h-309v-1100z" />
    <glyph glyph-name="U" unicode="U" horiz-adv-x="1286" 
d="M1167 1358v-828q0 -277 -132.5 -416t-393.5 -139q-268 0 -395 131t-127 408v844h311v-811q0 -174 52 -246t167 -72t171.5 67t56.5 234v828h290z" />
    <glyph glyph-name="V" unicode="V" 
d="M772 0h-377q-237 684 -389 1358h348q23 -114 53.5 -246.5t48 -204t52 -208t37.5 -148.5q60 -254 67 -283h4q44 188 76 310q129 511 185 780h284q-163 -710 -389 -1358z" />
    <glyph glyph-name="W" unicode="W" horiz-adv-x="1810" 
d="M543 287h4q26 209 63 362l172 709h295l170 -709q38 -167 66 -362h4q33 212 61 360q3 16 22 111t33 167t35 194.5t37 238.5h275q-108 -616 -320 -1358h-344l-164 686q-31 129 -45 287h-4q-13 -164 -43 -287l-166 -686h-344q-197 672 -319 1358h323q16 -115 37 -237.5
t34.5 -194t33 -168t22.5 -111.5q36 -202 62 -360z" />
    <glyph glyph-name="X" unicode="X" horiz-adv-x="1161" 
d="M1161 8l-381 -33l-227 480q-120 -228 -236 -455h-337q241 402 432 707l-387 643l385 32l198 -407q141 325 166 383h354q-333 -547 -376 -615z" />
    <glyph glyph-name="Y" unicode="Y" horiz-adv-x="1069" 
d="M678 0h-311v573q-226 411 -387 785h356q92 -246 211 -494h6q102 192 235 494h302q-181 -391 -412 -776v-582z" />
    <glyph glyph-name="Z" unicode="Z" horiz-adv-x="1085" 
d="M1014 0h-973v207l563 893h-530l22 258h901v-211l-561 -889h598z" />
    <glyph glyph-name="bracketleft" unicode="[" horiz-adv-x="712" 
d="M610 -348h-467v1773h467v-159h-196v-1454h196v-160z" />
    <glyph glyph-name="backslash" unicode="\" horiz-adv-x="841" 
d="M901 -238h-274l-650 1711h275z" />
    <glyph glyph-name="bracketright" unicode="]" horiz-adv-x="712" 
d="M102 1425h467v-1773h-467v160h197v1454h-197v159z" />
    <glyph glyph-name="asciicircum" unicode="^" horiz-adv-x="1220" 
d="M1096 543h-258l-238 620l-238 -620h-258l334 815h324z" />
    <glyph glyph-name="underscore" unicode="_" horiz-adv-x="1220" 
d="M1221 -369h-1221v209h1221v-209z" />
    <glyph glyph-name="grave" unicode="`" horiz-adv-x="638" 
d="M537 1165h-179l-256 279h275z" />
    <glyph glyph-name="a" unicode="a" horiz-adv-x="1081" 
d="M979 0h-250l-18 115q-82 -70 -159 -105t-175 -35q-175 0 -257.5 85t-82.5 219q0 66 19 120t62.5 100t112 77.5t171 49t235.5 17.5h35v37q0 84 -41.5 121t-132.5 37q-69 0 -158 -27.5t-166 -67.5l-92 191q244 123 467 123q228 0 324 -81.5t96 -266.5v-455q0 -64 10 -254z
M672 274v185h-51q-273 0 -273 -144q0 -61 35 -93t90 -32q54 0 100 20.5t99 63.5z" />
    <glyph glyph-name="b" unicode="b" horiz-adv-x="1132" 
d="M113 14v1411h297v-450q140 78 292 78q181 0 275 -122t94 -360q0 -286 -146 -441t-454 -155q-219 0 -358 39zM410 780v-587q49 -19 102 -19q112 0 179 89t67 251q0 179 -42.5 251.5t-129.5 72.5q-90 0 -176 -58z" />
    <glyph glyph-name="c" unicode="c" horiz-adv-x="1038" 
d="M831 352l170 -164q-101 -114 -209 -163.5t-264 -49.5q-239 0 -353 126.5t-114 398.5q0 267 128.5 412t383.5 145q219 0 319.5 -100t94.5 -300h-295q10 99 -27.5 146t-109.5 47q-84 0 -130 -82t-46 -233q0 -332 207 -332q67 0 125 37t120 112z" />
    <glyph glyph-name="d" unicode="d" horiz-adv-x="1132" 
d="M1020 0h-246l-16 106q-163 -126 -326 -126q-182 0 -276.5 121.5t-94.5 359.5q0 286 147.5 439t418.5 153q51 0 96 -9v381h297v-1425zM723 274v564q-45 20 -105 20q-110 0 -176.5 -88t-66.5 -250q0 -176 40 -250.5t113 -74.5q96 0 195 79z" />
    <glyph glyph-name="e" unicode="e" horiz-adv-x="1114" 
d="M928 305l119 -190q-222 -140 -504 -140q-243 0 -362.5 125t-119.5 389q0 270 131 419t398 149q235 0 349 -146.5t97 -468.5h-659q0 -116 59 -177.5t174 -61.5q83 0 170.5 28t147.5 74zM377 627h364q3 106 -40.5 166.5t-135.5 60.5q-81 0 -133 -61.5t-55 -165.5z" />
    <glyph glyph-name="f" unicode="f" horiz-adv-x="620" 
d="M440 0h-299v807h-141v225h141v55q0 88 14 149t50.5 111t106 74.5t175.5 24.5q94 0 187 -35l-47 -207q-62 27 -111 27q-76 0 -76 -115v-84h195l-23 -225h-172v-807z" />
    <glyph glyph-name="g" unicode="g" horiz-adv-x="1122" 
d="M762 1030l33 201h313l-172 -285q38 -21 62 -86.5t24 -114.5q0 -182 -117.5 -263t-369.5 -81q-17 0 -29 2q-57 -8 -57 -51q0 -27 35.5 -41.5t92 -20.5t125 -11.5t136.5 -21t124.5 -42.5t92 -82t35.5 -133q0 -199 -134.5 -284t-451.5 -85q-263 0 -371 57.5t-108 190.5
q0 73 52.5 128t141.5 85q-54 22 -75 57.5t-21 92.5q0 56 48.5 109t129.5 91q-112 21 -166.5 95.5t-54.5 183.5q0 159 120.5 244.5t364.5 85.5q117 0 197 -21zM561 563q150 0 150 158q0 168 -160 168q-78 0 -120 -38.5t-42 -115.5q0 -172 172 -172zM385 53q-57 -49 -57 -119
q0 -59 60 -90.5t175 -31.5q128 0 178 29t50 83q0 45 -26 66.5t-110 36t-270 26.5z" />
    <glyph glyph-name="h" unicode="h" horiz-adv-x="1144" 
d="M1034 0h-297v659q0 93 -29 130.5t-102 37.5q-49 0 -104 -17.5t-92 -43.5v-766h-297v1425h297v-471q184 99 331 99q162 0 227.5 -71t65.5 -243v-739z" />
    <glyph glyph-name="i" unicode="i" horiz-adv-x="522" 
d="M414 1165h-305v260h305v-260zM410 0h-297v1032h297v-1032z" />
    <glyph glyph-name="j" unicode="j" horiz-adv-x="522" 
d="M414 1165h-305v260h305v-260zM74 -369l-109 207q76 36 112 87.5t36 129.5v977h297v-940q0 -201 -82 -305t-254 -156z" />
    <glyph glyph-name="k" unicode="k" horiz-adv-x="1091" 
d="M1085 0h-378l-297 512v-512h-297v1425h297v-796l315 403h332l-363 -432z" />
    <glyph glyph-name="l" unicode="l" horiz-adv-x="522" 
d="M410 0h-297v1425h297v-1425z" />
    <glyph glyph-name="m" unicode="m" horiz-adv-x="1708" 
d="M1597 0h-297v659q0 93 -26 130.5t-92 37.5q-44 0 -94 -17.5t-84 -43.5v-766h-297v659q0 92 -26.5 130t-92.5 38q-44 0 -94 -17.5t-84 -43.5v-766h-297v1032h245l17 -112q80 61 172.5 97t177.5 36q209 0 244 -133q80 61 172.5 97t177.5 36q153 0 215.5 -71t62.5 -243v-739
z" />
    <glyph glyph-name="n" unicode="n" horiz-adv-x="1144" 
d="M1034 0h-297v659q0 92 -29.5 130t-101.5 38q-49 0 -104 -17.5t-92 -43.5v-766h-297v1032h245l17 -112q83 61 180.5 97t185.5 36q161 0 227 -71t66 -243v-739z" />
    <glyph glyph-name="o" unicode="o" horiz-adv-x="1153" 
d="M559 -25q-256 0 -377 125.5t-121 393.5q0 278 135 420.5t398 142.5q256 0 377 -125t121 -393q0 -278 -135 -421t-398 -143zM578 176q99 0 146.5 71t47.5 245q0 142 -23 223t-64 111t-110 30q-99 0 -146.5 -70.5t-47.5 -244.5q0 -142 23 -223t64 -111.5t110 -30.5z" />
    <glyph glyph-name="p" unicode="p" horiz-adv-x="1132" 
d="M410 -348h-297v1380h245l17 -106q165 127 325 127q182 0 276.5 -122t94.5 -360q0 -289 -147 -442.5t-418 -153.5q-51 0 -96 9v-332zM410 758v-568q45 -20 104 -20q110 0 177 90t67 252q0 326 -154 326q-93 0 -194 -80z" />
    <glyph glyph-name="q" unicode="q" horiz-adv-x="1132" 
d="M1020 1012v-1360h-297v401q-140 -78 -293 -78q-181 0 -275 122t-94 360q0 286 146.5 441t454.5 155q212 0 358 -41zM723 248v592q-47 18 -102 18q-111 0 -178.5 -90t-67.5 -254q0 -179 42.5 -251.5t129.5 -72.5q90 0 176 58z" />
    <glyph glyph-name="r" unicode="r" horiz-adv-x="724" 
d="M410 0h-297v1032h260l16 -166q61 102 114.5 144.5t121.5 42.5q42 0 100 -15l-37 -288q-46 16 -98 16q-47 0 -88.5 -27t-91.5 -86v-653z" />
    <glyph glyph-name="s" unicode="s" horiz-adv-x="1017" 
d="M915 764l-258 -21q4 66 -34.5 94.5t-116.5 28.5q-70 0 -111 -28t-41 -78q0 -33 26 -55.5t69 -34.5t97.5 -25.5t111 -25t111 -35t97.5 -55t69 -86t26 -126.5q0 -155 -133 -248.5t-367 -93.5q-229 0 -320.5 75t-66.5 231l245 22q-10 -71 36 -103t145 -32q78 0 121 26.5
t43 75.5q0 36 -25.5 62t-67.5 39.5t-96 27t-110 25t-110 34.5t-96 53t-67.5 83t-25.5 123q0 158 118.5 249t337.5 91q125 0 216 -31.5t139.5 -98.5t37.5 -163z" />
    <glyph glyph-name="t" unicode="t" horiz-adv-x="753" 
d="M674 240l49 -213q-140 -47 -309 -47q-147 0 -212 70.5t-65 238.5v518h-137v225h137v289l299 35v-324h266l-24 -225h-242v-455q0 -68 20 -100.5t72 -32.5q70 0 146 21z" />
    <glyph glyph-name="u" unicode="u" horiz-adv-x="1144" 
d="M111 1032h297v-659q0 -92 29.5 -130t101.5 -38q49 0 104 17.5t92 43.5v766h297v-1032h-246l-16 113q-83 -61 -181 -97t-186 -36q-161 0 -226.5 70.5t-65.5 242.5v739z" />
    <glyph glyph-name="v" unicode="v" horiz-adv-x="999" 
d="M641 0h-283q-206 545 -338 1032h312q32 -132 83.5 -315.5t55.5 -200.5q33 -136 51 -258h4q23 151 49 252q7 26 56.5 201t85.5 321h262q-135 -491 -338 -1032z" />
    <glyph glyph-name="w" unicode="w" horiz-adv-x="1601" 
d="M1241 0h-274l-129 520q-23 100 -35 211h-4q-12 -111 -35 -211l-129 -520h-275q-179 494 -323 1032h330q18 -96 40 -195.5t48 -208.5t34 -143q21 -101 33 -204h2q14 106 37 206l135 545h271l135 -545q21 -95 37 -206h2q11 105 33 204q4 16 33.5 141t50 217t38.5 189h269
q-126 -483 -324 -1032z" />
    <glyph glyph-name="x" unicode="x" horiz-adv-x="1034" 
d="M999 1032l-303 -473l334 -559l-352 -20l-189 346q-90 -155 -170 -326h-315l344 528l-303 504l352 21l158 -299q70 132 135 278h309z" />
    <glyph glyph-name="y" unicode="y" horiz-adv-x="985" 
d="M344 -369l-182 140q160 105 160 282q0 47 -50 190t-126 368.5t-121 420.5h319q15 -70 33 -144t30.5 -121.5t34 -128.5t31.5 -118q28 -106 53 -235h4q7 34 28 129t28 129q73 364 90 489h285q-137 -593 -256 -903q-81 -208 -164.5 -318.5t-196.5 -179.5z" />
    <glyph glyph-name="z" unicode="z" horiz-adv-x="872" 
d="M817 0h-780v205l424 614h-412l21 213h737v-184l-438 -631h467z" />
    <glyph glyph-name="braceleft" unicode="{" horiz-adv-x="743" 
d="M641 -348h-172q-108 0 -187 70.5t-79 185.5v432q0 131 -107 131h-35v172h33q60 0 84.5 26.5t24.5 75.5v426q0 115 74.5 184.5t191.5 69.5h172v-159h-76q-54 0 -73 -23.5t-19 -77.5v-395q0 -49 -16 -87.5t-38.5 -59.5t-54 -35.5t-53.5 -19.5t-45 -7v-4q27 -2 46 -4.5
t52.5 -16t54.5 -34.5t37.5 -63t16.5 -99v-428q0 -54 20.5 -77t71.5 -23h76v-160z" />
    <glyph glyph-name="bar" unicode="|" horiz-adv-x="655" 
d="M451 -348h-246v1773h246v-1773z" />
    <glyph glyph-name="braceright" unicode="}" horiz-adv-x="743" 
d="M102 1425h172q108 0 187.5 -70.5t79.5 -185.5v-395q0 -131 106 -131h35v-172h-33q-60 0 -84 -26.5t-24 -75.5v-463q0 -115 -75 -184.5t-192 -69.5h-172v160h76q54 0 73 23t19 77v432q0 49 16 87.5t38.5 59.5t54 35.5t53.5 19.5t45 7v4q-27 2 -46 4.5t-52.5 16t-54.5 34.5
t-37.5 63t-16.5 99v391q0 54 -20.5 77.5t-71.5 23.5h-76v159z" />
    <glyph glyph-name="asciitilde" unicode="~" horiz-adv-x="1220" 
d="M1135 1286v-72q0 -192 -84 -291.5t-230 -99.5q-77 0 -137.5 29.5t-97 71.5t-66.5 83.5t-62 71t-67 29.5q-44 0 -65 -45t-21 -143v-60h-219v72q0 192 83.5 291.5t229.5 99.5q57 0 105.5 -15.5t82.5 -41t63 -56t51.5 -60.5t42.5 -55.5t41.5 -41t43.5 -15.5q44 0 65 45.5
t21 143.5v59h220z" />
    <glyph glyph-name="uni00A0" unicode="&#xa0;" horiz-adv-x="512" 
 />
    <glyph glyph-name="exclamdown" unicode="&#xa1;" horiz-adv-x="618" 
d="M199 743h186q92 -466 92 -944h-371q0 476 93 944zM141 1157h301v-303h-301v303z" />
    <glyph glyph-name="cent" unicode="&#xa2;" horiz-adv-x="1087" 
d="M659 0h-172v186q-206 14 -305.5 132.5t-99.5 361.5q0 228 101.5 362t303.5 160v156h172v-152q181 -15 263.5 -111t76.5 -272h-282q9 97 -28.5 139t-113.5 42q-180 0 -180 -289q0 -164 50.5 -233.5t158.5 -69.5q136 0 252 137l168 -170q-144 -157 -365 -186v-193z" />
    <glyph glyph-name="sterling" unicode="&#xa3;" horiz-adv-x="1155" 
d="M1040 0h-962v207q83 35 129.5 104t52.5 162h-182v199h129q-4 6 -24.5 39t-27 44t-21.5 41.5t-21 51t-11.5 51.5t-5.5 62q0 86 32 161t92.5 133.5t156.5 92.5t215 34q126 0 217.5 -37t144 -105.5t73.5 -160.5t11 -207h-323q8 127 -22.5 196t-119.5 69q-65 0 -108 -47.5
t-43 -110.5q0 -58 19.5 -107t64.5 -116t55 -84h316l-15 -199h-262q-18 -129 -111 -219h572z" />
    <glyph glyph-name="currency" unicode="&#xa4;" horiz-adv-x="1220" 
d="M981 135l-199 199q-33 -24 -90.5 -42t-109.5 -18q-41 0 -98.5 13.5t-86.5 38.5l-192 -193l-144 143l179 179q-45 88 -45 213q0 113 49 206l-176 177l159 161l185 -186q42 23 100 37t106 14q49 0 103 -13.5t90 -39.5l190 188l144 -141l-180 -178q41 -80 41 -205
q0 -117 -52 -207l187 -184zM600 465q176 0 176 219q0 203 -178 203q-73 0 -123.5 -55.5t-50.5 -153.5q0 -97 43.5 -155t132.5 -58z" />
    <glyph glyph-name="yen" unicode="&#xa5;" horiz-adv-x="1148" 
d="M1063 207h-348v-207h-307v207h-349v160h349v143h-349v160h297q-180 322 -338 688h357q92 -246 211 -494h6q102 192 235 494h301q-182 -392 -362 -688h297v-160h-348v-143h348v-160z" />
    <glyph glyph-name="brokenbar" unicode="&#xa6;" horiz-adv-x="608" 
d="M426 764h-244v661h244v-661zM426 -348h-244v661h244v-661z" />
    <glyph glyph-name="section" unicode="&#xa7;" horiz-adv-x="1218" 
d="M164 -14l274 28q0 -92 42 -134t136 -42q90 0 141.5 31.5t51.5 83.5q0 45 -21.5 77t-58.5 51t-84.5 33.5t-100 27.5t-104.5 29t-99.5 42.5t-84.5 63t-58.5 95.5t-21.5 136q0 162 125 258q-48 30 -80.5 95.5t-32.5 164.5q0 160 125 258t344 98q418 0 418 -311l-270 -29
q0 70 -38 102t-126 32q-76 0 -119 -30t-43 -75q0 -48 35.5 -80t92 -50t125 -35t136.5 -43t124.5 -64t92 -108t35.5 -167q0 -155 -123 -256q111 -93 111 -262q0 -166 -141.5 -270.5t-374.5 -104.5q-225 0 -326.5 84t-101.5 271zM526 670q-30 -20 -45.5 -53.5t-15.5 -65.5
q0 -28 13.5 -50.5t31 -36.5t53 -29t62 -22.5t76 -21.5t77.5 -22q45 42 45 104q0 34 -13.5 60.5t-35.5 45.5t-62.5 35.5t-81 28.5t-104.5 27z" />
    <glyph glyph-name="dieresis" unicode="&#xa8;" horiz-adv-x="790" 
d="M692 1165h-233v226h233v-226zM336 1165h-234v226h234v-226z" />
    <glyph glyph-name="copyright" unicode="&#xa9;" horiz-adv-x="1503" 
d="M768 -25q-197 0 -359 96t-254 261.5t-92 363.5t94 365.5t258 265.5t361 98t359 -96t254 -261t92 -363t-94 -365.5t-258 -266t-361 -98.5zM776 102q162 0 291.5 79.5t200.5 215t71 299.5t-73 301.5t-205 219t-293 81.5q-121 0 -226.5 -46.5t-179 -126t-115.5 -189
t-42 -231.5t43 -233t118 -192.5t182 -129.5t228 -48zM1012 582l139 -138q-147 -159 -389 -159q-196 0 -288.5 96t-92.5 309q0 208 104.5 319t307.5 111q182 0 262.5 -78t74.5 -235h-233q9 78 -21 111.5t-92 33.5q-145 0 -145 -235q0 -134 39.5 -190t128.5 -56q117 0 205 111
z" />
    <glyph glyph-name="ordfeminine" unicode="&#xaa;" horiz-adv-x="868" 
d="M768 731h-221l-8 96q-87 -108 -244 -108q-121 0 -182.5 48.5t-61.5 141.5q0 57 24 103t75.5 82t140 55.5t209.5 19.5h28v25q0 61 -31.5 82.5t-99.5 21.5q-114 0 -235 -59l-78 127q171 82 352 82q179 0 251.5 -57.5t72.5 -176.5v-309q0 -68 8 -174zM528 1034v21h-30
q-103 0 -155 -31.5t-52 -83.5q0 -41 26 -62.5t64 -21.5q147 0 147 178zM768 416h-688v192h688v-192z" />
    <glyph glyph-name="guillemotleft" unicode="&#xab;" horiz-adv-x="813" 
d="M700 246h-110l-184 338l184 346h110l-110 -346zM406 246h-109l-186 338l186 346h109l-109 -346z" />
    <glyph glyph-name="logicalnot" unicode="&#xac;" horiz-adv-x="1187" 
d="M1085 188h-254v367h-729v240h983v-607z" />
    <glyph glyph-name="registered" unicode="&#xae;" horiz-adv-x="1230" 
d="M614 457q-116 0 -220.5 44t-179.5 118t-119 177t-44 216q0 151 75.5 279t205 202t282.5 74q115 0 219.5 -43.5t180 -117.5t120 -177t44.5 -217q0 -149 -76 -277t-206 -203t-282 -75zM614 584q114 0 211 57.5t154 156t57 214.5q0 175 -124.5 302.5t-297.5 127.5
t-297 -125.5t-124 -302.5q0 -175 124 -302.5t297 -127.5zM856 729h-158l-108 223h-37v-223h-141v590h221q106 0 157.5 -42t51.5 -130q0 -59 -30.5 -102.5t-84.5 -67.5zM553 1057h57q42 0 65 21.5t23 60.5q0 40 -20 55.5t-66 15.5h-59v-153z" />
    <glyph glyph-name="macron" unicode="&#xaf;" horiz-adv-x="755" 
d="M653 1169h-551v191h551v-191z" />
    <glyph glyph-name="degree" unicode="&#xb0;" horiz-adv-x="813" 
d="M713 1112q0 -125 -91.5 -214t-218.5 -89q-128 0 -216.5 86t-88.5 213q0 125 91.5 214t218.5 89q128 0 216.5 -86t88.5 -213zM555 1108q0 63 -44.5 109.5t-107.5 46.5t-105 -44.5t-42 -107.5t44.5 -109.5t107.5 -46.5t105 44t42 108z" />
    <glyph glyph-name="plusminus" unicode="&#xb1;" horiz-adv-x="1187" 
d="M721 352h-254v367h-365v239h365v365h254v-365h364v-239h-364v-367zM1085 0h-983v240h983v-240z" />
    <glyph glyph-name="twosuperior" unicode="&#xb2;" horiz-adv-x="722" 
d="M631 633h-549v170q41 58 102.5 113.5t107.5 88.5t80 71t34 71q0 40 -16.5 55t-49.5 15q-36 0 -52.5 -20.5t-17.5 -72.5h-194q1 134 67 191t211 57q146 0 209.5 -59.5t63.5 -155.5q0 -55 -22.5 -100.5t-60 -77.5t-75.5 -57t-80 -53t-63 -52h329z" />
    <glyph glyph-name="threesuperior" unicode="&#xb3;" horiz-adv-x="768" 
d="M297 932h-31v149h29q82 0 111.5 24t29.5 69q0 67 -82 67q-31 0 -60 -24t-30 -62h-174q1 108 76 162.5t201 54.5q278 0 278 -182q0 -61 -32.5 -100.5t-116.5 -65.5v-2q96 -19 135 -59.5t39 -106.5q0 -238 -326 -238q-158 0 -209.5 49t-40.5 164h207q-13 -77 64 -77
q90 0 90 92q0 25 -6.5 41t-16 25.5t-32.5 13.5t-43 5t-60 1z" />
    <glyph glyph-name="acute" unicode="&#xb4;" horiz-adv-x="638" 
d="M281 1165h-179l160 279h275z" />
    <glyph glyph-name="mu" unicode="&#xb5;" horiz-adv-x="1146" 
d="M113 1032h297v-659q0 -92 29.5 -130t101.5 -38q47 0 101 16.5t95 44.5v766h297v-1032h-246l-18 121q-75 -69 -160 -105t-164 -36q-42 0 -77 6q15 -128 45 -334h-301v1380z" />
    <glyph glyph-name="mu" unicode="&#x3bc;" horiz-adv-x="1146" 
d="M113 1032h297v-659q0 -92 29.5 -130t101.5 -38q47 0 101 16.5t95 44.5v766h297v-1032h-246l-18 121q-75 -69 -160 -105t-164 -36q-42 0 -77 6q15 -128 45 -334h-301v1380z" />
    <glyph glyph-name="paragraph" unicode="&#xb6;" horiz-adv-x="1193" 
d="M1061 -348h-215v1546h-156v-1546h-215v825q-416 50 -416 449q0 188 123 310t334 122h545v-1706z" />
    <glyph glyph-name="periodcentered" unicode="&#xb7;" horiz-adv-x="561" 
d="M438 520h-315v328h315v-328z" />
    <glyph glyph-name="cedilla" unicode="&#xb8;" horiz-adv-x="532" 
d="M102 -365v121q57 -6 88 5.5t31 35.5q0 21 -14.5 43t-54.5 56l108 145l168 43l-90 -121q127 -74 127 -156q0 -89 -98.5 -139t-264.5 -33z" />
    <glyph glyph-name="onesuperior" unicode="&#xb9;" horiz-adv-x="602" 
d="M539 633h-471v158h137v389l-107 -35l-43 133l248 88h105v-575h131v-158z" />
    <glyph glyph-name="ordmasculine" unicode="&#xba;" horiz-adv-x="860" 
d="M410 717q-184 0 -269.5 83.5t-85.5 266.5q0 381 381 381q185 0 272 -83.5t87 -264.5q0 -190 -97 -286.5t-288 -96.5zM428 854q67 0 97 48t30 159q0 141 -29.5 195.5t-97.5 54.5q-72 0 -103.5 -48t-31.5 -163q0 -138 31 -192t104 -54zM776 416h-688v192h688v-192z" />
    <glyph glyph-name="guillemotright" unicode="&#xbb;" horiz-adv-x="813" 
d="M516 246h-110l110 338l-110 346h110l184 -346zM221 246h-110l110 338l-110 346h110l185 -346z" />
    <glyph glyph-name="onequarter" unicode="&#xbc;" horiz-adv-x="1478" 
d="M440 0h-192l749 1358h189zM1305 0h-209v158h-314v135l250 432h273v-412h98v-155h-98v-158zM1096 317v226h-2l-123 -226h125zM539 633h-471v158h137v389l-107 -35l-43 133l248 88h105v-575h131v-158z" />
    <glyph glyph-name="onehalf" unicode="&#xbd;" horiz-adv-x="1501" 
d="M440 0h-192l749 1358h189zM539 633h-471v158h137v389l-107 -35l-43 133l248 88h105v-575h131v-158zM1409 0h-549v170q41 58 102.5 113.5t107.5 88.5t80 71t34 71q0 40 -16.5 55t-49.5 15q-36 0 -52 -20t-17 -72h-195q0 132 67 189.5t212 57.5q146 0 209 -59.5t63 -155.5
q0 -55 -22.5 -100.5t-60 -77.5t-75.5 -57t-80 -53t-63 -52h330z" />
    <glyph glyph-name="threequarters" unicode="&#xbe;" horiz-adv-x="1570" 
d="M297 932h-31v149h29q82 0 111.5 24t29.5 69q0 67 -82 67q-31 0 -60 -24t-30 -62h-174q1 108 76 162.5t201 54.5q278 0 278 -182q0 -61 -32.5 -100.5t-116.5 -65.5v-2q96 -19 135 -59.5t39 -106.5q0 -238 -326 -238q-158 0 -209.5 49t-40.5 164h207q-13 -77 64 -77
q90 0 90 92q0 25 -6.5 41t-16 25.5t-32.5 13.5t-43 5t-60 1zM532 0h-192l750 1358h188zM1397 0h-209v158h-314v135l250 432h273v-412h98v-155h-98v-158zM1188 317v226h-2l-123 -226h125z" />
    <glyph glyph-name="questiondown" unicode="&#xbf;" horiz-adv-x="1048" 
d="M422 741h248q0 -74 -15 -134t-39 -99t-53 -71t-57.5 -59.5t-52.5 -55.5t-39 -67t-15 -87q0 -72 38.5 -115t107.5 -43q40 0 70 17.5t50 52t32 69t24 84.5l237 -98q-47 -181 -151.5 -271.5t-300.5 -90.5q-197 0 -308.5 103t-111.5 271q0 73 18.5 132.5t48 99.5t65.5 74
t72 64t65.5 60.5t48 72t18.5 91.5zM395 1155h301v-303h-301v303z" />
    <glyph glyph-name="Agrave" unicode="&#xc0;" horiz-adv-x="1224" 
d="M1219 0h-349q-28 133 -63 268h-451q-39 -146 -65 -268h-285q173 673 416 1358h379q224 -630 418 -1358zM420 508h321q-35 139 -106 381q-29 104 -53 201h-4q-17 -73 -52 -203q-91 -322 -106 -379zM696 1456h-182l-252 213h279z" />
    <glyph glyph-name="Aacute" unicode="&#xc1;" horiz-adv-x="1224" 
d="M1219 0h-349q-28 133 -63 268h-451q-39 -146 -65 -268h-285q173 673 416 1358h379q224 -630 418 -1358zM420 508h321q-35 139 -106 381q-29 104 -53 201h-4q-17 -73 -52 -203q-91 -322 -106 -379zM696 1456h-182l156 213h278z" />
    <glyph glyph-name="Acircumflex" unicode="&#xc2;" horiz-adv-x="1224" 
d="M1219 0h-349q-28 133 -63 268h-451q-39 -146 -65 -268h-285q173 673 416 1358h379q224 -630 418 -1358zM420 508h321q-35 139 -106 381q-29 104 -53 201h-4q-17 -73 -52 -203q-91 -322 -106 -379zM944 1456h-223l-113 121l-108 -121h-224l234 223h201z" />
    <glyph glyph-name="Atilde" unicode="&#xc3;" horiz-adv-x="1224" 
d="M1219 0h-349q-28 133 -63 268h-451q-39 -146 -65 -268h-285q173 673 416 1358h379q224 -630 418 -1358zM420 508h321q-35 139 -106 381q-29 104 -53 201h-4q-17 -73 -52 -203q-91 -322 -106 -379zM887 1716l104 -88q-38 -80 -104 -126t-152 -46q-55 0 -137 41t-123 41
q-77 0 -135 -92l-104 88q38 78 104 125t145 47q53 0 137 -41t130 -41q69 0 135 92z" />
    <glyph glyph-name="Adieresis" unicode="&#xc4;" horiz-adv-x="1224" 
d="M1219 0h-349q-28 133 -63 268h-451q-39 -146 -65 -268h-285q173 673 416 1358h379q224 -630 418 -1358zM420 508h321q-35 139 -106 381q-29 104 -53 201h-4q-17 -73 -52 -203q-91 -322 -106 -379zM901 1475h-221v213h221v-213zM537 1475h-222v213h222v-213z" />
    <glyph glyph-name="Aring" unicode="&#xc5;" horiz-adv-x="1224" 
d="M836 1649q0 -100 -62.5 -152.5t-179.5 -52.5q-113 0 -169 46t-56 142q0 100 62 152.5t179 52.5q226 0 226 -188zM604 1559q72 0 72 81q0 82 -76 82q-72 0 -72 -82q0 -81 76 -81zM1219 0h-349q-28 133 -63 268h-451q-39 -146 -65 -268h-285q173 673 416 1358h379
q224 -630 418 -1358zM420 508h321q-35 139 -106 381q-29 104 -53 201h-4q-17 -73 -52 -203q-91 -322 -106 -379z" />
    <glyph glyph-name="AE" unicode="&#xc6;" horiz-adv-x="1675" 
d="M1622 0h-856v268h-363q-70 -181 -100 -268h-307q257 664 594 1358h1046l-28 -254h-537v-289h438v-246h-438v-315h551v-254zM766 508v596h-16q-179 -414 -250 -596h266z" />
    <glyph glyph-name="Ccedilla" unicode="&#xc7;" horiz-adv-x="1220" 
d="M842 463h323q-14 -194 -139 -326.5t-332 -156.5l-12 -17q64 -39 91.5 -76t27.5 -80q0 -97 -101 -145t-254 -22v116q121 -9 121 47q0 42 -71 93l61 81q-237 19 -365.5 191.5t-128.5 466.5q0 168 36 304t107.5 235.5t184 153.5t258.5 54q256 0 383.5 -134.5t108.5 -358.5
l-318 -35q12 274 -192 274q-122 0 -181 -119.5t-59 -334.5q0 -231 59.5 -338t180.5 -107q96 0 148.5 66.5t62.5 167.5z" />
    <glyph glyph-name="Egrave" unicode="&#xc8;" horiz-adv-x="1032" 
d="M979 0h-856v1358h870l-28 -254h-531v-285h432v-246h-432v-319h545v-254zM682 1456h-182l-252 213h278z" />
    <glyph glyph-name="Eacute" unicode="&#xc9;" horiz-adv-x="1032" 
d="M979 0h-856v1358h870l-28 -254h-531v-285h432v-246h-432v-319h545v-254zM631 1456h-182l155 213h279z" />
    <glyph glyph-name="Ecircumflex" unicode="&#xca;" horiz-adv-x="1032" 
d="M979 0h-856v1358h870l-28 -254h-531v-285h432v-246h-432v-319h545v-254zM893 1456h-223l-113 121l-108 -121h-224l234 223h200z" />
    <glyph glyph-name="Edieresis" unicode="&#xcb;" horiz-adv-x="1032" 
d="M979 0h-856v1358h870l-28 -254h-531v-285h432v-246h-432v-319h545v-254zM850 1475h-221v213h221v-213zM485 1475h-221v213h221v-213z" />
    <glyph glyph-name="Igrave" unicode="&#xcc;" horiz-adv-x="557" 
d="M434 0h-311v1358h311v-1358zM381 1456h-182l-252 213h278z" />
    <glyph glyph-name="Iacute" unicode="&#xcd;" horiz-adv-x="557" 
d="M434 0h-311v1358h311v-1358zM358 1456h-182l156 213h278z" />
    <glyph glyph-name="Icircumflex" unicode="&#xce;" horiz-adv-x="557" 
d="M434 0h-311v1358h311v-1358zM606 1456h-223l-113 121l-108 -121h-223l233 223h201z" />
    <glyph glyph-name="Idieresis" unicode="&#xcf;" horiz-adv-x="557" 
d="M434 0h-311v1358h311v-1358zM569 1475h-221v213h221v-213zM205 1475h-221v213h221v-213z" />
    <glyph glyph-name="Eth" unicode="&#xd0;" horiz-adv-x="1247" 
d="M504 0h-357v569h-122v254h122v535q70 0 207 1t203 1q633 0 633 -633q0 -166 -40 -298t-122 -228.5t-214.5 -148.5t-309.5 -52zM459 254h73q170 0 252 109.5t82 332.5q0 203 -76.5 306.5t-257.5 103.5h-73v-283h147v-254h-147v-315z" />
    <glyph glyph-name="Ntilde" unicode="&#xd1;" horiz-adv-x="1312" 
d="M1190 0h-338l-348 717q-74 151 -139 346h-5q19 -230 19 -385v-678h-256v1358h407l248 -514q101 -206 168 -412h4q-16 226 -16 445v481h256v-1358zM944 1716l105 -88q-38 -80 -104 -126t-152 -46q-55 0 -138 41t-123 41q-77 0 -135 -92l-104 88q38 77 104 124.5t146 47.5
q53 0 136.5 -41t129.5 -41q69 0 135 92z" />
    <glyph glyph-name="Ograve" unicode="&#xd2;" horiz-adv-x="1298" 
d="M637 -25q-576 0 -576 668q0 160 36.5 292.5t108.5 233.5t188.5 157t267.5 56q575 0 575 -667q0 -98 -14 -187.5t-43.5 -173.5t-78 -152t-113 -119.5t-154.5 -79.5t-197 -28zM649 229q133 0 198.5 116.5t65.5 332.5q0 229 -63 339.5t-201 110.5q-134 0 -199 -116t-65 -332
q0 -229 63 -340t201 -111zM766 1470h-182l-252 213h278z" />
    <glyph glyph-name="Oacute" unicode="&#xd3;" horiz-adv-x="1298" 
d="M637 -25q-576 0 -576 668q0 160 36.5 292.5t108.5 233.5t188.5 157t267.5 56q575 0 575 -667q0 -98 -14 -187.5t-43.5 -173.5t-78 -152t-113 -119.5t-154.5 -79.5t-197 -28zM649 229q133 0 198.5 116.5t65.5 332.5q0 229 -63 339.5t-201 110.5q-134 0 -199 -116t-65 -332
q0 -229 63 -340t201 -111zM733 1470h-182l156 213h278z" />
    <glyph glyph-name="Ocircumflex" unicode="&#xd4;" horiz-adv-x="1298" 
d="M637 -25q-576 0 -576 668q0 160 36.5 292.5t108.5 233.5t188.5 157t267.5 56q575 0 575 -667q0 -98 -14 -187.5t-43.5 -173.5t-78 -152t-113 -119.5t-154.5 -79.5t-197 -28zM649 229q133 0 198.5 116.5t65.5 332.5q0 229 -63 339.5t-201 110.5q-134 0 -199 -116t-65 -332
q0 -229 63 -340t201 -111zM987 1470h-223l-113 121l-108 -121h-224l234 224h201z" />
    <glyph glyph-name="Otilde" unicode="&#xd5;" horiz-adv-x="1298" 
d="M637 -25q-576 0 -576 668q0 160 36.5 292.5t108.5 233.5t188.5 157t267.5 56q575 0 575 -667q0 -98 -14 -187.5t-43.5 -173.5t-78 -152t-113 -119.5t-154.5 -79.5t-197 -28zM649 229q133 0 198.5 116.5t65.5 332.5q0 229 -63 339.5t-201 110.5q-134 0 -199 -116t-65 -332
q0 -229 63 -340t201 -111zM942 1731l105 -89q-38 -80 -104 -126t-152 -46q-55 0 -138 41t-123 41q-77 0 -135 -92l-104 88q38 77 104 124.5t146 47.5q53 0 136.5 -41t129.5 -41q68 0 135 93z" />
    <glyph glyph-name="Odieresis" unicode="&#xd6;" horiz-adv-x="1298" 
d="M637 -25q-576 0 -576 668q0 160 36.5 292.5t108.5 233.5t188.5 157t267.5 56q575 0 575 -667q0 -98 -14 -187.5t-43.5 -173.5t-78 -152t-113 -119.5t-154.5 -79.5t-197 -28zM649 229q133 0 198.5 116.5t65.5 332.5q0 229 -63 339.5t-201 110.5q-134 0 -199 -116t-65 -332
q0 -229 63 -340t201 -111zM954 1489h-221v213h221v-213zM590 1489h-221v213h221v-213z" />
    <glyph glyph-name="multiply" unicode="&#xd7;" horiz-adv-x="1187" 
d="M1073 350l-160 -160l-327 328l-330 -328l-141 142l327 327l-327 328l159 160l328 -326l328 328l143 -143l-328 -328z" />
    <glyph glyph-name="Oslash" unicode="&#xd8;" horiz-adv-x="1298" 
d="M115 -117l125 223q-179 165 -179 537q0 160 36.5 292.5t108.5 233.5t188.5 157t267.5 56q145 0 260 -45l118 215l144 -79l-125 -224q178 -166 178 -534q0 -98 -14 -187.5t-43.5 -173.5t-78 -152t-113 -119.5t-154.5 -79.5t-197 -28q-150 0 -260 43l-119 -215zM401 393
l390 703q-56 39 -142 39q-138 0 -205 -118t-67 -337q0 -60 12 -159t12 -128zM897 965l-389 -703q56 -39 141 -39q138 0 205.5 118t67.5 337q0 60 -12.5 159t-12.5 128z" />
    <glyph glyph-name="Ugrave" unicode="&#xd9;" horiz-adv-x="1286" 
d="M1167 1358v-828q0 -277 -132.5 -416t-393.5 -139q-268 0 -395 131t-127 408v844h311v-811q0 -174 52 -246t167 -72t171.5 67t56.5 234v828h290zM788 1456h-182l-252 213h279z" />
    <glyph glyph-name="Uacute" unicode="&#xda;" horiz-adv-x="1286" 
d="M1167 1358v-828q0 -277 -132.5 -416t-393.5 -139q-268 0 -395 131t-127 408v844h311v-811q0 -174 52 -246t167 -72t171.5 67t56.5 234v828h290zM748 1456h-183l156 213h278z" />
    <glyph glyph-name="Ucircumflex" unicode="&#xdb;" horiz-adv-x="1286" 
d="M1167 1358v-828q0 -277 -132.5 -416t-393.5 -139q-268 0 -395 131t-127 408v844h311v-811q0 -174 52 -246t167 -72t171.5 67t56.5 234v828h290zM989 1456h-223l-113 121l-108 -121h-223l233 223h201z" />
    <glyph glyph-name="Udieresis" unicode="&#xdc;" horiz-adv-x="1286" 
d="M1167 1358v-828q0 -277 -132.5 -416t-393.5 -139q-268 0 -395 131t-127 408v844h311v-811q0 -174 52 -246t167 -72t171.5 67t56.5 234v828h290zM956 1475h-221v213h221v-213zM592 1475h-221v213h221v-213z" />
    <glyph glyph-name="Yacute" unicode="&#xdd;" horiz-adv-x="1069" 
d="M678 0h-311v573q-226 411 -387 785h356q92 -246 211 -494h6q102 192 235 494h302q-181 -391 -412 -776v-582zM641 1456h-182l155 213h279z" />
    <glyph glyph-name="Thorn" unicode="&#xde;" horiz-adv-x="1091" 
d="M434 0h-311v1358h311v-184h133q246 0 365 -105.5t119 -331.5q0 -216 -151.5 -349.5t-428.5 -133.5h-37v-254zM434 500h72q115 0 167 55t52 162q0 106 -46.5 158.5t-146.5 52.5h-98v-428z" />
    <glyph glyph-name="germandbls" unicode="&#xdf;" horiz-adv-x="1239" 
d="M520 14l51 224q69 -37 166 -37q62 0 97.5 27.5t35.5 72.5q0 35 -19 62.5t-50 47.5t-68 39.5t-74 43.5t-68 54t-50 78t-19 109q0 58 25 102.5t60.5 72.5t71 53.5t60.5 59t25 75.5q0 67 -44.5 107t-123.5 40q-93 0 -145 -64t-52 -159v-1022h-297v1001q0 113 41 200
t114 139.5t165.5 79t202.5 26.5q205 0 321.5 -83t116.5 -222q0 -57 -23.5 -104t-56.5 -76.5t-66.5 -54.5t-57 -51t-23.5 -54q0 -31 26 -60t65 -51.5t85 -54.5t85 -66t65 -90t26 -123q0 -77 -27 -143t-81 -118t-143 -81.5t-204 -29.5t-213 30z" />
    <glyph glyph-name="agrave" unicode="&#xe0;" horiz-adv-x="1081" 
d="M979 0h-250l-18 115q-82 -70 -159 -105t-175 -35q-175 0 -257.5 85t-82.5 219q0 66 19 120t62.5 100t112 77.5t171 49t235.5 17.5h35v37q0 84 -41.5 121t-132.5 37q-69 0 -158 -27.5t-166 -67.5l-92 191q244 123 467 123q228 0 324 -81.5t96 -266.5v-455q0 -64 10 -254z
M672 274v185h-51q-273 0 -273 -144q0 -61 35 -93t90 -32q54 0 100 20.5t99 63.5zM676 1174h-178l-256 278h274z" />
    <glyph glyph-name="aacute" unicode="&#xe1;" horiz-adv-x="1081" 
d="M979 0h-250l-18 115q-82 -70 -159 -105t-175 -35q-175 0 -257.5 85t-82.5 219q0 66 19 120t62.5 100t112 77.5t171 49t235.5 17.5h35v37q0 84 -41.5 121t-132.5 37q-69 0 -158 -27.5t-166 -67.5l-92 191q244 123 467 123q228 0 324 -81.5t96 -266.5v-455q0 -64 10 -254z
M672 274v185h-51q-273 0 -273 -144q0 -61 35 -93t90 -32q54 0 100 20.5t99 63.5zM649 1174h-178l160 278h274z" />
    <glyph glyph-name="acircumflex" unicode="&#xe2;" horiz-adv-x="1081" 
d="M979 0h-250l-18 115q-82 -70 -159 -105t-175 -35q-175 0 -257.5 85t-82.5 219q0 66 19 120t62.5 100t112 77.5t171 49t235.5 17.5h35v37q0 84 -41.5 121t-132.5 37q-69 0 -158 -27.5t-166 -67.5l-92 191q244 123 467 123q228 0 324 -81.5t96 -266.5v-455q0 -64 10 -254z
M672 274v185h-51q-273 0 -273 -144q0 -61 35 -93t90 -32q54 0 100 20.5t99 63.5zM872 1174h-223l-112 155l-109 -155h-223l233 270h201z" />
    <glyph glyph-name="atilde" unicode="&#xe3;" horiz-adv-x="1081" 
d="M979 0h-250l-18 115q-82 -70 -159 -105t-175 -35q-175 0 -257.5 85t-82.5 219q0 66 19 120t62.5 100t112 77.5t171 49t235.5 17.5h35v37q0 84 -41.5 121t-132.5 37q-69 0 -158 -27.5t-166 -67.5l-92 191q244 123 467 123q228 0 324 -81.5t96 -266.5v-455q0 -64 10 -254z
M672 274v185h-51q-273 0 -273 -144q0 -61 35 -93t90 -32q54 0 100 20.5t99 63.5zM768 1434l104 -88q-35 -77 -95 -124.5t-130 -47.5q-37 0 -74.5 12.5t-62.5 28t-54.5 28t-52.5 12.5q-34 0 -60 -22.5t-54 -69.5l-105 88q35 77 95.5 124.5t130.5 47.5q46 0 92 -20.5t84.5 -41
t66.5 -20.5q34 0 60.5 23t54.5 70z" />
    <glyph glyph-name="adieresis" unicode="&#xe4;" horiz-adv-x="1081" 
d="M979 0h-250l-18 115q-82 -70 -159 -105t-175 -35q-175 0 -257.5 85t-82.5 219q0 66 19 120t62.5 100t112 77.5t171 49t235.5 17.5h35v37q0 84 -41.5 121t-132.5 37q-69 0 -158 -27.5t-166 -67.5l-92 191q244 123 467 123q228 0 324 -81.5t96 -266.5v-455q0 -64 10 -254z
M672 274v185h-51q-273 0 -273 -144q0 -61 35 -93t90 -32q54 0 100 20.5t99 63.5zM846 1174h-234v225h234v-225zM489 1174h-233v225h233v-225z" />
    <glyph glyph-name="aring" unicode="&#xe5;" horiz-adv-x="1081" 
d="M979 0h-250l-18 115q-82 -70 -159 -105t-175 -35q-175 0 -257.5 85t-82.5 219q0 66 19 120t62.5 100t112 77.5t171 49t235.5 17.5h35v37q0 84 -41.5 121t-132.5 37q-69 0 -158 -27.5t-166 -67.5l-92 191q244 123 467 123q228 0 324 -81.5t96 -266.5v-455q0 -64 10 -254z
M672 274v185h-51q-273 0 -273 -144q0 -61 35 -93t90 -32q54 0 100 20.5t99 63.5zM774 1370q0 -102 -62.5 -155.5t-179.5 -53.5q-113 0 -169 47t-56 146q0 102 62.5 155.5t179.5 53.5q113 0 169 -47t56 -146zM543 1276q38 0 54.5 21t16.5 65q0 86 -75 86q-72 0 -72 -86
t76 -86z" />
    <glyph glyph-name="ae" unicode="&#xe6;" horiz-adv-x="1712" 
d="M1520 305l118 -190q-222 -140 -503 -140q-294 0 -392 181q-161 -181 -366 -181q-175 0 -257.5 85t-82.5 219q0 66 19 120t62.5 100t112 77.5t171 49t235.5 17.5h35v37q0 84 -41.5 121t-132.5 37q-69 0 -158 -27.5t-166 -67.5l-92 191q244 123 467 123q239 0 317 -96
q64 52 139 74t177 22q234 0 346.5 -143t99.5 -455h-659q-3 -127 57 -191.5t176 -64.5q83 0 170.5 28t147.5 74zM672 424v35h-51q-273 0 -273 -144q0 -61 35 -93t90 -32q38 0 70 9.5t62.5 33.5t48.5 72.5t18 118.5zM969 643h364q0 96 -43 153.5t-133 57.5q-79 0 -130.5 -58.5
t-57.5 -152.5z" />
    <glyph glyph-name="ccedilla" unicode="&#xe7;" horiz-adv-x="1038" 
d="M387 -365v121q57 -6 88 5.5t31 35.5q0 21 -15 43t-55 56l60 79q-222 8 -328.5 135t-106.5 390q0 267 128.5 412t383.5 145q219 0 319.5 -100t94.5 -300h-295q10 99 -27.5 146t-109.5 47q-84 0 -130 -82t-46 -233q0 -332 207 -332q67 0 125 37t120 112l170 -164
q-83 -94 -168 -142.5t-196 -63.5l-14 -19q127 -74 127 -156q0 -89 -98.5 -139t-264.5 -33z" />
    <glyph glyph-name="egrave" unicode="&#xe8;" horiz-adv-x="1114" 
d="M928 305l119 -190q-222 -140 -504 -140q-243 0 -362.5 125t-119.5 389q0 270 131 419t398 149q235 0 349 -146.5t97 -468.5h-659q0 -116 59 -177.5t174 -61.5q83 0 170.5 28t147.5 74zM377 627h364q3 106 -40.5 166.5t-135.5 60.5q-81 0 -133 -61.5t-55 -165.5zM694 1174
h-178l-256 278h275z" />
    <glyph glyph-name="eacute" unicode="&#xe9;" horiz-adv-x="1114" 
d="M928 305l119 -190q-222 -140 -504 -140q-243 0 -362.5 125t-119.5 389q0 270 131 419t398 149q235 0 349 -146.5t97 -468.5h-659q0 -116 59 -177.5t174 -61.5q83 0 170.5 28t147.5 74zM377 627h364q3 106 -40.5 166.5t-135.5 60.5q-81 0 -133 -61.5t-55 -165.5zM633 1174
h-178l159 278h275z" />
    <glyph glyph-name="ecircumflex" unicode="&#xea;" horiz-adv-x="1114" 
d="M928 305l119 -190q-222 -140 -504 -140q-243 0 -362.5 125t-119.5 389q0 270 131 419t398 149q235 0 349 -146.5t97 -468.5h-659q0 -116 59 -177.5t174 -61.5q83 0 170.5 28t147.5 74zM377 627h364q3 106 -40.5 166.5t-135.5 60.5q-81 0 -133 -61.5t-55 -165.5zM913 1174
h-223l-112 155l-109 -155h-223l233 270h201z" />
    <glyph glyph-name="edieresis" unicode="&#xeb;" horiz-adv-x="1114" 
d="M928 305l119 -190q-222 -140 -504 -140q-243 0 -362.5 125t-119.5 389q0 270 131 419t398 149q235 0 349 -146.5t97 -468.5h-659q0 -116 59 -177.5t174 -61.5q83 0 170.5 28t147.5 74zM377 627h364q3 106 -40.5 166.5t-135.5 60.5q-81 0 -133 -61.5t-55 -165.5zM870 1174
h-233v225h233v-225zM514 1174h-233v225h233v-225z" />
    <glyph glyph-name="igrave" unicode="&#xec;" horiz-adv-x="522" 
d="M410 0h-297v1032h297v-1032zM360 1165h-178l-256 279h275z" />
    <glyph glyph-name="iacute" unicode="&#xed;" horiz-adv-x="522" 
d="M410 0h-297v1032h297v-1032zM354 1165h-178l160 279h274z" />
    <glyph glyph-name="icircumflex" unicode="&#xee;" horiz-adv-x="522" 
d="M410 0h-297v1032h297v-1032zM596 1165h-223l-113 156l-108 -156h-224l234 271h200z" />
    <glyph glyph-name="idieresis" unicode="&#xef;" horiz-adv-x="522" 
d="M410 0h-297v1032h297v-1032zM528 1165h-221v226h221v-226zM213 1165h-221v226h221v-226z" />
    <glyph glyph-name="eth" unicode="&#xf0;" horiz-adv-x="1112" 
d="M838 1315l-113 -53q326 -281 326 -697q0 -585 -516 -585q-245 0 -359.5 122.5t-114.5 391.5q0 280 122 411t356 131q21 0 41 -4q-46 56 -107 109l-137 -66l-154 99l148 71q-46 31 -142 80l263 121q90 -52 133 -80l98 47zM559 180q90 0 130 70t40 233q0 206 -39 286.5
t-131 80.5q-96 0 -138 -71t-42 -238q0 -138 19 -217t57.5 -111.5t103.5 -32.5z" />
    <glyph glyph-name="ntilde" unicode="&#xf1;" horiz-adv-x="1144" 
d="M1034 0h-297v659q0 92 -29.5 130t-101.5 38q-49 0 -104 -17.5t-92 -43.5v-766h-297v1032h245l17 -112q83 61 180.5 97t185.5 36q161 0 227 -71t66 -243v-739zM813 1425l105 -88q-35 -77 -95.5 -124.5t-130.5 -47.5q-46 0 -92 20.5t-84.5 41t-66.5 20.5q-34 0 -60.5 -22.5
t-54.5 -69.5l-105 88q35 77 95.5 124.5t130.5 47.5q46 0 92 -20.5t84.5 -41t66.5 -20.5q34 0 60.5 22.5t54.5 69.5z" />
    <glyph glyph-name="ograve" unicode="&#xf2;" horiz-adv-x="1153" 
d="M559 -25q-256 0 -377 125.5t-121 393.5q0 278 135 420.5t398 142.5q256 0 377 -125t121 -393q0 -278 -135 -421t-398 -143zM578 176q99 0 146.5 71t47.5 245q0 142 -23 223t-64 111t-110 30q-99 0 -146.5 -70.5t-47.5 -244.5q0 -142 23 -223t64 -111.5t110 -30.5z
M711 1174h-179l-256 278h275z" />
    <glyph glyph-name="oacute" unicode="&#xf3;" horiz-adv-x="1153" 
d="M559 -25q-256 0 -377 125.5t-121 393.5q0 278 135 420.5t398 142.5q256 0 377 -125t121 -393q0 -278 -135 -421t-398 -143zM578 176q99 0 146.5 71t47.5 245q0 142 -23 223t-64 111t-110 30q-99 0 -146.5 -70.5t-47.5 -244.5q0 -142 23 -223t64 -111.5t110 -30.5z
M637 1174h-178l159 278h275z" />
    <glyph glyph-name="ocircumflex" unicode="&#xf4;" horiz-adv-x="1153" 
d="M559 -25q-256 0 -377 125.5t-121 393.5q0 278 135 420.5t398 142.5q256 0 377 -125t121 -393q0 -278 -135 -421t-398 -143zM578 176q99 0 146.5 71t47.5 245q0 142 -23 223t-64 111t-110 30q-99 0 -146.5 -70.5t-47.5 -244.5q0 -142 23 -223t64 -111.5t110 -30.5z
M922 1174h-224l-112 155l-109 -155h-223l233 270h201z" />
    <glyph glyph-name="otilde" unicode="&#xf5;" horiz-adv-x="1153" 
d="M559 -25q-256 0 -377 125.5t-121 393.5q0 278 135 420.5t398 142.5q256 0 377 -125t121 -393q0 -278 -135 -421t-398 -143zM578 176q99 0 146.5 71t47.5 245q0 142 -23 223t-64 111t-110 30q-99 0 -146.5 -70.5t-47.5 -244.5q0 -142 23 -223t64 -111.5t110 -30.5z
M809 1434l104 -88q-35 -77 -95 -124.5t-130 -47.5q-37 0 -74.5 12.5t-62.5 28t-54.5 28t-52.5 12.5q-34 0 -60 -22.5t-54 -69.5l-105 88q35 77 95.5 124.5t130.5 47.5q46 0 92 -20.5t84.5 -41t66.5 -20.5q34 0 60.5 23t54.5 70z" />
    <glyph glyph-name="odieresis" unicode="&#xf6;" horiz-adv-x="1153" 
d="M559 -25q-256 0 -377 125.5t-121 393.5q0 278 135 420.5t398 142.5q256 0 377 -125t121 -393q0 -278 -135 -421t-398 -143zM578 176q99 0 146.5 71t47.5 245q0 142 -23 223t-64 111t-110 30q-99 0 -146.5 -70.5t-47.5 -244.5q0 -142 23 -223t64 -111.5t110 -30.5z
M879 1174h-234v225h234v-225zM522 1174h-233v225h233v-225z" />
    <glyph glyph-name="divide" unicode="&#xf7;" horiz-adv-x="1187" 
d="M1085 555h-983v240h983v-240zM737 137h-286v283h286v-283zM737 930h-286v282h286v-282z" />
    <glyph glyph-name="oslash" unicode="&#xf8;" horiz-adv-x="1153" 
d="M225 -154l-106 68l98 154q-156 124 -156 426q0 278 135 420.5t398 142.5q133 0 229 -35l109 170l108 -66l-104 -163q156 -126 156 -424q0 -278 -135 -421t-398 -143q-122 0 -231 33zM387 338l309 483q-42 39 -121 39q-101 0 -149.5 -72t-48.5 -247q0 -118 10 -203z
M578 172q101 0 149.5 72.5t48.5 247.5q0 118 -12 200l-307 -481q42 -39 121 -39z" />
    <glyph glyph-name="ugrave" unicode="&#xf9;" horiz-adv-x="1144" 
d="M111 1032h297v-659q0 -92 29.5 -130t101.5 -38q49 0 104 17.5t92 43.5v766h297v-1032h-246l-16 113q-83 -61 -181 -97t-186 -36q-161 0 -226.5 70.5t-65.5 242.5v739zM668 1165h-179l-256 279h275z" />
    <glyph glyph-name="uacute" unicode="&#xfa;" horiz-adv-x="1144" 
d="M111 1032h297v-659q0 -92 29.5 -130t101.5 -38q49 0 104 17.5t92 43.5v766h297v-1032h-246l-16 113q-83 -61 -181 -97t-186 -36q-161 0 -226.5 70.5t-65.5 242.5v739zM655 1165h-178l160 279h274z" />
    <glyph glyph-name="ucircumflex" unicode="&#xfb;" horiz-adv-x="1144" 
d="M111 1032h297v-659q0 -92 29.5 -130t101.5 -38q49 0 104 17.5t92 43.5v766h297v-1032h-246l-16 113q-83 -61 -181 -97t-186 -36q-161 0 -226.5 70.5t-65.5 242.5v739zM920 1165h-224l-112 156l-109 -156h-223l233 271h201z" />
    <glyph glyph-name="udieresis" unicode="&#xfc;" horiz-adv-x="1144" 
d="M111 1032h297v-659q0 -92 29.5 -130t101.5 -38q49 0 104 17.5t92 43.5v766h297v-1032h-246l-16 113q-83 -61 -181 -97t-186 -36q-161 0 -226.5 70.5t-65.5 242.5v739zM883 1165h-234v226h234v-226zM526 1165h-233v226h233v-226z" />
    <glyph glyph-name="yacute" unicode="&#xfd;" horiz-adv-x="985" 
d="M344 -369l-182 140q160 105 160 282q0 47 -50 190t-126 368.5t-121 420.5h319q15 -70 33 -144t30.5 -121.5t34 -128.5t31.5 -118q28 -106 53 -235h4q7 34 28 129t28 129q73 364 90 489h285q-137 -593 -256 -903q-81 -208 -164.5 -318.5t-196.5 -179.5zM565 1165h-178
l160 279h274z" />
    <glyph glyph-name="thorn" unicode="&#xfe;" horiz-adv-x="1132" 
d="M113 -348v1773h297v-450q127 78 288 78q184 0 278.5 -121.5t94.5 -360.5q0 -289 -147 -442.5t-418 -153.5q-51 0 -96 9v-332h-297zM410 784v-594q45 -20 104 -20q110 0 177 90.5t67 253.5q0 180 -43 254t-129 74q-90 0 -176 -58z" />
    <glyph glyph-name="ydieresis" unicode="&#xff;" horiz-adv-x="985" 
d="M344 -369l-182 140q160 105 160 282q0 47 -50 190t-126 368.5t-121 420.5h319q15 -70 33 -144t30.5 -121.5t34 -128.5t31.5 -118q28 -106 53 -235h4q7 34 28 129t28 129q73 364 90 489h285q-137 -593 -256 -903q-81 -208 -164.5 -318.5t-196.5 -179.5zM803 1165h-234v226
h234v-226zM446 1165h-233v226h233v-226z" />
    <glyph glyph-name="Amacron" unicode="&#x100;" horiz-adv-x="1224" 
d="M1219 0h-349q-28 133 -63 268h-451q-39 -146 -65 -268h-285q173 673 416 1358h379q224 -630 418 -1358zM420 508h321q-35 139 -106 381q-29 104 -53 201h-4q-17 -73 -52 -203q-91 -322 -106 -379zM905 1475h-592v190h592v-190z" />
    <glyph glyph-name="amacron" unicode="&#x101;" horiz-adv-x="1081" 
d="M979 0h-250l-18 115q-82 -70 -159 -105t-175 -35q-175 0 -257.5 85t-82.5 219q0 66 19 120t62.5 100t112 77.5t171 49t235.5 17.5h35v37q0 84 -41.5 121t-132.5 37q-69 0 -158 -27.5t-166 -67.5l-92 191q244 123 467 123q228 0 324 -81.5t96 -266.5v-455q0 -64 10 -254z
M672 274v185h-51q-273 0 -273 -144q0 -61 35 -93t90 -32q54 0 100 20.5t99 63.5zM813 1178h-551v190h551v-190z" />
    <glyph glyph-name="Abreve" unicode="&#x102;" horiz-adv-x="1224" 
d="M1219 0h-349q-28 133 -63 268h-451q-39 -146 -65 -268h-285q173 673 416 1358h379q224 -630 418 -1358zM420 508h321q-35 139 -106 381q-29 104 -53 201h-4q-17 -73 -52 -203q-91 -322 -106 -379zM770 1720h182q-15 -120 -111 -197t-237 -77q-135 0 -227 74t-109 200h183
q3 -53 45 -81.5t114 -28.5q149 0 160 110z" />
    <glyph glyph-name="abreve" unicode="&#x103;" horiz-adv-x="1081" 
d="M979 0h-250l-18 115q-82 -70 -159 -105t-175 -35q-175 0 -257.5 85t-82.5 219q0 66 19 120t62.5 100t112 77.5t171 49t235.5 17.5h35v37q0 84 -41.5 121t-132.5 37q-69 0 -158 -27.5t-166 -67.5l-92 191q244 123 467 123q228 0 324 -81.5t96 -266.5v-455q0 -64 10 -254z
M672 274v185h-51q-273 0 -273 -144q0 -61 35 -93t90 -32q54 0 100 20.5t99 63.5zM696 1448h183q-15 -120 -111.5 -197t-237.5 -77q-135 0 -226.5 74t-108.5 200h182q3 -53 45.5 -82t114.5 -29q148 0 159 111z" />
    <glyph glyph-name="Aogonek" unicode="&#x104;" horiz-adv-x="1224" 
d="M1219 0q-121 -81 -121 -152q0 -21 11.5 -33t29.5 -12q30 0 69 17l43 -152q-81 -35 -192 -35q-207 0 -207 154q0 126 168 213h-150q-28 133 -63 268h-451q-39 -146 -65 -268h-285q173 673 416 1358h379q224 -630 418 -1358zM420 508h321q-35 139 -106 381q-29 104 -53 201
h-4q-17 -73 -52 -203q-91 -322 -106 -379z" />
    <glyph glyph-name="aogonek" unicode="&#x105;" horiz-adv-x="1081" 
d="M958 -180l43 -152q-81 -35 -192 -35q-207 0 -207 154q0 108 129 193l-20 135q-82 -70 -159 -105t-175 -35q-175 0 -257.5 85t-82.5 219q0 66 19 120t62.5 100t112 77.5t171 49t235.5 17.5h35v37q0 84 -41.5 121t-132.5 37q-69 0 -158 -27.5t-166 -67.5l-92 191
q244 123 467 123q228 0 324 -81.5t96 -266.5v-455q0 -64 10 -254q-131 -71 -131 -152q0 -21 11.5 -33t29.5 -12q30 0 69 17zM672 274v185h-51q-273 0 -273 -144q0 -61 35 -93t90 -32q54 0 100 20.5t99 63.5z" />
    <glyph glyph-name="Cacute" unicode="&#x106;" horiz-adv-x="1220" 
d="M842 463h323q-15 -213 -163.5 -350.5t-389.5 -137.5q-263 0 -406 174t-143 486q0 168 36 304t107.5 235.5t184 153.5t258.5 54q256 0 383.5 -134.5t108.5 -358.5l-318 -35q12 274 -192 274q-122 0 -181 -119.5t-59 -334.5q0 -231 59.5 -338t180.5 -107q96 0 148.5 66.5
t62.5 167.5zM711 1470h-183l156 213h279z" />
    <glyph glyph-name="cacute" unicode="&#x107;" horiz-adv-x="1038" 
d="M831 352l170 -164q-101 -114 -209 -163.5t-264 -49.5q-239 0 -353 126.5t-114 398.5q0 267 128.5 412t383.5 145q219 0 319.5 -100t94.5 -300h-295q10 99 -27.5 146t-109.5 47q-84 0 -130 -82t-46 -233q0 -332 207 -332q67 0 125 37t120 112zM647 1174h-178l160 278h274z
" />
    <glyph glyph-name="Ccircumflex" unicode="&#x108;" horiz-adv-x="1220" 
d="M842 463h323q-15 -213 -163.5 -350.5t-389.5 -137.5q-263 0 -406 174t-143 486q0 168 36 304t107.5 235.5t184 153.5t258.5 54q256 0 383.5 -134.5t108.5 -358.5l-318 -35q12 274 -192 274q-122 0 -181 -119.5t-59 -334.5q0 -231 59.5 -338t180.5 -107q96 0 148.5 66.5
t62.5 167.5zM973 1470h-223l-113 121l-109 -121h-223l234 224h200z" />
    <glyph glyph-name="ccircumflex" unicode="&#x109;" horiz-adv-x="1038" 
d="M831 352l170 -164q-101 -114 -209 -163.5t-264 -49.5q-239 0 -353 126.5t-114 398.5q0 267 128.5 412t383.5 145q219 0 319.5 -100t94.5 -300h-295q10 99 -27.5 146t-109.5 47q-84 0 -130 -82t-46 -233q0 -332 207 -332q67 0 125 37t120 112zM885 1174h-223l-113 155
l-109 -155h-223l234 270h200z" />
    <glyph glyph-name="Cdotaccent" unicode="&#x10a;" horiz-adv-x="1220" 
d="M842 463h323q-15 -213 -163.5 -350.5t-389.5 -137.5q-263 0 -406 174t-143 486q0 168 36 304t107.5 235.5t184 153.5t258.5 54q256 0 383.5 -134.5t108.5 -358.5l-318 -35q12 274 -192 274q-122 0 -181 -119.5t-59 -334.5q0 -231 59.5 -338t180.5 -107q96 0 148.5 66.5
t62.5 167.5zM793 1470h-316v242h316v-242z" />
    <glyph glyph-name="cdotaccent" unicode="&#x10b;" horiz-adv-x="1038" 
d="M831 352l170 -164q-101 -114 -209 -163.5t-264 -49.5q-239 0 -353 126.5t-114 398.5q0 267 128.5 412t383.5 145q219 0 319.5 -100t94.5 -300h-295q10 99 -27.5 146t-109.5 47q-84 0 -130 -82t-46 -233q0 -332 207 -332q67 0 125 37t120 112zM707 1174h-306v256h306v-256
z" />
    <glyph glyph-name="Ccaron" unicode="&#x10c;" horiz-adv-x="1220" 
d="M842 463h323q-15 -213 -163.5 -350.5t-389.5 -137.5q-263 0 -406 174t-143 486q0 168 36 304t107.5 235.5t184 153.5t258.5 54q256 0 383.5 -134.5t108.5 -358.5l-318 -35q12 274 -192 274q-122 0 -181 -119.5t-59 -334.5q0 -231 59.5 -338t180.5 -107q96 0 148.5 66.5
t62.5 167.5zM752 1470h-201l-234 224h224l112 -121l109 121h223z" />
    <glyph glyph-name="ccaron" unicode="&#x10d;" horiz-adv-x="1038" 
d="M831 352l170 -164q-101 -114 -209 -163.5t-264 -49.5q-239 0 -353 126.5t-114 398.5q0 267 128.5 412t383.5 145q219 0 319.5 -100t94.5 -300h-295q10 99 -27.5 146t-109.5 47q-84 0 -130 -82t-46 -233q0 -332 207 -332q67 0 125 37t120 112zM670 1174h-201l-233 270h223
l112 -156l109 156h223z" />
    <glyph glyph-name="Dcaron" unicode="&#x10e;" horiz-adv-x="1222" 
d="M479 0h-356v1358q64 0 193.5 1t215.5 1q633 0 633 -635q0 -166 -40 -297t-122 -227.5t-214.5 -148.5t-309.5 -52zM434 254h74q170 0 252 109.5t82 332.5q0 203 -76.5 306.5t-257.5 103.5h-74v-852zM651 1456h-200l-234 223h223l113 -120l109 120h223z" />
    <glyph glyph-name="dcaron" unicode="&#x10f;" horiz-adv-x="1132" 
d="M1020 0h-246l-16 106q-163 -126 -326 -126q-182 0 -276.5 121.5t-94.5 359.5q0 286 147.5 439t418.5 153q51 0 96 -9v381h297v-1425zM723 274v564q-45 20 -105 20q-110 0 -176.5 -88t-66.5 -250q0 -176 40 -250.5t113 -74.5q96 0 195 79zM1229 1276h-162l49 280h215z" />
    <glyph glyph-name="Dcroat" unicode="&#x110;" horiz-adv-x="1247" 
d="M504 0h-357v569h-122v254h122v535q70 0 207 1t203 1q633 0 633 -633q0 -166 -40 -298t-122 -228.5t-214.5 -148.5t-309.5 -52zM459 254h73q170 0 252 109.5t82 332.5q0 203 -76.5 306.5t-257.5 103.5h-73v-283h147v-254h-147v-315z" />
    <glyph glyph-name="dcroat" unicode="&#x111;" horiz-adv-x="1132" 
d="M446 1133v190h275v102h299v-102h113v-190h-113v-1133h-246l-16 106q-163 -126 -326 -126q-182 0 -276.5 121.5t-94.5 359.5q0 286 147.5 439t418.5 153q49 0 94 -9v89h-275zM723 274v564q-45 20 -105 20q-110 0 -176.5 -88t-66.5 -250q0 -176 40 -250.5t113 -74.5
q96 0 195 79z" />
    <glyph glyph-name="Emacron" unicode="&#x112;" horiz-adv-x="1032" 
d="M979 0h-856v1358h870l-28 -254h-531v-285h432v-246h-432v-319h545v-254zM842 1475h-592v190h592v-190z" />
    <glyph glyph-name="emacron" unicode="&#x113;" horiz-adv-x="1114" 
d="M928 305l119 -190q-222 -140 -504 -140q-243 0 -362.5 125t-119.5 389q0 270 131 419t398 149q235 0 349 -146.5t97 -468.5h-659q0 -116 59 -177.5t174 -61.5q83 0 170.5 28t147.5 74zM377 627h364q3 106 -40.5 166.5t-135.5 60.5q-81 0 -133 -61.5t-55 -165.5zM852 1178
h-551v190h551v-190z" />
    <glyph glyph-name="Edotaccent" unicode="&#x116;" horiz-adv-x="1032" 
d="M979 0h-856v1358h870l-28 -254h-531v-285h432v-246h-432v-319h545v-254zM696 1456h-315v242h315v-242z" />
    <glyph glyph-name="edotaccent" unicode="&#x117;" horiz-adv-x="1114" 
d="M928 305l119 -190q-222 -140 -504 -140q-243 0 -362.5 125t-119.5 389q0 270 131 419t398 149q235 0 349 -146.5t97 -468.5h-659q0 -116 59 -177.5t174 -61.5q83 0 170.5 28t147.5 74zM377 627h364q3 106 -40.5 166.5t-135.5 60.5q-81 0 -133 -61.5t-55 -165.5zM711 1174
h-305v256h305v-256z" />
    <glyph glyph-name="Eogonek" unicode="&#x118;" horiz-adv-x="1032" 
d="M969 -180l43 -152q-81 -35 -193 -35q-207 0 -207 154q0 126 168 213h-657v1358h870l-28 -254h-531v-285h432v-246h-432v-319h545v-254q-121 -81 -121 -152q0 -21 11.5 -33t29.5 -12q31 0 70 17z" />
    <glyph glyph-name="eogonek" unicode="&#x119;" horiz-adv-x="1114" 
d="M748 -180l43 -152q-81 -35 -193 -35q-207 0 -207 154q0 105 125 188q-227 6 -341 132t-114 382q0 270 131 419t398 149q116 0 201 -34t144 -106.5t84.5 -191.5t16.5 -283h-659q0 -116 59 -177.5t174 -61.5q83 0 170.5 27.5t147.5 72.5l119 -188q-74 -47 -151 -75
t-129 -48t-87 -55q-43 -43 -43 -89q0 -21 11.5 -33t29.5 -12q31 0 70 17zM377 627h364q3 106 -40.5 166.5t-135.5 60.5q-81 0 -133 -61.5t-55 -165.5z" />
    <glyph glyph-name="Ecaron" unicode="&#x11a;" horiz-adv-x="1032" 
d="M979 0h-856v1358h870l-28 -254h-531v-285h432v-246h-432v-319h545v-254zM659 1456h-200l-234 223h224l112 -120l109 120h223z" />
    <glyph glyph-name="ecaron" unicode="&#x11b;" horiz-adv-x="1114" 
d="M928 305l119 -190q-222 -140 -504 -140q-243 0 -362.5 125t-119.5 389q0 270 131 419t398 149q235 0 349 -146.5t97 -468.5h-659q0 -116 59 -177.5t174 -61.5q83 0 170.5 28t147.5 74zM377 627h364q3 106 -40.5 166.5t-135.5 60.5q-81 0 -133 -61.5t-55 -165.5zM678 1174
h-201l-233 270h223l113 -156l108 156h223z" />
    <glyph glyph-name="Gcircumflex" unicode="&#x11c;" horiz-adv-x="1232" 
d="M840 266v221h-234v238h524v-614q-108 -64 -240.5 -100t-260.5 -36q-566 0 -566 674q0 342 158 537.5t432 195.5q234 0 355.5 -106.5t117.5 -308.5l-295 -39q5 98 -46 150t-152 52q-117 0 -181.5 -113t-64.5 -329q0 -172 31.5 -273.5t93 -144.5t162.5 -43q46 0 93 11
t73 28zM973 1470h-223l-113 121l-109 -121h-223l234 224h200z" />
    <glyph glyph-name="gcircumflex" unicode="&#x11d;" horiz-adv-x="1122" 
d="M762 1030l33 201h313l-172 -285q38 -21 62 -86.5t24 -114.5q0 -182 -117.5 -263t-369.5 -81q-17 0 -29 2q-57 -8 -57 -51q0 -27 35.5 -41.5t92 -20.5t125 -11.5t136.5 -21t124.5 -42.5t92 -82t35.5 -133q0 -199 -134.5 -284t-451.5 -85q-263 0 -371 57.5t-108 190.5
q0 73 52.5 128t141.5 85q-54 22 -75 57.5t-21 92.5q0 56 48.5 109t129.5 91q-112 21 -166.5 95.5t-54.5 183.5q0 159 120.5 244.5t364.5 85.5q117 0 197 -21zM561 563q150 0 150 158q0 168 -160 168q-78 0 -120 -38.5t-42 -115.5q0 -172 172 -172zM385 53q-57 -49 -57 -119
q0 -59 60 -90.5t175 -31.5q128 0 178 29t50 83q0 45 -26 66.5t-110 36t-270 26.5zM883 1313h-224l-112 121l-109 -121h-223l234 223h200z" />
    <glyph glyph-name="Gbreve" unicode="&#x11e;" horiz-adv-x="1232" 
d="M840 266v221h-234v238h524v-614q-108 -64 -240.5 -100t-260.5 -36q-566 0 -566 674q0 342 158 537.5t432 195.5q234 0 355.5 -106.5t117.5 -308.5l-295 -39q5 98 -46 150t-152 52q-117 0 -181.5 -113t-64.5 -329q0 -172 31.5 -273.5t93 -144.5t162.5 -43q46 0 93 11
t73 28zM803 1735h182q-15 -120 -111 -197.5t-237 -77.5q-135 0 -227 74.5t-109 200.5h182q3 -53 45.5 -82t114.5 -29q149 0 160 111z" />
    <glyph glyph-name="gbreve" unicode="&#x11f;" horiz-adv-x="1122" 
d="M776 1024l51 186h301l-178 -274q31 -27 51.5 -86t20.5 -105q0 -182 -117.5 -263t-369.5 -81q-17 0 -29 2q-57 -8 -57 -51q0 -27 35.5 -41.5t92 -20.5t125 -11.5t136.5 -21t124.5 -42.5t92 -82t35.5 -133q0 -199 -134.5 -284t-451.5 -85q-263 0 -371 57.5t-108 190.5
q0 73 52.5 128t141.5 85q-54 22 -75 57.5t-21 92.5q0 56 48.5 109t129.5 91q-112 21 -166.5 95.5t-54.5 183.5q0 159 120.5 244.5t364.5 85.5q131 0 211 -27zM561 563q150 0 150 156q0 170 -160 170q-78 0 -120 -38.5t-42 -113.5q0 -174 172 -174zM385 53q-57 -49 -57 -121
q0 -57 60 -88.5t175 -31.5q87 0 139.5 15t70.5 38t18 57q0 46 -26.5 68t-110 36.5t-269.5 26.5zM666 1446h182q-15 -121 -106.5 -198t-231.5 -77q-134 0 -221.5 74t-104.5 201h183q6 -111 149 -111q139 0 150 111z" />
    <glyph glyph-name="Gdotaccent" unicode="&#x120;" horiz-adv-x="1232" 
d="M840 266v221h-234v238h524v-614q-108 -64 -240.5 -100t-260.5 -36q-566 0 -566 674q0 342 158 537.5t432 195.5q234 0 355.5 -106.5t117.5 -308.5l-295 -39q5 98 -46 150t-152 52q-117 0 -181.5 -113t-64.5 -329q0 -172 31.5 -273.5t93 -144.5t162.5 -43q46 0 93 11
t73 28zM797 1470h-316v242h316v-242z" />
    <glyph glyph-name="gdotaccent" unicode="&#x121;" horiz-adv-x="1122" 
d="M762 1030l33 201h313l-172 -285q38 -21 62 -86.5t24 -114.5q0 -182 -117.5 -263t-369.5 -81q-17 0 -29 2q-57 -8 -57 -51q0 -27 35.5 -41.5t92 -20.5t125 -11.5t136.5 -21t124.5 -42.5t92 -82t35.5 -133q0 -199 -134.5 -284t-451.5 -85q-263 0 -371 57.5t-108 190.5
q0 73 52.5 128t141.5 85q-54 22 -75 57.5t-21 92.5q0 56 48.5 109t129.5 91q-112 21 -166.5 95.5t-54.5 183.5q0 159 120.5 244.5t364.5 85.5q117 0 197 -21zM561 563q150 0 150 158q0 168 -160 168q-78 0 -120 -38.5t-42 -115.5q0 -172 172 -172zM385 53q-57 -49 -57 -119
q0 -59 60 -90.5t175 -31.5q128 0 178 29t50 83q0 45 -26 66.5t-110 36t-270 26.5zM692 1174h-305v256h305v-256z" />
    <glyph glyph-name="Gcommaaccent" unicode="&#x122;" horiz-adv-x="1232" 
d="M840 266v221h-234v238h524v-614q-108 -64 -240.5 -100t-260.5 -36q-566 0 -566 674q0 342 158 537.5t432 195.5q234 0 355.5 -106.5t117.5 -308.5l-295 -39q5 98 -46 150t-152 52q-117 0 -181.5 -113t-64.5 -329q0 -172 31.5 -273.5t93 -144.5t162.5 -43q46 0 93 11
t73 28zM641 -369h-152l78 105h-88v186h287v-178z" />
    <glyph glyph-name="gcommaaccent" unicode="&#x123;" horiz-adv-x="1122" 
d="M762 1030l33 201h313l-172 -285q38 -21 62 -86.5t24 -114.5q0 -182 -117.5 -263t-369.5 -81q-17 0 -29 2q-57 -8 -57 -51q0 -27 35.5 -41.5t92 -20.5t125 -11.5t136.5 -21t124.5 -42.5t92 -82t35.5 -133q0 -199 -134.5 -284t-451.5 -85q-263 0 -371 57.5t-108 190.5
q0 73 52.5 128t141.5 85q-54 22 -75 57.5t-21 92.5q0 56 48.5 109t129.5 91q-112 21 -166.5 95.5t-54.5 183.5q0 159 120.5 244.5t364.5 85.5q117 0 197 -21zM561 563q150 0 150 158q0 168 -160 168q-78 0 -120 -38.5t-42 -115.5q0 -172 172 -172zM385 53q-57 -49 -57 -119
q0 -59 60 -90.5t175 -31.5q128 0 178 29t50 83q0 45 -26 66.5t-110 36t-270 26.5zM674 1161h-287v189l125 116h152l-78 -108h88v-197z" />
    <glyph glyph-name="Hcircumflex" unicode="&#x124;" horiz-adv-x="1318" 
d="M1196 0h-311v575h-451v-575h-311v1358h311v-524h451v524h311v-1358zM985 1456h-223l-113 121l-108 -121h-224l234 223h201z" />
    <glyph glyph-name="hcircumflex" unicode="&#x125;" horiz-adv-x="1144" 
d="M1034 0h-297v659q0 93 -29 130.5t-102 37.5q-49 0 -104 -17.5t-92 -43.5v-766h-297v1425h297v-471q184 99 331 99q162 0 227.5 -71t65.5 -243v-739zM899 1528h-223l-113 121l-108 -121h-224l234 223h201z" />
    <glyph glyph-name="Hbar" unicode="&#x126;" horiz-adv-x="1359" 
d="M1217 0h-312v555h-450v-555h-312v991h-108v191h108v176h312v-176h450v176h312v-176h108v-191h-108v-991zM905 991h-450v-178h450v178z" />
    <glyph glyph-name="hbar" unicode="&#x127;" horiz-adv-x="1144" 
d="M0 1124v201h113v100h297v-100h280l-20 -201h-260v-170q184 99 331 99q162 0 227.5 -71t65.5 -243v-739h-297v659q0 93 -29 130.5t-102 37.5q-49 0 -104 -17.5t-92 -43.5v-766h-297v1124h-113z" />
    <glyph glyph-name="Itilde" unicode="&#x128;" horiz-adv-x="557" 
d="M434 0h-311v1358h311v-1358zM551 1716l104 -88q-38 -80 -104 -126t-152 -46q-55 0 -137 41t-123 41q-77 0 -135 -92l-104 88q38 77 104 124.5t146 47.5q53 0 136.5 -41t129.5 -41q69 0 135 92z" />
    <glyph glyph-name="itilde" unicode="&#x129;" horiz-adv-x="522" 
d="M410 0h-297v1032h297v-1032zM489 1425l105 -88q-35 -77 -95 -124.5t-130 -47.5q-46 0 -92.5 20.5t-85 41t-66.5 20.5q-34 0 -60.5 -22.5t-54.5 -69.5l-104 88q35 77 95 124.5t130 47.5q46 0 92.5 -20.5t85 -41t66.5 -20.5q34 0 60 22.5t54 69.5z" />
    <glyph glyph-name="Imacron" unicode="&#x12a;" horiz-adv-x="557" 
d="M434 0h-311v1358h311v-1358zM573 1475h-591v190h591v-190z" />
    <glyph glyph-name="imacron" unicode="&#x12b;" horiz-adv-x="522" 
d="M410 0h-297v1032h297v-1032zM537 1169h-551v191h551v-191z" />
    <glyph glyph-name="Iogonek" unicode="&#x12e;" horiz-adv-x="557" 
d="M424 -180l43 -152q-81 -35 -193 -35q-206 0 -206 154q0 126 168 213h-113v1358h311v-1358q-121 -81 -121 -152q0 -21 11.5 -33t29.5 -12q31 0 70 17z" />
    <glyph glyph-name="iogonek" unicode="&#x12f;" horiz-adv-x="522" 
d="M399 -180l43 -152q-81 -35 -192 -35q-207 0 -207 154q0 125 168 213h-98v1032h297v-1032q-121 -81 -121 -152q0 -21 11.5 -33t29.5 -12q30 0 69 17zM414 1165h-305v260h305v-260z" />
    <glyph glyph-name="Idotaccent" unicode="&#x130;" horiz-adv-x="557" 
d="M434 0h-311v1358h311v-1358zM434 1456h-315v242h315v-242z" />
    <glyph glyph-name="dotlessi" unicode="&#x131;" horiz-adv-x="522" 
d="M410 0h-297v1032h297v-1032z" />
    <glyph glyph-name="IJ" unicode="&#x132;" horiz-adv-x="1232" 
d="M434 0h-311v1358h311v-1358zM571 -4v246q31 -4 68 -4q97 0 132.5 46t35.5 162v912h311v-897q0 -250 -109.5 -364.5t-314.5 -114.5q-65 0 -123 14z" />
    <glyph glyph-name="ij" unicode="&#x133;" horiz-adv-x="1044" 
d="M414 1165h-305v260h305v-260zM410 0h-297v1032h297v-1032zM936 1165h-305v260h305v-260zM596 -369l-109 207q76 36 112 87.5t36 129.5v977h297v-940q0 -201 -82 -305t-254 -156z" />
    <glyph glyph-name="Jcircumflex" unicode="&#x134;" horiz-adv-x="679" 
d="M18 -4v246q31 -4 68 -4q97 0 132.5 46t35.5 162v912h311v-897q0 -250 -109.5 -364.5t-314.5 -114.5q-65 0 -123 14zM743 1456h-223l-112 121l-109 -121h-223l233 223h201z" />
    <glyph glyph-name="jcircumflex" unicode="&#x135;" horiz-adv-x="522" 
d="M74 -369l-109 207q76 36 112 87.5t36 129.5v977h297v-940q0 -201 -82 -305t-254 -156zM596 1165h-223l-113 156l-108 -156h-224l234 271h200z" />
    <glyph glyph-name="Kcommaaccent" unicode="&#x136;" horiz-adv-x="1196" 
d="M1206 0h-411l-361 633v-633h-311v1358h311v-590l340 590h375l-422 -629zM618 -367h-151l78 109h-88v197h286v-189z" />
    <glyph glyph-name="kcommaaccent" unicode="&#x137;" horiz-adv-x="1091" 
d="M1085 0h-378l-297 512v-512h-297v1425h297v-796l315 403h332l-363 -432zM563 -367h-151l77 109h-88v197h287v-189z" />
    <glyph glyph-name="kgreenlandic" unicode="&#x138;" horiz-adv-x="1081" 
d="M1075 0h-379l-286 492v-492h-297v1032h297v-424l325 424h332l-373 -452z" />
    <glyph glyph-name="Lacute" unicode="&#x139;" horiz-adv-x="856" 
d="M846 0h-723v1358h311v-1100h432zM399 1456h-182l156 213h278z" />
    <glyph glyph-name="lacute" unicode="&#x13a;" horiz-adv-x="522" 
d="M410 0h-297v1425h297v-1425zM340 1522h-182l155 213h279z" />
    <glyph glyph-name="Lcommaaccent" unicode="&#x13b;" horiz-adv-x="856" 
d="M846 0h-723v1358h311v-1100h432zM512 -367h-152l78 109h-88v197h287v-189z" />
    <glyph glyph-name="lcommaaccent" unicode="&#x13c;" horiz-adv-x="522" 
d="M410 0h-297v1425h297v-1425zM281 -367h-152l78 109h-88v197h287v-189z" />
    <glyph glyph-name="Lcaron" unicode="&#x13d;" horiz-adv-x="856" 
d="M846 0h-723v1358h311v-1100h432zM682 1276h-162l49 280h215z" />
    <glyph glyph-name="lcaron" unicode="&#x13e;" horiz-adv-x="595" 
d="M410 0h-297v1425h297v-1425zM612 1276h-161l49 280h215z" />
    <glyph glyph-name="Ldot" unicode="&#x13f;" horiz-adv-x="856" 
d="M846 0h-723v1358h311v-1100h432zM924 541h-316v327h316v-327z" />
    <glyph glyph-name="ldot" unicode="&#x140;" horiz-adv-x="899" 
d="M410 0h-297v1425h297v-1425zM872 520h-315v328h315v-328z" />
    <glyph glyph-name="Lslash" unicode="&#x141;" horiz-adv-x="876" 
d="M866 0h-723v561l-108 -67l-17 182l125 78v604h312v-451l143 90l16 -182l-159 -100v-457h432z" />
    <glyph glyph-name="lslash" unicode="&#x142;" horiz-adv-x="606" 
d="M440 0h-297v580l-120 -76l-17 182l137 86v653h297v-485l142 90l16 -182l-158 -100v-748z" />
    <glyph glyph-name="Nacute" unicode="&#x143;" horiz-adv-x="1312" 
d="M1190 0h-338l-348 717q-74 151 -139 346h-5q19 -230 19 -385v-678h-256v1358h407l248 -514q101 -206 168 -412h4q-16 226 -16 445v481h256v-1358zM758 1456h-183l156 213h279z" />
    <glyph glyph-name="nacute" unicode="&#x144;" horiz-adv-x="1144" 
d="M1034 0h-297v659q0 92 -29.5 130t-101.5 38q-49 0 -104 -17.5t-92 -43.5v-766h-297v1032h245l17 -112q83 61 180.5 97t185.5 36q161 0 227 -71t66 -243v-739zM680 1165h-178l160 279h274z" />
    <glyph glyph-name="Ncommaaccent" unicode="&#x145;" horiz-adv-x="1312" 
d="M1190 0h-338l-348 717q-74 151 -139 346h-5q19 -230 19 -385v-678h-256v1358h407l248 -514q101 -206 168 -412h4q-16 226 -16 445v481h256v-1358zM645 -367h-151l77 109h-88v197h287v-189z" />
    <glyph glyph-name="ncommaaccent" unicode="&#x146;" horiz-adv-x="1144" 
d="M1034 0h-297v659q0 92 -29.5 130t-101.5 38q-49 0 -104 -17.5t-92 -43.5v-766h-297v1032h245l17 -112q83 61 180.5 97t185.5 36q161 0 227 -71t66 -243v-739zM578 -367h-152l78 109h-88v197h286v-189z" />
    <glyph glyph-name="Ncaron" unicode="&#x147;" horiz-adv-x="1312" 
d="M1190 0h-338l-348 717q-74 151 -139 346h-5q19 -230 19 -385v-678h-256v1358h407l248 -514q101 -206 168 -412h4q-16 226 -16 445v481h256v-1358zM752 1456h-201l-234 223h224l112 -120l109 120h223z" />
    <glyph glyph-name="ncaron" unicode="&#x148;" horiz-adv-x="1144" 
d="M1034 0h-297v659q0 92 -29.5 130t-101.5 38q-49 0 -104 -17.5t-92 -43.5v-766h-297v1032h245l17 -112q83 61 180.5 97t185.5 36q161 0 227 -71t66 -243v-739zM705 1165h-201l-234 271h224l112 -156l109 156h223z" />
    <glyph glyph-name="Eng" unicode="&#x14a;" horiz-adv-x="1312" 
d="M1190 1358v-1264q0 -213 -87 -320t-278 -143l-61 166q92 27 132 73t40 130h-84l-348 717q-72 147 -133 315h-4q12 -184 12 -354v-678h-256v1358h407l248 -514q93 -191 162 -381h4q-10 202 -10 414v481h256z" />
    <glyph glyph-name="eng" unicode="&#x14b;" horiz-adv-x="1110" 
d="M1004 739v-647q0 -201 -82 -305t-254 -156l-109 207q76 36 112 87.5t36 129.5v604q0 92 -26.5 130t-92.5 38q-45 0 -93.5 -20.5t-84.5 -50.5v-756h-297v1032h245l17 -112q80 61 172.5 97t177.5 36q153 0 216 -71t63 -243z" />
    <glyph glyph-name="Omacron" unicode="&#x14c;" horiz-adv-x="1298" 
d="M637 -25q-576 0 -576 668q0 160 36.5 292.5t108.5 233.5t188.5 157t267.5 56q575 0 575 -667q0 -98 -14 -187.5t-43.5 -173.5t-78 -152t-113 -119.5t-154.5 -79.5t-197 -28zM649 229q133 0 198.5 116.5t65.5 332.5q0 229 -63 339.5t-201 110.5q-134 0 -199 -116t-65 -332
q0 -229 63 -340t201 -111zM950 1489h-592v190h592v-190z" />
    <glyph glyph-name="omacron" unicode="&#x14d;" horiz-adv-x="1153" 
d="M559 -25q-256 0 -377 125.5t-121 393.5q0 278 135 420.5t398 142.5q256 0 377 -125t121 -393q0 -278 -135 -421t-398 -143zM578 176q99 0 146.5 71t47.5 245q0 142 -23 223t-64 111t-110 30q-99 0 -146.5 -70.5t-47.5 -244.5q0 -142 23 -223t64 -111.5t110 -30.5z
M852 1178h-551v190h551v-190z" />
    <glyph glyph-name="Ohungarumlaut" unicode="&#x150;" horiz-adv-x="1298" 
d="M637 -25q-576 0 -576 668q0 160 36.5 292.5t108.5 233.5t188.5 157t267.5 56q575 0 575 -667q0 -98 -14 -187.5t-43.5 -173.5t-78 -152t-113 -119.5t-154.5 -79.5t-197 -28zM649 229q133 0 198.5 116.5t65.5 332.5q0 229 -63 339.5t-201 110.5q-134 0 -199 -116t-65 -332
q0 -229 63 -340t201 -111zM895 1470h-182l168 213h278zM535 1470h-179l127 213h275z" />
    <glyph glyph-name="ohungarumlaut" unicode="&#x151;" horiz-adv-x="1153" 
d="M559 -25q-256 0 -377 125.5t-121 393.5q0 278 135 420.5t398 142.5q256 0 377 -125t121 -393q0 -278 -135 -421t-398 -143zM578 176q99 0 146.5 71t47.5 245q0 142 -23 223t-64 111t-110 30q-99 0 -146.5 -70.5t-47.5 -244.5q0 -142 23 -223t64 -111.5t110 -30.5z
M831 1174h-182l180 278h279zM471 1174h-178l139 278h275z" />
    <glyph glyph-name="OE" unicode="&#x152;" horiz-adv-x="1705" 
d="M1653 0h-856q-95 -25 -179 -25q-555 0 -555 668q0 127 21.5 237.5t68 203t114 158.5t163.5 103t213 37q103 0 186 -24h838l-29 -254h-536v-285h438v-246h-438v-319h551v-254zM797 262v830q-64 36 -166 36q-124 0 -185 -116.5t-61 -331.5q0 -229 59 -340t187 -111
q105 0 166 33z" />
    <glyph glyph-name="oe" unicode="&#x153;" horiz-adv-x="1824" 
d="M1632 313l125 -188q-125 -78 -246 -114t-264 -36q-228 0 -336 119q-56 -59 -139.5 -89t-212.5 -30q-256 0 -377 125.5t-121 393.5q0 278 135 420.5t398 142.5q129 0 211.5 -27.5t140.5 -91.5q122 119 348 119q237 0 350.5 -142t96.5 -464h-660q0 -116 59.5 -178
t174.5 -62q83 0 170 28t147 74zM578 176q99 0 146.5 71t47.5 245q0 142 -23 223t-64 111t-110 30q-99 0 -146.5 -70.5t-47.5 -244.5q0 -142 23 -223t64 -111.5t110 -30.5zM1081 633h365q3 107 -40.5 168t-135.5 61q-81 0 -133.5 -62t-55.5 -167z" />
    <glyph glyph-name="Racute" unicode="&#x154;" horiz-adv-x="1153" 
d="M1118 0h-362l-236 535h-86v-535h-311v1358h487q465 0 465 -395q0 -129 -67.5 -224t-188.5 -149zM434 768h131q91 0 139 46t48 132q0 81 -46 126.5t-139 45.5h-133v-350zM635 1456h-182l155 213h279z" />
    <glyph glyph-name="racute" unicode="&#x155;" horiz-adv-x="724" 
d="M410 0h-297v1032h260l16 -166q61 102 114.5 144.5t121.5 42.5q42 0 100 -15l-37 -288q-46 16 -98 16q-47 0 -88.5 -27t-91.5 -86v-653zM487 1165h-178l160 279h274z" />
    <glyph glyph-name="Rcommaaccent" unicode="&#x156;" horiz-adv-x="1153" 
d="M1118 0h-362l-236 535h-86v-535h-311v1358h487q465 0 465 -395q0 -129 -67.5 -224t-188.5 -149zM434 768h131q91 0 139 46t48 132q0 81 -46 126.5t-139 45.5h-133v-350zM604 -367h-151l77 109h-88v197h287v-189z" />
    <glyph glyph-name="rcommaaccent" unicode="&#x157;" horiz-adv-x="724" 
d="M410 0h-297v1032h260l16 -166q61 102 114.5 144.5t121.5 42.5q42 0 100 -15l-37 -288q-46 16 -98 16q-47 0 -88.5 -27t-91.5 -86v-653zM283 -367h-152l78 109h-88v197h287v-189z" />
    <glyph glyph-name="Rcaron" unicode="&#x158;" horiz-adv-x="1153" 
d="M1118 0h-362l-236 535h-86v-535h-311v1358h487q465 0 465 -395q0 -129 -67.5 -224t-188.5 -149zM434 768h131q91 0 139 46t48 132q0 81 -46 126.5t-139 45.5h-133v-350zM627 1456h-201l-233 223h223l112 -120l109 120h223z" />
    <glyph glyph-name="rcaron" unicode="&#x159;" horiz-adv-x="724" 
d="M410 0h-297v1032h260l16 -166q61 102 114.5 144.5t121.5 42.5q42 0 100 -15l-37 -288q-46 16 -98 16q-47 0 -88.5 -27t-91.5 -86v-653zM537 1165h-201l-234 271h224l112 -156l109 156h223z" />
    <glyph glyph-name="Sacute" unicode="&#x15a;" horiz-adv-x="1193" 
d="M1073 1024l-303 -39q0 79 -44 116.5t-144 37.5q-86 0 -134.5 -36t-48.5 -91q0 -41 25 -71.5t67 -50t96.5 -35.5t114.5 -32.5t120.5 -36.5t115 -52t96.5 -74.5t67 -108.5t25 -150q0 -191 -152 -308.5t-421 -117.5q-259 0 -378.5 96.5t-119.5 307.5l312 41q0 -105 50 -152
t165 -47q102 0 153 39t51 105q0 48 -24.5 82.5t-66 55t-95.5 36.5t-113.5 31t-119 33t-113.5 48t-95.5 70.5t-66 106t-24.5 149.5q0 181 144 293t400 112q461 0 461 -358zM653 1470h-182l156 213h278z" />
    <glyph glyph-name="sacute" unicode="&#x15b;" horiz-adv-x="1017" 
d="M915 764l-258 -21q4 66 -34.5 94.5t-116.5 28.5q-70 0 -111 -28t-41 -78q0 -33 26 -55.5t69 -34.5t97.5 -25.5t111 -25t111 -35t97.5 -55t69 -86t26 -126.5q0 -155 -133 -248.5t-367 -93.5q-229 0 -320.5 75t-66.5 231l245 22q-10 -71 36 -103t145 -32q78 0 121 26.5
t43 75.5q0 36 -25.5 62t-67.5 39.5t-96 27t-110 25t-110 34.5t-96 53t-67.5 83t-25.5 123q0 158 118.5 249t337.5 91q125 0 216 -31.5t139.5 -98.5t37.5 -163zM578 1174h-179l160 278h275z" />
    <glyph glyph-name="Scircumflex" unicode="&#x15c;" horiz-adv-x="1193" 
d="M1073 1024l-303 -39q0 79 -44 116.5t-144 37.5q-86 0 -134.5 -36t-48.5 -91q0 -41 25 -71.5t67 -50t96.5 -35.5t114.5 -32.5t120.5 -36.5t115 -52t96.5 -74.5t67 -108.5t25 -150q0 -191 -152 -308.5t-421 -117.5q-259 0 -378.5 96.5t-119.5 307.5l312 41q0 -105 50 -152
t165 -47q102 0 153 39t51 105q0 48 -24.5 82.5t-66 55t-95.5 36.5t-113.5 31t-119 33t-113.5 48t-95.5 70.5t-66 106t-24.5 149.5q0 181 144 293t400 112q461 0 461 -358zM913 1470h-223l-112 121l-109 -121h-223l233 224h201z" />
    <glyph glyph-name="scircumflex" unicode="&#x15d;" horiz-adv-x="1017" 
d="M915 764l-258 -21q4 66 -34.5 94.5t-116.5 28.5q-70 0 -111 -28t-41 -78q0 -33 26 -55.5t69 -34.5t97.5 -25.5t111 -25t111 -35t97.5 -55t69 -86t26 -126.5q0 -155 -133 -248.5t-367 -93.5q-229 0 -320.5 75t-66.5 231l245 22q-10 -71 36 -103t145 -32q78 0 121 26.5
t43 75.5q0 36 -25.5 62t-67.5 39.5t-96 27t-110 25t-110 34.5t-96 53t-67.5 83t-25.5 123q0 158 118.5 249t337.5 91q125 0 216 -31.5t139.5 -98.5t37.5 -163zM842 1174h-224l-112 155l-109 -155h-223l234 270h200z" />
    <glyph glyph-name="Scedilla" unicode="&#x15e;" horiz-adv-x="1193" 
d="M428 -365v121q57 -6 88 5.5t31 35.5q0 21 -15 43t-55 56l60 79q-251 3 -366.5 99t-115.5 305l312 41q0 -105 50 -152t165 -47q102 0 153 39t51 105q0 48 -24.5 82.5t-66 55t-95.5 36.5t-113.5 31t-119 33t-113.5 48t-95.5 70.5t-66 106t-24.5 149.5q0 181 144 293
t400 112q461 0 461 -358l-303 -39q0 79 -44 116.5t-144 37.5q-86 0 -134.5 -36t-48.5 -91q0 -41 25 -71.5t67 -50t96.5 -35.5t114.5 -32.5t120.5 -36.5t115 -52t96.5 -74.5t67 -108.5t25 -150q0 -167 -117.5 -279t-330.5 -138l-14 -21q127 -74 127 -156q0 -89 -98.5 -139
t-264.5 -33z" />
    <glyph glyph-name="scedilla" unicode="&#x15f;" horiz-adv-x="1017" 
d="M340 -365v121q57 -6 88 5.5t31 35.5q0 21 -15 43t-55 56l60 79q-223 3 -311.5 77.5t-63.5 228.5l245 22q-10 -71 36 -103t145 -32q78 0 121 26.5t43 75.5q0 36 -25.5 62t-67.5 39.5t-96 27t-110 25t-110 34.5t-96 53t-67.5 83t-25.5 123q0 158 118.5 249t337.5 91
q125 0 216 -31.5t139.5 -98.5t37.5 -163l-258 -21q4 66 -34.5 94.5t-116.5 28.5q-70 0 -111 -28t-41 -78q0 -33 26 -55.5t69 -34.5t97.5 -25.5t111 -25t111 -35t97.5 -55t69 -86t26 -126.5q0 -131 -97.5 -219.5t-273.5 -113.5l-15 -21q127 -74 127 -156q0 -89 -98 -139
t-264 -33z" />
    <glyph glyph-name="Scaron" unicode="&#x160;" horiz-adv-x="1193" 
d="M1073 1024l-303 -39q0 79 -44 116.5t-144 37.5q-86 0 -134.5 -36t-48.5 -91q0 -41 25 -71.5t67 -50t96.5 -35.5t114.5 -32.5t120.5 -36.5t115 -52t96.5 -74.5t67 -108.5t25 -150q0 -191 -152 -308.5t-421 -117.5q-259 0 -378.5 96.5t-119.5 307.5l312 41q0 -105 50 -152
t165 -47q102 0 153 39t51 105q0 48 -24.5 82.5t-66 55t-95.5 36.5t-113.5 31t-119 33t-113.5 48t-95.5 70.5t-66 106t-24.5 149.5q0 181 144 293t400 112q461 0 461 -358zM715 1470h-201l-233 224h223l112 -121l109 121h223z" />
    <glyph glyph-name="scaron" unicode="&#x161;" horiz-adv-x="1017" 
d="M915 764l-258 -21q4 66 -34.5 94.5t-116.5 28.5q-70 0 -111 -28t-41 -78q0 -33 26 -55.5t69 -34.5t97.5 -25.5t111 -25t111 -35t97.5 -55t69 -86t26 -126.5q0 -155 -133 -248.5t-367 -93.5q-229 0 -320.5 75t-66.5 231l245 22q-10 -71 36 -103t145 -32q78 0 121 26.5
t43 75.5q0 36 -25.5 62t-67.5 39.5t-96 27t-110 25t-110 34.5t-96 53t-67.5 83t-25.5 123q0 158 118.5 249t337.5 91q125 0 216 -31.5t139.5 -98.5t37.5 -163zM604 1174h-201l-233 270h223l113 -156l108 156h224z" />
    <glyph glyph-name="uni0162" unicode="&#x162;" horiz-adv-x="968" 
d="M641 0h-311v1100h-322v258h963l-21 -258h-309v-1100zM502 -367h-152l78 109h-88v197h287v-189z" />
    <glyph glyph-name="uni0163" unicode="&#x163;" horiz-adv-x="753" 
d="M674 240l49 -213q-140 -47 -309 -47q-147 0 -212 70.5t-65 238.5v518h-137v225h137v289l299 35v-324h266l-24 -225h-242v-455q0 -68 20 -100.5t72 -32.5q70 0 146 21zM440 -369h-151l78 105h-88v186h286v-178z" />
    <glyph glyph-name="Tcaron" unicode="&#x164;" horiz-adv-x="968" 
d="M641 0h-311v1100h-322v258h963l-21 -258h-309v-1100zM594 1456h-201l-233 223h223l113 -120l108 120h223z" />
    <glyph glyph-name="tcaron" unicode="&#x165;" horiz-adv-x="753" 
d="M674 240l49 -213q-140 -47 -309 -47q-147 0 -212 70.5t-65 238.5v518h-137v225h137v289l299 35v-324h266l-24 -225h-242v-455q0 -68 20 -100.5t72 -32.5q70 0 146 21zM690 1165h-162l50 281h215z" />
    <glyph glyph-name="Tbar" unicode="&#x166;" horiz-adv-x="968" 
d="M641 0h-311v537h-217v245h217v318h-322v258h963l-21 -258h-309v-318h217v-245h-217v-537z" />
    <glyph glyph-name="tbar" unicode="&#x167;" horiz-adv-x="753" 
d="M674 240l49 -213q-140 -47 -309 -47q-147 0 -212 70.5t-65 238.5v143h-106v184h106v191h-137v225h137v289l299 35v-324h266l-24 -225h-242v-191h193v-184h-193v-80q0 -68 20 -100.5t72 -32.5q70 0 146 21z" />
    <glyph glyph-name="Utilde" unicode="&#x168;" horiz-adv-x="1286" 
d="M1167 1358v-828q0 -277 -132.5 -416t-393.5 -139q-268 0 -395 131t-127 408v844h311v-811q0 -174 52 -246t167 -72t171.5 67t56.5 234v828h290zM918 1716l104 -88q-38 -80 -104 -126t-152 -46q-45 0 -92 20.5t-90 41t-78 20.5q-77 0 -135 -92l-105 88q38 77 104 124.5
t146 47.5q53 0 136.5 -41t129.5 -41q70 0 136 92z" />
    <glyph glyph-name="utilde" unicode="&#x169;" horiz-adv-x="1144" 
d="M111 1032h297v-659q0 -92 29.5 -130t101.5 -38q49 0 104 17.5t92 43.5v766h297v-1032h-246l-16 113q-83 -61 -181 -97t-186 -36q-161 0 -226.5 70.5t-65.5 242.5v739zM811 1425l104 -88q-35 -77 -95 -124.5t-130 -47.5q-46 0 -92.5 20.5t-85 41t-66.5 20.5
q-34 0 -60 -22.5t-54 -69.5l-105 88q35 77 95.5 124.5t130.5 47.5q46 0 92 -20.5t84.5 -41t66.5 -20.5q34 0 60.5 22.5t54.5 69.5z" />
    <glyph glyph-name="Umacron" unicode="&#x16a;" horiz-adv-x="1286" 
d="M1167 1358v-828q0 -277 -132.5 -416t-393.5 -139q-268 0 -395 131t-127 408v844h311v-811q0 -174 52 -246t167 -72t171.5 67t56.5 234v828h290zM942 1475h-592v190h592v-190z" />
    <glyph glyph-name="umacron" unicode="&#x16b;" horiz-adv-x="1144" 
d="M111 1032h297v-659q0 -92 29.5 -130t101.5 -38q49 0 104 17.5t92 43.5v766h297v-1032h-246l-16 113q-83 -61 -181 -97t-186 -36q-161 0 -226.5 70.5t-65.5 242.5v739zM846 1169h-551v191h551v-191z" />
    <glyph glyph-name="Ubreve" unicode="&#x16c;" horiz-adv-x="1286" 
d="M1167 1358v-828q0 -277 -132.5 -416t-393.5 -139q-268 0 -395 131t-127 408v844h311v-811q0 -174 52 -246t167 -72t171.5 67t56.5 234v828h290zM803 1720h182q-15 -120 -111 -197t-237 -77q-135 0 -227 74t-109 200h182q3 -53 45.5 -81.5t114.5 -28.5q149 0 160 110z" />
    <glyph glyph-name="ubreve" unicode="&#x16d;" horiz-adv-x="1144" 
d="M111 1032h297v-659q0 -92 29.5 -130t101.5 -38q49 0 104 17.5t92 43.5v766h297v-1032h-246l-16 113q-83 -61 -181 -97t-186 -36q-161 0 -226.5 70.5t-65.5 242.5v739zM717 1440h182q-15 -120 -111 -197.5t-237 -77.5q-135 0 -227 74.5t-109 200.5h182q3 -53 45.5 -82
t114.5 -29q149 0 160 111z" />
    <glyph glyph-name="Uring" unicode="&#x16e;" horiz-adv-x="1286" 
d="M885 1649q0 -100 -62.5 -152.5t-179.5 -52.5q-113 0 -169 46t-56 142q0 100 62 152.5t179 52.5q226 0 226 -188zM653 1559q72 0 72 81q0 82 -76 82q-71 0 -71 -82q0 -81 75 -81zM1167 1358v-828q0 -277 -132.5 -416t-393.5 -139q-268 0 -395 131t-127 408v844h311v-811
q0 -174 52 -246t167 -72t171.5 67t56.5 234v828h290z" />
    <glyph glyph-name="uring" unicode="&#x16f;" horiz-adv-x="1144" 
d="M111 1032h297v-659q0 -92 29.5 -130t101.5 -38q49 0 104 17.5t92 43.5v766h297v-1032h-246l-16 113q-83 -61 -181 -97t-186 -36q-161 0 -226.5 70.5t-65.5 242.5v739zM811 1362q0 -102 -62.5 -155.5t-179.5 -53.5q-113 0 -169 47t-56 146q0 102 62 155t180 53
q114 0 169.5 -46.5t55.5 -145.5zM580 1268q38 0 54.5 21t16.5 65q0 86 -76 86q-38 0 -54.5 -21t-16.5 -65q0 -86 76 -86z" />
    <glyph glyph-name="Uhungarumlaut" unicode="&#x170;" horiz-adv-x="1286" 
d="M1167 1358v-828q0 -277 -132.5 -416t-393.5 -139q-268 0 -395 131t-127 408v844h311v-811q0 -174 52 -246t167 -72t171.5 67t56.5 234v828h290zM920 1456h-183l168 213h279zM559 1456h-178l127 213h274z" />
    <glyph glyph-name="uhungarumlaut" unicode="&#x171;" horiz-adv-x="1144" 
d="M111 1032h297v-659q0 -92 29.5 -130t101.5 -38q49 0 104 17.5t92 43.5v766h297v-1032h-246l-16 113q-83 -61 -181 -97t-186 -36q-161 0 -226.5 70.5t-65.5 242.5v739zM807 1165h-182l180 279h278zM446 1165h-178l140 279h274z" />
    <glyph glyph-name="Uogonek" unicode="&#x172;" horiz-adv-x="1286" 
d="M868 -180l43 -152q-81 -35 -192 -35q-207 0 -207 154q0 110 127 188q-267 0 -393.5 131.5t-126.5 409.5v842h311v-811q0 -167 50.5 -242.5t168.5 -75.5q55 0 94.5 13.5t71 46.5t47 93.5t15.5 149.5v826h290v-828q0 -282 -137 -419q-43 -43 -111.5 -84t-105.5 -78
q-55 -55 -55 -101q0 -21 11.5 -33t29.5 -12q30 0 69 17z" />
    <glyph glyph-name="uogonek" unicode="&#x173;" horiz-adv-x="1144" 
d="M791 -25l-21 138q-83 -61 -181 -97t-186 -36q-161 0 -226.5 70.5t-65.5 242.5v739h297v-659q0 -92 29.5 -130t101.5 -38q49 0 104 17.5t92 43.5v766h297v-1032q-121 -81 -121 -152q0 -21 11.5 -33t29.5 -12q31 0 70 17l43 -152q-81 -35 -193 -35q-206 0 -206 154
q0 107 125 188z" />
    <glyph glyph-name="Wcircumflex" unicode="&#x174;" horiz-adv-x="1810" 
d="M543 287h4q26 209 63 362l172 709h295l170 -709q38 -167 66 -362h4q33 212 61 360q3 16 22 111t33 167t35 194.5t37 238.5h275q-108 -616 -320 -1358h-344l-164 686q-31 129 -45 287h-4q-13 -164 -43 -287l-166 -686h-344q-197 672 -319 1358h323q16 -115 37 -237.5
t34.5 -194t33 -168t22.5 -111.5q36 -202 62 -360zM1274 1456h-223l-113 121l-109 -121h-223l234 223h200z" />
    <glyph glyph-name="wcircumflex" unicode="&#x175;" horiz-adv-x="1601" 
d="M1241 0h-274l-129 520q-23 100 -35 211h-4q-12 -111 -35 -211l-129 -520h-275q-179 494 -323 1032h330q18 -96 40 -195.5t48 -208.5t34 -143q21 -101 33 -204h2q14 106 37 206l135 545h271l135 -545q21 -95 37 -206h2q11 105 33 204q4 16 33.5 141t50 217t38.5 189h269
q-126 -483 -324 -1032zM1169 1165h-223l-112 156l-109 -156h-223l233 271h201z" />
    <glyph glyph-name="Ycircumflex" unicode="&#x176;" horiz-adv-x="1069" 
d="M678 0h-311v573q-226 411 -387 785h356q92 -246 211 -494h6q102 192 235 494h302q-181 -391 -412 -776v-582zM874 1456h-223l-112 121l-109 -121h-223l233 223h201z" />
    <glyph glyph-name="ycircumflex" unicode="&#x177;" horiz-adv-x="985" 
d="M344 -369l-182 140q160 105 160 282q0 47 -50 190t-126 368.5t-121 420.5h319q15 -70 33 -144t30.5 -121.5t34 -128.5t31.5 -118q28 -106 53 -235h4q7 34 28 129t28 129q73 364 90 489h285q-137 -593 -256 -903q-81 -208 -164.5 -318.5t-196.5 -179.5zM846 1165h-223
l-113 156l-109 -156h-223l234 271h200z" />
    <glyph glyph-name="Ydieresis" unicode="&#x178;" horiz-adv-x="1069" 
d="M678 0h-311v573q-226 411 -387 785h356q92 -246 211 -494h6q102 192 235 494h302q-181 -391 -412 -776v-582zM842 1475h-221v213h221v-213zM477 1475h-221v213h221v-213z" />
    <glyph glyph-name="Zacute" unicode="&#x179;" horiz-adv-x="1085" 
d="M1014 0h-973v207l563 893h-530l22 258h901v-211l-561 -889h598zM633 1456h-182l155 213h279z" />
    <glyph glyph-name="zacute" unicode="&#x17a;" horiz-adv-x="872" 
d="M817 0h-780v205l424 614h-412l21 213h737v-184l-438 -631h467zM524 1165h-178l160 279h274z" />
    <glyph glyph-name="Zdotaccent" unicode="&#x17b;" horiz-adv-x="1085" 
d="M1014 0h-973v207l563 893h-530l22 258h901v-211l-561 -889h598zM725 1456h-315v242h315v-242z" />
    <glyph glyph-name="zdotaccent" unicode="&#x17c;" horiz-adv-x="872" 
d="M817 0h-780v205l424 614h-412l21 213h737v-184l-438 -631h467zM612 1165h-305v256h305v-256z" />
    <glyph glyph-name="Zcaron" unicode="&#x17d;" horiz-adv-x="1085" 
d="M1014 0h-973v207l563 893h-530l22 258h901v-211l-561 -889h598zM659 1456h-200l-234 223h224l112 -120l109 120h223z" />
    <glyph glyph-name="zcaron" unicode="&#x17e;" horiz-adv-x="872" 
d="M817 0h-780v205l424 614h-412l21 213h737v-184l-438 -631h467zM569 1165h-200l-234 271h223l113 -156l109 156h223z" />
    <glyph glyph-name="florin" unicode="&#x192;" horiz-adv-x="907" 
d="M-82 -336l64 207q53 -23 108 -23q41 0 61 27.5t25 83.5l62 721h-152l18 225h152l16 176q8 88 27 148t60 109.5t112.5 73.5t177.5 24q103 0 182 -31l-63 -207q-53 23 -109 23q-41 0 -61 -27.5t-25 -83.5l-18 -205h195l-41 -225h-172l-60 -692q-6 -69 -18.5 -120.5
t-39 -97.5t-67 -75t-104 -45.5t-148.5 -16.5q-103 0 -182 31z" />
    <glyph glyph-name="Ohorn" unicode="&#x1a0;" horiz-adv-x="1392" 
d="M637 -25q-576 0 -576 668q0 160 36.5 292.5t108.5 233.5t188.5 157t267.5 56q305 0 448 -188q25 24 40 60.5t14 107.5t-29 160h254q26 -103 22.5 -182t-38 -141.5t-79 -103.5t-100.5 -67q43 -133 43 -313q0 -98 -14 -187.5t-43.5 -173.5t-78 -152t-113 -119.5
t-154.5 -79.5t-197 -28zM649 229q133 0 198.5 116.5t65.5 332.5q0 229 -63 339.5t-201 110.5q-134 0 -199 -116t-65 -332q0 -229 63 -340t201 -111z" />
    <glyph glyph-name="ohorn" unicode="&#x1a1;" horiz-adv-x="1267" 
d="M559 -25q-256 0 -377 125.5t-121 393.5q0 278 135 420.5t398 142.5q274 0 397 -148q57 117 -2 293h254q89 -328 -170 -483q19 -80 19 -180q0 -278 -135 -421t-398 -143zM578 176q99 0 146.5 71t47.5 245q0 142 -23 223t-64 111t-110 30q-99 0 -146.5 -70.5t-47.5 -244.5
q0 -142 23 -223t64 -111.5t110 -30.5z" />
    <glyph glyph-name="Uhorn" unicode="&#x1af;" horiz-adv-x="1464" 
d="M1167 1358v-189q52 27 74 87t16.5 127.5t-30.5 138.5h254q14 -48 19.5 -94.5t2 -100.5t-24.5 -103.5t-58 -95.5t-101.5 -84t-151.5 -63v-451q0 -277 -132.5 -416t-393.5 -139q-268 0 -395 131t-127 408v844h311v-811q0 -174 52 -246t167 -72t171.5 67t56.5 234v828h290z
" />
    <glyph glyph-name="uhorn" unicode="&#x1b0;" horiz-adv-x="1370" 
d="M408 1032v-659q0 -92 29.5 -130t101.5 -38q49 0 104 17.5t92 43.5v766h297v-182q52 27 74 86.5t16.5 127t-30.5 138.5h254q17 -58 22 -114t-7.5 -122t-47 -121t-106.5 -104.5t-175 -78.5v-662h-246l-16 113q-83 -61 -181 -97t-186 -36q-161 0 -226.5 70.5t-65.5 242.5
v739h297z" />
    <glyph glyph-name="Scommaaccent" unicode="&#x218;" horiz-adv-x="1193" 
d="M1073 1024l-303 -39q0 79 -44 116.5t-144 37.5q-86 0 -134.5 -36t-48.5 -91q0 -41 25 -71.5t67 -50t96.5 -35.5t114.5 -32.5t120.5 -36.5t115 -52t96.5 -74.5t67 -108.5t25 -150q0 -191 -152 -308.5t-421 -117.5q-259 0 -378.5 96.5t-119.5 307.5l312 41q0 -105 50 -152
t165 -47q102 0 153 39t51 105q0 48 -24.5 82.5t-66 55t-95.5 36.5t-113.5 31t-119 33t-113.5 48t-95.5 70.5t-66 106t-24.5 149.5q0 181 144 293t400 112q461 0 461 -358zM621 -369h-152l78 105h-88v186h286v-178z" />
    <glyph glyph-name="scommaaccent" unicode="&#x219;" horiz-adv-x="1017" 
d="M915 764l-258 -21q4 66 -34.5 94.5t-116.5 28.5q-70 0 -111 -28t-41 -78q0 -33 26 -55.5t69 -34.5t97.5 -25.5t111 -25t111 -35t97.5 -55t69 -86t26 -126.5q0 -155 -133 -248.5t-367 -93.5q-229 0 -320.5 75t-66.5 231l245 22q-10 -71 36 -103t145 -32q78 0 121 26.5
t43 75.5q0 36 -25.5 62t-67.5 39.5t-96 27t-110 25t-110 34.5t-96 53t-67.5 83t-25.5 123q0 158 118.5 249t337.5 91q125 0 216 -31.5t139.5 -98.5t37.5 -163zM535 -369h-152l78 105h-88v186h286v-178z" />
    <glyph glyph-name="Tcommaaccent" unicode="&#x21a;" horiz-adv-x="968" 
d="M641 0h-311v1100h-322v258h963l-21 -258h-309v-1100zM502 -367h-152l78 109h-88v197h287v-189z" />
    <glyph glyph-name="tcommaaccent" unicode="&#x21b;" horiz-adv-x="753" 
d="M674 240l49 -213q-140 -47 -309 -47q-147 0 -212 70.5t-65 238.5v518h-137v225h137v289l299 35v-324h266l-24 -225h-242v-455q0 -68 20 -100.5t72 -32.5q70 0 146 21zM440 -369h-151l78 105h-88v186h286v-178z" />
    <glyph glyph-name="dotlessj" unicode="&#x237;" horiz-adv-x="522" 
d="M74 -369l-109 207q76 36 112 87.5t36 129.5v977h297v-940q0 -201 -82 -305t-254 -156z" />
    <glyph glyph-name="circumflex" unicode="&#x2c6;" horiz-adv-x="872" 
d="M770 1165h-223l-113 156l-108 -156h-224l234 271h201z" />
    <glyph glyph-name="caron" unicode="&#x2c7;" horiz-adv-x="872" 
d="M537 1165h-201l-234 271h224l112 -156l109 156h223z" />
    <glyph glyph-name="breve" unicode="&#x2d8;" horiz-adv-x="888" 
d="M604 1440h182q-15 -120 -111 -197.5t-237 -77.5q-135 0 -227 74.5t-109 200.5h183q3 -53 45.5 -82t113.5 -29q149 0 160 111z" />
    <glyph glyph-name="dotaccent" unicode="&#x2d9;" horiz-adv-x="509" 
d="M408 1165h-306v256h306v-256z" />
    <glyph glyph-name="ring" unicode="&#x2da;" horiz-adv-x="659" 
d="M563 1362q0 -102 -62 -155.5t-179 -53.5q-114 0 -170 47t-56 146q0 102 62 155t180 53q114 0 169.5 -46.5t55.5 -145.5zM332 1268q38 0 54.5 21t16.5 65q0 86 -75 86q-72 0 -72 -86t76 -86z" />
    <glyph glyph-name="ogonek" unicode="&#x2db;" horiz-adv-x="598" 
d="M453 -180l43 -152q-81 -35 -193 -35q-207 0 -207 154q0 126 168 213h199q-121 -81 -121 -152q0 -21 11.5 -33t29.5 -12q31 0 70 17z" />
    <glyph glyph-name="tilde" unicode="&#x2dc;" horiz-adv-x="960" 
d="M686 1425l105 -88q-35 -77 -95.5 -124.5t-130.5 -47.5q-46 0 -92 20.5t-84.5 41t-66.5 20.5q-34 0 -60.5 -22.5t-54.5 -69.5l-105 88q35 77 95.5 124.5t130.5 47.5q46 0 92 -20.5t84.5 -41t66.5 -20.5q34 0 60.5 22.5t54.5 69.5z" />
    <glyph glyph-name="hungarumlaut" unicode="&#x2dd;" horiz-adv-x="1019" 
d="M641 1165h-182l180 279h279zM281 1165h-179l140 279h274z" />
    <glyph glyph-name="gravecomb" unicode="&#x300;" horiz-adv-x="0" 
d="M-354 1165h-178l-256 279h274z" />
    <glyph glyph-name="tildecomb" unicode="&#x303;" horiz-adv-x="0" 
d="M-332 1425l105 -88q-35 -77 -95.5 -124.5t-130.5 -47.5q-46 0 -92 20.5t-84.5 41t-66.5 20.5q-34 0 -60.5 -22.5t-54.5 -69.5l-104 88q35 77 95 124.5t130 47.5q46 0 92.5 -20.5t85 -41t66.5 -20.5q34 0 60 22.5t54 69.5z" />
    <glyph glyph-name="uni0309" unicode="&#x309;" horiz-adv-x="0" 
d="M-594 1118l-37 139q30 8 58 28.5t28 47.5q0 51 -82 51q-41 0 -88 -12t-67 -22l-43 159q129 54 268 54q117 0 180.5 -46.5t63.5 -134.5q0 -48 -22 -90t-53.5 -70t-72.5 -51t-72.5 -34.5t-60.5 -18.5z" />
    <glyph glyph-name="uni0312" unicode="&#x312;" horiz-adv-x="491" 
d="M389 1153h-287v188l125 117h152l-78 -108h88v-197z" />
    <glyph glyph-name="dotbelowcomb" unicode="&#x323;" horiz-adv-x="0" 
d="M-719 -133h297v-236h-297v236z" />
    <glyph glyph-name="uni0326" unicode="&#x326;" horiz-adv-x="491" 
d="M264 -367h-151l77 109h-88v197h287v-189z" />
    <glyph glyph-name="tonos" unicode="&#x384;" horiz-adv-x="598" 
d="M303 1165h-184l80 279h270z" />
    <glyph glyph-name="dieresistonos" unicode="&#x385;" horiz-adv-x="1067" 
d="M596 1165h-178l49 279h266zM367 1196h-205v197h205v-197zM942 1196h-205v197h205v-197z" />
    <glyph glyph-name="Alphatonos" unicode="&#x386;" horiz-adv-x="1224" 
d="M1219 0h-349q-28 133 -63 268h-451q-39 -146 -65 -268h-285q173 673 416 1358h379q224 -630 418 -1358zM420 508h321q-35 139 -106 381q-29 104 -53 201h-4q-17 -73 -52 -203q-91 -322 -106 -379zM209 1071h-195l31 367h281z" />
    <glyph glyph-name="Epsilontonos" unicode="&#x388;" horiz-adv-x="1265" 
d="M1212 0h-856v1358h871l-29 -254h-530v-285h432v-246h-432v-319h544v-254zM190 1071h-194l31 367h280z" />
    <glyph glyph-name="Etatonos" unicode="&#x389;" horiz-adv-x="1552" 
d="M1430 0h-312v575h-450v-575h-312v1358h312v-524h450v524h312v-1358zM190 1071h-194l31 367h280z" />
    <glyph glyph-name="Iotatonos" unicode="&#x38a;" horiz-adv-x="790" 
d="M668 0h-312v1358h312v-1358zM190 1071h-194l31 367h280z" />
    <glyph glyph-name="Omicrontonos" unicode="&#x38c;" horiz-adv-x="1417" 
d="M756 -25q-576 0 -576 668q0 127 22.5 237.5t70 203t117 158.5t169 103t221.5 37q576 0 576 -667q0 -98 -14 -187.5t-43.5 -173.5t-78 -152t-113 -119.5t-154.5 -79.5t-197 -28zM768 229q133 0 198.5 116.5t65.5 332.5q0 229 -63 339.5t-201 110.5q-134 0 -199 -116
t-65 -332q0 -229 63 -340t201 -111zM170 1071h-195l31 367h281z" />
    <glyph glyph-name="Upsilontonos" unicode="&#x38e;" horiz-adv-x="1411" 
d="M1020 0h-311v573q-226 411 -387 785h356q92 -246 211 -494h6q102 192 235 494h302q-181 -391 -412 -776v-582zM170 1071h-195l31 367h281z" />
    <glyph glyph-name="Omegatonos" unicode="&#x38f;" horiz-adv-x="1443" 
d="M193 0v242h256v20q-246 215 -246 508q0 274 160 443t434 169q285 0 430 -148t145 -427q0 -311 -252 -545v-20h262v-242h-512v262q179 240 179 508q0 183 -66 270.5t-199 87.5q-123 0 -190.5 -86.5t-67.5 -246.5q0 -293 179 -533v-262h-512zM170 1071h-195l31 367h281z
" />
    <glyph glyph-name="iotadieresistonos" unicode="&#x390;" horiz-adv-x="600" 
d="M590 223v-225q-84 -18 -197 -18q-287 0 -287 309v743h297v-680q0 -75 23 -104t78 -29zM346 1165h-178l49 279h266zM117 1196h-205v197h205v-197zM692 1196h-205v197h205v-197z" />
    <glyph glyph-name="Alpha" unicode="&#x391;" horiz-adv-x="1224" 
d="M1219 0h-349q-28 133 -63 268h-451q-39 -146 -65 -268h-285q173 673 416 1358h379q224 -630 418 -1358zM420 508h321q-35 139 -106 381q-29 104 -53 201h-4q-17 -73 -52 -203q-91 -322 -106 -379z" />
    <glyph glyph-name="Beta" unicode="&#x392;" horiz-adv-x="1171" 
d="M590 0h-467v1358h489q171 0 274.5 -41t145 -114t41.5 -187q0 -109 -56.5 -188t-168.5 -103v-4q128 -6 199 -88t71 -207q0 -190 -142 -308t-386 -118zM430 813h156q78 0 121 38.5t43 117.5q0 72 -41.5 110.5t-137.5 38.5h-141v-305zM430 242h158q93 0 145.5 43t52.5 121
q0 86 -49 130t-143 44h-164v-338z" />
    <glyph glyph-name="Gamma" unicode="&#x393;" horiz-adv-x="903" 
d="M434 0h-311v1358h788l-20 -258h-457v-1100z" />
    <glyph glyph-name="Delta" unicode="&#x394;" 
d="M31 0v207q136 502 364 1151h377q227 -632 365 -1151v-207h-1106zM477 817q-13 -56 -68.5 -257.5t-80.5 -305.5h448q-31 131 -84.5 328t-62.5 233q-66 276 -74 315h-4q-21 -95 -74 -313z" />
    <glyph glyph-name="Delta" unicode="&#x2206;" 
d="M31 0v207q136 502 364 1151h377q227 -632 365 -1151v-207h-1106zM477 817q-13 -56 -68.5 -257.5t-80.5 -305.5h448q-31 131 -84.5 328t-62.5 233q-66 276 -74 315h-4q-21 -95 -74 -313z" />
    <glyph glyph-name="Epsilon" unicode="&#x395;" horiz-adv-x="1032" 
d="M979 0h-856v1358h870l-28 -254h-531v-285h432v-246h-432v-319h545v-254z" />
    <glyph glyph-name="Zeta" unicode="&#x396;" horiz-adv-x="1085" 
d="M1014 0h-973v207l563 893h-530l22 258h901v-211l-561 -889h598z" />
    <glyph glyph-name="Eta" unicode="&#x397;" horiz-adv-x="1318" 
d="M1196 0h-311v575h-451v-575h-311v1358h311v-524h451v524h311v-1358z" />
    <glyph glyph-name="Theta" unicode="&#x398;" horiz-adv-x="1359" 
d="M668 -23q-607 0 -607 668q0 160 38 292.5t113.5 233.5t198 157t281.5 56q606 0 606 -667q0 -84 -10.5 -161.5t-33.5 -152t-58 -138t-86 -117t-114.5 -91.5t-147 -59t-180.5 -21zM678 229q297 0 297 449q0 229 -70.5 339.5t-226.5 110.5q-149 0 -221 -116t-72 -332
q0 -229 70 -340t223 -111zM872 561h-385v246h385v-246z" />
    <glyph glyph-name="Iota" unicode="&#x399;" horiz-adv-x="557" 
d="M434 0h-311v1358h311v-1358z" />
    <glyph glyph-name="Kappa" unicode="&#x39a;" horiz-adv-x="1196" 
d="M1206 0h-411l-361 633v-633h-311v1358h311v-590l340 590h375l-422 -629z" />
    <glyph glyph-name="Lambda" unicode="&#x39b;" 
d="M395 1358h377q237 -684 389 -1358h-348q-50 247 -190 807q-5 19 -31 127.5t-37 155.5h-4q-44 -188 -76 -310q-133 -527 -184 -780h-285q163 710 389 1358z" />
    <glyph glyph-name="Mu" unicode="&#x39c;" horiz-adv-x="1660" 
d="M1079 1358h422q80 -682 107 -1358h-318q-9 405 -28 709q-18 280 -23 407h-4q-35 -170 -88 -350l-225 -766h-230l-225 766q-54 186 -88 350h-4q-4 -117 -23 -407q-22 -327 -28 -709h-271q24 605 107 1358h422l192 -656q35 -127 55 -237h5q25 133 57 252z" />
    <glyph glyph-name="Nu" unicode="&#x39d;" horiz-adv-x="1312" 
d="M1190 0h-338l-348 717q-74 151 -139 346h-5q19 -230 19 -385v-678h-256v1358h407l248 -514q101 -206 168 -412h4q-16 226 -16 445v481h256v-1358z" />
    <glyph glyph-name="Xi" unicode="&#x39e;" horiz-adv-x="921" 
d="M152 573v246h618v-246h-618zM31 0v254h860v-254h-860zM891 1104h-860v254h860v-254z" />
    <glyph glyph-name="Omicron" unicode="&#x39f;" horiz-adv-x="1298" 
d="M637 -25q-576 0 -576 668q0 160 36.5 292.5t108.5 233.5t188.5 157t267.5 56q575 0 575 -667q0 -98 -14 -187.5t-43.5 -173.5t-78 -152t-113 -119.5t-154.5 -79.5t-197 -28zM649 229q133 0 198.5 116.5t65.5 332.5q0 229 -63 339.5t-201 110.5q-134 0 -199 -116t-65 -332
q0 -229 63 -340t201 -111z" />
    <glyph glyph-name="Pi" unicode="&#x3a0;" horiz-adv-x="1302" 
d="M1180 0h-312v1104h-434v-1104h-311v1358h1057v-1358z" />
    <glyph glyph-name="Rho" unicode="&#x3a1;" horiz-adv-x="1122" 
d="M434 0h-311v1358h459q254 0 376.5 -105.5t122.5 -330.5q0 -216 -156.5 -350t-441.5 -134h-49v-438zM434 678h80q242 0 242 223q0 217 -213 217h-109v-440z" />
    <glyph glyph-name="Sigma" unicode="&#x3a3;" horiz-adv-x="1069" 
d="M1006 1116h-545l323 -420l-340 -454h586v-242h-958v207l356 475l-356 463v213h934v-242z" />
    <glyph glyph-name="Tau" unicode="&#x3a4;" horiz-adv-x="968" 
d="M641 0h-311v1100h-322v258h963l-21 -258h-309v-1100z" />
    <glyph glyph-name="Upsilon" unicode="&#x3a5;" horiz-adv-x="1069" 
d="M678 0h-311v573q-226 411 -387 785h356q92 -246 211 -494h6q102 192 235 494h302q-181 -391 -412 -776v-582z" />
    <glyph glyph-name="Phi" unicode="&#x3a6;" horiz-adv-x="1642" 
d="M668 1358v149h307v-149q290 -12 448 -174.5t158 -470.5q0 -324 -163 -512.5t-443 -200.5v-154h-307v154q-289 12 -448 174t-159 471q0 324 163.5 512.5t443.5 200.5zM975 1120v-882q130 8 208.5 118.5t78.5 321.5q0 221 -69.5 327t-217.5 115zM668 238v882
q-130 -8 -208.5 -118t-78.5 -324q0 -219 69.5 -325t217.5 -115z" />
    <glyph glyph-name="Chi" unicode="&#x3a7;" horiz-adv-x="1161" 
d="M1161 8l-381 -33l-227 480q-120 -228 -236 -455h-337q241 402 432 707l-387 643l385 32l198 -407q141 325 166 383h354q-333 -547 -376 -615z" />
    <glyph glyph-name="Psi" unicode="&#x3a8;" horiz-adv-x="1576" 
d="M1206 887v471h320v-440q0 -571 -584 -619v-299h-307v299q-303 25 -443.5 161t-140.5 400v498h320v-467q0 -179 62.5 -259t201.5 -95v821h307v-821q138 15 201 97.5t63 252.5z" />
    <glyph glyph-name="Omega" unicode="&#x3a9;" horiz-adv-x="1312" 
d="M61 0v242h256v20q-245 214 -245 508q0 274 160 443t434 169q285 0 430 -148t145 -427q0 -311 -252 -545v-20h262v-242h-512v262q179 240 179 508q0 183 -66 270.5t-199 87.5q-123 0 -190.5 -86.5t-67.5 -246.5q0 -295 178 -533v-262h-512z" />
    <glyph glyph-name="Omega" unicode="&#x2126;" horiz-adv-x="1312" 
d="M61 0v242h256v20q-245 214 -245 508q0 274 160 443t434 169q285 0 430 -148t145 -427q0 -311 -252 -545v-20h262v-242h-512v262q179 240 179 508q0 183 -66 270.5t-199 87.5q-123 0 -190.5 -86.5t-67.5 -246.5q0 -295 178 -533v-262h-512z" />
    <glyph glyph-name="Iotadieresis" unicode="&#x3aa;" horiz-adv-x="557" 
d="M434 0h-311v1358h311v-1358zM571 1475h-221v213h221v-213zM207 1475h-221v213h221v-213z" />
    <glyph glyph-name="Upsilondieresis" unicode="&#x3ab;" horiz-adv-x="1069" 
d="M678 0h-311v573q-226 411 -387 785h356q92 -246 211 -494h6q102 192 235 494h302q-181 -391 -412 -776v-582zM827 1475h-221v213h221v-213zM463 1475h-221v213h221v-213z" />
    <glyph glyph-name="alphatonos" unicode="&#x3ac;" horiz-adv-x="1132" 
d="M723 274v566q-47 18 -102 18q-111 0 -178.5 -89.5t-67.5 -250.5q0 -175 40 -249t113 -74q96 0 195 79zM1020 1012v-1012h-246l-16 106q-163 -126 -326 -126q-182 0 -276.5 121t-94.5 358q0 284 146.5 439t454.5 155q212 0 358 -41zM686 1165h-184l80 279h270z" />
    <glyph glyph-name="epsilontonos" unicode="&#x3ad;" horiz-adv-x="1046" 
d="M524 -25q-206 0 -334.5 84.5t-128.5 225.5q0 99 67 166.5t175 76.5v2q-96 22 -153.5 82t-57.5 138q0 133 120 220t339 87q357 0 422 -287l-268 -57q-17 75 -55 107t-107 32q-62 0 -98.5 -27.5t-36.5 -66.5q0 -58 48.5 -93.5t123.5 -35.5h61v-209h-92q-84 0 -127 -29.5
t-43 -81.5q0 -55 46.5 -84.5t137.5 -29.5q171 0 293 122l137 -163q-199 -179 -469 -179zM618 1165h-184l80 279h270z" />
    <glyph glyph-name="etatonos" unicode="&#x3ae;" horiz-adv-x="1155" 
d="M741 1053q88 0 143 -20t94 -75.5t55 -152.5t16 -252q0 -189 -21.5 -414.5t-43.5 -356.5l-21 -130h-297q10 51 24 137t38 314t24 409q0 130 -16.5 199.5t-46 92.5t-83.5 23q-49 0 -104 -17.5t-92 -43.5v-766h-297v1032h245l17 -112q83 61 180.5 97t185.5 36zM700 1165
h-184l80 279h270z" />
    <glyph glyph-name="iotatonos" unicode="&#x3af;" horiz-adv-x="600" 
d="M610 223v-225q-83 -18 -196 -18q-287 0 -287 309v743h297v-680q0 -75 22.5 -104t77.5 -29zM358 1165h-184l80 279h270z" />
    <glyph glyph-name="upsilondieresistonos" unicode="&#x3b0;" horiz-adv-x="1134" 
d="M1028 1032v-571q0 -245 -121.5 -365.5t-353.5 -120.5q-231 0 -339 109.5t-108 353.5v594h297v-571q0 -161 38.5 -223t127.5 -62q83 0 122.5 57.5t39.5 204.5v594h297zM606 1165h-178l49 279h266zM377 1196h-205v197h205v-197zM952 1196h-204v197h204v-197z" />
    <glyph glyph-name="alpha" unicode="&#x3b1;" horiz-adv-x="1132" 
d="M723 274v566q-47 18 -102 18q-111 0 -178.5 -89.5t-67.5 -250.5q0 -175 40 -249t113 -74q96 0 195 79zM1020 1012v-1012h-246l-16 106q-163 -126 -326 -126q-182 0 -276.5 121t-94.5 358q0 284 146.5 439t454.5 155q212 0 358 -41z" />
    <glyph glyph-name="beta" unicode="&#x3b2;" horiz-adv-x="1105" 
d="M113 -348v1208q0 317 109.5 451.5t355.5 134.5q195 0 310.5 -92.5t115.5 -245.5q0 -113 -52.5 -198.5t-150.5 -135.5q239 -63 239 -340q0 -214 -128 -336.5t-349 -122.5q-77 0 -153 17v-340h-297zM510 610v215q83 0 131.5 62.5t48.5 187.5q0 83 -34 126.5t-95 43.5
q-52 0 -83.5 -28.5t-49.5 -104.5t-18 -207v-706q61 -23 131 -23q81 0 130.5 58t49.5 174q0 103 -52 152.5t-159 49.5z" />
    <glyph glyph-name="gamma" unicode="&#x3b3;" horiz-adv-x="1013" 
d="M655 -348h-297v348q-206 545 -338 1032h312q32 -132 83.5 -315.5t55.5 -200.5q37 -150 57 -258h4q15 77 56 252q10 40 61.5 220.5t81.5 301.5h262q-135 -491 -338 -1032v-348z" />
    <glyph glyph-name="delta" unicode="&#x3b4;" horiz-adv-x="1120" 
d="M145 1114q0 332 478 332q80 0 158.5 -7t117.5 -13l39 -7l-37 -243q-154 32 -287 32q-99 0 -139.5 -19t-40.5 -56q0 -25 34 -47t88.5 -43t120.5 -47.5t132.5 -68t121 -96t88.5 -140t34 -191.5q0 -253 -131.5 -389t-376.5 -136q-236 0 -356.5 115.5t-120.5 368.5
q0 155 73.5 264.5t204.5 157.5q-201 64 -201 233zM739 461q0 254 -194 332q-164 -88 -164 -310q0 -163 43.5 -235t134.5 -72t135.5 69t44.5 216z" />
    <glyph glyph-name="epsilon" unicode="&#x3b5;" horiz-adv-x="1042" 
d="M524 -25q-206 0 -334.5 84.5t-128.5 225.5q0 99 67 166.5t175 76.5v2q-96 22 -153.5 82t-57.5 138q0 133 120 220t339 87q357 0 422 -287l-268 -57q-17 75 -55 107t-107 32q-62 0 -98.5 -27.5t-36.5 -66.5q0 -58 48.5 -93.5t123.5 -35.5h61v-209h-92q-84 0 -127 -29.5
t-43 -81.5q0 -55 46.5 -84.5t137.5 -29.5q171 0 293 122l137 -163q-199 -179 -469 -179z" />
    <glyph glyph-name="zeta" unicode="&#x3b6;" horiz-adv-x="856" 
d="M596 -25h-68q-235 0 -353 104.5t-118 291.5q0 105 35 206t136.5 255t287.5 374h-418l25 219h698v-194q-189 -252 -291.5 -414.5t-135 -248t-32.5 -160.5q0 -107 59.5 -156t184.5 -49h2q132 0 185 -53.5t53 -188.5q0 -139 -39 -264h-211v278z" />
    <glyph glyph-name="eta" unicode="&#x3b7;" horiz-adv-x="1150" 
d="M741 1053q88 0 143 -20t94 -75.5t55 -152.5t16 -252q0 -189 -21.5 -414.5t-43.5 -356.5l-21 -130h-297q10 51 24 137t38 314t24 409q0 130 -16.5 199.5t-46 92.5t-83.5 23q-49 0 -104 -17.5t-92 -43.5v-766h-297v1032h245l17 -112q83 61 180.5 97t185.5 36z" />
    <glyph glyph-name="theta" unicode="&#x3b8;" horiz-adv-x="1122" 
d="M545 -25q-245 0 -359 169t-114 532q0 377 128 569.5t378 192.5q245 0 359 -169t114 -532q0 -377 -128 -569.5t-378 -192.5zM561 176q88 0 130 101.5t46 332.5h-352q5 -162 26 -257.5t57 -136t93 -40.5zM559 1237q-87 0 -128.5 -97t-47.5 -315h352q-10 226 -51.5 319
t-124.5 93z" />
    <glyph glyph-name="iota" unicode="&#x3b9;" horiz-adv-x="600" 
d="M590 223v-225q-84 -18 -197 -18q-287 0 -287 309v743h297v-680q0 -75 23 -104t78 -29z" />
    <glyph glyph-name="kappa" unicode="&#x3ba;" horiz-adv-x="1081" 
d="M1075 0h-379l-286 492v-492h-297v1032h297v-424l325 424h332l-373 -452z" />
    <glyph glyph-name="lambda" unicode="&#x3bb;" horiz-adv-x="1015" 
d="M279 0h-269q147 489 342 1032l-141 393h303q120 -316 253.5 -714t227.5 -711h-311q-32 120 -83.5 294.5t-65.5 227.5q-38 147 -52 252h-4q-19 -128 -51 -252q-7 -26 -61 -209t-88 -313z" />
    <glyph glyph-name="nu" unicode="&#x3bd;" horiz-adv-x="999" 
d="M641 0h-283q-206 545 -338 1032h312q32 -132 83.5 -315.5t55.5 -200.5q33 -136 51 -258h4q23 151 49 252q7 26 56.5 201t85.5 321h262q-135 -491 -338 -1032z" />
    <glyph glyph-name="xi" unicode="&#x3be;" horiz-adv-x="890" 
d="M737 881v-219h-84q-127 0 -199.5 -68.5t-72.5 -169.5q0 -105 63 -163t187 -58h2q131 0 184 -53t53 -189q0 -139 -39 -264h-210v278h-68q-239 0 -365.5 110.5t-126.5 303.5q0 141 82.5 242t223.5 135q-107 19 -176.5 96t-69.5 180q0 186 133.5 295t374.5 109
q60 0 118.5 -7t86.5 -13l28 -7l-41 -219q-92 31 -188 31t-146.5 -44.5t-50.5 -115.5q0 -190 232 -190h69z" />
    <glyph glyph-name="omicron" unicode="&#x3bf;" horiz-adv-x="1153" 
d="M559 -25q-256 0 -377 125.5t-121 393.5q0 278 135 420.5t398 142.5q256 0 377 -125t121 -393q0 -278 -135 -421t-398 -143zM578 176q99 0 146.5 71t47.5 245q0 142 -23 223t-64 111t-110 30q-99 0 -146.5 -70.5t-47.5 -244.5q0 -142 23 -223t64 -111.5t110 -30.5z" />
    <glyph glyph-name="pi" unicode="&#x3c0;" horiz-adv-x="1359" 
d="M180 0l41 803h-205v229h1323l-24 -229h-232q0 -139 2.5 -232.5t10.5 -160.5t17 -103.5t28.5 -57t39 -25.5t52.5 -5l92 6v-225q-92 -20 -203 -20q-182 0 -256 122q-40 66 -60 225.5t-20 475.5h-268l-41 -803h-297z" />
    <glyph glyph-name="rho" unicode="&#x3c1;" horiz-adv-x="1122" 
d="M399 -348h-297v868q0 264 125 400.5t371 136.5q234 0 348.5 -121t114.5 -377q0 -281 -147 -432.5t-418 -151.5q-50 0 -95 9zM399 567v-377q45 -20 105 -20q110 0 177 90t67 252q0 196 -43 270t-134 74q-172 0 -172 -289z" />
    <glyph glyph-name="sigma1" unicode="&#x3c2;" horiz-adv-x="991" 
d="M651 203h60q131 0 184 -53t53 -189q0 -139 -39 -264h-211v278h-118q-270 0 -394.5 122.5t-124.5 402.5q0 266 126 411.5t370 145.5q220 0 319.5 -113t79.5 -344h-294q10 133 -20.5 191.5t-102.5 58.5t-116 -83t-44 -232q0 -99 15 -163t49.5 -102t83.5 -52.5t124 -14.5z
" />
    <glyph glyph-name="sigma" unicode="&#x3c3;" horiz-adv-x="1224" 
d="M559 -25q-256 0 -377 122t-121 384q0 551 555 551h598v-231l-174 12q-47 3 -108 18q78 -54 119 -145.5t41 -210.5q0 -231 -139.5 -365.5t-393.5 -134.5zM578 176q194 0 194 291q0 143 -23 224t-64 110.5t-110 29.5q-96 0 -145 -70t-49 -233q0 -137 23 -215.5t64 -107.5
t110 -29z" />
    <glyph glyph-name="tau" unicode="&#x3c4;" horiz-adv-x="907" 
d="M780 227v-225q-102 -22 -215 -22q-286 0 -286 309v514h-263v229h871l-25 -229h-287v-451q0 -75 23 -104t78 -29q25 0 51 2t39 4z" />
    <glyph glyph-name="upsilon" unicode="&#x3c5;" horiz-adv-x="1134" 
d="M1028 1032v-571q0 -245 -121.5 -365.5t-353.5 -120.5q-231 0 -339 109.5t-108 353.5v594h297v-571q0 -161 38.5 -223t127.5 -62q83 0 122.5 57.5t39.5 204.5v594h297z" />
    <glyph glyph-name="phi" unicode="&#x3c6;" horiz-adv-x="1542" 
d="M625 176v680q-248 -15 -248 -321q0 -130 28 -208t81 -112t139 -39zM918 1288v-231q287 -15 425 -141t138 -377q0 -253 -144 -400t-419 -164v-323h-293v323q-287 15 -425.5 141.5t-138.5 377.5q0 253 144 399.5t420 163.5v231h293zM918 856v-680q247 15 247 322
q0 130 -28 208t-80.5 111.5t-138.5 38.5z" />
    <glyph glyph-name="chi" unicode="&#x3c7;" horiz-adv-x="1034" 
d="M999 1032l-303 -473l334 -559l-352 -20l-189 346q-90 -155 -170 -326h-315l344 528l-303 504l352 21l158 -299q70 132 135 278h309z" />
    <glyph glyph-name="psi" unicode="&#x3c8;" horiz-adv-x="1579" 
d="M643 -348v323q-208 10 -324.5 63t-166.5 159.5t-50 291.5v543h297v-520q0 -185 49 -253t195 -83v1112h293v-1112q134 15 189 83t55 230v543h297v-520q0 -266 -129.5 -392t-411.5 -143v-325h-293z" />
    <glyph glyph-name="omega" unicode="&#x3c9;" horiz-adv-x="1503" 
d="M1137 492q0 275 -131 540h272q164 -227 164 -491q0 -283 -120 -424.5t-333 -141.5q-82 0 -148.5 36.5t-105.5 109.5q-46 -77 -113 -111.5t-173 -34.5q-171 0 -279.5 128.5t-108.5 365.5q0 143 43 292.5t119 270.5h277q-133 -263 -133 -520q0 -122 16 -197t41.5 -103
t62.5 -28q41 0 66.5 24t41 93.5t15.5 190.5v237h283v-188q0 -148 14 -227t38 -104.5t67 -25.5q40 0 66.5 26t42.5 96t16 186z" />
    <glyph glyph-name="iotadieresis" unicode="&#x3ca;" horiz-adv-x="600" 
d="M590 223v-225q-84 -18 -197 -18q-287 0 -287 309v743h297v-680q0 -75 23 -104t78 -29zM549 1165h-234v226h234v-226zM193 1165h-234v226h234v-226z" />
    <glyph glyph-name="upsilondieresis" unicode="&#x3cb;" horiz-adv-x="1134" 
d="M1028 1032v-571q0 -245 -121.5 -365.5t-353.5 -120.5q-231 0 -339 109.5t-108 353.5v594h297v-571q0 -161 38.5 -223t127.5 -62q83 0 122.5 57.5t39.5 204.5v594h297zM877 1165h-234v226h234v-226zM520 1165h-233v226h233v-226z" />
    <glyph glyph-name="omicrontonos" unicode="&#x3cc;" horiz-adv-x="1153" 
d="M559 -25q-256 0 -377 125.5t-121 393.5q0 278 135 420.5t398 142.5q256 0 377 -125t121 -393q0 -278 -135 -421t-398 -143zM578 176q99 0 146.5 71t47.5 245q0 142 -23 223t-64 111t-110 30q-99 0 -146.5 -70.5t-47.5 -244.5q0 -142 23 -223t64 -111.5t110 -30.5z
M653 1165h-184l80 279h270z" />
    <glyph glyph-name="upsilontonos" unicode="&#x3cd;" horiz-adv-x="1134" 
d="M1028 1032v-571q0 -245 -121.5 -365.5t-353.5 -120.5q-231 0 -339 109.5t-108 353.5v594h297v-571q0 -161 38.5 -223t127.5 -62q83 0 122.5 57.5t39.5 204.5v594h297zM627 1165h-185l80 279h271z" />
    <glyph glyph-name="omegatonos" unicode="&#x3ce;" horiz-adv-x="1501" 
d="M1137 492q0 275 -131 540h272q164 -227 164 -491q0 -283 -120 -424.5t-333 -141.5q-82 0 -148.5 36.5t-105.5 109.5q-46 -77 -113 -111.5t-173 -34.5q-171 0 -279.5 128.5t-108.5 365.5q0 143 43 292.5t119 270.5h277q-133 -263 -133 -520q0 -122 16 -197t41.5 -103
t62.5 -28q41 0 66.5 24t41 93.5t15.5 190.5v237h283v-188q0 -148 14 -227t38 -104.5t67 -25.5q40 0 66.5 26t42.5 96t16 186zM817 1165h-184l80 279h270z" />
    <glyph glyph-name="uni0401" unicode="&#x401;" horiz-adv-x="1032" 
d="M979 0h-856v1358h870l-28 -254h-531v-285h432v-246h-432v-319h545v-254zM850 1475h-221v213h221v-213zM485 1475h-221v213h221v-213z" />
    <glyph glyph-name="uni0402" unicode="&#x402;" horiz-adv-x="1368" 
d="M803 0v244q94 0 151.5 44.5t57.5 129.5q0 184 -215 184h-160v-602h-311v1104h-314v254h942l-20 -254h-297v-266h170q259 0 391.5 -106.5t132.5 -299.5q0 -198 -142.5 -315t-385.5 -117z" />
    <glyph glyph-name="uni0403" unicode="&#x403;" horiz-adv-x="894" 
d="M434 0h-311v1358h788l-20 -258h-457v-1100zM604 1456h-182l156 213h278z" />
    <glyph glyph-name="uni0404" unicode="&#x404;" horiz-adv-x="1202" 
d="M768 561h-377q15 -180 75.5 -257t176.5 -77q86 0 151 51.5t99 157.5l268 -78q-60 -181 -201 -282t-335 -101q-285 0 -424.5 163.5t-139.5 506.5q0 346 158 541.5t443 195.5q234 0 357 -109.5t128 -289.5l-293 -45q-6 99 -55.5 147t-147.5 48q-112 0 -176 -81t-84 -247
h402z" />
    <glyph glyph-name="uni0405" unicode="&#x405;" horiz-adv-x="1193" 
d="M1073 1024l-303 -39q0 79 -44 116.5t-144 37.5q-86 0 -134.5 -36t-48.5 -91q0 -41 25 -71.5t67 -50t96.5 -35.5t114.5 -32.5t120.5 -36.5t115 -52t96.5 -74.5t67 -108.5t25 -150q0 -191 -152 -308.5t-421 -117.5q-259 0 -378.5 96.5t-119.5 307.5l312 41q0 -105 50 -152
t165 -47q102 0 153 39t51 105q0 48 -24.5 82.5t-66 55t-95.5 36.5t-113.5 31t-119 33t-113.5 48t-95.5 70.5t-66 106t-24.5 149.5q0 181 144 293t400 112q461 0 461 -358z" />
    <glyph glyph-name="uni0406" unicode="&#x406;" horiz-adv-x="557" 
d="M434 0h-311v1358h311v-1358z" />
    <glyph glyph-name="uni0407" unicode="&#x407;" horiz-adv-x="557" 
d="M434 0h-311v1358h311v-1358zM569 1475h-221v213h221v-213zM205 1475h-221v213h221v-213z" />
    <glyph glyph-name="uni0408" unicode="&#x408;" horiz-adv-x="679" 
d="M18 -4v246q31 -4 68 -4q97 0 132.5 46t35.5 162v912h311v-897q0 -250 -109.5 -364.5t-314.5 -114.5q-65 0 -123 14z" />
    <glyph glyph-name="uni0409" unicode="&#x409;" horiz-adv-x="1851" 
d="M1137 868h159q258 0 388.5 -111t130.5 -308q0 -208 -141 -328.5t-386 -120.5h-459v1104h-274q-6 -153 -13.5 -277.5t-18.5 -227.5t-23.5 -183t-31 -143t-37.5 -107.5t-46 -77t-54 -52t-63.5 -31t-72.5 -15.5t-84 -4q-21 0 -46 3.5t-40 6.5l-15 4v238q26 0 48.5 -1.5
t41.5 7.5t35.5 23t31 45t26.5 72.5t22 105.5t18.5 144t16 188.5t14 239.5t12.5 296h861v-490zM1137 244h157q92 0 146.5 47t54.5 139q0 102 -50.5 150.5t-156.5 48.5h-151v-385z" />
    <glyph glyph-name="uni040A" unicode="&#x40a;" horiz-adv-x="1884" 
d="M1169 868h160q258 0 388 -111t130 -308q0 -208 -140.5 -328.5t-385.5 -120.5h-459v575h-428v-575h-311v1358h311v-524h428v524h307v-490zM1169 629v-385h158q92 0 146.5 47t54.5 139q0 102 -50.5 150.5t-156.5 48.5h-152z" />
    <glyph glyph-name="uni040B" unicode="&#x40b;" horiz-adv-x="1386" 
d="M1346 0h-312v348q0 88 -10 138.5t-40 84t-79 45t-133 11.5l-135 -4v-623h-311v1104h-314v254h940l-20 -254h-295v-236q100 2 149 2q166 0 272 -22t171.5 -75.5t91 -135.5t25.5 -211v-426z" />
    <glyph glyph-name="uni040C" unicode="&#x40c;" horiz-adv-x="1210" 
d="M123 0v1358h311v-533h68l286 533h371l-395 -629l453 -729h-408l-307 582h-68v-582h-311zM676 1456h-182l155 213h279z" />
    <glyph glyph-name="uni040E" unicode="&#x40e;" horiz-adv-x="1155" 
d="M864 1358h301q-40 -116 -118.5 -350t-118.5 -351q-50 -145 -93.5 -248.5t-91 -180.5t-93.5 -124t-105 -75.5t-120.5 -38.5t-145.5 -10q-72 0 -144 14v252q81 -15 166 -15q123 0 188 91q-264 519 -483 1036h348q47 -125 131.5 -325.5t89.5 -213.5q47 -115 72 -227h4
q21 108 58 239q7 23 36.5 120t61 204t57.5 203zM264 1749h230q1 -76 32.5 -110.5t96.5 -34.5q124 0 127 145h229q0 -142 -98 -222.5t-267 -80.5q-181 0 -265.5 76.5t-84.5 226.5z" />
    <glyph glyph-name="uni040F" unicode="&#x40f;" horiz-adv-x="1286" 
d="M520 0h-397v1358h311v-1104h418v1104h311v-1358h-397l-6 -313h-234z" />
    <glyph glyph-name="uni0410" unicode="&#x410;" horiz-adv-x="1224" 
d="M1219 0h-349q-28 133 -63 268h-451q-39 -146 -65 -268h-285q173 673 416 1358h379q224 -630 418 -1358zM420 508h321q-35 139 -106 381q-29 104 -53 201h-4q-17 -73 -52 -203q-91 -322 -106 -379z" />
    <glyph glyph-name="uni0411" unicode="&#x411;" 
d="M123 1358h905l-20 -254h-578v-266h170q259 0 391.5 -106t132.5 -298q0 -203 -145 -318.5t-387 -115.5h-469v1358zM430 244h166q94 0 151.5 44.5t57.5 129.5q0 184 -215 184h-160v-358z" />
    <glyph glyph-name="uni0412" unicode="&#x412;" horiz-adv-x="1171" 
d="M590 0h-467v1358h489q171 0 274.5 -41t145 -114t41.5 -187q0 -109 -56.5 -188t-168.5 -103v-4q128 -6 199 -88t71 -207q0 -190 -142 -308t-386 -118zM430 813h156q78 0 121 38.5t43 117.5q0 72 -41.5 110.5t-137.5 38.5h-141v-305zM430 242h158q93 0 145.5 43t52.5 121
q0 86 -49 130t-143 44h-164v-338z" />
    <glyph glyph-name="uni0413" unicode="&#x413;" horiz-adv-x="894" 
d="M434 0h-311v1358h788l-20 -258h-457v-1100z" />
    <glyph glyph-name="uni0414" unicode="&#x414;" horiz-adv-x="1406" 
d="M479 254h400v850h-299q-17 -593 -101 -850zM14 254h170q52 94 81 330t46 774h879v-1104h196l-10 -567h-233l-6 313h-873l-6 -313h-233z" />
    <glyph glyph-name="uni0415" unicode="&#x415;" horiz-adv-x="1032" 
d="M979 0h-856v1358h870l-28 -254h-531v-285h432v-246h-432v-319h545v-254z" />
    <glyph glyph-name="uni0416" unicode="&#x416;" horiz-adv-x="1847" 
d="M770 0v582h-65l-310 -582h-401l455 729l-398 629h365l286 -533h68v533h307v-533h68l287 533h364l-397 -629l454 -729h-401l-309 582h-66v-582h-307z" />
    <glyph glyph-name="uni0417" unicode="&#x417;" horiz-adv-x="1181" 
d="M567 -25q-438 0 -526 377l270 94q28 -109 99 -164t170 -55q93 0 157 47.5t64 122.5q0 83 -63.5 129.5t-176.5 46.5h-155v244h98q124 0 197 44.5t73 119.5q0 71 -52.5 111.5t-154.5 40.5q-193 0 -215 -195l-286 51q18 180 152 286.5t372 106.5q241 0 372.5 -92.5
t131.5 -249.5q0 -105 -63 -194t-173 -129q128 -29 199 -111t71 -200q0 -186 -154 -308.5t-407 -122.5z" />
    <glyph glyph-name="uni0418" unicode="&#x418;" horiz-adv-x="1325" 
d="M391 0h-268v1358h311v-477q0 -234 -33 -437h7q60 146 137 275l389 639h268v-1358h-311v477q0 233 33 436h-6q-57 -138 -138 -274z" />
    <glyph glyph-name="uni0419" unicode="&#x419;" horiz-adv-x="1325" 
d="M391 0h-268v1358h311v-477q0 -234 -33 -437h7q60 146 137 275l389 639h268v-1358h-311v477q0 233 33 436h-6q-57 -138 -138 -274zM332 1749h229q1 -76 32.5 -110.5t96.5 -34.5q124 0 127 145h230q0 -142 -98 -222.5t-267 -80.5q-181 0 -265.5 76.5t-84.5 226.5z" />
    <glyph glyph-name="uni041A" unicode="&#x41a;" horiz-adv-x="1210" 
d="M123 0v1358h311v-533h68l286 533h371l-395 -629l453 -729h-408l-307 582h-68v-582h-311z" />
    <glyph glyph-name="uni041B" unicode="&#x41b;" horiz-adv-x="1284" 
d="M10 0v238q26 0 48.5 -1.5t41.5 7.5t35.5 23t31 45t26.5 72.5t22 105.5t18.5 144t16 188.5t14 239.5t12.5 296h885v-1358h-311v1104h-295q-6 -153 -13.5 -277.5t-18.5 -227.5t-23.5 -183t-31 -143t-37.5 -107.5t-46 -77t-54 -52t-63.5 -31t-72.5 -15.5t-84 -4
q-21 0 -46 3.5t-40 6.5z" />
    <glyph glyph-name="uni041C" unicode="&#x41c;" horiz-adv-x="1660" 
d="M1079 1358h422q80 -682 107 -1358h-318q-9 405 -28 709q-18 280 -23 407h-4q-35 -170 -88 -350l-225 -766h-230l-225 766q-54 186 -88 350h-4q-4 -117 -23 -407q-22 -327 -28 -709h-271q24 605 107 1358h422l192 -656q35 -127 55 -237h5q25 133 57 252z" />
    <glyph glyph-name="uni041D" unicode="&#x41d;" horiz-adv-x="1318" 
d="M1196 0h-311v575h-451v-575h-311v1358h311v-524h451v524h311v-1358z" />
    <glyph glyph-name="uni041E" unicode="&#x41e;" horiz-adv-x="1298" 
d="M637 -25q-576 0 -576 668q0 160 36.5 292.5t108.5 233.5t188.5 157t267.5 56q575 0 575 -667q0 -98 -14 -187.5t-43.5 -173.5t-78 -152t-113 -119.5t-154.5 -79.5t-197 -28zM649 229q133 0 198.5 116.5t65.5 332.5q0 229 -63 339.5t-201 110.5q-134 0 -199 -116t-65 -332
q0 -229 63 -340t201 -111z" />
    <glyph glyph-name="uni041F" unicode="&#x41f;" horiz-adv-x="1302" 
d="M1180 0h-312v1104h-434v-1104h-311v1358h1057v-1358z" />
    <glyph glyph-name="uni0420" unicode="&#x420;" horiz-adv-x="1122" 
d="M434 0h-311v1358h459q254 0 376.5 -105.5t122.5 -330.5q0 -216 -156.5 -350t-441.5 -134h-49v-438zM434 678h80q242 0 242 223q0 217 -213 217h-109v-440z" />
    <glyph glyph-name="uni0421" unicode="&#x421;" horiz-adv-x="1220" 
d="M842 463h323q-15 -213 -163.5 -350.5t-389.5 -137.5q-263 0 -406 174t-143 486q0 168 36 304t107.5 235.5t184 153.5t258.5 54q256 0 383.5 -134.5t108.5 -358.5l-318 -35q12 274 -192 274q-122 0 -181 -119.5t-59 -334.5q0 -231 59.5 -338t180.5 -107q96 0 148.5 66.5
t62.5 167.5z" />
    <glyph glyph-name="uni0422" unicode="&#x422;" horiz-adv-x="968" 
d="M641 0h-311v1100h-322v258h963l-21 -258h-309v-1100z" />
    <glyph glyph-name="uni0423" unicode="&#x423;" horiz-adv-x="1155" 
d="M864 1358h301q-40 -116 -118.5 -350t-118.5 -351q-50 -145 -93.5 -248.5t-91 -180.5t-93.5 -124t-105 -75.5t-120.5 -38.5t-145.5 -10q-72 0 -144 14v252q81 -15 166 -15q123 0 188 91q-264 519 -483 1036h348q47 -125 131.5 -325.5t89.5 -213.5q47 -115 72 -227h4
q21 108 58 239q7 23 36.5 120t61 204t57.5 203z" />
    <glyph glyph-name="uni0424" unicode="&#x424;" horiz-adv-x="1585" 
d="M946 1470v-139q307 -25 450.5 -159.5t143.5 -389.5q0 -271 -146.5 -426.5t-447.5 -179.5v-201h-307v201q-307 25 -450.5 159.5t-143.5 389.5q0 271 146.5 426.5t447.5 179.5v139h307zM639 414v680q-144 -15 -209 -95.5t-65 -242.5q0 -171 64 -249t210 -93zM946 1094v-680
q143 15 209 96t66 242q0 170 -65 248.5t-210 93.5z" />
    <glyph glyph-name="uni0425" unicode="&#x425;" horiz-adv-x="1161" 
d="M1161 8l-381 -33l-227 480q-120 -228 -236 -455h-337q241 402 432 707l-387 643l385 32l198 -407q141 325 166 383h354q-333 -547 -376 -615z" />
    <glyph glyph-name="uni0426" unicode="&#x426;" horiz-adv-x="1382" 
d="M1112 0h-989v1358h311v-1104h418v1104h311v-1104h199l-10 -567h-234z" />
    <glyph glyph-name="uni0427" unicode="&#x427;" horiz-adv-x="1175" 
d="M20 1358h312v-363q0 -173 56.5 -229.5t227.5 -56.5h125v649h312v-1358h-312v465h-149q-166 0 -273.5 22.5t-175.5 77t-95.5 139.5t-27.5 216v438z" />
    <glyph glyph-name="uni0428" unicode="&#x428;" horiz-adv-x="1978" 
d="M836 1358h307v-1104h401v1104h311v-1358h-1732v1358h311v-1104h402v1104z" />
    <glyph glyph-name="uni0429" unicode="&#x429;" horiz-adv-x="2074" 
d="M1804 0h-1681v1358h311v-1104h402v1104h307v-1104h401v1104h311v-1104h199l-10 -567h-234z" />
    <glyph glyph-name="uni042A" unicode="&#x42a;" horiz-adv-x="1357" 
d="M637 1358v-490h164q259 0 389.5 -111.5t130.5 -307.5q0 -208 -141.5 -328.5t-386.5 -120.5h-467v1100h-314v258h625zM637 244h160q94 0 149 46.5t55 139.5q0 104 -51 151.5t-159 47.5h-154v-385z" />
    <glyph glyph-name="uni042B" unicode="&#x42b;" horiz-adv-x="1693" 
d="M1260 1358h311v-1358h-311v1358zM123 1358h311v-490h160q258 0 388 -111t130 -308q0 -208 -140.5 -328.5t-385.5 -120.5h-463v1358zM434 244h158q92 0 146.5 47t54.5 139q0 102 -50.5 150.5t-156.5 48.5h-152v-385z" />
    <glyph glyph-name="uni042C" unicode="&#x42c;" horiz-adv-x="1161" 
d="M123 1358h311v-490h166q260 0 392 -111.5t132 -307.5q0 -207 -142.5 -328t-389.5 -121h-469v1358zM434 244h162q95 0 152 46.5t57 139.5q0 103 -52.5 151t-162.5 48h-156v-385z" />
    <glyph glyph-name="uni042D" unicode="&#x42d;" horiz-adv-x="1202" 
d="M362 938l-286 51q34 190 165 291.5t355 101.5q274 0 409.5 -163t135.5 -502q0 -367 -158.5 -554.5t-435.5 -187.5q-194 0 -324 93.5t-174 283.5l270 94q30 -110 93.5 -164.5t150.5 -54.5q215 0 250 334h-397v244h397q-14 171 -70.5 249.5t-169.5 78.5q-87 0 -143 -52.5
t-68 -142.5z" />
    <glyph glyph-name="uni042E" unicode="&#x42e;" horiz-adv-x="1857" 
d="M1214 -25q-268 0 -400.5 152t-151.5 453h-228v-580h-311v1358h311v-529h232q16 118 58 216.5t111 175t171.5 119t230.5 42.5q557 0 557 -667q0 -118 -19 -223.5t-63 -201.5t-109.5 -165t-165 -109.5t-223.5 -40.5zM1223 229q239 0 239 449q0 229 -56.5 339.5
t-182.5 110.5q-242 0 -242 -448q0 -230 57.5 -340.5t184.5 -110.5z" />
    <glyph glyph-name="uni042F" unicode="&#x42f;" horiz-adv-x="1210" 
d="M1087 0h-311v506h-143l-238 -506h-348l311 541q-136 45 -204 142t-68 235q0 203 142.5 321.5t389.5 118.5h469v-1358zM776 1114h-162q-94 0 -151 -45.5t-57 -132.5q0 -191 215 -191h155v369z" />
    <glyph glyph-name="uni0430" unicode="&#x430;" horiz-adv-x="1081" 
d="M979 0h-250l-18 115q-82 -70 -159 -105t-175 -35q-175 0 -257.5 85t-82.5 219q0 66 19 120t62.5 100t112 77.5t171 49t235.5 17.5h35v37q0 84 -41.5 121t-132.5 37q-69 0 -158 -27.5t-166 -67.5l-92 191q244 123 467 123q228 0 324 -81.5t96 -266.5v-455q0 -64 10 -254z
M672 274v185h-51q-273 0 -273 -144q0 -61 35 -93t90 -32q54 0 100 20.5t99 63.5z" />
    <glyph glyph-name="uni0431" unicode="&#x431;" horiz-adv-x="1144" 
d="M578 176q99 0 142.5 70.5t43.5 232.5q0 196 -43.5 274t-142.5 78q-89 0 -137 -75t-48 -228q0 -196 43.5 -274t141.5 -78zM297 799h4q49 123 130 178t212 55q221 0 330.5 -122.5t109.5 -381.5q0 -274 -131.5 -413.5t-390.5 -139.5q-238 0 -358.5 131.5t-120.5 407.5
q0 534 203 737q74 74 167 112.5t234 53.5l305 35v-242l-309 -34q-101 -12 -156.5 -34.5t-99.5 -66.5q-45 -45 -75 -108t-54 -168z" />
    <glyph glyph-name="uni0432" unicode="&#x432;" horiz-adv-x="1107" 
d="M520 -25q-184 0 -407 25v1030q218 27 383 27q190 0 303.5 -32.5t160 -92.5t46.5 -156q0 -91 -50.5 -150t-138.5 -77v-2q101 -17 162 -81t61 -149q0 -160 -132 -251t-388 -91zM410 625h100q92 0 136 28t44 86q0 57 -37.5 84t-120.5 27l-122 -4v-221zM410 436v-248
q63 -6 129 -6q184 0 184 127q0 64 -45 95.5t-146 31.5h-122z" />
    <glyph glyph-name="uni0433" unicode="&#x433;" horiz-adv-x="802" 
d="M410 0h-297v1032h700l-20 -229h-383v-803z" />
    <glyph glyph-name="uni0434" unicode="&#x434;" horiz-adv-x="1265" 
d="M10 223h168q40 106 62 268.5t41 540.5h782v-809h188l-12 -477h-221l-6 254h-762l-6 -254h-221zM766 223v588h-234q-21 -390 -69 -588h303z" />
    <glyph glyph-name="uni0435" unicode="&#x435;" horiz-adv-x="1114" 
d="M928 305l119 -190q-222 -140 -504 -140q-243 0 -362.5 125t-119.5 389q0 270 131 419t398 149q235 0 349 -146.5t97 -468.5h-659q0 -116 59 -177.5t174 -61.5q83 0 170.5 28t147.5 74zM377 627h364q3 106 -40.5 166.5t-135.5 60.5q-81 0 -133 -61.5t-55 -165.5z" />
    <glyph glyph-name="uni0436" unicode="&#x436;" horiz-adv-x="1599" 
d="M653 424h-71l-234 -424h-342l346 557l-307 475h299l238 -387h71v387h293v-387h72l237 387h299l-307 -475l346 -557h-342l-233 424h-72v-424h-293v424z" />
    <glyph glyph-name="uni0437" unicode="&#x437;" horiz-adv-x="1028" 
d="M373 420v209h88q65 0 112.5 35t47.5 88q0 45 -38 72.5t-102 27.5q-70 0 -114 -36.5t-58 -96.5l-248 57q33 135 147 208t304 73q204 0 314 -80.5t110 -210.5q0 -82 -56 -147t-155 -89v-2q104 -9 173 -73.5t69 -145.5q0 -151 -126 -242.5t-329 -91.5q-245 0 -459 187
l127 166q72 -64 155 -98.5t152 -34.5q73 0 117.5 31t44.5 83t-41.5 81.5t-113.5 29.5h-121z" />
    <glyph glyph-name="uni0438" unicode="&#x438;" horiz-adv-x="1157" 
d="M406 0h-293v1032h297v-366q0 -154 -29 -330h4q55 152 127 276l240 420h292v-1032h-296v367q0 159 28 329h-4q-55 -152 -127 -276z" />
    <glyph glyph-name="uni0439" unicode="&#x439;" horiz-adv-x="1157" 
d="M406 0h-293v1032h297v-366q0 -154 -29 -330h4q55 152 127 276l240 420h292v-1032h-296v367q0 159 28 329h-4q-55 -152 -127 -276zM236 1468h229q2 -77 28.5 -113t81.5 -36q106 0 109 149h229q0 -142 -93 -222.5t-253 -80.5q-331 0 -331 303z" />
    <glyph glyph-name="uni043A" unicode="&#x43a;" horiz-adv-x="1081" 
d="M1028 1032l-307 -465l354 -567h-360l-234 424h-71v-424h-297v1032h297v-387h71l238 387h309z" />
    <glyph glyph-name="uni043B" unicode="&#x43b;" horiz-adv-x="1120" 
d="M0 -18v221q30 -6 55 -0.5t45 17.5t36.5 48t30 92.5t24.5 149.5t21 219.5t19 302.5h777v-1032h-297v811h-228q-7 -123 -15 -220.5t-20 -179t-24.5 -142t-32.5 -108t-39.5 -79.5t-49 -53.5t-57.5 -33t-70 -16t-80.5 -3.5t-94.5 6z" />
    <glyph glyph-name="uni043C" unicode="&#x43c;" horiz-adv-x="1546" 
d="M573 1032l152 -504q30 -108 45 -229h4q18 126 47 227l152 506h381q81 -527 119 -1032h-306q-8 121 -21.5 307.5t-17.5 255.5q-12 173 -14 254h-4q-23 -113 -53 -217l-180 -600h-248l-180 600q-32 111 -54 217h-4q-4 -110 -14 -254q-25 -313 -39 -563h-264
q34 473 119 1032h380z" />
    <glyph glyph-name="uni043D" unicode="&#x43d;" horiz-adv-x="1142" 
d="M1030 1032v-1032h-297v420h-323v-420h-297v1032h297v-383h323v383h297z" />
    <glyph glyph-name="uni043E" unicode="&#x43e;" horiz-adv-x="1153" 
d="M559 -25q-256 0 -377 125.5t-121 393.5q0 278 135 420.5t398 142.5q256 0 377 -125t121 -393q0 -278 -135 -421t-398 -143zM578 176q99 0 146.5 71t47.5 245q0 142 -23 223t-64 111t-110 30q-99 0 -146.5 -70.5t-47.5 -244.5q0 -142 23 -223t64 -111.5t110 -30.5z" />
    <glyph glyph-name="uni043F" unicode="&#x43f;" horiz-adv-x="1132" 
d="M1020 1032v-1032h-297v807h-313v-807h-297v1032h907z" />
    <glyph glyph-name="uni0440" unicode="&#x440;" horiz-adv-x="1132" 
d="M410 -348h-297v1380h245l17 -106q165 127 325 127q182 0 276.5 -122t94.5 -360q0 -289 -147 -442.5t-418 -153.5q-51 0 -96 9v-332zM410 758v-568q45 -20 104 -20q110 0 177 90t67 252q0 326 -154 326q-93 0 -194 -80z" />
    <glyph glyph-name="uni0441" unicode="&#x441;" horiz-adv-x="1038" 
d="M831 352l170 -164q-101 -114 -209 -163.5t-264 -49.5q-239 0 -353 126.5t-114 398.5q0 267 128.5 412t383.5 145q219 0 319.5 -100t94.5 -300h-295q10 99 -27.5 146t-109.5 47q-84 0 -130 -82t-46 -233q0 -332 207 -332q67 0 125 37t120 112z" />
    <glyph glyph-name="uni0442" unicode="&#x442;" horiz-adv-x="903" 
d="M287 803h-275v229h875l-21 -229h-282v-803h-297v803z" />
    <glyph glyph-name="uni0443" unicode="&#x443;" horiz-adv-x="985" 
d="M344 -369l-182 140q160 105 160 282q0 47 -50 190t-126 368.5t-121 420.5h319q15 -70 33 -144t30.5 -121.5t34 -128.5t31.5 -118q28 -106 53 -235h4q7 34 28 129t28 129q73 364 90 489h285q-137 -593 -256 -903q-81 -208 -164.5 -318.5t-196.5 -179.5z" />
    <glyph glyph-name="uni0444" unicode="&#x444;" horiz-adv-x="1542" 
d="M625 176v680q-248 -15 -248 -321q0 -130 28 -208t81 -112t139 -39zM918 1288v-231q287 -15 425 -141t138 -377q0 -253 -144 -400t-419 -164v-323h-293v323q-287 15 -425.5 141.5t-138.5 377.5q0 253 144 399.5t420 163.5v231h293zM918 856v-680q247 15 247 322
q0 130 -28 208t-80.5 111.5t-138.5 38.5z" />
    <glyph glyph-name="uni0445" unicode="&#x445;" horiz-adv-x="1034" 
d="M999 1032l-303 -473l334 -559l-352 -20l-189 346q-90 -155 -170 -326h-315l344 528l-303 504l352 21l158 -299q70 132 135 278h309z" />
    <glyph glyph-name="uni0446" unicode="&#x446;" horiz-adv-x="1210" 
d="M113 0v1032h297v-805h301v805h297v-805h188l-12 -481h-221l-7 254h-843z" />
    <glyph glyph-name="uni0447" unicode="&#x447;" horiz-adv-x="1036" 
d="M924 0h-297v348q-117 -55 -267 -55q-168 0 -247.5 76t-79.5 254v409h297v-360q0 -88 30 -123t95 -35q92 0 172 25v493h297v-1032z" />
    <glyph glyph-name="uni0448" unicode="&#x448;" horiz-adv-x="1697" 
d="M113 0v1032h297v-805h290v805h297v-805h291v805h297v-1032h-1472z" />
    <glyph glyph-name="uni0449" unicode="&#x449;" horiz-adv-x="1785" 
d="M113 0v1032h297v-805h290v805h297v-805h291v805h297v-805h187l-13 -481h-221l-6 254h-1419z" />
    <glyph glyph-name="uni044A" unicode="&#x44a;" horiz-adv-x="1198" 
d="M549 494v-306q60 -6 119 -6q89 0 134.5 40.5t45.5 113.5q0 164 -184 164zM252 0v803h-252v229h549v-332q61 7 137 7q234 0 357.5 -92t123.5 -253q0 -387 -512 -387q-205 0 -403 25z" />
    <glyph glyph-name="uni044B" unicode="&#x44b;" horiz-adv-x="1566" 
d="M514 -25q-203 0 -401 25v1032h297v-332q63 7 135 7q233 0 356 -92t123 -253q0 -387 -510 -387zM410 494v-306q59 -6 116 -6q88 0 133.5 40t45.5 114q0 164 -183 164zM1454 1032v-1032h-297v1032h297z" />
    <glyph glyph-name="uni044C" unicode="&#x44c;" horiz-adv-x="1062" 
d="M410 494v-306q59 -6 120 -6q183 0 183 158q0 160 -187 160zM113 0v1032h297v-332q67 7 139 7q235 0 359 -92t124 -253q0 -387 -514 -387q-203 0 -405 25z" />
    <glyph glyph-name="uni044D" unicode="&#x44d;" horiz-adv-x="1050" 
d="M674 414h-285v209h285q-6 112 -52 170.5t-128 58.5q-69 0 -111.5 -35.5t-56.5 -97.5l-248 57q31 132 142.5 206.5t291.5 74.5q239 0 358 -129t119 -396q0 -274 -128 -415.5t-359 -141.5q-130 0 -247 45.5t-202 131.5l127 165q139 -122 297 -122q194 0 197 219z" />
    <glyph glyph-name="uni044E" unicode="&#x44e;" horiz-adv-x="1622" 
d="M1053 -25q-229 0 -345 108.5t-128 340.5h-170v-424h-297v1032h297v-387h178q31 203 157 307.5t340 104.5q244 0 360 -125.5t116 -392.5q0 -279 -128 -421.5t-380 -142.5zM1065 176q95 0 135.5 73.5t40.5 242.5q0 204 -39.5 284t-136.5 80q-95 0 -135.5 -73t-40.5 -242
q0 -205 40 -285t136 -80z" />
    <glyph glyph-name="uni044F" unicode="&#x44f;" horiz-adv-x="1118" 
d="M565 377l-200 -377h-328l276 414q-108 37 -165.5 109.5t-57.5 172.5q0 361 518 361q189 0 398 -23v-1034h-297v383q-62 -6 -144 -6zM709 588v254q-60 6 -119 6q-180 0 -180 -133t184 -133z" />
    <glyph glyph-name="uni0451" unicode="&#x451;" horiz-adv-x="1114" 
d="M928 305l119 -190q-222 -140 -504 -140q-243 0 -362.5 125t-119.5 389q0 270 131 419t398 149q235 0 349 -146.5t97 -468.5h-659q0 -116 59 -177.5t174 -61.5q83 0 170.5 28t147.5 74zM377 627h364q3 106 -40.5 166.5t-135.5 60.5q-81 0 -133 -61.5t-55 -165.5zM862 1174
h-233v225h233v-225zM506 1174h-234v225h234v-225z" />
    <glyph glyph-name="uni0452" unicode="&#x452;" horiz-adv-x="1140" 
d="M410 1124v-170q50 42 133 70.5t159 28.5q164 0 248 -130t84 -425q0 -325 -97.5 -517t-303.5 -290l-137 176q125 82 183 220.5t58 379.5q0 148 -20 228t-54.5 106t-95.5 26q-41 0 -85 -17.5t-72 -43.5v-766h-297v1124h-113v201h113v100h297v-100h280l-20 -201h-260z" />
    <glyph glyph-name="uni0453" unicode="&#x453;" horiz-adv-x="802" 
d="M410 0h-297v1032h700l-20 -229h-383v-803zM530 1165h-178l160 279h274z" />
    <glyph glyph-name="uni0454" unicode="&#x454;" horiz-adv-x="1067" 
d="M662 414h-285q14 -219 231 -219q69 0 140 32t129 90l137 -163q-197 -179 -469 -179q-241 0 -362.5 127.5t-121.5 397.5q0 265 129.5 411t387.5 146q350 0 415 -287l-268 -57q-17 76 -54.5 107.5t-103.5 31.5q-90 0 -136 -56.5t-54 -172.5h285v-209z" />
    <glyph glyph-name="uni0455" unicode="&#x455;" horiz-adv-x="1017" 
d="M915 764l-258 -21q4 66 -34.5 94.5t-116.5 28.5q-70 0 -111 -28t-41 -78q0 -33 26 -55.5t69 -34.5t97.5 -25.5t111 -25t111 -35t97.5 -55t69 -86t26 -126.5q0 -155 -133 -248.5t-367 -93.5q-229 0 -320.5 75t-66.5 231l245 22q-10 -71 36 -103t145 -32q78 0 121 26.5
t43 75.5q0 36 -25.5 62t-67.5 39.5t-96 27t-110 25t-110 34.5t-96 53t-67.5 83t-25.5 123q0 158 118.5 249t337.5 91q125 0 216 -31.5t139.5 -98.5t37.5 -163z" />
    <glyph glyph-name="uni0456" unicode="&#x456;" horiz-adv-x="522" 
d="M414 1165h-305v260h305v-260zM410 0h-297v1032h297v-1032z" />
    <glyph glyph-name="uni0457" unicode="&#x457;" horiz-adv-x="522" 
d="M410 0h-297v1032h297v-1032zM528 1165h-221v226h221v-226zM213 1165h-221v226h221v-226z" />
    <glyph glyph-name="uni0458" unicode="&#x458;" horiz-adv-x="522" 
d="M414 1165h-305v260h305v-260zM74 -369l-109 207q76 36 112 87.5t36 129.5v977h297v-940q0 -201 -82 -305t-254 -156z" />
    <glyph glyph-name="uni0459" unicode="&#x459;" horiz-adv-x="1640" 
d="M995 494v-306q12 -6 117 -6q88 0 133 40t45 114q0 164 -182 164zM231 1032h764v-332q63 7 135 7q234 0 357 -92t123 -253q0 -387 -510 -387q-200 0 -398 25v811h-219q-7 -121 -14.5 -216t-19 -176.5t-23.5 -141.5t-31 -108.5t-38 -80.5t-48 -55t-58 -35t-71 -17.5
t-82.5 -4.5t-97.5 6v221q44 -3 67.5 0.5t50 30t39.5 75.5t28 146.5t25 232.5t21 344z" />
    <glyph glyph-name="uni045A" unicode="&#x45a;" horiz-adv-x="1662" 
d="M1122 -25q-199 0 -397 25v420h-315v-420h-297v1032h297v-383h315v383h293v-332q63 7 135 7q233 0 356 -92t123 -253q0 -387 -510 -387zM1018 494v-306q60 -6 117 -6q88 0 133 40t45 114q0 164 -183 164z" />
    <glyph glyph-name="uni045B" unicode="&#x45b;" horiz-adv-x="1144" 
d="M0 1124v201h113v100h297v-100h280l-20 -201h-260v-170q184 99 331 99q162 0 227.5 -71t65.5 -243v-739h-297v659q0 93 -29 130.5t-102 37.5q-49 0 -104 -17.5t-92 -43.5v-766h-297v1124h-113z" />
    <glyph glyph-name="uni045C" unicode="&#x45c;" horiz-adv-x="1081" 
d="M1028 1032l-307 -465l354 -567h-360l-234 424h-71v-424h-297v1032h297v-387h71l238 387h309zM627 1165h-178l159 279h275z" />
    <glyph glyph-name="uni045E" unicode="&#x45e;" horiz-adv-x="985" 
d="M344 -369l-182 140q160 105 160 282q0 47 -50 190t-126 368.5t-121 420.5h319q15 -70 33 -144t30.5 -121.5t34 -128.5t31.5 -118q28 -106 53 -235h4q7 34 28 129t28 129q73 364 90 489h285q-137 -593 -256 -903q-81 -208 -164.5 -318.5t-196.5 -179.5zM168 1468h229
q2 -77 29 -113t82 -36q105 0 108 149h230q0 -142 -93 -222.5t-253 -80.5q-332 0 -332 303z" />
    <glyph glyph-name="uni045F" unicode="&#x45f;" horiz-adv-x="1120" 
d="M434 0h-321v1032h297v-805h301v805h297v-1032h-322l-12 -244h-228z" />
    <glyph glyph-name="uni0490" unicode="&#x490;" horiz-adv-x="894" 
d="M123 0v1358h530l6 313h234l10 -571h-469v-1100h-311z" />
    <glyph glyph-name="uni0491" unicode="&#x491;" horiz-adv-x="794" 
d="M410 803v-803h-297v1032h452l6 254h222l12 -483h-395z" />
    <glyph glyph-name="uni1E02" unicode="&#x1e02;" horiz-adv-x="1171" 
d="M590 0h-467v1358h489q171 0 274.5 -41t145 -114t41.5 -187q0 -109 -56.5 -188t-168.5 -103v-4q128 -6 199 -88t71 -207q0 -190 -142 -308t-386 -118zM430 813h156q78 0 121 38.5t43 117.5q0 72 -41.5 110.5t-137.5 38.5h-141v-305zM430 242h158q93 0 145.5 43t52.5 121
q0 86 -49 130t-143 44h-164v-338zM721 1456h-315v242h315v-242z" />
    <glyph glyph-name="uni1E03" unicode="&#x1e03;" horiz-adv-x="1132" 
d="M113 14v1411h297v-450q140 78 292 78q181 0 275 -122t94 -360q0 -286 -146 -441t-454 -155q-219 0 -358 39zM410 780v-587q49 -19 102 -19q112 0 179 89t67 251q0 179 -42.5 251.5t-129.5 72.5q-90 0 -176 -58zM838 1165h-306v256h306v-256z" />
    <glyph glyph-name="uni1E0A" unicode="&#x1e0a;" horiz-adv-x="1222" 
d="M479 0h-356v1358q64 0 193.5 1t215.5 1q633 0 633 -635q0 -166 -40 -297t-122 -227.5t-214.5 -148.5t-309.5 -52zM434 254h74q170 0 252 109.5t82 332.5q0 203 -76.5 306.5t-257.5 103.5h-74v-852zM731 1456h-315v242h315v-242z" />
    <glyph glyph-name="uni1E0B" unicode="&#x1e0b;" horiz-adv-x="1132" 
d="M1020 0h-246l-16 106q-163 -126 -326 -126q-182 0 -276.5 121.5t-94.5 359.5q0 286 147.5 439t418.5 153q51 0 96 -9v381h297v-1425zM723 274v564q-45 20 -105 20q-110 0 -176.5 -88t-66.5 -250q0 -176 40 -250.5t113 -74.5q96 0 195 79zM604 1174h-305v256h305v-256z
" />
    <glyph glyph-name="uni1E1E" unicode="&#x1e1e;" horiz-adv-x="937" 
d="M434 0h-311v1358h825l-28 -254h-486v-322h389v-245h-389v-537zM705 1456h-316v242h316v-242z" />
    <glyph glyph-name="uni1E1F" unicode="&#x1e1f;" horiz-adv-x="620" 
d="M440 0h-299v807h-141v225h141v55q0 88 14 149t50.5 111t106 74.5t175.5 24.5q94 0 187 -35l-47 -207q-62 27 -111 27q-76 0 -76 -115v-84h195l-23 -225h-172v-807zM610 1530h-315v242h315v-242z" />
    <glyph glyph-name="uni1E40" unicode="&#x1e40;" horiz-adv-x="1660" 
d="M1079 1358h422q80 -682 107 -1358h-318q-9 405 -28 709q-18 280 -23 407h-4q-35 -170 -88 -350l-225 -766h-230l-225 766q-54 186 -88 350h-4q-4 -117 -23 -407q-22 -327 -28 -709h-271q24 605 107 1358h422l192 -656q35 -127 55 -237h5q25 133 57 252zM993 1456h-315
v242h315v-242z" />
    <glyph glyph-name="uni1E41" unicode="&#x1e41;" horiz-adv-x="1708" 
d="M1597 0h-297v659q0 93 -26 130.5t-92 37.5q-44 0 -94 -17.5t-84 -43.5v-766h-297v659q0 92 -26.5 130t-92.5 38q-44 0 -94 -17.5t-84 -43.5v-766h-297v1032h245l17 -112q80 61 172.5 97t177.5 36q209 0 244 -133q80 61 172.5 97t177.5 36q153 0 215.5 -71t62.5 -243v-739
zM993 1165h-305v256h305v-256z" />
    <glyph glyph-name="uni1E56" unicode="&#x1e56;" horiz-adv-x="1122" 
d="M434 0h-311v1358h459q254 0 376.5 -105.5t122.5 -330.5q0 -216 -156.5 -350t-441.5 -134h-49v-438zM434 678h80q242 0 242 223q0 217 -213 217h-109v-440zM702 1456h-315v242h315v-242z" />
    <glyph glyph-name="uni1E57" unicode="&#x1e57;" horiz-adv-x="1132" 
d="M410 -348h-297v1380h245l17 -106q165 127 325 127q182 0 276.5 -122t94.5 -360q0 -289 -147 -442.5t-418 -153.5q-51 0 -96 9v-332zM410 758v-568q45 -20 104 -20q110 0 177 90t67 252q0 326 -154 326q-93 0 -194 -80zM707 1165h-306v256h306v-256z" />
    <glyph glyph-name="uni1E60" unicode="&#x1e60;" horiz-adv-x="1193" 
d="M1073 1024l-303 -39q0 79 -44 116.5t-144 37.5q-86 0 -134.5 -36t-48.5 -91q0 -41 25 -71.5t67 -50t96.5 -35.5t114.5 -32.5t120.5 -36.5t115 -52t96.5 -74.5t67 -108.5t25 -150q0 -191 -152 -308.5t-421 -117.5q-259 0 -378.5 96.5t-119.5 307.5l312 41q0 -105 50 -152
t165 -47q102 0 153 39t51 105q0 48 -24.5 82.5t-66 55t-95.5 36.5t-113.5 31t-119 33t-113.5 48t-95.5 70.5t-66 106t-24.5 149.5q0 181 144 293t400 112q461 0 461 -358zM748 1470h-316v242h316v-242z" />
    <glyph glyph-name="uni1E61" unicode="&#x1e61;" horiz-adv-x="1017" 
d="M915 764l-258 -21q4 66 -34.5 94.5t-116.5 28.5q-70 0 -111 -28t-41 -78q0 -33 26 -55.5t69 -34.5t97.5 -25.5t111 -25t111 -35t97.5 -55t69 -86t26 -126.5q0 -155 -133 -248.5t-367 -93.5q-229 0 -320.5 75t-66.5 231l245 22q-10 -71 36 -103t145 -32q78 0 121 26.5
t43 75.5q0 36 -25.5 62t-67.5 39.5t-96 27t-110 25t-110 34.5t-96 53t-67.5 83t-25.5 123q0 158 118.5 249t337.5 91q125 0 216 -31.5t139.5 -98.5t37.5 -163zM662 1174h-306v256h306v-256z" />
    <glyph glyph-name="uni1E6A" unicode="&#x1e6a;" horiz-adv-x="968" 
d="M641 0h-311v1100h-322v258h963l-21 -258h-309v-1100zM641 1456h-315v242h315v-242z" />
    <glyph glyph-name="uni1E6B" unicode="&#x1e6b;" horiz-adv-x="753" 
d="M674 240l49 -213q-140 -47 -309 -47q-147 0 -212 70.5t-65 238.5v518h-137v225h137v289l299 35v-324h266l-24 -225h-242v-455q0 -68 20 -100.5t72 -32.5q70 0 146 21zM440 1452h-305v256h305v-256z" />
    <glyph glyph-name="Wgrave" unicode="&#x1e80;" horiz-adv-x="1810" 
d="M543 287h4q26 209 63 362l172 709h295l170 -709q38 -167 66 -362h4q33 212 61 360q3 16 22 111t33 167t35 194.5t37 238.5h275q-108 -616 -320 -1358h-344l-164 686q-31 129 -45 287h-4q-13 -164 -43 -287l-166 -686h-344q-197 672 -319 1358h323q16 -115 37 -237.5
t34.5 -194t33 -168t22.5 -111.5q36 -202 62 -360zM1044 1456h-182l-252 213h279z" />
    <glyph glyph-name="wgrave" unicode="&#x1e81;" horiz-adv-x="1601" 
d="M1241 0h-274l-129 520q-23 100 -35 211h-4q-12 -111 -35 -211l-129 -520h-275q-179 494 -323 1032h330q18 -96 40 -195.5t48 -208.5t34 -143q21 -101 33 -204h2q14 106 37 206l135 545h271l135 -545q21 -95 37 -206h2q11 105 33 204q4 16 33.5 141t50 217t38.5 189h269
q-126 -483 -324 -1032zM932 1165h-178l-256 279h274z" />
    <glyph glyph-name="Wacute" unicode="&#x1e82;" horiz-adv-x="1810" 
d="M543 287h4q26 209 63 362l172 709h295l170 -709q38 -167 66 -362h4q33 212 61 360q3 16 22 111t33 167t35 194.5t37 238.5h275q-108 -616 -320 -1358h-344l-164 686q-31 129 -45 287h-4q-13 -164 -43 -287l-166 -686h-344q-197 672 -319 1358h323q16 -115 37 -237.5
t34.5 -194t33 -168t22.5 -111.5q36 -202 62 -360zM997 1456h-182l156 213h278z" />
    <glyph glyph-name="wacute" unicode="&#x1e83;" horiz-adv-x="1601" 
d="M1241 0h-274l-129 520q-23 100 -35 211h-4q-12 -111 -35 -211l-129 -520h-275q-179 494 -323 1032h330q18 -96 40 -195.5t48 -208.5t34 -143q21 -101 33 -204h2q14 106 37 206l135 545h271l135 -545q21 -95 37 -206h2q11 105 33 204q4 16 33.5 141t50 217t38.5 189h269
q-126 -483 -324 -1032zM883 1165h-178l159 279h275z" />
    <glyph glyph-name="Wdieresis" unicode="&#x1e84;" horiz-adv-x="1810" 
d="M543 287h4q26 209 63 362l172 709h295l170 -709q38 -167 66 -362h4q33 212 61 360q3 16 22 111t33 167t35 194.5t37 238.5h275q-108 -616 -320 -1358h-344l-164 686q-31 129 -45 287h-4q-13 -164 -43 -287l-166 -686h-344q-197 672 -319 1358h323q16 -115 37 -237.5
t34.5 -194t33 -168t22.5 -111.5q36 -202 62 -360zM1227 1475h-221v213h221v-213zM862 1475h-221v213h221v-213z" />
    <glyph glyph-name="wdieresis" unicode="&#x1e85;" horiz-adv-x="1601" 
d="M1241 0h-274l-129 520q-23 100 -35 211h-4q-12 -111 -35 -211l-129 -520h-275q-179 494 -323 1032h330q18 -96 40 -195.5t48 -208.5t34 -143q21 -101 33 -204h2q14 106 37 206l135 545h271l135 -545q21 -95 37 -206h2q11 105 33 204q4 16 33.5 141t50 217t38.5 189h269
q-126 -483 -324 -1032zM1137 1165h-234v226h234v-226zM780 1165h-233v226h233v-226z" />
    <glyph glyph-name="uni1EA0" unicode="&#x1ea0;" horiz-adv-x="1224" 
d="M1219 0h-349q-28 133 -63 268h-451q-39 -146 -65 -268h-285q173 673 416 1358h379q224 -630 418 -1358zM420 508h321q-35 139 -106 381q-29 104 -53 201h-4q-17 -73 -52 -203q-91 -322 -106 -379zM442 -133h297v-236h-297v236z" />
    <glyph glyph-name="uni1EA1" unicode="&#x1ea1;" horiz-adv-x="1081" 
d="M979 0h-250l-18 115q-82 -70 -159 -105t-175 -35q-175 0 -257.5 85t-82.5 219q0 66 19 120t62.5 100t112 77.5t171 49t235.5 17.5h35v37q0 84 -41.5 121t-132.5 37q-69 0 -158 -27.5t-166 -67.5l-92 191q244 123 467 123q228 0 324 -81.5t96 -266.5v-455q0 -64 10 -254z
M672 274v185h-51q-273 0 -273 -144q0 -61 35 -93t90 -32q54 0 100 20.5t99 63.5zM391 -133h297v-236h-297v236z" />
    <glyph glyph-name="uni1EA2" unicode="&#x1ea2;" horiz-adv-x="1224" 
d="M1219 0h-349q-28 133 -63 268h-451q-39 -146 -65 -268h-285q173 673 416 1358h379q224 -630 418 -1358zM420 508h321q-35 139 -106 381q-29 104 -53 201h-4q-17 -73 -52 -203q-91 -322 -106 -379zM559 1415l-39 139q86 24 86 66q0 22 -18.5 31.5t-63.5 9.5
q-76 0 -157 -35l-41 154q127 53 268 53q117 0 180.5 -43t63.5 -121q0 -92 -77 -157.5t-202 -96.5z" />
    <glyph glyph-name="uni1EA3" unicode="&#x1ea3;" horiz-adv-x="1081" 
d="M979 0h-250l-18 115q-82 -70 -159 -105t-175 -35q-175 0 -257.5 85t-82.5 219q0 66 19 120t62.5 100t112 77.5t171 49t235.5 17.5h35v37q0 84 -41.5 121t-132.5 37q-69 0 -158 -27.5t-166 -67.5l-92 191q244 123 467 123q228 0 324 -81.5t96 -266.5v-455q0 -64 10 -254z
M672 274v185h-51q-273 0 -273 -144q0 -61 35 -93t90 -32q54 0 100 20.5t99 63.5zM516 1118l-37 139q30 8 58 28.5t28 47.5q0 51 -82 51q-41 0 -88 -12t-67 -22l-43 159q129 54 268 54q117 0 180.5 -46.5t63.5 -134.5q0 -48 -22 -90t-53.5 -70t-72.5 -51t-72.5 -34.5
t-60.5 -18.5z" />
    <glyph glyph-name="uni1EA4" unicode="&#x1ea4;" horiz-adv-x="1224" 
d="M1219 0h-349q-28 133 -63 268h-451q-39 -146 -65 -268h-285q173 673 416 1358h379q224 -630 418 -1358zM420 508h321q-35 139 -106 381q-29 104 -53 201h-4q-17 -73 -52 -203q-91 -322 -106 -379zM928 1450h-221l-101 119l-98 -119h-221l211 223h221zM639 1763h-162
l125 224h246z" />
    <glyph glyph-name="uni1EA5" unicode="&#x1ea5;" horiz-adv-x="1081" 
d="M979 0h-250l-18 115q-82 -70 -159 -105t-175 -35q-175 0 -257.5 85t-82.5 219q0 66 19 120t62.5 100t112 77.5t171 49t235.5 17.5h35v37q0 84 -41.5 121t-132.5 37q-69 0 -158 -27.5t-166 -67.5l-92 191q244 123 467 123q228 0 324 -81.5t96 -266.5v-455q0 -64 10 -254z
M672 274v185h-51q-273 0 -273 -144q0 -61 35 -93t90 -32q54 0 100 20.5t99 63.5zM862 1163h-221l-100 119l-99 -119h-221l211 223h221zM573 1487h-161l125 223h245z" />
    <glyph glyph-name="uni1EA6" unicode="&#x1ea6;" horiz-adv-x="1224" 
d="M1219 0h-349q-28 133 -63 268h-451q-39 -146 -65 -268h-285q173 673 416 1358h379q224 -630 418 -1358zM420 508h321q-35 139 -106 381q-29 104 -53 201h-4q-17 -73 -52 -203q-91 -322 -106 -379zM930 1450h-221l-101 119l-98 -119h-221l211 223h221zM739 1763h-161
l-209 224h245z" />
    <glyph glyph-name="uni1EA7" unicode="&#x1ea7;" horiz-adv-x="1081" 
d="M979 0h-250l-18 115q-82 -70 -159 -105t-175 -35q-175 0 -257.5 85t-82.5 219q0 66 19 120t62.5 100t112 77.5t171 49t235.5 17.5h35v37q0 84 -41.5 121t-132.5 37q-69 0 -158 -27.5t-166 -67.5l-92 191q244 123 467 123q228 0 324 -81.5t96 -266.5v-455q0 -64 10 -254z
M672 274v185h-51q-273 0 -273 -144q0 -61 35 -93t90 -32q54 0 100 20.5t99 63.5zM862 1163h-221l-100 119l-99 -119h-221l211 223h221zM672 1487h-162l-209 223h246z" />
    <glyph glyph-name="uni1EA8" unicode="&#x1ea8;" horiz-adv-x="1224" 
d="M1219 0h-349q-28 133 -63 268h-451q-39 -146 -65 -268h-285q173 673 416 1358h379q224 -630 418 -1358zM420 508h321q-35 139 -106 381q-29 104 -53 201h-4q-17 -73 -52 -203q-91 -322 -106 -379zM928 1450h-221l-101 119l-98 -119h-221l211 223h221zM717 1827l-35 127
q81 33 166 33q86 0 134 -43t48 -117q0 -114 -139 -215l-100 106q55 49 55 84q0 41 -51 41q-35 0 -78 -16z" />
    <glyph glyph-name="uni1EA9" unicode="&#x1ea9;" horiz-adv-x="1081" 
d="M979 0h-250l-18 115q-82 -70 -159 -105t-175 -35q-175 0 -257.5 85t-82.5 219q0 66 19 120t62.5 100t112 77.5t171 49t235.5 17.5h35v37q0 84 -41.5 121t-132.5 37q-69 0 -158 -27.5t-166 -67.5l-92 191q244 123 467 123q228 0 324 -81.5t96 -266.5v-455q0 -64 10 -254z
M672 274v185h-51q-273 0 -273 -144q0 -61 35 -93t90 -32q54 0 100 20.5t99 63.5zM854 1163h-221l-101 119l-98 -119h-221l211 223h221zM643 1550l-35 127q81 33 166 33q86 0 134 -43t48 -117q0 -118 -141 -221l-100 107q57 51 57 90q0 41 -51 41q-32 0 -78 -17z" />
    <glyph glyph-name="uni1EAA" unicode="&#x1eaa;" horiz-adv-x="1224" 
d="M1219 0h-349q-28 133 -63 268h-451q-39 -146 -65 -268h-285q173 673 416 1358h379q224 -630 418 -1358zM420 508h321q-35 139 -106 381q-29 104 -53 201h-4q-17 -73 -52 -203q-91 -322 -106 -379zM932 1450h-221l-101 119l-98 -119h-221l211 223h221zM838 1987l94 -78
q-31 -67 -86.5 -106.5t-120.5 -39.5q-53 0 -129.5 37t-103.5 37q-64 0 -107 -74l-94 78q31 67 86.5 106.5t120.5 39.5q53 0 129.5 -37t103.5 -37q64 0 107 74z" />
    <glyph glyph-name="uni1EAB" unicode="&#x1eab;" horiz-adv-x="1081" 
d="M979 0h-250l-18 115q-82 -70 -159 -105t-175 -35q-175 0 -257.5 85t-82.5 219q0 66 19 120t62.5 100t112 77.5t171 49t235.5 17.5h35v37q0 84 -41.5 121t-132.5 37q-69 0 -158 -27.5t-166 -67.5l-92 191q244 123 467 123q228 0 324 -81.5t96 -266.5v-455q0 -64 10 -254z
M672 274v185h-51q-273 0 -273 -144q0 -61 35 -93t90 -32q54 0 100 20.5t99 63.5zM862 1163h-221l-100 119l-99 -119h-221l211 223h221zM768 1700l94 -78q-31 -67 -86.5 -106t-120.5 -39q-53 0 -129.5 36.5t-103.5 36.5q-64 0 -107 -73l-94 77q31 67 86.5 106.5t120.5 39.5
q53 0 130 -37t104 -37q63 0 106 74z" />
    <glyph glyph-name="uni1EAC" unicode="&#x1eac;" horiz-adv-x="1224" 
d="M1219 0h-349q-28 133 -63 268h-451q-39 -146 -65 -268h-285q173 673 416 1358h379q224 -630 418 -1358zM420 508h321q-35 139 -106 381q-29 104 -53 201h-4q-17 -73 -52 -203q-91 -322 -106 -379zM946 1456h-223l-113 121l-108 -121h-223l233 223h201zM442 -133h297v-236
h-297v236z" />
    <glyph glyph-name="uni1EAD" unicode="&#x1ead;" horiz-adv-x="1081" 
d="M979 0h-250l-18 115q-82 -70 -159 -105t-175 -35q-175 0 -257.5 85t-82.5 219q0 66 19 120t62.5 100t112 77.5t171 49t235.5 17.5h35v37q0 84 -41.5 121t-132.5 37q-69 0 -158 -27.5t-166 -67.5l-92 191q244 123 467 123q228 0 324 -81.5t96 -266.5v-455q0 -64 10 -254z
M672 274v185h-51q-273 0 -273 -144q0 -61 35 -93t90 -32q54 0 100 20.5t99 63.5zM872 1174h-223l-112 155l-109 -155h-223l233 270h201zM391 -133h297v-236h-297v236z" />
    <glyph glyph-name="uni1EAE" unicode="&#x1eae;" horiz-adv-x="1224" 
d="M1219 0h-349q-28 133 -63 268h-451q-39 -146 -65 -268h-285q173 673 416 1358h379q224 -630 418 -1358zM420 508h321q-35 139 -106 381q-29 104 -53 201h-4q-17 -73 -52 -203q-91 -322 -106 -379zM668 1763h-162l125 224h246zM768 1683h162q-6 -106 -96 -170.5
t-226 -64.5q-133 0 -219.5 62.5t-93.5 172.5h162q17 -92 155 -92q142 0 156 92z" />
    <glyph glyph-name="uni1EAF" unicode="&#x1eaf;" horiz-adv-x="1081" 
d="M979 0h-250l-18 115q-82 -70 -159 -105t-175 -35q-175 0 -257.5 85t-82.5 219q0 66 19 120t62.5 100t112 77.5t171 49t235.5 17.5h35v37q0 84 -41.5 121t-132.5 37q-69 0 -158 -27.5t-166 -67.5l-92 191q244 123 467 123q228 0 324 -81.5t96 -266.5v-455q0 -64 10 -254z
M672 274v185h-51q-273 0 -273 -144q0 -61 35 -93t90 -32q54 0 100 20.5t99 63.5zM596 1487h-162l125 223h246zM696 1395h162q-6 -106 -95.5 -171t-225.5 -65q-133 0 -220 63t-94 173h162q17 -92 156 -92q141 0 155 92z" />
    <glyph glyph-name="uni1EB0" unicode="&#x1eb0;" horiz-adv-x="1224" 
d="M1219 0h-349q-28 133 -63 268h-451q-39 -146 -65 -268h-285q173 673 416 1358h379q224 -630 418 -1358zM420 508h321q-35 139 -106 381q-29 104 -53 201h-4q-17 -73 -52 -203q-91 -322 -106 -379zM768 1683h162q-6 -106 -96 -170.5t-226 -64.5q-133 0 -219.5 62.5
t-93.5 172.5h162q17 -92 155 -92q142 0 156 92zM719 1763h-162l-209 224h246z" />
    <glyph glyph-name="uni1EB1" unicode="&#x1eb1;" horiz-adv-x="1081" 
d="M979 0h-250l-18 115q-82 -70 -159 -105t-175 -35q-175 0 -257.5 85t-82.5 219q0 66 19 120t62.5 100t112 77.5t171 49t235.5 17.5h35v37q0 84 -41.5 121t-132.5 37q-69 0 -158 -27.5t-166 -67.5l-92 191q244 123 467 123q228 0 324 -81.5t96 -266.5v-455q0 -64 10 -254z
M672 274v185h-51q-273 0 -273 -144q0 -61 35 -93t90 -32q54 0 100 20.5t99 63.5zM647 1487h-162l-209 223h246zM696 1395h162q-6 -106 -95.5 -171t-225.5 -65q-133 0 -220 63t-94 173h162q17 -92 156 -92q141 0 155 92z" />
    <glyph glyph-name="uni1EB2" unicode="&#x1eb2;" horiz-adv-x="1224" 
d="M1219 0h-349q-28 133 -63 268h-451q-39 -146 -65 -268h-285q173 673 416 1358h379q224 -630 418 -1358zM420 508h321q-35 139 -106 381q-29 104 -53 201h-4q-17 -73 -52 -203q-91 -322 -106 -379zM768 1683h162q-6 -106 -96 -170.5t-226 -64.5q-133 0 -219.5 62.5
t-93.5 172.5h162q17 -92 155 -92q142 0 156 92zM438 1827l-35 127q81 33 166 33q88 0 135.5 -37t47.5 -109q0 -41 -21 -83.5t-59 -74.5l-131 60q26 33 26 59q0 41 -51 41q-35 0 -78 -16z" />
    <glyph glyph-name="uni1EB3" unicode="&#x1eb3;" horiz-adv-x="1081" 
d="M979 0h-250l-18 115q-82 -70 -159 -105t-175 -35q-175 0 -257.5 85t-82.5 219q0 66 19 120t62.5 100t112 77.5t171 49t235.5 17.5h35v37q0 84 -41.5 121t-132.5 37q-69 0 -158 -27.5t-166 -67.5l-92 191q244 123 467 123q228 0 324 -81.5t96 -266.5v-455q0 -64 10 -254z
M672 274v185h-51q-273 0 -273 -144q0 -61 35 -93t90 -32q54 0 100 20.5t99 63.5zM696 1395h162q-6 -106 -95.5 -171t-225.5 -65q-133 0 -220 63t-94 173h162q17 -92 156 -92q141 0 155 92zM367 1550l-35 127q81 33 166 33q88 0 135 -36.5t47 -108.5q0 -44 -23 -91t-61 -79
l-131 59q31 39 31 72q0 41 -52 41q-31 0 -77 -17z" />
    <glyph glyph-name="uni1EB4" unicode="&#x1eb4;" horiz-adv-x="1224" 
d="M1219 0h-349q-28 133 -63 268h-451q-39 -146 -65 -268h-285q173 673 416 1358h379q224 -630 418 -1358zM420 508h321q-35 139 -106 381q-29 104 -53 201h-4q-17 -73 -52 -203q-91 -322 -106 -379zM838 1987l94 -78q-31 -67 -86.5 -106.5t-120.5 -39.5q-53 0 -129.5 37
t-103.5 37q-64 0 -107 -74l-94 78q31 67 86.5 106.5t120.5 39.5q53 0 129.5 -37t103.5 -37q64 0 107 74zM764 1683h162q-6 -106 -96 -170.5t-226 -64.5q-133 0 -219.5 62.5t-93.5 172.5h162q17 -92 155 -92q142 0 156 92z" />
    <glyph glyph-name="uni1EB5" unicode="&#x1eb5;" horiz-adv-x="1081" 
d="M979 0h-250l-18 115q-82 -70 -159 -105t-175 -35q-175 0 -257.5 85t-82.5 219q0 66 19 120t62.5 100t112 77.5t171 49t235.5 17.5h35v37q0 84 -41.5 121t-132.5 37q-69 0 -158 -27.5t-166 -67.5l-92 191q244 123 467 123q228 0 324 -81.5t96 -266.5v-455q0 -64 10 -254z
M672 274v185h-51q-273 0 -273 -144q0 -61 35 -93t90 -32q54 0 100 20.5t99 63.5zM770 1700l94 -78q-31 -67 -86.5 -106t-120.5 -39q-53 0 -129.5 36.5t-103.5 36.5q-64 0 -107 -73l-94 77q31 67 86.5 106.5t120.5 39.5q53 0 130 -37t104 -37q63 0 106 74zM696 1395h162
q-6 -106 -95.5 -171t-225.5 -65q-133 0 -220 63t-94 173h162q17 -92 156 -92q141 0 155 92z" />
    <glyph glyph-name="uni1EB6" unicode="&#x1eb6;" horiz-adv-x="1224" 
d="M1219 0h-349q-28 133 -63 268h-451q-39 -146 -65 -268h-285q173 673 416 1358h379q224 -630 418 -1358zM420 508h321q-35 139 -106 381q-29 104 -53 201h-4q-17 -73 -52 -203q-91 -322 -106 -379zM772 1720h182q-15 -120 -111 -197t-237 -77q-135 0 -227 74t-109 200h183
q3 -53 45 -81.5t114 -28.5q149 0 160 110zM442 -133h297v-236h-297v236z" />
    <glyph glyph-name="uni1EB7" unicode="&#x1eb7;" horiz-adv-x="1081" 
d="M979 0h-250l-18 115q-82 -70 -159 -105t-175 -35q-175 0 -257.5 85t-82.5 219q0 66 19 120t62.5 100t112 77.5t171 49t235.5 17.5h35v37q0 84 -41.5 121t-132.5 37q-69 0 -158 -27.5t-166 -67.5l-92 191q244 123 467 123q228 0 324 -81.5t96 -266.5v-455q0 -64 10 -254z
M672 274v185h-51q-273 0 -273 -144q0 -61 35 -93t90 -32q54 0 100 20.5t99 63.5zM696 1448h183q-15 -120 -111.5 -197t-237.5 -77q-135 0 -226.5 74t-108.5 200h182q3 -53 45.5 -82t114.5 -29q148 0 159 111zM391 -133h297v-236h-297v236z" />
    <glyph glyph-name="uni1EB8" unicode="&#x1eb8;" horiz-adv-x="1032" 
d="M979 0h-856v1358h870l-28 -254h-531v-285h432v-246h-432v-319h545v-254zM401 -133h297v-236h-297v236z" />
    <glyph glyph-name="uni1EB9" unicode="&#x1eb9;" horiz-adv-x="1114" 
d="M928 305l119 -190q-222 -140 -504 -140q-243 0 -362.5 125t-119.5 389q0 270 131 419t398 149q235 0 349 -146.5t97 -468.5h-659q0 -116 59 -177.5t174 -61.5q83 0 170.5 28t147.5 74zM377 627h364q3 106 -40.5 166.5t-135.5 60.5q-81 0 -133 -61.5t-55 -165.5zM408 -133
h297v-236h-297v236z" />
    <glyph glyph-name="uni1EBA" unicode="&#x1eba;" horiz-adv-x="1032" 
d="M979 0h-856v1358h870l-28 -254h-531v-285h432v-246h-432v-319h545v-254zM557 1415l-39 139q86 24 86 66q0 22 -18.5 31.5t-63.5 9.5q-76 0 -157 -35l-41 154q127 53 268 53q117 0 180.5 -43t63.5 -121q0 -92 -77 -157.5t-202 -96.5z" />
    <glyph glyph-name="uni1EBB" unicode="&#x1ebb;" horiz-adv-x="1114" 
d="M928 305l119 -190q-222 -140 -504 -140q-243 0 -362.5 125t-119.5 389q0 270 131 419t398 149q235 0 349 -146.5t97 -468.5h-659q0 -116 59 -177.5t174 -61.5q83 0 170.5 28t147.5 74zM377 627h364q3 106 -40.5 166.5t-135.5 60.5q-81 0 -133 -61.5t-55 -165.5zM532 1118
l-36 139q30 8 58 28.5t28 47.5q0 51 -82 51q-41 0 -88.5 -12t-67.5 -22l-43 159q129 54 268 54q117 0 180.5 -46.5t63.5 -134.5q0 -48 -22 -90t-53.5 -70t-72.5 -51t-72.5 -34.5t-60.5 -18.5z" />
    <glyph glyph-name="uni1EBC" unicode="&#x1ebc;" horiz-adv-x="1032" 
d="M979 0h-856v1358h870l-28 -254h-531v-285h432v-246h-432v-319h545v-254zM809 1716l104 -88q-38 -80 -104 -126t-152 -46q-55 0 -137 41t-123 41q-77 0 -135 -92l-104 88q38 77 104 124.5t146 47.5q53 0 136.5 -41t129.5 -41q69 0 135 92z" />
    <glyph glyph-name="uni1EBD" unicode="&#x1ebd;" horiz-adv-x="1114" 
d="M928 305l119 -190q-222 -140 -504 -140q-243 0 -362.5 125t-119.5 389q0 270 131 419t398 149q235 0 349 -146.5t97 -468.5h-659q0 -116 59 -177.5t174 -61.5q83 0 170.5 28t147.5 74zM377 627h364q3 106 -40.5 166.5t-135.5 60.5q-81 0 -133 -61.5t-55 -165.5zM797 1434
l104 -88q-35 -77 -95 -124.5t-130 -47.5q-37 0 -74.5 12.5t-62.5 28t-54.5 28t-52.5 12.5q-34 0 -60.5 -22.5t-54.5 -69.5l-104 88q35 77 95 124.5t130 47.5q46 0 92.5 -20.5t85 -41t66.5 -20.5q34 0 60.5 23t54.5 70z" />
    <glyph glyph-name="uni1EBE" unicode="&#x1ebe;" horiz-adv-x="1032" 
d="M979 0h-856v1358h870l-28 -254h-531v-285h432v-246h-432v-319h545v-254zM877 1450h-222l-100 119l-98 -119h-221l210 223h222zM588 1763h-162l125 224h246z" />
    <glyph glyph-name="uni1EBF" unicode="&#x1ebf;" horiz-adv-x="1114" 
d="M928 305l119 -190q-222 -140 -504 -140q-243 0 -362.5 125t-119.5 389q0 270 131 419t398 149q235 0 349 -146.5t97 -468.5h-659q0 -116 59 -177.5t174 -61.5q83 0 170.5 28t147.5 74zM377 627h364q3 106 -40.5 166.5t-135.5 60.5q-81 0 -133 -61.5t-55 -165.5zM887 1163
h-221l-101 119l-98 -119h-221l211 223h221zM598 1487h-162l125 223h246z" />
    <glyph glyph-name="uni1EC0" unicode="&#x1ec0;" horiz-adv-x="1032" 
d="M979 0h-856v1358h870l-28 -254h-531v-285h432v-246h-432v-319h545v-254zM877 1450h-222l-100 119l-98 -119h-221l210 223h222zM686 1763h-162l-209 224h246z" />
    <glyph glyph-name="uni1EC1" unicode="&#x1ec1;" horiz-adv-x="1114" 
d="M928 305l119 -190q-222 -140 -504 -140q-243 0 -362.5 125t-119.5 389q0 270 131 419t398 149q235 0 349 -146.5t97 -468.5h-659q0 -116 59 -177.5t174 -61.5q83 0 170.5 28t147.5 74zM377 627h364q3 106 -40.5 166.5t-135.5 60.5q-81 0 -133 -61.5t-55 -165.5zM885 1163
h-221l-101 119l-98 -119h-221l211 223h221zM694 1487h-162l-208 223h245z" />
    <glyph glyph-name="uni1EC2" unicode="&#x1ec2;" horiz-adv-x="1032" 
d="M979 0h-856v1358h870l-28 -254h-531v-285h432v-246h-432v-319h545v-254zM868 1450h-221l-100 119l-98 -119h-222l211 223h221zM657 1827l-34 127q81 33 165 33q86 0 134.5 -43t48.5 -117q0 -113 -140 -215l-100 106q55 49 55 84q0 41 -51 41q-35 0 -78 -16z" />
    <glyph glyph-name="uni1EC3" unicode="&#x1ec3;" horiz-adv-x="1114" 
d="M928 305l119 -190q-222 -140 -504 -140q-243 0 -362.5 125t-119.5 389q0 270 131 419t398 149q235 0 349 -146.5t97 -468.5h-659q0 -116 59 -177.5t174 -61.5q83 0 170.5 28t147.5 74zM377 627h364q3 106 -40.5 166.5t-135.5 60.5q-81 0 -133 -61.5t-55 -165.5zM887 1163
h-221l-101 119l-98 -119h-221l211 223h221zM676 1550l-35 127q81 33 166 33q86 0 134 -43t48 -117q0 -118 -141 -221l-100 107q57 51 57 90q0 41 -51 41q-32 0 -78 -17z" />
    <glyph glyph-name="uni1EC4" unicode="&#x1ec4;" horiz-adv-x="1032" 
d="M979 0h-856v1358h870l-28 -254h-531v-285h432v-246h-432v-319h545v-254zM877 1450h-222l-100 119l-98 -119h-221l210 223h222zM782 1987l95 -78q-31 -67 -86.5 -106.5t-120.5 -39.5q-53 0 -130 37t-104 37q-63 0 -106 -74l-94 78q31 68 86.5 107t119.5 39q53 0 130 -37
t104 -37q63 0 106 74z" />
    <glyph glyph-name="uni1EC5" unicode="&#x1ec5;" horiz-adv-x="1114" 
d="M928 305l119 -190q-222 -140 -504 -140q-243 0 -362.5 125t-119.5 389q0 270 131 419t398 149q235 0 349 -146.5t97 -468.5h-659q0 -116 59 -177.5t174 -61.5q83 0 170.5 28t147.5 74zM377 627h364q3 106 -40.5 166.5t-135.5 60.5q-81 0 -133 -61.5t-55 -165.5zM881 1163
h-222l-100 119l-98 -119h-221l211 223h221zM786 1700l95 -78q-31 -67 -86.5 -106t-120.5 -39q-53 0 -130 36.5t-104 36.5q-63 0 -106 -73l-94 77q31 68 86.5 107t119.5 39q53 0 130 -37t104 -37q63 0 106 74z" />
    <glyph glyph-name="uni1EC6" unicode="&#x1ec6;" horiz-adv-x="1032" 
d="M979 0h-856v1358h870l-28 -254h-531v-285h432v-246h-432v-319h545v-254zM891 1456h-223l-113 121l-109 -121h-223l234 223h200zM367 -133h297v-236h-297v236z" />
    <glyph glyph-name="uni1EC7" unicode="&#x1ec7;" horiz-adv-x="1114" 
d="M928 305l119 -190q-222 -140 -504 -140q-243 0 -362.5 125t-119.5 389q0 270 131 419t398 149q235 0 349 -146.5t97 -468.5h-659q0 -116 59 -177.5t174 -61.5q83 0 170.5 28t147.5 74zM377 627h364q3 106 -40.5 166.5t-135.5 60.5q-81 0 -133 -61.5t-55 -165.5zM913 1174
h-223l-112 155l-109 -155h-223l233 270h201zM408 -133h297v-236h-297v236z" />
    <glyph glyph-name="uni1EC8" unicode="&#x1ec8;" horiz-adv-x="557" 
d="M434 0h-311v1358h311v-1358zM207 1415l-39 139q86 24 86 66q0 22 -18.5 31.5t-63.5 9.5q-77 0 -158 -35l-41 154q127 53 269 53q117 0 180 -43t63 -121q0 -92 -77 -157.5t-201 -96.5z" />
    <glyph glyph-name="uni1EC9" unicode="&#x1ec9;" horiz-adv-x="522" 
d="M410 0h-297v1032h297v-1032zM236 1118l-37 139q30 8 58 28.5t28 47.5q0 51 -82 51q-41 0 -88.5 -12t-67.5 -22l-43 159q129 54 268 54q117 0 180.5 -46.5t63.5 -134.5q0 -48 -22 -90t-53 -70t-72 -51t-72.5 -34.5t-60.5 -18.5z" />
    <glyph glyph-name="uni1ECA" unicode="&#x1eca;" horiz-adv-x="557" 
d="M434 0h-311v1358h311v-1358zM129 -133h297v-236h-297v236z" />
    <glyph glyph-name="uni1ECB" unicode="&#x1ecb;" horiz-adv-x="522" 
d="M414 1165h-305v260h305v-260zM410 0h-297v1032h297v-1032zM113 -133h297v-236h-297v236z" />
    <glyph glyph-name="uni1ECC" unicode="&#x1ecc;" horiz-adv-x="1298" 
d="M637 -25q-576 0 -576 668q0 160 36.5 292.5t108.5 233.5t188.5 157t267.5 56q575 0 575 -667q0 -98 -14 -187.5t-43.5 -173.5t-78 -152t-113 -119.5t-154.5 -79.5t-197 -28zM649 229q133 0 198.5 116.5t65.5 332.5q0 229 -63 339.5t-201 110.5q-134 0 -199 -116t-65 -332
q0 -229 63 -340t201 -111zM500 -133h297v-236h-297v236z" />
    <glyph glyph-name="uni1ECD" unicode="&#x1ecd;" horiz-adv-x="1153" 
d="M559 -25q-256 0 -377 125.5t-121 393.5q0 278 135 420.5t398 142.5q256 0 377 -125t121 -393q0 -278 -135 -421t-398 -143zM578 176q99 0 146.5 71t47.5 245q0 142 -23 223t-64 111t-110 30q-99 0 -146.5 -70.5t-47.5 -244.5q0 -142 23 -223t64 -111.5t110 -30.5z
M428 -133h297v-236h-297v236z" />
    <glyph glyph-name="uni1ECE" unicode="&#x1ece;" horiz-adv-x="1298" 
d="M637 -25q-576 0 -576 668q0 160 36.5 292.5t108.5 233.5t188.5 157t267.5 56q575 0 575 -667q0 -98 -14 -187.5t-43.5 -173.5t-78 -152t-113 -119.5t-154.5 -79.5t-197 -28zM649 229q133 0 198.5 116.5t65.5 332.5q0 229 -63 339.5t-201 110.5q-134 0 -199 -116t-65 -332
q0 -229 63 -340t201 -111zM610 1415l-39 139q86 24 86 66q0 22 -18.5 31.5t-63.5 9.5q-76 0 -157 -35l-41 154q127 53 268 53q117 0 180.5 -43t63.5 -121q0 -92 -77 -157.5t-202 -96.5z" />
    <glyph glyph-name="uni1ECF" unicode="&#x1ecf;" horiz-adv-x="1153" 
d="M559 -25q-256 0 -377 125.5t-121 393.5q0 278 135 420.5t398 142.5q256 0 377 -125t121 -393q0 -278 -135 -421t-398 -143zM578 176q99 0 146.5 71t47.5 245q0 142 -23 223t-64 111t-110 30q-99 0 -146.5 -70.5t-47.5 -244.5q0 -142 23 -223t64 -111.5t110 -30.5z
M551 1118l-37 139q30 8 58 28.5t28 47.5q0 51 -82 51q-41 0 -88.5 -12t-67.5 -22l-43 159q129 54 269 54q117 0 180 -46.5t63 -134.5q0 -48 -22 -90t-53 -70t-72 -51t-72.5 -34.5t-60.5 -18.5z" />
    <glyph glyph-name="uni1ED0" unicode="&#x1ed0;" horiz-adv-x="1298" 
d="M637 -25q-576 0 -576 668q0 160 36.5 292.5t108.5 233.5t188.5 157t267.5 56q575 0 575 -667q0 -98 -14 -187.5t-43.5 -173.5t-78 -152t-113 -119.5t-154.5 -79.5t-197 -28zM649 229q133 0 198.5 116.5t65.5 332.5q0 229 -63 339.5t-201 110.5q-134 0 -199 -116t-65 -332
q0 -229 63 -340t201 -111zM969 1450h-221l-101 119l-98 -119h-221l211 223h221zM680 1763h-162l125 224h246z" />
    <glyph glyph-name="uni1ED1" unicode="&#x1ed1;" horiz-adv-x="1153" 
d="M559 -25q-256 0 -377 125.5t-121 393.5q0 278 135 420.5t398 142.5q256 0 377 -125t121 -393q0 -278 -135 -421t-398 -143zM578 176q99 0 146.5 71t47.5 245q0 142 -23 223t-64 111t-110 30q-99 0 -146.5 -70.5t-47.5 -244.5q0 -142 23 -223t64 -111.5t110 -30.5z
M897 1163h-221l-101 119l-98 -119h-221l211 223h221zM608 1487h-162l125 223h246z" />
    <glyph glyph-name="uni1ED2" unicode="&#x1ed2;" horiz-adv-x="1298" 
d="M637 -25q-576 0 -576 668q0 160 36.5 292.5t108.5 233.5t188.5 157t267.5 56q575 0 575 -667q0 -98 -14 -187.5t-43.5 -173.5t-78 -152t-113 -119.5t-154.5 -79.5t-197 -28zM649 229q133 0 198.5 116.5t65.5 332.5q0 229 -63 339.5t-201 110.5q-134 0 -199 -116t-65 -332
q0 -229 63 -340t201 -111zM969 1450h-221l-101 119l-98 -119h-221l211 223h221zM778 1763h-162l-208 224h245z" />
    <glyph glyph-name="uni1ED3" unicode="&#x1ed3;" horiz-adv-x="1153" 
d="M559 -25q-256 0 -377 125.5t-121 393.5q0 278 135 420.5t398 142.5q256 0 377 -125t121 -393q0 -278 -135 -421t-398 -143zM578 176q99 0 146.5 71t47.5 245q0 142 -23 223t-64 111t-110 30q-99 0 -146.5 -70.5t-47.5 -244.5q0 -142 23 -223t64 -111.5t110 -30.5z
M901 1163h-221l-100 119l-99 -119h-221l211 223h221zM711 1487h-162l-209 223h246z" />
    <glyph glyph-name="uni1ED4" unicode="&#x1ed4;" horiz-adv-x="1298" 
d="M637 -25q-576 0 -576 668q0 160 36.5 292.5t108.5 233.5t188.5 157t267.5 56q575 0 575 -667q0 -98 -14 -187.5t-43.5 -173.5t-78 -152t-113 -119.5t-154.5 -79.5t-197 -28zM649 229q133 0 198.5 116.5t65.5 332.5q0 229 -63 339.5t-201 110.5q-134 0 -199 -116t-65 -332
q0 -229 63 -340t201 -111zM965 1450h-222l-100 119l-98 -119h-221l211 223h221zM754 1827l-35 127q81 33 166 33q86 0 134 -43t48 -117q0 -114 -139 -215l-101 106q56 50 56 84q0 41 -52 41q-34 0 -77 -16z" />
    <glyph glyph-name="uni1ED5" unicode="&#x1ed5;" horiz-adv-x="1153" 
d="M559 -25q-256 0 -377 125.5t-121 393.5q0 278 135 420.5t398 142.5q256 0 377 -125t121 -393q0 -278 -135 -421t-398 -143zM578 176q99 0 146.5 71t47.5 245q0 142 -23 223t-64 111t-110 30q-99 0 -146.5 -70.5t-47.5 -244.5q0 -142 23 -223t64 -111.5t110 -30.5z
M897 1163h-221l-101 119l-98 -119h-221l211 223h221zM686 1550l-35 127q81 33 166 33q86 0 134 -43t48 -117q0 -118 -141 -221l-100 107q57 51 57 90q0 41 -51 41q-32 0 -78 -17z" />
    <glyph glyph-name="uni1ED6" unicode="&#x1ed6;" horiz-adv-x="1298" 
d="M637 -25q-576 0 -576 668q0 160 36.5 292.5t108.5 233.5t188.5 157t267.5 56q575 0 575 -667q0 -98 -14 -187.5t-43.5 -173.5t-78 -152t-113 -119.5t-154.5 -79.5t-197 -28zM649 229q133 0 198.5 116.5t65.5 332.5q0 229 -63 339.5t-201 110.5q-134 0 -199 -116t-65 -332
q0 -229 63 -340t201 -111zM969 1450h-221l-101 119l-98 -119h-221l211 223h221zM874 1987l95 -78q-31 -67 -86.5 -106.5t-120.5 -39.5q-53 0 -130 37t-104 37q-63 0 -106 -74l-94 78q31 67 86.5 106.5t120.5 39.5q53 0 129.5 -37t103.5 -37q63 0 106 74z" />
    <glyph glyph-name="uni1ED7" unicode="&#x1ed7;" horiz-adv-x="1153" 
d="M559 -25q-256 0 -377 125.5t-121 393.5q0 278 135 420.5t398 142.5q256 0 377 -125t121 -393q0 -278 -135 -421t-398 -143zM578 176q99 0 146.5 71t47.5 245q0 142 -23 223t-64 111t-110 30q-99 0 -146.5 -70.5t-47.5 -244.5q0 -142 23 -223t64 -111.5t110 -30.5z
M897 1163h-221l-101 119l-98 -119h-221l211 223h221zM803 1700l94 -78q-31 -67 -86.5 -106t-120.5 -39q-53 0 -129.5 36.5t-103.5 36.5q-64 0 -107 -73l-94 77q31 67 86.5 106.5t120.5 39.5q53 0 129.5 -37t103.5 -37q64 0 107 74z" />
    <glyph glyph-name="uni1ED8" unicode="&#x1ed8;" horiz-adv-x="1298" 
d="M637 -25q-576 0 -576 668q0 160 36.5 292.5t108.5 233.5t188.5 157t267.5 56q575 0 575 -667q0 -98 -14 -187.5t-43.5 -173.5t-78 -152t-113 -119.5t-154.5 -79.5t-197 -28zM649 229q133 0 198.5 116.5t65.5 332.5q0 229 -63 339.5t-201 110.5q-134 0 -199 -116t-65 -332
q0 -229 63 -340t201 -111zM983 1470h-223l-113 121l-108 -121h-224l234 224h201zM500 -133h297v-236h-297v236z" />
    <glyph glyph-name="uni1ED9" unicode="&#x1ed9;" horiz-adv-x="1153" 
d="M559 -25q-256 0 -377 125.5t-121 393.5q0 278 135 420.5t398 142.5q256 0 377 -125t121 -393q0 -278 -135 -421t-398 -143zM578 176q99 0 146.5 71t47.5 245q0 142 -23 223t-64 111t-110 30q-99 0 -146.5 -70.5t-47.5 -244.5q0 -142 23 -223t64 -111.5t110 -30.5z
M428 -133h297v-236h-297v236zM922 1174h-224l-112 155l-109 -155h-223l233 270h201z" />
    <glyph glyph-name="uni1EDA" unicode="&#x1eda;" horiz-adv-x="1392" 
d="M637 -25q-576 0 -576 668q0 160 36.5 292.5t108.5 233.5t188.5 157t267.5 56q305 0 448 -188q25 24 40 60.5t14 107.5t-29 160h254q26 -103 22.5 -182t-38 -141.5t-79 -103.5t-100.5 -67q43 -133 43 -313q0 -98 -14 -187.5t-43.5 -173.5t-78 -152t-113 -119.5
t-154.5 -79.5t-197 -28zM649 229q133 0 198.5 116.5t65.5 332.5q0 229 -63 339.5t-201 110.5q-134 0 -199 -116t-65 -332q0 -229 63 -340t201 -111zM733 1470h-182l156 213h278z" />
    <glyph glyph-name="uni1EDB" unicode="&#x1edb;" horiz-adv-x="1267" 
d="M559 -25q-256 0 -377 125.5t-121 393.5q0 278 135 420.5t398 142.5q274 0 397 -148q57 117 -2 293h254q89 -328 -170 -483q19 -80 19 -180q0 -278 -135 -421t-398 -143zM578 176q99 0 146.5 71t47.5 245q0 142 -23 223t-64 111t-110 30q-99 0 -146.5 -70.5t-47.5 -244.5
q0 -142 23 -223t64 -111.5t110 -30.5zM631 1174h-178l159 278h275z" />
    <glyph glyph-name="uni1EDC" unicode="&#x1edc;" horiz-adv-x="1392" 
d="M637 -25q-576 0 -576 668q0 160 36.5 292.5t108.5 233.5t188.5 157t267.5 56q305 0 448 -188q25 24 40 60.5t14 107.5t-29 160h254q26 -103 22.5 -182t-38 -141.5t-79 -103.5t-100.5 -67q43 -133 43 -313q0 -98 -14 -187.5t-43.5 -173.5t-78 -152t-113 -119.5
t-154.5 -79.5t-197 -28zM649 229q133 0 198.5 116.5t65.5 332.5q0 229 -63 339.5t-201 110.5q-134 0 -199 -116t-65 -332q0 -229 63 -340t201 -111zM772 1470h-182l-252 213h278z" />
    <glyph glyph-name="uni1EDD" unicode="&#x1edd;" horiz-adv-x="1267" 
d="M559 -25q-256 0 -377 125.5t-121 393.5q0 278 135 420.5t398 142.5q274 0 397 -148q57 117 -2 293h254q89 -328 -170 -483q19 -80 19 -180q0 -278 -135 -421t-398 -143zM578 176q99 0 146.5 71t47.5 245q0 142 -23 223t-64 111t-110 30q-99 0 -146.5 -70.5t-47.5 -244.5
q0 -142 23 -223t64 -111.5t110 -30.5zM711 1174h-179l-256 278h275z" />
    <glyph glyph-name="uni1EDE" unicode="&#x1ede;" horiz-adv-x="1392" 
d="M637 -25q-576 0 -576 668q0 160 36.5 292.5t108.5 233.5t188.5 157t267.5 56q305 0 448 -188q25 24 40 60.5t14 107.5t-29 160h254q26 -103 22.5 -182t-38 -141.5t-79 -103.5t-100.5 -67q43 -133 43 -313q0 -98 -14 -187.5t-43.5 -173.5t-78 -152t-113 -119.5
t-154.5 -79.5t-197 -28zM649 229q133 0 198.5 116.5t65.5 332.5q0 229 -63 339.5t-201 110.5q-134 0 -199 -116t-65 -332q0 -229 63 -340t201 -111zM614 1415l-39 139q87 24 87 66q0 22 -18.5 31.5t-63.5 9.5q-77 0 -158 -35l-41 154q127 53 268 53q117 0 180.5 -43
t63.5 -121q0 -92 -77 -157.5t-202 -96.5z" />
    <glyph glyph-name="uni1EDF" unicode="&#x1edf;" horiz-adv-x="1267" 
d="M559 -25q-256 0 -377 125.5t-121 393.5q0 278 135 420.5t398 142.5q274 0 397 -148q57 117 -2 293h254q89 -328 -170 -483q19 -80 19 -180q0 -278 -135 -421t-398 -143zM578 176q99 0 146.5 71t47.5 245q0 142 -23 223t-64 111t-110 30q-99 0 -146.5 -70.5t-47.5 -244.5
q0 -142 23 -223t64 -111.5t110 -30.5zM532 1118l-36 139q30 8 58 28.5t28 47.5q0 51 -82 51q-41 0 -88.5 -12t-67.5 -22l-43 159q129 54 268 54q117 0 180.5 -46.5t63.5 -134.5q0 -48 -22 -90t-53.5 -70t-72.5 -51t-72.5 -34.5t-60.5 -18.5z" />
    <glyph glyph-name="uni1EE0" unicode="&#x1ee0;" horiz-adv-x="1392" 
d="M637 -25q-576 0 -576 668q0 160 36.5 292.5t108.5 233.5t188.5 157t267.5 56q305 0 448 -188q25 24 40 60.5t14 107.5t-29 160h254q26 -103 22.5 -182t-38 -141.5t-79 -103.5t-100.5 -67q43 -133 43 -313q0 -98 -14 -187.5t-43.5 -173.5t-78 -152t-113 -119.5
t-154.5 -79.5t-197 -28zM649 229q133 0 198.5 116.5t65.5 332.5q0 229 -63 339.5t-201 110.5q-134 0 -199 -116t-65 -332q0 -229 63 -340t201 -111zM926 1731l104 -89q-38 -80 -104 -126t-152 -46q-45 0 -92 20.5t-90 41t-78 20.5q-77 0 -135 -92l-105 88q38 77 104 124.5
t146 47.5q53 0 137 -41t130 -41q68 0 135 93z" />
    <glyph glyph-name="uni1EE1" unicode="&#x1ee1;" horiz-adv-x="1267" 
d="M559 -25q-256 0 -377 125.5t-121 393.5q0 278 135 420.5t398 142.5q274 0 397 -148q57 117 -2 293h254q89 -328 -170 -483q19 -80 19 -180q0 -278 -135 -421t-398 -143zM578 176q99 0 146.5 71t47.5 245q0 142 -23 223t-64 111t-110 30q-99 0 -146.5 -70.5t-47.5 -244.5
q0 -142 23 -223t64 -111.5t110 -30.5zM809 1434l104 -88q-35 -77 -95 -124.5t-130 -47.5q-37 0 -74.5 12.5t-62.5 28t-54.5 28t-52.5 12.5q-34 0 -60 -22.5t-54 -69.5l-105 88q35 77 95.5 124.5t130.5 47.5q46 0 92 -20.5t84.5 -41t66.5 -20.5q34 0 60.5 23t54.5 70z" />
    <glyph glyph-name="uni1EE2" unicode="&#x1ee2;" horiz-adv-x="1392" 
d="M637 -25q-576 0 -576 668q0 160 36.5 292.5t108.5 233.5t188.5 157t267.5 56q305 0 448 -188q25 24 40 60.5t14 107.5t-29 160h254q26 -103 22.5 -182t-38 -141.5t-79 -103.5t-100.5 -67q43 -133 43 -313q0 -98 -14 -187.5t-43.5 -173.5t-78 -152t-113 -119.5
t-154.5 -79.5t-197 -28zM649 229q133 0 198.5 116.5t65.5 332.5q0 229 -63 339.5t-201 110.5q-134 0 -199 -116t-65 -332q0 -229 63 -340t201 -111zM496 -133h297v-236h-297v236z" />
    <glyph glyph-name="uni1EE3" unicode="&#x1ee3;" horiz-adv-x="1267" 
d="M559 -25q-256 0 -377 125.5t-121 393.5q0 278 135 420.5t398 142.5q274 0 397 -148q57 117 -2 293h254q89 -328 -170 -483q19 -80 19 -180q0 -278 -135 -421t-398 -143zM578 176q99 0 146.5 71t47.5 245q0 142 -23 223t-64 111t-110 30q-99 0 -146.5 -70.5t-47.5 -244.5
q0 -142 23 -223t64 -111.5t110 -30.5zM428 -133h297v-236h-297v236z" />
    <glyph glyph-name="uni1EE4" unicode="&#x1ee4;" horiz-adv-x="1286" 
d="M1167 1358v-828q0 -277 -132.5 -416t-393.5 -139q-268 0 -395 131t-127 408v844h311v-811q0 -174 52 -246t167 -72t171.5 67t56.5 234v828h290zM494 -133h297v-236h-297v236z" />
    <glyph glyph-name="uni1EE5" unicode="&#x1ee5;" horiz-adv-x="1144" 
d="M111 1032h297v-659q0 -92 29.5 -130t101.5 -38q49 0 104 17.5t92 43.5v766h297v-1032h-246l-16 113q-83 -61 -181 -97t-186 -36q-161 0 -226.5 70.5t-65.5 242.5v739zM424 -133h297v-236h-297v236z" />
    <glyph glyph-name="uni1EE6" unicode="&#x1ee6;" horiz-adv-x="1286" 
d="M1167 1358v-828q0 -277 -132.5 -416t-393.5 -139q-268 0 -395 131t-127 408v844h311v-811q0 -174 52 -246t167 -72t171.5 67t56.5 234v828h290zM625 1415l-39 139q86 24 86 66q0 22 -18.5 31.5t-63.5 9.5q-77 0 -158 -35l-41 154q127 53 268 53q117 0 180.5 -43
t63.5 -121q0 -92 -77 -157.5t-201 -96.5z" />
    <glyph glyph-name="uni1EE7" unicode="&#x1ee7;" horiz-adv-x="1144" 
d="M111 1032h297v-659q0 -92 29.5 -130t101.5 -38q49 0 104 17.5t92 43.5v766h297v-1032h-246l-16 113q-83 -61 -181 -97t-186 -36q-161 0 -226.5 70.5t-65.5 242.5v739zM547 1118l-37 139q30 8 58 28.5t28 47.5q0 51 -82 51q-41 0 -88.5 -12t-67.5 -22l-43 159
q129 54 269 54q117 0 180 -46.5t63 -134.5q0 -48 -22 -90t-53 -70t-72 -51t-72.5 -34.5t-60.5 -18.5z" />
    <glyph glyph-name="uni1EE8" unicode="&#x1ee8;" horiz-adv-x="1464" 
d="M1167 1358v-189q52 27 74 87t16.5 127.5t-30.5 138.5h254q14 -48 19.5 -94.5t2 -100.5t-24.5 -103.5t-58 -95.5t-101.5 -84t-151.5 -63v-451q0 -277 -132.5 -416t-393.5 -139q-268 0 -395 131t-127 408v844h311v-811q0 -174 52 -246t167 -72t171.5 67t56.5 234v828h290z
M750 1456h-183l156 213h278z" />
    <glyph glyph-name="uni1EE9" unicode="&#x1ee9;" horiz-adv-x="1370" 
d="M408 1032v-659q0 -92 29.5 -130t101.5 -38q49 0 104 17.5t92 43.5v766h297v-182q52 27 74 86.5t16.5 127t-30.5 138.5h254q17 -58 22 -114t-7.5 -122t-47 -121t-106.5 -104.5t-175 -78.5v-662h-246l-16 113q-83 -61 -181 -97t-186 -36q-161 0 -226.5 70.5t-65.5 242.5
v739h297zM655 1165h-178l160 279h274z" />
    <glyph glyph-name="uni1EEA" unicode="&#x1eea;" horiz-adv-x="1464" 
d="M1167 1358v-189q52 27 74 87t16.5 127.5t-30.5 138.5h254q14 -48 19.5 -94.5t2 -100.5t-24.5 -103.5t-58 -95.5t-101.5 -84t-151.5 -63v-451q0 -277 -132.5 -416t-393.5 -139q-268 0 -395 131t-127 408v844h311v-811q0 -174 52 -246t167 -72t171.5 67t56.5 234v828h290z
M784 1456h-182l-252 213h279z" />
    <glyph glyph-name="uni1EEB" unicode="&#x1eeb;" horiz-adv-x="1370" 
d="M408 1032v-659q0 -92 29.5 -130t101.5 -38q49 0 104 17.5t92 43.5v766h297v-182q52 27 74 86.5t16.5 127t-30.5 138.5h254q17 -58 22 -114t-7.5 -122t-47 -121t-106.5 -104.5t-175 -78.5v-662h-246l-16 113q-83 -61 -181 -97t-186 -36q-161 0 -226.5 70.5t-65.5 242.5
v739h297zM668 1165h-179l-256 279h275z" />
    <glyph glyph-name="uni1EEC" unicode="&#x1eec;" horiz-adv-x="1464" 
d="M1167 1358v-189q52 27 74 87t16.5 127.5t-30.5 138.5h254q14 -48 19.5 -94.5t2 -100.5t-24.5 -103.5t-58 -95.5t-101.5 -84t-151.5 -63v-451q0 -277 -132.5 -416t-393.5 -139q-268 0 -395 131t-127 408v844h311v-811q0 -174 52 -246t167 -72t171.5 67t56.5 234v828h290z
M578 1415l-39 139q86 24 86 66q0 22 -18.5 31.5t-63.5 9.5q-77 0 -158 -35l-41 154q127 53 268 53q117 0 180.5 -43t63.5 -121q0 -92 -77 -157.5t-201 -96.5z" />
    <glyph glyph-name="uni1EED" unicode="&#x1eed;" horiz-adv-x="1370" 
d="M408 1032v-659q0 -92 29.5 -130t101.5 -38q49 0 104 17.5t92 43.5v766h297v-182q52 27 74 86.5t16.5 127t-30.5 138.5h254q17 -58 22 -114t-7.5 -122t-47 -121t-106.5 -104.5t-175 -78.5v-662h-246l-16 113q-83 -61 -181 -97t-186 -36q-161 0 -226.5 70.5t-65.5 242.5
v739h297zM539 1118l-37 139q30 8 58 28.5t28 47.5q0 51 -82 51q-41 0 -88.5 -12t-67.5 -22l-43 159q129 54 268 54q117 0 180.5 -46.5t63.5 -134.5q0 -48 -22 -90t-53 -70t-72 -51t-72.5 -34.5t-60.5 -18.5z" />
    <glyph glyph-name="uni1EEE" unicode="&#x1eee;" horiz-adv-x="1464" 
d="M1167 1358v-189q52 27 74 87t16.5 127.5t-30.5 138.5h254q14 -48 19.5 -94.5t2 -100.5t-24.5 -103.5t-58 -95.5t-101.5 -84t-151.5 -63v-451q0 -277 -132.5 -416t-393.5 -139q-268 0 -395 131t-127 408v844h311v-811q0 -174 52 -246t167 -72t171.5 67t56.5 234v828h290z
M922 1716l104 -88q-38 -80 -104 -126t-152 -46q-45 0 -92 20.5t-90 41t-78 20.5q-77 0 -135 -92l-105 88q38 77 104 124.5t146 47.5q53 0 136.5 -41t129.5 -41q70 0 136 92z" />
    <glyph glyph-name="uni1EEF" unicode="&#x1eef;" horiz-adv-x="1370" 
d="M408 1032v-659q0 -92 29.5 -130t101.5 -38q49 0 104 17.5t92 43.5v766h297v-182q52 27 74 86.5t16.5 127t-30.5 138.5h254q17 -58 22 -114t-7.5 -122t-47 -121t-106.5 -104.5t-175 -78.5v-662h-246l-16 113q-83 -61 -181 -97t-186 -36q-161 0 -226.5 70.5t-65.5 242.5
v739h297zM811 1425l104 -88q-35 -77 -95 -124.5t-130 -47.5q-46 0 -92.5 20.5t-85 41t-66.5 20.5q-34 0 -60 -22.5t-54 -69.5l-105 88q35 77 95.5 124.5t130.5 47.5q46 0 92 -20.5t84.5 -41t66.5 -20.5q34 0 60.5 22.5t54.5 69.5z" />
    <glyph glyph-name="uni1EF0" unicode="&#x1ef0;" horiz-adv-x="1464" 
d="M1167 1358v-189q52 27 74 87t16.5 127.5t-30.5 138.5h254q14 -48 19.5 -94.5t2 -100.5t-24.5 -103.5t-58 -95.5t-101.5 -84t-151.5 -63v-451q0 -277 -132.5 -416t-393.5 -139q-268 0 -395 131t-127 408v844h311v-811q0 -174 52 -246t167 -72t171.5 67t56.5 234v828h290z
M494 -133h297v-236h-297v236z" />
    <glyph glyph-name="uni1EF1" unicode="&#x1ef1;" horiz-adv-x="1370" 
d="M408 1032v-659q0 -92 29.5 -130t101.5 -38q49 0 104 17.5t92 43.5v766h297v-182q52 27 74 86.5t16.5 127t-30.5 138.5h254q17 -58 22 -114t-7.5 -122t-47 -121t-106.5 -104.5t-175 -78.5v-662h-246l-16 113q-83 -61 -181 -97t-186 -36q-161 0 -226.5 70.5t-65.5 242.5
v739h297zM424 -133h297v-236h-297v236z" />
    <glyph glyph-name="Ygrave" unicode="&#x1ef2;" horiz-adv-x="1069" 
d="M678 0h-311v573q-226 411 -387 785h356q92 -246 211 -494h6q102 192 235 494h302q-181 -391 -412 -776v-582zM668 1456h-183l-252 213h279z" />
    <glyph glyph-name="ygrave" unicode="&#x1ef3;" horiz-adv-x="985" 
d="M344 -369l-182 140q160 105 160 282q0 47 -50 190t-126 368.5t-121 420.5h319q15 -70 33 -144t30.5 -121.5t34 -128.5t31.5 -118q28 -106 53 -235h4q7 34 28 129t28 129q73 364 90 489h285q-137 -593 -256 -903q-81 -208 -164.5 -318.5t-196.5 -179.5zM623 1165h-179
l-256 279h275z" />
    <glyph glyph-name="uni1EF4" unicode="&#x1ef4;" horiz-adv-x="1069" 
d="M678 0h-311v573q-226 411 -387 785h356q92 -246 211 -494h6q102 192 235 494h302q-181 -391 -412 -776v-582zM385 -133h297v-236h-297v236z" />
    <glyph glyph-name="uni1EF5" unicode="&#x1ef5;" horiz-adv-x="985" 
d="M344 -369l-182 140q160 105 160 282q0 47 -50 190t-126 368.5t-121 420.5h319q15 -70 33 -144t30.5 -121.5t34 -128.5t31.5 -118q28 -106 53 -235h4q7 34 28 129t28 129q73 364 90 489h285q-137 -593 -256 -903q-81 -208 -164.5 -318.5t-196.5 -179.5zM631 -133h297v-236
h-297v236z" />
    <glyph glyph-name="uni1EF6" unicode="&#x1ef6;" horiz-adv-x="1069" 
d="M678 0h-311v573q-226 411 -387 785h356q92 -246 211 -494h6q102 192 235 494h302q-181 -391 -412 -776v-582zM514 1415l-39 139q86 24 86 66q0 22 -18.5 31.5t-63.5 9.5q-76 0 -157 -35l-41 154q127 53 268 53q117 0 180.5 -43t63.5 -121q0 -92 -77 -157.5t-202 -96.5z
" />
    <glyph glyph-name="uni1EF7" unicode="&#x1ef7;" horiz-adv-x="985" 
d="M344 -369l-182 140q160 105 160 282q0 47 -50 190t-126 368.5t-121 420.5h319q15 -70 33 -144t30.5 -121.5t34 -128.5t31.5 -118q28 -106 53 -235h4q7 34 28 129t28 129q73 364 90 489h285q-137 -593 -256 -903q-81 -208 -164.5 -318.5t-196.5 -179.5zM467 1118l-37 139
q30 8 58 28.5t28 47.5q0 51 -82 51q-41 0 -88 -12t-67 -22l-43 159q129 54 268 54q117 0 180.5 -46.5t63.5 -134.5q0 -48 -22 -90t-53.5 -70t-72.5 -51t-72.5 -34.5t-60.5 -18.5z" />
    <glyph glyph-name="uni1EF8" unicode="&#x1ef8;" horiz-adv-x="1069" 
d="M678 0h-311v573q-226 411 -387 785h356q92 -246 211 -494h6q102 192 235 494h302q-181 -391 -412 -776v-582zM807 1716l104 -88q-38 -80 -104 -126t-152 -46q-55 0 -137 41t-123 41q-77 0 -135 -92l-104 88q38 77 104 124.5t146 47.5q53 0 136.5 -41t129.5 -41
q69 0 135 92z" />
    <glyph glyph-name="uni1EF9" unicode="&#x1ef9;" horiz-adv-x="985" 
d="M344 -369l-182 140q160 105 160 282q0 47 -50 190t-126 368.5t-121 420.5h319q15 -70 33 -144t30.5 -121.5t34 -128.5t31.5 -118q28 -106 53 -235h4q7 34 28 129t28 129q73 364 90 489h285q-137 -593 -256 -903q-81 -208 -164.5 -318.5t-196.5 -179.5zM737 1425l105 -88
q-35 -77 -95.5 -124.5t-130.5 -47.5q-46 0 -92 20.5t-84.5 41t-66.5 20.5q-34 0 -60.5 -22.5t-54.5 -69.5l-104 88q35 77 95 124.5t130 47.5q46 0 92.5 -20.5t85 -41t66.5 -20.5q34 0 60 22.5t54 69.5z" />
    <glyph glyph-name="endash" unicode="&#x2013;" horiz-adv-x="1024" 
d="M1026 514h-1026v240h1026v-240z" />
    <glyph glyph-name="emdash" unicode="&#x2014;" horiz-adv-x="2048" 
d="M1843 514h-1638v240h1638v-240z" />
    <glyph glyph-name="uni2015" unicode="&#x2015;" horiz-adv-x="2048" 
d="M1843 514h-1638v240h1638v-240z" />
    <glyph glyph-name="quoteleft" unicode="&#x2018;" horiz-adv-x="522" 
d="M410 874h-297v275l182 344l100 -47l-121 -279h136v-293z" />
    <glyph glyph-name="quoteright" unicode="&#x2019;" horiz-adv-x="522" 
d="M227 739l-100 47l121 279h-135v293h297v-275z" />
    <glyph glyph-name="quotesinglbase" unicode="&#x201a;" horiz-adv-x="522" 
d="M227 -326l-100 47l121 279h-135v293h297v-275z" />
    <glyph glyph-name="quotedblleft" unicode="&#x201c;" horiz-adv-x="909" 
d="M399 881h-286v270l176 336l100 -47l-119 -273h129v-286zM797 881h-287v270l176 336l100 -47l-118 -273h129v-286z" />
    <glyph glyph-name="quotedblright" unicode="&#x201d;" horiz-adv-x="909" 
d="M621 752l-101 47l119 272h-129v287h287v-271zM223 752l-100 47l119 272h-129v287h286v-271z" />
    <glyph glyph-name="quotedblbase" unicode="&#x201e;" horiz-adv-x="909" 
d="M621 -319l-101 47l119 272h-129v287h287v-271zM223 -319l-100 47l119 272h-129v287h286v-271z" />
    <glyph glyph-name="dagger" unicode="&#x2020;" horiz-adv-x="1024" 
d="M588 291h-154l-45 479l37 246l-309 -8v149l309 -8l-37 276h246l-37 -276l309 8v-149l-309 8l37 -246z" />
    <glyph glyph-name="daggerdbl" unicode="&#x2021;" horiz-adv-x="1024" 
d="M907 410l-309 8l37 -277h-246l37 277l-309 -8v149l309 -8l-37 233l37 232l-309 -8v149l309 -8l-37 276h246l-37 -276l309 8v-149l-309 8l37 -232l-37 -233l309 8v-149z" />
    <glyph glyph-name="bullet" unicode="&#x2022;" horiz-adv-x="1220" 
d="M610 348q-145 0 -247.5 102.5t-102.5 247.5t102.5 248t247.5 103t248 -103t103 -248t-103 -247.5t-248 -102.5z" />
    <glyph glyph-name="uni2023" unicode="&#x2023;" horiz-adv-x="1454" 
d="M1380 655l-1155 -675v1351z" />
    <glyph glyph-name="ellipsis" unicode="&#x2026;" horiz-adv-x="1814" 
d="M1692 0h-316v328h316v-328zM1065 0h-315v328h315v-328zM438 0h-315v328h315v-328z" />
    <glyph glyph-name="perthousand" unicode="&#x2030;" horiz-adv-x="2170" 
d="M1808 -25q-166 0 -233.5 94t-67.5 275q0 173 79.5 274t236.5 101q166 0 233.5 -94t67.5 -275q0 -173 -79.5 -274t-236.5 -101zM1110 -25q-166 0 -233.5 94t-67.5 275q0 173 79 274t236 101q166 0 233.5 -94t67.5 -275q0 -173 -79 -274t-236 -101zM455 0h-193l750 1358
h188zM348 639q-166 0 -233.5 94t-67.5 275q0 173 79 273.5t236 100.5q166 0 234 -93.5t68 -274.5q0 -173 -79.5 -274t-236.5 -101zM1817 127q57 0 78.5 52t21.5 163q0 120 -21.5 172.5t-80.5 52.5q-57 0 -79 -52t-22 -163q0 -120 22 -172.5t81 -52.5zM1118 127q57 0 79 52
t22 163q0 120 -22 172.5t-81 52.5q-57 0 -78.5 -52t-21.5 -163q0 -120 21.5 -172.5t80.5 -52.5zM356 791q57 0 79 52t22 163q0 120 -22 172.5t-81 52.5q-57 0 -78.5 -52t-21.5 -163q0 -120 21.5 -172.5t80.5 -52.5z" />
    <glyph glyph-name="guilsinglleft" unicode="&#x2039;" horiz-adv-x="528" 
d="M408 248h-107l-184 336l184 344h107l-107 -344z" />
    <glyph glyph-name="guilsinglright" unicode="&#x203a;" horiz-adv-x="528" 
d="M225 248h-108l108 336l-108 344h108l183 -344z" />
    <glyph glyph-name="fraction" unicode="&#x2044;" horiz-adv-x="552" 
d="M20 0h-192l750 1358h188z" />
    <glyph glyph-name="dong" unicode="&#x20ab;" horiz-adv-x="1220" 
d="M1221 -369h-1221v209h1221v-209zM479 1133v190h275v102h299v-102h112v-190h-112v-1133h-246l-16 106q-163 -126 -326 -126q-182 0 -276.5 121.5t-94.5 359.5q0 286 147 439t418 153q50 0 95 -9v89h-275zM756 274v564q-45 20 -105 20q-110 0 -176.5 -88t-66.5 -250
q0 -176 40 -250.5t113 -74.5q96 0 195 79z" />
    <glyph glyph-name="Euro" unicode="&#x20ac;" horiz-adv-x="1220" 
d="M1028 350l135 -188q-97 -96 -200.5 -141.5t-253.5 -45.5q-216 0 -346.5 115.5t-169.5 331.5h-177v160h158q-2 23 -2 65q0 57 2 84h-158v160h177q39 232 163 361.5t344 129.5q224 0 333.5 -94.5t117.5 -255.5l-293 -33q-3 160 -160 160q-72 0 -122.5 -69.5t-63.5 -198.5
h289v-160h-301v-49q0 -30 4 -100h297v-160h-281q15 -96 71 -147.5t138 -51.5q72 0 151.5 31t147.5 96z" />
    <glyph glyph-name="trademark" unicode="&#x2122;" horiz-adv-x="1380" 
d="M381 807h-156v440h-166v131h492l-10 -131h-160v-440zM1294 807h-155q0 109 -15 416h-2l-143 -416h-137l-131 416h-2q-19 -315 -19 -416h-135q10 316 37 571h231l105 -358h4l117 358h206q36 -400 39 -571z" />
    <glyph glyph-name="partialdiff" unicode="&#x2202;" horiz-adv-x="1122" 
d="M188 1350l289 114q586 -307 586 -794q0 -50 -4.5 -100.5t-19.5 -122t-40 -133.5t-71.5 -126t-107.5 -109.5t-153.5 -74.5t-205.5 -29q-85 0 -156.5 24.5t-128.5 74.5t-89 135t-32 197q0 49 7.5 102.5t25.5 116.5t45.5 121t71 112.5t98 95t131.5 64.5t166 24h23
q-173 197 -435 308zM496 174q60 0 107 40t74 98.5t44 133.5t23 135t6 113q0 77 -30 118.5t-104 41.5q-67 0 -117 -47t-76.5 -124t-39 -157.5t-12.5 -163.5q0 -188 125 -188z" />
    <glyph glyph-name="product" unicode="&#x220f;" horiz-adv-x="1304" 
d="M1161 -348h-307v1507h-403v-1507h-308v1507h-118v266h1255v-266h-119v-1507z" />
    <glyph glyph-name="summation" unicode="&#x2211;" horiz-adv-x="1261" 
d="M1118 -348h-1009v207l475 667l-453 664v235h934l29 -266h-576l418 -606l-455 -635h670z" />
    <glyph glyph-name="minus" unicode="&#x2212;" horiz-adv-x="1187" 
d="M1085 555h-983v240h983v-240z" />
    <glyph glyph-name="radical" unicode="&#x221a;" horiz-adv-x="1294" 
d="M727 0h-309l-266 774h-121v258h336l229 -633l418 1149h268z" />
    <glyph glyph-name="infinity" unicode="&#x221e;" horiz-adv-x="2013" 
d="M999 522q-136 -101 -260.5 -160t-253.5 -59q-190 0 -292.5 104t-102.5 263q0 169 114.5 278t297.5 109q118 0 242 -56.5t270 -166.5q134 100 260 161.5t250 61.5q187 0 294 -103t107 -264q0 -165 -112.5 -276t-309.5 -111q-208 0 -504 219zM1210 684q106 -79 177 -116.5
t129 -37.5q75 0 120 44t45 108t-45.5 105.5t-119.5 41.5q-61 0 -135.5 -37.5t-170.5 -107.5zM803 674q-105 79 -175 117t-128 38q-75 0 -119.5 -43t-44.5 -106q0 -65 46 -107.5t120 -42.5q105 0 301 144z" />
    <glyph glyph-name="integral" unicode="&#x222b;" horiz-adv-x="645" 
d="M-14 -350l32 207q37 -13 80 -13q39 0 55.5 28.5t16.5 92.5v1112q0 88 15.5 151.5t53.5 115t107.5 77t171.5 25.5q76 0 141 -19l-32 -206q-35 12 -80 12q-39 0 -55.5 -28.5t-16.5 -92.5v-1112q0 -88 -15.5 -151.5t-53.5 -115t-107.5 -77t-171.5 -25.5q-76 0 -141 19z" />
    <glyph glyph-name="approxequal" unicode="&#x2248;" horiz-adv-x="1187" 
d="M975 1073l143 -108q-53 -109 -144 -174.5t-202 -65.5q-57 0 -113 20t-94 43.5t-83 43.5t-81 20q-113 0 -188 -127l-143 109q52 109 143.5 174t202.5 65q57 0 113 -20t93.5 -43.5t82.5 -43.5t81 -20q114 0 189 127zM975 625l143 -109q-53 -109 -144 -174.5t-202 -65.5
q-57 0 -113 20t-94 43.5t-83 43.5t-81 20q-113 0 -188 -127l-143 109q53 109 144 174.5t202 65.5q57 0 113 -20t93.5 -43.5t82.5 -43.5t81 -20q114 0 189 127z" />
    <glyph glyph-name="notequal" unicode="&#x2260;" horiz-adv-x="1187" 
d="M1079 326h-577l-140 -267h-184l139 267h-208v229h329l127 240h-456v229h577l139 266h185l-140 -266h209v-229h-329l-127 -240h456v-229z" />
    <glyph glyph-name="lessequal" unicode="&#x2264;" horiz-adv-x="1187" 
d="M1085 0h-983v240h983v-240zM1085 348l-983 369v244l983 368v-254l-675 -233l675 -232v-262z" />
    <glyph glyph-name="greaterequal" unicode="&#x2265;" horiz-adv-x="1187" 
d="M1085 0h-983v240h983v-240zM102 1329l983 -368v-244l-983 -369v254l676 234l-676 231v262z" />
    <glyph glyph-name="diamondrhombsolid" unicode="&#x25c6;" horiz-adv-x="1576" 
d="M809 -51l-707 706l707 707l707 -707z" />
    <glyph glyph-name="lozenge" unicode="&#x25ca;" horiz-adv-x="1193" 
d="M721 0h-156l-495 682l491 676h152l495 -682zM662 356l204 291l-250 352l-206 -290z" />
    <glyph glyph-name="uni274F" unicode="&#x274f;" horiz-adv-x="1728" 
d="M1565 0h-1205v197h-196v1204h1204v-197h197v-1204zM1266 299v999h-1000v-999h1000z" />
    <glyph glyph-name="apple" unicode="&#xf8ff;" horiz-adv-x="2138" 
d="M340 627l-307 -31q-12 91 0 182l307 -28q-6 -63 0 -123zM516 1157l-237 195q70 80 127 127l196 -236q-48 -38 -86 -86zM1010 1403l-31 297q73 7 180 0l-29 -297q-48 7 -120 0zM1858 1350l-232 -191q-43 54 -86 86l191 232q78 -65 127 -127zM2107 598l-303 29q6 60 0 123
l301 26q8 -85 2 -178zM1382 -373h-116q-6 -41 -62.5 -69.5t-134.5 -28.5q-79 0 -135 28t-62 70h-116l-111 267l64 18l-66 154l72 20l-39 90v162q-62 69 -97.5 160t-35.5 188q0 144 70.5 265t191.5 191t264 70q142 0 263 -70t192 -191t71 -265q0 -100 -36.5 -192.5
t-98.5 -157.5v-164l-33 -10l66 -156l-66 -16l66 -150l-68 -18l21 -49zM1221 393h100q61 53 98 129t37 164q0 161 -113.5 275t-273.5 114t-273.5 -114t-113.5 -275q0 -85 35.5 -161.5t99.5 -131.5h103l-33 264q-17 -4 -78 -24q-20 -7 -30 23t-5.5 64.5t19.5 39.5
q146 41 276 41q131 0 281 -41q13 -4 17 -38.5t-6.5 -64.5t-31.5 -24q-27 12 -82 24zM1122 393l27 281q-31 6 -80 6t-82 -6l31 -281h104zM1319 238v45h-500v-97l29 -69zM1321 66l-27 65l-479 -123l27 -63zM1276 -279l22 56l-8 20l-143 -37l-31 84l205 52l-27 63l-479 -125
l47 -113h414zM1044 731v2h-4v12h-2v-14h6zM1053 735v6h-2v-6l-1 -2q-1 0 -1 2v6h-2v-6q0 -6 4 -3q2 1 2 3zM1061 731v2q-2 -1 -3 1q0 4 3 5v2q-5 2 -5 -5q-1 -5 3 -5h2zM1069 727q-7 10 0 21q-5 0 -5 -10.5t5 -10.5zM1077 731v6q0 3 -2.5 4t-5.5 -2q5 0 6 -2q-5 0 -6 -4
q0 -2 1 -2q2 0 5 2v-2h2zM1081 731v2q3 0 0 4t4 4v-2q-2 0 0 -4q-1 -3 -4 -4zM1087 727q5 0 5 10.5t-5 10.5q7 -11 0 -21z" />
    <glyph glyph-name="grave.cap" horiz-adv-x="638" 
d="M537 1456h-183l-252 213h279z" />
    <glyph glyph-name="acute.cap" horiz-adv-x="638" 
d="M285 1456h-183l156 213h279z" />
    <glyph glyph-name="circumflex.cap" horiz-adv-x="872" 
d="M770 1456h-223l-113 121l-108 -121h-224l234 223h201z" />
    <glyph glyph-name="caron.cap" horiz-adv-x="872" 
d="M537 1456h-201l-234 223h224l112 -120l109 120h223z" />
    <glyph glyph-name="caron.comma" horiz-adv-x="468" 
d="M264 1276h-162l50 280h215z" />
    <glyph glyph-name="tilde.cap" horiz-adv-x="960" 
d="M754 1716l104 -88q-38 -80 -104 -126t-152 -46q-45 0 -92 20.5t-90 41t-78 20.5q-77 0 -135 -92l-105 88q38 77 104 124.5t146 47.5q53 0 136.5 -41t129.5 -41q70 0 136 92z" />
    <glyph glyph-name="dieresis.narrow" horiz-adv-x="741" 
d="M639 1165h-221v226h221v-226zM324 1165h-222v226h222v-226z" />
    <glyph glyph-name="dieresis.cap" horiz-adv-x="790" 
d="M688 1475h-221v213h221v-213zM324 1475h-222v213h222v-213z" />
    <glyph glyph-name="macron.cap" horiz-adv-x="796" 
d="M694 1475h-592v190h592v-190z" />
    <glyph glyph-name="breve.cap" horiz-adv-x="886" 
d="M604 1720h182q-15 -120 -111 -197t-237 -77q-135 0 -227 74t-109 200h183q3 -53 45 -81.5t114 -28.5q149 0 160 110z" />
    <glyph glyph-name="ring.cap" horiz-adv-x="665" 
d="M565 1649q0 -100 -62 -152.5t-179 -52.5q-226 0 -226 188q0 100 62.5 152.5t179.5 52.5q113 0 169 -46t56 -142zM334 1559q72 0 72 81q0 82 -76 82q-72 0 -72 -82q0 -81 76 -81z" />
    <glyph glyph-name="hungarumlaut.cap" horiz-adv-x="1007" 
d="M641 1456h-182l168 213h278zM281 1456h-179l127 213h275z" />
    <glyph glyph-name="dotaccent.cap" horiz-adv-x="520" 
d="M418 1456h-316v242h316v-242z" />
    <glyph glyph-name="uni0326.flat" horiz-adv-x="491" 
d="M264 -369h-151l77 105h-88v186h287v-178z" />
    <glyph glyph-name="zero.onum" horiz-adv-x="1220" 
d="M592 -25q-262 0 -394 141.5t-132 436.5q0 288 153 437t410 149q262 0 394 -141.5t132 -434.5q0 -147 -41.5 -260t-116.5 -184t-177.5 -107.5t-227.5 -36.5zM621 213q213 0 213 340q0 186 -56 267t-178 81q-213 0 -213 -338q0 -189 56 -269.5t178 -80.5z" />
    <glyph glyph-name="one.onum" horiz-adv-x="940" 
d="M915 0h-849v262h266v555l-205 -76l-72 224l414 153h180v-856h266v-262z" />
    <glyph glyph-name="two.onum" horiz-adv-x="1177" 
d="M1069 0h-989v236q56 87 130.5 157t141.5 109.5t134.5 75.5t116.5 61t79.5 61t30.5 80q0 57 -42 96t-128 39t-135.5 -50.5t-49.5 -143.5h-286q0 199 123.5 308.5t363.5 109.5q108 0 193 -18.5t140 -49.5t91 -75t51 -91.5t15 -101.5q0 -85 -33 -151.5t-84.5 -106.5
t-118.5 -76.5t-129.5 -62t-125 -62.5t-97.5 -78h643z" />
    <glyph glyph-name="three.onum" horiz-adv-x="1165" 
d="M455 340h-80v238h78q79 0 133.5 13t84 39t42 58.5t12.5 77.5q0 72 -45 115t-141 43q-83 0 -138 -50t-55 -129h-285q0 189 136 291.5t364 102.5q246 0 369 -91t123 -255q0 -114 -62 -190.5t-203 -119.5v-4q164 -27 238 -106.5t74 -206.5q0 -113 -42 -197.5t-120.5 -135.5
t-181.5 -76t-232 -25q-272 0 -378.5 93.5t-82.5 301.5h326q-12 -88 27 -130t139 -42q56 0 100 16.5t75.5 61t31.5 114.5q0 113 -68 153t-239 40z" />
    <glyph glyph-name="four.onum" horiz-adv-x="1198" 
d="M952 -244h-325v303h-602v213l499 842h428v-807h193v-248h-193v-303zM627 311v518h-4l-301 -518h305z" />
    <glyph glyph-name="five.onum" horiz-adv-x="1153" 
d="M70 158h309q-17 -98 25.5 -141.5t138.5 -43.5q200 0 200 181q0 85 -30.5 135t-113.5 77t-230 27q-101 0 -242 -12l49 733h817l-14 -266h-563l-21 -227q33 2 97 2q157 0 273 -31.5t184.5 -90t101 -133t32.5 -167.5q0 -236 -147.5 -352.5t-413.5 -116.5q-264 0 -371 101
t-81 325z" />
    <glyph glyph-name="six.onum" horiz-adv-x="1218" 
d="M1153 463q0 -227 -155 -357.5t-408 -130.5q-91 0 -165 17t-142 61t-114.5 114t-73.5 181t-27 256q0 171 32.5 306t87 222.5t131.5 144.5t161.5 81t181.5 24q221 0 329.5 -87t102.5 -267l-320 -35q8 85 -26.5 125.5t-94.5 40.5q-225 0 -239 -395q206 70 340 70
q192 0 295.5 -86.5t103.5 -284.5zM821 428q0 180 -182 180q-113 0 -217 -49q0 -83 7.5 -143.5t27.5 -111.5t58 -77t95 -26q101 0 156 57.5t55 169.5z" />
    <glyph glyph-name="seven.onum" horiz-adv-x="1015" 
d="M563 -244h-360q87 334 203.5 637.5t222.5 454.5h-582v266h922v-160q-128 -227 -233 -541t-173 -657z" />
    <glyph glyph-name="eight.onum" horiz-adv-x="1189" 
d="M1085 1067q0 -205 -223 -350q79 -46 133 -94t91.5 -119.5t37.5 -155.5q0 -75 -31 -140t-95.5 -118.5t-176 -84t-258.5 -30.5q-246 0 -371.5 77.5t-125.5 246.5q0 80 38 151.5t94 122.5t138 101q-116 66 -182 146.5t-66 189.5q0 167 138 269.5t392 102.5q216 0 341.5 -80
t125.5 -235zM774 1040q0 58 -48 93.5t-136 35.5q-83 0 -125.5 -34t-42.5 -88q0 -60 51 -107t148 -98q153 97 153 198zM791 324q0 65 -57.5 117.5t-166.5 109.5q-84 -49 -129 -99.5t-45 -111.5q0 -41 16.5 -72t45.5 -47.5t62.5 -24.5t72.5 -8q87 0 144 33.5t57 102.5z" />
    <glyph glyph-name="nine.onum" horiz-adv-x="1218" 
d="M66 651q0 227 155 357.5t408 130.5q91 0 165 -17t142 -61.5t114.5 -114.5t73.5 -181t27 -257q0 -170 -33.5 -305t-89.5 -222t-134.5 -144t-164 -81t-182.5 -24q-225 0 -339 91.5t-99 280.5h321q-6 -74 30.5 -111.5t94.5 -37.5q108 0 175.5 95t74.5 300q-207 -69 -340 -69
q-193 0 -296 85.5t-103 284.5zM397 684q0 -178 183 -178q104 0 217 49q0 84 -8 144.5t-28 111t-58 76.5t-95 26q-101 0 -156 -57.5t-55 -171.5z" />
    <glyph glyph-name="Euro.tab" 
d="M979 350l133 -188q-96 -96 -196.5 -141.5t-247.5 -45.5q-211 0 -339 115.5t-165 331.5h-148v160h129q-2 23 -2 65q0 57 2 84h-129v160h148q37 232 159 361.5t336 129.5q218 0 325.5 -94.5t115.5 -255.5l-287 -33q-1 84 -39.5 122t-111.5 38q-69 0 -117.5 -69.5
t-61.5 -198.5h277v-160h-289v-49q0 -30 4 -100h285v-160h-268q15 -96 68 -147.5t130 -51.5q69 0 146 31t143 96z" />
    </font>
</defs>
</svg>
