<?xml version="1.0" standalone="no"?>
<!DOCTYPE svg PUBLIC "-//W3C//DTD SVG 1.1//EN" "http://www.w3.org/Graphics/SVG/1.1/DTD/svg11.dtd" >
<svg xmlns="http://www.w3.org/2000/svg" xmlns:xlink="http://www.w3.org/1999/xlink" version="1.1">
<metadata>
Created by FontForge 20201107 at Sat Sep  7 07:39:56 2024
 By 
Copyright [c] 1997, 2000, 2005, 2008, 2014 by Luc(as) de Groot, published by LucasFonts.
</metadata>
<defs>
<font id="Spiegel-RegularItalic" horiz-adv-x="1105" >
  <font-face 
    font-family="Spiegel Regular"
    font-weight="400"
    font-style="italic"
    font-stretch="normal"
    units-per-em="2048"
    panose-1="2 11 5 2 6 4 2 9 5 4"
    ascent="1577"
    descent="-471"
    x-height="1032"
    cap-height="1358"
    bbox="-803 -471 2109.57 1987"
    underline-thickness="131"
    underline-position="-302"
    slope="-11"
    unicode-range="U+000D-FB02"
  />
<missing-glyph horiz-adv-x="1126" 
d="M614 307h-307v512h103v-409h204v-103zM1024 102h-922v922h922v-922zM819 307h-102v205h-205v102h205v103h-205v102h307v-512zM922 205v717h-717v-717h717z" />
    <glyph glyph-name="fi" unicode="fi" horiz-adv-x="1073" 
d="M1094 1214h-176l36 181h176zM436 905l-180 -858q-30 -140 -73.5 -230.5t-131.5 -187.5l-100 86q99 117 139 305l186 885h-182l29 127h182l17 86q33 170 118 246t256 76q68 0 125 -13l-39 -122q-52 10 -108 10q-84 0 -126.5 -45.5t-62.5 -139.5l-20 -98h582l-220 -1032
h-159l190 905h-422z" />
    <glyph glyph-name="fl" unicode="fl" horiz-adv-x="1073" 
d="M827 0h-159l274 1292q-102 23 -192 23q-230 0 -271 -209l-14 -74h252l-43 -127h-238l-180 -858q-30 -140 -73.5 -230.5t-131.5 -187.5l-100 86q99 117 139 305l186 885h-182l29 127h182l10 51q37 185 146 271t305 86q50 0 203 -15h159z" />
    <glyph glyph-name=".notdef" horiz-adv-x="1126" 
d="M614 307h-307v512h103v-409h204v-103zM1024 102h-922v922h922v-922zM819 307h-102v205h-205v102h205v103h-205v102h307v-512zM922 205v717h-717v-717h717z" />
    <glyph glyph-name=".null" horiz-adv-x="0" 
 />
    <glyph glyph-name=".null" horiz-adv-x="0" 
 />
    <glyph glyph-name="nonmarkingreturn" horiz-adv-x="682" 
 />
    <glyph glyph-name="CR" unicode="&#xd;" horiz-adv-x="1185" 
 />
    <glyph glyph-name="space" unicode=" " horiz-adv-x="512" 
 />
    <glyph glyph-name="exclam" unicode="!" horiz-adv-x="618" 
d="M377 367h-109q35 412 156 991h219q-118 -565 -266 -991zM352 0h-213l45 219h213z" />
    <glyph glyph-name="quotedbl" unicode="&#x22;" horiz-adv-x="862" 
d="M721 831h-107l64 527h201zM371 831h-107l64 527h200z" />
    <glyph glyph-name="numbersign" unicode="#" horiz-adv-x="1218" 
d="M686 0h-135l151 406h-307l-151 -406h-135l151 406h-197l27 126h217l125 336h-205l27 127h225l135 363h136l-136 -363h308l135 363h135l-135 -363h196l-26 -127h-217l-125 -336h205l-27 -126h-225zM750 532l124 336h-307l-125 -336h308z" />
    <glyph glyph-name="dollar" unicode="$" horiz-adv-x="1249" 
d="M1124 461q0 -64 -19.5 -127t-63 -122.5t-106 -106t-155.5 -77t-205 -36.5l-43 -207h-122l43 207q-98 5 -172.5 29t-126 67.5t-70.5 112t0 157.5l178 21q-21 -133 41.5 -190.5t247.5 -57.5q181 0 287 85t106 204q0 58 -38 97.5t-99 61t-134.5 39t-147 40t-134.5 54.5
t-99 91.5t-38 142.5q0 44 13.5 92t48.5 104t88 101t141.5 79t199.5 42l41 197h123l-41 -197q85 -4 148 -22t110.5 -55.5t61 -95t-1.5 -140.5l-174 -19q15 41 9.5 78t-27.5 65.5t-75 45t-133 16.5q-162 0 -260 -73t-98 -187q0 -59 38.5 -99.5t100 -62.5t135.5 -39.5
t148 -38.5t135.5 -51.5t100 -87.5t38.5 -137z" />
    <glyph glyph-name="percent" unicode="%" horiz-adv-x="1443" 
d="M401 651q-123 0 -181 52t-58 169q0 87 21.5 173t64 163t116.5 124.5t168 47.5q123 0 181.5 -52t58.5 -169q0 -69 -13 -138t-42 -136t-71 -119t-105.5 -83.5t-139.5 -31.5zM643 1145q0 71 -29.5 101t-93.5 30q-56 0 -102 -37t-72.5 -95.5t-40.5 -125t-14 -131.5
q0 -71 29.5 -101t93.5 -30q56 0 102 37t72.5 95.5t40.5 125t14 131.5zM995 -23q-123 0 -182 53.5t-59 170.5q0 87 22 173t64.5 162t117 123.5t168.5 47.5q123 0 182.5 -53.5t59.5 -170.5q0 -87 -22 -173t-65 -162t-117.5 -123.5t-168.5 -47.5zM1235 469q0 72 -29 102.5
t-92 30.5q-56 0 -101.5 -36.5t-72 -95t-40 -124.5t-13.5 -131q0 -72 29 -102.5t92 -30.5q56 0 101.5 36.5t72 95t40 124.5t13.5 131zM1362 1358l-1063 -1358h-145l1065 1358h143z" />
    <glyph glyph-name="ampersand" unicode="&#x26;" horiz-adv-x="1382" 
d="M1067 752h156q-23 -146 -84.5 -278.5t-153.5 -231.5q2 -2 18.5 -17.5t26 -23.5t31 -22t39.5 -21.5t45 -14t55 -6.5l39 4l-31 -141q-18 -6 -41 -6q-143 0 -290 147q-217 -164 -451 -164q-171 0 -274 77t-103 220q0 133 85 244t269 207q-81 159 -81 287q0 65 23 127
t70.5 117.5t131.5 89.5t194 34q129 0 211 -61.5t82 -173.5q0 -79 -34.5 -143t-128 -139.5t-261.5 -168.5q142 -220 277 -358q156 193 180 416zM774 229q-156 156 -301 383q-146 -91 -198 -165.5t-52 -163.5q0 -172 240 -172q153 0 311 118zM549 803q187 103 253 174t66 149
q0 129 -141 129q-63 0 -111.5 -21t-76 -56t-41 -74t-13.5 -80q0 -87 64 -221z" />
    <glyph glyph-name="quotesingle" unicode="'" horiz-adv-x="610" 
d="M432 831h-106l63 527h201z" />
    <glyph glyph-name="parenleft" unicode="(" horiz-adv-x="643" 
d="M375 -311l-107 -60q-80 127 -127 297t-47 340q0 305 144.5 614t410.5 560l90 -64q-250 -269 -366.5 -562.5t-116.5 -588.5q0 -280 119 -536z" />
    <glyph glyph-name="parenright" unicode=")" horiz-adv-x="643" 
d="M289 1380l106 60q80 -127 127 -297t47 -340q0 -305 -144.5 -614t-410.5 -560l-90 64q250 269 367 563t117 588q0 280 -119 536z" />
    <glyph glyph-name="asterisk" unicode="*" horiz-adv-x="1218" 
d="M1141 934l-353 14l160 -295l-108 -59l-129 311l-197 -311l-102 59l219 293l-350 -14l12 121l354 -13l-155 295l108 60l127 -310l199 310l94 -60l-223 -299l356 17z" />
    <glyph glyph-name="plus" unicode="+" horiz-adv-x="1187" 
d="M592 147h-139l98 461h-422l27 131h422l98 461h139l-98 -461h422l-27 -131h-422z" />
    <glyph glyph-name="comma" unicode="," horiz-adv-x="536" 
d="M51 -297l-71 35l161 262h-80l48 225h208l-45 -209z" />
    <glyph glyph-name="hyphen" unicode="-" horiz-adv-x="464" 
d="M455 500h-453l29 127h452z" />
    <glyph glyph-name="hyphen" unicode="&#xad;" horiz-adv-x="464" 
d="M455 500h-453l29 127h452z" />
    <glyph glyph-name="period" unicode="." horiz-adv-x="536" 
d="M270 0h-209l48 225h208z" />
    <glyph glyph-name="slash" unicode="/" horiz-adv-x="747" 
d="M-29 -238h-143l1003 1711h146z" />
    <glyph glyph-name="zero" unicode="0" horiz-adv-x="1224" 
d="M516 -23q-195 0 -301 100t-106 326q0 134 36 302q70 333 241.5 504t406.5 171q407 0 407 -424q0 -132 -35 -290q-73 -343 -243 -516t-406 -173zM537 111q171 0 280 126t172 420q39 181 39 304q0 158 -64 223t-192 65q-171 0 -280.5 -127.5t-172.5 -421.5
q-38 -176 -38 -303q0 -157 64.5 -221.5t191.5 -64.5z" />
    <glyph glyph-name="one" unicode="1" horiz-adv-x="1017" 
d="M864 0h-856l29 139h364l226 1057l-326 -129l-31 137l422 154h129l-258 -1219h330z" />
    <glyph glyph-name="two" unicode="2" horiz-adv-x="1159" 
d="M971 150l-49 -150h-932l22 106q68 85 158.5 165t176.5 139.5t176.5 119t165 114t134.5 113t93.5 128.5t33.5 149q0 211 -239 211q-155 0 -245.5 -82.5t-121.5 -230.5h-162q44 213 183.5 330.5t371.5 117.5q196 0 292.5 -94.5t96.5 -241.5q0 -88 -34 -167t-94 -143
t-134 -122t-162 -114.5t-169 -108t-164.5 -115t-139.5 -124.5h742z" />
    <glyph glyph-name="three" unicode="3" horiz-adv-x="1128" 
d="M432 -23q-109 0 -190.5 19.5t-129.5 54.5t-71.5 83.5t-22 105.5t24.5 122h178q-43 -133 10.5 -190t241.5 -57q90 0 163.5 28t118.5 74.5t69 101.5t24 113q0 207 -318 207h-131l29 133h131q185 0 279 79.5t94 211.5q0 90 -59 138t-175 48q-149 0 -230 -61.5t-103 -163.5
h-177q35 161 173.5 258.5t355.5 97.5q184 0 286.5 -81.5t102.5 -221.5q0 -100 -46.5 -181t-115 -126.5t-147.5 -58.5v-4q111 -7 170 -75.5t59 -180.5q0 -208 -161 -341t-433 -133z" />
    <glyph glyph-name="four" unicode="4" horiz-adv-x="1107" 
d="M752 0h-164l65 317h-667l26 125l783 916h243l-190 -903h221l-31 -138h-221zM684 455l164 770h-2l-658 -770h496z" />
    <glyph glyph-name="five" unicode="5" horiz-adv-x="1124" 
d="M70 362h178q-26 -87 -18 -142t66 -80t183 -25q92 0 163 26.5t112 65.5t67 91t34.5 96.5t8.5 88.5q0 113 -72.5 158t-234.5 45q-185 0 -379 -35l197 707h760l-41 -148h-625l-115 -401q118 14 240 14q228 0 337 -73t109 -240q0 -75 -20 -148.5t-66 -143.5t-113 -123
t-169.5 -85.5t-227.5 -32.5q-237 0 -336 99.5t-38 285.5z" />
    <glyph glyph-name="six" unicode="6" horiz-adv-x="1228" 
d="M1116 528q0 -74 -24 -151t-73.5 -148.5t-118.5 -127.5t-167.5 -90t-210.5 -34q-203 0 -309.5 109.5t-106.5 321.5q0 54 8 124t30 165t56 186.5t92.5 183t132.5 160t182.5 111t236.5 42.5q84 0 158 -24.5t126 -71t71.5 -113.5t-5.5 -151l-178 -21q37 114 -21.5 179
t-183.5 65q-85 0 -157.5 -33t-121.5 -82.5t-90.5 -121.5t-65.5 -135t-46 -138q75 34 187 61t206 27q186 0 289.5 -73t103.5 -220zM938 492q0 99 -68.5 147.5t-187.5 48.5q-167 0 -383 -88q-16 -94 -16 -170q0 -67 11 -119t39 -100t83.5 -74t136.5 -26q94 0 170 36.5
t121.5 94.5t69.5 122.5t24 127.5z" />
    <glyph glyph-name="seven" unicode="7" horiz-adv-x="1026" 
d="M322 0h-195q414 738 823 1208h-751l30 150h936l-24 -119q-210 -219 -426 -550t-393 -689z" />
    <glyph glyph-name="eight" unicode="8" horiz-adv-x="1226" 
d="M522 -23q-215 0 -343 86.5t-128 225.5q0 137 97 240t305 182q-187 90 -187 256q0 58 17 114.5t58 111t100.5 95.5t152.5 66.5t207 25.5q178 0 291.5 -75t113.5 -203q0 -122 -83 -214.5t-273 -168.5q270 -100 270 -301q0 -87 -40 -166t-113.5 -140.5t-188.5 -98
t-256 -36.5zM1032 1085q0 164 -254 164q-151 0 -242.5 -72t-91.5 -178q0 -76 57.5 -123t172.5 -92q207 69 282.5 134t75.5 167zM938 383q0 30 -9.5 56t-23 46t-40 40t-48 33t-60.5 30t-63.5 26.5t-70.5 26.5q-217 -74 -306.5 -150t-89.5 -188q0 -55 28.5 -94.5t77 -59.5
t100 -29t110.5 -9q102 0 190 29.5t146.5 93t58.5 149.5z" />
    <glyph glyph-name="nine" unicode="9" horiz-adv-x="1228" 
d="M197 850q0 68 22.5 140t71 142t115.5 125t164.5 89t209.5 34q205 0 313.5 -112.5t108.5 -333.5q0 -39 -5 -89t-17.5 -117.5t-31.5 -136.5t-51 -143.5t-72 -141.5t-97 -128t-124 -105t-155.5 -70t-189.5 -26q-85 0 -160 25t-128.5 72t-73.5 115t5 155h174
q-29 -110 27.5 -169.5t188.5 -59.5q343 0 489 508q-73 -33 -183.5 -59.5t-197.5 -26.5q-403 0 -403 313zM373 864q0 -194 256 -194q172 0 383 86q16 94 16 170q0 321 -274 321q-93 0 -169 -37t-120.5 -95t-68 -123t-23.5 -128z" />
    <glyph glyph-name="colon" unicode=":" horiz-adv-x="567" 
d="M471 807h-209l49 225h209zM301 0h-209l47 225h209z" />
    <glyph glyph-name="semicolon" unicode=";" horiz-adv-x="567" 
d="M471 807h-209l49 225h209zM82 -297l-72 35l162 262h-80l47 225h209l-45 -209z" />
    <glyph glyph-name="less" unicode="&#x3c;" horiz-adv-x="1187" 
d="M1008 195l-887 413l26 131l1063 414l-28 -145l-899 -340l753 -338z" />
    <glyph glyph-name="equal" unicode="=" horiz-adv-x="1187" 
d="M1149 807h-975l29 131h975zM1065 410h-975l29 131h975z" />
    <glyph glyph-name="greater" unicode="&#x3e;" horiz-adv-x="1187" 
d="M260 1153l887 -414l-27 -131l-1063 -413l29 145l897 340l-752 338z" />
    <glyph glyph-name="question" unicode="?" horiz-adv-x="1048" 
d="M555 367h-147q9 67 42.5 124t80 97.5t100 78t105.5 74.5t95 77.5t69 97t26 124.5q0 95 -65.5 148t-174.5 53q-127 0 -206.5 -66.5t-104.5 -187.5l-146 39q30 164 155.5 259t326.5 95q184 0 286.5 -86t102.5 -231q0 -86 -28.5 -159t-74.5 -124t-101.5 -95t-113 -80.5
t-106 -71.5t-82 -77t-39.5 -89zM516 0h-213l45 219h213z" />
    <glyph glyph-name="at" unicode="@" horiz-adv-x="1603" 
d="M1067 266q-86 0 -130.5 49t-27.5 131q-51 -75 -138 -127.5t-169 -52.5q-99 0 -143.5 50t-44.5 151q0 84 15.5 163t51 152.5t87.5 128.5t130 88t174 33q155 0 275 -47l-90 -387q-23 -105 -23 -143t18.5 -56t59.5 -18q82 0 148.5 65.5t101.5 169.5t35 224q0 93 -26 168
t-81.5 133.5t-149.5 90.5t-222 32q-139 0 -256 -47.5t-196 -126t-134 -182.5t-80 -214.5t-25 -224.5q0 -85 15 -152.5t52.5 -126.5t96.5 -98t151 -61.5t212 -22.5q72 0 157 18t152 46l29 -117q-88 -33 -195 -51.5t-195 -18.5q-315 0 -465.5 139.5t-150.5 419.5
q0 85 12.5 171.5t43 179.5t75.5 176.5t115 159t157 130.5t206 87t257 32q149 0 262 -38t181.5 -107.5t102.5 -161.5t34 -207q0 -120 -30.5 -227.5t-87 -191t-146.5 -132.5t-201 -49zM985 893q-46 16 -141 16q-90 0 -154.5 -57.5t-94.5 -150.5t-30 -209q0 -58 19 -84.5
t59 -26.5q84 0 178 114t129 257z" />
    <glyph glyph-name="A" unicode="A" horiz-adv-x="1171" 
d="M1053 0h-176q-12 174 -31 371h-567q-113 -220 -185 -371h-180q288 586 752 1358h211q116 -583 176 -1358zM350 508h481q-18 208 -51 463q-15 118 -37 246h-4q-45 -78 -131 -230q-117 -209 -258 -479z" />
    <glyph glyph-name="B" unicode="B" horiz-adv-x="1177" 
d="M487 0h-430l287 1358h410q203 0 297 -63t94 -193q0 -142 -77 -245.5t-216 -139.5v-2q105 -6 169 -69t64 -163q0 -74 -22 -142.5t-69.5 -131t-116 -108.5t-169 -73.5t-221.5 -27.5zM393 778h195q188 0 285.5 76t97.5 221q0 75 -59.5 109.5t-206.5 34.5h-218zM258 139h258
q194 0 293.5 91.5t99.5 232.5q0 90 -71 134t-226 44h-247z" />
    <glyph glyph-name="C" unicode="C" horiz-adv-x="1267" 
d="M1169 436q-69 -209 -225 -334t-379 -125q-236 0 -343 124.5t-107 357.5q0 74 13 157t42 172.5t71 174t104 160.5t136.5 133t173 90.5t209.5 33.5q175 0 280 -81t105 -228q0 -71 -22 -143l-170 -21q20 72 20 129q0 92 -57 148.5t-172 56.5q-100 0 -185 -42.5t-143.5 -113
t-103.5 -156t-70.5 -177t-38 -169t-12.5 -139.5q0 -155 72.5 -240t214.5 -85q158 0 267 87t157 230h163z" />
    <glyph glyph-name="D" unicode="D" horiz-adv-x="1294" 
d="M61 0l287 1358l404 2q136 1 238.5 -34.5t162.5 -99.5t89.5 -144.5t29.5 -176.5q0 -71 -12 -150t-40 -168t-69.5 -171.5t-106.5 -159t-144.5 -133t-189.5 -90t-237 -33.5h-412zM262 139h240q127 0 230.5 52t168 132.5t109 183.5t62.5 199.5t18 186.5q0 328 -365 328h-233z
" />
    <glyph glyph-name="E" unicode="E" horiz-adv-x="1062" 
d="M899 0h-838l287 1358h819l-47 -139h-628l-95 -441h523l-29 -137h-522l-107 -500h666z" />
    <glyph glyph-name="F" unicode="F" horiz-adv-x="962" 
d="M233 0h-172l287 1358h774l-47 -139h-583l-99 -461h518l-28 -137h-518z" />
    <glyph glyph-name="G" unicode="G" horiz-adv-x="1318" 
d="M1210 684l-118 -565q-117 -64 -254 -103t-269 -39q-224 0 -341 120t-117 360q0 69 12 148t40 169t68 175.5t101 164t134.5 137.5t173 94t212.5 35q181 0 292 -86t111 -233q0 -51 -12 -94l-170 -19q10 45 10 74q0 97 -69.5 157t-184.5 60q-85 0 -158.5 -31t-127 -82
t-97 -119.5t-71 -140.5t-46 -147t-26.5 -137.5t-8 -114.5q0 -179 74.5 -264.5t226.5 -85.5q173 0 340 80l74 348h-328l29 139h499z" />
    <glyph glyph-name="H" unicode="H" horiz-adv-x="1339" 
d="M1073 0h-172l135 639h-667l-136 -639h-172l287 1358h172l-121 -574h668l121 574h172z" />
    <glyph glyph-name="I" unicode="I" horiz-adv-x="499" 
d="M233 0h-172l287 1358h172z" />
    <glyph glyph-name="J" unicode="J" horiz-adv-x="763" 
d="M793 1358l-199 -936q-21 -99 -59 -178t-95 -140t-139.5 -94t-185.5 -33q-111 0 -195 25l29 145q91 -26 172 -26q122 0 195 74t106 225l199 938h172z" />
    <glyph glyph-name="K" unicode="K" horiz-adv-x="1124" 
d="M1030 0h-221l-430 690l-146 -690h-172l287 1358h172l-129 -613l633 613h221l-684 -641z" />
    <glyph glyph-name="L" unicode="L" horiz-adv-x="919" 
d="M788 0h-727l287 1358h172l-258 -1215h567z" />
    <glyph glyph-name="M" unicode="M" horiz-adv-x="1695" 
d="M1460 0h-168q34 178 168 948q36 219 43 269h-4q-67 -126 -92 -170l-588 -1047h-145l-150 1047q-17 135 -20 170h-4q-6 -23 -33 -123t-39 -146q-127 -499 -231 -948h-166q143 623 370 1358h236l131 -920q16 -121 23 -239h4q61 142 118 243l514 916h236
q-81 -691 -203 -1358z" />
    <glyph glyph-name="N" unicode="N" horiz-adv-x="1327" 
d="M1061 0h-166l-354 952q-35 90 -86 265h-2q-19 -115 -56 -306l-192 -911h-144l287 1358h213l316 -852q49 -133 96 -326h2q25 212 59 369l172 809h142z" />
    <glyph glyph-name="O" unicode="O" horiz-adv-x="1372" 
d="M578 -20q-229 0 -348 123t-119 335q0 75 13 159t42 176t71.5 178t105.5 164t139 136t178 92.5t217 34.5q229 0 347.5 -123t118.5 -335q0 -75 -13 -159t-42 -176t-71 -178t-105 -164t-139 -136t-178 -92.5t-217 -34.5zM590 117q87 0 164.5 30.5t134.5 81.5t104.5 118.5
t78.5 140.5t52.5 149.5t31 143.5t9.5 124q0 336 -303 336q-120 0 -220 -58t-163.5 -146t-108 -197t-63 -207t-18.5 -180q0 -336 301 -336z" />
    <glyph glyph-name="P" unicode="P" horiz-adv-x="1112" 
d="M1149 1042q0 -108 -42.5 -202.5t-118 -163t-185 -108.5t-238.5 -40h-221l-111 -528h-172l287 1358h391q200 0 305 -83t105 -233zM975 1028q0 191 -254 191h-229l-117 -551h203q103 0 182 30.5t124.5 82.5t68 114.5t22.5 132.5z" />
    <glyph glyph-name="Q" unicode="Q" horiz-adv-x="1372" 
d="M1047 -145h-570l51 127q-206 13 -311.5 134t-105.5 322q0 75 13 159t42 176t71.5 178t105.5 164t139 136t178 92.5t217 34.5q229 0 347.5 -123t118.5 -335q0 -79 -15 -167.5t-44.5 -183.5t-79.5 -185.5t-114.5 -167.5t-154.5 -134t-194 -82h363zM590 117q87 0 164.5 30.5
t134.5 81.5t104.5 118.5t78.5 140.5t52.5 149.5t31 143.5t9.5 124q0 336 -303 336q-120 0 -220 -58t-163.5 -146t-108 -197t-63 -207t-18.5 -180q0 -336 301 -336z" />
    <glyph glyph-name="R" unicode="R" horiz-adv-x="1193" 
d="M1022 0h-211l-258 592h-195l-125 -592h-172l287 1358h430q187 0 283 -79.5t96 -215.5q0 -168 -115 -295t-309 -160zM983 1044q0 82 -58.5 128.5t-181.5 46.5h-251l-105 -490h227q97 0 170 25.5t115.5 70.5t63 100t20.5 119z" />
    <glyph glyph-name="S" unicode="S" horiz-adv-x="1249" 
d="M1194 1061l-174 -19q26 94 -27.5 146.5t-208.5 52.5q-159 0 -255.5 -73t-96.5 -187q0 -52 29.5 -90.5t78 -59.5t110.5 -40.5t126 -33t126 -38t110.5 -54.5t78 -83t29.5 -123q0 -73 -24 -142.5t-74 -131t-121 -108t-172.5 -73.5t-220.5 -27q-250 0 -356 102t-72 275
l178 21q-22 -131 40 -194.5t249 -63.5q175 0 282 86.5t107 212.5q0 51 -29.5 88.5t-77.5 58t-109 39.5t-125 32t-125 37t-109 54t-77.5 82.5t-29.5 122.5q0 86 33 164.5t98 143.5t174 103.5t248 38.5q81 0 147 -12t111 -33t77.5 -50.5t46 -65t16.5 -76t-11 -82.5z" />
    <glyph glyph-name="T" unicode="T" horiz-adv-x="985" 
d="M1153 1358l-43 -141h-379l-256 -1217h-172l258 1217h-383l29 141h946z" />
    <glyph glyph-name="U" unicode="U" horiz-adv-x="1296" 
d="M1321 1358l-180 -852q-56 -265 -192 -397t-378 -132q-432 0 -432 326q0 81 29 223l176 832h172l-172 -809q-33 -152 -33 -223q0 -106 68 -156.5t221 -50.5q161 0 250 89.5t131 289.5l182 860h158z" />
    <glyph glyph-name="V" unicode="V" horiz-adv-x="1150" 
d="M567 0h-188q-116 645 -178 1358h176q17 -240 46 -508.5t50 -417.5q25 -177 35 -274h4q3 6 158 293q232 418 469 907h180q-319 -647 -752 -1358z" />
    <glyph glyph-name="W" unicode="W" horiz-adv-x="1806" 
d="M1300 0h-215l-43 895q-4 123 7 264h-5q-62 -169 -102 -254l-426 -905h-215q-69 692 -72 1358h172q-1 -149 3.5 -345t11.5 -389.5t8 -238.5q6 -204 6 -244h4q59 146 105 244l458 973h181l47 -981q6 -177 6 -236h4q105 243 106 244q301 647 437 973h168
q-296 -688 -646 -1358z" />
    <glyph glyph-name="X" unicode="X" horiz-adv-x="1069" 
d="M958 0l-180 -20l-225 602q-62 -76 -135 -169.5t-170.5 -220t-149.5 -192.5h-190q404 501 588 719l-252 639l184 20l190 -522q79 99 386 502h192q-344 -430 -516 -635z" />
    <glyph glyph-name="Y" unicode="Y" horiz-adv-x="1044" 
d="M1227 1358q-306 -429 -602 -774l-123 -584h-168l123 580q-164 388 -273 778h183q89 -335 208 -623h5q216 254 462 623h185z" />
    <glyph glyph-name="Z" unicode="Z" horiz-adv-x="1048" 
d="M918 141l-41 -141h-930l26 129l940 1088h-684l41 141h885l-27 -129l-942 -1088h732z" />
    <glyph glyph-name="bracketleft" unicode="[" horiz-adv-x="632" 
d="M348 -348h-362l376 1773h363l-23 -110h-206l-330 -1553h207z" />
    <glyph glyph-name="backslash" unicode="\" horiz-adv-x="663" 
d="M621 -238h-142l-282 1711h141z" />
    <glyph glyph-name="bracketright" unicode="]" horiz-adv-x="632" 
d="M305 1425h363l-377 -1773h-363l25 110h207l329 1553h-206z" />
    <glyph glyph-name="asciicircum" unicode="^" horiz-adv-x="1220" 
d="M1016 487h-121l-133 676l-420 -676h-125l537 871h92z" />
    <glyph glyph-name="underscore" unicode="_" horiz-adv-x="1220" 
d="M1038 -369h-1218l28 131h1219z" />
    <glyph glyph-name="grave" unicode="`" horiz-adv-x="610" 
d="M635 1182h-125l-207 278h184z" />
    <glyph glyph-name="a" unicode="a" 
d="M1081 1049l-139 -654q-33 -148 -55 -395h-154l21 193q-69 -98 -168.5 -155.5t-208.5 -57.5q-303 0 -303 325q0 78 12.5 157.5t39.5 165.5t75 160.5t112.5 134t158.5 94t206 34.5q103 0 242 -27zM412 111q59 0 120 31t117 88.5t101.5 149t70.5 204.5l64 295
q-117 45 -234 45q-78 0 -142.5 -30t-107.5 -81.5t-75 -113t-49 -132t-25 -131.5t-8 -117q0 -116 40.5 -162t127.5 -46z" />
    <glyph glyph-name="b" unicode="b" 
d="M1042 727q0 -66 -8.5 -134t-29.5 -142t-52.5 -141t-80 -128t-109 -105.5t-144 -70.5t-180.5 -26q-107 0 -241 26l-160 -24l305 1443h160l-53 -254q-45 -223 -84 -331q69 99 168 157t206 58q303 0 303 -328zM872 713q0 116 -40.5 163.5t-126.5 47.5q-59 0 -120 -31
t-117 -89t-102 -150t-71 -205l-64 -297q119 -46 234 -46q92 0 166 44t118 110t73 150.5t39.5 159t10.5 143.5z" />
    <glyph glyph-name="c" unicode="c" horiz-adv-x="1013" 
d="M827 293l82 -98q-141 -117 -246.5 -167.5t-228.5 -50.5q-176 0 -265 93t-89 274q0 93 20.5 189t67 190.5t113 167.5t167 118.5t220.5 45.5q145 0 233 -69.5t88 -201.5q0 -50 -12 -108h-160q12 53 12 90q0 78 -48.5 121t-135.5 43q-96 0 -174.5 -57.5t-124 -146.5
t-70 -185.5t-24.5 -186.5q0 -122 56 -186t155 -64q160 0 364 189z" />
    <glyph glyph-name="d" unicode="d" horiz-adv-x="1110" 
d="M1161 1425l-219 -1030q-33 -148 -55 -395h-154l21 193q-69 -99 -169 -157.5t-208 -58.5q-303 0 -303 328q0 94 17.5 190.5t62 198.5t111 180.5t174 128.5t241.5 50q107 0 238 -27l83 399h160zM412 109q59 0 120.5 31t117 89t101 150t70.5 205l66 297q-117 45 -234 45
q-93 0 -166.5 -44t-118 -110t-73.5 -150.5t-40 -159.5t-11 -143q0 -116 40.5 -163t127.5 -47z" />
    <glyph glyph-name="e" unicode="e" horiz-adv-x="1042" 
d="M911 137q-129 -83 -235 -121.5t-225 -38.5q-180 0 -276.5 97t-96.5 276q0 54 8 114t27.5 129.5t48.5 134t76 125t106 104.5t141.5 71t178.5 27q173 0 260.5 -64.5t87.5 -181.5q0 -139 -111.5 -224t-341.5 -85h-299q-16 -70 -16 -148q0 -119 59 -183.5t172 -64.5
q171 0 377 138zM846 793q0 62 -49 100.5t-150 38.5q-73 0 -135 -27t-104.5 -73.5t-71.5 -100t-45 -113.5h278q277 0 277 175z" />
    <glyph glyph-name="f" unicode="f" horiz-adv-x="589" 
d="M842 1425l-45 -122q-50 12 -125 12q-86 0 -126.5 -44.5t-60.5 -140.5l-20 -98h250l-41 -127h-238l-180 -858q-30 -140 -73.5 -230.5t-131.5 -187.5l-100 86q99 117 139 305l186 885h-182l29 127h182l17 76q37 174 119.5 253t256.5 79q71 0 144 -15z" />
    <glyph glyph-name="g" unicode="g" 
d="M887 0q-6 -61 -17.5 -107.5t-44.5 -98.5t-85 -85.5t-142 -55.5t-211 -22q-130 0 -293 29l25 141q165 -43 303 -43q275 0 301 213q18 145 33 242q-70 -98 -170 -155.5t-209 -57.5q-154 0 -226.5 81.5t-72.5 242.5q0 53 7 111.5t25.5 131t46.5 139t76 131t108 111.5t147 76
t190 29q95 0 244 -29l161 25l-139 -654q-36 -163 -57 -395zM827 606l60 273q-113 47 -238 47q-70 0 -128.5 -25t-99 -65t-72 -94t-50 -109.5t-30.5 -114.5t-16.5 -105t-4.5 -85q0 -107 39 -153t125 -46q59 0 121 31t119 89t103.5 151t71.5 206z" />
    <glyph glyph-name="h" unicode="h" horiz-adv-x="1091" 
d="M848 0h-160l139 653q15 67 15 133q0 142 -140 142q-127 0 -337 -156l-164 -772h-160l303 1425h160l-74 -350q-11 -53 -39 -157q199 137 352 137q123 0 193 -60.5t70 -187.5q0 -65 -19 -154z" />
    <glyph glyph-name="i" unicode="i" horiz-adv-x="446" 
d="M461 1194h-176l37 180h176zM201 0h-160l219 1032h160z" />
    <glyph glyph-name="j" unicode="j" horiz-adv-x="446" 
d="M461 1194h-176l37 180h176zM-139 -371l-37 121q68 30 107 60.5t69 86.5t49 146l211 989h160l-205 -964q-39 -180 -121 -278.5t-233 -160.5z" />
    <glyph glyph-name="k" unicode="k" horiz-adv-x="983" 
d="M862 0h-203l-335 580l-123 -580h-160l301 1425h160l-172 -813l510 420h217l-563 -438z" />
    <glyph glyph-name="l" unicode="l" horiz-adv-x="446" 
d="M201 0h-160l301 1425h160z" />
    <glyph glyph-name="m" unicode="m" horiz-adv-x="1679" 
d="M971 893q125 83 214.5 122.5t162.5 39.5q111 0 178 -61t67 -187q0 -69 -18 -154l-139 -653h-160l139 653q15 73 15 133q0 142 -123 142q-112 0 -322 -156l-164 -772h-157l139 653q14 68 14 133q0 142 -123 142q-111 0 -321 -156l-164 -772h-160l135 637q34 156 56 395
h143l-6 -129q225 152 358 152q95 0 156 -43.5t80 -118.5z" />
    <glyph glyph-name="n" unicode="n" horiz-adv-x="1099" 
d="M856 0h-160l140 653q14 68 14 133q0 142 -139 142q-128 0 -338 -156l-164 -772h-160l135 637q34 156 56 395h143l-6 -129q112 76 201 114t174 38q123 0 192.5 -60.5t69.5 -187.5q0 -65 -19 -154z" />
    <glyph glyph-name="o" unicode="o" horiz-adv-x="1134" 
d="M1073 698q0 -47 -10 -112t-31.5 -145.5t-65.5 -163t-102 -140.5q-160 -160 -403 -160q-189 0 -286 96t-97 261q0 47 10 112t31.5 145.5t65.5 163t102 140.5q160 160 403 160q189 0 286 -96t97 -261zM899 682q0 124 -60 185t-169 61q-69 0 -135.5 -26.5t-116.5 -76.5
q-83 -83 -124.5 -223t-41.5 -252q0 -124 60 -185t169 -61q69 0 135.5 26.5t116.5 76.5q83 83 124.5 223t41.5 252z" />
    <glyph glyph-name="p" unicode="p" horiz-adv-x="1110" 
d="M-25 -348l209 985q34 156 56 395h143l-10 -186q66 93 168 151t198 58q305 0 305 -328q0 -66 -7.5 -132.5t-27 -141.5t-49.5 -141.5t-78.5 -128t-110 -106t-148.5 -71t-189 -26.5q-109 0 -223 30l-76 -358h-160zM707 926q-52 0 -111 -31.5t-116 -89.5t-105 -151t-72 -205
l-61 -293q98 -50 223 -50q71 0 131 24.5t101.5 64t73.5 93.5t51 109.5t31 116t16.5 108.5t4.5 91q0 108 -39.5 160.5t-127.5 52.5z" />
    <glyph glyph-name="q" unicode="q" 
d="M1083 1049l-299 -1397h-159l45 209q51 241 84 332q-69 -99 -169 -157.5t-208 -58.5q-303 0 -303 328q0 66 8.5 134t29.5 142.5t52.5 141.5t80 128t109 105.5t144 70.5t180.5 26q114 0 244 -29zM244 319q0 -114 41 -162t127 -48q59 0 120.5 31t117.5 89t102 150t71 205
l64 295q-113 47 -236 47q-92 0 -166 -44t-118 -110t-73 -150.5t-39.5 -159t-10.5 -143.5z" />
    <glyph glyph-name="r" unicode="r" horiz-adv-x="661" 
d="M770 1049l-43 -152q-27 6 -61 6q-70 0 -133.5 -36t-170.5 -134l-155 -733h-160l135 637q34 156 56 395h141v-158q107 101 174 141t139 40q48 0 78 -6z" />
    <glyph glyph-name="s" unicode="s" horiz-adv-x="1017" 
d="M403 -23q-192 0 -284 58t-92 160q0 37 14 81l162 15q-10 -27 -10 -53q0 -61 58.5 -95t172.5 -34q132 0 212.5 57t80.5 141q0 43 -31 72.5t-80.5 45t-109.5 28.5t-119.5 29.5t-109 41.5t-80.5 71.5t-31 111.5q0 148 117.5 248t330.5 100q158 0 255 -50.5t97 -148.5
q0 -25 -10 -63l-149 -13q4 12 4 33q0 56 -55 87.5t-154 31.5q-126 0 -197 -54.5t-71 -136.5q0 -38 24.5 -65.5t64 -42t90.5 -28t103.5 -23.5t103.5 -28.5t90.5 -42t64 -66t24.5 -99.5q0 -157 -131.5 -263t-354.5 -106z" />
    <glyph glyph-name="t" unicode="t" horiz-adv-x="681" 
d="M541 127v-123q-102 -27 -176 -27q-123 0 -181.5 44.5t-58.5 140.5q0 54 14 114l133 629h-178l29 127h178l61 293l164 21l-65 -314h284l-45 -127h-268l-129 -614q-12 -56 -12 -94q0 -95 115 -95q62 0 135 25z" />
    <glyph glyph-name="u" unicode="u" horiz-adv-x="1099" 
d="M258 1032h160l-139 -653q-15 -73 -15 -133q0 -142 139 -142q128 0 338 156l164 772h160l-135 -637q-34 -156 -56 -395h-143l6 129q-112 -76 -201 -114t-174 -38q-123 0 -192.5 60.5t-69.5 187.5q0 65 19 154z" />
    <glyph glyph-name="v" unicode="v" horiz-adv-x="915" 
d="M440 0h-172q-96 544 -141 1032h160q30 -341 71 -688q14 -114 21 -209h4q54 117 92 184q197 355 381 713h164q-249 -493 -580 -1032z" />
    <glyph glyph-name="w" unicode="w" horiz-adv-x="1409" 
d="M989 0h-192l-19 614q-3 81 8 250h-4q-44 -138 -84 -227l-290 -637h-193q-60 494 -57 1032h161q0 -110 2.5 -223t8 -267t6.5 -200q3 -93 0 -199h4q44 129 88 226l303 663h182l19 -616q6 -133 2 -273h4q48 138 96 240q1 2 64 136.5t122 267t105 245.5h160
q-211 -501 -496 -1032z" />
    <glyph glyph-name="x" unicode="x" horiz-adv-x="899" 
d="M784 0l-172 -20l-178 446q-61 -73 -174.5 -215.5t-169.5 -210.5h-180l465 545l-205 487l168 21l154 -381q57 69 156.5 195t131.5 165h181l-412 -479z" />
    <glyph glyph-name="y" unicode="y" horiz-adv-x="858" 
d="M965 1032q-246 -487 -537 -985q-99 -171 -183.5 -261t-199.5 -157l-63 115q251 147 251 358q0 80 -43.5 374.5t-62.5 555.5h160q22 -269 63 -594q18 -162 21 -260h2q73 166 114 244q218 407 320 610h158z" />
    <glyph glyph-name="z" unicode="z" horiz-adv-x="856" 
d="M727 125l-35 -125h-739l24 117l685 788h-490l39 127h674l-25 -117l-688 -790h555z" />
    <glyph glyph-name="braceleft" unicode="{" horiz-adv-x="651" 
d="M367 -348h-121q-98 0 -136 55.5t-12 175.5l74 344q19 90 23.5 144.5t-7 84.5t-33.5 40t-63 10h-20l22 110h21q76 0 117.5 45t68.5 170l74 347q52 247 258 247h110l-22 -110h-76q-50 0 -75.5 -34t-41.5 -107l-61 -293q-25 -120 -55.5 -185t-65.5 -91t-96 -42v-2
q39 -13 61 -30t34.5 -50t10 -85.5t-19.5 -133.5l-78 -360q-27 -140 43 -140h90z" />
    <glyph glyph-name="bar" unicode="|" horiz-adv-x="585" 
d="M176 -348h-123l377 1773h123z" />
    <glyph glyph-name="braceright" unicode="}" horiz-adv-x="651" 
d="M305 1425h121q98 0 135.5 -55.5t11.5 -175.5l-63 -299q-19 -90 -23 -144t7 -84.5t33 -40.5t63 -10h20l-22 -110h-21q-75 0 -116 -44.5t-68 -170.5l-84 -391q-52 -248 -260 -248h-111l25 110h76q49 0 74.5 34.5t41.5 107.5l72 338q19 91 39 148t47.5 91t56 50t74.5 28v2
q-40 13 -62 30t-35 50t-10 85.5t21 133.5l68 316q27 139 -43 139h-90z" />
    <glyph glyph-name="asciitilde" unicode="~" horiz-adv-x="1220" 
d="M1208 1171q-5 -125 -80.5 -213t-205.5 -88q-50 0 -92.5 14t-71.5 36.5t-54 49.5t-45 54t-39.5 49.5t-42.5 36.5t-49 14q-57 0 -88 -41t-34 -110l-3 -64h-137l2 58q4 134 75.5 212t184.5 78q50 0 91.5 -14t69 -36.5t51 -49.5t43.5 -53.5t41 -49t49 -36.5t61 -14
q60 0 96 44.5t37 120.5l2 50h139v-48z" />
    <glyph glyph-name="uni00A0" unicode="&#xa0;" horiz-adv-x="512" 
 />
    <glyph glyph-name="exclamdown" unicode="&#xa1;" horiz-adv-x="618" 
d="M281 791h108q-35 -413 -156 -992h-219q117 561 267 992zM305 1157h213l-45 -219h-213z" />
    <glyph glyph-name="cent" unicode="&#xa2;" horiz-adv-x="1087" 
d="M645 1186l37 172h123l-35 -172q118 -13 192 -75t74 -177q0 -44 -12 -96h-145q10 36 10 75q0 152 -205 152q-77 0 -142 -35.5t-107 -90t-71.5 -123.5t-42 -134t-12.5 -123q0 -106 50 -170.5t165 -64.5q198 0 355 163l84 -100q-93 -85 -187.5 -135.5t-216.5 -61.5l-41 -190
h-123l41 193q-295 33 -295 344q0 66 11.5 133.5t35 138.5t64 133.5t94 114t130.5 86t169 43.5z" />
    <glyph glyph-name="sterling" unicode="&#xa3;" horiz-adv-x="1128" 
d="M932 147l-43 -147h-879l31 147q170 48 256 166t70 252h-228l25 117h178q-4 15 -14.5 48t-16.5 54t-11 55t-5 68q0 60 16 123.5t53 126.5t89.5 112t132 80t174.5 31q152 0 234.5 -67t82.5 -183q0 -62 -24 -135h-166q20 61 20 115q0 67 -38.5 101t-125.5 34
q-85 0 -149.5 -52t-94.5 -125.5t-30 -152.5q0 -30 5.5 -64.5t9.5 -53t17 -62.5t15 -53h326l-25 -117h-280q0 -48 -10.5 -98t-35 -107.5t-71.5 -113.5t-113 -99h625z" />
    <glyph glyph-name="currency" unicode="&#xa4;" horiz-adv-x="1220" 
d="M485 1004q121 73 267 73q140 0 200 -71l240 198l74 -94l-236 -195q47 -107 21 -227q-26 -137 -125 -246l153 -198l-110 -92l-162 204q-127 -82 -266 -82q-44 0 -102.5 15t-98.5 55l-234 -192l-73 92l217 180q-41 102 -12 244q30 135 133 247l-154 195l113 94zM893 674
q29 138 -23 202t-168 64q-249 0 -307 -272q-27 -129 20.5 -192.5t176.5 -63.5q108 0 190 63t111 199z" />
    <glyph glyph-name="yen" unicode="&#xa5;" horiz-adv-x="1148" 
d="M1022 281h-410l-59 -281h-168l59 281h-409l26 120h410l33 156h-410l25 119h348q-124 312 -229 682h186q85 -322 209 -625h2q214 250 463 625h182q-273 -380 -524 -682h350l-25 -119h-409l-33 -156h410z" />
    <glyph glyph-name="brokenbar" unicode="&#xa6;" horiz-adv-x="528" 
d="M385 764h-123l139 661h123zM147 -348h-122l141 661h123z" />
    <glyph glyph-name="section" unicode="&#xa7;" horiz-adv-x="1218" 
d="M891 258q100 -66 100 -180q0 -87 -34.5 -166.5t-99.5 -143t-170.5 -101.5t-235.5 -38q-225 0 -331 97t-77 272l178 14q-11 -59 -4.5 -104.5t32 -76.5t79.5 -46.5t139 -15.5q151 0 244.5 76.5t93.5 185.5q0 45 -26.5 77.5t-70 50t-99 34t-113 28.5t-113 33t-99 47.5
t-70 73t-26.5 108.5q0 101 52.5 191t154.5 137q-92 54 -92 174q0 76 28.5 144.5t84 125.5t150 91t214.5 34q196 0 284 -85.5t60 -219.5l-168 -14q22 99 -19 145.5t-177 46.5q-68 0 -121 -18t-83 -44t-50 -59t-26.5 -60.5t-6.5 -51.5q0 -48 33.5 -80.5t87 -50.5t118 -33
t129 -34.5t118 -47t87 -78t33.5 -121.5q0 -96 -49 -181.5t-139 -135.5zM901 539q0 35 -17 63t-41.5 45.5t-65.5 33t-75.5 24.5t-86 22t-83.5 23q-165 -75 -165 -222q0 -43 19.5 -73.5t74.5 -54t94 -34.5t136 -34q36 -9 54 -13q63 27 109.5 84t46.5 136z" />
    <glyph glyph-name="dieresis" unicode="&#xa8;" horiz-adv-x="739" 
d="M772 1194h-176l37 180h176zM455 1194h-176l36 180h177z" />
    <glyph glyph-name="copyright" unicode="&#xa9;" horiz-adv-x="1503" 
d="M768 -20q-191 0 -345 93.5t-237.5 248.5t-83.5 337q0 157 57 296t153.5 237.5t229 155.5t277.5 57q191 0 345.5 -94.5t238.5 -249t84 -334.5q0 -156 -57.5 -295.5t-154.5 -238t-229.5 -156t-277.5 -57.5zM772 90q164 0 302.5 82t220 228t81.5 323q0 113 -41 217
t-113.5 182.5t-178 125t-226.5 46.5q-164 0 -302.5 -81.5t-220 -227t-81.5 -321.5q0 -154 69.5 -284.5t199 -210t290.5 -79.5zM999 539l74 -86q-58 -55 -101.5 -87.5t-111 -57.5t-145.5 -25q-141 0 -209 74t-68 212q0 76 15.5 149.5t50.5 144t85.5 123.5t126.5 85.5
t167 32.5q87 0 149.5 -34.5t88.5 -101t-1 -163.5h-129q7 36 9.5 58.5t-1 49.5t-17.5 42t-44 25.5t-76 10.5q-69 0 -124.5 -40.5t-87 -103.5t-48 -130.5t-16.5 -130.5q0 -89 39 -137t116 -48q71 0 132.5 36t125.5 102z" />
    <glyph glyph-name="ordfeminine" unicode="&#xaa;" horiz-adv-x="798" 
d="M735 502h-651l22 106h652zM905 1432l-92 -439q-19 -88 -39 -272h-115l13 121q-40 -60 -110 -100t-148 -40q-113 0 -171.5 62.5t-58.5 179.5q0 71 13 138t45 132.5t78.5 114.5t120 79t163.5 30q30 0 60 -3.5t65.5 -10.5t52.5 -9zM311 954q0 -159 117 -159q90 0 174 82.5
t113 218.5l47 219q-94 33 -178 33q-74 0 -130 -40t-85.5 -103t-43.5 -126.5t-14 -124.5z" />
    <glyph glyph-name="guillemotleft" unicode="&#xab;" horiz-adv-x="813" 
d="M631 248h-109l-82 348l222 330h118l-180 -338zM346 248h-108l-95 348l234 330h119l-193 -338z" />
    <glyph glyph-name="logicalnot" unicode="&#xac;" horiz-adv-x="1187" 
d="M1022 188h-141l90 420h-842l27 131h983z" />
    <glyph glyph-name="registered" unicode="&#xae;" horiz-adv-x="1241" 
d="M1290 1038q0 -161 -82 -295.5t-216 -210t-287 -75.5q-229 0 -385 154t-156 382q0 119 47.5 226.5t126.5 183t185.5 120t221.5 44.5q149 0 274.5 -70.5t198 -192.5t72.5 -266zM1182 1034q0 118 -59.5 220t-161 162.5t-220.5 60.5q-124 0 -231.5 -63t-172.5 -173.5
t-65 -241.5q0 -189 126.5 -319.5t308.5 -130.5q122 0 231 63t176.5 175.5t67.5 246.5zM907 729h-133l-65 223h-74l-47 -223h-125l125 590h213q91 0 138.5 -34.5t47.5 -100.5t-40 -125t-118 -88zM858 1169q0 33 -22.5 46.5t-69.5 13.5h-74l-41 -191h72q49 0 81 22t43 50
t11 59z" />
    <glyph glyph-name="macron" unicode="&#xaf;" horiz-adv-x="763" 
d="M797 1214h-518l24 123h518z" />
    <glyph glyph-name="degree" unicode="&#xb0;" horiz-adv-x="813" 
d="M846 1124q0 -133 -95.5 -224t-224.5 -91q-125 0 -210 82t-85 205q0 133 95.5 224t224.5 91q125 0 210 -82t85 -205zM721 1116q0 74 -52.5 126t-125.5 52q-76 0 -131.5 -56t-55.5 -138q0 -70 53 -122t126 -52q76 0 131 55.5t55 134.5z" />
    <glyph glyph-name="plusminus" unicode="&#xb1;" horiz-adv-x="1187" 
d="M625 299h-140l90 432h-421l28 131h422l90 428h140l-91 -428h422l-28 -131h-422zM983 0h-983l27 131h983z" />
    <glyph glyph-name="twosuperior" unicode="&#xb2;" horiz-adv-x="731" 
d="M649 633h-538l18 86q26 45 87.5 92t128.5 87t131 82t105.5 92.5t41.5 103.5q0 39 -30 63.5t-83 24.5q-142 0 -172 -162h-129q23 129 108 200.5t215 71.5q104 0 167 -52t63 -134q0 -57 -25.5 -108.5t-64.5 -88t-90 -72t-97.5 -60.5t-92 -54.5t-68.5 -52.5h368z" />
    <glyph glyph-name="threesuperior" unicode="&#xb3;" horiz-adv-x="731" 
d="M420 952h-90l24 113h90q85 0 129.5 32.5t44.5 88.5q0 35 -25.5 56.5t-76.5 21.5q-72 0 -108.5 -29t-47.5 -86h-137q21 104 108 164.5t208 60.5q100 0 157.5 -49t57.5 -117q0 -66 -36 -115.5t-87 -78.5v-2q38 -19 59 -52.5t21 -74.5q0 -48 -21 -95t-61.5 -86.5
t-107.5 -63.5t-150 -24q-132 0 -189 57.5t-18 184.5h135q-26 -75 -6 -101t108 -26q77 0 125.5 38.5t48.5 94.5q0 88 -155 88z" />
    <glyph glyph-name="acute" unicode="&#xb4;" horiz-adv-x="610" 
d="M680 1460l-285 -278h-129l230 278h184z" />
    <glyph glyph-name="mu" unicode="&#xb5;" horiz-adv-x="1101" 
d="M260 1032h160l-139 -653q-15 -73 -15 -133q0 -142 140 -142q127 0 337 156l164 772h160l-135 -637q-33 -148 -55 -395h-144l6 129q-113 -76 -201.5 -114t-172.5 -38q-125 0 -189 58q-45 -270 -59 -383h-152z" />
    <glyph glyph-name="mu" unicode="&#x3bc;" horiz-adv-x="1101" 
d="M260 1032h160l-139 -653q-15 -73 -15 -133q0 -142 140 -142q127 0 337 156l164 772h160l-135 -637q-33 -148 -55 -395h-144l6 129q-113 -76 -201.5 -114t-172.5 -38q-125 0 -189 58q-45 -270 -59 -383h-152z" />
    <glyph glyph-name="paragraph" unicode="&#xb6;" 
d="M805 -348h-129l336 1577h-160l-336 -1577h-129l168 784q-185 -7 -297.5 103t-112.5 278q0 100 38.5 196t107 173t173 124.5t226.5 47.5h477z" />
    <glyph glyph-name="periodcentered" unicode="&#xb7;" horiz-adv-x="536" 
d="M391 575h-209l49 226h209z" />
    <glyph glyph-name="cedilla" unicode="&#xb8;" horiz-adv-x="528" 
d="M-57 -365l20 103q146 -15 146 41q0 47 -82 121l118 135l123 12l-98 -113q53 -46 69.5 -74.5t16.5 -62.5q0 -89 -87.5 -137t-225.5 -25z" />
    <glyph glyph-name="onesuperior" unicode="&#xb9;" horiz-adv-x="731" 
d="M604 633h-450l24 110h164l102 486l-159 -66l-29 115l248 90h96l-131 -625h160z" />
    <glyph glyph-name="ordmasculine" unicode="&#xba;" horiz-adv-x="813" 
d="M727 502h-651l22 106h652zM750 1176q0 85 -40.5 123t-121.5 38q-92 0 -157.5 -55t-94.5 -135.5t-29 -173.5q0 -85 39.5 -127.5t110.5 -42.5q60 0 109.5 21t83 57t56.5 84.5t33.5 101t10.5 109.5zM446 702q-131 0 -200.5 64t-69.5 192q0 71 15 138t49 129.5t82.5 109.5
t120.5 75t159 28q141 0 210 -67.5t69 -192.5q0 -209 -122.5 -342.5t-312.5 -133.5z" />
    <glyph glyph-name="guillemotright" unicode="&#xbb;" horiz-adv-x="813" 
d="M707 578l-234 -330h-119l193 338l-43 340h108zM410 578l-222 -330h-118l180 338l-31 340h109z" />
    <glyph glyph-name="onequarter" unicode="&#xbc;" horiz-adv-x="1454" 
d="M1100 0h-129l35 164h-340l16 88l416 487h157l-98 -460h113l-23 -115h-112zM1028 279l64 292l-252 -292h188zM1384 1358l-1062 -1358h-146l1065 1358h143zM604 633h-450l24 110h164l102 486l-159 -66l-29 115l248 90h96l-131 -625h160z" />
    <glyph glyph-name="onehalf" unicode="&#xbd;" horiz-adv-x="1464" 
d="M604 633h-450l24 110h164l102 486l-159 -66l-29 115l248 90h96l-131 -625h160zM1384 1358l-1062 -1358h-146l1065 1358h143zM1276 0h-539l19 86q26 45 87.5 92t128 87t130.5 82t105.5 92.5t41.5 103.5q0 39 -29.5 63.5t-82.5 24.5q-142 0 -172 -162h-129
q23 129 108 200.5t215 71.5q104 0 167 -52t63 -134q0 -68 -35 -126.5t-90.5 -101.5t-113 -77t-116 -69t-84.5 -62h369z" />
    <glyph glyph-name="threequarters" unicode="&#xbe;" horiz-adv-x="1454" 
d="M1100 0h-129l35 164h-340l16 88l416 487h157l-98 -460h113l-23 -115h-112zM1028 279l64 292l-252 -292h188zM420 952h-90l24 113h90q85 0 129.5 32.5t44.5 88.5q0 35 -25.5 56.5t-76.5 21.5q-72 0 -108.5 -29t-47.5 -86h-137q21 104 108 164.5t208 60.5q100 0 157.5 -49
t57.5 -117q0 -66 -36 -115.5t-87 -78.5v-2q38 -19 59 -52.5t21 -74.5q0 -48 -21 -95t-61.5 -86.5t-107.5 -63.5t-150 -24q-132 0 -189 57.5t-18 184.5h135q-26 -75 -6 -101t108 -26q77 0 125.5 38.5t48.5 94.5q0 88 -155 88zM1384 1358l-1062 -1358h-146l1065 1358h143z" />
    <glyph glyph-name="questiondown" unicode="&#xbf;" horiz-adv-x="1048" 
d="M535 791h147q-9 -67 -42.5 -124t-80 -97.5t-100 -78t-105.5 -74.5t-95 -78t-69 -97.5t-26 -124.5q0 -95 65 -148t174 -53q127 0 207 66.5t105 187.5l145 -39q-30 -164 -155 -259t-326 -95q-184 0 -286.5 86t-102.5 231q0 86 28.5 159t74.5 124.5t101.5 95t113 80.5
t106 71.5t82 77t39.5 89.5zM573 1157h213l-45 -219h-213z" />
    <glyph glyph-name="Agrave" unicode="&#xc0;" horiz-adv-x="1175" 
d="M1053 0h-176q-12 174 -31 371h-567q-113 -220 -185 -371h-180q288 586 752 1358h211q116 -583 176 -1358zM350 508h481q-18 208 -51 463q-15 118 -37 246h-4q-45 -78 -131 -230q-117 -209 -258 -479zM848 1466h-125l-201 226h185z" />
    <glyph glyph-name="Aacute" unicode="&#xc1;" horiz-adv-x="1175" 
d="M1053 0h-176q-12 174 -31 371h-567q-113 -220 -185 -371h-180q288 586 752 1358h211q116 -583 176 -1358zM350 508h481q-18 208 -51 463q-15 118 -37 246h-4q-45 -78 -131 -230q-117 -209 -258 -479zM1077 1692l-217 -226h-125l158 226h184z" />
    <glyph glyph-name="Acircumflex" unicode="&#xc2;" horiz-adv-x="1175" 
d="M1053 0h-176q-12 174 -31 371h-567q-113 -220 -185 -371h-180q288 586 752 1358h211q116 -583 176 -1358zM350 508h481q-18 208 -51 463q-15 118 -37 246h-4q-45 -78 -131 -230q-117 -209 -258 -479zM1065 1466h-139l-95 144l-155 -144h-137l241 230h138z" />
    <glyph glyph-name="Atilde" unicode="&#xc3;" horiz-adv-x="1175" 
d="M1053 0h-176q-12 174 -31 371h-567q-113 -220 -185 -371h-180q288 586 752 1358h211q116 -583 176 -1358zM350 508h481q-18 208 -51 463q-15 118 -37 246h-4q-45 -78 -131 -230q-117 -209 -258 -479zM1094 1651l84 -62q-36 -56 -96.5 -89.5t-131.5 -33.5q-56 0 -105 17.5
t-88.5 35t-72.5 17.5q-96 0 -145 -82l-84 62q36 63 96.5 99t134.5 36q70 0 146.5 -35t130.5 -35q38 0 73.5 19t57.5 51z" />
    <glyph glyph-name="Adieresis" unicode="&#xc4;" horiz-adv-x="1175" 
d="M1053 0h-176q-12 174 -31 371h-567q-113 -220 -185 -371h-180q288 586 752 1358h211q116 -583 176 -1358zM350 508h481q-18 208 -51 463q-15 118 -37 246h-4q-45 -78 -131 -230q-117 -209 -258 -479zM1040 1466h-176l39 181h176zM723 1466h-176l39 181h176z" />
    <glyph glyph-name="Aring" unicode="&#xc5;" horiz-adv-x="1175" 
d="M1053 0h-176q-12 174 -31 371h-567q-113 -220 -185 -371h-180q288 586 752 1358h211q116 -583 176 -1358zM350 508h481q-18 208 -51 463q-15 118 -37 246h-4q-45 -78 -131 -230q-117 -209 -258 -479zM1012 1677q0 -94 -60.5 -162.5t-177.5 -68.5q-73 0 -110 33.5
t-37 95.5q0 95 60 163t177 68q73 0 110.5 -33.5t37.5 -95.5zM797 1526q59 0 88.5 41t29.5 92q0 67 -73 67q-59 0 -89 -41.5t-30 -91.5q0 -67 74 -67z" />
    <glyph glyph-name="AE" unicode="&#xc6;" horiz-adv-x="1646" 
d="M1483 0h-838l74 350h-434q-189 -289 -228 -350h-172q350 551 942 1358h928l-45 -139h-635l-94 -441h522l-28 -137h-523l-106 -500h665zM745 479l158 735h-18q-312 -433 -516 -735h376z" />
    <glyph glyph-name="Ccedilla" unicode="&#xc7;" horiz-adv-x="1267" 
d="M1006 436h163q-66 -202 -209 -321.5t-339 -134.5l-39 -46q54 -47 71 -78t17 -65q0 -88 -83.5 -132.5t-219.5 -23.5l20 103q137 -13 137 45q0 24 -16 49t-64 68l72 80q-401 23 -401 479q0 74 13 157t42 172.5t71 174t104 160.5t136.5 133t173 90.5t209.5 33.5
q175 0 280 -81t105 -228q0 -71 -22 -143l-170 -21q20 72 20 129q0 92 -57 148.5t-172 56.5q-100 0 -185 -42.5t-143.5 -113t-103.5 -156t-70.5 -177t-38 -169t-12.5 -139.5q0 -155 72.5 -240t214.5 -85q158 0 267 87t157 230z" />
    <glyph glyph-name="Egrave" unicode="&#xc8;" horiz-adv-x="1062" 
d="M899 0h-838l287 1358h819l-47 -139h-628l-95 -441h523l-29 -137h-522l-107 -500h666zM889 1466h-125l-201 226h185z" />
    <glyph glyph-name="Eacute" unicode="&#xc9;" horiz-adv-x="1062" 
d="M899 0h-838l287 1358h819l-47 -139h-628l-95 -441h523l-29 -137h-522l-107 -500h666zM1059 1692l-217 -226h-125l157 226h185z" />
    <glyph glyph-name="Ecircumflex" unicode="&#xca;" horiz-adv-x="1062" 
d="M899 0h-838l287 1358h819l-47 -139h-628l-95 -441h523l-29 -137h-522l-107 -500h666zM1047 1466h-140l-94 144l-156 -144h-137l242 230h137z" />
    <glyph glyph-name="Edieresis" unicode="&#xcb;" horiz-adv-x="1062" 
d="M899 0h-838l287 1358h819l-47 -139h-628l-95 -441h523l-29 -137h-522l-107 -500h666zM1036 1466h-176l39 181h176zM719 1466h-176l39 181h176z" />
    <glyph glyph-name="Igrave" unicode="&#xcc;" horiz-adv-x="499" 
d="M233 0h-172l287 1358h172zM516 1466h-125l-201 226h185z" />
    <glyph glyph-name="Iacute" unicode="&#xcd;" horiz-adv-x="499" 
d="M233 0h-172l287 1358h172zM737 1692l-217 -226h-125l158 226h184z" />
    <glyph glyph-name="Icircumflex" unicode="&#xce;" horiz-adv-x="499" 
d="M233 0h-172l287 1358h172zM711 1466h-140l-94 144l-155 -144h-138l242 230h137z" />
    <glyph glyph-name="Idieresis" unicode="&#xcf;" horiz-adv-x="499" 
d="M233 0h-172l287 1358h172zM705 1466h-177l39 181h176zM387 1466h-176l39 181h176z" />
    <glyph glyph-name="Eth" unicode="&#xd0;" horiz-adv-x="1314" 
d="M1292 905q0 -71 -11.5 -150t-39.5 -168t-70 -171.5t-106.5 -159t-144.5 -133t-189.5 -90t-236.5 -33.5h-412l135 641h-164l29 139h164l123 578l403 2q136 1 238.5 -34.5t162.5 -99.5t89.5 -144.5t29.5 -176.5zM283 139h239q106 0 196.5 36t153 97.5t110 137.5t74.5 162.5
t40.5 166t13.5 152.5q0 330 -365 330h-233l-94 -441h246l-29 -139h-246z" />
    <glyph glyph-name="Ntilde" unicode="&#xd1;" horiz-adv-x="1327" 
d="M1061 0h-166l-354 952q-35 90 -86 265h-2q-19 -115 -56 -306l-192 -911h-144l287 1358h213l316 -852q49 -133 96 -326h2q25 212 59 369l172 809h142zM1194 1651l84 -62q-36 -56 -96 -89.5t-131 -33.5q-56 0 -105.5 17.5t-89 35t-72.5 17.5q-96 0 -145 -82l-84 62
q36 63 96.5 99t134.5 36q70 0 146.5 -35t130.5 -35q38 0 73.5 19t57.5 51z" />
    <glyph glyph-name="Ograve" unicode="&#xd2;" horiz-adv-x="1372" 
d="M578 -20q-229 0 -348 123t-119 335q0 75 13 159t42 176t71.5 178t105.5 164t139 136t178 92.5t217 34.5q229 0 347.5 -123t118.5 -335q0 -75 -13 -159t-42 -176t-71 -178t-105 -164t-139 -136t-178 -92.5t-217 -34.5zM590 117q87 0 164.5 30.5t134.5 81.5t104.5 118.5
t78.5 140.5t52.5 149.5t31 143.5t9.5 124q0 336 -303 336q-120 0 -220 -58t-163.5 -146t-108 -197t-63 -207t-18.5 -180q0 -336 301 -336zM940 1477h-125l-201 225h185z" />
    <glyph glyph-name="Oacute" unicode="&#xd3;" horiz-adv-x="1372" 
d="M578 -20q-229 0 -348 123t-119 335q0 75 13 159t42 176t71.5 178t105.5 164t139 136t178 92.5t217 34.5q229 0 347.5 -123t118.5 -335q0 -75 -13 -159t-42 -176t-71 -178t-105 -164t-139 -136t-178 -92.5t-217 -34.5zM590 117q87 0 164.5 30.5t134.5 81.5t104.5 118.5
t78.5 140.5t52.5 149.5t31 143.5t9.5 124q0 336 -303 336q-120 0 -220 -58t-163.5 -146t-108 -197t-63 -207t-18.5 -180q0 -336 301 -336zM1161 1702l-217 -225h-125l158 225h184z" />
    <glyph glyph-name="Ocircumflex" unicode="&#xd4;" horiz-adv-x="1372" 
d="M578 -20q-229 0 -348 123t-119 335q0 75 13 159t42 176t71.5 178t105.5 164t139 136t178 92.5t217 34.5q229 0 347.5 -123t118.5 -335q0 -75 -13 -159t-42 -176t-71 -178t-105 -164t-139 -136t-178 -92.5t-217 -34.5zM590 117q87 0 164.5 30.5t134.5 81.5t104.5 118.5
t78.5 140.5t52.5 149.5t31 143.5t9.5 124q0 336 -303 336q-120 0 -220 -58t-163.5 -146t-108 -197t-63 -207t-18.5 -180q0 -336 301 -336zM1157 1477h-139l-94 143l-156 -143h-137l241 229h138z" />
    <glyph glyph-name="Otilde" unicode="&#xd5;" horiz-adv-x="1372" 
d="M578 -20q-229 0 -348 123t-119 335q0 75 13 159t42 176t71.5 178t105.5 164t139 136t178 92.5t217 34.5q229 0 347.5 -123t118.5 -335q0 -75 -13 -159t-42 -176t-71 -178t-105 -164t-139 -136t-178 -92.5t-217 -34.5zM590 117q87 0 164.5 30.5t134.5 81.5t104.5 118.5
t78.5 140.5t52.5 149.5t31 143.5t9.5 124q0 336 -303 336q-120 0 -220 -58t-163.5 -146t-108 -197t-63 -207t-18.5 -180q0 -336 301 -336zM1163 1661l84 -62q-36 -56 -96 -89t-131 -33q-56 0 -105 17.5t-88.5 34.5t-72.5 17q-97 0 -146 -82l-84 62q36 62 97 98.5t135 36.5
q70 0 146 -35t130 -35q38 0 73.5 19t57.5 51z" />
    <glyph glyph-name="Odieresis" unicode="&#xd6;" horiz-adv-x="1372" 
d="M578 -20q-229 0 -348 123t-119 335q0 75 13 159t42 176t71.5 178t105.5 164t139 136t178 92.5t217 34.5q229 0 347.5 -123t118.5 -335q0 -75 -13 -159t-42 -176t-71 -178t-105 -164t-139 -136t-178 -92.5t-217 -34.5zM590 117q87 0 164.5 30.5t134.5 81.5t104.5 118.5
t78.5 140.5t52.5 149.5t31 143.5t9.5 124q0 336 -303 336q-120 0 -220 -58t-163.5 -146t-108 -197t-63 -207t-18.5 -180q0 -336 301 -336zM1137 1477h-176l38 180h177zM819 1477h-176l39 180h176z" />
    <glyph glyph-name="multiply" unicode="&#xd7;" horiz-adv-x="1187" 
d="M1069 240l-113 -95l-342 433l-520 -431l-78 97l523 432l-340 430l112 94l340 -432l523 432l77 -96l-522 -432z" />
    <glyph glyph-name="Oslash" unicode="&#xd8;" horiz-adv-x="1372" 
d="M49 -145l-106 92l225 239q-57 105 -57 252q0 75 13 159t42 176t71.5 178t105.5 164t139 136t178 92.5t217 34.5q207 0 319 -98l209 223l106 -92l-225 -240q57 -105 57 -251q0 -75 -13 -159t-42 -176t-71 -178t-105 -164t-139 -136t-178 -92.5t-217 -34.5q-204 0 -320 98z
M1153 1028l-784 -831q74 -80 221 -80q87 0 164.5 30.5t134.5 81.5t104.5 118.5t78.5 140.5t52.5 149.5t31 143.5t9.5 124q0 73 -12 123zM301 330l784 831q-74 80 -223 80q-120 0 -220 -58t-163.5 -146t-108 -197t-63 -207t-18.5 -180q0 -73 12 -123z" />
    <glyph glyph-name="Ugrave" unicode="&#xd9;" horiz-adv-x="1296" 
d="M1321 1358l-180 -852q-56 -265 -192 -397t-378 -132q-432 0 -432 326q0 81 29 223l176 832h172l-172 -809q-33 -152 -33 -223q0 -106 68 -156.5t221 -50.5q161 0 250 89.5t131 289.5l182 860h158zM938 1466h-125l-201 226h185z" />
    <glyph glyph-name="Uacute" unicode="&#xda;" horiz-adv-x="1296" 
d="M1321 1358l-180 -852q-56 -265 -192 -397t-378 -132q-432 0 -432 326q0 81 29 223l176 832h172l-172 -809q-33 -152 -33 -223q0 -106 68 -156.5t221 -50.5q161 0 250 89.5t131 289.5l182 860h158zM1122 1692l-217 -226h-125l158 226h184z" />
    <glyph glyph-name="Ucircumflex" unicode="&#xdb;" horiz-adv-x="1296" 
d="M1321 1358l-180 -852q-56 -265 -192 -397t-378 -132q-432 0 -432 326q0 81 29 223l176 832h172l-172 -809q-33 -152 -33 -223q0 -106 68 -156.5t221 -50.5q161 0 250 89.5t131 289.5l182 860h158zM1126 1466h-139l-94 144l-156 -144h-137l242 230h137z" />
    <glyph glyph-name="Udieresis" unicode="&#xdc;" horiz-adv-x="1296" 
d="M1321 1358l-180 -852q-56 -265 -192 -397t-378 -132q-432 0 -432 326q0 81 29 223l176 832h172l-172 -809q-33 -152 -33 -223q0 -106 68 -156.5t221 -50.5q161 0 250 89.5t131 289.5l182 860h158zM1090 1466h-177l39 181h176zM772 1466h-176l39 181h176z" />
    <glyph glyph-name="Yacute" unicode="&#xdd;" horiz-adv-x="1044" 
d="M1227 1358q-306 -429 -602 -774l-123 -584h-168l123 580q-164 388 -273 778h183q89 -335 208 -623h5q216 254 462 623h185zM997 1692l-217 -226h-125l158 226h184z" />
    <glyph glyph-name="Thorn" unicode="&#xde;" horiz-adv-x="1093" 
d="M348 1358h172l-45 -219h213q190 0 292.5 -83.5t102.5 -232.5q0 -219 -160 -366.5t-409 -147.5h-215l-66 -309h-172zM909 809q0 186 -239 186h-226l-116 -546h198q98 0 174 30.5t120.5 82.5t66.5 114.5t22 132.5z" />
    <glyph glyph-name="germandbls" unicode="&#xdf;" horiz-adv-x="1136" 
d="M1040 346q0 -158 -114 -263.5t-308 -105.5q-134 0 -227 41l49 127q80 -41 203 -41q98 0 164.5 59t66.5 161q0 52 -31 92.5t-75 68.5t-87.5 57t-74.5 73t-31 102q0 54 19.5 98t51 74t70 56.5t76.5 51.5t69.5 51.5t51 63.5t19.5 82q0 60 -48 91.5t-132 31.5
q-92 0 -166 -50.5t-115.5 -123t-60.5 -158.5l-199 -938q-30 -139 -73.5 -229t-131.5 -187l-100 86q99 118 139 303l207 975q13 60 38.5 119.5t69.5 119t100 104.5t136 73.5t172 28.5q142 0 232 -61.5t90 -174.5q0 -64 -26.5 -116.5t-65.5 -85t-85.5 -64t-85.5 -55t-65.5 -57
t-26.5 -70.5q0 -35 22.5 -66t56.5 -52.5t73.5 -50t73.5 -58t56.5 -77t22.5 -106.5z" />
    <glyph glyph-name="agrave" unicode="&#xe0;" 
d="M1081 1049l-139 -654q-33 -148 -55 -395h-154l21 193q-69 -98 -168.5 -155.5t-208.5 -57.5q-303 0 -303 325q0 78 12.5 157.5t39.5 165.5t75 160.5t112.5 134t158.5 94t206 34.5q103 0 242 -27zM412 111q59 0 120 31t117 88.5t101.5 149t70.5 204.5l64 295
q-117 45 -234 45q-78 0 -142.5 -30t-107.5 -81.5t-75 -113t-49 -132t-25 -131.5t-8 -117q0 -116 40.5 -162t127.5 -46zM788 1190h-124l-207 278h184z" />
    <glyph glyph-name="aacute" unicode="&#xe1;" 
d="M1081 1049l-139 -654q-33 -148 -55 -395h-154l21 193q-69 -98 -168.5 -155.5t-208.5 -57.5q-303 0 -303 325q0 78 12.5 157.5t39.5 165.5t75 160.5t112.5 134t158.5 94t206 34.5q103 0 242 -27zM412 111q59 0 120 31t117 88.5t101.5 149t70.5 204.5l64 295
q-117 45 -234 45q-78 0 -142.5 -30t-107.5 -81.5t-75 -113t-49 -132t-25 -131.5t-8 -117q0 -116 40.5 -162t127.5 -46zM1051 1468l-285 -278h-129l229 278h185z" />
    <glyph glyph-name="acircumflex" unicode="&#xe2;" 
d="M1081 1049l-139 -654q-33 -148 -55 -395h-154l21 193q-69 -98 -168.5 -155.5t-208.5 -57.5q-303 0 -303 325q0 78 12.5 157.5t39.5 165.5t75 160.5t112.5 134t158.5 94t206 34.5q103 0 242 -27zM412 111q59 0 120 31t117 88.5t101.5 149t70.5 204.5l64 295
q-117 45 -234 45q-78 0 -142.5 -30t-107.5 -81.5t-75 -113t-49 -132t-25 -131.5t-8 -117q0 -116 40.5 -162t127.5 -46zM989 1190h-139l-113 184l-196 -184h-138l281 270h137z" />
    <glyph glyph-name="atilde" unicode="&#xe3;" 
d="M1081 1049l-139 -654q-33 -148 -55 -395h-154l21 193q-69 -98 -168.5 -155.5t-208.5 -57.5q-303 0 -303 325q0 78 12.5 157.5t39.5 165.5t75 160.5t112.5 134t158.5 94t206 34.5q103 0 242 -27zM412 111q59 0 120 31t117 88.5t101.5 149t70.5 204.5l64 295
q-117 45 -234 45q-78 0 -142.5 -30t-107.5 -81.5t-75 -113t-49 -132t-25 -131.5t-8 -117q0 -116 40.5 -162t127.5 -46zM1024 1397l80 -62q-40 -75 -100 -116t-132 -41q-57 0 -111 25.5t-100.5 51t-85.5 25.5q-73 0 -133 -104l-82 61q40 75 100 116.5t132 41.5q45 0 89.5 -16
t73.5 -35.5t65.5 -35.5t68.5 -16q71 0 135 105z" />
    <glyph glyph-name="adieresis" unicode="&#xe4;" 
d="M1081 1049l-139 -654q-33 -148 -55 -395h-154l21 193q-69 -98 -168.5 -155.5t-208.5 -57.5q-303 0 -303 325q0 78 12.5 157.5t39.5 165.5t75 160.5t112.5 134t158.5 94t206 34.5q103 0 242 -27zM412 111q59 0 120 31t117 88.5t101.5 149t70.5 204.5l64 295
q-117 45 -234 45q-78 0 -142.5 -30t-107.5 -81.5t-75 -113t-49 -132t-25 -131.5t-8 -117q0 -116 40.5 -162t127.5 -46zM948 1202h-176l37 180h176zM631 1202h-176l37 180h176z" />
    <glyph glyph-name="aring" unicode="&#xe5;" 
d="M1081 1049l-139 -654q-33 -148 -55 -395h-154l21 193q-69 -98 -168.5 -155.5t-208.5 -57.5q-303 0 -303 325q0 78 12.5 157.5t39.5 165.5t75 160.5t112.5 134t158.5 94t206 34.5q103 0 242 -27zM412 111q59 0 120 31t117 88.5t101.5 149t70.5 204.5l64 295
q-117 45 -234 45q-78 0 -142.5 -30t-107.5 -81.5t-75 -113t-49 -132t-25 -131.5t-8 -117q0 -116 40.5 -162t127.5 -46zM928 1409q0 -62 -23.5 -114t-79 -88t-135.5 -36q-72 0 -109.5 34.5t-37.5 97.5q0 46 14 87t41.5 75t74 54.5t107.5 20.5q73 0 110.5 -34.5t37.5 -96.5z
M713 1251q59 0 88.5 43t29.5 97q0 69 -73 69q-59 0 -89 -43t-30 -96q0 -70 74 -70z" />
    <glyph glyph-name="ae" unicode="&#xe6;" horiz-adv-x="1732" 
d="M1112 -23q-140 0 -220.5 56.5t-115.5 167.5q-176 -224 -457 -224q-146 0 -220 62.5t-74 179.5q0 57 17 109.5t63.5 106.5t119 93.5t192.5 64.5t275 25h101l12 66q12 70 12 100q0 78 -40 111t-132 33q-106 0 -195 -27.5t-192 -83.5l-47 117q120 60 219 90.5t225 30.5
q130 0 208.5 -31.5t103.5 -108.5q71 70 156 105t202 35q174 0 261 -63.5t87 -180.5q0 -140 -111 -225.5t-341 -85.5h-299q-17 -70 -17 -148q0 -119 59 -181t173 -62q172 0 376 137l60 -109q-128 -82 -235 -121t-226 -39zM766 500h-94q-115 0 -200 -14t-137 -37t-83.5 -58.5
t-43 -73.5t-11.5 -86q0 -58 39 -92.5t124 -34.5q150 0 257 100.5t139 248.5zM1507 795q0 63 -48.5 101t-149.5 38q-73 0 -135.5 -27.5t-105.5 -74t-72 -100.5t-44 -114h279q276 0 276 177z" />
    <glyph glyph-name="ccedilla" unicode="&#xe7;" horiz-adv-x="1042" 
d="M242 -365l20 103q146 -15 146 41q0 47 -82 121l69 77q-171 13 -243 102t-72 257q0 95 21 192.5t68.5 193t116 169t171 119t225.5 45.5q68 0 125.5 -15t104.5 -46t73.5 -85t26.5 -125q0 -48 -13 -108h-145q12 50 12 90q0 164 -207 164q-81 0 -150 -38t-115 -98.5t-79 -137
t-48 -151.5t-15 -143q0 -131 50.5 -194.5t154.5 -63.5q197 0 401 189l82 -98q-124 -101 -221 -151.5t-207 -61.5l-43 -48q53 -46 69.5 -74.5t16.5 -62.5q0 -89 -87.5 -137t-225.5 -25z" />
    <glyph glyph-name="egrave" unicode="&#xe8;" horiz-adv-x="1042" 
d="M911 137q-129 -83 -235 -121.5t-225 -38.5q-180 0 -276.5 97t-96.5 276q0 54 8 114t27.5 129.5t48.5 134t76 125t106 104.5t141.5 71t178.5 27q173 0 260.5 -64.5t87.5 -181.5q0 -139 -111.5 -224t-341.5 -85h-299q-16 -70 -16 -148q0 -119 59 -183.5t172 -64.5
q171 0 377 138zM846 793q0 62 -49 100.5t-150 38.5q-73 0 -135 -27t-104.5 -73.5t-71.5 -100t-45 -113.5h278q277 0 277 175zM758 1190h-125l-207 278h184z" />
    <glyph glyph-name="eacute" unicode="&#xe9;" horiz-adv-x="1042" 
d="M911 137q-129 -83 -235 -121.5t-225 -38.5q-180 0 -276.5 97t-96.5 276q0 54 8 114t27.5 129.5t48.5 134t76 125t106 104.5t141.5 71t178.5 27q173 0 260.5 -64.5t87.5 -181.5q0 -139 -111.5 -224t-341.5 -85h-299q-16 -70 -16 -148q0 -119 59 -183.5t172 -64.5
q171 0 377 138zM846 793q0 62 -49 100.5t-150 38.5q-73 0 -135 -27t-104.5 -73.5t-71.5 -100t-45 -113.5h278q277 0 277 175zM1016 1468l-285 -278h-129l229 278h185z" />
    <glyph glyph-name="ecircumflex" unicode="&#xea;" horiz-adv-x="1042" 
d="M911 137q-129 -83 -235 -121.5t-225 -38.5q-180 0 -276.5 97t-96.5 276q0 54 8 114t27.5 129.5t48.5 134t76 125t106 104.5t141.5 71t178.5 27q173 0 260.5 -64.5t87.5 -181.5q0 -139 -111.5 -224t-341.5 -85h-299q-16 -70 -16 -148q0 -119 59 -183.5t172 -64.5
q171 0 377 138zM846 793q0 62 -49 100.5t-150 38.5q-73 0 -135 -27t-104.5 -73.5t-71.5 -100t-45 -113.5h278q277 0 277 175zM967 1190h-140l-112 184l-197 -184h-137l281 270h137z" />
    <glyph glyph-name="edieresis" unicode="&#xeb;" horiz-adv-x="1042" 
d="M911 137q-129 -83 -235 -121.5t-225 -38.5q-180 0 -276.5 97t-96.5 276q0 54 8 114t27.5 129.5t48.5 134t76 125t106 104.5t141.5 71t178.5 27q173 0 260.5 -64.5t87.5 -181.5q0 -139 -111.5 -224t-341.5 -85h-299q-16 -70 -16 -148q0 -119 59 -183.5t172 -64.5
q171 0 377 138zM846 793q0 62 -49 100.5t-150 38.5q-73 0 -135 -27t-104.5 -73.5t-71.5 -100t-45 -113.5h278q277 0 277 175zM926 1202h-176l36 180h177zM608 1202h-176l37 180h176z" />
    <glyph glyph-name="igrave" unicode="&#xec;" horiz-adv-x="446" 
d="M201 0h-160l219 1032h160zM428 1182h-125l-207 278h185z" />
    <glyph glyph-name="iacute" unicode="&#xed;" horiz-adv-x="446" 
d="M201 0h-160l219 1032h160zM719 1460l-285 -278h-129l230 278h184z" />
    <glyph glyph-name="icircumflex" unicode="&#xee;" horiz-adv-x="446" 
d="M201 0h-160l219 1032h160zM653 1182h-139l-113 184l-196 -184h-137l280 270h137z" />
    <glyph glyph-name="idieresis" unicode="&#xef;" horiz-adv-x="446" 
d="M201 0h-160l219 1032h160zM604 1194h-176l37 180h176zM330 1194h-176l36 180h177z" />
    <glyph glyph-name="eth" unicode="&#xf0;" 
d="M1034 1343l-190 -88q113 -124 155.5 -261t42.5 -304q0 -83 -22 -184q-24 -112 -73 -206.5t-120 -167.5t-169.5 -114t-213.5 -41q-98 0 -170 27.5t-114.5 78t-63 115t-20.5 144.5q0 66 22 174q54 248 199 390.5t342 142.5q119 0 192 -23q-68 108 -131 162l-215 -101
l-79 84l202 97q-73 59 -143 98l151 72q63 -32 142 -103l196 92zM463 104q144 0 244.5 101t142.5 295q20 97 20 174q0 125 -58.5 187.5t-166.5 62.5q-139 0 -235 -102t-136 -287q-22 -99 -22 -179q0 -125 56.5 -188.5t154.5 -63.5z" />
    <glyph glyph-name="ntilde" unicode="&#xf1;" horiz-adv-x="1099" 
d="M856 0h-160l140 653q14 68 14 133q0 142 -139 142q-128 0 -338 -156l-164 -772h-160l135 637q34 156 56 395h143l-6 -129q112 76 201 114t174 38q123 0 192.5 -60.5t69.5 -187.5q0 -65 -19 -154zM1016 1389l80 -62q-40 -75 -100 -116.5t-132 -41.5q-45 0 -89.5 16
t-73.5 35.5t-65.5 35.5t-68.5 16q-73 0 -133 -105l-82 62q40 75 100 116t132 41q57 0 111 -25.5t100.5 -51t85.5 -25.5q71 0 135 105z" />
    <glyph glyph-name="ograve" unicode="&#xf2;" horiz-adv-x="1134" 
d="M1073 698q0 -47 -10 -112t-31.5 -145.5t-65.5 -163t-102 -140.5q-160 -160 -403 -160q-189 0 -286 96t-97 261q0 47 10 112t31.5 145.5t65.5 163t102 140.5q160 160 403 160q189 0 286 -96t97 -261zM899 682q0 124 -60 185t-169 61q-69 0 -135.5 -26.5t-116.5 -76.5
q-83 -83 -124.5 -223t-41.5 -252q0 -124 60 -185t169 -61q69 0 135.5 26.5t116.5 76.5q83 83 124.5 223t41.5 252zM762 1190h-125l-207 278h184z" />
    <glyph glyph-name="oacute" unicode="&#xf3;" horiz-adv-x="1134" 
d="M1073 698q0 -47 -10 -112t-31.5 -145.5t-65.5 -163t-102 -140.5q-160 -160 -403 -160q-189 0 -286 96t-97 261q0 47 10 112t31.5 145.5t65.5 163t102 140.5q160 160 403 160q189 0 286 -96t97 -261zM899 682q0 124 -60 185t-169 61q-69 0 -135.5 -26.5t-116.5 -76.5
q-83 -83 -124.5 -223t-41.5 -252q0 -124 60 -185t169 -61q69 0 135.5 26.5t116.5 76.5q83 83 124.5 223t41.5 252zM1044 1468l-284 -278h-129l229 278h184z" />
    <glyph glyph-name="ocircumflex" unicode="&#xf4;" horiz-adv-x="1134" 
d="M1073 698q0 -47 -10 -112t-31.5 -145.5t-65.5 -163t-102 -140.5q-160 -160 -403 -160q-189 0 -286 96t-97 261q0 47 10 112t31.5 145.5t65.5 163t102 140.5q160 160 403 160q189 0 286 -96t97 -261zM899 682q0 124 -60 185t-169 61q-69 0 -135.5 -26.5t-116.5 -76.5
q-83 -83 -124.5 -223t-41.5 -252q0 -124 60 -185t169 -61q69 0 135.5 26.5t116.5 76.5q83 83 124.5 223t41.5 252zM993 1190h-139l-113 184l-196 -184h-137l280 270h137z" />
    <glyph glyph-name="otilde" unicode="&#xf5;" horiz-adv-x="1134" 
d="M1073 698q0 -47 -10 -112t-31.5 -145.5t-65.5 -163t-102 -140.5q-160 -160 -403 -160q-189 0 -286 96t-97 261q0 47 10 112t31.5 145.5t65.5 163t102 140.5q160 160 403 160q189 0 286 -96t97 -261zM899 682q0 124 -60 185t-169 61q-69 0 -135.5 -26.5t-116.5 -76.5
q-83 -83 -124.5 -223t-41.5 -252q0 -124 60 -185t169 -61q69 0 135.5 26.5t116.5 76.5q83 83 124.5 223t41.5 252zM1010 1397l80 -62q-40 -75 -100 -116t-132 -41q-57 0 -111 25.5t-100.5 51t-85.5 25.5q-73 0 -133 -104l-82 61q40 75 100 116.5t132 41.5q45 0 89.5 -16
t73.5 -35.5t65 -35.5t68 -16q72 0 136 105z" />
    <glyph glyph-name="odieresis" unicode="&#xf6;" horiz-adv-x="1134" 
d="M1073 698q0 -47 -10 -112t-31.5 -145.5t-65.5 -163t-102 -140.5q-160 -160 -403 -160q-189 0 -286 96t-97 261q0 47 10 112t31.5 145.5t65.5 163t102 140.5q160 160 403 160q189 0 286 -96t97 -261zM899 682q0 124 -60 185t-169 61q-69 0 -135.5 -26.5t-116.5 -76.5
q-83 -83 -124.5 -223t-41.5 -252q0 -124 60 -185t169 -61q69 0 135.5 26.5t116.5 76.5q83 83 124.5 223t41.5 252zM954 1202h-176l37 180h176zM637 1202h-176l37 180h176z" />
    <glyph glyph-name="divide" unicode="&#xf7;" horiz-adv-x="1187" 
d="M1112 608h-983l27 131h983zM635 145h-225l47 224h225zM811 979h-225l47 221h225z" />
    <glyph glyph-name="oslash" unicode="&#xf8;" horiz-adv-x="1134" 
d="M55 -147l-84 67l170 193q-63 90 -63 221q0 47 10 112t31.5 145.5t65.5 163t102 140.5q160 160 403 160q140 0 230 -54l157 179l86 -68l-159 -182q69 -94 69 -232q0 -47 -10 -112t-31.5 -145.5t-65.5 -163t-102 -140.5q-160 -160 -403 -160q-148 0 -242 62zM481 104
q69 0 135.5 26.5t116.5 76.5q83 83 124.5 223t41.5 252q0 50 -14 113l-563 -639q58 -52 159 -52zM262 252l557 633q-56 43 -149 43q-69 0 -135.5 -26.5t-116.5 -76.5q-83 -83 -124.5 -223t-41.5 -252q0 -38 10 -98z" />
    <glyph glyph-name="ugrave" unicode="&#xf9;" horiz-adv-x="1099" 
d="M258 1032h160l-139 -653q-15 -73 -15 -133q0 -142 139 -142q128 0 338 156l164 772h160l-135 -637q-34 -156 -56 -395h-143l6 129q-112 -76 -201 -114t-174 -38q-123 0 -192.5 60.5t-69.5 187.5q0 65 19 154zM774 1182h-125l-207 278h185z" />
    <glyph glyph-name="uacute" unicode="&#xfa;" horiz-adv-x="1099" 
d="M258 1032h160l-139 -653q-15 -73 -15 -133q0 -142 139 -142q128 0 338 156l164 772h160l-135 -637q-34 -156 -56 -395h-143l6 129q-112 -76 -201 -114t-174 -38q-123 0 -192.5 60.5t-69.5 187.5q0 65 19 154zM1038 1460l-284 -278h-129l229 278h184z" />
    <glyph glyph-name="ucircumflex" unicode="&#xfb;" horiz-adv-x="1099" 
d="M258 1032h160l-139 -653q-15 -73 -15 -133q0 -142 139 -142q128 0 338 156l164 772h160l-135 -637q-34 -156 -56 -395h-143l6 129q-112 -76 -201 -114t-174 -38q-123 0 -192.5 60.5t-69.5 187.5q0 65 19 154zM979 1182h-139l-113 184l-197 -184h-137l281 270h137z" />
    <glyph glyph-name="udieresis" unicode="&#xfc;" horiz-adv-x="1099" 
d="M258 1032h160l-139 -653q-15 -73 -15 -133q0 -142 139 -142q128 0 338 156l164 772h160l-135 -637q-34 -156 -56 -395h-143l6 129q-112 -76 -201 -114t-174 -38q-123 0 -192.5 60.5t-69.5 187.5q0 65 19 154zM936 1194h-176l37 180h176zM618 1194h-176l37 180h176z" />
    <glyph glyph-name="yacute" unicode="&#xfd;" horiz-adv-x="858" 
d="M965 1032q-246 -487 -537 -985q-99 -171 -183.5 -261t-199.5 -157l-63 115q251 147 251 358q0 80 -43.5 374.5t-62.5 555.5h160q22 -269 63 -594q18 -162 21 -260h2q73 166 114 244q218 407 320 610h158zM899 1460l-285 -278h-129l230 278h184z" />
    <glyph glyph-name="thorn" unicode="&#xfe;" horiz-adv-x="1110" 
d="M-35 -348l377 1773h160l-53 -254q-46 -224 -80 -331q59 87 163 151t207 64q155 0 230 -89t75 -245q0 -65 -7.5 -130.5t-27 -140t-49.5 -140.5t-78.5 -127.5t-110 -105.5t-148.5 -70.5t-189 -26.5q-119 0 -233 30l-76 -358h-160zM717 928q-56 0 -118.5 -32t-122.5 -90
t-109.5 -151.5t-73.5 -205.5l-62 -293q45 -22 112.5 -36t121.5 -14q71 0 131 24.5t101.5 64t73.5 93.5t51 109.5t31 116t16.5 108.5t4.5 91q0 215 -157 215z" />
    <glyph glyph-name="ydieresis" unicode="&#xff;" horiz-adv-x="858" 
d="M965 1032q-246 -487 -537 -985q-99 -171 -183.5 -261t-199.5 -157l-63 115q251 147 251 358q0 80 -43.5 374.5t-62.5 555.5h160q22 -269 63 -594q18 -162 21 -260h2q73 166 114 244q218 407 320 610h158zM836 1194h-177l37 180h176zM518 1194h-176l37 180h176z" />
    <glyph glyph-name="Amacron" unicode="&#x100;" horiz-adv-x="1175" 
d="M1053 0h-176q-12 174 -31 371h-567q-113 -220 -185 -371h-180q288 586 752 1358h211q116 -583 176 -1358zM350 508h481q-18 208 -51 463q-15 118 -37 246h-4q-45 -78 -131 -230q-117 -209 -258 -479zM1079 1489h-559l27 123h559z" />
    <glyph glyph-name="amacron" unicode="&#x101;" 
d="M1081 1049l-139 -654q-33 -148 -55 -395h-154l21 193q-69 -98 -168.5 -155.5t-208.5 -57.5q-303 0 -303 325q0 78 12.5 157.5t39.5 165.5t75 160.5t112.5 134t158.5 94t206 34.5q103 0 242 -27zM412 111q59 0 120 31t117 88.5t101.5 149t70.5 204.5l64 295
q-117 45 -234 45q-78 0 -142.5 -30t-107.5 -81.5t-75 -113t-49 -132t-25 -131.5t-8 -117q0 -116 40.5 -162t127.5 -46zM944 1223h-518l25 123h518z" />
    <glyph glyph-name="Abreve" unicode="&#x102;" horiz-adv-x="1175" 
d="M1053 0h-176q-12 174 -31 371h-567q-113 -220 -185 -371h-180q288 586 752 1358h211q116 -583 176 -1358zM350 508h481q-18 208 -51 463q-15 118 -37 246h-4q-45 -78 -131 -230q-117 -209 -258 -479zM1018 1706h117q-28 -123 -118.5 -186.5t-213.5 -63.5
q-132 0 -198 60.5t-56 189.5h123q-9 -70 31.5 -103.5t113.5 -33.5q154 0 201 137z" />
    <glyph glyph-name="abreve" unicode="&#x103;" 
d="M1081 1049l-139 -654q-33 -148 -55 -395h-154l21 193q-69 -98 -168.5 -155.5t-208.5 -57.5q-303 0 -303 325q0 78 12.5 157.5t39.5 165.5t75 160.5t112.5 134t158.5 94t206 34.5q103 0 242 -27zM412 111q59 0 120 31t117 88.5t101.5 149t70.5 204.5l64 295
q-117 45 -234 45q-78 0 -142.5 -30t-107.5 -81.5t-75 -113t-49 -132t-25 -131.5t-8 -117q0 -116 40.5 -162t127.5 -46zM903 1436h115q-32 -127 -118.5 -188.5t-209.5 -61.5q-132 0 -199.5 60.5t-58.5 189.5h123q-10 -68 30 -103t111 -35q76 0 131.5 35.5t75.5 102.5z" />
    <glyph glyph-name="Aogonek" unicode="&#x104;" horiz-adv-x="1175" 
d="M354 508h482q-16 182 -52 463q-18 141 -36 246h-5q-45 -78 -131 -230q-117 -209 -258 -479zM997 -221l19 -107q-81 -41 -170 -41q-160 0 -160 123q0 155 219 246h-24q-12 174 -31 371h-567q-113 -220 -185 -371h-180q288 586 752 1358h211q116 -583 176 -1358
q-209 -120 -209 -213q0 -35 43 -35q47 0 106 27z" />
    <glyph glyph-name="aogonek" unicode="&#x105;" 
d="M651 924q-78 0 -142.5 -30t-107.5 -81.5t-75 -113t-49 -132t-25 -131.5t-8 -117q0 -116 40.5 -162t127.5 -46q59 0 120 31t117 88.5t101.5 149t70.5 204.5l64 295q-117 45 -234 45zM829 -221l19 -107q-81 -41 -170 -41q-160 0 -160 123q0 142 217 258l19 181
q-69 -98 -168.5 -155.5t-208.5 -57.5q-303 0 -303 325q0 78 12.5 157.5t39.5 165.5t75 160.5t112.5 134t158.5 94t206 34.5q101 0 244 -27l159 25l-139 -654q-33 -148 -55 -395q-207 -121 -207 -213q0 -35 43 -35q47 0 106 27z" />
    <glyph glyph-name="Cacute" unicode="&#x106;" horiz-adv-x="1267" 
d="M1169 436q-69 -209 -225 -334t-379 -125q-236 0 -343 124.5t-107 357.5q0 74 13 157t42 172.5t71 174t104 160.5t136.5 133t173 90.5t209.5 33.5q175 0 280 -81t105 -228q0 -71 -22 -143l-170 -21q20 72 20 129q0 92 -57 148.5t-172 56.5q-100 0 -185 -42.5t-143.5 -113
t-103.5 -156t-70.5 -177t-38 -169t-12.5 -139.5q0 -155 72.5 -240t214.5 -85q158 0 267 87t157 230h163zM1128 1702l-217 -225h-125l158 225h184z" />
    <glyph glyph-name="cacute" unicode="&#x107;" horiz-adv-x="1042" 
d="M827 293l82 -98q-141 -117 -246.5 -167.5t-228.5 -50.5q-176 0 -265 93t-89 274q0 93 20.5 189t67 190.5t113 167.5t167 118.5t220.5 45.5q145 0 233 -69.5t88 -201.5q0 -50 -12 -108h-160q12 53 12 90q0 78 -48.5 121t-135.5 43q-96 0 -174.5 -57.5t-124 -146.5
t-70 -185.5t-24.5 -186.5q0 -122 56 -186t155 -64q160 0 364 189zM1018 1468l-285 -278h-129l230 278h184z" />
    <glyph glyph-name="Ccircumflex" unicode="&#x108;" horiz-adv-x="1267" 
d="M1169 436q-69 -209 -225 -334t-379 -125q-236 0 -343 124.5t-107 357.5q0 74 13 157t42 172.5t71 174t104 160.5t136.5 133t173 90.5t209.5 33.5q175 0 280 -81t105 -228q0 -71 -22 -143l-170 -21q20 72 20 129q0 92 -57 148.5t-172 56.5q-100 0 -185 -42.5t-143.5 -113
t-103.5 -156t-70.5 -177t-38 -169t-12.5 -139.5q0 -155 72.5 -240t214.5 -85q158 0 267 87t157 230h163zM1147 1477h-139l-95 143l-155 -143h-137l241 229h137z" />
    <glyph glyph-name="ccircumflex" unicode="&#x109;" horiz-adv-x="1042" 
d="M827 293l82 -98q-141 -117 -246.5 -167.5t-228.5 -50.5q-176 0 -265 93t-89 274q0 93 20.5 189t67 190.5t113 167.5t167 118.5t220.5 45.5q145 0 233 -69.5t88 -201.5q0 -50 -12 -108h-160q12 53 12 90q0 78 -48.5 121t-135.5 43q-96 0 -174.5 -57.5t-124 -146.5
t-70 -185.5t-24.5 -186.5q0 -122 56 -186t155 -64q160 0 364 189zM981 1190h-139l-113 184l-197 -184h-137l281 270h137z" />
    <glyph glyph-name="Cdotaccent" unicode="&#x10a;" horiz-adv-x="1267" 
d="M1169 436q-69 -209 -225 -334t-379 -125q-236 0 -343 124.5t-107 357.5q0 74 13 157t42 172.5t71 174t104 160.5t136.5 133t173 90.5t209.5 33.5q175 0 280 -81t105 -228q0 -71 -22 -143l-170 -21q20 72 20 129q0 92 -57 148.5t-172 56.5q-100 0 -185 -42.5t-143.5 -113
t-103.5 -156t-70.5 -177t-38 -169t-12.5 -139.5q0 -155 72.5 -240t214.5 -85q158 0 267 87t157 230h163zM954 1477h-176l39 180h176z" />
    <glyph glyph-name="cdotaccent" unicode="&#x10b;" horiz-adv-x="1042" 
d="M827 293l82 -98q-141 -117 -246.5 -167.5t-228.5 -50.5q-176 0 -265 93t-89 274q0 93 20.5 189t67 190.5t113 167.5t167 118.5t220.5 45.5q145 0 233 -69.5t88 -201.5q0 -50 -12 -108h-160q12 53 12 90q0 78 -48.5 121t-135.5 43q-96 0 -174.5 -57.5t-124 -146.5
t-70 -185.5t-24.5 -186.5q0 -122 56 -186t155 -64q160 0 364 189zM786 1202h-176l37 180h176z" />
    <glyph glyph-name="Ccaron" unicode="&#x10c;" horiz-adv-x="1267" 
d="M1169 436q-69 -209 -225 -334t-379 -125q-236 0 -343 124.5t-107 357.5q0 74 13 157t42 172.5t71 174t104 160.5t136.5 133t173 90.5t209.5 33.5q175 0 280 -81t105 -228q0 -71 -22 -143l-170 -21q20 72 20 129q0 92 -57 148.5t-172 56.5q-100 0 -185 -42.5t-143.5 -113
t-103.5 -156t-70.5 -177t-38 -169t-12.5 -139.5q0 -155 72.5 -240t214.5 -85q158 0 267 87t157 230h163zM1190 1706l-242 -229h-137l-147 229h137l94 -143l156 143h139z" />
    <glyph glyph-name="ccaron" unicode="&#x10d;" horiz-adv-x="1042" 
d="M827 293l82 -98q-141 -117 -246.5 -167.5t-228.5 -50.5q-176 0 -265 93t-89 274q0 93 20.5 189t67 190.5t113 167.5t167 118.5t220.5 45.5q145 0 233 -69.5t88 -201.5q0 -50 -12 -108h-160q12 53 12 90q0 78 -48.5 121t-135.5 43q-96 0 -174.5 -57.5t-124 -146.5
t-70 -185.5t-24.5 -186.5q0 -122 56 -186t155 -64q160 0 364 189zM1051 1456l-281 -270h-137l-168 270h137l115 -184l194 184h140z" />
    <glyph glyph-name="Dcaron" unicode="&#x10e;" horiz-adv-x="1294" 
d="M61 0l287 1358l404 2q136 1 238.5 -34.5t162.5 -99.5t89.5 -144.5t29.5 -176.5q0 -71 -12 -150t-40 -168t-69.5 -171.5t-106.5 -159t-144.5 -133t-189.5 -90t-237 -33.5h-412zM262 139h240q127 0 230.5 52t168 132.5t109 183.5t62.5 199.5t18 186.5q0 328 -365 328h-233z
M1112 1696l-242 -230h-137l-147 230h137l94 -144l156 144h139z" />
    <glyph glyph-name="dcaron" unicode="&#x10f;" horiz-adv-x="1130" 
d="M1161 1425l-219 -1030q-33 -148 -55 -395h-154l21 193q-69 -99 -169 -157.5t-208 -58.5q-303 0 -303 328q0 94 17.5 190.5t62 198.5t111 180.5t174 128.5t241.5 50q107 0 238 -27l83 399h160zM412 109q59 0 120.5 31t117 89t101 150t70.5 205l66 297q-117 45 -234 45
q-93 0 -166.5 -44t-118 -110t-73.5 -150.5t-40 -159.5t-11 -143q0 -116 40.5 -163t127.5 -47zM1462 1556l-155 -280h-115l117 280h153z" />
    <glyph glyph-name="Dcroat" unicode="&#x110;" horiz-adv-x="1314" 
d="M1292 905q0 -71 -11.5 -150t-39.5 -168t-70 -171.5t-106.5 -159t-144.5 -133t-189.5 -90t-236.5 -33.5h-412l135 641h-164l29 139h164l123 578l403 2q136 1 238.5 -34.5t162.5 -99.5t89.5 -144.5t29.5 -176.5zM283 139h239q106 0 196.5 36t153 97.5t110 137.5t74.5 162.5
t40.5 166t13.5 152.5q0 330 -365 330h-233l-94 -441h246l-29 -139h-246z" />
    <glyph glyph-name="dcroat" unicode="&#x111;" horiz-adv-x="1110" 
d="M1276 1300l-25 -122h-141l-166 -783q-33 -148 -55 -395h-154l21 193q-69 -99 -169 -157.5t-208 -58.5q-303 0 -303 328q0 78 12.5 157.5t39.5 165.5t75 160.5t112.5 134t158.5 94t206 34.5q107 0 238 -27l32 154h-270l25 122h272l27 125h159l-26 -125h139zM414 109
q59 0 120.5 31t117 89t101 150t70.5 205l64 295q-117 45 -234 45q-78 0 -142.5 -30t-107.5 -81.5t-75 -113t-49 -132t-25 -131.5t-8 -117q0 -116 40.5 -163t127.5 -47z" />
    <glyph glyph-name="Emacron" unicode="&#x112;" horiz-adv-x="1062" 
d="M899 0h-838l287 1358h819l-47 -139h-628l-95 -441h523l-29 -137h-522l-107 -500h666zM1065 1489h-559l26 123h560z" />
    <glyph glyph-name="emacron" unicode="&#x113;" horiz-adv-x="1042" 
d="M911 137q-129 -83 -235 -121.5t-225 -38.5q-180 0 -276.5 97t-96.5 276q0 54 8 114t27.5 129.5t48.5 134t76 125t106 104.5t141.5 71t178.5 27q173 0 260.5 -64.5t87.5 -181.5q0 -139 -111.5 -224t-341.5 -85h-299q-16 -70 -16 -148q0 -119 59 -183.5t172 -64.5
q171 0 377 138zM846 793q0 62 -49 100.5t-150 38.5q-73 0 -135 -27t-104.5 -73.5t-71.5 -100t-45 -113.5h278q277 0 277 175zM944 1223h-518l25 123h518z" />
    <glyph glyph-name="Edotaccent" unicode="&#x116;" horiz-adv-x="1062" 
d="M899 0h-838l287 1358h819l-47 -139h-628l-95 -441h523l-29 -137h-522l-107 -500h666zM868 1466h-176l39 181h176z" />
    <glyph glyph-name="edotaccent" unicode="&#x117;" horiz-adv-x="1042" 
d="M911 137q-129 -83 -235 -121.5t-225 -38.5q-180 0 -276.5 97t-96.5 276q0 54 8 114t27.5 129.5t48.5 134t76 125t106 104.5t141.5 71t178.5 27q173 0 260.5 -64.5t87.5 -181.5q0 -139 -111.5 -224t-341.5 -85h-299q-16 -70 -16 -148q0 -119 59 -183.5t172 -64.5
q171 0 377 138zM846 793q0 62 -49 100.5t-150 38.5q-73 0 -135 -27t-104.5 -73.5t-71.5 -100t-45 -113.5h278q277 0 277 175zM768 1202h-176l37 180h176z" />
    <glyph glyph-name="Eogonek" unicode="&#x118;" horiz-adv-x="1062" 
d="M928 141l-29 -141q-209 -120 -209 -213q0 -35 47 -35q45 0 103 27l18 -107q-81 -41 -170 -41q-160 0 -160 123q0 155 220 246h-687l287 1358h819l-47 -139h-628l-95 -441h523l-29 -137h-522l-107 -500h666z" />
    <glyph glyph-name="eogonek" unicode="&#x119;" horiz-adv-x="1042" 
d="M911 139q-80 -51 -154 -89t-113.5 -54t-85 -44.5t-87.5 -70.5q-47 -47 -47 -94q0 -35 43 -35q47 0 106 27l19 -107q-81 -41 -170 -41q-160 0 -160 123q0 136 170 223q-167 5 -260.5 101t-93.5 272q0 54 8 114t27.5 129.5t48.5 134t76 125t106 104.5t141.5 71t178.5 27
q173 0 260.5 -64.5t87.5 -181.5q0 -139 -111.5 -224t-341.5 -85h-299q-16 -70 -16 -148q0 -119 58.5 -181t172.5 -62q170 0 377 139zM846 793q0 63 -49.5 102t-149.5 39q-73 0 -135 -27.5t-104.5 -74t-71.5 -100.5t-45 -114h278q277 0 277 175z" />
    <glyph glyph-name="Ecaron" unicode="&#x11a;" horiz-adv-x="1062" 
d="M899 0h-838l287 1358h819l-47 -139h-628l-95 -441h523l-29 -137h-522l-107 -500h666zM1094 1696l-242 -230h-137l-148 230h138l94 -144l155 144h140z" />
    <glyph glyph-name="ecaron" unicode="&#x11b;" horiz-adv-x="1042" 
d="M911 137q-129 -83 -235 -121.5t-225 -38.5q-180 0 -276.5 97t-96.5 276q0 54 8 114t27.5 129.5t48.5 134t76 125t106 104.5t141.5 71t178.5 27q173 0 260.5 -64.5t87.5 -181.5q0 -139 -111.5 -224t-341.5 -85h-299q-16 -70 -16 -148q0 -119 59 -183.5t172 -64.5
q171 0 377 138zM846 793q0 62 -49 100.5t-150 38.5q-73 0 -135 -27t-104.5 -73.5t-71.5 -100t-45 -113.5h278q277 0 277 175zM1044 1456l-280 -270h-137l-168 270h137l115 -184l194 184h139z" />
    <glyph glyph-name="Gcircumflex" unicode="&#x11c;" horiz-adv-x="1318" 
d="M1210 684l-118 -565q-117 -64 -254 -103t-269 -39q-224 0 -341 120t-117 360q0 69 12 148t40 169t68 175.5t101 164t134.5 137.5t173 94t212.5 35q181 0 292 -86t111 -233q0 -51 -12 -94l-170 -19q10 45 10 74q0 97 -69.5 157t-184.5 60q-85 0 -158.5 -31t-127 -82
t-97 -119.5t-71 -140.5t-46 -147t-26.5 -137.5t-8 -114.5q0 -179 74.5 -264.5t226.5 -85.5q173 0 340 80l74 348h-328l29 139h499zM1133 1477h-140l-94 143l-156 -143h-137l242 229h137z" />
    <glyph glyph-name="gcircumflex" unicode="&#x11d;" 
d="M887 0q-6 -61 -17.5 -107.5t-44.5 -98.5t-85 -85.5t-142 -55.5t-211 -22q-130 0 -293 29l25 141q165 -43 303 -43q275 0 301 213q18 145 33 242q-70 -98 -170 -155.5t-209 -57.5q-154 0 -226.5 81.5t-72.5 242.5q0 53 7 111.5t25.5 131t46.5 139t76 131t108 111.5t147 76
t190 29q95 0 244 -29l161 25l-139 -654q-36 -163 -57 -395zM827 606l60 273q-113 47 -238 47q-70 0 -128.5 -25t-99 -65t-72 -94t-50 -109.5t-30.5 -114.5t-16.5 -105t-4.5 -85q0 -107 39 -153t125 -46q59 0 121 31t119 89t103.5 151t71.5 206zM967 1190h-140l-112 184
l-197 -184h-137l281 270h137z" />
    <glyph glyph-name="Gbreve" unicode="&#x11e;" horiz-adv-x="1318" 
d="M1210 684l-118 -565q-117 -64 -254 -103t-269 -39q-224 0 -341 120t-117 360q0 69 12 148t40 169t68 175.5t101 164t134.5 137.5t173 94t212.5 35q181 0 292 -86t111 -233q0 -51 -12 -94l-170 -19q10 45 10 74q0 97 -69.5 157t-184.5 60q-85 0 -158.5 -31t-127 -82
t-97 -119.5t-71 -140.5t-46 -147t-26.5 -137.5t-8 -114.5q0 -179 74.5 -264.5t226.5 -85.5q173 0 340 80l74 348h-328l29 139h499zM1085 1716h117q-28 -123 -118.5 -186.5t-213.5 -63.5q-132 0 -198 60.5t-56 189.5h123q-9 -70 32 -103.5t114 -33.5q153 0 200 137z" />
    <glyph glyph-name="gbreve" unicode="&#x11f;" 
d="M887 0q-6 -61 -17.5 -107.5t-44.5 -98.5t-85 -85.5t-142 -55.5t-211 -22q-130 0 -293 29l25 141q165 -43 303 -43q275 0 301 213q18 145 33 242q-70 -98 -170 -155.5t-209 -57.5q-154 0 -226.5 81.5t-72.5 242.5q0 53 7 111.5t25.5 131t46.5 139t76 131t108 111.5t147 76
t190 29q95 0 244 -29l161 25l-139 -654q-36 -163 -57 -395zM827 606l60 273q-113 47 -238 47q-70 0 -128.5 -25t-99 -65t-72 -94t-50 -109.5t-30.5 -114.5t-16.5 -105t-4.5 -85q0 -107 39 -153t125 -46q59 0 121 31t119 89t103.5 151t71.5 206zM903 1436h115
q-32 -127 -118.5 -188.5t-209.5 -61.5q-132 0 -199.5 60.5t-58.5 189.5h123q-10 -68 30 -103t111 -35q76 0 131.5 35.5t75.5 102.5z" />
    <glyph glyph-name="Gdotaccent" unicode="&#x120;" horiz-adv-x="1318" 
d="M1210 684l-118 -565q-117 -64 -254 -103t-269 -39q-224 0 -341 120t-117 360q0 69 12 148t40 169t68 175.5t101 164t134.5 137.5t173 94t212.5 35q181 0 292 -86t111 -233q0 -51 -12 -94l-170 -19q10 45 10 74q0 97 -69.5 157t-184.5 60q-85 0 -158.5 -31t-127 -82
t-97 -119.5t-71 -140.5t-46 -147t-26.5 -137.5t-8 -114.5q0 -179 74.5 -264.5t226.5 -85.5q173 0 340 80l74 348h-328l29 139h499zM961 1477h-177l39 180h176z" />
    <glyph glyph-name="gdotaccent" unicode="&#x121;" 
d="M887 0q-6 -61 -17.5 -107.5t-44.5 -98.5t-85 -85.5t-142 -55.5t-211 -22q-130 0 -293 29l25 141q165 -43 303 -43q275 0 301 213q18 145 33 242q-70 -98 -170 -155.5t-209 -57.5q-154 0 -226.5 81.5t-72.5 242.5q0 53 7 111.5t25.5 131t46.5 139t76 131t108 111.5t147 76
t190 29q95 0 244 -29l161 25l-139 -654q-36 -163 -57 -395zM827 606l60 273q-113 47 -238 47q-70 0 -128.5 -25t-99 -65t-72 -94t-50 -109.5t-30.5 -114.5t-16.5 -105t-4.5 -85q0 -107 39 -153t125 -46q59 0 121 31t119 89t103.5 151t71.5 206zM811 1202h-176l37 180h176z
" />
    <glyph glyph-name="Gcommaaccent" unicode="&#x122;" horiz-adv-x="1318" 
d="M1210 684l-118 -565q-117 -64 -254 -103t-269 -39q-224 0 -341 120t-117 360q0 69 12 148t40 169t68 175.5t101 164t134.5 137.5t173 94t212.5 35q181 0 292 -86t111 -233q0 -51 -12 -94l-170 -19q10 45 10 74q0 97 -69.5 157t-184.5 60q-85 0 -158.5 -31t-127 -82
t-97 -119.5t-71 -140.5t-46 -147t-26.5 -137.5t-8 -114.5q0 -179 74.5 -264.5t226.5 -85.5q173 0 340 80l74 348h-328l29 139h499zM494 -369h-107l88 109h-57l35 166h172l-35 -160z" />
    <glyph glyph-name="gcommaaccent" unicode="&#x123;" 
d="M887 0q-6 -61 -17.5 -107.5t-44.5 -98.5t-85 -85.5t-142 -55.5t-211 -22q-130 0 -293 29l25 141q165 -43 303 -43q275 0 301 213q18 145 33 242q-70 -98 -170 -155.5t-209 -57.5q-154 0 -226.5 81.5t-72.5 242.5q0 53 7 111.5t25.5 131t46.5 139t76 131t108 111.5t147 76
t190 29q95 0 244 -29l161 25l-139 -654q-36 -163 -57 -395zM827 606l60 273q-113 47 -238 47q-70 0 -128.5 -25t-99 -65t-72 -94t-50 -109.5t-30.5 -114.5t-16.5 -105t-4.5 -85q0 -107 39 -153t125 -46q59 0 121 31t119 89t103.5 151t71.5 206zM659 1368l101 117h102
l-86 -111h58l-37 -172h-172z" />
    <glyph glyph-name="Hcircumflex" unicode="&#x124;" horiz-adv-x="1339" 
d="M1073 0h-172l135 639h-667l-136 -639h-172l287 1358h172l-121 -574h668l121 574h172zM1114 1466h-139l-94 144l-156 -144h-137l241 230h138z" />
    <glyph glyph-name="hcircumflex" unicode="&#x125;" horiz-adv-x="1091" 
d="M848 0h-160l139 653q15 67 15 133q0 142 -140 142q-127 0 -337 -156l-164 -772h-160l303 1425h160l-74 -350q-11 -53 -39 -157q199 137 352 137q123 0 193 -60.5t70 -187.5q0 -65 -19 -154zM1038 1528h-139l-94 143l-156 -143h-137l242 229h137z" />
    <glyph glyph-name="Hbar" unicode="&#x126;" horiz-adv-x="1382" 
d="M1096 0h-172l131 618h-670l-131 -618h-172l213 1004h-129l24 122h129l50 232h172l-49 -232h669l49 232h172l-49 -232h129l-24 -122h-129zM416 764h669l52 240h-670z" />
    <glyph glyph-name="hbar" unicode="&#x127;" horiz-adv-x="1091" 
d="M848 0h-160l139 653q15 67 15 133q0 142 -140 142q-127 0 -337 -156l-164 -772h-160l250 1178h-141l24 122h143l27 125h160l-27 -125h268l-24 -122h-268l-23 -103q-11 -53 -39 -157q199 137 352 137q123 0 193 -60.5t70 -187.5q0 -65 -19 -154z" />
    <glyph glyph-name="Itilde" unicode="&#x128;" horiz-adv-x="499" 
d="M233 0h-172l287 1358h172zM752 1651l84 -62q-36 -56 -96.5 -89.5t-131.5 -33.5q-56 0 -105 17.5t-88.5 35t-72.5 17.5q-96 0 -145 -82l-84 62q36 63 96.5 99t134.5 36q70 0 146.5 -35t130.5 -35q38 0 73.5 19t57.5 51z" />
    <glyph glyph-name="itilde" unicode="&#x129;" horiz-adv-x="446" 
d="M201 0h-160l219 1032h160zM686 1389l80 -62q-40 -76 -100 -117t-131 -41q-45 0 -89.5 16t-73.5 35.5t-65.5 35.5t-68.5 16q-74 0 -134 -105l-81 62q40 75 99.5 116t131.5 41q57 0 111 -25.5t100.5 -51t85.5 -25.5q71 0 135 105z" />
    <glyph glyph-name="Imacron" unicode="&#x12a;" horiz-adv-x="499" 
d="M233 0h-172l287 1358h172zM741 1489h-559l27 123h559z" />
    <glyph glyph-name="imacron" unicode="&#x12b;" horiz-adv-x="446" 
d="M201 0h-160l219 1032h160zM639 1214h-518l24 123h519z" />
    <glyph glyph-name="Iogonek" unicode="&#x12e;" horiz-adv-x="499" 
d="M520 1358l-287 -1358q-208 -120 -208 -213q0 -35 43 -35q47 0 106 27l19 -107q-81 -41 -170 -41q-160 0 -160 123q0 155 219 246h-21l287 1358h172z" />
    <glyph glyph-name="iogonek" unicode="&#x12f;" horiz-adv-x="446" 
d="M41 0l219 1032h160l-219 -1032q-209 -120 -209 -213q0 -35 43 -35q47 0 106 27l19 -107q-81 -41 -170 -41q-160 0 -160 123q0 147 211 246zM461 1194h-176l37 180h176z" />
    <glyph glyph-name="Idotaccent" unicode="&#x130;" horiz-adv-x="499" 
d="M233 0h-172l287 1358h172zM545 1466h-176l39 181h176z" />
    <glyph glyph-name="dotlessi" unicode="&#x131;" horiz-adv-x="446" 
d="M201 0h-160l219 1032h160z" />
    <glyph glyph-name="IJ" unicode="&#x132;" horiz-adv-x="1263" 
d="M233 0h-172l287 1358h172zM1292 1358l-198 -936q-21 -99 -59 -178t-95.5 -140t-140 -94t-185.5 -33q-110 0 -194 25l29 145q91 -26 172 -26q122 0 195 74t106 225l198 938h172z" />
    <glyph glyph-name="ij" unicode="&#x133;" horiz-adv-x="892" 
d="M461 1194h-176l37 180h176zM201 0h-160l219 1032h160zM907 1194h-176l37 180h176zM307 -371l-37 121q101 44 149.5 103t76.5 190l211 989h159l-204 -964q-39 -180 -121.5 -278.5t-233.5 -160.5z" />
    <glyph glyph-name="Jcircumflex" unicode="&#x134;" horiz-adv-x="763" 
d="M793 1358l-199 -936q-21 -99 -59 -178t-95 -140t-139.5 -94t-185.5 -33q-111 0 -195 25l29 145q91 -26 172 -26q122 0 195 74t106 225l199 938h172zM987 1466h-139l-94 144l-156 -144h-137l241 230h138z" />
    <glyph glyph-name="jcircumflex" unicode="&#x135;" horiz-adv-x="446" 
d="M-139 -371l-37 121q68 30 107 60.5t69 86.5t49 146l211 989h160l-205 -964q-39 -180 -121 -278.5t-233 -160.5zM657 1182h-139l-112 184l-197 -184h-137l280 270h137z" />
    <glyph glyph-name="Kcommaaccent" unicode="&#x136;" horiz-adv-x="1124" 
d="M1030 0h-221l-430 690l-146 -690h-172l287 1358h172l-129 -613l633 613h221l-684 -641zM412 -367h-103l88 111h-57l37 172h172l-35 -166z" />
    <glyph glyph-name="kcommaaccent" unicode="&#x137;" horiz-adv-x="983" 
d="M862 0h-203l-335 580l-123 -580h-160l301 1425h160l-172 -813l510 420h217l-563 -438zM342 -367h-102l88 111h-58l37 172h172l-35 -166z" />
    <glyph glyph-name="kgreenlandic" unicode="&#x138;" horiz-adv-x="983" 
d="M852 0h-203l-332 553l-116 -553h-160l219 1032h160l-96 -446l526 446h217l-580 -465z" />
    <glyph glyph-name="Lacute" unicode="&#x139;" horiz-adv-x="919" 
d="M788 0h-727l287 1358h172l-258 -1215h567zM752 1692l-217 -226h-125l157 226h185z" />
    <glyph glyph-name="lacute" unicode="&#x13a;" horiz-adv-x="446" 
d="M201 0h-160l301 1425h160zM721 1757l-217 -225h-125l158 225h184z" />
    <glyph glyph-name="Lcommaaccent" unicode="&#x13b;" horiz-adv-x="919" 
d="M788 0h-727l287 1358h172l-258 -1215h567zM365 -367h-103l88 111h-57l37 172h172l-35 -166z" />
    <glyph glyph-name="lcommaaccent" unicode="&#x13c;" horiz-adv-x="446" 
d="M201 0h-160l301 1425h160zM53 -367h-102l88 111h-57l36 172h172l-34 -166z" />
    <glyph glyph-name="Lcaron" unicode="&#x13d;" horiz-adv-x="919" 
d="M788 0h-727l287 1358h172l-258 -1215h567zM905 1556l-155 -280h-115l117 280h153z" />
    <glyph glyph-name="lcaron" unicode="&#x13e;" horiz-adv-x="466" 
d="M201 0h-160l301 1425h160zM803 1556l-156 -280h-115l117 280h154z" />
    <glyph glyph-name="Ldot" unicode="&#x13f;" horiz-adv-x="919" 
d="M788 0h-727l287 1358h172l-258 -1215h567zM893 596h-209l49 225h209z" />
    <glyph glyph-name="ldot" unicode="&#x140;" horiz-adv-x="663" 
d="M201 0h-160l301 1425h160zM674 575h-209l49 226h209z" />
    <glyph glyph-name="Lslash" unicode="&#x141;" horiz-adv-x="940" 
d="M850 143l-41 -143h-727l127 598l-148 -82v127l177 98l131 617h172l-109 -508l186 102v-127l-215 -118l-120 -564h567z" />
    <glyph glyph-name="lslash" unicode="&#x142;" horiz-adv-x="495" 
d="M387 782l-166 -782h-160l144 682l-127 -70v127l158 86l126 600h160l-106 -499l145 80v-127z" />
    <glyph glyph-name="Nacute" unicode="&#x143;" horiz-adv-x="1327" 
d="M1061 0h-166l-354 952q-35 90 -86 265h-2q-19 -115 -56 -306l-192 -911h-144l287 1358h213l316 -852q49 -133 96 -326h2q25 212 59 369l172 809h142zM1147 1692l-217 -226h-125l158 226h184z" />
    <glyph glyph-name="nacute" unicode="&#x144;" horiz-adv-x="1099" 
d="M856 0h-160l140 653q14 68 14 133q0 142 -139 142q-128 0 -338 -156l-164 -772h-160l135 637q34 156 56 395h143l-6 -129q112 76 201 114t174 38q123 0 192.5 -60.5t69.5 -187.5q0 -65 -19 -154zM1057 1460l-285 -278h-129l229 278h185z" />
    <glyph glyph-name="Ncommaaccent" unicode="&#x145;" horiz-adv-x="1327" 
d="M1061 0h-166l-354 952q-35 90 -86 265h-2q-19 -115 -56 -306l-192 -911h-144l287 1358h213l316 -852q49 -133 96 -326h2q25 212 59 369l172 809h142zM494 -367h-103l88 111h-57l37 172h172l-35 -166z" />
    <glyph glyph-name="ncommaaccent" unicode="&#x146;" horiz-adv-x="1099" 
d="M856 0h-160l140 653q14 68 14 133q0 142 -139 142q-128 0 -338 -156l-164 -772h-160l135 637q34 156 56 395h143l-6 -129q112 76 201 114t174 38q123 0 192.5 -60.5t69.5 -187.5q0 -65 -19 -154zM381 -367h-102l88 111h-58l37 172h172l-35 -166z" />
    <glyph glyph-name="Ncaron" unicode="&#x147;" horiz-adv-x="1327" 
d="M1061 0h-166l-354 952q-35 90 -86 265h-2q-19 -115 -56 -306l-192 -911h-144l287 1358h213l316 -852q49 -133 96 -326h2q25 212 59 369l172 809h142zM1180 1696l-242 -230h-137l-148 230h138l94 -144l155 144h140z" />
    <glyph glyph-name="ncaron" unicode="&#x148;" horiz-adv-x="1099" 
d="M856 0h-160l140 653q14 68 14 133q0 142 -139 142q-128 0 -338 -156l-164 -772h-160l135 637q34 156 56 395h143l-6 -129q112 76 201 114t174 38q123 0 192.5 -60.5t69.5 -187.5q0 -65 -19 -154zM1053 1448l-281 -270h-137l-168 270h137l115 -184l194 184h140z" />
    <glyph glyph-name="Eng" unicode="&#x14a;" horiz-adv-x="1327" 
d="M1348 1358l-273 -1290q-37 -179 -120 -277t-236 -160l-37 121q108 46 160 99.5t80 148.5l-363 920q-57 146 -104 297h-2q-19 -115 -56 -306l-192 -911h-144l287 1358h213l330 -838q46 -117 90 -274h2l51 303l172 809h142z" />
    <glyph glyph-name="eng" unicode="&#x14b;" horiz-adv-x="1099" 
d="M995 653l-125 -585q-39 -181 -120 -279.5t-232 -159.5l-47 121q70 30 110 60t72.5 86.5t51.5 146.5l131 610q14 68 14 133q0 73 -34.5 106.5t-104.5 33.5q-131 0 -338 -154l-164 -772h-160l135 637q34 156 56 395h143l-6 -129q111 75 200.5 112.5t174.5 37.5
q123 0 192.5 -59.5t69.5 -186.5q0 -65 -19 -154z" />
    <glyph glyph-name="Omacron" unicode="&#x14c;" horiz-adv-x="1372" 
d="M578 -20q-229 0 -348 123t-119 335q0 75 13 159t42 176t71.5 178t105.5 164t139 136t178 92.5t217 34.5q229 0 347.5 -123t118.5 -335q0 -75 -13 -159t-42 -176t-71 -178t-105 -164t-139 -136t-178 -92.5t-217 -34.5zM590 117q87 0 164.5 30.5t134.5 81.5t104.5 118.5
t78.5 140.5t52.5 149.5t31 143.5t9.5 124q0 336 -303 336q-120 0 -220 -58t-163.5 -146t-108 -197t-63 -207t-18.5 -180q0 -336 301 -336zM1171 1499h-559l27 123h559z" />
    <glyph glyph-name="omacron" unicode="&#x14d;" horiz-adv-x="1134" 
d="M1073 698q0 -47 -10 -112t-31.5 -145.5t-65.5 -163t-102 -140.5q-160 -160 -403 -160q-189 0 -286 96t-97 261q0 47 10 112t31.5 145.5t65.5 163t102 140.5q160 160 403 160q189 0 286 -96t97 -261zM899 682q0 124 -60 185t-169 61q-69 0 -135.5 -26.5t-116.5 -76.5
q-83 -83 -124.5 -223t-41.5 -252q0 -124 60 -185t169 -61q69 0 135.5 26.5t116.5 76.5q83 83 124.5 223t41.5 252zM961 1223h-519l25 123h518z" />
    <glyph glyph-name="Ohungarumlaut" unicode="&#x150;" horiz-adv-x="1372" 
d="M578 -20q-229 0 -348 123t-119 335q0 75 13 159t42 176t71.5 178t105.5 164t139 136t178 92.5t217 34.5q229 0 347.5 -123t118.5 -335q0 -75 -13 -159t-42 -176t-71 -178t-105 -164t-139 -136t-178 -92.5t-217 -34.5zM590 117q87 0 164.5 30.5t134.5 81.5t104.5 118.5
t78.5 140.5t52.5 149.5t31 143.5t9.5 124q0 336 -303 336q-120 0 -220 -58t-163.5 -146t-108 -197t-63 -207t-18.5 -180q0 -336 301 -336zM1325 1702l-231 -225h-131l178 225h184zM971 1702l-213 -225h-129l157 225h185z" />
    <glyph glyph-name="ohungarumlaut" unicode="&#x151;" horiz-adv-x="1134" 
d="M1073 698q0 -47 -10 -112t-31.5 -145.5t-65.5 -163t-102 -140.5q-160 -160 -403 -160q-189 0 -286 96t-97 261q0 47 10 112t31.5 145.5t65.5 163t102 140.5q160 160 403 160q189 0 286 -96t97 -261zM899 682q0 124 -60 185t-169 61q-69 0 -135.5 -26.5t-116.5 -76.5
q-83 -83 -124.5 -223t-41.5 -252q0 -124 60 -185t169 -61q69 0 135.5 26.5t116.5 76.5q83 83 124.5 223t41.5 252zM1219 1468l-289 -278h-129l229 278h189zM852 1468l-260 -278h-125l201 278h184z" />
    <glyph glyph-name="OE" unicode="&#x152;" horiz-adv-x="1767" 
d="M1604 0h-852q-79 -20 -181 -20q-222 0 -340 123.5t-118 334.5q0 76 12.5 159.5t40 175.5t68 178t102 164t136 136t174.5 92.5t214 34.5q96 0 191 -20h825l-45 -139h-635l-94 -441h522l-29 -137h-522l-106 -500h665zM797 150l225 1062q-78 29 -176 29q-86 0 -161.5 -30.5
t-131 -81.5t-101 -118.5t-76 -140.5t-51 -149.5t-29.5 -143.5t-9 -124q0 -156 74 -246t227 -90q122 0 209 33z" />
    <glyph glyph-name="oe" unicode="&#x153;" horiz-adv-x="1820" 
d="M899 682q0 124 -60 185t-169 61q-69 0 -135.5 -26.5t-116.5 -76.5q-83 -83 -124.5 -223t-41.5 -252q0 -124 60 -185t169 -61q69 0 135.5 26.5t116.5 76.5q83 83 124.5 223t41.5 252zM1630 248l60 -109q-130 -83 -236 -122.5t-225 -39.5q-254 0 -336 195
q-163 -195 -432 -195q-189 0 -286 96t-97 261q0 47 10 112t31.5 145.5t65.5 163t102 140.5q160 160 403 160q54 0 102.5 -9t96.5 -29t86.5 -58t60.5 -91q157 187 406 187q173 0 260.5 -64.5t87.5 -181.5q0 -139 -111.5 -224t-341.5 -85h-299q-16 -70 -16 -148
q0 -119 58.5 -181t172.5 -62q170 0 377 139zM1624 793q0 63 -49.5 102t-149.5 39q-73 0 -135 -27.5t-104.5 -74t-71.5 -100.5t-45 -114h279q276 0 276 175z" />
    <glyph glyph-name="Racute" unicode="&#x154;" horiz-adv-x="1193" 
d="M1022 0h-211l-258 592h-195l-125 -592h-172l287 1358h430q187 0 283 -79.5t96 -215.5q0 -168 -115 -295t-309 -160zM983 1044q0 82 -58.5 128.5t-181.5 46.5h-251l-105 -490h227q97 0 170 25.5t115.5 70.5t63 100t20.5 119zM1014 1692l-217 -226h-125l157 226h185z" />
    <glyph glyph-name="racute" unicode="&#x155;" horiz-adv-x="661" 
d="M770 1049l-43 -152q-27 6 -61 6q-70 0 -133.5 -36t-170.5 -134l-155 -733h-160l135 637q34 156 56 395h141v-158q107 101 174 141t139 40q48 0 78 -6zM870 1460l-284 -278h-129l229 278h184z" />
    <glyph glyph-name="Rcommaaccent" unicode="&#x156;" horiz-adv-x="1193" 
d="M1022 0h-211l-258 592h-195l-125 -592h-172l287 1358h430q187 0 283 -79.5t96 -215.5q0 -168 -115 -295t-309 -160zM983 1044q0 82 -58.5 128.5t-181.5 46.5h-251l-105 -490h227q97 0 170 25.5t115.5 70.5t63 100t20.5 119zM412 -367h-103l88 111h-57l37 172h172
l-35 -166z" />
    <glyph glyph-name="rcommaaccent" unicode="&#x157;" horiz-adv-x="661" 
d="M770 1049l-43 -152q-27 6 -61 6q-70 0 -133.5 -36t-170.5 -134l-155 -733h-160l135 637q34 156 56 395h141v-158q107 101 174 141t139 40q48 0 78 -6zM59 -367h-102l88 111h-57l37 172h172l-35 -166z" />
    <glyph glyph-name="Rcaron" unicode="&#x158;" horiz-adv-x="1193" 
d="M1022 0h-211l-258 592h-195l-125 -592h-172l287 1358h430q187 0 283 -79.5t96 -215.5q0 -168 -115 -295t-309 -160zM983 1044q0 82 -58.5 128.5t-181.5 46.5h-251l-105 -490h227q97 0 170 25.5t115.5 70.5t63 100t20.5 119zM1073 1696l-242 -230h-137l-147 230h137
l94 -144l156 144h139z" />
    <glyph glyph-name="rcaron" unicode="&#x159;" horiz-adv-x="661" 
d="M770 1049l-43 -152q-27 6 -61 6q-70 0 -133.5 -36t-170.5 -134l-155 -733h-160l135 637q34 156 56 395h141v-158q107 101 174 141t139 40q48 0 78 -6zM891 1448l-281 -270h-137l-168 270h137l115 -184l195 184h139z" />
    <glyph glyph-name="Sacute" unicode="&#x15a;" horiz-adv-x="1249" 
d="M1194 1061l-174 -19q26 94 -27.5 146.5t-208.5 52.5q-159 0 -255.5 -73t-96.5 -187q0 -52 29.5 -90.5t78 -59.5t110.5 -40.5t126 -33t126 -38t110.5 -54.5t78 -83t29.5 -123q0 -73 -24 -142.5t-74 -131t-121 -108t-172.5 -73.5t-220.5 -27q-250 0 -356 102t-72 275
l178 21q-22 -131 40 -194.5t249 -63.5q175 0 282 86.5t107 212.5q0 51 -29.5 88.5t-77.5 58t-109 39.5t-125 32t-125 37t-109 54t-77.5 82.5t-29.5 122.5q0 86 33 164.5t98 143.5t174 103.5t248 38.5q81 0 147 -12t111 -33t77.5 -50.5t46 -65t16.5 -76t-11 -82.5zM1090 1702
l-218 -225h-124l157 225h185z" />
    <glyph glyph-name="sacute" unicode="&#x15b;" horiz-adv-x="1017" 
d="M403 -23q-192 0 -284 58t-92 160q0 37 14 81l162 15q-10 -27 -10 -53q0 -61 58.5 -95t172.5 -34q132 0 212.5 57t80.5 141q0 43 -31 72.5t-80.5 45t-109.5 28.5t-119.5 29.5t-109 41.5t-80.5 71.5t-31 111.5q0 148 117.5 248t330.5 100q158 0 255 -50.5t97 -148.5
q0 -25 -10 -63l-149 -13q4 12 4 33q0 56 -55 87.5t-154 31.5q-126 0 -197 -54.5t-71 -136.5q0 -38 24.5 -65.5t64 -42t90.5 -28t103.5 -23.5t103.5 -28.5t90.5 -42t64 -66t24.5 -99.5q0 -157 -131.5 -263t-354.5 -106zM989 1468l-284 -278h-130l230 278h184z" />
    <glyph glyph-name="Scircumflex" unicode="&#x15c;" horiz-adv-x="1249" 
d="M1194 1061l-174 -19q26 94 -27.5 146.5t-208.5 52.5q-159 0 -255.5 -73t-96.5 -187q0 -52 29.5 -90.5t78 -59.5t110.5 -40.5t126 -33t126 -38t110.5 -54.5t78 -83t29.5 -123q0 -73 -24 -142.5t-74 -131t-121 -108t-172.5 -73.5t-220.5 -27q-250 0 -356 102t-72 275
l178 21q-22 -131 40 -194.5t249 -63.5q175 0 282 86.5t107 212.5q0 51 -29.5 88.5t-77.5 58t-109 39.5t-125 32t-125 37t-109 54t-77.5 82.5t-29.5 122.5q0 86 33 164.5t98 143.5t174 103.5t248 38.5q81 0 147 -12t111 -33t77.5 -50.5t46 -65t16.5 -76t-11 -82.5zM1104 1477
h-139l-95 143l-155 -143h-137l241 229h137z" />
    <glyph glyph-name="scircumflex" unicode="&#x15d;" horiz-adv-x="1017" 
d="M403 -23q-192 0 -284 58t-92 160q0 37 14 81l162 15q-10 -27 -10 -53q0 -61 58.5 -95t172.5 -34q132 0 212.5 57t80.5 141q0 43 -31 72.5t-80.5 45t-109.5 28.5t-119.5 29.5t-109 41.5t-80.5 71.5t-31 111.5q0 148 117.5 248t330.5 100q158 0 255 -50.5t97 -148.5
q0 -25 -10 -63l-149 -13q4 12 4 33q0 56 -55 87.5t-154 31.5q-126 0 -197 -54.5t-71 -136.5q0 -38 24.5 -65.5t64 -42t90.5 -28t103.5 -23.5t103.5 -28.5t90.5 -42t64 -66t24.5 -99.5q0 -157 -131.5 -263t-354.5 -106zM928 1190h-140l-112 184l-197 -184h-137l281 270h137z
" />
    <glyph glyph-name="Scedilla" unicode="&#x15e;" horiz-adv-x="1251" 
d="M313 -365l21 103q143 -14 143 41q0 49 -80 121l68 80q-213 8 -315.5 104t-67.5 270l178 21q-22 -131 40 -194.5t249 -63.5q175 0 282 86.5t107 212.5q0 51 -29.5 88.5t-77.5 58t-109 39.5t-125 32t-125 37t-109 54t-77.5 82.5t-29.5 122.5q0 86 33 164.5t98 143.5
t174 103.5t248 38.5q81 0 147 -12t111 -33t77.5 -50.5t46 -65t16.5 -76t-11 -82.5l-174 -19q26 94 -27.5 146.5t-208.5 52.5q-159 0 -255.5 -73t-96.5 -187q0 -52 29.5 -90.5t78 -59.5t110.5 -40.5t126 -33t126 -38t110.5 -54.5t78 -83t29.5 -123q0 -187 -144 -323
t-396 -156l-41 -46q52 -45 68 -76.5t16 -66.5q0 -83 -88 -130.5t-224 -25.5z" />
    <glyph glyph-name="scedilla" unicode="&#x15f;" horiz-adv-x="1017" 
d="M199 -365l20 103q136 -14 146 37q5 23 -13 51t-69 74l67 80q-158 6 -240.5 61.5t-82.5 153.5q0 37 14 81l162 15q-10 -27 -10 -53q0 -61 58.5 -95t172.5 -34q132 0 212.5 57t80.5 141q0 43 -31 72.5t-80.5 45t-109.5 28.5t-119.5 29.5t-109 41.5t-80.5 71.5t-31 111.5
q0 148 117.5 248t330.5 100q158 0 255 -50.5t97 -148.5q0 -25 -10 -63l-149 -13q4 12 4 33q0 56 -55 87.5t-154 31.5q-126 0 -197 -54.5t-71 -136.5q0 -38 24.5 -65.5t64 -42t90.5 -28t103.5 -23.5t103.5 -28.5t90.5 -42t64 -66t24.5 -99.5q0 -82 -36 -150.5t-96 -113
t-134.5 -71t-155.5 -31.5l-39 -43q56 -48 73.5 -84.5t8.5 -75.5q-17 -84 -103.5 -122.5t-207.5 -19.5z" />
    <glyph glyph-name="Scaron" unicode="&#x160;" horiz-adv-x="1249" 
d="M1194 1061l-174 -19q26 94 -27.5 146.5t-208.5 52.5q-159 0 -255.5 -73t-96.5 -187q0 -52 29.5 -90.5t78 -59.5t110.5 -40.5t126 -33t126 -38t110.5 -54.5t78 -83t29.5 -123q0 -73 -24 -142.5t-74 -131t-121 -108t-172.5 -73.5t-220.5 -27q-250 0 -356 102t-72 275
l178 21q-22 -131 40 -194.5t249 -63.5q175 0 282 86.5t107 212.5q0 51 -29.5 88.5t-77.5 58t-109 39.5t-125 32t-125 37t-109 54t-77.5 82.5t-29.5 122.5q0 86 33 164.5t98 143.5t174 103.5t248 38.5q81 0 147 -12t111 -33t77.5 -50.5t46 -65t16.5 -76t-11 -82.5zM1159 1706
l-241 -229h-138l-147 229h137l94 -143l156 143h139z" />
    <glyph glyph-name="scaron" unicode="&#x161;" horiz-adv-x="1017" 
d="M403 -23q-192 0 -284 58t-92 160q0 37 14 81l162 15q-10 -27 -10 -53q0 -61 58.5 -95t172.5 -34q132 0 212.5 57t80.5 141q0 43 -31 72.5t-80.5 45t-109.5 28.5t-119.5 29.5t-109 41.5t-80.5 71.5t-31 111.5q0 148 117.5 248t330.5 100q158 0 255 -50.5t97 -148.5
q0 -25 -10 -63l-149 -13q4 12 4 33q0 56 -55 87.5t-154 31.5q-126 0 -197 -54.5t-71 -136.5q0 -38 24.5 -65.5t64 -42t90.5 -28t103.5 -23.5t103.5 -28.5t90.5 -42t64 -66t24.5 -99.5q0 -157 -131.5 -263t-354.5 -106zM999 1456l-280 -270h-137l-168 270h137l115 -184
l194 184h139z" />
    <glyph glyph-name="uni0162" unicode="&#x162;" horiz-adv-x="985" 
d="M1153 1358l-43 -141h-379l-256 -1217h-172l258 1217h-383l29 141h946zM324 -367h-103l88 111h-57l37 172h172l-35 -166z" />
    <glyph glyph-name="uni0163" unicode="&#x163;" horiz-adv-x="681" 
d="M541 127v-123q-102 -27 -176 -27q-123 0 -181.5 44.5t-58.5 140.5q0 54 14 114l133 629h-178l29 127h178l61 293l164 21l-65 -314h284l-45 -127h-268l-129 -614q-12 -56 -12 -94q0 -95 115 -95q62 0 135 25zM240 -369h-107l88 109h-57l35 166h172l-35 -160z" />
    <glyph glyph-name="Tcaron" unicode="&#x164;" horiz-adv-x="985" 
d="M1153 1358l-43 -141h-379l-256 -1217h-172l258 1217h-383l29 141h946zM1008 1696l-242 -230h-137l-148 230h137l95 -144l155 144h140z" />
    <glyph glyph-name="tcaron" unicode="&#x165;" horiz-adv-x="681" 
d="M541 127v-123q-102 -27 -176 -27q-123 0 -181.5 44.5t-58.5 140.5q0 54 14 114l133 629h-178l29 127h178l61 293l164 21l-65 -314h284l-45 -127h-268l-129 -614q-12 -56 -12 -94q0 -95 115 -95q62 0 135 25zM885 1438l-156 -281h-115l117 281h154z" />
    <glyph glyph-name="Tbar" unicode="&#x166;" horiz-adv-x="985" 
d="M475 0h-172l131 621h-309l29 139h311l96 457h-383l29 141h946l-43 -141h-379l-96 -457h311l-28 -139h-312z" />
    <glyph glyph-name="tbar" unicode="&#x167;" horiz-adv-x="681" 
d="M541 125v-123q-95 -25 -176 -25q-123 0 -181.5 44.5t-58.5 140.5q0 54 14 114l43 199h-153l24 121h154l65 309h-178l29 127h178l61 293l164 21l-65 -314h284l-45 -127h-268l-65 -309h223l-25 -121h-223l-39 -184q-12 -56 -12 -94q0 -95 115 -95q68 0 135 23z" />
    <glyph glyph-name="Utilde" unicode="&#x168;" horiz-adv-x="1296" 
d="M1321 1358l-180 -852q-56 -265 -192 -397t-378 -132q-432 0 -432 326q0 81 29 223l176 832h172l-172 -809q-33 -152 -33 -223q0 -106 68 -156.5t221 -50.5q161 0 250 89.5t131 289.5l182 860h158zM1133 1651l84 -62q-36 -56 -96.5 -89.5t-131.5 -33.5q-56 0 -105 17.5
t-88.5 35t-72.5 17.5q-96 0 -145 -82l-84 62q36 63 96.5 99t134.5 36q70 0 146 -35t130 -35q38 0 74 19t58 51z" />
    <glyph glyph-name="utilde" unicode="&#x169;" horiz-adv-x="1099" 
d="M258 1032h160l-139 -653q-15 -73 -15 -133q0 -142 139 -142q128 0 338 156l164 772h160l-135 -637q-34 -156 -56 -395h-143l6 129q-112 -76 -201 -114t-174 -38q-123 0 -192.5 60.5t-69.5 187.5q0 65 19 154zM1012 1389l80 -62q-40 -75 -100 -116.5t-132 -41.5
q-45 0 -89.5 16t-73.5 35.5t-65.5 35.5t-68.5 16q-73 0 -133 -105l-82 62q40 75 100 116t132 41q57 0 111 -25.5t100.5 -51t85.5 -25.5q71 0 135 105z" />
    <glyph glyph-name="Umacron" unicode="&#x16a;" horiz-adv-x="1296" 
d="M1321 1358l-180 -852q-56 -265 -192 -397t-378 -132q-432 0 -432 326q0 81 29 223l176 832h172l-172 -809q-33 -152 -33 -223q0 -106 68 -156.5t221 -50.5q161 0 250 89.5t131 289.5l182 860h158zM1128 1489h-559l27 123h559z" />
    <glyph glyph-name="umacron" unicode="&#x16b;" horiz-adv-x="1099" 
d="M258 1032h160l-139 -653q-15 -73 -15 -133q0 -142 139 -142q128 0 338 156l164 772h160l-135 -637q-34 -156 -56 -395h-143l6 129q-112 -76 -201 -114t-174 -38q-123 0 -192.5 60.5t-69.5 187.5q0 65 19 154zM965 1214h-519l25 123h518z" />
    <glyph glyph-name="Ubreve" unicode="&#x16c;" horiz-adv-x="1296" 
d="M1321 1358l-180 -852q-56 -265 -192 -397t-378 -132q-432 0 -432 326q0 81 29 223l176 832h172l-172 -809q-33 -152 -33 -223q0 -106 68 -156.5t221 -50.5q161 0 250 89.5t131 289.5l182 860h158zM1061 1706h117q-28 -123 -118.5 -186.5t-213.5 -63.5q-132 0 -198 60.5
t-56 189.5h123q-9 -70 31.5 -103.5t113.5 -33.5q154 0 201 137z" />
    <glyph glyph-name="ubreve" unicode="&#x16d;" horiz-adv-x="1099" 
d="M258 1032h160l-139 -653q-15 -73 -15 -133q0 -142 139 -142q128 0 338 156l164 772h160l-135 -637q-34 -156 -56 -395h-143l6 129q-112 -76 -201 -114t-174 -38q-123 0 -192.5 60.5t-69.5 187.5q0 65 19 154zM926 1427h114q-32 -127 -118 -188t-209 -61q-133 0 -200 60
t-58 189h123q-10 -67 30 -102t111 -35q76 0 131.5 35t75.5 102z" />
    <glyph glyph-name="Uring" unicode="&#x16e;" horiz-adv-x="1296" 
d="M1321 1358l-180 -852q-56 -265 -192 -397t-378 -132q-432 0 -432 326q0 81 29 223l176 832h172l-172 -809q-33 -152 -33 -223q0 -106 68 -156.5t221 -50.5q161 0 250 89.5t131 289.5l182 860h158zM1083 1677q0 -95 -60 -163t-177 -68q-73 0 -110.5 33.5t-37.5 95.5
q0 94 60.5 162.5t177.5 68.5q73 0 110 -33.5t37 -95.5zM868 1526q59 0 89 41.5t30 91.5q0 67 -74 67q-59 0 -88.5 -41t-29.5 -92q0 -67 73 -67z" />
    <glyph glyph-name="uring" unicode="&#x16f;" horiz-adv-x="1099" 
d="M258 1032h160l-139 -653q-15 -73 -15 -133q0 -142 139 -142q128 0 338 156l164 772h160l-135 -637q-34 -156 -56 -395h-143l6 129q-112 -76 -201 -114t-174 -38q-123 0 -192.5 60.5t-69.5 187.5q0 65 19 154zM928 1401q0 -62 -23.5 -114t-79 -88t-135.5 -36
q-72 0 -109.5 34.5t-37.5 96.5q0 98 60 168t177 70q73 0 110.5 -34.5t37.5 -96.5zM713 1243q59 0 88.5 42.5t29.5 96.5q0 70 -73 70q-59 0 -89 -43t-30 -96q0 -70 74 -70z" />
    <glyph glyph-name="Uhungarumlaut" unicode="&#x170;" horiz-adv-x="1296" 
d="M1321 1358l-180 -852q-56 -265 -192 -397t-378 -132q-432 0 -432 326q0 81 29 223l176 832h172l-172 -809q-33 -152 -33 -223q0 -106 68 -156.5t221 -50.5q161 0 250 89.5t131 289.5l182 860h158zM1303 1692l-232 -226h-131l178 226h185zM948 1692l-213 -226h-129
l158 226h184z" />
    <glyph glyph-name="uhungarumlaut" unicode="&#x171;" horiz-adv-x="1099" 
d="M258 1032h160l-139 -653q-15 -73 -15 -133q0 -142 139 -142q128 0 338 156l164 772h160l-135 -637q-34 -156 -56 -395h-143l6 129q-112 -76 -201 -114t-174 -38q-123 0 -192.5 60.5t-69.5 187.5q0 65 19 154zM1196 1460l-289 -278h-129l230 278h188zM829 1460l-260 -278
h-125l201 278h184z" />
    <glyph glyph-name="Uogonek" unicode="&#x172;" horiz-adv-x="1296" 
d="M690 -221l19 -107q-81 -41 -170 -41q-160 0 -160 123q0 133 174 226q-414 6 -414 323q0 81 29 223l176 832h172l-172 -809q-33 -152 -33 -223q0 -106 68 -156.5t221 -50.5q161 0 250 89.5t131 289.5l182 860h158l-180 -850q-57 -263 -187 -393q-44 -44 -111.5 -78.5
l-135 -69t-111.5 -78.5q-55 -55 -55 -102q0 -35 43 -35q48 0 106 27z" />
    <glyph glyph-name="uogonek" unicode="&#x173;" horiz-adv-x="1099" 
d="M817 -221l19 -107q-81 -41 -170 -41q-160 0 -160 123q0 149 225 256l6 119q-112 -76 -201 -114t-174 -38q-123 0 -192.5 60.5t-69.5 187.5q0 65 19 154l139 653h160l-139 -653q-15 -73 -15 -133q0 -142 139 -142q128 0 338 156l164 772h160l-135 -637q-34 -156 -56 -395
q-206 -120 -206 -213q0 -35 43 -35q47 0 106 27z" />
    <glyph glyph-name="Wcircumflex" unicode="&#x174;" horiz-adv-x="1806" 
d="M1300 0h-215l-43 895q-4 123 7 264h-5q-62 -169 -102 -254l-426 -905h-215q-69 692 -72 1358h172q-1 -149 3.5 -345t11.5 -389.5t8 -238.5q6 -204 6 -244h4q59 146 105 244l458 973h181l47 -981q6 -177 6 -236h4q105 243 106 244q301 647 437 973h168
q-296 -688 -646 -1358zM1376 1466h-139l-94 144l-156 -144h-137l242 230h137z" />
    <glyph glyph-name="wcircumflex" unicode="&#x175;" horiz-adv-x="1409" 
d="M989 0h-192l-19 614q-3 81 8 250h-4q-44 -138 -84 -227l-290 -637h-193q-60 494 -57 1032h161q0 -110 2.5 -223t8 -267t6.5 -200q3 -93 0 -199h4q44 129 88 226l303 663h182l19 -616q6 -133 2 -273h4q48 138 96 240q1 2 64 136.5t122 267t105 245.5h160
q-211 -501 -496 -1032zM1145 1182h-139l-113 184l-197 -184h-137l281 270h137z" />
    <glyph glyph-name="Ycircumflex" unicode="&#x176;" horiz-adv-x="1044" 
d="M1227 1358q-306 -429 -602 -774l-123 -584h-168l123 580q-164 388 -273 778h183q89 -335 208 -623h5q216 254 462 623h185zM995 1466h-139l-94 144l-156 -144h-137l242 230h137z" />
    <glyph glyph-name="ycircumflex" unicode="&#x177;" horiz-adv-x="858" 
d="M965 1032q-246 -487 -537 -985q-99 -171 -183.5 -261t-199.5 -157l-63 115q251 147 251 358q0 80 -43.5 374.5t-62.5 555.5h160q22 -269 63 -594q18 -162 21 -260h2q73 166 114 244q218 407 320 610h158zM868 1182h-139l-113 184l-196 -184h-137l280 270h137z" />
    <glyph glyph-name="Ydieresis" unicode="&#x178;" horiz-adv-x="1044" 
d="M1227 1358q-306 -429 -602 -774l-123 -584h-168l123 580q-164 388 -273 778h183q89 -335 208 -623h5q216 254 462 623h185zM975 1466h-176l39 181h176zM657 1466h-176l39 181h176z" />
    <glyph glyph-name="Zacute" unicode="&#x179;" horiz-adv-x="1048" 
d="M918 141l-41 -141h-930l26 129l940 1088h-684l41 141h885l-27 -129l-942 -1088h732zM981 1692l-217 -226h-125l158 226h184z" />
    <glyph glyph-name="zacute" unicode="&#x17a;" horiz-adv-x="856" 
d="M727 125l-35 -125h-739l24 117l685 788h-490l39 127h674l-25 -117l-688 -790h555zM893 1460l-285 -278h-129l230 278h184z" />
    <glyph glyph-name="Zdotaccent" unicode="&#x17b;" horiz-adv-x="1048" 
d="M918 141l-41 -141h-930l26 129l940 1088h-684l41 141h885l-27 -129l-942 -1088h732zM834 1466h-177l39 181h176z" />
    <glyph glyph-name="zdotaccent" unicode="&#x17c;" horiz-adv-x="856" 
d="M727 125l-35 -125h-739l24 117l685 788h-490l39 127h674l-25 -117l-688 -790h555zM686 1194h-176l37 180h176z" />
    <glyph glyph-name="Zcaron" unicode="&#x17d;" horiz-adv-x="1048" 
d="M918 141l-41 -141h-930l26 129l940 1088h-684l41 141h885l-27 -129l-942 -1088h732zM1047 1696l-242 -230h-137l-148 230h137l95 -144l155 144h140z" />
    <glyph glyph-name="zcaron" unicode="&#x17e;" horiz-adv-x="856" 
d="M727 125l-35 -125h-739l24 117l685 788h-490l39 127h674l-25 -117l-688 -790h555zM940 1448l-281 -270h-137l-168 270h138l114 -184l195 184h139z" />
    <glyph glyph-name="florin" unicode="&#x192;" horiz-adv-x="907" 
d="M-88 -246q44 0 76.5 12t55.5 37.5t38 57.5t29 80l241 800h-176l27 127h188l86 281q22 71 50 121t72 90.5t109 60t154 19.5q71 0 144 -15l-45 -122q-50 12 -130 12q-85 0 -127.5 -43.5t-72.5 -141.5l-80 -262h233l-41 -127h-231l-244 -813q-22 -74 -50 -125.5t-72.5 -92.5
t-110 -61t-154.5 -20q-68 0 -145 15l49 123q59 -13 127 -13z" />
    <glyph glyph-name="Ohorn" unicode="&#x1a0;" horiz-adv-x="1409" 
d="M1444 1522h162q5 -63 -5.5 -125.5t-38.5 -129t-87.5 -126t-143.5 -99.5q12 -58 12 -122q0 -75 -13 -159t-42 -176t-71 -178t-105 -164t-139 -136t-178 -92.5t-217 -34.5q-229 0 -348 123t-119 335q0 75 13 159t42 176t71.5 178t105.5 164t139 136t178 92.5t217 34.5
q152 0 256.5 -56.5t156.5 -160.5q94 42 131 148t23 213zM590 117q87 0 164.5 30.5t134.5 81.5t104.5 118.5t78.5 140.5t52.5 149.5t31 143.5t9.5 124q0 336 -303 336q-120 0 -220 -58t-163.5 -146t-108 -197t-63 -207t-18.5 -180q0 -336 301 -336z" />
    <glyph glyph-name="ohorn" unicode="&#x1a1;" horiz-adv-x="1226" 
d="M1192 1202h162q8 -64 -5 -132t-45 -134t-91.5 -123t-139.5 -92v-23q0 -47 -10 -112t-31.5 -145.5t-65.5 -163t-102 -140.5q-160 -160 -403 -160q-189 0 -286 96t-97 261q0 47 10 112t31.5 145.5t65.5 163t102 140.5q160 160 403 160q142 0 232.5 -54t126.5 -153
q73 34 116.5 133.5t26.5 220.5zM899 682q0 124 -60 185t-169 61q-69 0 -135.5 -26.5t-116.5 -76.5q-83 -83 -124.5 -223t-41.5 -252q0 -124 60 -185t169 -61q69 0 135.5 26.5t116.5 76.5q83 83 124.5 223t41.5 252z" />
    <glyph glyph-name="Uhorn" unicode="&#x1af;" horiz-adv-x="1413" 
d="M1479 1522h161q5 -57 -2.5 -114t-33 -120.5t-69 -117t-118 -100t-172.5 -71.5l-104 -493q-56 -265 -192 -397t-378 -132q-432 0 -432 326q0 81 29 223l176 832h172l-172 -809q-33 -152 -33 -223q0 -106 68 -156.5t221 -50.5q161 0 250 89.5t131 289.5l182 860h158
l-43 -211q51 10 90.5 39.5t61.5 69t36.5 86.5t15.5 92.5t-3 87.5z" />
    <glyph glyph-name="uhorn" unicode="&#x1b0;" horiz-adv-x="1257" 
d="M1225 1202h161q5 -57 -2.5 -113.5t-33.5 -120.5t-69 -117t-118.5 -99.5t-173.5 -71.5l-59 -285q-34 -156 -56 -395h-143l6 129q-112 -76 -201 -114t-174 -38q-123 0 -192.5 60.5t-69.5 187.5q0 65 19 154l139 653h160l-139 -653q-15 -73 -15 -133q0 -142 139 -142
q128 0 338 156l164 772h160l-43 -205q51 10 91 39.5t62.5 69t37 86.5t15.5 92.5t-3 87.5z" />
    <glyph glyph-name="Scommaaccent" unicode="&#x218;" horiz-adv-x="1249" 
d="M1194 1061l-174 -19q26 94 -27.5 146.5t-208.5 52.5q-159 0 -255.5 -73t-96.5 -187q0 -52 29.5 -90.5t78 -59.5t110.5 -40.5t126 -33t126 -38t110.5 -54.5t78 -83t29.5 -123q0 -73 -24 -142.5t-74 -131t-121 -108t-172.5 -73.5t-220.5 -27q-250 0 -356 102t-72 275
l178 21q-22 -131 40 -194.5t249 -63.5q175 0 282 86.5t107 212.5q0 51 -29.5 88.5t-77.5 58t-109 39.5t-125 32t-125 37t-109 54t-77.5 82.5t-29.5 122.5q0 86 33 164.5t98 143.5t174 103.5t248 38.5q81 0 147 -12t111 -33t77.5 -50.5t46 -65t16.5 -76t-11 -82.5zM459 -369
h-107l88 109h-57l35 166h172l-35 -160z" />
    <glyph glyph-name="scommaaccent" unicode="&#x219;" horiz-adv-x="1017" 
d="M403 -23q-192 0 -284 58t-92 160q0 37 14 81l162 15q-10 -27 -10 -53q0 -61 58.5 -95t172.5 -34q132 0 212.5 57t80.5 141q0 43 -31 72.5t-80.5 45t-109.5 28.5t-119.5 29.5t-109 41.5t-80.5 71.5t-31 111.5q0 148 117.5 248t330.5 100q158 0 255 -50.5t97 -148.5
q0 -25 -10 -63l-149 -13q4 12 4 33q0 56 -55 87.5t-154 31.5q-126 0 -197 -54.5t-71 -136.5q0 -38 24.5 -65.5t64 -42t90.5 -28t103.5 -23.5t103.5 -28.5t90.5 -42t64 -66t24.5 -99.5q0 -157 -131.5 -263t-354.5 -106zM362 -369h-106l88 109h-57l35 166h172l-35 -160z" />
    <glyph glyph-name="Tcommaaccent" unicode="&#x21a;" horiz-adv-x="985" 
d="M1153 1358l-43 -141h-379l-256 -1217h-172l258 1217h-383l29 141h946zM324 -367h-103l88 111h-57l37 172h172l-35 -166z" />
    <glyph glyph-name="tcommaaccent" unicode="&#x21b;" horiz-adv-x="681" 
d="M541 127v-123q-102 -27 -176 -27q-123 0 -181.5 44.5t-58.5 140.5q0 54 14 114l133 629h-178l29 127h178l61 293l164 21l-65 -314h284l-45 -127h-268l-129 -614q-12 -56 -12 -94q0 -95 115 -95q62 0 135 25zM240 -369h-107l88 109h-57l35 166h172l-35 -160z" />
    <glyph glyph-name="dotlessj" unicode="&#x237;" horiz-adv-x="446" 
d="M-139 -371l-37 121q68 30 107 60.5t69 86.5t49 146l211 989h160l-205 -964q-39 -180 -121 -278.5t-233 -160.5z" />
    <glyph glyph-name="circumflex" unicode="&#x2c6;" horiz-adv-x="831" 
d="M850 1182h-139l-113 184l-197 -184h-137l281 270h137z" />
    <glyph glyph-name="caron" unicode="&#x2c7;" horiz-adv-x="831" 
d="M907 1448l-280 -270h-138l-167 270h137l114 -184l195 184h139z" />
    <glyph glyph-name="breve" unicode="&#x2d8;" horiz-adv-x="831" 
d="M793 1427h114q-32 -127 -118 -188t-209 -61q-133 0 -200 60t-58 189h122q-10 -67 30 -102t112 -35q76 0 131.5 35t75.5 102z" />
    <glyph glyph-name="dotaccent" unicode="&#x2d9;" horiz-adv-x="421" 
d="M455 1194h-176l36 180h177z" />
    <glyph glyph-name="ring" unicode="&#x2da;" horiz-adv-x="618" 
d="M684 1401q0 -62 -23.5 -114t-79 -88t-135.5 -36q-72 0 -109.5 34.5t-37.5 96.5t23.5 114t79 88t135.5 36q72 0 109.5 -34t37.5 -97zM469 1243q59 0 89 43t30 96q0 70 -74 70q-59 0 -89 -43t-30 -96q0 -70 74 -70z" />
    <glyph glyph-name="ogonek" unicode="&#x2db;" horiz-adv-x="591" 
d="M283 -221l18 -107q-81 -41 -170 -41q-160 0 -160 123q0 155 219 246h152q-209 -120 -209 -213q0 -35 43 -35q48 0 107 27z" />
    <glyph glyph-name="tilde" unicode="&#x2dc;" horiz-adv-x="980" 
d="M952 1389l80 -62q-40 -76 -100 -117t-131 -41q-45 0 -89.5 16t-73.5 35.5t-65.5 35.5t-68.5 16q-73 0 -133 -105l-82 62q40 75 99.5 116t131.5 41q57 0 111 -25.5t100.5 -51t85.5 -25.5q71 0 135 105z" />
    <glyph glyph-name="hungarumlaut" unicode="&#x2dd;" horiz-adv-x="962" 
d="M1026 1460l-289 -278h-129l230 278h188zM659 1460l-260 -278h-125l201 278h184z" />
    <glyph glyph-name="gravecomb" unicode="&#x300;" horiz-adv-x="0" 
d="M-219 1182h-125l-207 278h184z" />
    <glyph glyph-name="tildecomb" unicode="&#x303;" horiz-adv-x="0" 
d="M-86 1389l80 -62q-40 -75 -100 -116.5t-132 -41.5q-45 0 -89.5 16t-73.5 35.5t-65.5 35.5t-68.5 16q-73 0 -133 -105l-82 62q40 75 100 116t132 41q57 0 111 -25.5t100.5 -51t85.5 -25.5q71 0 135 105z" />
    <glyph glyph-name="uni0309" unicode="&#x309;" horiz-adv-x="0" 
d="M-418 1143l-6 88q61 18 102 53t41 76q0 25 -24 40t-70 15q-82 0 -164 -33l-10 93q117 43 217 43q89 0 139 -33.5t50 -89.5q0 -85 -74.5 -151t-200.5 -101z" />
    <glyph glyph-name="uni0312" unicode="&#x312;" horiz-adv-x="423" 
d="M303 1360l100 117h103l-86 -111h57l-37 -172h-172z" />
    <glyph glyph-name="dotbelowcomb" unicode="&#x323;" horiz-adv-x="0" 
d="M-764 -162h160l-39 -180h-160z" />
    <glyph glyph-name="uni0326" unicode="&#x326;" horiz-adv-x="423" 
d="M43 -367h-102l88 111h-58l37 172h172l-35 -166z" />
    <glyph glyph-name="tonos" unicode="&#x384;" horiz-adv-x="593" 
d="M395 1182h-125l191 278h194z" />
    <glyph glyph-name="dieresistonos" unicode="&#x385;" horiz-adv-x="739" 
d="M614 1182h-122l126 278h177zM438 1219h-164l35 167h164zM938 1219h-164l35 167h164z" />
    <glyph glyph-name="Alphatonos" unicode="&#x386;" horiz-adv-x="1175" 
d="M1053 0h-176q-12 174 -31 371h-567q-113 -220 -185 -371h-180q288 586 752 1358h211q116 -583 176 -1358zM350 508h481q-18 208 -51 463q-15 118 -37 246h-4q-45 -78 -131 -230q-117 -209 -258 -479zM358 1106h-122l141 332h182z" />
    <glyph glyph-name="Epsilontonos" unicode="&#x388;" horiz-adv-x="1185" 
d="M1022 0h-838l287 1358h819l-47 -139h-629l-94 -441h522l-28 -137h-522l-107 -500h666zM211 1106h-123l141 332h183z" />
    <glyph glyph-name="Etatonos" unicode="&#x389;" horiz-adv-x="1476" 
d="M1210 0h-172l136 639h-668l-135 -639h-172l286 1358h172l-120 -574h667l121 574h172zM225 1106h-123l142 332h182z" />
    <glyph glyph-name="Iotatonos" unicode="&#x38a;" horiz-adv-x="636" 
d="M371 0h-172l286 1358h172zM225 1106h-123l142 332h182z" />
    <glyph glyph-name="Omicrontonos" unicode="&#x38c;" horiz-adv-x="1419" 
d="M625 -20q-229 0 -348 123t-119 335q0 75 13 159t42 176t71.5 178t105.5 164t139 136t178 92.5t217 34.5q229 0 348 -123t119 -335q0 -75 -13 -159t-42 -176t-71.5 -178t-105.5 -164t-139 -136t-178 -92.5t-217 -34.5zM637 117q87 0 164.5 30.5t134.5 81.5t104.5 118.5
t78.5 140.5t52.5 149.5t31 143.5t9.5 124q0 336 -303 336q-120 0 -220 -58t-163.5 -146t-108 -197t-63 -207t-18.5 -180q0 -336 301 -336zM215 1106h-123l141 332h183z" />
    <glyph glyph-name="Upsilontonos" unicode="&#x38e;" horiz-adv-x="1296" 
d="M1479 1358q-306 -429 -602 -774l-123 -584h-168l123 580q-164 388 -273 778h182q87 -328 209 -623h4q221 259 463 623h185zM205 1106h-123l141 332h183z" />
    <glyph glyph-name="Omegatonos" unicode="&#x38f;" horiz-adv-x="1447" 
d="M33 0l28 141h316l2 11q-84 94 -130 214.5t-46 241.5q0 105 28 211.5t87.5 207.5t143 179.5t204 126t260.5 47.5q238 0 361.5 -115.5t123.5 -310.5q0 -455 -440 -802l-2 -11h313l-29 -141h-473l31 152q99 88 173 173.5t132 182.5t87.5 205t29.5 225q0 148 -84.5 228.5
t-245.5 80.5q-100 0 -186.5 -38.5t-147 -102t-104 -145t-64 -168t-20.5 -170.5q0 -128 36 -240.5t120 -230.5l-31 -152h-473zM215 1106h-123l141 332h183z" />
    <glyph glyph-name="iotadieresistonos" unicode="&#x390;" horiz-adv-x="550" 
d="M461 115l-27 -127q-74 -11 -115 -11q-121 0 -178 44t-57 143q0 50 12 108l162 760h160l-158 -745q-10 -48 -10 -86q0 -49 25 -73t90 -24q39 0 96 11zM428 1182h-123l127 278h176zM252 1219h-164l35 167h164zM752 1219h-164l35 167h163z" />
    <glyph glyph-name="Alpha" unicode="&#x391;" horiz-adv-x="1175" 
d="M1053 0h-176q-12 174 -31 371h-567q-113 -220 -185 -371h-180q288 586 752 1358h211q116 -583 176 -1358zM350 508h481q-18 208 -51 463q-15 118 -37 246h-4q-45 -78 -131 -230q-117 -209 -258 -479z" />
    <glyph glyph-name="Beta" unicode="&#x392;" horiz-adv-x="1177" 
d="M487 0h-430l287 1358h410q203 0 297 -63t94 -193q0 -142 -77 -245.5t-216 -139.5v-2q105 -6 169 -69t64 -163q0 -74 -22 -142.5t-69.5 -131t-116 -108.5t-169 -73.5t-221.5 -27.5zM393 778h195q188 0 285.5 76t97.5 221q0 75 -59.5 109.5t-206.5 34.5h-218zM258 139h258
q194 0 293.5 91.5t99.5 232.5q0 90 -71 134t-226 44h-247z" />
    <glyph glyph-name="Gamma" unicode="&#x393;" horiz-adv-x="872" 
d="M233 0h-172l287 1358h729l-47 -141h-538z" />
    <glyph glyph-name="Delta" unicode="&#x394;" horiz-adv-x="1181" 
d="M-66 0l25 119q305 565 725 1239h182q134 -610 201 -1239l-25 -119h-1108zM537 840q-176 -306 -381 -699h731q-47 456 -88 701q-39 238 -56 358h-4q-97 -177 -202 -360z" />
    <glyph glyph-name="Delta" unicode="&#x2206;" horiz-adv-x="1181" 
d="M-66 0l25 119q305 565 725 1239h182q134 -610 201 -1239l-25 -119h-1108zM537 840q-176 -306 -381 -699h731q-47 456 -88 701q-39 238 -56 358h-4q-97 -177 -202 -360z" />
    <glyph glyph-name="Epsilon" unicode="&#x395;" horiz-adv-x="1062" 
d="M899 0h-838l287 1358h819l-47 -139h-628l-95 -441h523l-29 -137h-522l-107 -500h666z" />
    <glyph glyph-name="Zeta" unicode="&#x396;" horiz-adv-x="1048" 
d="M918 141l-41 -141h-930l26 129l940 1088h-684l41 141h885l-27 -129l-942 -1088h732z" />
    <glyph glyph-name="Eta" unicode="&#x397;" horiz-adv-x="1339" 
d="M1073 0h-172l135 639h-667l-136 -639h-172l287 1358h172l-121 -574h668l121 574h172z" />
    <glyph glyph-name="Theta" unicode="&#x398;" horiz-adv-x="1390" 
d="M584 -20q-233 0 -354 123t-121 335q0 75 13 159t43 176t73 178t107 164t141.5 136t180.5 92.5t220 34.5q233 0 354 -124t121 -336q0 -75 -13 -159t-43 -175.5t-73 -177.5t-107 -164t-141.5 -136t-180.5 -92t-220 -34zM596 117q89 0 168 30.5t137.5 81t107 118t80.5 140.5
t54 149.5t31.5 143t9.5 123.5q0 158 -74 248t-236 90q-104 0 -193.5 -40.5t-151.5 -108t-110 -150t-76 -172.5t-42 -170t-14 -147q0 -336 309 -336zM987 612h-532l28 138h533z" />
    <glyph glyph-name="Iota" unicode="&#x399;" horiz-adv-x="499" 
d="M233 0h-172l287 1358h172z" />
    <glyph glyph-name="Kappa" unicode="&#x39a;" horiz-adv-x="1124" 
d="M1030 0h-221l-430 690l-146 -690h-172l287 1358h172l-129 -613l633 613h221l-684 -641z" />
    <glyph glyph-name="Lambda" unicode="&#x39b;" horiz-adv-x="1150" 
d="M666 1358h188q116 -645 178 -1358h-176q-17 240 -46 508.5t-50 417.5q-25 177 -35 274h-4q-3 -6 -158 -293q-232 -418 -469 -907h-180q319 647 752 1358z" />
    <glyph glyph-name="Mu" unicode="&#x39c;" horiz-adv-x="1695" 
d="M1460 0h-168q34 178 168 948q36 219 43 269h-4q-67 -126 -92 -170l-588 -1047h-145l-150 1047q-17 135 -20 170h-4q-6 -23 -33 -123t-39 -146q-127 -499 -231 -948h-166q143 623 370 1358h236l131 -920q16 -121 23 -239h4q61 142 118 243l514 916h236
q-81 -691 -203 -1358z" />
    <glyph glyph-name="Nu" unicode="&#x39d;" horiz-adv-x="1327" 
d="M1061 0h-166l-354 952q-35 90 -86 265h-2q-19 -115 -56 -306l-192 -911h-144l287 1358h213l316 -852q49 -133 96 -326h2q25 212 59 369l172 809h142z" />
    <glyph glyph-name="Xi" unicode="&#x39e;" horiz-adv-x="989" 
d="M182 633l31 145h686l-31 -145h-686zM-51 0l31 145h886l-30 -145h-887zM1092 1212h-887l31 146h886z" />
    <glyph glyph-name="Omicron" unicode="&#x39f;" horiz-adv-x="1372" 
d="M578 -20q-229 0 -348 123t-119 335q0 75 13 159t42 176t71.5 178t105.5 164t139 136t178 92.5t217 34.5q229 0 347.5 -123t118.5 -335q0 -75 -13 -159t-42 -176t-71 -178t-105 -164t-139 -136t-178 -92.5t-217 -34.5zM590 117q87 0 164.5 30.5t134.5 81.5t104.5 118.5
t78.5 140.5t52.5 149.5t31 143.5t9.5 124q0 336 -303 336q-120 0 -220 -58t-163.5 -146t-108 -197t-63 -207t-18.5 -180q0 -336 301 -336z" />
    <glyph glyph-name="Pi" unicode="&#x3a0;" horiz-adv-x="1298" 
d="M1032 0h-172l258 1219h-626l-259 -1219h-172l287 1358h971z" />
    <glyph glyph-name="Rho" unicode="&#x3a1;" horiz-adv-x="1112" 
d="M1149 1042q0 -108 -42.5 -202.5t-118 -163t-185 -108.5t-238.5 -40h-221l-111 -528h-172l287 1358h391q200 0 305 -83t105 -233zM975 1028q0 191 -254 191h-229l-117 -551h203q103 0 182 30.5t124.5 82.5t68 114.5t22.5 132.5z" />
    <glyph glyph-name="Sigma" unicode="&#x3a3;" horiz-adv-x="1011" 
d="M1108 1219h-686l330 -519l-559 -559h704l-29 -141h-909l27 129l573 567l-340 533l27 129h909z" />
    <glyph glyph-name="Tau" unicode="&#x3a4;" horiz-adv-x="985" 
d="M1153 1358l-43 -141h-379l-256 -1217h-172l258 1217h-383l29 141h946z" />
    <glyph glyph-name="Upsilon" unicode="&#x3a5;" horiz-adv-x="1044" 
d="M1227 1358q-306 -429 -602 -774l-123 -584h-168l123 580q-164 388 -273 778h183q89 -335 208 -623h5q216 254 462 623h185z" />
    <glyph glyph-name="Phi" unicode="&#x3a6;" horiz-adv-x="1564" 
d="M885 1364l26 127h168l-26 -127q102 -7 183 -35t135.5 -71t90.5 -101.5t52 -124t16 -141.5q0 -75 -11.5 -153.5t-39 -165t-68 -165.5t-102.5 -152t-139 -128t-182 -91t-226 -42l-27 -127h-168l27 127q-235 17 -357 143.5t-122 339.5q0 71 11 147t37.5 161t66.5 163.5
t102 152t139.5 128.5t183.5 91.5t230 43.5zM1024 1227l-233 -1096q88 4 164.5 33.5t132.5 76t102 108.5t76 128t50.5 136.5t29 132.5t8.5 118q0 169 -76 261t-254 102zM623 131l233 1096q-113 -5 -207.5 -52t-158.5 -121t-109 -170t-65.5 -198.5t-20.5 -208.5
q0 -157 75.5 -246.5t252.5 -99.5z" />
    <glyph glyph-name="Chi" unicode="&#x3a7;" horiz-adv-x="1069" 
d="M958 0l-180 -20l-225 602q-62 -76 -135 -169.5t-170.5 -220t-149.5 -192.5h-190q404 501 588 719l-252 639l184 20l190 -522q79 99 386 502h192q-344 -430 -516 -635z" />
    <glyph glyph-name="Psi" unicode="&#x3a8;" horiz-adv-x="1454" 
d="M1288 920l92 438h168l-98 -467q-55 -258 -218.5 -384t-445.5 -138l-77 -369h-168l77 369q-297 13 -396 140.5t-40 408.5l92 440h168l-96 -457q-19 -89 -20 -151t15 -108t56 -73.5t100 -42t150 -20.5l180 852h168l-180 -852q212 12 320 104.5t153 309.5z" />
    <glyph glyph-name="Omega" unicode="&#x3a9;" horiz-adv-x="1404" 
d="M-10 0l28 141h316l2 11q-84 94 -130 214.5t-46 241.5q0 105 28 211.5t87.5 207.5t143 179.5t204 126t260.5 47.5q238 0 361.5 -115.5t123.5 -310.5q0 -455 -440 -802l-2 -11h313l-29 -141h-473l31 152q99 88 173 173.5t132 182.5t87.5 205t29.5 225q0 148 -84.5 228.5
t-245.5 80.5q-100 0 -186.5 -38.5t-147 -102t-104 -145t-64 -168t-20.5 -170.5q0 -128 36 -240.5t120 -230.5l-31 -152h-473z" />
    <glyph glyph-name="Omega" unicode="&#x2126;" horiz-adv-x="1404" 
d="M-10 0l28 141h316l2 11q-84 94 -130 214.5t-46 241.5q0 105 28 211.5t87.5 207.5t143 179.5t204 126t260.5 47.5q238 0 361.5 -115.5t123.5 -310.5q0 -455 -440 -802l-2 -11h313l-29 -141h-473l31 152q99 88 173 173.5t132 182.5t87.5 205t29.5 225q0 148 -84.5 228.5
t-245.5 80.5q-100 0 -186.5 -38.5t-147 -102t-104 -145t-64 -168t-20.5 -170.5q0 -128 36 -240.5t120 -230.5l-31 -152h-473z" />
    <glyph glyph-name="Iotadieresis" unicode="&#x3aa;" horiz-adv-x="499" 
d="M233 0h-172l287 1358h172zM705 1466h-177l39 181h176zM387 1466h-176l39 181h176z" />
    <glyph glyph-name="Upsilondieresis" unicode="&#x3ab;" horiz-adv-x="1044" 
d="M1227 1358q-306 -429 -602 -774l-123 -584h-168l123 580q-164 388 -273 778h183q89 -335 208 -623h5q216 254 462 623h185zM975 1466h-176l39 181h176zM657 1466h-176l39 181h176z" />
    <glyph glyph-name="alphatonos" unicode="&#x3ac;" horiz-adv-x="1112" 
d="M821 584l64 295q-122 47 -234 47q-92 0 -166 -44t-118 -110t-73 -150.5t-39.5 -159t-10.5 -143.5q0 -116 40.5 -163t127.5 -47q59 0 120.5 31t117 89t101 150t70.5 205zM1069 993l-127 -598q-33 -148 -55 -395h-154l21 193q-69 -99 -169 -157.5t-208 -58.5
q-303 0 -303 328q0 66 8.5 134t29.5 142.5t52.5 141.5t80 128t109 105.5t144 70.5t180.5 26q157 0 391 -60zM770 1190h-125l191 278h194z" />
    <glyph glyph-name="epsilontonos" unicode="&#x3ad;" horiz-adv-x="976" 
d="M397 -23q-84 0 -149 14t-105 37t-66 56t-36 68t-10 75q0 109 79 201t197 117v2q-64 22 -99.5 68.5t-35.5 109.5q0 62 28.5 120t82.5 105.5t141.5 76t196.5 28.5q177 0 262 -73t71 -191l-157 -27q-2 76 -55.5 122t-151.5 46q-117 0 -183.5 -56.5t-66.5 -140.5
q0 -143 246 -143h135l-25 -119h-153q-180 0 -261 -63.5t-81 -161.5q0 -68 54 -106t163 -38q82 0 180 32.5t190 90.5l48 -114q-112 -69 -226.5 -102.5t-212.5 -33.5zM705 1190h-125l190 278h195z" />
    <glyph glyph-name="etatonos" unicode="&#x3ae;" horiz-adv-x="1081" 
d="M750 1055q258 0 258 -246q0 -92 -31 -238q-82 -381 -291 -919h-156q202 516 281 893q33 149 33 239q0 144 -131 144q-75 0 -154.5 -35.5t-193.5 -120.5l-164 -772h-160l135 637q33 148 55 395h144l-6 -129q116 79 201.5 115.5t179.5 36.5zM748 1182h-125l190 278h195z
" />
    <glyph glyph-name="iotatonos" unicode="&#x3af;" horiz-adv-x="550" 
d="M461 115l-27 -127q-74 -11 -115 -11q-121 0 -178 44t-57 143q0 50 12 108l162 760h160l-158 -745q-10 -48 -10 -86q0 -49 25 -73t90 -24q39 0 96 11zM422 1182h-125l190 278h195z" />
    <glyph glyph-name="upsilondieresistonos" unicode="&#x3b0;" horiz-adv-x="1097" 
d="M1073 1032l-125 -586q-53 -244 -178.5 -356.5t-327.5 -112.5q-166 0 -249.5 62.5t-83.5 222.5q0 76 22 180l127 590h160l-127 -598q-19 -102 -19 -147q0 -102 47 -142.5t146 -40.5q123 0 205 83.5t123 275.5l120 569h160zM711 1182h-123l127 278h176zM535 1219h-164
l35 167h163zM1034 1219h-164l35 167h164z" />
    <glyph glyph-name="alpha" unicode="&#x3b1;" horiz-adv-x="1112" 
d="M821 584l64 295q-122 47 -234 47q-92 0 -166 -44t-118 -110t-73 -150.5t-39.5 -159t-10.5 -143.5q0 -116 40.5 -163t127.5 -47q59 0 120.5 31t117 89t101 150t70.5 205zM1069 993l-127 -598q-33 -148 -55 -395h-154l21 193q-69 -99 -169 -157.5t-208 -58.5
q-303 0 -303 328q0 66 8.5 134t29.5 142.5t52.5 141.5t80 128t109 105.5t144 70.5t180.5 26q157 0 391 -60z" />
    <glyph glyph-name="beta" unicode="&#x3b2;" horiz-adv-x="1060" 
d="M975 569q0 -127 -42.5 -238t-114.5 -188t-169 -121.5t-203 -44.5q-173 0 -250 79.5t-77 250.5q0 101 19 232t55 272t98.5 272t138.5 207q150 150 352 150q142 0 220.5 -59.5t78.5 -161.5q0 -109 -76 -207.5t-208 -149.5q81 -39 129.5 -117t48.5 -176zM346 784
q-65 -308 -65 -460q1 -130 46.5 -175t141.5 -45q73 0 137 40.5t106.5 105t66.5 143.5t24 156q0 82 -46.5 155t-119.5 109q-135 -29 -291 -29zM911 1194q0 119 -155 119q-109 0 -208.5 -100t-166.5 -302q242 0 386 74.5t144 208.5z" />
    <glyph glyph-name="gamma" unicode="&#x3b3;" horiz-adv-x="911" 
d="M358 -348h-159l75 348q-102 540 -147 1032h162q15 -153 42.5 -396t30.5 -271q13 -100 17 -230h4q68 151 111 225q13 23 62.5 114t90 166.5t99.5 186.5t106 205h166q-265 -506 -584 -1032z" />
    <glyph glyph-name="delta" unicode="&#x3b4;" horiz-adv-x="1116" 
d="M379 1149q0 130 108.5 210.5t323.5 80.5q156 0 297 -41l-49 -131q-128 41 -281 41q-121 0 -176 -32.5t-55 -98.5q0 -29 21 -55t55 -45.5t77.5 -44t89 -48.5t89 -61.5t77.5 -81t55 -108.5t21 -142q0 -84 -21.5 -168t-68.5 -165t-114 -143.5t-167 -100.5t-219 -38
q-97 0 -170 27.5t-115 76.5t-62.5 111t-20.5 138q0 114 35 216t97 179t140 134t170 93q-78 41 -107.5 89t-29.5 108zM860 545q0 43 -3 72.5t-15.5 67.5t-35.5 68.5t-65 65t-102 66.5q-176 -71 -285.5 -209t-109.5 -332q0 -115 63 -177.5t166 -62.5q79 0 145 29.5t110 76.5
t74.5 106.5t44 117.5t13.5 111z" />
    <glyph glyph-name="epsilon" unicode="&#x3b5;" horiz-adv-x="976" 
d="M397 -23q-84 0 -149 14t-105 37t-66 56t-36 68t-10 75q0 109 79 201t197 117v2q-64 22 -99.5 68.5t-35.5 109.5q0 62 28.5 120t82.5 105.5t141.5 76t196.5 28.5q177 0 262 -73t71 -191l-157 -27q-2 76 -55.5 122t-151.5 46q-117 0 -183.5 -56.5t-66.5 -140.5
q0 -143 246 -143h135l-25 -119h-153q-180 0 -261 -63.5t-81 -161.5q0 -68 54 -106t163 -38q82 0 180 32.5t190 90.5l48 -114q-112 -69 -226.5 -102.5t-212.5 -33.5z" />
    <glyph glyph-name="zeta" unicode="&#x3b6;" horiz-adv-x="772" 
d="M549 0h-109q-200 0 -294.5 77.5t-94.5 211.5q0 102 32 201t109.5 221t223 269t358.5 318h-489l37 127h663l-24 -116q-182 -151 -314.5 -280t-212.5 -227t-127 -186.5t-63.5 -155t-16.5 -136.5q0 -90 63 -140.5t195 -50.5h58q98 0 130 -22.5t32 -67.5q0 -41 -34 -152.5
t-59 -169.5h-123z" />
    <glyph glyph-name="eta" unicode="&#x3b7;" horiz-adv-x="1079" 
d="M750 1055q258 0 258 -246q0 -92 -31 -238q-82 -381 -291 -919h-156q202 516 281 893q33 149 33 239q0 144 -131 144q-75 0 -154.5 -35.5t-193.5 -120.5l-164 -772h-160l135 637q33 148 55 395h144l-6 -129q116 79 201.5 115.5t179.5 36.5z" />
    <glyph glyph-name="theta" unicode="&#x3b8;" horiz-adv-x="1093" 
d="M170 829h166q-70 -272 -70 -454q0 -150 43 -210.5t125 -60.5q98 0 182 84q83 83 145.5 267.5t94.5 449.5h-231q-173 0 -251.5 51t-78.5 152q0 142 116 237t296 95q168 0 247.5 -96.5t79.5 -311.5h174l-28 -127h-156q-69 -570 -291 -792q-136 -136 -323 -136
q-166 0 -240 93t-74 284q0 189 74 475zM461 1141q0 -57 40 -83t148 -26h215q0 147 -44 214t-138 67q-98 0 -159.5 -50t-61.5 -122z" />
    <glyph glyph-name="iota" unicode="&#x3b9;" horiz-adv-x="548" 
d="M459 115l-27 -127q-74 -11 -115 -11q-121 0 -178 44t-57 143q0 50 12 108l162 760h160l-158 -745q-10 -48 -10 -86q0 -49 24.5 -73t89.5 -24q40 0 97 11z" />
    <glyph glyph-name="kappa" unicode="&#x3ba;" horiz-adv-x="983" 
d="M852 0h-203l-332 553l-116 -553h-160l219 1032h160l-96 -446l526 446h217l-580 -465z" />
    <glyph glyph-name="lambda" unicode="&#x3bb;" horiz-adv-x="888" 
d="M68 0h-162q228 449 575 1042l-67 398h157q147 -793 211 -1440h-159q-20 184 -47 405.5t-27 225.5q-22 178 -25 237h-4q-73 -159 -114 -237q-15 -27 -74 -136t-130.5 -242t-133.5 -253z" />
    <glyph glyph-name="nu" unicode="&#x3bd;" horiz-adv-x="915" 
d="M440 0h-172q-96 544 -141 1032h160q30 -341 71 -688q14 -114 21 -209h4q54 117 92 184q197 355 381 713h164q-249 -493 -580 -1032z" />
    <glyph glyph-name="xi" unicode="&#x3be;" horiz-adv-x="907" 
d="M784 854l-26 -123h-109q-91 0 -171 -33.5t-133 -88.5t-83.5 -125t-30.5 -142q0 -95 65.5 -152t203.5 -57h106q109 0 141.5 -29.5t14.5 -107.5q-10 -52 -37 -138t-49 -137h-123l59 279h-141q-410 0 -410 313q0 107 47 207.5t140 177t215 101.5q-100 22 -148.5 80.5
t-48.5 132.5q0 53 15.5 108t53 113.5t92.5 103.5t143.5 74t197.5 29q66 0 147 -12t132 -29l-58 -121q-123 35 -250 35q-137 0 -221 -82t-84 -203q0 -78 67 -126t193 -48h90z" />
    <glyph glyph-name="omicron" unicode="&#x3bf;" horiz-adv-x="1134" 
d="M1073 698q0 -47 -10 -112t-31.5 -145.5t-65.5 -163t-102 -140.5q-160 -160 -403 -160q-189 0 -286 96t-97 261q0 47 10 112t31.5 145.5t65.5 163t102 140.5q160 160 403 160q189 0 286 -96t97 -261zM899 682q0 124 -60 185t-169 61q-69 0 -135.5 -26.5t-116.5 -76.5
q-83 -83 -124.5 -223t-41.5 -252q0 -124 60 -185t169 -61q69 0 135.5 26.5t116.5 76.5q83 83 124.5 223t41.5 252z" />
    <glyph glyph-name="pi" unicode="&#x3c0;" horiz-adv-x="1296" 
d="M123 0l219 905h-242l29 127h1253l-39 -127h-270q-110 -518 -110 -659q0 -80 20.5 -111t79.5 -31q24 0 50 4t40 8l14 3l-26 -127q-62 -15 -123 -15q-123 0 -170 55t-47 177q0 164 112 696h-411l-219 -905h-160z" />
    <glyph glyph-name="rho" unicode="&#x3c1;" horiz-adv-x="1120" 
d="M123 -348h-160l184 868q57 265 201 400t363 135q352 0 352 -320q0 -152 -42 -286.5t-122 -240t-206.5 -167t-284.5 -61.5q-87 0 -209 28zM309 528l-80 -374q44 -21 104.5 -34.5t104.5 -13.5q91 0 167.5 35t128 93.5t87 136.5t52 162.5t16.5 173.5q0 108 -53.5 164.5
t-155.5 56.5q-142 0 -235 -97t-136 -303z" />
    <glyph glyph-name="sigma1" unicode="&#x3c2;" horiz-adv-x="983" 
d="M537 133h116q109 0 141.5 -29.5t14.5 -107.5q-10 -52 -37 -138t-49 -137h-123l59 279h-147q-231 0 -331.5 83.5t-100.5 264.5q0 93 21 189t67.5 189.5t112.5 166t165 117.5t216 45q138 0 220.5 -69.5t82.5 -205.5q0 -74 -25 -157h-160q27 79 27 147q0 76 -42.5 118
t-129.5 42q-75 0 -139.5 -37.5t-108 -97t-75 -134t-46 -149t-14.5 -141.5q0 -131 64 -184.5t221 -53.5z" />
    <glyph glyph-name="sigma" unicode="&#x3c3;" horiz-adv-x="1191" 
d="M455 -23q-189 0 -283 95.5t-94 261.5q0 103 21 201t68.5 189t116.5 159t171.5 108.5t226.5 40.5h602l-33 -147l-188 12q-83 5 -125 8q107 -93 104 -264q-2 -149 -51.5 -282t-138.5 -222q-160 -160 -397 -160zM475 104q143 0 246 103q69 69 113.5 190t44.5 242
q0 137 -53 201.5t-171 64.5q-88 0 -159.5 -36.5t-115.5 -93.5t-74 -132t-42 -148t-12 -145q0 -246 223 -246z" />
    <glyph glyph-name="tau" unicode="&#x3c4;" horiz-adv-x="829" 
d="M645 119l-27 -127q-62 -15 -137 -15q-115 0 -167 55t-52 173q0 154 135 700h-297l29 127h786l-38 -127h-320q-131 -527 -131 -676q0 -125 102 -125q59 0 117 15z" />
    <glyph glyph-name="upsilon" unicode="&#x3c5;" horiz-adv-x="1097" 
d="M1073 1032l-125 -586q-53 -244 -178.5 -356.5t-327.5 -112.5q-166 0 -249.5 62.5t-83.5 222.5q0 76 22 180l127 590h160l-127 -598q-19 -102 -19 -147q0 -102 47 -142.5t146 -40.5q123 0 205 83.5t123 275.5l120 569h160z" />
    <glyph glyph-name="phi" unicode="&#x3c6;" horiz-adv-x="1425" 
d="M1188 733q0 96 -40.5 145.5t-109.5 49.5q-55 0 -95.5 -34t-80 -128.5t-74.5 -259.5l-86 -408q220 11 353 180t133 455zM88 344q0 169 74 347t223 341h170q-145 -157 -222 -331t-77 -326q0 -127 76.5 -198t214.5 -79l88 416q44 210 106 329.5t140 165.5t194 46
q132 0 207.5 -80t75.5 -221q0 -356 -187 -562.5t-495 -214.5l-70 -325h-155l69 325q-432 15 -432 367z" />
    <glyph glyph-name="chi" unicode="&#x3c7;" horiz-adv-x="899" 
d="M784 0l-172 -20l-178 446q-61 -73 -174.5 -215.5t-169.5 -210.5h-180l465 545l-205 487l168 21l154 -381q57 69 156.5 195t131.5 165h181l-412 -479z" />
    <glyph glyph-name="psi" unicode="&#x3c8;" horiz-adv-x="1394" 
d="M442 -348l70 325q-113 7 -189 26.5t-128.5 57t-74.5 97.5t-21 143.5t26 200.5l113 530h159l-114 -536q-19 -90 -22 -151.5t9.5 -106.5t48 -72t87.5 -41.5t133 -20.5l256 1199h153l-256 -1199q98 9 166 33t120.5 73t86 124.5t57.5 189.5l109 508h160l-113 -526
q-57 -265 -201 -388.5t-411 -140.5l-70 -325h-154z" />
    <glyph glyph-name="omega" unicode="&#x3c9;" horiz-adv-x="1454" 
d="M1202 578q0 131 -21.5 233t-78.5 221h155q54 -97 83.5 -208.5t29.5 -207.5q0 -129 -30.5 -242t-89.5 -203t-155 -142t-218 -52q-171 0 -222 148q-59 -79 -131.5 -113.5t-173.5 -34.5q-148 0 -217.5 80t-69.5 219q0 171 93.5 378.5t267.5 377.5h170q-165 -170 -264 -371
t-99 -360q0 -97 41.5 -147t106.5 -50q94 0 156.5 62t93.5 207l69 321h154l-70 -321q-32 -148 0.5 -208.5t124.5 -60.5q86 0 154.5 67.5t104.5 175t36 231.5z" />
    <glyph glyph-name="iotadieresis" unicode="&#x3ca;" horiz-adv-x="550" 
d="M461 115l-27 -127q-74 -11 -115 -11q-121 0 -178 44t-57 143q0 50 12 108l162 760h160l-158 -745q-10 -48 -10 -86q0 -49 25 -73t90 -24q39 0 96 11zM610 1194h-176l37 180h176zM293 1194h-176l37 180h176z" />
    <glyph glyph-name="upsilondieresis" unicode="&#x3cb;" horiz-adv-x="1097" 
d="M1073 1032l-125 -586q-53 -244 -178.5 -356.5t-327.5 -112.5q-166 0 -249.5 62.5t-83.5 222.5q0 76 22 180l127 590h160l-127 -598q-19 -102 -19 -147q0 -102 47 -142.5t146 -40.5q123 0 205 83.5t123 275.5l120 569h160zM952 1194h-176l37 180h176zM635 1194h-176
l37 180h176z" />
    <glyph glyph-name="omicrontonos" unicode="&#x3cc;" horiz-adv-x="1134" 
d="M1073 698q0 -47 -10 -112t-31.5 -145.5t-65.5 -163t-102 -140.5q-160 -160 -403 -160q-189 0 -286 96t-97 261q0 47 10 112t31.5 145.5t65.5 163t102 140.5q160 160 403 160q189 0 286 -96t97 -261zM899 682q0 124 -60 185t-169 61q-69 0 -135.5 -26.5t-116.5 -76.5
q-83 -83 -124.5 -223t-41.5 -252q0 -124 60 -185t169 -61q69 0 135.5 26.5t116.5 76.5q83 83 124.5 223t41.5 252zM791 1190h-125l190 278h195z" />
    <glyph glyph-name="upsilontonos" unicode="&#x3cd;" horiz-adv-x="1097" 
d="M1073 1032l-125 -586q-53 -244 -178.5 -356.5t-327.5 -112.5q-166 0 -249.5 62.5t-83.5 222.5q0 76 22 180l127 590h160l-127 -598q-19 -102 -19 -147q0 -102 47 -142.5t146 -40.5q123 0 205 83.5t123 275.5l120 569h160zM719 1182h-125l190 278h195z" />
    <glyph glyph-name="omegatonos" unicode="&#x3ce;" horiz-adv-x="1454" 
d="M1202 578q0 131 -21.5 233t-78.5 221h155q54 -97 83.5 -208.5t29.5 -207.5q0 -129 -30.5 -242t-89.5 -203t-155 -142t-218 -52q-171 0 -222 148q-59 -79 -131.5 -113.5t-173.5 -34.5q-148 0 -217.5 80t-69.5 219q0 171 93.5 378.5t267.5 377.5h170q-165 -170 -264 -371
t-99 -360q0 -97 41.5 -147t106.5 -50q94 0 156.5 62t93.5 207l69 321h154l-70 -321q-32 -148 0.5 -208.5t124.5 -60.5q86 0 154.5 67.5t104.5 175t36 231.5zM905 1182h-125l191 278h194z" />
    <glyph glyph-name="uni0401" unicode="&#x401;" horiz-adv-x="1062" 
d="M899 0h-838l287 1358h819l-47 -139h-628l-95 -441h523l-29 -137h-522l-107 -500h666zM1036 1466h-176l39 181h176zM719 1466h-176l39 181h176z" />
    <glyph glyph-name="uni0402" unicode="&#x402;" horiz-adv-x="1314" 
d="M633 0l29 139q200 0 304.5 90t104.5 263q0 182 -246 182h-262l-141 -674h-172l258 1217h-326l29 141h885l-47 -141h-369l-86 -404h258q105 0 183.5 -25t123.5 -70t66.5 -99.5t21.5 -120.5q0 -68 -17 -133.5t-61 -133t-111.5 -118t-177 -82t-247.5 -31.5z" />
    <glyph glyph-name="uni0403" unicode="&#x403;" horiz-adv-x="872" 
d="M233 0h-172l287 1358h729l-47 -141h-538zM983 1692l-217 -226h-125l158 226h184z" />
    <glyph glyph-name="uni0404" unicode="&#x404;" horiz-adv-x="1232" 
d="M846 629h-537q-21 -105 -18 -189q3 -158 82 -240.5t223 -82.5q120 0 219 61t162 174l141 -39q-84 -161 -231.5 -248.5t-329.5 -87.5q-446 0 -446 482q0 59 10.5 132.5t36.5 163t64 175.5t99.5 168.5t136.5 144.5t180.5 99.5t227.5 37.5q184 0 287.5 -90.5t93.5 -249.5
l-166 -16q2 99 -58 158t-181 59q-80 0 -152 -28.5t-126 -75t-99.5 -110t-75.5 -128t-51 -133.5h549z" />
    <glyph glyph-name="uni0405" unicode="&#x405;" horiz-adv-x="1249" 
d="M1194 1061l-174 -19q26 94 -27.5 146.5t-208.5 52.5q-159 0 -255.5 -73t-96.5 -187q0 -52 29.5 -90.5t78 -59.5t110.5 -40.5t126 -33t126 -38t110.5 -54.5t78 -83t29.5 -123q0 -73 -24 -142.5t-74 -131t-121 -108t-172.5 -73.5t-220.5 -27q-250 0 -356 102t-72 275
l178 21q-22 -131 40 -194.5t249 -63.5q175 0 282 86.5t107 212.5q0 51 -29.5 88.5t-77.5 58t-109 39.5t-125 32t-125 37t-109 54t-77.5 82.5t-29.5 122.5q0 86 33 164.5t98 143.5t174 103.5t248 38.5q81 0 147 -12t111 -33t77.5 -50.5t46 -65t16.5 -76t-11 -82.5z" />
    <glyph glyph-name="uni0406" unicode="&#x406;" horiz-adv-x="499" 
d="M233 0h-172l287 1358h172z" />
    <glyph glyph-name="uni0407" unicode="&#x407;" horiz-adv-x="499" 
d="M233 0h-172l287 1358h172zM705 1466h-177l39 181h176zM387 1466h-176l39 181h176z" />
    <glyph glyph-name="uni0408" unicode="&#x408;" horiz-adv-x="763" 
d="M793 1358l-199 -936q-21 -99 -59 -178t-95 -140t-139.5 -94t-185.5 -33q-111 0 -195 25l29 145q91 -26 172 -26q122 0 195 74t106 225l199 938h172z" />
    <glyph glyph-name="uni0409" unicode="&#x409;" horiz-adv-x="1873" 
d="M1155 831h242q193 0 301 -79t108 -246q0 -66 -19.5 -134t-65 -135.5t-111 -119.5t-165.5 -84.5t-220 -32.5h-412l258 1219h-440q-56 -231 -108 -410t-98 -310.5t-93.5 -224t-90 -150.5t-92 -90.5t-95 -44.5t-103.5 -12l-47 5l28 141q35 -3 61 1.5t58.5 22t61 54.5
t63.5 97.5t70.5 153t77 219t89 299t101.5 388.5h752zM1010 139h245q84 0 150.5 22.5t107.5 58t68.5 83.5t38 94.5t10.5 94.5q0 103 -59 151.5t-213 48.5h-232z" />
    <glyph glyph-name="uni040A" unicode="&#x40a;" horiz-adv-x="1900" 
d="M1184 831h239q193 0 301.5 -79t108.5 -246q0 -66 -20 -134t-65.5 -135.5t-110.5 -119.5t-165.5 -84.5t-220.5 -32.5h-415l135 639h-602l-136 -639h-172l287 1358h172l-121 -574h602l121 574h172zM1153 692l-117 -553h246q84 0 150.5 22.5t107.5 58t68.5 83.5t38 94.5
t10.5 94.5q0 103 -59.5 151.5t-213.5 48.5h-231z" />
    <glyph glyph-name="uni040B" unicode="&#x40b;" horiz-adv-x="1374" 
d="M1190 0h-172l76 360q38 182 -17.5 257t-226.5 75h-283l-145 -692h-172l258 1217h-326l29 141h885l-47 -141h-369l-82 -383h274q264 0 356 -108t40 -355z" />
    <glyph glyph-name="uni040C" unicode="&#x40c;" horiz-adv-x="1124" 
d="M61 0l287 1358h172l-121 -574h107l516 574h203l-584 -639l383 -719h-215l-324 645h-116l-136 -645h-172zM1020 1692l-217 -226h-125l158 226h184z" />
    <glyph glyph-name="uni040E" unicode="&#x40e;" horiz-adv-x="1091" 
d="M1102 1358h184q-266 -490 -541 -936q-87 -143 -153.5 -229.5t-132 -135t-124 -64.5t-140.5 -16q-88 0 -177 19l31 143q75 -20 174 -20q155 0 275 180q-175 529 -305 1059h186q50 -229 199 -770q15 -63 28 -131h4q6 12 31.5 58t38.5 69q207 355 422 774zM506 1726h156
q-20 -87 16.5 -128.5t130.5 -41.5q158 0 195 170h155q-27 -131 -121.5 -200.5t-253.5 -69.5q-167 0 -236.5 68t-41.5 202z" />
    <glyph glyph-name="uni040F" unicode="&#x40f;" horiz-adv-x="1277" 
d="M465 0h-404l287 1358h172l-258 -1217h606l258 1217h172l-286 -1358h-408l-76 -324h-127z" />
    <glyph glyph-name="uni0410" unicode="&#x410;" horiz-adv-x="1175" 
d="M1053 0h-176q-12 174 -31 371h-567q-113 -220 -185 -371h-180q288 586 752 1358h211q116 -583 176 -1358zM350 508h481q-18 208 -51 463q-15 118 -37 246h-4q-45 -78 -131 -230q-117 -209 -258 -479z" />
    <glyph glyph-name="uni0411" unicode="&#x411;" horiz-adv-x="1144" 
d="M348 1358h805l-45 -141h-616l-86 -404h258q105 0 183.5 -25t123.5 -70t66.5 -99.5t21.5 -120.5q0 -67 -18 -133.5t-62 -133.5t-108 -117.5t-164.5 -82t-223.5 -31.5h-422zM262 139h248q89 0 158.5 25t108.5 62t64 86.5t33.5 92.5t8.5 87q0 182 -246 182h-262z" />
    <glyph glyph-name="uni0412" unicode="&#x412;" horiz-adv-x="1177" 
d="M487 0h-430l287 1358h410q203 0 297 -63t94 -193q0 -142 -77 -245.5t-216 -139.5v-2q105 -6 169 -69t64 -163q0 -74 -22 -142.5t-69.5 -131t-116 -108.5t-169 -73.5t-221.5 -27.5zM393 778h195q188 0 285.5 76t97.5 221q0 75 -59.5 109.5t-206.5 34.5h-218zM258 139h258
q194 0 293.5 91.5t99.5 232.5q0 90 -71 134t-226 44h-247z" />
    <glyph glyph-name="uni0413" unicode="&#x413;" horiz-adv-x="872" 
d="M233 0h-172l287 1358h729l-47 -141h-538z" />
    <glyph glyph-name="uni0414" unicode="&#x414;" horiz-adv-x="1415" 
d="M311 141h629l229 1078h-485q-116 -435 -204 -686.5t-169 -391.5zM-61 141h192q66 80 121.5 202t130 360.5t184.5 654.5h803l-258 -1217h209l-109 -465h-127l64 324h-1096l-76 -324h-124z" />
    <glyph glyph-name="uni0415" unicode="&#x415;" horiz-adv-x="1062" 
d="M899 0h-838l287 1358h819l-47 -139h-628l-95 -441h523l-29 -137h-522l-107 -500h666z" />
    <glyph glyph-name="uni0416" unicode="&#x416;" horiz-adv-x="1712" 
d="M670 0l135 645h-107l-587 -645h-217l679 729l-321 629h190l285 -574h109l120 574h168l-120 -574h108l514 574h203l-592 -649l377 -709h-205l-330 645h-106l-135 -645h-168z" />
    <glyph glyph-name="uni0417" unicode="&#x417;" horiz-adv-x="1161" 
d="M473 -23q-187 0 -300 87t-138 247l174 39q39 -233 303 -233q162 0 265.5 97t103.5 241q0 30 -6.5 54t-27 49.5t-54.5 42t-93 27.5t-139 11h-231l28 137h232q87 0 154 18t107.5 46.5t66.5 68.5t35.5 79.5t9.5 84.5q0 31 -10.5 58.5t-35.5 53.5t-74 41t-118 15
q-118 0 -212.5 -57.5t-147.5 -159.5l-144 25q79 161 209.5 246t329.5 85q108 0 185 -25.5t117 -69t57.5 -90.5t17.5 -101q0 -143 -84 -243t-236 -132q65 -5 114 -30.5t74.5 -62.5t37.5 -75.5t12 -77.5q0 -98 -39.5 -187t-112 -158t-184.5 -110t-246 -41z" />
    <glyph glyph-name="uni0418" unicode="&#x418;" horiz-adv-x="1323" 
d="M229 0h-168l287 1358h172l-125 -594q-62 -298 -153 -576h2q119 188 235 328l697 842h167l-286 -1358h-172l125 594q61 295 153 575h-2q-116 -184 -235 -327z" />
    <glyph glyph-name="uni0419" unicode="&#x419;" horiz-adv-x="1323" 
d="M229 0h-168l287 1358h172l-125 -594q-62 -298 -153 -576h2q119 188 235 328l697 842h167l-286 -1358h-172l125 594q61 295 153 575h-2q-116 -184 -235 -327zM612 1726h156q-20 -87 16.5 -128.5t130.5 -41.5q158 0 195 170h156q-27 -131 -121.5 -200.5t-253.5 -69.5
q-167 0 -237 68t-42 202z" />
    <glyph glyph-name="uni041A" unicode="&#x41a;" horiz-adv-x="1124" 
d="M61 0l287 1358h172l-121 -574h107l516 574h203l-584 -639l383 -719h-215l-324 645h-116l-136 -645h-172z" />
    <glyph glyph-name="uni041B" unicode="&#x41b;" horiz-adv-x="1282" 
d="M-96 -18l28 141q39 -3 68 3.5t66.5 33t70.5 78t76 142.5t87 222t98.5 321t115.5 435h789l-287 -1358h-172l258 1219h-471q-49 -205 -94 -367t-87.5 -287.5t-80.5 -218t-79 -158t-78 -106.5t-81.5 -64.5t-85.5 -32t-94 -8.5z" />
    <glyph glyph-name="uni041C" unicode="&#x41c;" horiz-adv-x="1695" 
d="M1460 0h-168q34 178 168 948q36 219 43 269h-4q-67 -126 -92 -170l-588 -1047h-145l-150 1047q-17 135 -20 170h-4q-6 -23 -33 -123t-39 -146q-127 -499 -231 -948h-166q143 623 370 1358h236l131 -920q16 -121 23 -239h4q61 142 118 243l514 916h236
q-81 -691 -203 -1358z" />
    <glyph glyph-name="uni041D" unicode="&#x41d;" horiz-adv-x="1339" 
d="M1073 0h-172l135 639h-667l-136 -639h-172l287 1358h172l-121 -574h668l121 574h172z" />
    <glyph glyph-name="uni041E" unicode="&#x41e;" horiz-adv-x="1372" 
d="M578 -20q-229 0 -348 123t-119 335q0 75 13 159t42 176t71.5 178t105.5 164t139 136t178 92.5t217 34.5q229 0 347.5 -123t118.5 -335q0 -75 -13 -159t-42 -176t-71 -178t-105 -164t-139 -136t-178 -92.5t-217 -34.5zM590 117q87 0 164.5 30.5t134.5 81.5t104.5 118.5
t78.5 140.5t52.5 149.5t31 143.5t9.5 124q0 336 -303 336q-120 0 -220 -58t-163.5 -146t-108 -197t-63 -207t-18.5 -180q0 -336 301 -336z" />
    <glyph glyph-name="uni041F" unicode="&#x41f;" horiz-adv-x="1298" 
d="M1032 0h-172l258 1219h-626l-259 -1219h-172l287 1358h971z" />
    <glyph glyph-name="uni0420" unicode="&#x420;" horiz-adv-x="1112" 
d="M1149 1042q0 -108 -42.5 -202.5t-118 -163t-185 -108.5t-238.5 -40h-221l-111 -528h-172l287 1358h391q200 0 305 -83t105 -233zM975 1028q0 191 -254 191h-229l-117 -551h203q103 0 182 30.5t124.5 82.5t68 114.5t22.5 132.5z" />
    <glyph glyph-name="uni0421" unicode="&#x421;" horiz-adv-x="1267" 
d="M1169 436q-69 -209 -225 -334t-379 -125q-236 0 -343 124.5t-107 357.5q0 74 13 157t42 172.5t71 174t104 160.5t136.5 133t173 90.5t209.5 33.5q175 0 280 -81t105 -228q0 -71 -22 -143l-170 -21q20 72 20 129q0 92 -57 148.5t-172 56.5q-100 0 -185 -42.5t-143.5 -113
t-103.5 -156t-70.5 -177t-38 -169t-12.5 -139.5q0 -155 72.5 -240t214.5 -85q158 0 267 87t157 230h163z" />
    <glyph glyph-name="uni0422" unicode="&#x422;" horiz-adv-x="985" 
d="M1153 1358l-43 -141h-379l-256 -1217h-172l258 1217h-383l29 141h946z" />
    <glyph glyph-name="uni0423" unicode="&#x423;" horiz-adv-x="1091" 
d="M1102 1358h184q-266 -490 -541 -936q-87 -143 -153.5 -229.5t-132 -135t-124 -64.5t-140.5 -16q-88 0 -177 19l31 143q75 -20 174 -20q155 0 275 180q-175 529 -305 1059h186q50 -229 199 -770q15 -63 28 -131h4q6 12 31.5 58t38.5 69q207 355 422 774z" />
    <glyph glyph-name="uni0424" unicode="&#x424;" horiz-adv-x="1519" 
d="M1053 1470l-31 -143q110 -6 195.5 -31t140.5 -62.5t90.5 -89t50 -107t14.5 -119.5q0 -57 -8.5 -116.5t-31.5 -129.5t-58 -133t-93 -123t-131.5 -104.5t-178 -72.5t-228.5 -30l-43 -209h-168l43 209q-110 6 -195.5 31t-140.5 62.5t-90.5 89t-50 107t-14.5 119.5
q0 57 8.5 116.5t31.5 129.5t58 133t93 123t131.5 104.5t178 72.5t228.5 30l31 143h168zM645 346l180 844q-123 -3 -218.5 -43t-151.5 -98.5t-92 -136t-49 -147t-13 -140.5q0 -60 16.5 -107t54.5 -85.5t106.5 -60.5t166.5 -26zM993 1190l-180 -844q123 3 218.5 43t151.5 98.5
t92 136t49 147t13 140.5q0 60 -16.5 107t-54.5 85.5t-106.5 60.5t-166.5 26z" />
    <glyph glyph-name="uni0425" unicode="&#x425;" horiz-adv-x="1069" 
d="M958 0l-180 -20l-225 602q-62 -76 -135 -169.5t-170.5 -220t-149.5 -192.5h-190q404 501 588 719l-252 639l184 20l190 -522q79 99 386 502h192q-344 -430 -516 -635z" />
    <glyph glyph-name="uni0426" unicode="&#x426;" horiz-adv-x="1343" 
d="M1077 0h-1016l287 1358h172l-258 -1217h606l258 1217h172l-258 -1217h209l-108 -465h-127z" />
    <glyph glyph-name="uni0427" unicode="&#x427;" horiz-adv-x="1185" 
d="M266 1358h172l-80 -379q-37 -172 20 -242.5t228 -70.5h283l145 692h172l-286 -1358h-172l110 524h-270q-105 0 -180 15t-129.5 49t-80 88.5t-30 132.5t19.5 182z" />
    <glyph glyph-name="uni0428" unicode="&#x428;" horiz-adv-x="1998" 
d="M1100 1358h168l-258 -1217h579l258 1217h172l-286 -1358h-1672l287 1358h172l-258 -1217h580z" />
    <glyph glyph-name="uni0429" unicode="&#x429;" horiz-adv-x="2064" 
d="M1798 0h-1737l287 1358h172l-258 -1217h580l258 1217h168l-258 -1217h579l258 1217h172l-258 -1217h209l-108 -465h-127z" />
    <glyph glyph-name="uni042A" unicode="&#x42a;" horiz-adv-x="1327" 
d="M709 1358l-111 -527h246q416 0 416 -325q0 -66 -20 -134t-65.5 -135.5t-111.5 -119.5t-167.5 -84.5t-223.5 -32.5h-422l258 1217h-326l29 141h498zM451 139h251q85 0 153 22.5t110 58t69.5 83.5t38 94.5t10.5 94.5q0 103 -60 151.5t-218 48.5h-238z" />
    <glyph glyph-name="uni042B" unicode="&#x42b;" horiz-adv-x="1650" 
d="M1499 1358h172l-287 -1358h-172zM348 1358h172l-110 -527h239q193 0 301.5 -79t108.5 -246q0 -66 -20 -134t-65.5 -135.5t-110.5 -119.5t-165.5 -84.5t-220.5 -32.5h-416zM262 139h246q84 0 150.5 22.5t107.5 58t68.5 83.5t38 94.5t10.5 94.5q0 103 -59.5 151.5
t-213.5 48.5h-231z" />
    <glyph glyph-name="uni042C" unicode="&#x42c;" horiz-adv-x="1146" 
d="M348 1358h172l-110 -527h254q415 0 415 -325q0 -66 -19.5 -134t-65.5 -135.5t-112 -119.5t-167 -84.5t-223 -32.5h-431zM262 139h260q85 0 153 22.5t110 58t69.5 83.5t38 94.5t10.5 94.5q0 103 -60 151.5t-218 48.5h-246z" />
    <glyph glyph-name="uni042D" unicode="&#x42d;" horiz-adv-x="1241" 
d="M389 1024l-162 16q81 162 224 251t346 89q415 0 415 -438q0 -127 -25.5 -257t-84 -258.5t-142.5 -227.5t-211 -160.5t-280 -61.5q-173 0 -286.5 88t-141.5 246l170 39q45 -233 295 -233q165 0 295 126.5t194 385.5h-544l28 139h545q14 92 14 170q0 303 -280 303
q-122 0 -219 -59.5t-150 -157.5z" />
    <glyph glyph-name="uni042E" unicode="&#x42e;" horiz-adv-x="1849" 
d="M1071 -23q-218 0 -332 122.5t-114 332.5q0 101 20 207h-276l-136 -639h-172l287 1358h172l-123 -580h283q82 278 260.5 440t431.5 162q220 0 333.5 -122t113.5 -332q0 -72 -11.5 -154t-38 -175t-66 -180t-100.5 -167.5t-135.5 -140.5t-177 -96t-219.5 -36zM1104 117
q91 0 170.5 38t136.5 102.5t102 146t72 171.5t41 175.5t14 162.5q0 156 -67.5 242t-231.5 86q-109 0 -201 -54.5t-152.5 -140.5t-103.5 -193.5t-62 -211.5t-19 -197q0 -156 67.5 -241.5t233.5 -85.5z" />
    <glyph glyph-name="uni042F" unicode="&#x42f;" horiz-adv-x="1157" 
d="M891 0h-172l121 578h-217l-437 -578h-196l467 590q-129 29 -190.5 110t-61.5 181q0 58 16.5 118.5t58 126t104 116t165 83.5t229.5 33h400zM977 1219h-234q-94 0 -164 -26t-107 -62t-59.5 -85t-28 -84t-5.5 -71q0 -176 246 -176h245z" />
    <glyph glyph-name="uni0430" unicode="&#x430;" 
d="M1081 1049l-139 -654q-33 -148 -55 -395h-154l21 193q-69 -98 -168.5 -155.5t-208.5 -57.5q-303 0 -303 325q0 78 12.5 157.5t39.5 165.5t75 160.5t112.5 134t158.5 94t206 34.5q103 0 242 -27zM412 111q59 0 120 31t117 88.5t101.5 149t70.5 204.5l64 295
q-117 45 -234 45q-78 0 -142.5 -30t-107.5 -81.5t-75 -113t-49 -132t-25 -131.5t-8 -117q0 -116 40.5 -162t127.5 -46z" />
    <glyph glyph-name="uni0431" unicode="&#x431;" horiz-adv-x="1150" 
d="M487 104q162 0 263 101q81 81 122 204.5t41 260.5q0 248 -233 248q-80 0 -147.5 -29t-112.5 -78t-78.5 -107.5t-52 -122t-27 -117t-8.5 -97.5q0 -137 57.5 -200t175.5 -63zM330 856h4q144 188 385 188q182 0 272 -92.5t90 -257.5q0 -152 -47 -298.5t-155 -254.5
q-164 -164 -408 -164q-375 0 -375 355q0 238 90 496.5t215 383.5q79 79 190 124.5t275 64.5l330 37l-31 -144l-319 -34q-127 -13 -212 -50.5t-153 -105.5q-87 -87 -151 -248z" />
    <glyph glyph-name="uni0432" unicode="&#x432;" horiz-adv-x="1130" 
d="M473 -23q-200 0 -297.5 80t-97.5 230q0 71 20 180t71 239t120 199q150 150 407 150q180 0 261 -57.5t81 -174.5q0 -207 -243 -280v-2q94 -7 146 -59.5t52 -133.5q0 -57 -19.5 -110.5t-61 -101t-101.5 -83t-147 -56t-191 -20.5zM291 592h227q170 0 261 58t91 155
q0 64 -46 94.5t-156 30.5q-139 0 -237.5 -83t-139.5 -255zM502 473h-240q-22 -99 -22 -174q0 -197 252 -197q157 0 244 62.5t87 165.5q0 72 -71.5 107.5t-249.5 35.5z" />
    <glyph glyph-name="uni0433" unicode="&#x433;" horiz-adv-x="897" 
d="M20 180q0 63 28.5 119t75 97t106.5 81t122 70.5t122 64.5t106.5 65t75 70t28.5 80q0 46 -32.5 74.5t-96.5 28.5q-132 0 -332 -154l-69 98q116 94 219 137.5t215 43.5q131 0 196.5 -56.5t65.5 -144.5q0 -72 -36.5 -135t-95 -108.5t-129.5 -87t-142 -78t-129.5 -72.5
t-95 -80.5t-36.5 -93.5q0 -97 142 -97q155 0 356 154l72 -96q-220 -183 -445 -183q-148 0 -219.5 55.5t-71.5 147.5z" />
    <glyph glyph-name="uni0434" unicode="&#x434;" 
d="M887 0q-6 -61 -17.5 -107.5t-44.5 -98.5t-85 -85.5t-142 -55.5t-211 -22q-130 0 -293 29l25 141q165 -43 303 -43q275 0 301 213q18 145 33 242q-70 -98 -170 -155.5t-209 -57.5q-154 0 -226.5 81.5t-72.5 242.5q0 53 7 111.5t25.5 131t46.5 139t76 131t108 111.5t147 76
t190 29q95 0 244 -29l161 25l-139 -654q-36 -163 -57 -395zM827 606l60 273q-113 47 -238 47q-70 0 -128.5 -25t-99 -65t-72 -94t-50 -109.5t-30.5 -114.5t-16.5 -105t-4.5 -85q0 -107 39 -153t125 -46q59 0 121 31t119 89t103.5 151t71.5 206z" />
    <glyph glyph-name="uni0435" unicode="&#x435;" horiz-adv-x="1042" 
d="M911 137q-129 -83 -235 -121.5t-225 -38.5q-180 0 -276.5 97t-96.5 276q0 54 8 114t27.5 129.5t48.5 134t76 125t106 104.5t141.5 71t178.5 27q173 0 260.5 -64.5t87.5 -181.5q0 -139 -111.5 -224t-341.5 -85h-299q-16 -70 -16 -148q0 -119 59 -183.5t172 -64.5
q171 0 377 138zM846 793q0 62 -49 100.5t-150 38.5q-73 0 -135 -27t-104.5 -73.5t-71.5 -100t-45 -113.5h278q277 0 277 175z" />
    <glyph glyph-name="uni0436" unicode="&#x436;" horiz-adv-x="1486" 
d="M664 481h-101l-452 -481h-205l543 567l-297 465h182l256 -426h100l92 426h156l-92 -426h100l426 426h197l-502 -483l309 -549h-190l-266 481h-101l-100 -481h-156z" />
    <glyph glyph-name="uni0437" unicode="&#x437;" horiz-adv-x="978" 
d="M272 473l25 119h145q155 0 229 61.5t74 155.5q0 123 -190 123q-204 0 -274 -166l-134 31q53 121 163 189.5t274 68.5q329 0 329 -228q0 -107 -65.5 -182t-159.5 -104v-2q174 -36 174 -191q0 -41 -14 -87.5t-50 -98t-89 -92t-139 -67t-191 -26.5q-229 0 -397 138l92 110
q67 -58 153.5 -89.5t175.5 -31.5q64 0 116 16t83.5 40t52.5 55.5t29 60.5t8 56q0 69 -61.5 105t-206.5 36h-152z" />
    <glyph glyph-name="uni0438" unicode="&#x438;" horiz-adv-x="1099" 
d="M258 1032h160l-139 -653q-15 -73 -15 -133q0 -142 139 -142q128 0 338 156l164 772h160l-135 -637q-34 -156 -56 -395h-143l6 129q-112 -76 -201 -114t-174 -38q-123 0 -192.5 60.5t-69.5 187.5q0 65 19 154z" />
    <glyph glyph-name="uni0439" unicode="&#x439;" horiz-adv-x="1099" 
d="M258 1032h160l-139 -653q-15 -73 -15 -133q0 -142 139 -142q128 0 338 156l164 772h160l-135 -637q-34 -156 -56 -395h-143l6 129q-112 -76 -201 -114t-174 -38q-123 0 -192.5 60.5t-69.5 187.5q0 65 19 154zM418 1448h155q-20 -87 14 -128.5t122 -41.5q147 0 184 170
h156q-24 -130 -115 -200t-248 -70q-160 0 -223.5 67t-44.5 203z" />
    <glyph glyph-name="uni043A" unicode="&#x43a;" horiz-adv-x="983" 
d="M1051 1032l-500 -487l319 -545h-200l-260 481h-109l-100 -481h-160l219 1032h160l-92 -426h100l438 426h185z" />
    <glyph glyph-name="uni043B" unicode="&#x43b;" horiz-adv-x="1073" 
d="M-100 -23l28 132q51 -3 88.5 10.5t84.5 65.5t91.5 151t101 272t120.5 424h633l-220 -1032h-159l192 907h-336q-44 -179 -86 -315t-81 -236.5t-81 -169t-82 -111.5t-89 -65.5t-96 -29t-109 -3.5z" />
    <glyph glyph-name="uni043C" unicode="&#x43c;" horiz-adv-x="1449" 
d="M580 1032l71 -682q7 -82 4 -182h4q47 118 82 184l363 680h233q-27 -521 -92 -1032h-162q43 310 74 623q2 19 12.5 125t14.5 155h-4q-12 -25 -64 -121l-416 -782h-159l-82 760q-5 51 -17 143h-4l-92 -280q-97 -296 -188 -623h-158q151 518 346 1032h234z" />
    <glyph glyph-name="uni043D" unicode="&#x43d;" 
d="M1079 1032l-219 -1032h-160l103 483h-500l-102 -483h-160l219 1032h160l-90 -422h499l91 422h159z" />
    <glyph glyph-name="uni043E" unicode="&#x43e;" horiz-adv-x="1134" 
d="M1073 698q0 -47 -10 -112t-31.5 -145.5t-65.5 -163t-102 -140.5q-160 -160 -403 -160q-189 0 -286 96t-97 261q0 47 10 112t31.5 145.5t65.5 163t102 140.5q160 160 403 160q189 0 286 -96t97 -261zM899 682q0 124 -60 185t-169 61q-69 0 -135.5 -26.5t-116.5 -76.5
q-83 -83 -124.5 -223t-41.5 -252q0 -124 60 -185t169 -61q69 0 135.5 26.5t116.5 76.5q83 83 124.5 223t41.5 252z" />
    <glyph glyph-name="uni043F" unicode="&#x43f;" horiz-adv-x="1099" 
d="M856 0h-160l140 653q14 68 14 133q0 142 -139 142q-128 0 -338 -156l-164 -772h-160l135 637q34 156 56 395h143l-6 -129q112 76 201 114t174 38q123 0 192.5 -60.5t69.5 -187.5q0 -65 -19 -154z" />
    <glyph glyph-name="uni0440" unicode="&#x440;" horiz-adv-x="1110" 
d="M-25 -348l209 985q34 156 56 395h143l-10 -186q66 93 168 151t198 58q305 0 305 -328q0 -66 -7.5 -132.5t-27 -141.5t-49.5 -141.5t-78.5 -128t-110 -106t-148.5 -71t-189 -26.5q-109 0 -223 30l-76 -358h-160zM707 926q-52 0 -111 -31.5t-116 -89.5t-105 -151t-72 -205
l-61 -293q98 -50 223 -50q71 0 131 24.5t101.5 64t73.5 93.5t51 109.5t31 116t16.5 108.5t4.5 91q0 108 -39.5 160.5t-127.5 52.5z" />
    <glyph glyph-name="uni0441" unicode="&#x441;" horiz-adv-x="1042" 
d="M827 293l82 -98q-141 -117 -246.5 -167.5t-228.5 -50.5q-176 0 -265 93t-89 274q0 93 20.5 189t67 190.5t113 167.5t167 118.5t220.5 45.5q145 0 233 -69.5t88 -201.5q0 -50 -12 -108h-160q12 53 12 90q0 78 -48.5 121t-135.5 43q-96 0 -174.5 -57.5t-124 -146.5
t-70 -185.5t-24.5 -186.5q0 -122 56 -186t155 -64q160 0 364 189z" />
    <glyph glyph-name="uni0442" unicode="&#x442;" horiz-adv-x="1679" 
d="M971 893q125 83 214.5 122.5t162.5 39.5q111 0 178 -61t67 -187q0 -69 -18 -154l-139 -653h-160l139 653q15 73 15 133q0 142 -123 142q-112 0 -322 -156l-164 -772h-157l139 653q14 68 14 133q0 142 -123 142q-111 0 -321 -156l-164 -772h-160l135 637q34 156 56 395
h143l-6 -129q225 152 358 152q95 0 156 -43.5t80 -118.5z" />
    <glyph glyph-name="uni0443" unicode="&#x443;" horiz-adv-x="858" 
d="M965 1032q-246 -487 -537 -985q-99 -171 -183.5 -261t-199.5 -157l-63 115q251 147 251 358q0 80 -43.5 374.5t-62.5 555.5h160q22 -269 63 -594q18 -162 21 -260h2q73 166 114 244q218 407 320 610h158z" />
    <glyph glyph-name="uni0444" unicode="&#x444;" horiz-adv-x="1363" 
d="M524 98l176 836q-180 -10 -297 -127q-76 -76 -115.5 -191t-39.5 -237q0 -264 276 -281zM936 1303l-53 -248q108 -4 191 -36t132 -84.5t73 -116.5t24 -138q0 -154 -49 -290.5t-144 -231.5q-168 -168 -457 -181l-69 -325h-156l70 325q-108 4 -191 36t-132 84.5t-73 116.5
t-24 138q0 155 48.5 291t143.5 231q168 168 457 181l53 248h156zM856 934l-176 -836q180 10 297 127q76 76 116 191.5t40 236.5q0 264 -277 281z" />
    <glyph glyph-name="uni0445" unicode="&#x445;" horiz-adv-x="899" 
d="M784 0l-172 -20l-178 446q-61 -73 -174.5 -215.5t-169.5 -210.5h-180l465 545l-205 487l168 21l154 -381q57 69 156.5 195t131.5 165h181l-412 -479z" />
    <glyph glyph-name="uni0446" unicode="&#x446;" horiz-adv-x="1155" 
d="M258 1032h160l-139 -653q-15 -73 -15 -133q0 -142 139 -142q128 0 338 156l164 772h160l-152 -721q-14 -66 -15.5 -104.5t13.5 -55.5t31.5 -20.5t52.5 -3.5h62l-92 -381h-123l51 254q-136 10 -150 135q-115 -78 -206 -118t-175 -40q-123 0 -192.5 60.5t-69.5 187.5
q0 65 19 154z" />
    <glyph glyph-name="uni0447" unicode="&#x447;" horiz-adv-x="1007" 
d="M762 0h-160l107 512q-63 -54 -158.5 -93.5t-181.5 -39.5q-117 0 -183.5 59.5t-66.5 171.5q0 56 20 144l60 278h159l-57 -268q-18 -86 -18 -131q0 -127 133 -127q70 0 159 45t166 111l80 370h160z" />
    <glyph glyph-name="uni0448" unicode="&#x448;" horiz-adv-x="1679" 
d="M723 139q-125 -83 -214.5 -122.5t-162.5 -39.5q-111 0 -178.5 61t-67.5 187q0 65 19 154l139 653h160l-139 -653q-15 -73 -15 -133q0 -142 123 -142q112 0 322 156l163 772h158l-139 -653q-14 -68 -14 -133q0 -142 122 -142q112 0 322 156l164 772h160l-136 -637
q-33 -148 -55 -395h-143l6 129q-225 -152 -359 -152q-95 0 -155.5 43.5t-79.5 118.5z" />
    <glyph glyph-name="uni0449" unicode="&#x449;" horiz-adv-x="1734" 
d="M1421 -254l52 254q-143 10 -156 129q-226 -152 -359 -152q-95 0 -155.5 43.5t-79.5 118.5q-125 -83 -214.5 -122.5t-162.5 -39.5q-111 0 -178.5 61t-67.5 187q0 65 19 154l139 653h160l-139 -653q-15 -73 -15 -133q0 -142 123 -142q112 0 322 156l163 772h158l-139 -653
q-14 -68 -14 -133q0 -142 122 -142q112 0 322 156l164 772h160l-152 -721q-14 -66 -15.5 -104.5t13.5 -55.5t31.5 -20.5t52.5 -3.5h61l-92 -381h-123z" />
    <glyph glyph-name="uni044A" unicode="&#x44a;" horiz-adv-x="1173" 
d="M106 1032h465l-84 -397q129 35 256 35q169 0 264 -70t95 -199q0 -50 -16.5 -105t-56 -112.5t-96 -103t-145.5 -74.5t-196 -29q-153 0 -242.5 69t-89.5 220q0 57 16 129l109 510h-307zM717 545q-53 0 -117 -9.5t-102 -18.5l-37 -9l-25 -117q-12 -61 -12 -110
q0 -93 49 -136t150 -43q132 0 220.5 82.5t88.5 204.5q0 73 -54 114.5t-161 41.5z" />
    <glyph glyph-name="uni044B" unicode="&#x44b;" horiz-adv-x="1421" 
d="M561 545q-53 0 -116.5 -9.5t-100.5 -18.5l-37 -9l-24 -117q-13 -67 -13 -110q0 -179 197 -179q132 0 219.5 82.5t87.5 204.5q0 73 -53 114.5t-160 41.5zM258 1032h160l-84 -397q127 35 254 35q169 0 262.5 -70t93.5 -199q0 -50 -16.5 -105t-55.5 -112.5t-95.5 -103
t-145 -74.5t-195.5 -29q-151 0 -240.5 69t-89.5 220q0 52 17 129zM1395 1032l-219 -1032h-162l221 1032h160z" />
    <glyph glyph-name="uni044C" unicode="&#x44c;" horiz-adv-x="1024" 
d="M565 545q-53 0 -117.5 -9.5t-102.5 -18.5l-38 -9l-24 -117q-13 -67 -13 -110q0 -93 50 -136t151 -43q132 0 221.5 82.5t89.5 204.5q0 73 -55 114.5t-162 41.5zM258 1032h160l-84 -397q131 35 258 35q169 0 264.5 -70t95.5 -199q0 -50 -17 -105t-56.5 -112.5t-96.5 -103
t-146 -74.5t-196 -29q-154 0 -244 69t-90 220q0 52 17 129z" />
    <glyph glyph-name="uni044D" unicode="&#x44d;" horiz-adv-x="1017" 
d="M752 457h-439l25 118h438q8 50 8 111q0 122 -58.5 184t-158.5 62q-183 0 -301 -203l-135 27q60 140 182 219.5t281 79.5q171 0 265.5 -94t94.5 -271q0 -59 -9.5 -123t-31 -134t-53.5 -134.5t-80.5 -123.5t-108.5 -102.5t-141 -69.5t-174 -26q-110 0 -196 32t-176 110
l96 114q126 -129 305 -129q120 0 219 90t148 263z" />
    <glyph glyph-name="uni044E" unicode="&#x44e;" horiz-adv-x="1531" 
d="M872 -23q-360 0 -360 369q0 63 10 135h-221l-100 -481h-160l219 1032h160l-92 -426h225q66 195 160 289q160 160 389 160q188 0 278 -95t90 -262q0 -48 -10 -112.5t-31.5 -145t-65 -163t-101.5 -140.5q-160 -160 -390 -160zM893 104q134 0 237 103q83 83 124.5 223
t41.5 252q0 246 -215 246q-134 0 -237 -103q-83 -83 -124.5 -223t-41.5 -252q0 -246 215 -246z" />
    <glyph glyph-name="uni044F" unicode="&#x44f;" horiz-adv-x="1040" 
d="M485 432l-317 -432h-193l359 455q-86 27 -133 87.5t-47 149.5q0 69 30.5 132t90.5 115t161.5 83t231.5 31q164 0 346 -21l-219 -1032h-160l92 440q-113 -8 -242 -8zM754 567l75 348q-82 11 -188 11q-158 0 -237.5 -61.5t-79.5 -147.5q0 -78 57 -118t182 -40q44 0 91.5 2
t73.5 4z" />
    <glyph glyph-name="uni0451" unicode="&#x451;" horiz-adv-x="1042" 
d="M911 137q-129 -83 -235 -121.5t-225 -38.5q-180 0 -276.5 97t-96.5 276q0 54 8 114t27.5 129.5t48.5 134t76 125t106 104.5t141.5 71t178.5 27q173 0 260.5 -64.5t87.5 -181.5q0 -139 -111.5 -224t-341.5 -85h-299q-16 -70 -16 -148q0 -119 59 -183.5t172 -64.5
q171 0 377 138zM846 793q0 62 -49 100.5t-150 38.5q-73 0 -135 -27t-104.5 -73.5t-71.5 -100t-45 -113.5h278q277 0 277 175zM926 1202h-176l36 180h177zM608 1202h-176l37 180h176z" />
    <glyph glyph-name="uni0452" unicode="&#x452;" horiz-adv-x="1089" 
d="M453 1178l-23 -103q-11 -53 -39 -157q199 137 352 137q123 0 193 -60.5t70 -187.5q0 -100 -41 -299q-68 -331 -195.5 -523.5t-335.5 -287.5l-61 110q162 84 266 245.5t164 439.5q39 187 39 294q0 142 -140 142q-127 0 -337 -156l-164 -772h-160l250 1178h-141l24 122h143
l27 125h160l-27 -125h268l-24 -122h-268z" />
    <glyph glyph-name="uni0453" unicode="&#x453;" horiz-adv-x="897" 
d="M20 180q0 63 28.5 119t75 97t106.5 81t122 70.5t122 64.5t106.5 65t75 70t28.5 80q0 46 -32.5 74.5t-96.5 28.5q-132 0 -332 -154l-69 98q116 94 219 137.5t215 43.5q131 0 196.5 -56.5t65.5 -144.5q0 -72 -36.5 -135t-95 -108.5t-129.5 -87t-142 -78t-129.5 -72.5
t-95 -80.5t-36.5 -93.5q0 -97 142 -97q155 0 356 154l72 -96q-220 -183 -445 -183q-148 0 -219.5 55.5t-71.5 147.5zM913 1468l-284 -278h-129l229 278h184z" />
    <glyph glyph-name="uni0454" unicode="&#x454;" horiz-adv-x="1032" 
d="M686 457h-434q-6 -41 -6 -95q0 -258 233 -258q188 0 367 144l49 -117q-121 -83 -223.5 -118.5t-214.5 -35.5q-188 0 -284.5 100t-96.5 271q0 57 9.5 119.5t31 132t54 133.5t82 123.5t110.5 103t144.5 69.5t178.5 26q159 0 247 -81t79 -214l-160 -31q3 95 -48 149t-155 54
q-125 0 -224 -95t-149 -262h447z" />
    <glyph glyph-name="uni0455" unicode="&#x455;" horiz-adv-x="1017" 
d="M403 -23q-192 0 -284 58t-92 160q0 37 14 81l162 15q-10 -27 -10 -53q0 -61 58.5 -95t172.5 -34q132 0 212.5 57t80.5 141q0 43 -31 72.5t-80.5 45t-109.5 28.5t-119.5 29.5t-109 41.5t-80.5 71.5t-31 111.5q0 148 117.5 248t330.5 100q158 0 255 -50.5t97 -148.5
q0 -25 -10 -63l-149 -13q4 12 4 33q0 56 -55 87.5t-154 31.5q-126 0 -197 -54.5t-71 -136.5q0 -38 24.5 -65.5t64 -42t90.5 -28t103.5 -23.5t103.5 -28.5t90.5 -42t64 -66t24.5 -99.5q0 -157 -131.5 -263t-354.5 -106z" />
    <glyph glyph-name="uni0456" unicode="&#x456;" horiz-adv-x="446" 
d="M461 1194h-176l37 180h176zM201 0h-160l219 1032h160z" />
    <glyph glyph-name="uni0457" unicode="&#x457;" horiz-adv-x="446" 
d="M201 0h-160l219 1032h160zM604 1194h-176l37 180h176zM330 1194h-176l36 180h177z" />
    <glyph glyph-name="uni0458" unicode="&#x458;" horiz-adv-x="446" 
d="M461 1194h-176l37 180h176zM-139 -371l-37 121q68 30 107 60.5t69 86.5t49 146l211 989h160l-205 -964q-39 -180 -121 -278.5t-233 -160.5z" />
    <glyph glyph-name="uni0459" unicode="&#x459;" horiz-adv-x="1622" 
d="M913 508l-24 -117q-12 -62 -12 -110q0 -93 48 -136t148 -43q132 0 219.5 82.5t87.5 204.5q0 73 -53 114.5t-160 41.5q-53 0 -116.5 -9.5t-100.5 -18.5zM414 1032h612l-86 -397q127 35 254 35q169 0 262.5 -70t93.5 -199q0 -50 -16.5 -105t-55.5 -112.5t-95.5 -103
t-145 -74.5t-195.5 -29q-325 0 -325 289q0 56 18 133l109 508h-320q-45 -179 -88.5 -317t-83.5 -237.5t-83.5 -168.5t-84 -111t-89 -64.5t-93 -28.5t-102.5 -3l28 132q37 -2 65 4t61 27t62 61t63.5 108t70 166t77 237t87.5 320z" />
    <glyph glyph-name="uni045A" unicode="&#x45a;" horiz-adv-x="1660" 
d="M1081 -23q-153 0 -241 68.5t-88 220.5q0 57 16 129l18 88h-483l-102 -483h-160l219 1032h160l-90 -422h483l90 422h160l-84 -397q127 35 254 35q169 0 262.5 -70t93.5 -199q0 -50 -16.5 -105t-55.5 -112.5t-95.5 -103t-145 -74.5t-195.5 -29zM952 508l-24 -117
q-13 -67 -13 -110q0 -93 48 -136t149 -43q132 0 219.5 82.5t87.5 204.5q0 73 -53 114.5t-160 41.5q-53 0 -116.5 -9.5t-100.5 -18.5z" />
    <glyph glyph-name="uni045B" unicode="&#x45b;" horiz-adv-x="1091" 
d="M848 0h-160l139 653q15 67 15 133q0 142 -140 142q-127 0 -337 -156l-164 -772h-160l250 1178h-141l24 122h143l27 125h160l-27 -125h268l-24 -122h-268l-23 -103q-11 -53 -39 -157q199 137 352 137q123 0 193 -60.5t70 -187.5q0 -65 -19 -154z" />
    <glyph glyph-name="uni045C" unicode="&#x45c;" horiz-adv-x="983" 
d="M1051 1032l-500 -487l319 -545h-200l-260 481h-109l-100 -481h-160l219 1032h160l-92 -426h100l438 426h185zM969 1460l-285 -278h-129l229 278h185z" />
    <glyph glyph-name="uni045E" unicode="&#x45e;" horiz-adv-x="858" 
d="M965 1032q-246 -487 -537 -985q-99 -171 -183.5 -261t-199.5 -157l-63 115q251 147 251 358q0 80 -43.5 374.5t-62.5 555.5h160q22 -269 63 -594q18 -162 21 -260h2q73 166 114 244q218 407 320 610h158zM299 1448h156q-20 -87 13.5 -128.5t121.5 -41.5q147 0 184 170
h156q-24 -130 -115 -200t-248 -70q-160 0 -223.5 67t-44.5 203z" />
    <glyph glyph-name="uni045F" unicode="&#x45f;" horiz-adv-x="1099" 
d="M365 -84h124l-63 -283h-162zM258 1032h160l-139 -653q-15 -73 -15 -133q0 -142 139 -142q128 0 338 156l164 772h160l-135 -637q-34 -156 -56 -395h-143l6 129q-112 -76 -201 -114t-174 -38q-123 0 -192.5 60.5t-69.5 187.5q0 65 19 154z" />
    <glyph glyph-name="uni0490" unicode="&#x490;" horiz-adv-x="864" 
d="M61 0l287 1358h578l75 323h127l-88 -464h-548l-259 -1217h-172z" />
    <glyph glyph-name="uni0491" unicode="&#x491;" horiz-adv-x="659" 
d="M41 0l141 668q42 199 143.5 281.5t317.5 82.5l59 254h123l-71 -381h-148q-117 0 -177 -53.5t-89 -189.5l-139 -662h-160z" />
    <glyph glyph-name="uni1E02" unicode="&#x1e02;" horiz-adv-x="1177" 
d="M487 0h-430l287 1358h410q203 0 297 -63t94 -193q0 -142 -77 -245.5t-216 -139.5v-2q105 -6 169 -69t64 -163q0 -74 -22 -142.5t-69.5 -131t-116 -108.5t-169 -73.5t-221.5 -27.5zM393 778h195q188 0 285.5 76t97.5 221q0 75 -59.5 109.5t-206.5 34.5h-218zM258 139h258
q194 0 293.5 91.5t99.5 232.5q0 90 -71 134t-226 44h-247zM821 1466h-176l39 181h176z" />
    <glyph glyph-name="uni1E03" unicode="&#x1e03;" 
d="M1042 727q0 -66 -8.5 -134t-29.5 -142t-52.5 -141t-80 -128t-109 -105.5t-144 -70.5t-180.5 -26q-107 0 -241 26l-160 -24l305 1443h160l-53 -254q-45 -223 -84 -331q69 99 168 157t206 58q303 0 303 -328zM872 713q0 116 -40.5 163.5t-126.5 47.5q-59 0 -120 -31
t-117 -89t-102 -150t-71 -205l-64 -297q119 -46 234 -46q92 0 166 44t118 110t73 150.5t39.5 159t10.5 143.5zM881 1194h-176l36 180h177z" />
    <glyph glyph-name="uni1E0A" unicode="&#x1e0a;" horiz-adv-x="1294" 
d="M61 0l287 1358l404 2q136 1 238.5 -34.5t162.5 -99.5t89.5 -144.5t29.5 -176.5q0 -71 -12 -150t-40 -168t-69.5 -171.5t-106.5 -159t-144.5 -133t-189.5 -90t-237 -33.5h-412zM262 139h240q127 0 230.5 52t168 132.5t109 183.5t62.5 199.5t18 186.5q0 328 -365 328h-233z
M907 1466h-176l39 181h176z" />
    <glyph glyph-name="uni1E0B" unicode="&#x1e0b;" horiz-adv-x="1110" 
d="M1161 1425l-219 -1030q-33 -148 -55 -395h-154l21 193q-69 -99 -169 -157.5t-208 -58.5q-303 0 -303 328q0 94 17.5 190.5t62 198.5t111 180.5t174 128.5t241.5 50q107 0 238 -27l83 399h160zM412 109q59 0 120.5 31t117 89t101 150t70.5 205l66 297q-117 45 -234 45
q-93 0 -166.5 -44t-118 -110t-73.5 -150.5t-40 -159.5t-11 -143q0 -116 40.5 -163t127.5 -47zM737 1202h-176l37 180h176z" />
    <glyph glyph-name="uni1E1E" unicode="&#x1e1e;" horiz-adv-x="962" 
d="M233 0h-172l287 1358h774l-47 -139h-583l-99 -461h518l-28 -137h-518zM858 1466h-176l39 181h176z" />
    <glyph glyph-name="uni1E1F" unicode="&#x1e1f;" horiz-adv-x="589" 
d="M842 1425l-45 -122q-50 12 -125 12q-86 0 -126.5 -44.5t-60.5 -140.5l-20 -98h250l-41 -127h-238l-180 -858q-30 -140 -73.5 -230.5t-131.5 -187.5l-100 86q99 117 139 305l186 885h-182l29 127h182l17 76q37 174 119.5 253t256.5 79q71 0 144 -15zM799 1520h-176l39 180
h176z" />
    <glyph glyph-name="uni1E40" unicode="&#x1e40;" horiz-adv-x="1695" 
d="M1460 0h-168q34 178 168 948q36 219 43 269h-4q-67 -126 -92 -170l-588 -1047h-145l-150 1047q-17 135 -20 170h-4q-6 -23 -33 -123t-39 -146q-127 -499 -231 -948h-166q143 623 370 1358h236l131 -920q16 -121 23 -239h4q61 142 118 243l514 916h236
q-81 -691 -203 -1358zM1110 1466h-176l39 181h176z" />
    <glyph glyph-name="uni1E41" unicode="&#x1e41;" horiz-adv-x="1679" 
d="M971 893q125 83 214.5 122.5t162.5 39.5q111 0 178 -61t67 -187q0 -69 -18 -154l-139 -653h-160l139 653q15 73 15 133q0 142 -123 142q-112 0 -322 -156l-164 -772h-157l139 653q14 68 14 133q0 142 -123 142q-111 0 -321 -156l-164 -772h-160l135 637q34 156 56 395
h143l-6 -129q225 152 358 152q95 0 156 -43.5t80 -118.5zM1087 1194h-176l37 180h176z" />
    <glyph glyph-name="uni1E56" unicode="&#x1e56;" horiz-adv-x="1112" 
d="M1149 1042q0 -108 -42.5 -202.5t-118 -163t-185 -108.5t-238.5 -40h-221l-111 -528h-172l287 1358h391q200 0 305 -83t105 -233zM975 1028q0 191 -254 191h-229l-117 -551h203q103 0 182 30.5t124.5 82.5t68 114.5t22.5 132.5zM842 1466h-176l39 181h176z" />
    <glyph glyph-name="uni1E57" unicode="&#x1e57;" horiz-adv-x="1110" 
d="M-25 -348l209 985q34 156 56 395h143l-10 -186q66 93 168 151t198 58q305 0 305 -328q0 -66 -7.5 -132.5t-27 -141.5t-49.5 -141.5t-78.5 -128t-110 -106t-148.5 -71t-189 -26.5q-109 0 -223 30l-76 -358h-160zM707 926q-52 0 -111 -31.5t-116 -89.5t-105 -151t-72 -205
l-61 -293q98 -50 223 -50q71 0 131 24.5t101.5 64t73.5 93.5t51 109.5t31 116t16.5 108.5t4.5 91q0 108 -39.5 160.5t-127.5 52.5zM807 1194h-176l37 180h176z" />
    <glyph glyph-name="uni1E60" unicode="&#x1e60;" horiz-adv-x="1249" 
d="M1194 1061l-174 -19q26 94 -27.5 146.5t-208.5 52.5q-159 0 -255.5 -73t-96.5 -187q0 -52 29.5 -90.5t78 -59.5t110.5 -40.5t126 -33t126 -38t110.5 -54.5t78 -83t29.5 -123q0 -73 -24 -142.5t-74 -131t-121 -108t-172.5 -73.5t-220.5 -27q-250 0 -356 102t-72 275
l178 21q-22 -131 40 -194.5t249 -63.5q175 0 282 86.5t107 212.5q0 51 -29.5 88.5t-77.5 58t-109 39.5t-125 32t-125 37t-109 54t-77.5 82.5t-29.5 122.5q0 86 33 164.5t98 143.5t174 103.5t248 38.5q81 0 147 -12t111 -33t77.5 -50.5t46 -65t16.5 -76t-11 -82.5zM915 1477
h-176l39 180h176z" />
    <glyph glyph-name="uni1E61" unicode="&#x1e61;" horiz-adv-x="1017" 
d="M403 -23q-192 0 -284 58t-92 160q0 37 14 81l162 15q-10 -27 -10 -53q0 -61 58.5 -95t172.5 -34q132 0 212.5 57t80.5 141q0 43 -31 72.5t-80.5 45t-109.5 28.5t-119.5 29.5t-109 41.5t-80.5 71.5t-31 111.5q0 148 117.5 248t330.5 100q158 0 255 -50.5t97 -148.5
q0 -25 -10 -63l-149 -13q4 12 4 33q0 56 -55 87.5t-154 31.5q-126 0 -197 -54.5t-71 -136.5q0 -38 24.5 -65.5t64 -42t90.5 -28t103.5 -23.5t103.5 -28.5t90.5 -42t64 -66t24.5 -99.5q0 -157 -131.5 -263t-354.5 -106zM758 1202h-176l36 180h177z" />
    <glyph glyph-name="uni1E6A" unicode="&#x1e6a;" horiz-adv-x="985" 
d="M1153 1358l-43 -141h-379l-256 -1217h-172l258 1217h-383l29 141h946zM786 1466h-176l39 181h176z" />
    <glyph glyph-name="uni1E6B" unicode="&#x1e6b;" horiz-adv-x="681" 
d="M541 127v-123q-102 -27 -176 -27q-123 0 -181.5 44.5t-58.5 140.5q0 54 14 114l133 629h-178l29 127h178l61 293l164 21l-65 -314h284l-45 -127h-268l-129 -614q-12 -56 -12 -94q0 -95 115 -95q62 0 135 25zM561 1440h-176l37 180h176z" />
    <glyph glyph-name="Wgrave" unicode="&#x1e80;" horiz-adv-x="1806" 
d="M1300 0h-215l-43 895q-4 123 7 264h-5q-62 -169 -102 -254l-426 -905h-215q-69 692 -72 1358h172q-1 -149 3.5 -345t11.5 -389.5t8 -238.5q6 -204 6 -244h4q59 146 105 244l458 973h181l47 -981q6 -177 6 -236h4q105 243 106 244q301 647 437 973h168
q-296 -688 -646 -1358zM1174 1466h-125l-201 226h184z" />
    <glyph glyph-name="wgrave" unicode="&#x1e81;" horiz-adv-x="1409" 
d="M989 0h-192l-19 614q-3 81 8 250h-4q-44 -138 -84 -227l-290 -637h-193q-60 494 -57 1032h161q0 -110 2.5 -223t8 -267t6.5 -200q3 -93 0 -199h4q44 129 88 226l303 663h182l19 -616q6 -133 2 -273h4q48 138 96 240q1 2 64 136.5t122 267t105 245.5h160
q-211 -501 -496 -1032zM924 1182h-125l-207 278h184z" />
    <glyph glyph-name="Wacute" unicode="&#x1e82;" horiz-adv-x="1806" 
d="M1300 0h-215l-43 895q-4 123 7 264h-5q-62 -169 -102 -254l-426 -905h-215q-69 692 -72 1358h172q-1 -149 3.5 -345t11.5 -389.5t8 -238.5q6 -204 6 -244h4q59 146 105 244l458 973h181l47 -981q6 -177 6 -236h4q105 243 106 244q301 647 437 973h168
q-296 -688 -646 -1358zM1391 1692l-217 -226h-125l157 226h185z" />
    <glyph glyph-name="wacute" unicode="&#x1e83;" horiz-adv-x="1409" 
d="M989 0h-192l-19 614q-3 81 8 250h-4q-44 -138 -84 -227l-290 -637h-193q-60 494 -57 1032h161q0 -110 2.5 -223t8 -267t6.5 -200q3 -93 0 -199h4q44 129 88 226l303 663h182l19 -616q6 -133 2 -273h4q48 138 96 240q1 2 64 136.5t122 267t105 245.5h160
q-211 -501 -496 -1032zM1194 1460l-285 -278h-129l230 278h184z" />
    <glyph glyph-name="Wdieresis" unicode="&#x1e84;" horiz-adv-x="1806" 
d="M1300 0h-215l-43 895q-4 123 7 264h-5q-62 -169 -102 -254l-426 -905h-215q-69 692 -72 1358h172q-1 -149 3.5 -345t11.5 -389.5t8 -238.5q6 -204 6 -244h4q59 146 105 244l458 973h181l47 -981q6 -177 6 -236h4q105 243 106 244q301 647 437 973h168
q-296 -688 -646 -1358zM1358 1466h-176l39 181h176zM1040 1466h-176l39 181h176z" />
    <glyph glyph-name="wdieresis" unicode="&#x1e85;" horiz-adv-x="1409" 
d="M989 0h-192l-19 614q-3 81 8 250h-4q-44 -138 -84 -227l-290 -637h-193q-60 494 -57 1032h161q0 -110 2.5 -223t8 -267t6.5 -200q3 -93 0 -199h4q44 129 88 226l303 663h182l19 -616q6 -133 2 -273h4q48 138 96 240q1 2 64 136.5t122 267t105 245.5h160
q-211 -501 -496 -1032zM1110 1194h-176l37 180h176zM793 1194h-177l37 180h176z" />
    <glyph glyph-name="uni1EA0" unicode="&#x1ea0;" horiz-adv-x="1175" 
d="M1053 0h-176q-12 174 -31 371h-567q-113 -220 -185 -371h-180q288 586 752 1358h211q116 -583 176 -1358zM350 508h481q-18 208 -51 463q-15 118 -37 246h-4q-45 -78 -131 -230q-117 -209 -258 -479zM352 -162h160l-39 -180h-160z" />
    <glyph glyph-name="uni1EA1" unicode="&#x1ea1;" 
d="M1081 1049l-139 -654q-33 -148 -55 -395h-154l21 193q-69 -98 -168.5 -155.5t-208.5 -57.5q-303 0 -303 325q0 78 12.5 157.5t39.5 165.5t75 160.5t112.5 134t158.5 94t206 34.5q103 0 242 -27zM412 111q59 0 120 31t117 88.5t101.5 149t70.5 204.5l64 295
q-117 45 -234 45q-78 0 -142.5 -30t-107.5 -81.5t-75 -113t-49 -132t-25 -131.5t-8 -117q0 -116 40.5 -162t127.5 -46zM317 -162h160l-39 -180h-159z" />
    <glyph glyph-name="uni1EA2" unicode="&#x1ea2;" horiz-adv-x="1175" 
d="M1053 0h-176q-12 174 -31 371h-567q-113 -220 -185 -371h-180q288 586 752 1358h211q116 -583 176 -1358zM350 508h481q-18 208 -51 463q-15 118 -37 246h-4q-45 -78 -131 -230q-117 -209 -258 -479zM752 1446l-7 88q71 18 107.5 46.5t36.5 61.5q0 25 -26 39.5t-70 14.5
q-47 0 -98.5 -12t-69.5 -21l-9 92q118 43 220 43q89 0 137.5 -33.5t48.5 -85.5q0 -48 -25 -89t-66.5 -68.5t-85.5 -46t-93 -29.5z" />
    <glyph glyph-name="uni1EA3" unicode="&#x1ea3;" 
d="M1081 1049l-139 -654q-33 -148 -55 -395h-154l21 193q-69 -98 -168.5 -155.5t-208.5 -57.5q-303 0 -303 325q0 78 12.5 157.5t39.5 165.5t75 160.5t112.5 134t158.5 94t206 34.5q103 0 242 -27zM412 111q59 0 120 31t117 88.5t101.5 149t70.5 204.5l64 295
q-117 45 -234 45q-78 0 -142.5 -30t-107.5 -81.5t-75 -113t-49 -132t-25 -131.5t-8 -117q0 -116 40.5 -162t127.5 -46zM664 1143l-7 88q61 18 102.5 53t41.5 76q0 25 -24 40t-70 15q-81 0 -164 -33l-11 93q117 43 218 43q89 0 138.5 -33.5t49.5 -89.5q0 -85 -74 -151.5
t-200 -100.5z" />
    <glyph glyph-name="uni1EA4" unicode="&#x1ea4;" horiz-adv-x="1175" 
d="M1053 0h-176q-12 174 -31 371h-567q-113 -220 -185 -371h-180q288 586 752 1358h211q116 -583 176 -1358zM350 508h481q-18 208 -51 463q-15 118 -37 246h-4q-45 -78 -131 -230q-117 -209 -258 -479zM1069 1460h-137l-109 135l-168 -135h-137l246 213h147zM887 1774h-121
l176 213h166z" />
    <glyph glyph-name="uni1EA5" unicode="&#x1ea5;" 
d="M1081 1049l-139 -654q-33 -148 -55 -395h-154l21 193q-69 -98 -168.5 -155.5t-208.5 -57.5q-303 0 -303 325q0 78 12.5 157.5t39.5 165.5t75 160.5t112.5 134t158.5 94t206 34.5q103 0 242 -27zM412 111q59 0 120 31t117 88.5t101.5 149t70.5 204.5l64 295
q-117 45 -234 45q-78 0 -142.5 -30t-107.5 -81.5t-75 -113t-49 -132t-25 -131.5t-8 -117q0 -116 40.5 -162t127.5 -46zM979 1180h-137l-107 145l-164 -145h-143l248 223h147zM788 1497h-116l180 223h170z" />
    <glyph glyph-name="uni1EA6" unicode="&#x1ea6;" horiz-adv-x="1175" 
d="M1053 0h-176q-12 174 -31 371h-567q-113 -220 -185 -371h-180q288 586 752 1358h211q116 -583 176 -1358zM350 508h481q-18 208 -51 463q-15 118 -37 246h-4q-45 -78 -131 -230q-117 -209 -258 -479zM1073 1460h-137l-109 135l-168 -135h-137l246 213h147zM961 1774h-113
l-164 213h172z" />
    <glyph glyph-name="uni1EA7" unicode="&#x1ea7;" 
d="M1081 1049l-139 -654q-33 -148 -55 -395h-154l21 193q-69 -98 -168.5 -155.5t-208.5 -57.5q-303 0 -303 325q0 78 12.5 157.5t39.5 165.5t75 160.5t112.5 134t158.5 94t206 34.5q103 0 242 -27zM412 111q59 0 120 31t117 88.5t101.5 149t70.5 204.5l64 295
q-117 45 -234 45q-78 0 -142.5 -30t-107.5 -81.5t-75 -113t-49 -132t-25 -131.5t-8 -117q0 -116 40.5 -162t127.5 -46zM870 1497h-112l-164 223h166zM983 1180h-137l-107 145l-164 -145h-143l248 223h147z" />
    <glyph glyph-name="uni1EA8" unicode="&#x1ea8;" horiz-adv-x="1175" 
d="M1053 0h-176q-12 174 -31 371h-567q-113 -220 -185 -371h-180q288 586 752 1358h211q116 -583 176 -1358zM350 508h481q-18 208 -51 463q-15 118 -37 246h-4q-45 -78 -131 -230q-117 -209 -258 -479zM928 1864l-8 84q88 39 157 39q64 0 99.5 -29.5t35.5 -79.5
q0 -118 -168 -227l-51 67q92 72 92 131q0 39 -53 39q-40 0 -104 -24zM1065 1460h-137l-109 135l-168 -135h-137l246 213h147z" />
    <glyph glyph-name="uni1EA9" unicode="&#x1ea9;" 
d="M1081 1049l-139 -654q-33 -148 -55 -395h-154l21 193q-69 -98 -168.5 -155.5t-208.5 -57.5q-303 0 -303 325q0 78 12.5 157.5t39.5 165.5t75 160.5t112.5 134t158.5 94t206 34.5q103 0 242 -27zM412 111q59 0 120 31t117 88.5t101.5 149t70.5 204.5l64 295
q-117 45 -234 45q-78 0 -142.5 -30t-107.5 -81.5t-75 -113t-49 -132t-25 -131.5t-8 -117q0 -116 40.5 -162t127.5 -46zM848 1595l-8 84q88 39 157 39q64 0 100 -29t36 -79q0 -59 -44.5 -118t-123.5 -110l-52 68q93 72 93 131q0 39 -54 39q-37 0 -104 -25zM983 1180h-137
l-107 145l-164 -145h-143l248 223h147z" />
    <glyph glyph-name="uni1EAA" unicode="&#x1eaa;" horiz-adv-x="1175" 
d="M1053 0h-176q-12 174 -31 371h-567q-113 -220 -185 -371h-180q288 586 752 1358h211q116 -583 176 -1358zM350 508h481q-18 208 -51 463q-15 118 -37 246h-4q-45 -78 -131 -230q-117 -209 -258 -479zM1137 1980l73 -57q-37 -70 -92.5 -107.5t-122.5 -37.5
q-41 0 -76.5 14.5t-56.5 32.5t-49.5 32.5t-58.5 14.5q-66 0 -125 -96l-74 57q37 70 92.5 107.5t122.5 37.5q41 0 77 -14.5t56.5 -32.5t49.5 -32.5t59 -14.5q66 0 125 96zM1071 1460h-137l-109 135l-168 -135h-137l246 213h147z" />
    <glyph glyph-name="uni1EAB" unicode="&#x1eab;" 
d="M1081 1049l-139 -654q-33 -148 -55 -395h-154l21 193q-69 -98 -168.5 -155.5t-208.5 -57.5q-303 0 -303 325q0 78 12.5 157.5t39.5 165.5t75 160.5t112.5 134t158.5 94t206 34.5q103 0 242 -27zM412 111q59 0 120 31t117 88.5t101.5 149t70.5 204.5l64 295
q-117 45 -234 45q-78 0 -142.5 -30t-107.5 -81.5t-75 -113t-49 -132t-25 -131.5t-8 -117q0 -116 40.5 -162t127.5 -46zM1057 1710l73 -57q-37 -70 -92.5 -108t-122.5 -38q-41 0 -78.5 15t-60.5 32.5t-53.5 32.5t-60.5 15q-65 0 -125 -97l-74 58q37 70 92.5 107.5t122.5 37.5
q52 0 96.5 -23.5t82.5 -47t75 -23.5q66 0 125 96zM983 1180h-137l-107 145l-164 -145h-143l248 223h147z" />
    <glyph glyph-name="uni1EAC" unicode="&#x1eac;" horiz-adv-x="1175" 
d="M1053 0h-176q-12 174 -31 371h-567q-113 -220 -185 -371h-180q288 586 752 1358h211q116 -583 176 -1358zM350 508h481q-18 208 -51 463q-15 118 -37 246h-4q-45 -78 -131 -230q-117 -209 -258 -479zM1059 1466h-139l-95 144l-155 -144h-138l242 230h137zM352 -162h160
l-39 -180h-160z" />
    <glyph glyph-name="uni1EAD" unicode="&#x1ead;" 
d="M1081 1049l-139 -654q-33 -148 -55 -395h-154l21 193q-69 -98 -168.5 -155.5t-208.5 -57.5q-303 0 -303 325q0 78 12.5 157.5t39.5 165.5t75 160.5t112.5 134t158.5 94t206 34.5q103 0 242 -27zM412 111q59 0 120 31t117 88.5t101.5 149t70.5 204.5l64 295
q-117 45 -234 45q-78 0 -142.5 -30t-107.5 -81.5t-75 -113t-49 -132t-25 -131.5t-8 -117q0 -116 40.5 -162t127.5 -46zM997 1190h-139l-113 184l-196 -184h-137l280 270h137zM317 -162h160l-39 -180h-159z" />
    <glyph glyph-name="uni1EAE" unicode="&#x1eae;" horiz-adv-x="1175" 
d="M1053 0h-176q-12 174 -31 371h-567q-113 -220 -185 -371h-180q288 586 752 1358h211q116 -583 176 -1358zM350 508h481q-18 208 -51 463q-15 118 -37 246h-4q-45 -78 -131 -230q-117 -209 -258 -479zM1020 1692h121q-28 -114 -121 -175t-221 -61q-119 0 -191 62t-65 174
h116q-3 -63 39.5 -95t110.5 -32t126 30t85 97zM885 1774h-121l176 213h166z" />
    <glyph glyph-name="uni1EAF" unicode="&#x1eaf;" 
d="M1081 1049l-139 -654q-33 -148 -55 -395h-154l21 193q-69 -98 -168.5 -155.5t-208.5 -57.5q-303 0 -303 325q0 78 12.5 157.5t39.5 165.5t75 160.5t112.5 134t158.5 94t206 34.5q103 0 242 -27zM412 111q59 0 120 31t117 88.5t101.5 149t70.5 204.5l64 295
q-117 45 -234 45q-78 0 -142.5 -30t-107.5 -81.5t-75 -113t-49 -132t-25 -131.5t-8 -117q0 -116 40.5 -162t127.5 -46zM799 1489h-117l180 223h170zM932 1403h121q-28 -114 -121 -175t-221 -61q-119 0 -191 62t-65 174h116q-3 -63 39.5 -95t110.5 -32t126 30t85 97z" />
    <glyph glyph-name="uni1EB0" unicode="&#x1eb0;" horiz-adv-x="1175" 
d="M1053 0h-176q-12 174 -31 371h-567q-113 -220 -185 -371h-180q288 586 752 1358h211q116 -583 176 -1358zM350 508h481q-18 208 -51 463q-15 118 -37 246h-4q-45 -78 -131 -230q-117 -209 -258 -479zM1020 1692h121q-28 -114 -121 -175t-221 -61q-119 0 -191 62t-65 174
h116q-3 -63 39.5 -95t110.5 -32t126 30t85 97zM934 1774h-113l-164 213h172z" />
    <glyph glyph-name="uni1EB1" unicode="&#x1eb1;" 
d="M1081 1049l-139 -654q-33 -148 -55 -395h-154l21 193q-69 -98 -168.5 -155.5t-208.5 -57.5q-303 0 -303 325q0 78 12.5 157.5t39.5 165.5t75 160.5t112.5 134t158.5 94t206 34.5q103 0 242 -27zM412 111q59 0 120 31t117 88.5t101.5 149t70.5 204.5l64 295
q-117 45 -234 45q-78 0 -142.5 -30t-107.5 -81.5t-75 -113t-49 -132t-25 -131.5t-8 -117q0 -116 40.5 -162t127.5 -46zM866 1489h-112l-164 223h166zM932 1403h121q-28 -114 -121 -175t-221 -61q-119 0 -191 62t-65 174h116q-3 -63 39.5 -95t110.5 -32t126 30t85 97z" />
    <glyph glyph-name="uni1EB2" unicode="&#x1eb2;" horiz-adv-x="1175" 
d="M1053 0h-176q-12 174 -31 371h-567q-113 -220 -185 -371h-180q288 586 752 1358h211q116 -583 176 -1358zM350 508h481q-18 208 -51 463q-15 118 -37 246h-4q-45 -78 -131 -230q-117 -209 -258 -479zM727 1864l-10 84q86 39 164 39q57 0 93 -29t36 -78q0 -47 -32 -98
t-89 -94l-82 45q74 61 74 114q0 41 -52 41q-37 0 -102 -24zM1020 1692h121q-28 -114 -121 -175t-221 -61q-119 0 -191 62t-65 174h116q-3 -63 39.5 -95t110.5 -32t126 30t85 97z" />
    <glyph glyph-name="uni1EB3" unicode="&#x1eb3;" 
d="M1081 1049l-139 -654q-33 -148 -55 -395h-154l21 193q-69 -98 -168.5 -155.5t-208.5 -57.5q-303 0 -303 325q0 78 12.5 157.5t39.5 165.5t75 160.5t112.5 134t158.5 94t206 34.5q103 0 242 -27zM412 111q59 0 120 31t117 88.5t101.5 149t70.5 204.5l64 295
q-117 45 -234 45q-78 0 -142.5 -30t-107.5 -81.5t-75 -113t-49 -132t-25 -131.5t-8 -117q0 -116 40.5 -162t127.5 -46zM639 1587l-10 84q86 39 164 39q57 0 93 -28.5t36 -77.5q0 -48 -34 -102t-93 -99l-82 45q35 29 57.5 62.5t22.5 60.5q0 41 -52 41q-35 0 -102 -25z
M932 1403h121q-28 -114 -121 -175t-221 -61q-119 0 -191 62t-65 174h116q-3 -63 39.5 -95t110.5 -32t126 30t85 97z" />
    <glyph glyph-name="uni1EB4" unicode="&#x1eb4;" horiz-adv-x="1175" 
d="M1053 0h-176q-12 174 -31 371h-567q-113 -220 -185 -371h-180q288 586 752 1358h211q116 -583 176 -1358zM350 508h481q-18 208 -51 463q-15 118 -37 246h-4q-45 -78 -131 -230q-117 -209 -258 -479zM1135 1987l73 -58q-37 -70 -92.5 -107.5t-122.5 -37.5
q-41 0 -76.5 14.5t-56.5 32.5t-49.5 32.5t-58.5 14.5q-66 0 -125 -96l-74 57q37 70 92.5 108t122.5 38q41 0 77 -15t56.5 -32.5t49.5 -32.5t59 -15q65 0 125 97zM999 1692h121q-28 -114 -121 -175t-221 -61q-119 0 -191 62t-65 174h117q-3 -63 39.5 -95t109.5 -32
q68 0 126 30t85 97z" />
    <glyph glyph-name="uni1EB5" unicode="&#x1eb5;" 
d="M1081 1049l-139 -654q-33 -148 -55 -395h-154l21 193q-69 -98 -168.5 -155.5t-208.5 -57.5q-303 0 -303 325q0 78 12.5 157.5t39.5 165.5t75 160.5t112.5 134t158.5 94t206 34.5q103 0 242 -27zM412 111q59 0 120 31t117 88.5t101.5 149t70.5 204.5l64 295
q-117 45 -234 45q-78 0 -142.5 -30t-107.5 -81.5t-75 -113t-49 -132t-25 -131.5t-8 -117q0 -116 40.5 -162t127.5 -46zM1075 1702l74 -57q-37 -70 -92.5 -108t-122.5 -38q-52 0 -96.5 23.5t-82.5 47t-75 23.5q-66 0 -125 -96l-74 57q37 70 92.5 108t122.5 38
q52 0 96.5 -23.5t82.5 -47t75 -23.5q66 0 125 96zM932 1403h121q-28 -114 -121 -175t-221 -61q-119 0 -191 62t-65 174h116q-3 -63 39.5 -95t110.5 -32t126 30t85 97z" />
    <glyph glyph-name="uni1EB6" unicode="&#x1eb6;" horiz-adv-x="1175" 
d="M1053 0h-176q-12 174 -31 371h-567q-113 -220 -185 -371h-180q288 586 752 1358h211q116 -583 176 -1358zM350 508h481q-18 208 -51 463q-15 118 -37 246h-4q-45 -78 -131 -230q-117 -209 -258 -479zM1016 1706h117q-28 -123 -118.5 -186.5t-213.5 -63.5
q-132 0 -198 60.5t-56 189.5h123q-9 -70 31.5 -103.5t113.5 -33.5q154 0 201 137zM352 -162h160l-39 -180h-160z" />
    <glyph glyph-name="uni1EB7" unicode="&#x1eb7;" 
d="M1081 1049l-139 -654q-33 -148 -55 -395h-154l21 193q-69 -98 -168.5 -155.5t-208.5 -57.5q-303 0 -303 325q0 78 12.5 157.5t39.5 165.5t75 160.5t112.5 134t158.5 94t206 34.5q103 0 242 -27zM412 111q59 0 120 31t117 88.5t101.5 149t70.5 204.5l64 295
q-117 45 -234 45q-78 0 -142.5 -30t-107.5 -81.5t-75 -113t-49 -132t-25 -131.5t-8 -117q0 -116 40.5 -162t127.5 -46zM930 1427h114q-32 -127 -118 -188t-209 -61q-133 0 -200 60t-58 189h123q-10 -67 30 -102t111 -35q76 0 131.5 35t75.5 102zM338 -162h160l-39 -180h-160
z" />
    <glyph glyph-name="uni1EB8" unicode="&#x1eb8;" horiz-adv-x="1062" 
d="M899 0h-838l287 1358h819l-47 -139h-628l-95 -441h523l-29 -137h-522l-107 -500h666zM375 -162h160l-39 -180h-160z" />
    <glyph glyph-name="uni1EB9" unicode="&#x1eb9;" horiz-adv-x="1042" 
d="M911 137q-129 -83 -235 -121.5t-225 -38.5q-180 0 -276.5 97t-96.5 276q0 54 8 114t27.5 129.5t48.5 134t76 125t106 104.5t141.5 71t178.5 27q173 0 260.5 -64.5t87.5 -181.5q0 -139 -111.5 -224t-341.5 -85h-299q-16 -70 -16 -148q0 -119 59 -183.5t172 -64.5
q171 0 377 138zM846 793q0 62 -49 100.5t-150 38.5q-73 0 -135 -27t-104.5 -73.5t-71.5 -100t-45 -113.5h278q277 0 277 175zM334 -162h160l-39 -180h-160z" />
    <glyph glyph-name="uni1EBA" unicode="&#x1eba;" horiz-adv-x="1062" 
d="M899 0h-838l287 1358h819l-47 -139h-628l-95 -441h523l-29 -137h-522l-107 -500h666zM788 1446l-6 88q71 18 107.5 46.5t36.5 61.5q0 25 -26.5 39.5t-70.5 14.5q-47 0 -98 -12t-69 -21l-9 92q118 43 219 43q89 0 138 -33.5t49 -85.5q0 -48 -25 -89t-66.5 -68.5t-86 -46
t-93.5 -29.5z" />
    <glyph glyph-name="uni1EBB" unicode="&#x1ebb;" horiz-adv-x="1042" 
d="M911 137q-129 -83 -235 -121.5t-225 -38.5q-180 0 -276.5 97t-96.5 276q0 54 8 114t27.5 129.5t48.5 134t76 125t106 104.5t141.5 71t178.5 27q173 0 260.5 -64.5t87.5 -181.5q0 -139 -111.5 -224t-341.5 -85h-299q-16 -70 -16 -148q0 -119 59 -183.5t172 -64.5
q171 0 377 138zM846 793q0 62 -49 100.5t-150 38.5q-73 0 -135 -27t-104.5 -73.5t-71.5 -100t-45 -113.5h278q277 0 277 175zM680 1143l-6 88q61 18 102 53t41 76q0 25 -24 40t-70 15q-81 0 -164 -33l-10 93q117 43 217 43q89 0 138.5 -33.5t49.5 -89.5q0 -85 -74 -151.5
t-200 -100.5z" />
    <glyph glyph-name="uni1EBC" unicode="&#x1ebc;" horiz-adv-x="1062" 
d="M899 0h-838l287 1358h819l-47 -139h-628l-95 -441h523l-29 -137h-522l-107 -500h666zM1061 1651l84 -62q-36 -56 -96 -89.5t-131 -33.5q-56 0 -105.5 17.5t-89 35t-72.5 17.5q-96 0 -145 -82l-84 62q36 63 96.5 99t134.5 36q70 0 146.5 -35t130.5 -35q38 0 73.5 19
t57.5 51z" />
    <glyph glyph-name="uni1EBD" unicode="&#x1ebd;" horiz-adv-x="1042" 
d="M911 137q-129 -83 -235 -121.5t-225 -38.5q-180 0 -276.5 97t-96.5 276q0 54 8 114t27.5 129.5t48.5 134t76 125t106 104.5t141.5 71t178.5 27q173 0 260.5 -64.5t87.5 -181.5q0 -139 -111.5 -224t-341.5 -85h-299q-16 -70 -16 -148q0 -119 59 -183.5t172 -64.5
q171 0 377 138zM846 793q0 62 -49 100.5t-150 38.5q-73 0 -135 -27t-104.5 -73.5t-71.5 -100t-45 -113.5h278q277 0 277 175zM1012 1397l80 -62q-40 -75 -100 -116t-132 -41q-57 0 -111 25.5t-100.5 51t-85.5 25.5q-73 0 -133 -104l-82 61q40 75 100 116.5t132 41.5
q45 0 89.5 -16t73.5 -35.5t65.5 -35.5t68.5 -16q71 0 135 105z" />
    <glyph glyph-name="uni1EBE" unicode="&#x1ebe;" horiz-adv-x="1062" 
d="M899 0h-838l287 1358h819l-47 -139h-628l-95 -441h523l-29 -137h-522l-107 -500h666zM1055 1460h-137l-109 135l-168 -135h-137l246 213h147zM872 1774h-120l176 213h166z" />
    <glyph glyph-name="uni1EBF" unicode="&#x1ebf;" horiz-adv-x="1042" 
d="M911 137q-129 -83 -235 -121.5t-225 -38.5q-180 0 -276.5 97t-96.5 276q0 54 8 114t27.5 129.5t48.5 134t76 125t106 104.5t141.5 71t178.5 27q173 0 260.5 -64.5t87.5 -181.5q0 -139 -111.5 -224t-341.5 -85h-299q-16 -70 -16 -148q0 -119 59 -183.5t172 -64.5
q171 0 377 138zM846 793q0 62 -49 100.5t-150 38.5q-73 0 -135 -27t-104.5 -73.5t-71.5 -100t-45 -113.5h278q277 0 277 175zM969 1180h-138l-106 145l-164 -145h-143l248 223h147zM778 1497h-116l180 223h170z" />
    <glyph glyph-name="uni1EC0" unicode="&#x1ec0;" horiz-adv-x="1062" 
d="M899 0h-838l287 1358h819l-47 -139h-628l-95 -441h523l-29 -137h-522l-107 -500h666zM1055 1460h-137l-109 135l-168 -135h-137l246 213h147zM942 1774h-113l-163 213h172z" />
    <glyph glyph-name="uni1EC1" unicode="&#x1ec1;" horiz-adv-x="1042" 
d="M911 137q-129 -83 -235 -121.5t-225 -38.5q-180 0 -276.5 97t-96.5 276q0 54 8 114t27.5 129.5t48.5 134t76 125t106 104.5t141.5 71t178.5 27q173 0 260.5 -64.5t87.5 -181.5q0 -139 -111.5 -224t-341.5 -85h-299q-16 -70 -16 -148q0 -119 59 -183.5t172 -64.5
q171 0 377 138zM846 793q0 62 -49 100.5t-150 38.5q-73 0 -135 -27t-104.5 -73.5t-71.5 -100t-45 -113.5h278q277 0 277 175zM856 1497h-113l-163 223h165zM969 1180h-138l-106 145l-164 -145h-143l248 223h147z" />
    <glyph glyph-name="uni1EC2" unicode="&#x1ec2;" horiz-adv-x="1062" 
d="M899 0h-838l287 1358h819l-47 -139h-628l-95 -441h523l-29 -137h-522l-107 -500h666zM905 1864l-8 84q88 39 158 39q64 0 99.5 -29.5t35.5 -79.5q0 -118 -168 -227l-51 67q92 72 92 131q0 39 -53 39q-40 0 -105 -24zM1042 1460h-137l-108 135l-168 -135h-137l245 213h148
z" />
    <glyph glyph-name="uni1EC3" unicode="&#x1ec3;" horiz-adv-x="1042" 
d="M911 137q-129 -83 -235 -121.5t-225 -38.5q-180 0 -276.5 97t-96.5 276q0 54 8 114t27.5 129.5t48.5 134t76 125t106 104.5t141.5 71t178.5 27q173 0 260.5 -64.5t87.5 -181.5q0 -139 -111.5 -224t-341.5 -85h-299q-16 -70 -16 -148q0 -119 59 -183.5t172 -64.5
q171 0 377 138zM846 793q0 62 -49 100.5t-150 38.5q-73 0 -135 -27t-104.5 -73.5t-71.5 -100t-45 -113.5h278q277 0 277 175zM834 1595l-9 84q88 39 158 39q64 0 99.5 -29t35.5 -79q0 -59 -44.5 -118t-123.5 -110l-51 68q92 72 92 131q0 39 -53 39q-37 0 -104 -25zM969 1180
h-138l-106 145l-164 -145h-143l248 223h147z" />
    <glyph glyph-name="uni1EC4" unicode="&#x1ec4;" horiz-adv-x="1062" 
d="M899 0h-838l287 1358h819l-47 -139h-628l-95 -441h523l-29 -137h-522l-107 -500h666zM1120 1980l74 -57q-37 -70 -92.5 -107.5t-122.5 -37.5q-41 0 -77 14.5t-56.5 32.5t-49.5 32.5t-59 14.5q-66 0 -125 -96l-73 57q37 70 92.5 107.5t122.5 37.5q41 0 76.5 -14.5
t56.5 -32.5t49.5 -32.5t58.5 -14.5q66 0 125 96zM1055 1460h-137l-109 135l-168 -135h-137l246 213h147z" />
    <glyph glyph-name="uni1EC5" unicode="&#x1ec5;" horiz-adv-x="1042" 
d="M911 137q-129 -83 -235 -121.5t-225 -38.5q-180 0 -276.5 97t-96.5 276q0 54 8 114t27.5 129.5t48.5 134t76 125t106 104.5t141.5 71t178.5 27q173 0 260.5 -64.5t87.5 -181.5q0 -139 -111.5 -224t-341.5 -85h-299q-16 -70 -16 -148q0 -119 59 -183.5t172 -64.5
q171 0 377 138zM846 793q0 62 -49 100.5t-150 38.5q-73 0 -135 -27t-104.5 -73.5t-71.5 -100t-45 -113.5h278q277 0 277 175zM1042 1710l74 -57q-37 -70 -92.5 -108t-122.5 -38q-41 0 -78.5 15t-61 32.5t-54 32.5t-60.5 15q-65 0 -125 -97l-73 58q37 70 92.5 107.5
t122.5 37.5q52 0 96.5 -23.5t82.5 -47t75 -23.5q65 0 124 96zM969 1180h-138l-106 145l-164 -145h-143l248 223h147z" />
    <glyph glyph-name="uni1EC6" unicode="&#x1ec6;" horiz-adv-x="1062" 
d="M899 0h-838l287 1358h819l-47 -139h-628l-95 -441h523l-29 -137h-522l-107 -500h666zM1044 1466h-139l-94 144l-156 -144h-137l242 230h137zM350 -162h160l-39 -180h-160z" />
    <glyph glyph-name="uni1EC7" unicode="&#x1ec7;" horiz-adv-x="1042" 
d="M911 137q-129 -83 -235 -121.5t-225 -38.5q-180 0 -276.5 97t-96.5 276q0 54 8 114t27.5 129.5t48.5 134t76 125t106 104.5t141.5 71t178.5 27q173 0 260.5 -64.5t87.5 -181.5q0 -139 -111.5 -224t-341.5 -85h-299q-16 -70 -16 -148q0 -119 59 -183.5t172 -64.5
q171 0 377 138zM846 793q0 62 -49 100.5t-150 38.5q-73 0 -135 -27t-104.5 -73.5t-71.5 -100t-45 -113.5h278q277 0 277 175zM1001 1190h-139l-112 184l-197 -184h-137l280 270h138zM334 -162h160l-39 -180h-160z" />
    <glyph glyph-name="uni1EC8" unicode="&#x1ec8;" horiz-adv-x="499" 
d="M233 0h-172l287 1358h172zM416 1446l-6 88q70 18 106.5 46.5t36.5 61.5q0 25 -26 39.5t-70 14.5q-47 0 -98.5 -12t-69.5 -21l-8 92q118 43 219 43q89 0 137.5 -33.5t48.5 -85.5q0 -48 -25 -89t-66.5 -68.5t-85.5 -46t-93 -29.5z" />
    <glyph glyph-name="uni1EC9" unicode="&#x1ec9;" horiz-adv-x="446" 
d="M201 0h-160l219 1032h160zM354 1143l-6 88q61 18 102.5 53t41.5 76q0 25 -24.5 40t-70.5 15q-81 0 -164 -33l-10 93q117 43 217 43q89 0 139 -33.5t50 -89.5q0 -85 -74.5 -151t-200.5 -101z" />
    <glyph glyph-name="uni1ECA" unicode="&#x1eca;" horiz-adv-x="499" 
d="M233 0h-172l287 1358h172zM35 -162h160l-39 -180h-160z" />
    <glyph glyph-name="uni1ECB" unicode="&#x1ecb;" horiz-adv-x="446" 
d="M461 1194h-176l37 180h176zM201 0h-160l219 1032h160zM8 -162h160l-39 -180h-160z" />
    <glyph glyph-name="uni1ECC" unicode="&#x1ecc;" horiz-adv-x="1372" 
d="M578 -20q-229 0 -348 123t-119 335q0 75 13 159t42 176t71.5 178t105.5 164t139 136t178 92.5t217 34.5q229 0 347.5 -123t118.5 -335q0 -75 -13 -159t-42 -176t-71 -178t-105 -164t-139 -136t-178 -92.5t-217 -34.5zM590 117q87 0 164.5 30.5t134.5 81.5t104.5 118.5
t78.5 140.5t52.5 149.5t31 143.5t9.5 124q0 336 -303 336q-120 0 -220 -58t-163.5 -146t-108 -197t-63 -207t-18.5 -180q0 -336 301 -336zM469 -162h160l-39 -180h-160z" />
    <glyph glyph-name="uni1ECD" unicode="&#x1ecd;" horiz-adv-x="1134" 
d="M1073 698q0 -47 -10 -112t-31.5 -145.5t-65.5 -163t-102 -140.5q-160 -160 -403 -160q-189 0 -286 96t-97 261q0 47 10 112t31.5 145.5t65.5 163t102 140.5q160 160 403 160q189 0 286 -96t97 -261zM899 682q0 124 -60 185t-169 61q-69 0 -135.5 -26.5t-116.5 -76.5
q-83 -83 -124.5 -223t-41.5 -252q0 -124 60 -185t169 -61q69 0 135.5 26.5t116.5 76.5q83 83 124.5 223t41.5 252zM338 -162h160l-39 -180h-160z" />
    <glyph glyph-name="uni1ECE" unicode="&#x1ece;" horiz-adv-x="1372" 
d="M578 -20q-229 0 -348 123t-119 335q0 75 13 159t42 176t71.5 178t105.5 164t139 136t178 92.5t217 34.5q229 0 347.5 -123t118.5 -335q0 -75 -13 -159t-42 -176t-71 -178t-105 -164t-139 -136t-178 -92.5t-217 -34.5zM590 117q87 0 164.5 30.5t134.5 81.5t104.5 118.5
t78.5 140.5t52.5 149.5t31 143.5t9.5 124q0 336 -303 336q-120 0 -220 -58t-163.5 -146t-108 -197t-63 -207t-18.5 -180q0 -336 301 -336zM858 1446l-6 88q70 18 106.5 46.5t36.5 61.5q0 25 -26 39.5t-70 14.5q-47 0 -98.5 -12t-69.5 -21l-8 92q118 43 219 43
q89 0 137.5 -33.5t48.5 -85.5q0 -48 -25 -89t-66.5 -68.5t-85.5 -46t-93 -29.5z" />
    <glyph glyph-name="uni1ECF" unicode="&#x1ecf;" horiz-adv-x="1134" 
d="M1073 698q0 -47 -10 -112t-31.5 -145.5t-65.5 -163t-102 -140.5q-160 -160 -403 -160q-189 0 -286 96t-97 261q0 47 10 112t31.5 145.5t65.5 163t102 140.5q160 160 403 160q189 0 286 -96t97 -261zM899 682q0 124 -60 185t-169 61q-69 0 -135.5 -26.5t-116.5 -76.5
q-83 -83 -124.5 -223t-41.5 -252q0 -124 60 -185t169 -61q69 0 135.5 26.5t116.5 76.5q83 83 124.5 223t41.5 252zM696 1143l-6 88q61 18 102.5 53t41.5 76q0 25 -24.5 40t-70.5 15q-81 0 -164 -33l-10 93q117 43 217 43q89 0 139 -33.5t50 -89.5q0 -85 -74.5 -151
t-200.5 -101z" />
    <glyph glyph-name="uni1ED0" unicode="&#x1ed0;" horiz-adv-x="1372" 
d="M578 -20q-229 0 -348 123t-119 335q0 75 13 159t42 176t71.5 178t105.5 164t139 136t178 92.5t217 34.5q229 0 347.5 -123t118.5 -335q0 -75 -13 -159t-42 -176t-71 -178t-105 -164t-139 -136t-178 -92.5t-217 -34.5zM590 117q87 0 164.5 30.5t134.5 81.5t104.5 118.5
t78.5 140.5t52.5 149.5t31 143.5t9.5 124q0 336 -303 336q-120 0 -220 -58t-163.5 -146t-108 -197t-63 -207t-18.5 -180q0 -336 301 -336zM1165 1460h-137l-108 135l-168 -135h-138l246 213h148zM983 1774h-121l176 213h166z" />
    <glyph glyph-name="uni1ED1" unicode="&#x1ed1;" horiz-adv-x="1134" 
d="M1073 698q0 -47 -10 -112t-31.5 -145.5t-65.5 -163t-102 -140.5q-160 -160 -403 -160q-189 0 -286 96t-97 261q0 47 10 112t31.5 145.5t65.5 163t102 140.5q160 160 403 160q189 0 286 -96t97 -261zM899 682q0 124 -60 185t-169 61q-69 0 -135.5 -26.5t-116.5 -76.5
q-83 -83 -124.5 -223t-41.5 -252q0 -124 60 -185t169 -61q69 0 135.5 26.5t116.5 76.5q83 83 124.5 223t41.5 252zM973 1180h-137l-107 145l-164 -145h-143l248 223h147zM782 1497h-116l180 223h170z" />
    <glyph glyph-name="uni1ED2" unicode="&#x1ed2;" horiz-adv-x="1372" 
d="M578 -20q-229 0 -348 123t-119 335q0 75 13 159t42 176t71.5 178t105.5 164t139 136t178 92.5t217 34.5q229 0 347.5 -123t118.5 -335q0 -75 -13 -159t-42 -176t-71 -178t-105 -164t-139 -136t-178 -92.5t-217 -34.5zM590 117q87 0 164.5 30.5t134.5 81.5t104.5 118.5
t78.5 140.5t52.5 149.5t31 143.5t9.5 124q0 336 -303 336q-120 0 -220 -58t-163.5 -146t-108 -197t-63 -207t-18.5 -180q0 -336 301 -336zM1167 1460h-137l-108 135l-168 -135h-138l246 213h148zM1055 1774h-113l-164 213h172z" />
    <glyph glyph-name="uni1ED3" unicode="&#x1ed3;" horiz-adv-x="1134" 
d="M1073 698q0 -47 -10 -112t-31.5 -145.5t-65.5 -163t-102 -140.5q-160 -160 -403 -160q-189 0 -286 96t-97 261q0 47 10 112t31.5 145.5t65.5 163t102 140.5q160 160 403 160q189 0 286 -96t97 -261zM899 682q0 124 -60 185t-169 61q-69 0 -135.5 -26.5t-116.5 -76.5
q-83 -83 -124.5 -223t-41.5 -252q0 -124 60 -185t169 -61q69 0 135.5 26.5t116.5 76.5q83 83 124.5 223t41.5 252zM860 1497h-112l-164 223h166zM973 1180h-137l-107 145l-164 -145h-143l248 223h147z" />
    <glyph glyph-name="uni1ED4" unicode="&#x1ed4;" horiz-adv-x="1372" 
d="M578 -20q-229 0 -348 123t-119 335q0 75 13 159t42 176t71.5 178t105.5 164t139 136t178 92.5t217 34.5q229 0 347.5 -123t118.5 -335q0 -75 -13 -159t-42 -176t-71 -178t-105 -164t-139 -136t-178 -92.5t-217 -34.5zM590 117q87 0 164.5 30.5t134.5 81.5t104.5 118.5
t78.5 140.5t52.5 149.5t31 143.5t9.5 124q0 336 -303 336q-120 0 -220 -58t-163.5 -146t-108 -197t-63 -207t-18.5 -180q0 -336 301 -336zM1042 1864l-8 84q88 39 158 39q64 0 99.5 -29.5t35.5 -79.5q0 -118 -168 -227l-51 67q92 72 92 131q0 39 -53 39q-41 0 -105 -24z
M1180 1460h-138l-108 135l-168 -135h-137l245 213h148z" />
    <glyph glyph-name="uni1ED5" unicode="&#x1ed5;" horiz-adv-x="1134" 
d="M1073 698q0 -47 -10 -112t-31.5 -145.5t-65.5 -163t-102 -140.5q-160 -160 -403 -160q-189 0 -286 96t-97 261q0 47 10 112t31.5 145.5t65.5 163t102 140.5q160 160 403 160q189 0 286 -96t97 -261zM899 682q0 124 -60 185t-169 61q-69 0 -135.5 -26.5t-116.5 -76.5
q-83 -83 -124.5 -223t-41.5 -252q0 -124 60 -185t169 -61q69 0 135.5 26.5t116.5 76.5q83 83 124.5 223t41.5 252zM838 1595l-9 84q88 39 158 39q64 0 99.5 -29t35.5 -79q0 -59 -44.5 -118t-123.5 -110l-51 68q92 72 92 131q0 39 -53 39q-37 0 -104 -25zM973 1180h-137
l-107 145l-164 -145h-143l248 223h147z" />
    <glyph glyph-name="uni1ED6" unicode="&#x1ed6;" horiz-adv-x="1372" 
d="M578 -20q-229 0 -348 123t-119 335q0 75 13 159t42 176t71.5 178t105.5 164t139 136t178 92.5t217 34.5q229 0 347.5 -123t118.5 -335q0 -75 -13 -159t-42 -176t-71 -178t-105 -164t-139 -136t-178 -92.5t-217 -34.5zM590 117q87 0 164.5 30.5t134.5 81.5t104.5 118.5
t78.5 140.5t52.5 149.5t31 143.5t9.5 124q0 336 -303 336q-120 0 -220 -58t-163.5 -146t-108 -197t-63 -207t-18.5 -180q0 -336 301 -336zM1233 1980l74 -57q-37 -70 -92.5 -107.5t-122.5 -37.5q-41 0 -77 14.5t-56.5 32.5t-49.5 32.5t-59 14.5q-66 0 -125 -96l-74 57
q37 70 92.5 107.5t122.5 37.5q41 0 77 -14.5t56.5 -32.5t49.5 -32.5t59 -14.5q66 0 125 96zM1167 1460h-137l-108 135l-168 -135h-138l246 213h148z" />
    <glyph glyph-name="uni1ED7" unicode="&#x1ed7;" horiz-adv-x="1134" 
d="M1073 698q0 -47 -10 -112t-31.5 -145.5t-65.5 -163t-102 -140.5q-160 -160 -403 -160q-189 0 -286 96t-97 261q0 47 10 112t31.5 145.5t65.5 163t102 140.5q160 160 403 160q189 0 286 -96t97 -261zM899 682q0 124 -60 185t-169 61q-69 0 -135.5 -26.5t-116.5 -76.5
q-83 -83 -124.5 -223t-41.5 -252q0 -124 60 -185t169 -61q69 0 135.5 26.5t116.5 76.5q83 83 124.5 223t41.5 252zM1047 1710l73 -57q-37 -70 -92.5 -108t-122.5 -38q-41 0 -78.5 15t-61 32.5t-54 32.5t-60.5 15q-65 0 -125 -97l-73 58q37 70 92.5 107.5t122.5 37.5
q52 0 96.5 -23.5t82.5 -47t75 -23.5q66 0 125 96zM973 1180h-137l-107 145l-164 -145h-143l248 223h147z" />
    <glyph glyph-name="uni1ED8" unicode="&#x1ed8;" horiz-adv-x="1372" 
d="M578 -20q-229 0 -348 123t-119 335q0 75 13 159t42 176t71.5 178t105.5 164t139 136t178 92.5t217 34.5q229 0 347.5 -123t118.5 -335q0 -75 -13 -159t-42 -176t-71 -178t-105 -164t-139 -136t-178 -92.5t-217 -34.5zM590 117q87 0 164.5 30.5t134.5 81.5t104.5 118.5
t78.5 140.5t52.5 149.5t31 143.5t9.5 124q0 336 -303 336q-120 0 -220 -58t-163.5 -146t-108 -197t-63 -207t-18.5 -180q0 -336 301 -336zM1157 1477h-139l-94 143l-156 -143h-137l241 229h138zM469 -162h160l-39 -180h-160z" />
    <glyph glyph-name="uni1ED9" unicode="&#x1ed9;" horiz-adv-x="1134" 
d="M1073 698q0 -47 -10 -112t-31.5 -145.5t-65.5 -163t-102 -140.5q-160 -160 -403 -160q-189 0 -286 96t-97 261q0 47 10 112t31.5 145.5t65.5 163t102 140.5q160 160 403 160q189 0 286 -96t97 -261zM899 682q0 124 -60 185t-169 61q-69 0 -135.5 -26.5t-116.5 -76.5
q-83 -83 -124.5 -223t-41.5 -252q0 -124 60 -185t169 -61q69 0 135.5 26.5t116.5 76.5q83 83 124.5 223t41.5 252zM379 -162h160l-39 -180h-160zM993 1190h-139l-113 184l-196 -184h-137l280 270h137z" />
    <glyph glyph-name="uni1EDA" unicode="&#x1eda;" horiz-adv-x="1409" 
d="M1188 1702l-217 -225h-125l158 225h184zM1444 1522h162q5 -63 -5.5 -125.5t-38.5 -129t-87.5 -126t-143.5 -99.5q12 -58 12 -122q0 -75 -13 -159t-42 -176t-71 -178t-105 -164t-139 -136t-178 -92.5t-217 -34.5q-229 0 -348 123t-119 335q0 75 13 159t42 176t71.5 178
t105.5 164t139 136t178 92.5t217 34.5q152 0 256.5 -56.5t156.5 -160.5q94 42 131 148t23 213zM590 117q87 0 164.5 30.5t134.5 81.5t104.5 118.5t78.5 140.5t52.5 149.5t31 143.5t9.5 124q0 336 -303 336q-120 0 -220 -58t-163.5 -146t-108 -197t-63 -207t-18.5 -180
q0 -336 301 -336z" />
    <glyph glyph-name="uni1EDB" unicode="&#x1edb;" horiz-adv-x="1226" 
d="M1030 1468l-285 -278h-129l230 278h184zM1192 1202h162q8 -64 -5 -132t-45 -134t-91.5 -123t-139.5 -92v-23q0 -47 -10 -112t-31.5 -145.5t-65.5 -163t-102 -140.5q-160 -160 -403 -160q-189 0 -286 96t-97 261q0 47 10 112t31.5 145.5t65.5 163t102 140.5
q160 160 403 160q142 0 232.5 -54t126.5 -153q73 34 116.5 133.5t26.5 220.5zM899 682q0 124 -60 185t-169 61q-69 0 -135.5 -26.5t-116.5 -76.5q-83 -83 -124.5 -223t-41.5 -252q0 -124 60 -185t169 -61q69 0 135.5 26.5t116.5 76.5q83 83 124.5 223t41.5 252z" />
    <glyph glyph-name="uni1EDC" unicode="&#x1edc;" horiz-adv-x="1409" 
d="M997 1477h-125l-200 225h184zM1444 1522h162q5 -63 -5.5 -125.5t-38.5 -129t-87.5 -126t-143.5 -99.5q12 -58 12 -122q0 -75 -13 -159t-42 -176t-71 -178t-105 -164t-139 -136t-178 -92.5t-217 -34.5q-229 0 -348 123t-119 335q0 75 13 159t42 176t71.5 178t105.5 164
t139 136t178 92.5t217 34.5q152 0 256.5 -56.5t156.5 -160.5q94 42 131 148t23 213zM590 117q87 0 164.5 30.5t134.5 81.5t104.5 118.5t78.5 140.5t52.5 149.5t31 143.5t9.5 124q0 336 -303 336q-120 0 -220 -58t-163.5 -146t-108 -197t-63 -207t-18.5 -180q0 -336 301 -336
z" />
    <glyph glyph-name="uni1EDD" unicode="&#x1edd;" horiz-adv-x="1226" 
d="M823 1190h-125l-206 278h184zM1192 1202h162q8 -64 -5 -132t-45 -134t-91.5 -123t-139.5 -92v-23q0 -47 -10 -112t-31.5 -145.5t-65.5 -163t-102 -140.5q-160 -160 -403 -160q-189 0 -286 96t-97 261q0 47 10 112t31.5 145.5t65.5 163t102 140.5q160 160 403 160
q142 0 232.5 -54t126.5 -153q73 34 116.5 133.5t26.5 220.5zM899 682q0 124 -60 185t-169 61q-69 0 -135.5 -26.5t-116.5 -76.5q-83 -83 -124.5 -223t-41.5 -252q0 -124 60 -185t169 -61q69 0 135.5 26.5t116.5 76.5q83 83 124.5 223t41.5 252z" />
    </font>
</defs>
</svg>
